<svg version="1.1" xmlns="http://www.w3.org/2000/svg" style="display: block;" viewBox="0 0 2048 1365" width="1536" height="1024" preserveAspectRatio="none">
<path transform="translate(0,0)" fill="rgb(253,253,253)" d="M 0 0 L 2048 0 L 2048 1365 L 0 1365 L 0 0 z"/>
<path transform="translate(0,0)" fill="rgb(0,0,0)" d="M 1281.99 26.3857 C 1287.82 25.8091 1293.71 26.0495 1299.47 27.0999 C 1326.86 32.2615 1343.44 56.7968 1350.79 82.0087 C 1386.16 203.385 1307.04 340.202 1206.61 405.448 C 1207.82 406.421 1209.02 407.405 1210.21 408.398 C 1267.19 455.899 1291.75 524.478 1298.25 596.313 C 1320.9 610.75 1341.39 634.876 1337.89 663.368 C 1345.7 663.797 1368.88 664.215 1373.99 669.065 L 1373.7 670.189 C 1368.66 672.732 1343.05 669.641 1335.65 669.195 C 1333.24 670.752 1330.54 671.853 1327.92 673.045 C 1332.91 693.178 1332.19 704.853 1325 723.859 C 1332.13 726.125 1358.78 734.674 1360.92 741.368 L 1360.16 742.365 C 1353.54 743.095 1332.35 732.221 1323.04 729.151 C 1313.83 743.012 1312.59 743.304 1301.76 745.199 C 1302 745.158 1288.64 766.37 1285.27 770.295 C 1258.53 801.423 1221.85 821.804 1184.75 838.031 C 1242.6 884.655 1267.35 963.88 1230.45 1031.23 C 1303.5 1016.89 1333.79 1091.66 1316.18 1151.84 C 1312.82 1163.33 1309.46 1170.99 1303.94 1181.73 C 1339.45 1204.31 1357.61 1250.81 1325.61 1285.79 C 1308.38 1304.63 1265.81 1311.17 1240.75 1310.86 C 1195.5 1310.31 1135.8 1297 1102.97 1263.3 C 1045.48 1286.47 969.32 1286.01 909.932 1270.41 C 908.967 1271.83 907.966 1273.23 906.929 1274.6 C 886.705 1301.17 845.813 1312.73 810.777 1318.6 C 751.276 1328.56 648.158 1312.91 684.725 1226.09 C 687.501 1219.5 692.567 1213.39 697.19 1207.53 L 691.002 1194.78 C 681.691 1195.12 674.015 1195.08 664.964 1192.45 C 640.267 1185.26 620.624 1164.57 628.123 1137.81 C 620.377 1127.38 617.935 1121.67 615.204 1109.04 C 612.846 1088.6 616.372 1073 631.986 1059.04 C 634.551 1002.13 690.627 981.649 727.786 1022.66 C 737.186 999.736 749.159 983.028 766.045 965.273 C 766.069 962.221 766.169 959.17 766.344 956.123 C 768.629 912.908 788.165 872.419 820.569 843.737 C 782.422 826.454 747.785 810.039 724.763 773.38 C 711.185 773.757 707.408 768.563 700.621 757.815 C 695.848 759.615 683.352 765.248 678.893 762.866 C 680.972 758.135 693.231 754.688 698.113 752.98 C 693.828 743.189 691.473 731.107 692.572 720.557 C 694.367 703.337 686.086 711.714 680.713 697.79 L 680.252 696.58 C 672.56 697.898 667.556 699.263 659.818 697.278 L 659.922 696.164 C 667.136 692.425 672.248 692.532 680.248 691.684 C 680.303 690.876 680.375 690.069 680.464 689.264 C 682.953 665.991 694.102 648.234 712.108 633.677 C 711.991 628.288 711.972 622.896 712.051 617.506 C 713.529 547.934 739.501 474.005 790.372 425.146 C 773.686 413.964 758.286 403.712 742.319 391.122 C 673.051 336.508 619.416 261.663 608.132 172.537 C 603.788 138.226 606.709 94.8484 628.503 66.233 C 639.403 51.9207 656.363 44.9097 674.07 42.9362 C 715.757 38.2898 761.822 60.3798 793.638 85.7472 C 868.461 145.406 905.685 243.601 915.801 336.495 C 937.494 307.767 968.285 277.595 1006.79 273.084 C 1020.18 271.515 1008.79 301.495 1006.82 306.825 C 1012.08 304.933 1017.48 303.456 1022.97 302.408 C 1037.14 299.702 1050.11 299.453 1064.27 302.586 C 1096.24 309.663 1074.3 323.989 1063.65 336.283 L 1063.12 336.905 C 1069.32 337.766 1075.5 339.386 1081.6 340.849 C 1087.83 244.768 1119.98 141.683 1191.03 72.9806 C 1215.05 49.7556 1248.21 29.9434 1281.99 26.3857 z"/>
<path transform="translate(0,0)" fill="rgb(253,253,253)" d="M 1278.5 37.2439 C 1282.97 36.6664 1287.48 36.4937 1291.98 36.7277 C 1343.99 39.5294 1351.34 120.643 1348.28 159.577 C 1342.2 237.193 1301.53 309.324 1244.78 361.417 C 1235.55 370.006 1225.92 378.159 1215.93 385.849 C 1208.17 391.707 1198.33 398.237 1191.17 404.438 L 1190.31 405.189 C 1197.13 411.107 1203.77 415.932 1210.43 422.291 C 1259.68 469.335 1285.62 534.216 1287.84 601.589 C 1302.07 609.934 1314.06 620.69 1322.28 635.189 C 1326.2 642.107 1332.21 654.635 1326.58 662.004 C 1323.95 662.04 1314.21 652.417 1307.79 649.108 L 1306.58 648.501 L 1313.57 663.866 C 1295.65 664.769 1230.56 674.136 1218.7 684.874 L 1218.96 686.467 C 1222.3 686.72 1241.31 681.124 1245.87 679.976 C 1269.36 674.054 1291.83 671.288 1315.8 668.841 C 1322.53 689.26 1323.29 700.407 1316.43 720.817 C 1298.19 716.582 1308.99 716.957 1301.19 709.536 L 1299.98 709.86 L 1299.64 714.775 C 1299.26 715.191 1298.89 715.607 1298.51 716.023 C 1283.94 714.546 1235.51 704.717 1222.96 711.123 L 1222.73 712.668 C 1226.01 713.573 1247.51 714.761 1252.56 715.224 C 1268.1 716.658 1283.54 718.992 1298.81 722.214 C 1287.5 784.854 1187.2 830.036 1134.2 846.277 C 1125.32 848.997 1086.55 859.232 1082.06 862.432 L 1082.76 863.469 C 1103.92 865.991 1153.83 849.802 1174.2 842.202 C 1209.15 871.973 1232.55 905.491 1237.53 952.518 C 1241.26 987.696 1228.52 1026.16 1202.06 1050.53 C 1198.47 1053.84 1186.73 1064.42 1182.79 1064.77 L 1181.75 1061.69 L 1180.39 1061.66 C 1169.66 1071.84 1159.67 1101.45 1150.04 1114.41 C 1143.05 1123.81 1117.47 1147.92 1105.62 1139.08 C 1097.6 1127.37 1107.81 1105.36 1107.58 1097.47 L 1106.41 1097.29 C 1094.41 1105.73 1095.01 1130.29 1099.11 1143.01 C 1082.61 1143.1 1072.25 1140.61 1059.52 1129.91 C 1053.44 1109.67 1059.81 1095.86 1066.94 1077.21 C 1066.41 1077.71 1065.89 1078.21 1065.37 1078.71 C 1052.25 1091.47 1050.45 1104.05 1050.18 1121.35 C 1013.37 1075.79 1049.55 1010.89 1090.1 981.204 C 1097.32 975.914 1127 959.519 1127.06 951.639 C 1123.29 947.816 1122.44 947.957 1124.56 943.387 C 1126.63 943.169 1129.29 942.854 1131.28 942.531 C 1139.4 941.24 1143.58 928.503 1143.85 921.292 C 1144.52 903.919 1139.8 891.091 1125.29 881.599 C 1135.92 902.44 1141.22 914.83 1128.62 936.402 C 1122.99 928.558 1121.04 925.32 1114.13 918.254 C 1116.63 935.432 1117.44 939.267 1112.16 955.622 C 1076.46 977.8 1060.54 989.07 1038.85 1026.28 C 1001.91 1089.66 1043.55 1174.66 1122.96 1148.32 C 1121.45 1160.98 1117.59 1174.34 1114.58 1186.9 C 1124.08 1173.64 1128.46 1159.76 1131.46 1144.02 C 1158.76 1126.99 1166.62 1105.86 1180.72 1078.12 C 1198.06 1068.31 1208.86 1059.21 1221.55 1044.1 C 1222.7 1043.7 1223.86 1043.3 1225.02 1042.92 C 1280.83 1024.49 1315.11 1074.2 1310.66 1125.69 C 1309.01 1144.77 1304.1 1159.86 1295.46 1176.96 C 1249.13 1158.49 1195.57 1170.49 1167.68 1213.61 C 1180.26 1204.91 1189.66 1195.98 1204.09 1189.5 C 1230.2 1177.79 1256.58 1174.17 1284.32 1183.61 C 1333.27 1200.27 1354.56 1265.96 1299.1 1290.19 C 1307.99 1270.61 1311.53 1247.5 1297.17 1229.12 C 1295.47 1226.94 1295.16 1226.61 1292.65 1226.41 C 1292.16 1229.12 1294.56 1232.53 1295.75 1235.29 C 1298.64 1242.17 1300.14 1249.55 1300.14 1257 C 1300.17 1270.67 1295.61 1284.11 1285.84 1293.86 L 1284.97 1294.73 C 1265.22 1300.25 1256.92 1300.36 1236.94 1299.93 C 1253.73 1278.04 1254.31 1250.18 1232.78 1231.42 C 1244.2 1255.46 1246.93 1279.35 1226.18 1299.41 C 1187.51 1298.81 1139.9 1283.15 1110.59 1256.94 C 1116.86 1246.48 1119.94 1239.82 1124.41 1228.65 C 1116.59 1236.11 1109.12 1247.81 1101.53 1252.35 C 1093.34 1257.26 1076.54 1261.46 1066.93 1263.58 C 1015.63 1274.8 962.397 1273.63 911.64 1260.16 C 906.917 1249 904.353 1243.94 896.814 1234.37 C 898.604 1244.13 901.077 1253.09 902.752 1263.29 C 881.247 1292.44 837.897 1305.97 803.009 1308.4 C 788.199 1293.94 785.814 1272.74 790.84 1253.5 C 791.796 1249.84 794.495 1243.83 793.964 1241.24 L 792.072 1241.92 C 774.88 1261.18 780.287 1289.53 792.768 1309.65 C 773.397 1310.66 759.696 1311.16 740.893 1306.36 C 720.002 1287.74 722.729 1259.89 732.529 1236.47 L 731.821 1235.26 C 726.846 1236.41 721.855 1248.75 720.461 1253.16 C 714.755 1271.21 718.865 1286.78 727.125 1303.14 C 679.345 1287.75 676.153 1246.92 706.966 1211.77 C 747.546 1174 805.965 1180.12 848.123 1210.97 C 852.938 1214.49 857.642 1218.45 862.259 1222.24 C 836.594 1176.36 770.791 1164.17 725.947 1186.6 C 718.408 1190.37 712.052 1194.8 705.164 1199.6 C 701.311 1193.26 698.188 1186.51 695.854 1179.47 C 680.069 1132.98 692.77 1065.94 744.449 1049.1 C 753.681 1046.16 763.384 1044.99 773.049 1045.66 C 798.691 1047.19 807.031 1055.96 826.295 1070.31 C 831.908 1074.49 841.924 1079.68 848.219 1082.93 C 865.237 1110.34 866.582 1125.03 895.982 1145.86 C 900.201 1160.94 904.543 1175.89 912.423 1189.46 C 911.292 1177.33 907.93 1162.89 905.431 1150.76 C 972.523 1170.64 1019.85 1118.52 1003.58 1052.61 C 991.567 1003.94 959.614 980.515 919.04 955.754 C 917.619 950.331 916.343 945.739 916.235 940.105 C 916.145 935.413 917.441 930.951 916.48 926.595 L 915.022 926.252 C 908.564 930.482 910.56 940.56 903.308 939.974 C 888.826 927.394 900.956 900.485 899.102 895.998 L 897.224 896.473 C 886.422 907.896 885.669 930.451 894.11 943.387 C 897.851 949.122 902.277 946.314 907.514 949.012 C 907.806 951.557 907.499 954.16 907.87 956.66 C 908.727 962.436 940.679 980.247 947.338 985.519 C 972.908 1005.76 993.38 1036.34 996.773 1069.24 C 998.82 1089.09 994.673 1106.66 981.991 1122.19 C 982.066 1119.79 982.09 1117.4 982.06 1115 C 981.97 1107.56 978.23 1082.23 968.462 1082.7 C 968.144 1085.81 969.856 1087.44 971.057 1090.86 C 976.882 1107.48 977.177 1115.95 971.998 1132.06 C 958.924 1143.55 947.522 1145.3 931.072 1145.46 C 937.036 1133.37 937.627 1105.74 924.927 1099.15 L 923.93 1100.43 C 929.275 1118.01 933.314 1127.62 922.566 1144.3 C 868.881 1134.67 860.814 1068.02 845.019 1065.59 C 843.851 1067.26 843.757 1067.65 842.031 1068.77 C 827.898 1061.22 812.749 1048.21 802.754 1035.69 C 782.88 1010.55 773.662 978.614 777.083 946.751 C 781.261 909.627 802.246 870.84 831.424 847.434 C 860.261 858.073 947.269 880.093 976.547 871.454 L 976.541 870.502 C 970.012 866.98 911.722 858.871 898.161 856.036 C 865.718 849.524 834.168 839.162 804.181 825.171 C 770 808.855 738.934 787.559 725.936 750.643 C 745.474 746.255 765.34 743.575 785.127 740.7 C 793.839 739.434 812.908 739.428 819.31 735.536 L 818.562 735.932 C 802.615 727.112 731.1 746.341 725.128 744.201 C 724.594 742.374 724.465 740.997 722.999 739.878 L 721.398 740.66 C 718.627 748.983 715.448 747.599 707.3 749.819 C 699.674 729.735 700.625 716.067 707.001 695.977 C 743.972 696.295 778.827 700.977 814.725 709.402 C 817.808 710.126 819.246 710.448 821.549 708.935 C 819.107 703.387 784.864 698.892 779.659 696.542 C 768.992 691.727 714.451 692.388 709.556 690.038 C 709.868 687.993 710.308 686.663 710.893 684.711 L 709.489 683.871 C 702.03 685.128 702.584 694.605 691.849 690.575 C 682.878 678.946 713.685 644.86 722.737 637.083 C 720.458 573.975 736.62 511.017 773.89 459.514 C 779.713 451.462 786.048 443.793 792.857 436.555 C 796.387 432.787 803.028 427.161 805.423 423.368 C 804.318 420.922 786.535 409.87 782.681 407.335 C 759.947 392.697 738.696 375.876 719.23 357.111 C 660.864 301.156 619.797 232.198 616.892 149.636 C 613.954 66.1585 661.076 31.1398 739.363 65.2069 C 815.408 98.2982 864.287 173.844 887.795 250.819 C 893.778 270.235 898.498 290.018 901.924 310.044 C 903.485 319.056 905.971 352.447 910.3 356.854 C 912.503 356.357 913.902 355.037 915.246 353.162 C 938.176 321.158 963.091 292.808 1003.49 283.755 C 999.84 303.334 992.503 313.645 981.723 329.613 C 1009.02 313.54 1038.14 303.463 1069.51 315.202 C 1060.58 327.157 1043.35 338.089 1030.82 346.852 C 1051.26 345.381 1069.64 346.294 1088.94 353.921 C 1095.14 356.37 1101.18 363.742 1107.49 361.913 C 1110.19 358.803 1109.74 360.239 1109.63 356.626 C 1105.88 350.674 1097.56 347.404 1091.19 344.278 C 1095.79 268.198 1117.84 187.432 1161.44 124.044 C 1189.06 83.9026 1228.85 46.0731 1278.5 37.2439 z"/>
<path transform="translate(0,0)" fill="rgb(0,0,0)" d="M 1023.61 654.31 C 1031.13 653.23 1049.92 654.368 1056.44 657.777 C 1093.99 677.44 1052.39 705.559 1034.24 713.301 C 1034.4 724.259 1034.08 732.577 1033.35 743.531 C 1043.76 751.659 1051.89 755.61 1068.01 754.818 C 1084.68 754 1110.68 734.846 1108.83 715.601 C 1108.74 714.651 1105.59 713.124 1105.19 709.396 C 1111.67 705.524 1127.01 713.649 1129.64 720.427 C 1129.31 724.074 1129.84 722.714 1127.66 725.594 C 1124.11 725.066 1120.03 721.816 1116.82 719.68 C 1115.91 722.62 1114.9 725.532 1113.81 728.411 C 1107.15 745.856 1096.99 753.625 1080.7 760.976 C 1074.1 794.273 1061.63 822.187 1025.31 829.009 C 986.98 829.21 971.553 796.921 963.349 764.846 C 946.245 757.099 939.574 748.767 931.695 732.52 C 930.479 733.542 929.25 734.549 928.009 735.541 C 925.546 737.489 923.641 739.201 920.772 738.88 C 916.862 730.237 934.098 717.167 942.025 718.51 L 943.162 720.246 C 942.631 723.786 940.515 725.19 937.875 727.811 C 941.171 734.556 943.569 738.877 948.926 744.295 C 958.759 754.374 972.25 760.048 986.332 760.027 C 1000.54 760.018 1019.55 754.752 1024.93 739.73 C 1027.59 732.298 1026.91 721.875 1026.83 713.905 C 1016.31 712.091 1006.32 708.022 997.521 701.976 C 987.439 694.996 977.122 682.554 986.326 670.165 C 994.521 659.134 1010.81 656.287 1023.61 654.31 z"/>
<path transform="translate(0,0)" fill="rgb(253,253,253)" d="M 1025.5 663.349 C 1074.22 658.416 1070.95 687.868 1030.94 704.561 C 995.319 700.489 970.004 670.321 1025.5 663.349 z"/>
<path transform="translate(0,0)" fill="rgb(253,253,253)" d="M 996.972 781.171 C 1016.86 780.88 1014.87 790.898 1028.04 796.744 L 1029.14 796.117 C 1028.22 791.758 1024.82 789.676 1023.42 785.558 C 1025.9 783.913 1028.73 783.881 1031.66 783.791 C 1044 783.409 1051.78 790.155 1057.82 800.047 C 1055.13 803.944 1053.23 805.949 1050.03 809.402 C 1047.47 811.393 1043.56 814.056 1040.7 815.497 C 1030.91 820.517 1019.51 821.352 1009.09 817.813 C 994.093 812.623 985.839 801.307 979.197 787.697 C 985.852 784.302 989.735 782.792 996.972 781.171 z"/>
<path transform="translate(0,0)" fill="rgb(253,253,253)" d="M 1029.29 750.945 C 1035.1 756.909 1042.09 757.9 1045.68 762.669 C 1046.47 771.281 1034.67 775.7 1027.66 777.009 C 1021.34 777.151 1010.6 775.427 1007.7 768.78 C 1009.3 762.488 1021.02 758.938 1029.29 750.945 z"/>
<path transform="translate(0,0)" fill="rgb(0,0,0)" d="M 882.097 543.236 C 895.112 542.574 907.564 545.901 917.049 555.061 C 950.842 587.695 955.211 678.025 893.462 681.615 C 818.342 678.477 810.679 558.029 882.097 543.236 z"/>
<path transform="translate(0,0)" fill="rgb(253,253,253)" d="M 886.083 552.288 C 916.851 552.701 927.513 578.85 934.381 604.252 C 929.509 595.965 925.395 589.701 917.222 584.238 C 909.84 579.202 900.737 577.362 891.978 579.136 C 862.235 585.113 856.321 619.86 861.924 645.156 C 865.88 659.037 871.544 667.066 882.444 676.162 C 875.74 673.715 870.122 671.444 864.311 667.221 C 824.025 637.949 832.15 559.894 886.083 552.288 z"/>
<path transform="translate(0,0)" fill="rgb(253,253,253)" d="M 890.276 591.947 C 906.541 591.41 912.033 611.009 895.808 621.211 C 877.769 621.807 874.417 601.777 890.276 591.947 z"/>
<path transform="translate(0,0)" fill="rgb(0,0,0)" d="M 1137.95 528.117 C 1206.33 523.245 1223.43 642.042 1153.33 663.769 C 1091.39 678.888 1082.59 590.271 1105.29 552.731 C 1113.77 538.699 1122.36 532.216 1137.95 528.117 z"/>
<path transform="translate(0,0)" fill="rgb(253,253,253)" d="M 1145.16 536.321 C 1182.27 538.708 1199.84 588.757 1189.86 620.122 C 1183.75 639.357 1175.39 648.529 1158.18 658.093 C 1171.22 643.196 1173.61 634.935 1176.01 615.925 C 1175.99 596.612 1167.79 574.447 1148.6 566.748 C 1140.41 563.531 1131.26 563.774 1123.25 567.422 C 1109.79 573.526 1104.49 585.196 1099.8 598.034 C 1102.53 567.896 1111 540.325 1145.16 536.321 z"/>
<path transform="translate(0,0)" fill="rgb(253,253,253)" d="M 1124.07 579.04 C 1142.15 576.584 1147.11 597.296 1132.42 607.533 C 1114.71 610.126 1110.48 589.904 1124.07 579.04 z"/>
<path transform="translate(0,0)" fill="rgb(0,0,0)" d="M 712.43 140.193 C 729.014 138.855 745.628 145.91 758.912 155.979 C 820.548 203.565 849.735 284.442 863.853 358.516 C 864.62 362.544 866.088 374.293 860.318 374.694 C 855.995 368.875 855.1 349.756 852.992 341.561 C 847.628 320.707 842.124 299.946 834.307 279.689 C 815.24 231.525 786.322 177.066 737.763 153.195 C 719.545 144.24 704.93 145.938 696.507 165.685 C 680.595 244.591 767.544 341.518 826.758 382.129 C 830.715 384.843 834.083 385.603 835.238 390.667 L 833.741 392.716 C 831.74 393.402 830.854 393.627 828.832 392.232 C 770.494 351.993 716.074 294.977 694.013 226.38 C 685.169 198.881 676.568 150.77 712.43 140.193 z"/>
<path transform="translate(0,0)" fill="rgb(0,0,0)" d="M 1254.25 140.201 C 1274.14 140.455 1283.64 153.694 1285.09 172.659 C 1289.58 231.279 1252.9 290.868 1216.35 333.675 C 1209.7 341.47 1173.09 380.603 1165.28 381.664 L 1162.94 379.37 C 1162.92 373.184 1170.82 369.255 1176.43 364.09 C 1198.3 344.11 1217.92 321.791 1234.93 297.535 C 1257.39 264.888 1284.14 209.977 1276.59 169.233 C 1270.52 136.567 1240.05 149.618 1223.5 165.169 C 1182.67 203.521 1159.87 262.701 1146.99 316.074 C 1144.5 326.167 1142.37 336.347 1140.61 346.593 C 1139.72 352.034 1140.47 363.816 1135.28 365.811 L 1132.82 364.547 C 1132.55 363.998 1131.71 362.291 1131.74 361.682 C 1135.66 297.726 1182.83 153.877 1254.25 140.201 z"/>
<path transform="translate(0,0)" fill="rgb(0,0,0)" d="M 871.119 474.245 C 878.817 473.358 895.1 473.077 895.243 484.299 C 891.529 489.458 877.724 487.968 870.838 490.941 C 863.526 494.097 861.778 495.407 855.272 500.329 C 851.125 504.732 849.359 507.914 843.793 508.403 L 842.341 506.83 C 840.556 492.481 859.333 478.892 871.119 474.245 z"/>
<path transform="translate(0,0)" fill="rgb(0,0,0)" d="M 1134.09 458.278 C 1151.9 455.829 1168.67 464.057 1176.36 481.044 C 1177.78 484.189 1177.8 485.935 1176.5 488.962 L 1174.5 489.376 L 1171.2 487.175 C 1146.13 464.988 1132.19 477.067 1124 471.02 C 1122.63 470.01 1122.98 469.591 1122.79 468.021 C 1125.43 462.748 1129.03 460.677 1134.09 458.278 z"/>
<path transform="translate(0,0)" fill="rgb(253,253,253)" d="M 684.862 1011.38 C 702.402 1012.09 713.901 1019.33 724.114 1033.28 L 719.674 1050.56 C 676.313 1085.75 673.46 1133.08 686.215 1182.77 L 685.402 1184.12 C 679.696 1185.83 672.008 1183.76 666.282 1182.44 C 651.493 1177.28 633.123 1162.95 636.32 1145.23 C 638.498 1143.01 638.336 1143.77 642.531 1143.52 C 644.859 1139.14 624.802 1121.69 624.76 1106.91 C 624.706 1087.6 624.248 1076.93 642.289 1064.68 C 643.349 1063.96 641.242 1050.62 642.428 1048.41 C 647.352 1024.9 661.466 1013.61 684.862 1011.38 z"/>
<path transform="translate(0,0)" fill="rgb(253,253,253)" d="M 767.345 978.666 C 768.142 980.714 771.092 993.573 772.13 997.255 C 776.968 1014.42 782.624 1023.9 791.871 1038.93 C 776.428 1035.49 768.633 1035.13 753.287 1036.52 C 745.245 1037.94 738.616 1040.58 731.165 1043.64 C 739.844 1016.9 748.475 999.458 767.345 978.666 z"/>
<path transform="translate(0,0)" fill="rgb(253,253,253)" d="M 718.885 752.272 C 721.179 755.381 719.784 759.254 717.907 762.051 L 715.033 761.68 C 713.123 759.38 711.841 758.369 711.393 755.548 C 713.577 753.146 715.313 753.311 718.885 752.272 z"/>
</svg>