<?xml version="1.0" encoding="UTF-8"?>
<svg version="1.1" xmlns="http://www.w3.org/2000/svg" width="1536" height="1024">
<path d="M0 0 C506.88 0 1013.76 0 1536 0 C1536 337.92 1536 675.84 1536 1024 C1029.12 1024 522.24 1024 0 1024 C0 686.08 0 348.16 0 0 Z " fill="#F9F9F9" transform="translate(0,0)"/>
<path d="M0 0 C55.89073563 -1.94402559 115.78271414 12.06211656 157.88476562 50.6328125 C159.83535706 52.45300926 161.76685354 54.29100069 163.69726562 56.1328125 C164.49003906 56.87273437 165.2828125 57.61265625 166.09960938 58.375 C187.69182837 79.09442279 207.20108033 113.03884844 208.87695312 143.38671875 C208.88357073 145.97750974 208.83722169 148.54621714 208.69726562 151.1328125 C207.73046875 151.49632812 206.76367188 151.85984375 205.76757812 152.234375 C197.94605629 155.23212172 190.6770452 158.42583205 183.69726562 163.1328125 C182.18132812 164.1228125 182.18132812 164.1228125 180.63476562 165.1328125 C178.15223789 167.69542177 177.93592112 169.63253193 177.69726562 173.1328125 C182.09358386 172.74202866 185.80955013 171.8131661 189.94726562 170.2578125 C212.40804854 161.83881809 237.33502283 158.76595952 260.69726562 165.1328125 C261.64424316 165.38224609 261.64424316 165.38224609 262.61035156 165.63671875 C274.83579447 168.93593872 284.8329952 174.06190396 291.67382812 185.0546875 C294.13659851 190.05542738 294.4928521 195.15175956 293.04882812 200.5625 C288.24598791 214.06792249 275.96527098 220.27225285 263.63037109 226.13598633 C245.92412108 234.22082404 226.90367789 239.99591616 207.69726562 243.1328125 C206.7975 243.28089355 205.89773438 243.42897461 204.97070312 243.58154297 C172.04326438 248.79094191 128.76867529 249.51375227 99.69726562 230.1328125 C94.75357931 229.40104482 90.76152761 229.61035662 86.25976562 231.8203125 C83.65027019 234.17522302 82.04333433 235.8864115 80.69726562 239.1328125 C80.91056012 241.87520393 80.91056012 241.87520393 81.69726562 244.1328125 C82.39851562 243.9884375 83.09976563 243.8440625 83.82226562 243.6953125 C84.77101563 243.5096875 85.71976563 243.3240625 86.69726562 243.1328125 C87.62539063 242.8028125 88.55351563 242.4728125 89.50976562 242.1328125 C93.92965518 242.1328125 95.4705141 243.88849102 98.58789062 246.87109375 C101.58005247 250.07935618 104.29045947 253.48206151 107.02539062 256.91015625 C126.41039101 280.7056199 151.91235469 303.72488891 181.69726562 313.1328125 C182.43589844 313.37644531 183.17453125 313.62007813 183.93554688 313.87109375 C188.82577122 315.22488467 193.77199568 315.35946079 198.82226562 315.4453125 C199.49169189 315.46311768 200.16111816 315.48092285 200.85083008 315.49926758 C205.9215554 315.4911364 209.27516421 314.42331856 213.69726562 312.1328125 C216.31823248 309.37017177 218.15334307 306.60663825 219.69726562 303.1328125 C225.22778206 312.76661532 225.22778206 312.76661532 224.69726562 319.1328125 C221.31347369 325.52441949 216.92004597 329.04303339 210.15039062 331.49780273 C205.27120416 332.76081667 200.33242899 332.60284603 195.32226562 332.5703125 C194.26910156 332.59029297 193.2159375 332.61027344 192.13085938 332.63085938 C175.05836054 332.62066075 158.90457946 326.84231715 142.88476562 321.5078125 C141.08227734 320.91591673 139.27954365 320.32476774 137.4765625 319.734375 C124.58956992 315.4974594 124.58956992 315.4974594 120.85473633 313.97119141 C117.97664958 312.85278585 115.75525731 312.8004221 112.69726562 313.1328125 C112.31570313 313.6071875 111.93414063 314.0815625 111.54101562 314.5703125 C108.59918998 317.06338508 105.03066483 317.00402307 101.32226562 317.4453125 C75.23809051 321.1135166 50.90369362 331.69963629 27.0184021 342.35479736 C3.31386642 352.92813866 -20.65383486 362.59919014 -45.19873047 371.06005859 C-48.04755071 372.04462019 -50.88849345 373.04900725 -53.72851562 374.05859375 C-73.04912283 380.82761578 -93.09640408 385.83830213 -113.30273438 389.1328125 C-111.99904793 385.77114522 -110.56187427 382.5395331 -108.94726562 379.31640625 C-97.7164563 356.60384204 -89.05541403 334.36190309 -88.86523438 308.7578125 C-88.85500244 307.68120361 -88.84477051 306.60459473 -88.83422852 305.49536133 C-88.79574888 298.25737623 -88.79574888 298.25737623 -92.30273438 292.1328125 C-94.84600546 291.46595312 -94.84600546 291.46595312 -97.30273438 292.1328125 C-99.71705355 295.75429126 -100.06902104 299.05199619 -100.67773438 303.2578125 C-106.61538113 341.03385815 -121.23591538 376.69052338 -147.91992188 404.62890625 C-149.82987887 406.63592664 -151.57864284 408.65780912 -153.30273438 410.8203125 C-156.55837376 414.67297458 -160.46494301 417.69417646 -164.40429688 420.8203125 C-166.24023832 422.28510675 -168.05148047 423.78188032 -169.82617188 425.3203125 C-192.15448406 444.55701223 -225.29014879 461.60168745 -255.31445312 461.56640625 C-258.66206822 461.08067386 -260.5933889 460.12942926 -263.30273438 458.1328125 C-265.06889481 454.60049163 -264.18742861 450.87903499 -263.30273438 447.1328125 C-261.93943429 444.38431192 -260.17552498 442.05448663 -258.30273438 439.6328125 C-248.76262048 426.49353756 -242.0137048 412.65921462 -237.30273438 397.1328125 C-236.93535156 395.93140625 -236.56796875 394.73 -236.18945312 393.4921875 C-233.78891449 384.7798079 -232.51884103 376.01956499 -231.30273438 367.0703125 C-228.21276082 344.54135384 -222.96574884 326.17066336 -206.30273438 310.1328125 C-205.58472656 309.40707031 -204.86671875 308.68132812 -204.12695312 307.93359375 C-197.26960987 301.36035888 -188.77717489 296.37003276 -180.30273438 292.1328125 C-180.63273437 290.4828125 -180.96273438 288.8328125 -181.30273438 287.1328125 C-199.03759212 288.27699687 -214.60429257 298.7277447 -226.44726562 311.43359375 C-235.20192779 321.66131571 -241.77215258 335.17523827 -243.64648438 348.59375 C-244.4396513 352.94091486 -245.70017019 354.6898887 -249.31054688 357.34375 C-251.27945186 358.57421825 -253.27302074 359.75056908 -255.28149414 360.9152832 C-269.18585652 369.00412118 -281.94003218 379.33897241 -293.52539062 390.47265625 C-296.09999729 392.93862973 -298.7414006 395.29012829 -301.42773438 397.6328125 C-310.29744746 405.59539584 -318.08337399 414.66825584 -325.30273438 424.1328125 C-325.79612305 424.77009277 -326.28951172 425.40737305 -326.79785156 426.06396484 C-336.39366118 438.50224258 -344.60643106 451.44786428 -352.30273438 465.1328125 C-352.71861816 465.8561377 -353.13450195 466.57946289 -353.56298828 467.32470703 C-379.41209325 512.36300933 -392.80435556 568.46134009 -383.68310547 619.98291016 C-383.34251703 621.90795622 -383.03341359 623.83851078 -382.72851562 625.76953125 C-381.86289225 631.25748027 -381.86289225 631.25748027 -379.30273438 636.1328125 C-377.98273438 635.8028125 -376.66273438 635.4728125 -375.30273438 635.1328125 C-375.12495606 630.15501965 -375.46927126 626.25512756 -376.79589844 621.42016602 C-388.68956433 567.74398311 -366.70484525 505.0624218 -338.37988281 460.07910156 C-331.48124657 449.36866536 -324.39353495 438.98076702 -316.30273438 429.1328125 C-315.4623957 428.08242701 -314.62247174 427.03170942 -313.78320312 425.98046875 C-302.38412303 412.13456738 -289.60398565 398.98797913 -275.30273438 388.1328125 C-273.77132812 386.91078125 -273.77132812 386.91078125 -272.20898438 385.6640625 C-252.65805365 370.1328125 -252.65805365 370.1328125 -248.30273438 370.1328125 C-249.53894097 395.26901318 -261.51024429 417.9178937 -275.33349609 438.34033203 C-278.43763 443.01536696 -280.14327355 447.08452695 -280.58007812 452.6953125 C-281.49200643 457.03313361 -283.46816287 458.61041219 -286.86523438 461.1328125 C-288.05207435 462.07666155 -289.23550764 463.02480566 -290.41601562 463.9765625 C-291.04588379 464.48058594 -291.67575195 464.98460937 -292.32470703 465.50390625 C-302.32951822 473.74287197 -311.45590206 482.81898366 -319.30273438 493.1328125 C-320.08648438 494.08929687 -320.87023437 495.04578125 -321.67773438 496.03125 C-328.99459267 505.10872732 -334.73325823 514.90850818 -340.30273438 525.1328125 C-340.68204102 525.8227832 -341.06134766 526.51275391 -341.45214844 527.22363281 C-355.01674189 552.15149403 -362.16818417 579.76839327 -361.30273438 608.1328125 C-361.27308594 609.23625 -361.2434375 610.3396875 -361.21289062 611.4765625 C-360.91613094 616.86166506 -360.49682972 620.31999855 -356.30273438 624.1328125 C-354.00463971 625.28185983 -352.67906819 625.26872125 -350.12280273 625.29052734 C-349.25686996 625.30078949 -348.39093719 625.31105164 -347.49876404 625.32162476 C-346.55622269 625.32892609 -345.61368134 625.33622742 -344.64257812 625.34375 C-342.63020097 625.37187369 -340.61783131 625.40053832 -338.60546875 625.4296875 C-335.44653993 625.47052 -332.28774288 625.50740992 -329.12866211 625.53417969 C-291.35167773 625.88177469 -260.11803255 636.5033046 -232.30273438 662.6953125 C-222.79708047 672.45787597 -208.88884854 689.87130411 -208.20507812 704.17578125 C-208.23763021 706.16145833 -208.27018229 708.14713542 -208.30273438 710.1328125 C-212.23413304 710.54664394 -214.90661349 709.98105177 -218.42773438 708.3828125 C-239.58102127 699.46275176 -262.23785127 701.11735974 -284.06445312 706.22265625 C-303.48142276 710.75994812 -321.5619766 711.40149847 -339.24023438 700.8828125 C-345.09663259 696.84604933 -350.90609044 691.91664436 -354.74023438 685.86328125 C-356.21729522 683.83492092 -356.21729522 683.83492092 -358.99023438 683.8828125 C-360.13492188 684.0065625 -360.13492188 684.0065625 -361.30273438 684.1328125 C-361.34011719 685.35355469 -361.3775 686.57429687 -361.41601562 687.83203125 C-362.25434679 710.61559659 -367.72054749 728.13948168 -384.30273438 744.1328125 C-385.02460937 744.87402344 -385.74648438 745.61523438 -386.49023438 746.37890625 C-392.82847461 752.54737219 -400.16739861 757.13872706 -407.54125977 761.96679688 C-414.17379653 766.32422272 -420.4015529 770.80608232 -426.30273438 776.1328125 C-427.00011719 776.74898437 -427.6975 777.36515625 -428.41601562 778 C-435.16546501 784.3169604 -440.20089358 792.10109338 -445.02929688 799.93359375 C-445.53203125 800.74183594 -446.03476562 801.55007813 -446.55273438 802.3828125 C-447.17921875 803.44242188 -447.17921875 803.44242188 -447.81835938 804.5234375 C-449.79700499 806.66870591 -451.46300157 806.80881614 -454.30273438 807.1328125 C-468.54478802 782.34108949 -467.72772429 750.56577128 -460.76171875 723.71606445 C-452.02350502 692.54416741 -431.81508231 667.52582707 -406.53710938 647.99609375 C-404.23333087 646.0749358 -403.4966778 645.17966623 -402.95898438 642.27734375 C-402.42105271 634.24871368 -405.76337374 628.25248876 -409.26318359 621.27783203 C-412.25499877 615.10449052 -414.76291355 608.69627237 -417.37695312 602.35644531 C-418.19744343 600.38571069 -419.04501335 598.42629857 -419.89648438 596.46875 C-427.11407629 579.46133925 -431.35995232 561.14407056 -435.30273438 543.1328125 C-435.53395996 542.10937744 -435.76518555 541.08594238 -436.00341797 540.03149414 C-440.28583375 520.71211242 -442.92654011 500.92611709 -443.30273438 481.1328125 C-443.32851563 480.23256348 -443.35429687 479.33231445 -443.38085938 478.40478516 C-444.7507698 427.40130775 -435.67950129 375.00574385 -416.34375 327.69555664 C-415.24118539 324.98129288 -414.18868784 322.2506203 -413.13867188 319.515625 C-401.92433308 290.76672757 -387.95142207 263.11945933 -371.30273438 237.1328125 C-370.70477051 236.19920898 -370.10680664 235.26560547 -369.49072266 234.30371094 C-356.44646242 214.08774811 -341.82697409 195.2524772 -326.24023438 176.9453125 C-325.81871094 176.44821777 -325.3971875 175.95112305 -324.96289062 175.43896484 C-315.74029662 164.70542071 -305.8936191 154.55821704 -295.87402344 144.57373047 C-294.03657677 142.74170255 -292.20461788 140.90430645 -290.37304688 139.06640625 C-284.51830824 133.20801353 -278.63694895 127.47708389 -272.30273438 122.1328125 C-271.11061032 121.08823822 -269.92050416 120.04135655 -268.73242188 118.9921875 C-261.00034325 112.2145138 -253.12486071 105.69391178 -244.97607422 99.42382812 C-243.35564761 98.17363613 -241.74419631 96.91273972 -240.13476562 95.6484375 C-226.66905534 85.14351072 -212.64137302 75.48234801 -198.21630859 66.34521484 C-196.51333723 65.26624625 -194.8158412 64.1786467 -193.11914062 63.08984375 C-135.41664903 26.6975051 -68.40019869 2.75056979 0 0 Z " fill="#FDFCFD" transform="translate(921.302734375,87.8671875)"/>
<path d="M0 0 C2.72021234 -0.00218277 5.44001531 -0.02040313 8.16015625 -0.03930664 C23.75805897 -0.09088339 38.86253532 1.18077119 54.11328125 4.56030273 C55.13405762 4.78161865 56.15483398 5.00293457 57.20654297 5.23095703 C60.13622656 5.87195534 63.06229217 6.52768879 65.98828125 7.18530273 C67.11363281 7.42869385 67.11363281 7.42869385 68.26171875 7.67700195 C111.28878805 17.00159432 154.15627433 40.71770738 180.98828125 76.18530273 C181.72304687 77.11600586 182.4578125 78.04670898 183.21484375 79.00561523 C202.22036223 103.49726276 215.21546461 133.18712493 217.98828125 164.18530273 C218.63563232 164.15911865 219.2829834 164.13293457 219.94995117 164.10595703 C244.94998743 163.23522127 268.83699714 166.47245998 288.43359375 183.28295898 C295.16860003 189.58452426 300.66603755 197.3787192 301.19140625 206.84545898 C301.47113247 222.17095953 298.69367469 231.7814335 287.9921875 243.34155273 C265.48061169 264.78925445 229.70949753 273.84843138 199.98828125 278.18530273 C203.94146725 287.30596394 208.25918776 294.07715271 215.13671875 301.17749023 C223.5177986 309.85646219 231.99629913 319.62010088 232.42578125 332.12280273 C231.99251373 342.17715779 229.61055861 348.66072134 222.48046875 355.92749023 C212.25886146 365.18781784 197.65936679 369.10275302 183.9140625 368.43530273 C182.94855469 368.35280273 181.98304688 368.27030273 180.98828125 368.18530273 C179.70308594 368.10280273 178.41789062 368.02030273 177.09375 367.93530273 C159.68935344 366.57955042 143.19391417 361.12625285 126.77612305 355.45800781 C112.22244108 350.44053459 97.7617123 351.23679795 82.98828125 355.18530273 C81.68263094 355.51477517 80.37662938 355.8428582 79.0703125 356.16967773 C73.71066927 357.53311307 68.39953435 358.9312997 63.23828125 360.93530273 C59.98828125 362.18530273 59.98828125 362.18530273 56.98828125 362.18530273 C57.13265625 363.16885742 57.27703125 364.15241211 57.42578125 365.16577148 C61.52572957 394.95872928 58.07426387 424.37128787 43.98828125 451.18530273 C43.38113281 452.35706055 42.77398438 453.52881836 42.1484375 454.73608398 C27.17983403 482.25505028 2.41579213 505.35664313 -27.54296875 515.36499023 C-35.38009421 517.2183645 -44.17884479 517.97702853 -51.26171875 513.62280273 C-55.77216335 509.96178273 -57.55738696 506.5014026 -58.3515625 500.70483398 C-58.77045045 493.29766904 -57.06178922 486.76816127 -54.87890625 479.76806641 C-47.54966605 456.0354147 -53.91540675 434.01364209 -64.01171875 412.18530273 C-70.26588507 412.78541349 -75.9442552 414.18522535 -81.94921875 415.99780273 C-91.24114091 418.72649324 -100.55791801 421.0942381 -110.01171875 423.18530273 C-111.86410156 423.60102539 -111.86410156 423.60102539 -113.75390625 424.02514648 C-120.33873779 425.47323307 -126.92228006 426.72766267 -133.5859375 427.75561523 C-137.56530522 428.46049519 -139.32985805 429.28611363 -141.82421875 432.37280273 C-168.91333916 464.12853633 -210.46475032 491.89864418 -252.88012695 496.01757812 C-261.83040735 496.72183223 -269.67289788 496.67179249 -278.01171875 493.18530273 C-280.4874238 491.95530075 -280.4874238 491.95530075 -283.01171875 492.18530273 C-286.00091177 493.79974896 -288.45741786 495.96140893 -291.01171875 498.18530273 C-291.92308594 498.97549805 -292.83445312 499.76569336 -293.7734375 500.57983398 C-311.43169081 516.19733078 -325.19317169 534.24241984 -336.01171875 555.18530273 C-336.36218262 555.86028809 -336.71264648 556.53527344 -337.07373047 557.23071289 C-346.92709344 576.46952902 -353.13014886 596.83151465 -353.03515625 618.52514648 C-353.03346436 619.26373901 -353.03177246 620.00233154 -353.0300293 620.76330566 C-353.02564433 622.57064301 -353.01891979 624.37797442 -353.01171875 626.18530273 C-352.09173096 626.19988525 -351.17174316 626.21446777 -350.22387695 626.22949219 C-303.31010789 627.05819181 -263.16291832 634.49035065 -228.85839844 668.97216797 C-213.78648548 684.61185847 -199.52849313 706.78747913 -199.80078125 729.14233398 C-200.20091467 734.91462912 -201.56814002 739.21865156 -205.94921875 743.12280273 C-211.24456962 746.68905945 -216.75910534 747.13449465 -223.01171875 746.18530273 C-226.89341079 744.94411745 -230.63922759 743.37039201 -234.41015625 741.83154297 C-252.59174136 734.42444095 -271.78440725 736.58048617 -290.48046875 741.27514648 C-314.25536303 747.23992842 -336.28480195 744.6877881 -358.01171875 733.18530273 C-358.10324219 734.34416992 -358.19476562 735.50303711 -358.2890625 736.69702148 C-358.87103954 741.2991947 -360.43469948 744.91756686 -362.57421875 748.99780273 C-362.93281982 749.69284912 -363.2914209 750.38789551 -363.66088867 751.10400391 C-373.39539174 769.52356548 -388.13397584 781.57795387 -405.10546875 792.93530273 C-413.77368321 798.74641927 -421.62445383 804.79803781 -429.01171875 812.18530273 C-429.60210937 812.77569336 -430.1925 813.36608398 -430.80078125 813.97436523 C-434.07527863 817.52903351 -436.45765987 821.48918791 -438.94921875 825.62280273 C-447.93419201 840.43863151 -447.93419201 840.43863151 -455.98046875 842.77514648 C-462.0186268 843.99438994 -465.44558724 843.87749274 -470.69921875 840.68530273 C-483.72610393 831.00436409 -487.12688945 810.81284124 -489.56640625 795.76342773 C-491.78484448 777.0329281 -491.3829001 756.28136045 -486.01171875 738.18530273 C-485.79741211 737.46036621 -485.58310547 736.73542969 -485.36230469 735.98852539 C-476.71900339 707.77512922 -460.13281466 679.22826575 -435.921875 661.66967773 C-434.94541016 660.93491211 -434.94541016 660.93491211 -433.94921875 660.18530273 C-433.36011719 659.77280273 -432.77101563 659.36030273 -432.1640625 658.93530273 C-430.65394193 656.64196708 -430.85382659 655.01694498 -431.36401367 652.37573242 C-432.80791653 647.49269571 -435.06955809 642.92363833 -437.19921875 638.31030273 C-441.67281321 628.39788091 -445.62529815 618.51822712 -449.01171875 608.18530273 C-449.23746582 607.52127441 -449.46321289 606.85724609 -449.69580078 606.1730957 C-459.45493821 577.40485582 -465.10154284 548.38120745 -468.01171875 518.18530273 C-468.10815674 517.24066162 -468.20459473 516.29602051 -468.30395508 515.32275391 C-469.08905924 507.00959839 -469.21095376 498.71604016 -469.19921875 490.37280273 C-469.19894684 489.64107849 -469.19867493 488.90935425 -469.19839478 488.15545654 C-469.16053028 465.72573864 -468.09516082 443.27591529 -464.01171875 421.18530273 C-463.8430127 420.2462207 -463.67430664 419.30713867 -463.50048828 418.33959961 C-458.73555003 392.10481023 -452.17792945 365.55893074 -442.08569336 340.82055664 C-440.93496625 337.99697209 -439.82040244 335.16053155 -438.70703125 332.32202148 C-424.32940583 296.06674783 -406.36702559 261.21270151 -384.01171875 229.18530273 C-383.44855957 228.37754395 -383.44855957 228.37754395 -382.87402344 227.5534668 C-368.28553468 206.69767876 -352.18128845 186.95345125 -334.875 168.29467773 C-330.13259847 162.92592128 -331.57704677 154.49322813 -331.83251953 147.67553711 C-332.98596983 131.64666381 -341.01856916 116.30016674 -352.8515625 105.62280273 C-364.4128686 96.00360605 -377.69848485 90.26003297 -391.92211914 85.70605469 C-400.74242866 82.82820759 -408.82381558 79.21379551 -414.01171875 71.18530273 C-416.82655733 65.26543603 -417.13149594 58.93713352 -415.25390625 52.64624023 C-408.0768489 35.74907371 -388.99202838 26.18666406 -373.01171875 19.18530273 C-358.7927451 13.46494527 -344.14315142 9.5371213 -329.01171875 7.18530273 C-327.97523193 7.00870117 -326.93874512 6.83209961 -325.87084961 6.65014648 C-315.44511769 5.03461992 -305.17423364 4.8789814 -294.64282227 4.92456055 C-291.71414305 4.93524827 -288.7860822 4.92462307 -285.85742188 4.91186523 C-269.88436318 4.89840474 -254.34139403 5.98587181 -238.76171875 9.68530273 C-237.6845459 9.93884521 -236.60737305 10.1923877 -235.49755859 10.45361328 C-213.32619707 15.88789482 -191.53515991 23.49055167 -171.3046875 34.11499023 C-170.23863281 34.67444336 -169.17257812 35.23389648 -168.07421875 35.81030273 C-167.19894531 36.29756836 -166.32367187 36.78483398 -165.421875 37.28686523 C-161.10476477 38.89616078 -157.30907612 37.02207411 -153.2578125 35.25170898 C-152.33524658 34.855 -151.41268066 34.45829102 -150.4621582 34.04956055 C-148.97075317 33.40519043 -148.97075317 33.40519043 -147.44921875 32.74780273 C-127.12351633 24.13926995 -106.37562995 16.75702432 -85.01171875 11.18530273 C-84.21411133 10.97067383 -83.41650391 10.75604492 -82.59472656 10.53491211 C-71.04208182 7.44736636 -59.37715163 5.29816848 -47.57421875 3.43530273 C-46.90393646 3.32830048 -46.23365417 3.22129822 -45.5430603 3.11105347 C-30.33917231 0.70646279 -15.36219856 -0.00137359 0 0 Z M-15.21289062 18.30249023 C-40.26569006 19.35604024 -66.05096344 23.72172069 -90.01171875 31.18530273 C-91.89503906 31.76876465 -91.89503906 31.76876465 -93.81640625 32.36401367 C-137.26355695 45.93120297 -178.11971641 64.84874948 -216.01171875 90.18530273 C-217.0186377 90.85795166 -217.0186377 90.85795166 -218.04589844 91.54418945 C-233.38404833 101.83757811 -247.97539724 112.98605666 -262.23095703 124.72485352 C-263.825646 126.03269961 -265.43163829 127.32673483 -267.0390625 128.61889648 C-272.90410869 133.33954342 -278.48597033 138.28299721 -283.9921875 143.41186523 C-285.51230863 144.82598422 -287.04169639 146.21072635 -288.62524414 147.55371094 C-295.46293301 153.35379183 -301.72269443 159.74594127 -308.0480957 166.09130859 C-310.06936143 168.11793253 -312.09591449 170.13915821 -314.12304688 172.15991211 C-320.29724823 178.33064374 -326.40173467 184.48919561 -332.01171875 191.18530273 C-332.96008692 192.26922123 -333.91057418 193.35128968 -334.86328125 194.43139648 C-342.11765314 202.75000154 -348.86563447 211.38649417 -355.50390625 220.20141602 C-356.87285905 222.0025997 -358.26226998 223.78383163 -359.66796875 225.55639648 C-371.18711945 240.1558264 -380.60178524 256.17794902 -390.01171875 272.18530273 C-390.39505371 272.83192871 -390.77838867 273.47855469 -391.17333984 274.14477539 C-405.10861639 297.74371105 -416.41883012 322.55076992 -426.01171875 348.18530273 C-426.3994043 349.21204102 -426.78708984 350.2387793 -427.18652344 351.29663086 C-432.57488012 365.6943199 -436.60918257 380.32525602 -440.28173828 395.24487305 C-440.89839776 397.72883517 -441.536493 400.20447171 -442.1953125 402.67749023 C-443.19977496 406.49991936 -444.13923313 410.33104613 -445.01171875 414.18530273 C-445.17768555 414.91201172 -445.34365234 415.6387207 -445.51464844 416.38745117 C-451.46943391 443.30129397 -452.79862319 471.70758322 -452.01171875 499.18530273 C-451.99625 499.99918457 -451.98078125 500.81306641 -451.96484375 501.65161133 C-451.47006035 526.21039172 -446.74178925 550.37942764 -441.01171875 574.18530273 C-440.64508056 575.75674187 -440.27911228 577.32833759 -439.9140625 578.90014648 C-431.08101334 618.18582989 -431.08101334 618.18582989 -412.01171875 652.18530273 C-411.40567612 656.86048876 -411.03952792 660.85664193 -413.88671875 664.74780273 C-414.91796875 665.55217773 -415.94921875 666.35655273 -417.01171875 667.18530273 C-418.62274466 668.63605506 -420.22619411 670.09524162 -421.82421875 671.56030273 C-424.22250465 673.71415477 -426.6221589 675.85663454 -429.0859375 677.93530273 C-454.06835121 699.01579787 -471.00107642 732.09377893 -473.88671875 764.67749023 C-474.85518304 784.10730511 -474.3722984 808.50051113 -463.01171875 825.18530273 C-459.27850675 824.78285549 -459.27850675 824.78285549 -456.45703125 822.47045898 C-456.02132812 821.73698242 -455.585625 821.00350586 -455.13671875 820.24780273 C-454.37681641 819.02577148 -454.37681641 819.02577148 -453.6015625 817.77905273 C-453.07691406 816.92311523 -452.55226563 816.06717773 -452.01171875 815.18530273 C-441.78006764 799.60360755 -429.37716336 788.56017453 -413.94482422 778.4543457 C-394.35904828 765.59669688 -377.4260674 750.43787444 -371.76171875 726.62280273 C-370.36060995 718.59947216 -370.32864376 710.30859121 -370.01171875 702.18530273 C-367.8359375 701.83764648 -367.8359375 701.83764648 -365.01171875 702.18530273 C-363.07084685 704.00095709 -361.48807472 705.70685438 -359.82421875 707.74780273 C-349.80240172 719.30608332 -337.43108277 726.00124106 -322.09375 727.59155273 C-309.17604467 728.05649256 -297.11585899 725.43948886 -284.56640625 722.59545898 C-264.79496254 718.17536342 -243.58046658 718.97147393 -224.93359375 727.43530273 C-222.2547538 728.48070369 -219.84505518 728.48354867 -217.01171875 728.18530273 C-216.27614036 720.53528743 -218.7329607 715.02112189 -222.01171875 708.18530273 C-222.44613281 707.27522461 -222.88054687 706.36514648 -223.328125 705.42749023 C-236.42549517 679.82978102 -261.78829154 659.26997451 -289.01171875 650.18530273 C-301.94450626 646.44898427 -314.19904643 644.05926617 -327.6796875 644.04467773 C-329.72722483 644.02636857 -331.77475123 644.00680005 -333.82226562 643.98608398 C-337.02192049 643.95702084 -340.22085833 643.93529945 -343.4206543 643.93481445 C-346.52846571 643.93148525 -349.63465729 643.8969979 -352.7421875 643.85717773 C-353.69747849 643.86424744 -354.65276947 643.87131714 -355.63700867 643.87860107 C-360.32102811 643.79266689 -362.33551771 643.72978048 -366.09106445 640.70581055 C-366.72488037 639.87404297 -367.35869629 639.04227539 -368.01171875 638.18530273 C-368.34171875 637.85530273 -368.67171875 637.52530273 -369.01171875 637.18530273 C-375.74587964 596.61406182 -358.87488448 554.16102201 -335.78515625 521.44750977 C-332.98175386 517.59396188 -330.02438686 513.87637907 -327.01171875 510.18530273 C-326.56634766 509.63165039 -326.12097656 509.07799805 -325.66210938 508.50756836 C-316.34801777 496.98647056 -305.89841597 485.78420855 -293.63671875 477.37280273 C-290.37978752 474.96390266 -289.46369986 473.36301113 -288.76171875 469.37280273 C-288.65472656 468.51557617 -288.54773438 467.65834961 -288.4375 466.77514648 C-287.26008811 459.61345764 -282.59709034 453.45944779 -278.69921875 447.49780273 C-267.54291743 430.38434343 -256.45324705 409.15901756 -257.01171875 388.18530273 C-270.17821826 393.97856252 -281.28365052 403.78254853 -292.01171875 413.18530273 C-292.82769531 413.88913086 -293.64367187 414.59295898 -294.484375 415.31811523 C-306.21818046 425.62192437 -317.57959636 436.71894979 -327.01171875 449.18530273 C-327.42164063 449.71881348 -327.8315625 450.25232422 -328.25390625 450.80200195 C-354.0155548 484.42362094 -372.75374665 522.46922368 -382.38671875 563.74780273 C-382.62535645 564.7688208 -382.86399414 565.78983887 -383.10986328 566.84179688 C-385.98738125 579.77398266 -387.335704 592.48475476 -387.2175293 605.7019043 C-387.1991668 607.81628488 -387.19702157 609.93022516 -387.19726562 612.04467773 C-387.3565341 626.91551209 -387.3565341 626.91551209 -384.94921875 641.49780273 C-383.89915636 645.62804812 -383.86037789 648.94775862 -384.01171875 653.18530273 C-385.33171875 653.51530273 -386.65171875 653.84530273 -388.01171875 654.18530273 C-390.91563344 649.15617673 -391.84581119 644.58849426 -392.63671875 638.93530273 C-392.75789062 638.13995117 -392.8790625 637.34459961 -393.00390625 636.52514648 C-397.49381341 606.31587981 -394.66485311 576.62768704 -387.01171875 547.18530273 C-386.70524414 545.98139893 -386.70524414 545.98139893 -386.39257812 544.75317383 C-373.30769674 494.3763805 -342.34792202 441.29093467 -301.890625 407.75952148 C-300.55036422 406.63660029 -299.24903092 405.46653167 -297.9765625 404.26733398 C-292.59105257 399.19590182 -286.88785534 394.71305431 -280.94921875 390.31030273 C-280.13654541 389.703396 -279.32387207 389.09648926 -278.48657227 388.47119141 C-274.4976383 385.54362327 -270.52968679 382.83835994 -266.1796875 380.47436523 C-256.41924744 375.13755325 -256.41924744 375.13755325 -251.32470703 365.61279297 C-250.58833777 362.51946728 -249.97623769 359.41728423 -249.42578125 356.28588867 C-246.49700237 341.42786185 -235.10858369 326.45128597 -222.8359375 317.99780273 C-201.06137078 304.3353295 -201.06137078 304.3353295 -190.01171875 305.18530273 C-189.68171875 306.83530273 -189.35171875 308.48530273 -189.01171875 310.18530273 C-189.90632813 310.66999023 -190.8009375 311.15467773 -191.72265625 311.65405273 C-199.40431597 315.88301754 -206.44048746 320.31890649 -213.01171875 326.18530273 C-213.85476563 326.93424805 -214.6978125 327.68319336 -215.56640625 328.45483398 C-231.29156856 343.2479578 -236.44902288 361.44795821 -239.42773438 382.06469727 C-243.48892063 410.11282392 -250.75529028 437.24846613 -268.44921875 459.99780273 C-271.47809363 464.0482508 -273.17291948 467.20287375 -273.328125 472.30639648 C-273.11265286 474.43570779 -273.11265286 474.43570779 -271.19921875 476.68530273 C-264.81609977 481.06229861 -256.42131001 479.779604 -249.08984375 478.50170898 C-219.2277858 471.77144859 -191.54173416 455.89980333 -169.23046875 435.19311523 C-167.68192916 433.79179595 -166.07822566 432.4501238 -164.4375 431.15795898 C-162.25482171 429.38299516 -160.50863628 427.63947063 -158.69921875 425.49780273 C-156.86283807 423.3401546 -155.02696529 421.20176525 -153.1015625 419.12280273 C-127.49329058 391.42717664 -112.93730569 353.0357148 -108.5390625 316.04858398 C-108.01171875 313.18530273 -108.01171875 313.18530273 -106.01171875 310.18530273 C-103.57421875 309.68530273 -103.57421875 309.68530273 -101.01171875 310.18530273 C-95.18733683 316.69408445 -97.40375143 328.7436214 -97.77050781 336.83276367 C-99.4370535 359.99572456 -109.13632068 382.12362024 -120.39453125 402.15014648 C-122.16846358 404.90629845 -122.16846358 404.90629845 -122.01171875 407.18530273 C-74.92142253 399.13696124 -30.27424385 381.56322697 13.33203125 362.52514648 C72.05295003 336.89102442 72.05295003 336.89102442 97.23828125 334.68530273 C100.9043864 334.59367431 100.9043864 334.59367431 102.46325684 332.64546204 C103.98828125 331.18530273 103.98828125 331.18530273 105.94787598 331.01261902 C111.41590477 331.7866877 116.39818412 333.09624381 121.58203125 334.98608398 C122.37242798 335.26373093 123.16282471 335.54137787 123.97717285 335.82743835 C126.48418622 336.70851812 128.98663039 337.60162025 131.48828125 338.49780273 C143.54444034 342.81325164 155.44575145 346.55836274 167.98828125 349.18530273 C168.84977783 349.37930664 169.71127441 349.57331055 170.59887695 349.77319336 C175.57277327 350.63105961 180.64149368 350.45559239 185.67578125 350.49780273 C187.37637695 350.54130859 187.37637695 350.54130859 189.11132812 350.58569336 C197.06202763 350.64526632 204.88760817 350.0135126 210.95776367 344.34667969 C213.89705541 341.05061874 215.8530608 338.53750726 216.30078125 334.06030273 C215.92790229 329.43660363 214.5588183 326.03172679 211.98828125 322.18530273 C211.32828125 321.85530273 210.66828125 321.52530273 209.98828125 321.18530273 C209.33859375 322.82499023 209.33859375 322.82499023 208.67578125 324.49780273 C206.8977345 328.5807249 205.59531615 330.54581695 201.34765625 332.23608398 C184.6934241 336.94187283 167.43495437 330.40729271 152.97900391 322.34008789 C142.96957878 316.53378659 133.7072397 309.79201868 124.98828125 302.18530273 C123.57675781 300.9574707 123.57675781 300.9574707 122.13671875 299.70483398 C111.95405387 290.61029028 102.53025213 280.71264289 93.98828125 270.06030273 C89.54316723 264.51405761 89.54316723 264.51405761 83.98828125 260.18530273 C80.90494792 260.18530273 80.90494792 260.18530273 77.98828125 261.18530273 C77.03953125 261.37092773 76.09078125 261.55655273 75.11328125 261.74780273 C74.41203125 261.89217773 73.71078125 262.03655273 72.98828125 262.18530273 C72.02378172 259.11644059 71.8011443 257.63663303 73.05078125 254.62280273 C75.93158087 250.99857096 78.5762312 248.63521881 83.25 247.76342773 C89.24776068 247.42446481 93.25138736 248.96334951 98.4453125 251.82202148 C135.34086131 271.60166286 185.79697234 266.57566119 224.30078125 255.20727539 C256.9415613 245.83520833 256.9415613 245.83520833 281.98828125 224.18530273 C284.86069919 218.65973541 285.99326467 213.4062331 284.51953125 207.21655273 C281.72851784 198.57770171 275.86060611 193.43453343 268.2421875 188.82202148 C262.09755716 185.73126505 255.63851485 183.866971 248.98828125 182.18530273 C248.01375 181.93780273 247.03921875 181.69030273 246.03515625 181.43530273 C222.95960959 176.68833314 198.86162648 181.49436658 177.30078125 189.99780273 C174.24413292 191.09358232 172.19269652 191.48571667 168.98828125 191.18530273 C169.25446602 187.58157043 169.48668997 185.70603872 172.03515625 183.06030273 C180.78750137 176.9893119 189.83467365 172.43324298 199.98828125 169.18530273 C202.75370281 142.39144052 185.97348036 111.58664635 169.98828125 91.18530273 C168.99441406 89.88592773 168.99441406 89.88592773 167.98046875 88.56030273 C134.34766071 45.8677346 83.16109687 25.91170543 30.44061279 19.5559082 C15.19081526 17.80666282 0.11766809 17.74127393 -15.21289062 18.30249023 Z " fill="#060606" transform="translate(930.01171875,69.814697265625)"/>
<path d="M0 0 C5.34696752 3.79562298 9.32677845 7.13532069 10.72265625 13.78125 C11.13299786 22.35179411 9.00884818 27.65036511 4.01953125 34.43359375 C0.00600356 40.14821926 -2.78592378 44.29098333 -1.99609375 51.42578125 C-0.35954037 54.6611214 1.85301047 55.76989057 5.01953125 57.43359375 C24.13602859 60.50664487 42.08000255 50.55146563 58.8359375 42.71484375 C85.67781675 30.19892416 112.65395049 21.28556707 142.01953125 31.43359375 C155.08770083 36.2117529 167.4346892 43.04564842 179.4609375 49.984375 C207.41781784 66.06019001 237.90685977 73.92891717 269.89892578 65.55810547 C284.64349452 61.40611253 298.71143491 55.16020992 311.64453125 46.93359375 C315.21033291 44.7304806 317.73423591 43.4694023 322.01953125 44.43359375 C324.01953125 47.43359375 324.01953125 47.43359375 323.8984375 50.35546875 C321.1975934 59.81442499 307.67019731 66.56247301 299.41357422 71.18408203 C271.18400361 85.9178106 238.14174951 90.7958589 207.38671875 81.24609375 C205.59497774 80.64991747 203.80580543 80.0459552 202.01953125 79.43359375 C201.18583008 79.15515625 200.35212891 78.87671875 199.49316406 78.58984375 C185.37846251 73.76010033 172.74958767 66.43694887 159.8515625 59.04003906 C139.21255466 47.33273979 118.18031897 40.54267121 94.4921875 46.41796875 C82.16234015 50.02399834 70.76852825 55.3467102 59.16946411 60.80404663 C43.83145467 68.01506167 29.17485455 74.81196147 11.95703125 74.74609375 C11.11076172 74.76220703 10.26449219 74.77832031 9.39257812 74.79492188 C-0.01272859 74.80217346 -6.24048873 72.07094977 -13.05859375 65.59375 C-17.85922289 60.1979209 -18.75010768 53.96353501 -18.60546875 46.8671875 C-17.15191393 38.88172073 -12.59326185 31.44446035 -8.19921875 24.69921875 C-6.431463 21.41300613 -7.21537342 18.98085392 -7.98046875 15.43359375 C-20.35196426 11.30976191 -32.02436077 14.66644893 -43.5625 20.21484375 C-44.36042969 20.61703125 -45.15835937 21.01921875 -45.98046875 21.43359375 C-46.99496094 21.91828125 -48.00945312 22.40296875 -49.0546875 22.90234375 C-64.47553058 30.63821223 -78.3829395 41.09207225 -92.04296875 51.55859375 C-117.06872589 70.58866406 -149.0430445 91.58207319 -181.98046875 87.43359375 C-188.61198181 85.5069821 -193.2241788 82.18541274 -196.98046875 76.43359375 C-199.29439089 71.25481563 -200.04192352 66.37797699 -198.08203125 60.94140625 C-197.36864399 59.23636009 -196.6279599 57.5423766 -195.85546875 55.86328125 C-194.88635651 53.17226422 -194.65779079 51.27126174 -194.98046875 48.43359375 C-199.53375686 43.88030564 -203.49130331 43.27153048 -209.73046875 43.12109375 C-233.07707149 43.35638986 -252.79040927 56.44015568 -271.89575195 68.36865234 C-290.43464706 79.93061575 -308.52861026 89.49180436 -329.98046875 94.43359375 C-330.72562744 94.61092041 -331.47078613 94.78824707 -332.23852539 94.97094727 C-357.01480196 100.47267644 -379.60496431 93.78734979 -402.81567383 85.61181641 C-424.06425824 78.1517861 -447.43533566 76.00706248 -469.13671875 83.52734375 C-472.95061397 84.74276091 -476.00188196 84.5707864 -479.98046875 84.43359375 C-480.79296875 81.18359375 -480.79296875 81.18359375 -480.98046875 77.43359375 C-467.84262109 64.87217816 -448.43242171 62.86873954 -431.15234375 63.16796875 C-416.37955442 63.7323225 -402.55125926 68.29312106 -388.70703125 73.17163086 C-376.14408547 77.57639119 -364.64978882 80.00239014 -351.29296875 79.93359375 C-349.97586914 79.92714844 -348.65876953 79.92070313 -347.30175781 79.9140625 C-336.78079651 79.71755401 -327.73220839 78.31934441 -317.98046875 74.43359375 C-316.92472656 74.03140625 -316.92472656 74.03140625 -315.84765625 73.62109375 C-299.15772296 67.16047441 -283.98315811 57.44898695 -269.10546875 47.62109375 C-248.89620179 34.30509525 -224.14868343 22.47784153 -199.35546875 27.12109375 C-191.14064447 29.28288961 -184.90341122 32.48347355 -180.0390625 39.56640625 C-177.75961252 43.58698592 -177.61961468 46.88683241 -177.98046875 51.43359375 C-178.91911957 54.02410606 -179.99617037 56.53286124 -181.078125 59.06640625 C-182.20918124 62.03359274 -182.51589973 64.29749803 -181.98046875 67.43359375 C-180.97329102 69.20526558 -180.97329102 69.20526558 -178.98046875 70.43359375 C-148.64507067 74.95760109 -120.46648049 51.91471215 -97.65356445 35.04296875 C-96.04611977 33.85094932 -94.43918079 32.65824761 -92.83276367 31.46484375 C-85.71279723 26.19156087 -78.45349708 21.19244714 -70.98046875 16.43359375 C-70.36220215 16.0380127 -69.74393555 15.64243164 -69.10693359 15.23486328 C-60.37694951 9.69290841 -51.6678335 5.12669109 -41.98046875 1.43359375 C-40.98144531 1.01980469 -39.98242188 0.60601563 -38.953125 0.1796875 C-27.8840189 -3.90890124 -10.86198917 -5.65606283 0 0 Z " fill="#060606" transform="translate(812.98046875,854.56640625)"/>
<path d="M0 0 C8.97172822 6.46874607 15.04488381 15.35836772 17.1875 26.25 C18.61288734 39.87670302 14.8476714 52.08552714 6.33203125 62.765625 C5.62433594 63.58546875 4.91664063 64.4053125 4.1875 65.25 C3.20330078 66.41789063 3.20330078 66.41789063 2.19921875 67.609375 C-9.27981417 80.14767838 -25.37393081 85.83888503 -40.77001953 92.02246094 C-70.21336207 103.90186442 -95.0461236 118.07638241 -117.6875 140.75 C-118.39718933 141.45751404 -118.39718933 141.45751404 -119.12121582 142.17932129 C-126.60649663 149.66712261 -133.35182397 157.51285959 -139.546875 166.109375 C-141.8125 169.25 -141.8125 169.25 -143.8125 171.25 C-147.3125 171.5625 -147.3125 171.5625 -150.8125 171.25 C-154.6522561 165.49036584 -152.67215348 158.45140264 -151.44238281 151.97949219 C-147.12265846 130.68894379 -140.96972979 110.37572441 -131.89746094 90.61816406 C-130.86096797 88.35579192 -129.85362546 86.08247326 -128.8515625 83.8046875 C-118.27072096 60.11397794 -103.1201358 39.52796378 -84.8125 21.25 C-84.27367187 20.67636719 -83.73484375 20.10273437 -83.1796875 19.51171875 C-62.59374485 -2.20591185 -27.69870104 -16.92441499 0 0 Z " fill="#070706" transform="translate(1054.8125,682.75)"/>
<path d="M0 0 C0.73460449 0.23944336 1.46920898 0.47888672 2.22607422 0.72558594 C14.49994884 4.76171215 26.28746594 9.55395457 38 15 C36.7613891 18.71583269 35.83592211 18.93239079 32.46875 20.75 C31.52136963 21.27029785 30.57398926 21.7905957 29.59790039 22.32666016 C28.57559326 22.8788623 27.55328613 23.43106445 26.5 24 C16.36630671 29.60001363 6.59713542 35.52983418 -3 42 C-3.64952637 42.43489746 -4.29905273 42.86979492 -4.96826172 43.31787109 C-26.09192334 57.49302887 -46.33488255 72.82016685 -65.43164062 89.62255859 C-67.31957712 91.28067467 -69.22316154 92.92036638 -71.125 94.5625 C-80.7141583 102.92927112 -80.7141583 102.92927112 -89.76171875 111.859375 C-91 113 -91 113 -93 113 C-93.17015625 112.05640625 -93.3403125 111.1128125 -93.515625 110.140625 C-97.92575637 86.77631202 -108.06031985 66.97735223 -128 53 C-138.93956891 45.85327402 -150.69884123 40.63012078 -163.1328125 36.6640625 C-164.15072876 36.33776855 -164.15072876 36.33776855 -165.18920898 36.00488281 C-167.07281472 35.41115003 -168.96396118 34.84149409 -170.85546875 34.2734375 C-174.13508117 32.94529632 -175.83147073 31.77208544 -178 29 C-178.21220499 25.81692509 -177.67451754 23.94610546 -175.81640625 21.33984375 C-136.27352177 -21.95024674 -50.037228 -16.43681009 0 0 Z " fill="#FCFCFC" transform="translate(709,103)"/>
<path d="M0 0 C7.1636326 24.64289614 -0.52743388 53.18615532 -12.14379883 75.30541992 C-24.65351213 98.00291563 -45.20404668 119.05515107 -70 128 C-73.3929542 128.97934432 -76.45754657 129.43200652 -80 129 C-80.66 128.34 -81.32 127.68 -82 127 C-81.58922976 121.31523335 -80.00641005 115.91652856 -78.5 110.4375 C-71.95684053 86.52692583 -75.21324905 65.25721868 -84.85180664 42.64599609 C-87.09933869 37.29801607 -87.09933869 37.29801607 -86 34 C-83.22900391 32.70410156 -83.22900391 32.70410156 -79.4765625 31.390625 C-78.06532145 30.8855731 -76.65410859 30.3804424 -75.24291992 29.87524414 C-74.49110443 29.6109964 -73.73928894 29.34674866 -72.96469116 29.07449341 C-59.16361846 24.21107654 -45.60927082 18.88887448 -32.1875 13.0625 C-31.47209045 12.75211792 -30.75668091 12.44173584 -30.01959229 12.12194824 C-24.66645078 9.79583762 -19.31937582 7.45582097 -13.97418213 5.11151123 C-12.02210458 4.25691398 -10.06796947 3.40719948 -8.11328125 2.55859375 C-6.98317627 2.06544678 -5.85307129 1.5722998 -4.6887207 1.06420898 C-2 0 -2 0 0 0 Z " fill="#FBFBFB" transform="translate(970,440)"/>
<path d="M0 0 C22.44455229 17.81981024 37.32116788 45.90513053 41.7109375 74.15234375 C41.84861749 76.19106674 41.93021366 78.2342081 41.9609375 80.27734375 C41.98671875 81.31117188 42.0125 82.345 42.0390625 83.41015625 C41.7109375 86.15234375 41.7109375 86.15234375 40.3359375 87.98046875 C38.7109375 89.15234375 38.7109375 89.15234375 36.4609375 89.77734375 C32.74942681 88.93381859 31.39742229 87.01570627 28.84375 84.28515625 C21.37639791 76.81780416 12.39679163 71.25064913 2.7109375 67.15234375 C1.98849854 66.83716797 1.26605957 66.52199219 0.52172852 66.19726562 C-8.8478395 62.41692318 -18.66459625 61.32117583 -28.60717773 59.94873047 C-41.87368755 58.09084449 -55.0252202 55.15592112 -63.87109375 44.19140625 C-68.89179502 37.22838989 -72.04293626 29.33670412 -71.703125 20.640625 C-70.08835696 10.93678312 -66.01184957 2.32789549 -58.03515625 -3.4921875 C-39.06528574 -15.69346571 -17.97709242 -12.33563249 0 0 Z " fill="#070707" transform="translate(381.2890625,709.84765625)"/>
<path d="M0 0 C5.19618797 5.55871271 7.96380834 11.20703734 8.25 18.875 C7.66920434 30.22955519 2.58887503 37.05536333 -5.3125 44.875 C-5.83328125 45.42929687 -6.3540625 45.98359375 -6.890625 46.5546875 C-16.8690907 56.270562 -32.77704593 60.7492885 -45.37109375 65.80297852 C-75.45182794 77.94432749 -100.73350798 95.60715738 -123.3125 118.875 C-124.64357536 120.21058748 -125.97609094 121.54474951 -127.3125 122.875 C-126.35399763 119.52864961 -125.33562768 116.20211748 -124.3125 112.875 C-123.93351563 111.61171875 -123.55453125 110.3484375 -123.1640625 109.046875 C-115.22089771 83.40572919 -102.57727528 59.20585283 -86.3125 37.875 C-85.60867188 36.946875 -84.90484375 36.01875 -84.1796875 35.0625 C-65.71476997 11.62363789 -30.85733422 -19.79527101 0 0 Z " fill="#FBFAFB" transform="translate(1048.3125,697.125)"/>
<path d="M0 0 C13.18417196 9.68316495 19.11276007 21.43831965 21.57421875 37.45703125 C22.84942138 49.1131803 19.27513239 61.78692314 12.32421875 71.14453125 C4.88166613 80.06615353 -3.25094117 86.56383853 -15.1796875 87.8671875 C-28.9407298 88.18656588 -38.60676967 84.83784954 -48.65625 75.3515625 C-53.47468672 70.24383877 -56.75436814 64.93318424 -59.42578125 58.45703125 C-59.74546875 57.73515625 -60.06515625 57.01328125 -60.39453125 56.26953125 C-64.48177603 45.37021183 -64.02443571 30.81952338 -59.74609375 20.09375 C-54.37807664 9.37359748 -45.97737028 -0.38721416 -34.42578125 -4.54296875 C-22.84802806 -7.50751455 -10.11912862 -6.43648278 0 0 Z " fill="#030303" transform="translate(990.42578125,219.54296875)"/>
<path d="M0 0 C4.07239886 2.42065667 7.67571356 5.20929812 11.234375 8.328125 C11.84023438 8.82828125 12.44609375 9.3284375 13.0703125 9.84375 C22.87982634 18.63236421 27.90933533 31.90433336 31.234375 44.328125 C31.41911377 45.01382568 31.60385254 45.69952637 31.79418945 46.40600586 C33.73924128 54.63614237 33.6713287 62.98310653 33.671875 71.390625 C33.67497177 72.57625031 33.67497177 72.57625031 33.6781311 73.78582764 C33.6714637 88.06813712 31.99069455 101.51219844 28.234375 115.328125 C28.00443848 116.24819336 27.77450195 117.16826172 27.53759766 118.11621094 C27.18060791 119.45474121 27.18060791 119.45474121 26.81640625 120.8203125 C26.60862549 121.61550293 26.40084473 122.41069336 26.18676758 123.22998047 C24.99548919 125.85439638 23.68969095 126.86301997 21.234375 128.328125 C18.671875 128.515625 18.671875 128.515625 16.234375 127.328125 C14.38118281 123.54452428 13.35335874 119.74101633 12.1875 115.6953125 C4.76143095 90.41257053 -10.18934825 74.6005911 -30.73828125 58.8125 C-39.28405228 51.97588318 -44.50744423 41.97383433 -46.765625 31.328125 C-47.38960122 22.28046974 -45.35288967 14.26729893 -39.57421875 7.1484375 C-29.18187351 -3.31124475 -13.45626745 -6.4120469 0 0 Z " fill="#070707" transform="translate(835.765625,724.671875)"/>
<path d="M0 0 C5.82381338 5.19126436 9.5052406 10.95534188 10.46875 18.83203125 C10.53547277 27.33084432 9.93998832 33.81706434 5 41 C4.29875 42.0725 3.5975 43.145 2.875 44.25 C-5.96076834 52.7016045 -16.68043931 55.50025983 -28.609375 55.33203125 C-33.97429438 54.80666472 -39.05708934 53.41598361 -44.23828125 51.97265625 C-62.32107027 47.29704413 -78.74565774 49.93332907 -95.12695312 58.30664062 C-101.88991434 61.70393732 -101.88991434 61.70393732 -106 61 C-106.66 60.34 -107.32 59.68 -108 59 C-108 48.12272978 -99.74068001 38.82067847 -93 31 C-91.96552734 29.78183594 -91.96552734 29.78183594 -90.91015625 28.5390625 C-69.58413221 4.08933512 -31.96487372 -20.61578175 0 0 Z " fill="#070606" transform="translate(1100,809)"/>
<path d="M0 0 C3.59381279 2.42667467 6.81646979 5.05969366 10 8 C10.85207031 8.78375 11.70414062 9.5675 12.58203125 10.375 C27.67879037 24.86064593 27.67879037 24.86064593 28.1875 33 C28 36 28 36 26 38 C20.97488047 38.50251195 17.44685147 37.5777338 12.890625 35.734375 C-1.38175404 30.19055835 -17.23418904 35.97088153 -30.4921875 41.59765625 C-39.4041215 45.16044501 -48.70811429 47.13719725 -57.875 43.3125 C-64.88724636 39.6732329 -69.11808413 35.43386504 -72 28 C-74.05974221 21.18487981 -73.95705143 14.22471028 -70.9375 7.75 C-65.50550546 -1.8242697 -57.95545123 -6.69227488 -47.6328125 -10.1171875 C-30.73953881 -14.22243465 -14.39866243 -8.61877939 0 0 Z " fill="#070606" transform="translate(384,841)"/>
<path d="M0 0 C20.06218356 7.90564081 32.59521487 26.38165185 41.5234375 45.12890625 C45.85591305 55.13147959 45.85591305 55.13147959 44.5234375 59.12890625 C43.95238281 58.69320312 43.38132812 58.2575 42.79296875 57.80859375 C29.12146756 47.766887 14.10070397 42.71668508 -2.6640625 41.12890625 C-13.25036507 40.11695558 -23.81279837 38.12427556 -31.4765625 30.12890625 C-34.61054162 25.83749166 -36.19303069 21.47432374 -35.84765625 16.13671875 C-34.93423463 11.19462702 -33.20554646 7.54464623 -29.27734375 4.328125 C-20.22966943 -1.7765055 -10.62510219 -2.66224471 0 0 Z " fill="#F9F9F9" transform="translate(360.4765625,714.87109375)"/>
<path d="M0 0 C12.15743778 6.11372111 18.7234279 17.51450696 23.03515625 30.0234375 C26.44488625 40.56649385 27.203448 50.55375575 27.16015625 61.5859375 C27.16595703 63.0699707 27.16595703 63.0699707 27.171875 64.58398438 C27.16447711 70.1582963 26.86120465 75.50989225 26.03515625 81.0234375 C23.23327115 78.44979585 21.90451357 75.73938451 20.25 72.32421875 C12.5842474 57.80612138 0.01617258 46.84642475 -12.27734375 36.3359375 C-18.09507259 31.25734634 -24.31158017 25.41084578 -25.28125 17.4140625 C-25.53190789 11.43061611 -25.12717651 7.63575218 -20.96484375 3.0234375 C-14.49456929 -2.81559067 -7.93611567 -3.3334744 0 0 Z " fill="#F9F9F9" transform="translate(828.96484375,737.9765625)"/>
<path d="M0 0 C4.04610889 2.71872929 7.11754036 5.43592333 9 10 C9.68743279 15.95775088 8.27486673 20.11959795 5 25 C-1.02502424 30.87053644 -6.89306514 31.42029038 -15.0078125 31.3359375 C-19.20361853 31.09399107 -23.08126016 30.09285147 -27.125 29 C-33.63865332 27.26563084 -39.75820119 26.61495448 -46.5 26.625 C-47.31227051 26.62371094 -48.12454102 26.62242187 -48.96142578 26.62109375 C-54.51522213 26.7212647 -59.63038572 27.61617221 -65 29 C-66.33333333 29.33333333 -67.66666667 29.66666667 -69 30 C-69 28 -69 28 -67.56640625 26.5546875 C-66.90511719 26.00039063 -66.24382813 25.44609375 -65.5625 24.875 C-62.53465744 22.31461383 -59.59416018 19.69679302 -56.6875 17 C-51.83604469 12.68387769 -46.5946331 9.27470291 -41 6 C-40.34515625 5.60941406 -39.6903125 5.21882812 -39.015625 4.81640625 C-27.24899341 -1.64518418 -12.84263847 -4.70896744 0 0 Z " fill="#F8F8F8" transform="translate(1087,818)"/>
<path d="M0 0 C7.81449383 5.35111696 17.06243891 12.55057179 19.82421875 22.01953125 C19.86546875 22.67953125 19.90671875 23.33953125 19.94921875 24.01953125 C20.60921875 24.01953125 21.26921875 24.01953125 21.94921875 24.01953125 C21.94921875 26.98953125 21.94921875 29.95953125 21.94921875 33.01953125 C0.73112419 34.37387771 -18.33960648 21.87840916 -33.97265625 8.5234375 C-35.61861082 7.04061748 -37.25246758 5.54411706 -38.8671875 4.02734375 C-41.0779354 1.93764124 -41.0779354 1.93764124 -43.74609375 -0.06640625 C-46.32112108 -2.20498827 -47.08462992 -3.81851894 -48.05078125 -6.98046875 C-33.66821895 -11.10409753 -12.73112497 -7.29467353 0 0 Z " fill="#F8F8F8" transform="translate(1102.05078125,356.98046875)"/>
<path d="M0 0 C6.85491433 3.52433011 13.21484578 7.25370252 18.90234375 12.4921875 C18.90234375 12.8221875 18.90234375 13.1521875 18.90234375 13.4921875 C18.05414063 13.51796875 17.2059375 13.54375 16.33203125 13.5703125 C5.74220384 14.08234811 -3.52193995 16.42555218 -13.4765625 20.08984375 C-14.22381592 20.3628833 -14.97106934 20.63592285 -15.7409668 20.91723633 C-17.18637725 21.45153694 -18.6270965 21.99877825 -20.06176758 22.5612793 C-24.95216628 24.39157297 -28.86878936 24.88973599 -34.09765625 24.4921875 C-37.91285664 22.47660993 -41.09847113 20.3794919 -43.09765625 16.4921875 C-43.73001203 11.7043509 -43.10372045 8.26393483 -40.5078125 4.1328125 C-30.8218332 -7.13619389 -12.27513676 -5.47969535 0 0 Z " fill="#F7F7F7" transform="translate(368.09765625,847.5078125)"/>
<path d="M0 0 C2.4901038 1.94901694 3.07451451 2.90443554 4.3125 5.9375 C4.0625 8.875 4.0625 8.875 2.5703125 11.0390625 C-0.93789641 13.60737744 -4.14315285 13.25512047 -8.3125 13.1875 C-20.40971242 13.41879723 -30.43367182 18.08208984 -38.9375 26.875 C-40.236875 28.3290625 -40.236875 28.3290625 -41.5625 29.8125 C-43.9375 31.875 -43.9375 31.875 -46.75 31.6875 C-47.471875 31.419375 -48.19375 31.15125 -48.9375 30.875 C-49.66585633 24.17412175 -47.60374558 19.4596299 -43.9375 13.875 C-33.8411315 1.76319672 -15.69555447 -8.85901532 0 0 Z " fill="#090909" transform="translate(963.9375,163.125)"/>
<path d="M0 0 C5.13201802 2.46731635 8.01572155 5.74554197 10 11 C10.89633519 16.47760395 9.54062977 19.83577258 6.484375 24.265625 C3.34166945 27.93762833 0.17442214 28.85319723 -4.5 29.4375 C-9.46685012 28.81664374 -12.21772903 26.65935573 -15.8125 23.3125 C-18.38831927 18.2964309 -18.45077204 13.52761636 -16.875 8.1875 C-12.8659183 1.37206112 -7.75243419 -1.01244476 0 0 Z " fill="#F6F6F6" transform="translate(973,228)"/>
<path d="M0 0 C0.66 0.33 1.32 0.66 2 1 C2 4.96 2 8.92 2 13 C-0.31 13.66 -2.62 14.32 -5 15 C-3.33333333 10 -1.66666667 5 0 0 Z " fill="#E5E6E6" transform="translate(982,500)"/>
<path d="M0 0 C1.65 0 3.3 0 5 0 C4.50769231 6.52307692 4.50769231 6.52307692 1.9375 8.9375 C1.298125 9.288125 0.65875 9.63875 0 10 C-1.6415049 6.7169902 -0.51888624 3.57454967 0 0 Z " fill="#EAEAEA" transform="translate(594,229)"/>
<path d="M0 0 C0.90105469 0.01804687 1.80210937 0.03609375 2.73046875 0.0546875 C3.41753906 0.07789063 4.10460937 0.10109375 4.8125 0.125 C4.8125 1.775 4.8125 3.425 4.8125 5.125 C0.5225 4.135 -3.7675 3.145 -8.1875 2.125 C-4.87379 -0.08414 -3.8428979 -0.09981553 0 0 Z " fill="#E6E6E5" transform="translate(952.1875,881.875)"/>
<path d="M0 0 C2.00720923 0.28674418 4.0085944 0.61866701 6 1 C6.625 3.875 6.625 3.875 7 7 C6.34 7.66 5.68 8.32 5 9 C3.02 6.36 1.04 3.72 -1 1 C-0.67 0.67 -0.34 0.34 0 0 Z " fill="#E4E4E4" transform="translate(1147,371)"/>
<path d="M0 0 C-0.33 1.32 -0.66 2.64 -1 4 C-3.64 4 -6.28 4 -9 4 C-9.33 3.34 -9.66 2.68 -10 2 C-3.375 -1.125 -3.375 -1.125 0 0 Z " fill="#E7E8E8" transform="translate(678,934)"/>
<path d="M0 0 C2.12508244 3.18762365 2.5020163 5.26512223 3 9 C0.36 7.35 -2.28 5.7 -5 4 C-3.35 2.68 -1.7 1.36 0 0 Z " fill="#D6D6D6" transform="translate(403,765)"/>
<path d="M0 0 C2.475 0.99 2.475 0.99 5 2 C3.35 3.65 1.7 5.3 0 7 C-1 6 -1 6 -1.125 3.5 C-1 1 -1 1 0 0 Z " fill="#E6E7E7" transform="translate(1014,825)"/>
<path d="M0 0 C-3.08888522 2.05925681 -3.70935927 2.2390374 -7.1875 2.125 C-9.0746875 2.063125 -9.0746875 2.063125 -11 2 C-11 1.34 -11 0.68 -11 0 C-6.94952424 -1.35015859 -4.2079832 -0.62084998 0 0 Z " fill="#E4E6E6" transform="translate(401,936)"/>
<path d="M0 0 C1.65 0.33 3.3 0.66 5 1 C5 1.99 5 2.98 5 4 C2.69 4.33 0.38 4.66 -2 5 C-1.34 3.35 -0.68 1.7 0 0 Z " fill="#E0E0E0" transform="translate(810,472)"/>
<path d="M0 0 C0.99 0.99 1.98 1.98 3 3 C2.34 5.31 1.68 7.62 1 10 C0.67 10 0.34 10 0 10 C0 6.7 0 3.4 0 0 Z " fill="#C4C4C5" transform="translate(823,868)"/>
<path d="M0 0 C1.65 0 3.3 0 5 0 C5 0.99 5 1.98 5 3 C3 3 1 3 -1 3 C-0.67 2.01 -0.34 1.02 0 0 Z " fill="#1C1C1C" transform="translate(560,771)"/>
<path d="M0 0 C0.66 0.33 1.32 0.66 2 1 C0.35 2.98 -1.3 4.96 -3 7 C-3.66 6.34 -4.32 5.68 -5 5 C-3.35 3.35 -1.7 1.7 0 0 Z " fill="#E4E3E4" transform="translate(509,873)"/>
<path d="M0 0 C0.33 0 0.66 0 1 0 C1 3.3 1 6.6 1 10 C0.01 9.01 -0.98 8.02 -2 7 C-1.56521739 1.56521739 -1.56521739 1.56521739 0 0 Z " fill="#EAEBEB" transform="translate(871,781)"/>
</svg>
