<?xml version="1.0" standalone="no"?>
<!DOCTYPE svg PUBLIC "-//W3C//DTD SVG 20010904//EN"
 "http://www.w3.org/TR/2001/REC-SVG-20010904/DTD/svg10.dtd">
<svg version="1.0" xmlns="http://www.w3.org/2000/svg"
 width="1536.000000pt" height="1024.000000pt" viewBox="0 0 1536.000000 1024.000000"
 preserveAspectRatio="xMidYMid meet">

<g transform="translate(0.000000,1024.000000) scale(0.100000,-0.100000)"
fill="#000000" stroke="none">
<path d="M7792 9862 c-72 -26 -146 -79 -227 -162 -37 -39 -69 -70 -71 -70 -2
0 -4 7 -4 15 0 27 -38 92 -70 118 -43 37 -88 43 -142 19 -72 -32 -130 -119
-159 -237 -6 -27 -14 -53 -18 -57 -3 -4 -67 -16 -141 -28 -435 -69 -809 -222
-1124 -462 -43 -33 -81 -56 -85 -51 -230 275 -494 467 -778 567 -195 67 -282
81 -518 81 -235 -1 -303 -10 -496 -71 -255 -80 -464 -208 -659 -404 -154 -154
-238 -270 -334 -465 -221 -444 -263 -928 -126 -1416 43 -151 94 -277 203 -497
155 -312 164 -353 177 -742 7 -223 13 -306 30 -382 99 -469 420 -807 864 -911
132 -31 383 -30 511 2 280 69 516 217 712 445 l51 60 35 -30 c20 -16 36 -32
36 -36 1 -3 -21 -42 -48 -85 -138 -224 -239 -504 -287 -799 -13 -78 -18 -164
-17 -299 0 -206 14 -325 59 -505 l27 -105 -7 -530 c-9 -739 -23 -922 -93
-1185 -19 -74 -41 -160 -49 -190 -24 -96 -29 -257 -10 -323 40 -137 199 -225
454 -253 56 -6 65 -10 74 -33 60 -145 107 -198 224 -256 89 -43 261 -89 399
-106 131 -17 441 -16 580 0 200 24 357 75 453 149 56 43 109 133 128 220 14
64 16 105 10 252 -4 96 -11 229 -16 295 -5 66 -13 313 -16 549 -6 386 -6 429
8 423 9 -3 62 -11 119 -18 106 -12 458 -8 492 6 16 7 17 -13 17 -326 -1 -348
-7 -502 -36 -828 -33 -382 18 -525 220 -625 234 -115 693 -147 1075 -74 258
49 409 145 463 294 26 73 14 67 166 83 170 18 319 79 377 156 54 70 75 191 55
320 -7 44 -30 151 -51 239 -55 223 -67 302 -81 523 -11 186 -5 488 19 975 l6
127 38 -20 c134 -68 326 -62 478 14 l63 33 61 -31 c55 -27 71 -30 152 -30 85
0 96 2 168 38 187 93 289 280 291 537 1 153 -10 217 -40 237 -24 16 -28 15
-97 -20 -79 -40 -121 -52 -212 -62 -188 -20 -338 -112 -404 -248 -31 -63 -45
-155 -33 -211 l9 -46 -33 -6 c-18 -3 -56 -1 -84 5 -135 29 -231 120 -289 276
-22 57 -22 64 -10 184 30 312 -27 673 -156 984 -6 15 2 13 41 -11 169 -99 402
-162 599 -162 439 0 840 253 1020 643 94 204 118 338 131 737 10 311 27 375
195 715 194 393 256 615 266 952 13 446 -81 792 -310 1138 -271 409 -682 673
-1132 726 -414 49 -858 -90 -1215 -378 -72 -58 -206 -191 -262 -261 l-27 -32
-110 82 c-231 175 -530 316 -809 383 -40 10 -71 21 -70 24 47 99 46 150 -2
205 -68 77 -187 74 -377 -10 -9 -4 -10 2 -3 28 15 50 12 126 -6 164 -33 70
-122 97 -212 66z m108 -82 c11 -6 24 -27 31 -48 9 -32 7 -47 -11 -102 -12 -36
-34 -89 -50 -118 -52 -96 -19 -106 103 -32 46 28 114 61 152 75 195 69 281
-13 149 -139 -49 -48 -53 -72 -12 -80 251 -51 414 -103 605 -196 461 -225 801
-580 1013 -1060 125 -283 201 -574 247 -950 26 -211 26 -793 0 -930 -102 -537
-389 -925 -879 -1185 l-88 -47 -34 21 c-44 27 -110 36 -165 21 -55 -15 -125
-79 -146 -134 l-17 -43 -86 -21 c-100 -25 -351 -66 -358 -60 -11 12 -25 181
-19 243 11 112 89 470 111 507 3 4 29 -5 60 -19 43 -19 67 -24 100 -20 56 6
94 31 94 61 0 30 -21 38 -59 25 -42 -15 -104 4 -135 42 -31 36 -30 34 -10 111
8 33 14 74 12 92 -2 25 -8 32 -30 34 -34 4 -30 14 -107 -258 -76 -268 -107
-406 -121 -537 -20 -184 17 -390 90 -504 117 -181 356 -198 514 -36 79 81 83
99 51 193 -40 115 -22 189 55 229 64 33 154 1 195 -69 14 -24 25 -49 25 -57 0
-8 7 -23 16 -34 13 -18 27 -20 112 -20 79 0 105 -4 137 -21 83 -43 99 -149 32
-210 -35 -32 -89 -54 -137 -54 -39 0 -47 -10 -80 -101 -113 -314 -387 -536
-749 -606 -113 -21 -326 -21 -446 0 -283 51 -548 198 -765 423 -298 310 -483
730 -615 1399 -37 188 -49 214 -86 194 -22 -11 -24 -51 -9 -144 10 -59 9 -60
-20 -90 -28 -28 -36 -30 -103 -30 -70 0 -72 -1 -72 -25 0 -54 107 -75 185 -36
18 9 35 15 36 13 2 -1 10 -38 19 -82 33 -162 83 -335 145 -503 23 -63 40 -115
38 -117 -2 -2 -54 2 -115 10 -778 102 -1347 456 -1602 996 -124 263 -161 457
-161 843 0 747 185 1418 519 1882 222 309 480 521 842 693 230 109 597 208
834 223 44 3 45 4 65 118 20 109 81 200 136 200 46 0 77 -65 91 -195 7 -61 11
-70 30 -73 17 -3 29 9 56 50 86 135 198 241 294 278 56 22 68 23 93 10z
m-3250 -285 c299 -43 544 -154 790 -361 95 -79 240 -236 240 -259 0 -8 -16
-26 -35 -41 -69 -52 -277 -310 -341 -422 -10 -18 -21 -31 -25 -30 -4 2 -34 39
-66 83 -85 113 -143 176 -234 249 -131 104 -308 187 -466 217 -95 18 -329 7
-428 -21 -392 -107 -689 -401 -824 -818 -52 -160 -66 -256 -66 -457 1 -284 53
-486 213 -820 137 -289 157 -370 172 -714 14 -318 46 -453 152 -628 77 -128
232 -262 367 -317 149 -60 344 -77 501 -42 170 38 346 141 478 281 l77 81 43
-55 c23 -31 60 -75 82 -98 l40 -41 -46 -61 c-93 -124 -257 -254 -419 -331
-191 -92 -354 -127 -539 -117 -478 27 -843 335 -960 809 -34 138 -46 250 -46
450 0 318 -42 485 -199 783 -320 611 -342 1244 -61 1801 257 509 659 798 1240
887 63 10 265 5 360 -8z m6310 -10 c595 -106 1099 -629 1238 -1285 35 -165 45
-282 39 -459 -12 -339 -75 -560 -268 -945 -162 -322 -184 -410 -199 -811 -10
-270 -19 -337 -67 -490 -82 -259 -260 -475 -496 -600 -386 -206 -850 -152
-1214 140 -80 64 -223 219 -223 241 0 6 21 35 48 65 26 30 61 72 78 94 l32 39
75 -80 c183 -195 410 -296 662 -297 145 0 236 21 360 82 170 85 280 195 365
366 79 160 99 257 111 530 15 363 40 468 173 731 99 198 141 305 177 448 37
154 49 251 49 404 0 139 -11 224 -46 362 -30 121 -54 182 -115 300 -133 255
-365 466 -614 557 -162 60 -381 80 -535 49 -107 -22 -229 -70 -332 -132 -106
-64 -267 -218 -349 -334 -35 -49 -66 -90 -69 -90 -3 0 -26 35 -52 78 -57 94
-157 220 -260 328 l-77 80 31 40 c93 117 258 265 393 354 143 93 351 183 515
222 169 40 389 45 570 13z m-6350 -673 c150 -50 306 -148 416 -264 58 -60 144
-175 173 -229 l24 -44 -37 -74 c-87 -171 -191 -469 -240 -687 -66 -289 -96
-575 -96 -918 0 -332 17 -463 86 -679 37 -118 87 -232 134 -309 37 -60 37 -61
-72 -168 -174 -171 -362 -253 -583 -253 -320 0 -580 191 -685 504 -40 116 -50
191 -60 419 -15 356 -36 442 -184 756 -52 109 -108 244 -125 300 -67 216 -92
430 -72 617 54 499 339 879 764 1021 115 39 166 45 322 42 125 -3 150 -7 235
-34z m6403 4 c396 -117 683 -452 774 -904 27 -133 24 -423 -5 -558 -33 -153
-83 -288 -187 -504 -144 -300 -170 -401 -180 -701 -8 -231 -21 -336 -56 -443
-96 -294 -315 -480 -605 -516 -159 -20 -346 22 -494 109 -75 45 -173 131 -241
212 l-41 49 20 27 c31 44 101 188 132 273 44 120 77 253 95 378 20 149 20 606
0 832 -34 387 -126 753 -269 1068 -31 68 -56 129 -56 135 0 25 116 184 193
264 147 153 290 241 470 289 82 22 107 24 227 20 107 -3 153 -9 223 -30z
m-1197 -3737 c111 -117 122 -132 158 -220 64 -155 114 -321 142 -467 23 -118
27 -164 27 -337 1 -166 -3 -222 -22 -329 -42 -238 -81 -351 -249 -722 -227
-501 -315 -810 -344 -1206 -16 -215 -3 -366 48 -553 34 -126 38 -152 38 -265
1 -111 -2 -130 -22 -172 -13 -25 -32 -54 -42 -63 -17 -15 -19 -13 -35 38 -25
81 -70 154 -116 187 -115 83 -253 25 -309 -129 l-23 -61 -21 43 c-62 126 -192
180 -303 126 -49 -24 -107 -87 -125 -136 -12 -33 -28 -45 -28 -20 0 6 -13 40
-29 74 -86 182 -295 172 -390 -18 -16 -33 -33 -80 -37 -105 -3 -24 -9 -44 -13
-44 -4 0 -21 15 -38 32 -83 88 -93 173 -63 533 16 198 23 383 27 693 l6 423
71 34 c144 69 265 196 351 371 53 107 59 138 29 142 -16 2 -31 -15 -72 -85
-144 -242 -291 -358 -502 -394 -190 -33 -529 -20 -660 25 -152 52 -343 247
-465 474 -22 41 -33 52 -49 50 -35 -5 -30 -36 24 -141 96 -187 208 -321 345
-409 32 -21 69 -41 81 -44 l21 -6 6 -456 c3 -299 11 -526 22 -657 28 -326 15
-446 -55 -545 -29 -41 -47 -38 -55 10 -10 62 -62 156 -106 194 -88 75 -186 70
-270 -14 -33 -33 -52 -64 -66 -106 l-20 -59 -20 46 c-91 206 -323 212 -427 12
-14 -26 -25 -41 -26 -33 0 28 -58 135 -86 162 -35 32 -93 58 -131 58 -41 -1
-109 -34 -144 -72 -35 -37 -89 -142 -89 -173 0 -11 -4 -26 -9 -34 -12 -19 -56
25 -81 82 -45 103 -44 217 4 432 43 189 49 264 43 470 -10 293 -44 535 -116
817 -44 173 -89 298 -183 508 -163 363 -220 602 -221 925 0 143 5 207 22 310
39 226 102 419 202 620 47 93 106 195 115 195 2 0 48 -29 103 -66 259 -169
595 -287 992 -348 91 -15 181 -26 200 -26 33 0 36 -4 68 -67 160 -326 413
-605 696 -766 419 -238 942 -246 1324 -18 189 113 349 305 421 509 17 45 28
62 41 62 32 0 112 31 146 57 44 34 83 115 83 173 0 140 -143 248 -291 220 -29
-6 -53 -9 -54 -8 -6 11 -34 92 -32 94 1 1 22 12 47 24 120 60 349 216 389 264
8 9 17 15 21 14 4 -2 61 -60 126 -129z m-1001 -391 c9 -29 18 -58 21 -65 9
-20 -77 -104 -131 -129 -122 -58 -240 -12 -306 119 -24 46 -17 56 41 57 19 1
105 16 190 34 85 19 158 34 162 35 4 0 14 -23 23 -51z m2517 -993 c-12 -107
-39 -184 -93 -264 -108 -163 -324 -209 -447 -97 -81 73 -90 225 -19 332 62 93
149 136 337 165 80 12 141 28 170 42 l45 23 9 -55 c6 -36 5 -89 -2 -146z
m-1109 -174 c47 -76 103 -126 186 -165 61 -29 74 -31 173 -31 60 0 108 -4 108
-8 0 -13 -92 -48 -172 -65 -95 -20 -191 -7 -285 38 l-61 30 -7 77 c-5 48 -3
95 4 129 7 30 14 54 15 54 2 0 19 -26 39 -59z m-157 -686 c-30 -658 -16 -911
69 -1242 20 -74 42 -173 50 -220 25 -144 16 -252 -13 -155 -14 45 -72 116
-113 137 -95 50 -209 -18 -241 -143 l-11 -45 -15 29 c-21 42 -72 93 -114 115
-34 17 -37 23 -50 91 -21 114 -15 423 11 586 51 323 131 570 328 1007 50 110
94 211 99 225 9 24 9 24 12 -8 2 -18 -4 -188 -12 -377z m-4766 254 c0 -5 32
-80 71 -167 149 -331 239 -753 256 -1202 6 -160 -5 -326 -27 -411 -6 -19 -21
-46 -34 -58 -13 -13 -30 -36 -37 -53 l-12 -30 -17 55 c-32 101 -81 147 -160
147 -23 0 -54 -7 -69 -15 -42 -21 -97 -90 -123 -152 -27 -66 -36 -53 -37 52
-1 77 17 170 72 375 67 249 83 433 93 1062 4 231 11 415 15 412 5 -3 9 -10 9
-15z m105 -1812 c18 -18 38 -51 44 -72 11 -41 16 -235 5 -235 -52 0 -263 73
-276 96 -3 5 1 34 9 64 40 155 142 223 218 147z m4646 12 c53 -37 113 -185 88
-216 -26 -31 -154 -83 -240 -97 l-37 -6 -6 52 c-12 98 33 246 83 273 37 20 78
18 112 -6z m-336 -83 c35 -45 63 -122 71 -191 l7 -55 -42 0 -41 0 0 53 c-1 28
-9 91 -19 140 -10 48 -15 87 -10 87 4 0 20 -15 34 -34z m-4162 -174 c-3 -40
-10 -72 -14 -72 -5 0 -9 11 -9 25 0 29 20 128 26 123 2 -2 0 -36 -3 -76z m490
-96 c66 -27 106 -103 122 -230 4 -31 4 -72 0 -92 l-6 -36 -49 6 c-76 10 -198
44 -256 70 l-53 24 15 62 c23 98 70 171 129 196 39 17 58 17 98 0z m3313 -11
c14 -9 37 -34 53 -55 31 -42 67 -159 58 -183 -12 -32 -323 -124 -345 -103 -13
13 -5 150 11 207 40 135 134 192 223 134z m-2370 -16 c39 -24 99 -137 109
-207 l7 -42 -45 -20 c-51 -23 -187 -56 -268 -65 l-56 -7 -7 35 c-4 20 -2 65 4
100 18 117 59 188 124 218 47 22 83 19 132 -12z m1485 -15 c52 -50 79 -136 79
-245 0 -70 -2 -79 -19 -79 -43 0 -199 32 -272 57 -90 29 -90 31 -63 124 50
172 178 238 275 143z m-1951 -4 c70 -36 114 -125 126 -254 l6 -73 -95 -7 c-87
-6 -204 -2 -284 10 -31 5 -33 7 -33 48 0 63 35 168 73 218 58 76 131 97 207
58z m2390 -3 c67 -35 130 -170 130 -279 0 -34 -3 -37 -32 -42 -78 -12 -214
-17 -294 -10 l-87 7 6 71 c8 94 30 154 74 206 62 72 127 87 203 47z"/>
<path d="M6040 7871 c-53 -17 -114 -54 -155 -97 -46 -47 -63 -88 -44 -110 21
-25 51 -15 91 30 21 25 63 57 93 71 48 24 64 27 137 24 l83 -4 0 30 c0 24 -7
33 -35 47 -36 19 -124 23 -170 9z"/>
<path d="M8913 7869 c-40 -12 -58 -41 -43 -69 10 -19 17 -20 84 -14 66 6 80 4
128 -18 35 -16 69 -43 94 -72 42 -50 76 -60 94 -26 15 28 -7 67 -70 123 -83
74 -192 103 -287 76z"/>
<path d="M6047 7190 c-267 -85 -389 -439 -247 -719 143 -283 512 -320 683 -69
60 89 80 164 81 303 1 97 -3 133 -21 190 -48 153 -157 265 -290 300 -75 20
-135 18 -206 -5z m187 -75 c32 -8 78 -29 102 -46 48 -33 107 -106 124 -154
l11 -30 -38 37 c-62 59 -117 82 -198 83 -59 0 -78 -5 -123 -30 -65 -35 -107
-81 -141 -155 -23 -49 -26 -67 -25 -160 0 -95 3 -111 31 -170 38 -83 73 -123
137 -161 l51 -31 -40 7 c-151 24 -276 164 -306 342 -10 58 -9 83 4 148 36 176
141 297 280 325 61 12 67 11 131 -5z m-17 -235 c28 -25 36 -54 29 -96 -16 -81
-119 -87 -152 -9 -34 81 62 163 123 105z"/>
<path d="M8809 7192 c-98 -33 -191 -117 -243 -220 -52 -103 -71 -297 -40 -415
84 -326 430 -433 660 -203 190 191 194 542 9 732 -104 106 -258 148 -386 106z
m226 -96 c126 -59 204 -179 221 -340 12 -120 -39 -267 -121 -350 -49 -49 -127
-90 -190 -101 l-40 -7 52 31 c117 69 179 200 171 359 -3 66 -10 101 -30 143
-88 191 -304 234 -449 89 l-47 -47 15 35 c36 86 102 154 186 192 62 29 167 27
232 -4z m-214 -225 c77 -77 -19 -198 -104 -131 -48 38 -42 116 12 145 39 21
59 18 92 -14z"/>
<path d="M7440 6639 c-98 -12 -158 -30 -255 -77 -85 -42 -135 -81 -135 -107 0
-23 30 -18 91 14 218 118 516 130 752 29 38 -16 75 -27 83 -24 45 17 -18 69
-141 117 -115 45 -266 63 -395 48z"/>
<path d="M7421 6035 c-109 -24 -261 -106 -261 -141 0 -27 28 -25 91 7 175 88
381 101 573 37 45 -15 69 -19 76 -12 18 18 0 41 -53 66 -112 55 -289 72 -426
43z"/>
<path d="M7505 5510 c-104 -23 -218 -83 -223 -118 -5 -30 20 -29 99 7 35 15
89 34 119 42 69 16 209 16 278 -1 40 -9 56 -10 65 -1 18 18 -4 44 -49 60 -47
16 -233 24 -289 11z"/>
<path d="M7631 5015 c-66 -15 -166 -67 -185 -97 -8 -13 -7 -21 1 -29 10 -10
30 -4 90 24 87 40 193 61 259 51 36 -5 45 -3 50 11 4 9 0 23 -8 31 -21 21
-132 26 -207 9z"/>
</g>
</svg>
