<?xml version="1.0" standalone="no"?>
<!DOCTYPE svg PUBLIC "-//W3C//DTD SVG 20010904//EN"
 "http://www.w3.org/TR/2001/REC-SVG-20010904/DTD/svg10.dtd">
<svg version="1.0" xmlns="http://www.w3.org/2000/svg"
 width="1536.000000pt" height="1024.000000pt" viewBox="0 0 1536.000000 1024.000000"
 preserveAspectRatio="xMidYMid meet">

<g transform="translate(0.000000,1024.000000) scale(0.100000,-0.100000)"
fill="#000000" stroke="none">
<path d="M6714 9959 c-113 -19 -212 -88 -262 -184 -22 -42 -26 -63 -27 -135 0
-76 3 -91 29 -138 35 -62 87 -107 154 -132 36 -14 48 -24 54 -46 13 -53 38
-241 38 -285 -1 -43 -3 -45 -63 -86 -34 -23 -91 -68 -126 -101 l-64 -58 -112
111 c-123 124 -198 179 -319 236 -133 62 -219 81 -396 86 -130 4 -171 2 -254
-16 -123 -25 -234 -76 -267 -122 -65 -92 -11 -373 111 -581 157 -264 471 -416
819 -395 l93 6 -8 -37 c-4 -20 -9 -167 -10 -327 -1 -231 -5 -308 -19 -380 -22
-112 -22 -285 -2 -380 44 -197 162 -379 326 -503 71 -53 209 -130 291 -163 19
-7 72 -52 118 -99 l84 -85 -7 -155 c-5 -140 -37 -601 -50 -725 -32 -320 -71
-616 -101 -770 -39 -198 -67 -300 -149 -540 -82 -239 -118 -392 -136 -581 -14
-153 -3 -274 48 -519 l37 -180 0 -260 c0 -272 -9 -409 -50 -765 -26 -225 -36
-298 -85 -625 -43 -284 -47 -378 -22 -437 34 -76 101 -113 259 -144 60 -12
132 -18 219 -17 260 2 389 45 442 146 24 48 32 126 48 512 24 588 49 1039 61
1118 6 36 8 38 33 32 14 -4 69 -15 121 -24 l95 -17 6 -95 c10 -146 9 -806 -1
-984 -6 -88 -13 -248 -16 -355 -6 -183 -6 -199 13 -241 37 -84 126 -127 307
-150 115 -14 308 -6 404 16 126 30 213 95 229 172 14 65 6 256 -21 553 -36
391 -55 677 -63 920 l-6 205 54 15 c72 19 71 19 81 -15 6 -16 25 -70 43 -120
19 -49 41 -117 49 -150 29 -118 39 -368 31 -770 -10 -485 -9 -499 18 -555 39
-80 116 -113 305 -133 204 -20 431 18 509 86 91 80 93 140 23 747 -11 96 -25
218 -31 270 -17 158 -48 398 -66 515 -24 159 -23 364 4 490 35 163 46 298 39
461 -3 82 -8 167 -12 189 l-5 40 21 -30 c47 -66 97 -178 151 -340 l56 -169
-29 -37 c-61 -75 -83 -209 -53 -322 23 -87 52 -136 124 -207 66 -66 151 -117
261 -159 98 -37 132 -22 113 50 -9 33 -8 39 3 35 8 -3 43 -10 78 -17 103 -18
134 16 82 92 -33 48 -46 101 -46 189 0 94 -21 193 -53 256 -48 94 -150 171
-249 189 l-37 7 -26 117 c-36 158 -61 244 -92 321 -61 150 -166 301 -273 390
-62 50 -177 122 -219 135 -13 4 -71 55 -130 114 -106 106 -129 124 -437 321
-283 182 -404 395 -468 827 -41 271 -86 805 -86 1014 0 81 2 88 25 103 14 9
43 40 66 68 36 45 52 56 123 84 179 69 298 146 408 263 61 65 88 104 133 194
94 189 116 364 76 607 -17 101 -18 132 -9 260 10 136 6 329 -8 411 l-6 37 108
-5 c343 -15 642 120 811 367 131 192 208 523 141 608 -37 48 -115 87 -237 120
-126 33 -348 37 -481 9 -203 -44 -379 -146 -553 -319 l-108 -108 -80 70 c-44
39 -105 87 -135 106 -64 41 -62 32 -34 222 28 185 24 176 76 191 61 18 136 88
165 153 34 78 33 174 -4 250 -56 113 -164 179 -307 186 -69 3 -96 0 -141 -17
-73 -28 -132 -79 -164 -144 -52 -107 -41 -217 31 -312 l37 -47 -23 -67 c-53
-153 -82 -211 -104 -210 -46 2 -69 14 -72 39 -11 85 -18 110 -45 167 -36 75
-122 167 -163 175 -70 14 -138 -38 -173 -132 -9 -25 -18 -47 -19 -48 -1 -2
-23 10 -49 28 -93 64 -280 107 -345 80 -39 -16 -50 -37 -50 -95 0 -47 33 -130
67 -167 18 -20 16 -21 -57 -37 -25 -6 -48 -7 -52 -3 -10 10 -98 250 -98 267 0
8 12 27 26 42 71 75 92 218 45 315 -58 120 -209 191 -357 167z m171 -98 c22
-10 57 -36 77 -59 79 -88 76 -199 -9 -280 -54 -52 -54 -55 12 -237 24 -66 45
-126 47 -133 2 -9 -24 -23 -72 -41 -41 -15 -94 -38 -117 -50 -24 -12 -43 -17
-43 -12 0 53 -48 337 -62 364 -5 9 -19 17 -31 17 -37 1 -100 35 -134 73 -102
117 -44 304 113 361 57 21 170 20 219 -3z m1606 9 c127 -35 211 -170 179 -286
-18 -64 -80 -128 -140 -144 -84 -22 -79 -10 -115 -239 -14 -85 -26 -156 -28
-158 -2 -2 -37 12 -78 31 -41 19 -93 40 -117 47 -24 7 -41 17 -38 23 36 87 88
224 102 270 l18 58 -30 27 c-105 94 -111 221 -15 315 21 20 56 44 77 51 46 17
135 19 185 5z m-691 -440 c63 -68 94 -143 98 -238 4 -80 5 -82 31 -87 306 -60
542 -177 714 -352 147 -151 217 -266 288 -473 58 -167 64 -226 62 -540 -2
-225 1 -306 13 -384 21 -123 14 -291 -14 -386 -69 -234 -226 -407 -477 -526
-49 -24 -91 -41 -93 -39 -3 2 1 19 7 37 18 49 25 185 13 248 -16 85 -49 164
-102 243 -229 342 -819 458 -1257 247 -289 -140 -452 -434 -389 -702 8 -34 9
-58 4 -58 -21 0 -157 75 -220 122 -241 178 -361 447 -328 734 6 55 16 117 22
138 5 22 11 175 12 340 3 264 5 311 24 387 113 468 376 767 801 909 104 35
222 60 283 60 45 0 78 14 78 34 0 7 -22 31 -49 54 -53 45 -101 128 -101 175
l0 29 63 -4 c84 -7 161 -38 253 -104 102 -73 110 -72 119 12 3 26 10 63 16 81
10 32 60 83 81 83 6 0 28 -18 48 -40z m-1996 -301 c99 -23 226 -78 303 -130
51 -35 259 -233 274 -260 6 -12 -9 -42 -56 -113 -35 -54 -66 -103 -68 -109 -5
-17 -44 16 -197 167 -124 122 -144 137 -230 179 -111 53 -170 67 -284 67 -103
0 -148 -14 -144 -44 3 -20 9 -21 118 -22 123 -1 156 -8 280 -66 53 -24 88 -53
185 -152 66 -67 143 -139 170 -161 28 -21 54 -42 58 -45 4 -4 -2 -31 -14 -61
-12 -30 -29 -81 -39 -114 -17 -59 -17 -60 -61 -68 -70 -13 -274 0 -364 23
-169 43 -315 136 -407 258 -99 132 -178 349 -178 489 0 56 3 67 26 88 91 84
417 123 628 74z m4060 -8 c95 -25 176 -67 194 -101 26 -49 -16 -245 -82 -385
-132 -279 -368 -430 -701 -451 -115 -8 -235 2 -239 19 -2 7 -18 57 -35 112
-17 55 -31 103 -31 106 0 4 18 18 39 32 21 14 101 88 177 164 148 148 187 174
318 218 70 23 93 26 183 24 75 -3 106 0 115 9 21 21 -23 49 -88 58 -131 16
-299 -28 -423 -110 -39 -26 -108 -88 -153 -137 -79 -84 -186 -179 -205 -179
-4 0 -21 24 -37 53 -17 28 -45 73 -63 98 -18 26 -33 53 -33 61 0 21 215 228
285 275 114 77 219 119 370 148 99 20 306 12 409 -14z m-2062 -1931 c218 -45
381 -146 497 -309 43 -61 82 -190 83 -272 2 -261 -178 -452 -509 -540 -102
-27 -377 -37 -502 -19 -263 38 -492 172 -571 334 -99 201 -61 402 112 592 93
101 266 187 436 218 121 22 335 20 454 -4z m368 -1145 l0 -65 -26 10 c-14 6
-51 10 -83 10 -206 0 -385 -271 -317 -478 24 -72 92 -144 174 -184 59 -29 76
-33 147 -33 57 1 90 6 113 19 19 9 35 16 37 14 2 -2 11 -62 20 -133 48 -383
109 -586 228 -762 l35 -52 -51 29 c-78 43 -155 57 -230 41 -114 -24 -166 -62
-243 -179 -79 -120 -95 -160 -96 -240 -1 -159 73 -267 212 -308 30 -9 75 -26
100 -38 33 -15 64 -21 115 -21 122 0 216 56 273 162 80 151 81 309 4 443 l-25
45 44 -38 c40 -34 89 -67 387 -262 280 -184 446 -447 498 -789 24 -154 14
-394 -25 -620 -42 -240 -42 -211 22 -716 14 -107 37 -296 52 -420 14 -124 30
-255 36 -292 16 -117 17 -114 -53 -137 -122 -40 -300 -57 -434 -41 -104 12
-211 37 -220 51 -3 5 -5 130 -4 277 0 168 -5 334 -15 447 -17 188 -15 180
-108 450 l-25 70 60 38 c71 44 158 129 183 176 15 31 15 35 1 49 -15 15 -21
12 -69 -34 -28 -28 -72 -67 -97 -86 -56 -44 -194 -114 -244 -123 l-37 -7 5 73
c30 401 30 408 -7 409 -27 0 -57 -194 -64 -420 l-6 -185 -48 3 c-214 16 -390
-221 -323 -434 41 -133 219 -230 353 -194 24 6 44 10 46 8 2 -2 12 -120 24
-263 12 -143 24 -281 27 -307 l6 -46 -79 -25 c-164 -52 -422 -60 -585 -18
-125 32 -120 26 -111 134 13 159 10 1018 -5 1157 -19 182 -23 195 -52 195 -24
0 -25 -4 -28 -63 l-3 -62 -32 0 c-68 0 -205 42 -316 96 -101 49 -123 65 -202
145 -87 88 -114 104 -126 73 -7 -19 51 -104 109 -160 52 -50 169 -129 216
-147 l35 -12 -7 -85 c-11 -143 -25 -387 -45 -794 -11 -214 -23 -392 -28 -397
-39 -37 -374 -63 -523 -40 -82 13 -236 56 -244 69 -5 8 2 61 24 202 5 30 18
131 30 225 11 93 22 171 24 172 2 2 15 -1 30 -7 15 -5 57 -10 94 -10 188 0
326 164 293 347 -33 178 -154 293 -310 293 l-56 0 -1 223 c-2 227 -4 249 -49
446 -15 62 -30 165 -34 227 -7 110 2 315 17 381 l7 33 41 -53 c24 -32 61 -64
95 -82 47 -26 64 -30 129 -30 65 0 83 5 134 33 32 17 65 32 73 32 34 0 125 55
166 100 53 59 77 128 77 223 0 64 -5 81 -57 194 -31 68 -71 140 -89 161 -78
92 -233 130 -346 87 -10 -4 -18 -5 -18 -1 0 3 13 65 30 138 32 144 50 259 75
463 8 72 18 146 21 165 l5 35 80 -4 c73 -3 85 -1 144 28 114 56 172 150 182
294 5 69 2 97 -15 154 -39 128 -139 221 -264 247 l-63 13 1 39 c1 21 5 98 9
171 l7 132 52 -26 c63 -32 170 -69 256 -89 104 -24 366 -29 485 -10 120 19
272 66 340 105 28 16 51 29 53 30 1 1 2 -28 2 -64z m-20 -118 c24 -12 25 -16
37 -187 6 -96 13 -211 15 -255 l3 -80 -45 -22 c-70 -36 -139 -31 -225 15 -106
57 -165 159 -151 257 9 55 56 152 95 198 65 74 199 110 271 74z m-1062 -266
c101 -52 163 -163 163 -292 0 -170 -107 -289 -259 -289 -31 0 -63 4 -70 9 -12
7 -5 132 34 540 l6 63 44 -6 c24 -3 61 -14 82 -25z m1285 -1271 c116 -43 192
-151 204 -287 14 -170 -69 -319 -198 -357 -73 -22 -97 -20 -182 14 -42 17 -80
30 -87 30 -25 0 -90 42 -119 77 -33 40 -61 116 -61 167 0 52 19 102 63 168 23
35 49 76 57 92 17 34 96 91 144 105 53 16 123 12 179 -9z m-1380 -226 c55 -18
129 -95 148 -151 6 -19 28 -65 47 -102 31 -57 36 -75 36 -131 -1 -120 -58
-208 -160 -245 -27 -10 -76 -30 -109 -45 -84 -39 -123 -45 -187 -26 -63 18
-112 62 -153 137 -35 66 -33 81 59 339 l72 205 45 17 c56 22 142 22 202 2z
m2587 -594 c151 -148 226 -300 295 -603 l32 -139 -25 -9 c-14 -5 -29 -6 -33
-2 -4 4 -28 74 -53 156 -62 196 -127 325 -210 414 -48 51 -72 87 -89 134 -14
36 -37 89 -51 118 l-27 53 42 -23 c23 -13 77 -58 119 -99z m447 -815 c68 -20
144 -89 178 -161 22 -46 28 -79 36 -187 6 -73 17 -151 26 -175 9 -23 14 -44
12 -47 -9 -8 -106 43 -142 74 -48 43 -73 38 -70 -12 1 -20 9 -49 16 -64 39
-76 36 -78 -51 -34 -162 81 -250 199 -260 345 -8 134 45 229 146 260 60 19 50
18 109 1z m-3232 -593 c88 -48 155 -181 141 -281 -14 -106 -79 -177 -188 -205
-49 -13 -66 -13 -108 -2 -28 7 -53 16 -56 18 -3 3 2 70 10 149 8 79 18 187 22
239 3 52 8 98 11 103 2 4 30 7 61 7 43 0 69 -7 107 -28z m1631 -30 c7 -4 16
-87 23 -222 15 -296 19 -265 -34 -280 -25 -7 -62 -10 -85 -6 -60 9 -148 55
-174 90 -96 127 -29 344 126 411 35 15 125 20 144 7z m1168 -1193 c3 -34 6
-98 6 -143 0 -135 -35 -168 -215 -202 -104 -19 -314 -15 -400 9 -132 37 -149
67 -139 258 6 114 9 129 23 123 86 -35 274 -58 401 -49 105 7 228 30 275 50
16 7 33 14 36 14 3 1 9 -27 13 -60z m-2982 -28 c175 -45 430 -48 592 -6 32 9
60 14 62 12 2 -2 -1 -64 -6 -138 -15 -193 -32 -219 -170 -255 -88 -24 -344
-24 -449 -1 -96 21 -158 52 -176 88 -23 43 -20 137 10 317 6 32 6 32 34 18 15
-8 62 -24 103 -35z m1922 -169 c11 -186 -14 -233 -145 -273 -65 -20 -95 -23
-254 -24 -142 0 -193 4 -244 18 -152 42 -161 56 -161 239 0 73 3 142 6 154 l5
21 82 -25 c159 -47 470 -41 627 11 56 19 66 20 71 7 3 -8 9 -66 13 -128z"/>
<path d="M6680 8331 c-85 -26 -183 -124 -166 -167 10 -26 45 -14 89 29 50 50
115 73 178 63 71 -11 94 29 37 64 -34 20 -91 25 -138 11z"/>
<path d="M8331 8327 c-31 -16 -46 -40 -38 -61 6 -15 15 -16 61 -11 74 10 119
-7 184 -69 43 -41 56 -48 70 -40 32 20 25 51 -20 100 -73 80 -189 116 -257 81z"/>
<path d="M6642 7874 c-59 -29 -111 -87 -144 -160 -20 -42 -23 -66 -23 -159 0
-105 2 -114 33 -177 39 -79 93 -129 169 -158 214 -80 394 112 356 381 -32 229
-218 359 -391 273z m193 -53 c37 -17 105 -81 105 -100 0 -5 -21 2 -47 15 -25
13 -60 24 -77 23 -41 -1 -99 -22 -104 -39 -3 -8 0 -10 7 -6 13 8 58 -17 78
-43 19 -25 16 -78 -7 -101 -49 -49 -120 -6 -120 72 0 50 -17 47 -49 -11 -51
-91 -35 -234 35 -326 l35 -47 -31 19 c-105 60 -161 215 -127 346 45 171 175
256 302 198z"/>
<path d="M8282 7879 c-58 -29 -126 -108 -153 -177 -32 -81 -32 -242 -1 -322
30 -75 72 -124 138 -156 47 -23 63 -26 122 -22 114 8 196 69 248 182 39 86 45
226 14 309 -47 126 -138 197 -258 204 -54 3 -76 -1 -110 -18z m183 -63 c54
-25 93 -64 128 -130 18 -34 22 -57 22 -136 0 -117 -25 -180 -93 -240 -55 -49
-75 -52 -34 -6 30 34 55 97 67 167 17 92 -44 224 -120 263 -43 22 -119 25
-155 6 -19 -10 -18 -13 20 -49 56 -53 53 -119 -6 -141 -47 -18 -94 24 -94 87
0 22 -2 24 -15 13 -26 -21 -28 -3 -6 43 41 85 126 146 201 147 19 0 58 -11 85
-24z"/>
<path d="M7198 6939 c-23 -13 -24 -76 -3 -106 8 -12 30 -25 48 -28 17 -4 37
-11 43 -16 16 -13 42 -1 49 22 9 29 -32 107 -66 124 -33 17 -47 18 -71 4z"/>
<path d="M7842 6934 c-25 -18 -62 -84 -62 -112 0 -30 26 -47 53 -35 12 6 36
16 53 23 51 19 72 91 36 123 -23 21 -51 22 -80 1z"/>
<path d="M7137 6534 c-25 -25 21 -114 88 -173 49 -42 142 -87 214 -102 32 -6
99 -9 156 -7 116 6 193 30 272 84 59 40 136 145 131 178 -6 40 -68 27 -68 -14
0 -30 -113 -126 -175 -149 -69 -26 -185 -43 -234 -36 -91 15 -140 30 -194 58
-63 33 -134 105 -139 140 -3 22 -36 35 -51 21z"/>
<path d="M7459 5007 c-91 -34 -145 -84 -186 -172 -25 -54 -28 -71 -28 -165 0
-126 22 -186 90 -249 108 -100 336 -101 455 -2 68 55 120 210 105 310 -18 122
-73 205 -169 253 -51 27 -74 32 -146 35 -55 2 -98 -2 -121 -10z m205 -58 c25
-7 58 -30 90 -62 79 -80 103 -177 72 -292 -19 -74 -40 -108 -83 -138 -59 -40
-91 -50 -178 -51 -70 -1 -87 3 -140 29 -92 46 -129 117 -129 246 0 120 71 229
171 265 46 16 144 18 197 3z"/>
<path d="M8785 3746 c-106 -26 -196 -100 -239 -196 -50 -111 -44 -173 40 -416
32 -90 119 -144 248 -152 178 -11 311 56 368 185 33 74 48 171 39 238 -36 249
-233 396 -456 341z m220 -77 c92 -43 169 -164 182 -284 6 -57 -15 -152 -47
-215 -23 -45 -85 -94 -139 -111 -20 -6 -77 -13 -128 -16 -81 -5 -97 -3 -138
17 -58 28 -91 72 -106 139 -6 29 -22 79 -35 111 -14 35 -24 80 -24 107 0 83
61 188 137 234 83 51 211 59 298 18z"/>
<path d="M7528 3467 c-105 -45 -162 -106 -224 -241 -67 -146 -9 -352 117 -416
21 -11 43 -20 49 -20 6 0 37 -12 68 -27 49 -24 69 -28 147 -28 101 0 158 21
225 82 40 35 54 64 95 195 23 70 27 98 23 151 -10 124 -93 243 -206 295 -84
38 -214 42 -294 9z m278 -70 c128 -66 207 -249 152 -355 -9 -18 -24 -57 -32
-86 -30 -103 -146 -174 -265 -163 -51 4 -93 20 -216 78 -49 24 -81 71 -102
153 -23 86 -8 153 54 244 62 91 78 108 137 138 46 23 60 25 136 22 67 -4 96
-10 136 -31z"/>
</g>
</svg>
