<?xml version="1.0" standalone="no"?>
<!DOCTYPE svg PUBLIC "-//W3C//DTD SVG 20010904//EN"
 "http://www.w3.org/TR/2001/REC-SVG-20010904/DTD/svg10.dtd">
<svg version="1.0" xmlns="http://www.w3.org/2000/svg"
 width="1536.000000pt" height="1024.000000pt" viewBox="0 0 1536.000000 1024.000000"
 preserveAspectRatio="xMidYMid meet">

<g transform="translate(0.000000,1024.000000) scale(0.100000,-0.100000)"
fill="#000000" stroke="none">
<path d="M6806 9914 c-254 -57 -422 -204 -509 -446 -5 -16 -15 -13 -89 22
-141 67 -218 83 -408 84 -142 0 -177 -3 -250 -23 -340 -92 -577 -334 -616
-629 l-6 -49 -122 -6 c-146 -7 -210 -23 -341 -87 -317 -154 -530 -455 -575
-815 -18 -144 8 -302 70 -425 17 -34 30 -63 28 -64 -2 -2 -24 -17 -50 -34
-108 -74 -200 -188 -268 -336 -62 -134 -75 -199 -75 -376 0 -179 11 -231 76
-365 50 -102 150 -216 238 -270 l57 -35 -43 -88 c-178 -360 -79 -827 222
-1050 115 -86 293 -152 407 -152 l33 0 1 -108 c3 -231 104 -451 275 -599 168
-146 395 -224 610 -210 81 5 89 4 85 -11 -30 -97 -57 -398 -49 -554 l6 -116
-44 4 c-24 3 -53 7 -64 9 -10 2 -53 0 -95 -6 -287 -40 -515 -276 -602 -625
-29 -119 -32 -370 -5 -484 39 -167 110 -340 190 -464 17 -27 27 -51 21 -53 -5
-2 -39 -20 -73 -41 -92 -54 -182 -155 -223 -250 -30 -72 -33 -85 -33 -187 0
-100 3 -116 29 -172 51 -112 158 -184 331 -224 172 -40 522 -37 731 6 25 6 32
3 42 -19 6 -14 28 -44 49 -67 122 -136 336 -193 713 -193 220 0 363 19 488 66
177 66 283 196 319 392 l16 87 86 -3 86 -3 7 -63 c14 -124 64 -227 148 -306
132 -121 326 -170 675 -170 268 0 468 39 584 113 48 31 122 104 151 149 l15
24 85 -17 c115 -23 419 -31 547 -15 328 41 483 176 483 421 0 183 -106 355
-274 445 -28 15 -52 28 -54 30 -2 1 12 24 31 51 19 26 48 73 65 104 l31 55 68
11 c153 24 373 136 521 265 198 175 330 402 388 673 14 65 17 139 18 395 1
260 4 322 17 355 l16 39 84 -2 c104 -4 210 22 312 75 91 47 219 173 264 258
88 169 107 375 37 407 -13 6 -24 14 -24 17 0 3 7 42 15 86 19 104 19 202 0
311 -24 137 -57 194 -110 194 -9 0 -56 -26 -103 -58 -55 -36 -119 -68 -174
-87 -85 -29 -87 -29 -107 -11 -61 55 -297 -54 -427 -197 -140 -154 -208 -376
-171 -558 18 -86 55 -177 94 -227 l25 -34 -40 -81 c-40 -79 -75 -190 -86 -272
-3 -22 -10 -105 -16 -185 -16 -225 -49 -340 -139 -482 -68 -107 -225 -246
-310 -273 -17 -5 -20 3 -30 77 -51 359 -258 629 -538 703 -59 16 -215 22 -252
10 -21 -6 -21 -4 -21 170 0 187 -11 328 -35 437 -20 89 -20 88 18 88 58 0 188
39 272 80 141 70 259 189 332 334 44 87 83 239 83 322 l0 64 78 0 c100 0 175
19 287 74 230 113 386 354 425 653 18 144 -7 311 -69 447 l-29 64 47 25 c156
86 298 299 330 498 15 92 13 256 -4 337 -39 186 -140 370 -267 486 -40 36 -75
66 -79 66 -4 0 8 26 27 57 77 128 109 268 101 443 -10 227 -104 429 -279 596
-109 105 -252 184 -385 215 l-49 12 0 121 c1 137 -14 199 -70 306 -99 190
-294 340 -519 402 -65 18 -107 22 -230 22 -135 1 -159 -2 -242 -27 -50 -15
-94 -27 -96 -27 -3 0 -10 21 -17 48 -18 73 -79 180 -135 238 -141 144 -331
212 -560 201 -225 -11 -411 -92 -571 -249 l-72 -70 -31 45 c-72 106 -210 201
-356 247 -93 29 -280 36 -379 14z m331 -98 c29 -8 87 -31 130 -52 90 -45 207
-154 242 -228 40 -82 50 -80 149 25 97 102 169 156 276 204 122 55 187 69 326
69 108 -1 136 -4 206 -27 101 -33 183 -86 253 -163 65 -71 99 -141 115 -236 7
-43 18 -73 27 -79 10 -5 41 2 91 21 82 32 222 60 299 60 130 0 290 -41 398
-101 181 -102 297 -252 336 -435 18 -87 18 -131 0 -218 -17 -83 -12 -92 53
-101 318 -43 588 -305 656 -637 40 -196 2 -383 -111 -541 -19 -28 -33 -58 -31
-70 2 -13 26 -37 61 -61 123 -84 234 -237 283 -391 112 -350 -8 -714 -284
-858 -40 -22 -76 -46 -79 -54 -3 -8 11 -46 31 -84 20 -37 48 -112 61 -165 83
-324 -46 -676 -308 -845 -103 -67 -155 -81 -312 -88 l-140 -6 -6 -120 c-3 -67
-13 -146 -23 -180 -23 -77 -85 -197 -133 -255 -86 -105 -222 -192 -347 -224
-84 -21 -225 -21 -301 1 -94 26 -118 24 -128 -12 -53 -182 -214 -346 -393
-398 -145 -43 -275 -30 -411 39 -48 25 -92 43 -99 40 -7 -3 -21 -24 -32 -48
-51 -112 -159 -217 -287 -279 -112 -54 -179 -69 -310 -69 -139 0 -225 19 -332
70 -105 51 -211 152 -268 253 -21 38 -43 71 -50 73 -7 3 -39 -8 -71 -24 -114
-57 -159 -67 -289 -66 -102 1 -131 4 -193 27 -181 64 -312 190 -371 358 -11
30 -26 58 -35 64 -10 6 -40 1 -98 -18 -157 -51 -275 -57 -442 -22 -140 29
-299 127 -400 245 -56 65 -129 209 -153 300 -17 68 -23 207 -11 275 11 63 3
69 -114 76 -231 14 -417 128 -534 328 -72 123 -96 211 -102 372 -3 114 -1 149
16 217 20 78 68 190 113 263 13 19 20 43 16 51 -3 9 -32 30 -65 48 -133 71
-249 212 -298 363 -35 106 -44 276 -20 384 46 220 170 404 341 508 39 23 71
49 73 57 2 8 -15 44 -36 79 -61 100 -84 177 -89 305 -20 415 263 800 674 919
75 22 106 26 211 24 84 -1 127 3 137 11 10 8 15 31 15 67 0 209 153 424 384
538 136 67 232 89 396 89 116 0 149 -4 235 -27 59 -17 138 -48 194 -78 80 -43
98 -49 118 -40 14 7 23 19 23 33 0 63 57 188 115 256 81 94 243 181 373 202
71 11 210 4 279 -14z m4454 -5128 c9 -33 14 -107 13 -198 0 -136 -2 -151 -33
-243 -26 -78 -30 -101 -20 -113 16 -19 32 -18 62 6 14 11 28 20 31 20 11 0 6
-76 -9 -135 -56 -216 -213 -372 -422 -421 -186 -44 -364 23 -459 172 -109 171
-102 404 19 584 64 97 178 194 280 240 50 23 67 25 67 6 0 -28 29 -40 68 -29
140 41 284 104 351 155 13 10 27 16 31 13 4 -3 14 -29 21 -57z m-5729 -993
c101 -111 206 -173 356 -211 152 -39 304 -28 436 30 l56 25 35 -54 c117 -184
311 -297 561 -326 282 -33 585 103 719 322 l34 56 59 -29 c85 -40 200 -62 290
-54 106 9 156 23 262 74 130 63 230 161 289 284 l41 85 52 -13 c29 -8 60 -14
69 -14 33 0 69 -259 69 -506 0 -450 -113 -1000 -345 -1684 -43 -124 -79 -237
-82 -251 -4 -21 4 -33 45 -67 141 -119 223 -338 193 -519 -20 -122 -81 -208
-186 -261 -40 -20 -146 -54 -151 -49 -2 2 5 30 15 62 10 33 22 89 25 125 17
162 -54 364 -109 309 -14 -14 -14 -23 6 -94 18 -66 21 -97 17 -185 -5 -98 -31
-207 -56 -232 -16 -16 -188 -30 -310 -26 -67 3 -125 7 -128 10 -3 3 4 32 15
64 31 94 44 226 32 323 -12 97 -28 135 -58 139 -31 5 -44 -25 -33 -74 25 -107
2 -323 -44 -412 l-15 -30 -68 13 c-143 28 -248 87 -313 176 -54 75 -75 158
-75 299 1 156 25 254 96 390 44 83 59 129 120 371 105 420 191 876 173 923 -3
9 -17 16 -30 16 -30 0 -35 -13 -58 -140 -38 -203 -100 -487 -167 -765 -60
-245 -77 -300 -109 -355 -58 -101 -103 -246 -112 -360 -3 -32 -6 -35 -47 -43
-24 -5 -64 -5 -90 0 -42 7 -46 11 -48 38 -10 125 -51 265 -104 360 -44 79
-177 639 -249 1045 -36 205 -42 223 -73 218 -19 -3 -22 -10 -25 -52 -7 -110
52 -429 170 -926 42 -178 69 -270 89 -305 93 -166 131 -386 95 -556 -39 -180
-156 -286 -366 -329 -110 -23 -109 -23 -136 65 -28 93 -37 211 -24 313 10 84
10 96 -4 111 -80 79 -118 -296 -49 -472 9 -21 13 -40 10 -44 -4 -3 -57 -8
-120 -11 -126 -5 -307 12 -319 31 -4 7 -18 41 -30 77 -32 91 -31 256 1 349 19
56 20 66 8 79 -52 52 -117 -91 -117 -258 0 -75 15 -170 35 -222 6 -14 2 -15
-37 -7 -116 26 -229 110 -267 199 -60 139 -40 326 51 478 18 30 66 85 107 123
59 56 72 73 68 92 -3 12 -33 103 -67 202 -122 359 -232 787 -290 1125 -74 439
-75 750 -4 1087 5 26 14 35 47 46 l42 14 37 -78 c21 -42 61 -103 90 -134z
m4991 -125 l64 -40 -21 -58 c-19 -53 -21 -80 -22 -372 -1 -306 -2 -318 -27
-413 -88 -332 -307 -599 -611 -747 -88 -43 -213 -86 -223 -77 -2 2 8 36 21 75
26 76 51 191 61 283 l7 56 66 32 c196 96 338 251 417 454 44 114 62 208 75
390 13 161 31 263 65 353 29 78 43 104 55 104 5 0 38 -18 73 -40z m-5398 -481
l63 -11 6 -71 c34 -351 156 -872 325 -1385 l60 -182 -62 -63 c-132 -132 -217
-374 -188 -532 6 -32 9 -61 6 -63 -10 -10 -144 -31 -241 -38 l-101 -7 -19 49
c-34 89 -20 231 32 332 26 51 -28 73 -65 26 -65 -83 -85 -258 -45 -388 6 -18
2 -19 -87 -12 -51 4 -115 12 -142 18 -43 9 -51 15 -64 45 -36 88 -24 233 28
334 19 38 19 43 5 57 -26 27 -60 1 -97 -74 -28 -56 -34 -80 -37 -153 -2 -47 0
-103 6 -124 13 -46 5 -47 -55 -6 -160 110 -153 358 14 525 111 112 290 171
484 160 91 -5 108 -4 120 10 11 14 10 18 -6 30 -47 35 -179 50 -295 34 l-85
-12 -22 28 c-38 48 -120 216 -156 320 -90 258 -87 518 8 745 38 91 127 220
188 274 88 78 228 137 341 144 11 0 47 -4 81 -10z m4109 -24 c195 -68 350
-254 418 -502 17 -64 21 -107 21 -243 1 -147 -2 -175 -25 -260 -35 -131 -87
-256 -142 -348 -82 -135 -66 -126 -184 -111 -155 19 -309 -12 -300 -59 3 -15
20 -17 148 -18 162 0 231 -14 334 -66 263 -133 338 -477 132 -615 -27 -18 -52
-33 -56 -33 -5 0 -4 17 2 37 17 61 5 210 -21 268 -26 59 -58 95 -83 95 -31 0
-32 -28 -2 -93 25 -54 28 -74 29 -157 0 -122 -16 -176 -59 -190 -41 -13 -160
-30 -215 -30 -40 0 -43 2 -37 22 19 66 28 139 22 188 -13 123 -64 225 -110
218 -26 -4 -26 -33 -1 -98 26 -66 31 -203 10 -275 l-16 -58 -102 7 c-95 7
-232 28 -241 37 -3 2 0 27 6 54 5 28 7 87 4 132 -11 158 -77 306 -188 419
l-50 52 75 223 c160 473 264 888 312 1239 26 195 20 178 68 189 61 15 170 4
251 -24z"/>
<path d="M9135 8646 c-133 -21 -226 -60 -341 -142 -95 -68 -194 -187 -233
-283 l-13 -30 -56 26 c-171 76 -350 131 -512 157 l-75 12 -6 38 c-6 39 -21 56
-51 56 -24 0 -32 -17 -29 -71 7 -167 -114 -279 -244 -225 -43 18 -88 81 -104
143 -21 80 -28 93 -55 93 -21 0 -30 -10 -52 -57 -36 -75 -138 -177 -211 -210
-75 -34 -174 -41 -223 -16 -50 26 -74 73 -72 145 1 44 -2 60 -13 64 -22 9
-223 -22 -338 -51 -122 -31 -260 -83 -397 -148 -57 -27 -106 -45 -107 -40 -15
43 -91 150 -148 208 -155 156 -308 220 -530 220 -140 -1 -209 -16 -333 -75
-213 -102 -370 -293 -434 -529 -30 -111 -30 -288 0 -394 68 -237 236 -426 451
-507 34 -12 61 -23 61 -25 0 -1 -18 -57 -40 -124 -142 -432 -165 -840 -69
-1229 55 -223 127 -387 253 -572 255 -376 669 -642 1214 -781 312 -80 582
-113 917 -112 736 2 1380 209 1837 592 282 236 494 594 568 958 85 422 23 925
-163 1335 l-34 74 86 44 c122 62 250 190 309 310 61 124 84 221 84 360 0 131
-25 238 -86 359 -151 299 -492 478 -811 427z m283 -102 c189 -47 366 -198 457
-388 55 -116 68 -182 63 -326 -4 -108 -9 -136 -36 -207 -64 -173 -194 -311
-353 -377 l-36 -15 -64 107 c-35 59 -65 112 -66 117 -2 6 21 26 49 45 104 70
162 180 160 304 -1 86 -19 149 -63 217 -140 219 -473 230 -624 22 -16 -23 -33
-42 -37 -42 -4 -1 -55 30 -114 69 -59 38 -112 71 -118 73 -25 8 59 142 139
223 173 173 406 238 643 178z m-3903 -124 c110 -34 183 -79 266 -160 73 -72
139 -167 139 -201 0 -9 -22 -30 -48 -47 -27 -17 -75 -52 -107 -77 -32 -25 -61
-45 -64 -45 -3 0 -18 18 -34 39 -69 99 -237 165 -362 144 -167 -29 -293 -153
-325 -320 -30 -151 56 -326 193 -398 l54 -29 -59 -115 c-69 -134 -62 -131
-175 -76 -135 67 -234 165 -299 300 -50 103 -68 184 -68 300 1 123 20 201 78
320 93 188 254 318 467 375 96 26 242 22 344 -10z m2560 -157 c590 -137 1079
-531 1369 -1103 433 -855 303 -1788 -323 -2313 -481 -403 -1199 -609 -1978
-567 -1073 59 -1811 512 -2057 1263 -148 452 -118 956 87 1462 102 253 242
468 426 659 272 281 599 464 1001 561 58 14 119 25 136 25 29 0 32 -3 37 -38
14 -84 97 -165 184 -178 70 -10 157 2 220 30 72 34 156 98 191 147 15 21 30
39 33 39 4 0 12 -14 19 -30 17 -42 104 -117 148 -130 134 -37 268 37 313 172
14 44 6 44 194 1z m1257 -180 c60 -27 115 -84 147 -152 65 -140 7 -316 -128
-385 l-28 -15 -49 67 c-27 37 -113 131 -191 209 l-142 141 22 33 c77 113 240
158 369 102z m-3837 -123 c51 -25 135 -102 135 -124 0 -6 -32 -43 -71 -81 -74
-74 -193 -216 -249 -300 -18 -27 -35 -52 -36 -54 -9 -11 -100 47 -134 86 -123
140 -98 348 53 451 63 43 94 52 177 49 55 -2 89 -10 125 -27z"/>
<path d="M8402 7285 c-28 -12 -33 -19 -30 -42 l3 -28 90 -1 c116 0 165 -21
243 -104 60 -62 84 -70 97 -30 14 43 -74 143 -164 187 -66 33 -187 42 -239 18z"/>
<path d="M6055 7196 c-89 -23 -160 -71 -217 -150 -33 -46 -36 -81 -7 -96 17
-10 24 -7 47 21 58 68 99 103 151 127 45 21 64 24 122 20 73 -6 89 1 89 39 0
42 -96 62 -185 39z"/>
<path d="M8443 6616 c-145 -47 -243 -163 -277 -329 -20 -95 -20 -156 -1 -248
49 -234 250 -370 465 -315 187 48 310 221 310 436 0 249 -167 453 -381 466
-47 2 -89 -1 -116 -10z m215 -100 c67 -34 126 -100 164 -181 29 -64 32 -78 32
-170 0 -113 -20 -183 -75 -252 -35 -44 -112 -99 -151 -108 -25 -6 -24 -4 16
37 155 163 130 459 -49 563 -89 52 -211 40 -293 -30 -23 -20 -42 -34 -42 -30
0 3 15 30 34 59 84 132 234 178 364 112z m-216 -213 c22 -21 28 -36 28 -68 0
-100 -120 -131 -163 -43 -47 96 60 183 135 111z"/>
<path d="M6057 6530 c-220 -56 -365 -314 -313 -560 50 -236 238 -382 448 -349
135 21 234 97 297 229 35 74 36 77 36 200 0 131 -11 181 -60 280 -30 60 -122
145 -189 176 -61 28 -160 39 -219 24z m190 -100 c48 -21 120 -84 146 -129 19
-32 9 -43 -14 -15 -22 27 -89 55 -144 61 -116 12 -230 -63 -274 -180 -55 -148
-3 -364 106 -446 38 -28 11 -27 -52 3 -62 29 -128 100 -163 174 -24 50 -27 69
-27 162 0 125 12 168 68 252 85 127 224 173 354 118z m-82 -192 c29 -13 55
-55 55 -88 0 -64 -65 -113 -120 -90 -32 13 -60 55 -60 87 0 27 37 83 63 93 30
12 32 12 62 -2z"/>
<path d="M7202 6030 c-151 -27 -265 -91 -313 -174 -24 -42 -29 -63 -29 -117 0
-176 167 -325 433 -383 l27 -6 0 -136 0 -135 -45 -48 c-84 -90 -200 -120 -322
-83 -115 35 -195 121 -226 242 -16 62 -43 78 -70 40 -32 -46 28 -196 110 -271
131 -120 345 -145 493 -55 19 11 52 36 72 54 l38 34 42 -36 c23 -20 67 -49 98
-64 49 -24 66 -27 160 -27 97 0 110 2 172 32 90 42 157 107 198 190 39 79 47
167 18 187 -28 18 -52 -5 -59 -56 -25 -169 -203 -296 -377 -268 -67 11 -146
54 -182 100 -27 34 -28 40 -31 170 l-4 134 50 12 c165 39 299 134 360 253 88
175 5 328 -215 396 -65 20 -315 29 -398 15z m349 -94 c85 -18 137 -45 179 -92
30 -35 32 -41 28 -100 -3 -53 -10 -72 -41 -117 -68 -99 -208 -176 -333 -185
-250 -16 -496 188 -429 355 27 66 123 121 253 143 79 13 272 11 343 -4z"/>
</g>
</svg>
