<svg xmlns="http://www.w3.org/2000/svg" viewBox="0 0 400 400">
  <g fill="none" stroke="#1a1a1a" stroke-width="7" stroke-linejoin="round" stroke-linecap="round">
    <!-- ala superior izquierda -->
    <path d="M188 150 q-90 -72 -150 -8 q-30 50 30 80 q72 30 124 -22 Z"/>
    <!-- ala superior derecha -->
    <path d="M212 150 q90 -72 150 -8 q30 50 -30 80 q-72 30 -124 -22 Z"/>
    <!-- ala inferior izquierda -->
    <path d="M190 222 q-72 10 -98 70 q-6 46 50 40 q52 -10 62 -56 Z"/>
    <!-- ala inferior derecha -->
    <path d="M210 222 q72 10 98 70 q6 46 -50 40 q-52 -10 -62 -56 Z"/>
    <!-- cuerpo -->
    <ellipse cx="200" cy="212" rx="15" ry="86"/>
    <!-- cabeza -->
    <circle cx="200" cy="116" r="18"/>
    <!-- antenas -->
    <path d="M192 102 q-26 -30 -46 -36"/>
    <path d="M208 102 q26 -30 46 -36"/>
    <circle cx="145" cy="64" r="6" fill="#1a1a1a" stroke="none"/>
    <circle cx="255" cy="64" r="6" fill="#1a1a1a" stroke="none"/>
    <!-- manchas -->
    <circle cx="92" cy="150" r="20"/>
    <circle cx="308" cy="150" r="20"/>
    <circle cx="120" cy="276" r="15"/>
    <circle cx="280" cy="276" r="15"/>
  </g>
</svg>
