<?xml version="1.0" standalone="no"?>
<!DOCTYPE svg PUBLIC "-//W3C//DTD SVG 20010904//EN"
 "http://www.w3.org/TR/2001/REC-SVG-20010904/DTD/svg10.dtd">
<svg version="1.0" xmlns="http://www.w3.org/2000/svg"
 width="1536.000000pt" height="1024.000000pt" viewBox="0 0 1536.000000 1024.000000"
 preserveAspectRatio="xMidYMid meet">

<g transform="translate(0.000000,1024.000000) scale(0.100000,-0.100000)"
fill="#000000" stroke="none">
<path d="M7413 9869 c-17 -5 -43 -24 -58 -41 -38 -45 -30 -91 29 -192 43 -72
45 -78 24 -72 -59 17 -165 18 -227 2 -114 -29 -171 -82 -171 -158 0 -28 8 -45
35 -74 19 -20 34 -38 33 -39 -2 -1 -48 -10 -103 -20 -369 -67 -740 -227 -1034
-446 -106 -79 -283 -249 -364 -349 -137 -170 -260 -394 -332 -605 -20 -60 -39
-112 -41 -114 -2 -2 -17 8 -34 23 -48 40 -187 104 -274 126 -108 27 -265 27
-372 0 -264 -68 -477 -266 -584 -541 -64 -165 -75 -228 -75 -424 0 -109 6
-204 13 -240 93 -429 343 -736 697 -854 154 -51 301 -63 442 -36 43 8 83 15
89 15 7 0 13 -35 17 -92 23 -365 282 -708 700 -928 l95 -50 -58 -88 c-199
-299 -312 -674 -336 -1120 -6 -107 -9 -123 -23 -118 -9 3 -56 20 -106 37 -77
28 -107 33 -210 37 -142 5 -224 -11 -331 -64 -226 -111 -382 -345 -425 -634
-14 -102 -7 -306 15 -409 60 -276 203 -535 428 -773 l35 -38 -54 -30 c-29 -17
-80 -58 -113 -91 -192 -195 -182 -467 21 -568 34 -17 73 -31 86 -31 14 0 36
-15 59 -39 60 -68 111 -86 239 -86 94 -1 117 -4 158 -24 104 -50 223 -36 415
51 62 28 114 49 115 47 1 -2 14 -30 29 -61 37 -77 88 -132 156 -165 48 -24 71
-28 145 -29 74 -2 92 -5 110 -22 12 -12 45 -31 72 -43 88 -40 243 -25 314 30
24 18 25 18 75 -8 42 -22 63 -26 126 -25 94 1 152 27 215 96 53 59 83 134 98
246 l11 83 28 -6 c58 -13 135 -7 181 15 92 43 141 112 160 225 11 62 11 63 43
63 31 0 32 -1 38 -59 13 -112 66 -190 158 -229 45 -19 64 -22 135 -17 l83 5 0
-42 c0 -55 25 -167 46 -208 30 -60 85 -118 137 -146 44 -22 65 -27 132 -27 67
0 87 4 125 26 l45 25 42 -27 c108 -67 285 -57 370 22 18 18 36 21 115 23 79 1
100 5 144 28 65 34 139 116 161 179 10 27 21 49 24 49 4 0 58 -23 119 -50 61
-28 139 -58 173 -67 81 -20 177 -14 237 17 38 20 61 24 155 25 127 2 168 15
230 75 28 27 60 45 105 59 113 35 190 126 206 242 9 63 -11 170 -43 233 -32
63 -143 175 -203 206 -25 12 -47 24 -49 26 -2 2 29 41 70 86 41 46 84 96 96
112 15 19 50 38 110 60 467 174 784 566 858 1061 29 194 17 361 -41 571 -43
161 -93 271 -234 524 -163 293 -200 395 -200 548 0 110 26 180 94 248 64 64
131 89 217 81 111 -10 209 -86 209 -162 0 -47 -18 -58 -74 -45 -143 32 -276
-87 -276 -247 0 -208 177 -367 425 -380 287 -16 534 188 592 488 28 151 1 345
-69 484 -117 231 -341 407 -613 481 -89 24 -310 30 -410 11 -354 -67 -623
-322 -721 -684 -37 -133 -39 -347 -5 -494 37 -164 110 -337 222 -531 107 -183
184 -360 215 -495 23 -102 20 -363 -5 -363 -4 0 -13 22 -20 49 -19 74 -76 186
-133 264 -52 70 -155 156 -236 196 -159 80 -405 81 -592 2 l-67 -28 -6 158
c-8 197 -27 330 -77 534 -57 231 -123 389 -236 563 -30 46 -52 88 -48 93 3 5
27 20 54 34 184 93 434 311 535 465 95 145 158 324 171 482 7 79 7 80 33 74
111 -23 207 -29 300 -18 520 61 893 499 918 1079 8 178 -7 292 -56 438 -50
152 -108 250 -212 359 -162 170 -338 246 -567 246 -153 0 -279 -39 -412 -125
l-66 -42 -47 146 c-190 584 -641 1038 -1265 1275 -103 39 -226 75 -374 110
l-27 6 20 45 c31 70 51 182 44 242 -13 105 -80 156 -177 132 -61 -14 -150 -72
-209 -136 l-46 -49 -33 60 c-41 74 -157 192 -226 228 -93 50 -198 68 -271 47z
m210 -142 c118 -58 217 -190 267 -354 12 -40 26 -71 31 -68 4 3 23 33 41 67
60 113 181 222 261 235 34 5 35 5 42 -35 12 -74 -27 -211 -87 -305 -17 -26
-29 -50 -26 -52 2 -2 63 -16 136 -30 583 -114 1091 -444 1384 -900 272 -422
375 -1016 277 -1590 -18 -103 -38 -189 -91 -386 -9 -32 -6 -44 25 -105 46 -91
64 -147 82 -251 26 -149 -8 -359 -82 -508 -87 -174 -253 -353 -438 -471 -28
-18 -28 -16 11 31 220 270 282 580 172 865 -27 69 -95 174 -145 223 l-39 37
66 133 c74 148 120 280 152 437 30 153 30 422 -1 570 -135 640 -671 1034
-1266 932 -185 -32 -350 -101 -495 -208 -79 -58 -192 -173 -238 -241 -19 -29
-38 -53 -41 -53 -3 0 -17 19 -31 42 -14 23 -63 82 -110 131 -287 300 -725 418
-1120 300 -445 -132 -762 -539 -821 -1053 -32 -282 27 -581 170 -857 l69 -131
-30 -29 c-76 -71 -171 -239 -196 -343 -60 -257 27 -561 221 -767 17 -18 28
-35 26 -38 -3 -2 -30 12 -60 32 -247 166 -397 353 -474 593 -22 68 -28 110
-32 210 -6 158 17 273 81 404 43 89 43 91 29 131 -28 79 -72 272 -90 390 -21
146 -24 520 -5 665 63 472 246 865 542 1160 367 367 908 613 1458 662 81 8
131 16 129 23 -2 5 -53 44 -115 85 -61 41 -119 83 -128 92 -16 15 -15 18 16
37 104 63 288 28 401 -77 32 -29 63 -51 68 -48 23 15 -45 208 -117 333 -21 37
-45 79 -52 92 l-12 23 64 -4 c43 -2 82 -13 121 -31z m-782 -1632 c149 -26 279
-77 395 -156 114 -77 227 -189 301 -301 78 -118 96 -124 139 -50 139 239 373
417 640 487 513 133 1013 -143 1198 -663 95 -267 93 -620 -5 -900 -41 -117
-91 -222 -144 -308 -25 -40 -45 -75 -45 -79 0 -4 26 -33 58 -64 108 -106 169
-218 199 -363 15 -75 16 -99 5 -181 -46 -368 -328 -661 -802 -834 -143 -52
-520 -144 -585 -143 -5 0 27 18 73 40 337 160 542 449 545 770 1 234 -76 414
-257 596 -161 162 -368 270 -629 326 -136 29 -472 32 -613 6 -336 -64 -634
-249 -791 -491 -280 -431 -104 -958 402 -1203 50 -24 85 -44 79 -44 -28 0
-190 34 -311 66 -370 97 -627 225 -799 398 -188 189 -273 389 -261 615 8 163
62 283 184 412 46 48 83 92 83 98 0 7 -17 38 -39 69 -81 120 -155 293 -191
447 -122 523 81 1077 481 1316 213 127 457 175 690 134z m-1944 -306 c87 -27
143 -56 219 -112 l61 -45 -13 -68 c-18 -91 -44 -306 -44 -369 -1 -50 -1 -50
-17 -25 -33 50 -151 159 -199 183 -95 47 -150 60 -244 55 -115 -5 -194 -42
-273 -127 -79 -86 -109 -165 -115 -304 -3 -69 0 -113 6 -119 12 -12 12 -10 32
93 13 66 59 167 100 219 45 57 126 108 204 127 64 15 72 15 138 0 121 -29 219
-105 292 -225 32 -53 66 -131 66 -152 0 -4 -33 -7 -72 -6 -53 0 -86 -6 -118
-20 -232 -106 -218 -500 24 -659 53 -36 146 -65 204 -65 29 0 33 -3 27 -17
-13 -31 -45 -156 -45 -174 0 -29 -88 -51 -227 -56 -155 -7 -242 11 -379 77
-277 134 -466 392 -529 724 -18 94 -21 309 -5 400 49 277 215 515 436 625 146
72 319 87 471 40z m5790 0 c299 -91 509 -387 531 -748 22 -357 -83 -657 -306
-873 -124 -121 -260 -197 -419 -234 -86 -20 -292 -15 -369 10 -51 16 -51 16
-58 65 -4 27 -15 74 -26 105 l-19 56 32 0 c57 0 150 30 203 65 200 131 256
449 107 607 -51 54 -178 88 -253 67 -22 -6 -15 23 25 106 62 128 175 237 282
270 75 24 192 18 256 -14 115 -56 205 -192 229 -345 6 -42 15 -76 19 -76 13 0
22 89 16 160 -9 103 -58 212 -126 281 -31 30 -83 69 -116 85 -55 27 -69 29
-170 29 -107 0 -112 -1 -185 -37 -80 -39 -170 -113 -211 -172 -13 -20 -27 -36
-30 -36 -3 0 -9 60 -12 133 -3 73 -13 179 -22 235 l-16 103 23 19 c177 151
406 202 615 139z m-5592 -993 c28 -12 35 -21 40 -53 23 -139 49 -262 73 -350
18 -65 26 -107 20 -117 -23 -42 -143 -24 -232 35 -99 66 -160 212 -138 330 26
140 122 203 237 155z m5163 -6 c69 -42 103 -146 83 -251 -24 -122 -90 -210
-191 -257 -60 -28 -150 -36 -172 -14 -9 9 -3 49 30 179 23 93 46 197 52 233 6
36 13 74 15 86 6 28 40 43 100 43 33 1 61 -6 83 -19z m-2386 -609 c302 -52
529 -176 688 -375 168 -212 203 -471 99 -721 -114 -276 -429 -483 -820 -541
-147 -21 -420 -15 -554 14 -421 91 -696 314 -780 632 -25 95 -24 236 4 334 95
342 400 580 846 661 113 21 383 18 517 -4z m3512 -786 c494 -105 784 -612 574
-1007 -36 -69 -126 -156 -194 -190 -195 -98 -444 -38 -520 127 -40 86 -27 177
32 224 26 21 36 22 89 16 120 -14 154 -2 186 68 52 117 -19 255 -166 324 -53
25 -72 28 -155 28 -76 0 -107 -5 -152 -23 -70 -28 -155 -103 -190 -169 -48
-88 -61 -155 -55 -278 8 -171 56 -297 217 -575 144 -247 223 -447 256 -647 19
-117 15 -339 -9 -448 -78 -353 -290 -642 -602 -818 -44 -25 -91 -48 -104 -52
l-24 -7 25 43 c39 66 102 223 126 314 27 100 52 262 52 336 0 44 8 74 35 130
45 96 65 196 65 324 0 196 -47 355 -177 605 -171 327 -200 388 -235 496 -49
151 -61 236 -56 400 4 120 9 151 35 231 99 300 335 504 643 556 60 10 241 5
304 -8z m-4974 -823 c433 -142 832 -200 1288 -189 478 11 953 111 1393 292 83
35 114 43 124 35 29 -24 128 -183 169 -271 81 -176 145 -398 171 -599 60 -451
27 -904 -100 -1366 -84 -307 -160 -512 -284 -770 -90 -186 -108 -203 -214
-211 -80 -6 -137 12 -226 72 l-71 48 -62 -18 c-35 -10 -94 -19 -133 -19 -122
-2 -220 63 -232 152 -4 28 9 77 52 202 277 798 370 1197 368 1580 0 203 -32
400 -63 400 -7 0 -19 -171 -21 -300 -1 -41 -4 -86 -8 -100 l-7 -25 -8 30 c-4
16 -28 70 -52 120 -189 380 -584 600 -996 555 -391 -43 -701 -287 -844 -665
l-19 -50 -7 45 c-3 25 -7 123 -7 218 -1 133 -4 173 -13 170 -18 -6 -45 -103
-59 -206 -18 -134 -6 -405 25 -592 55 -325 108 -520 278 -1027 80 -242 109
-339 104 -358 -4 -14 -25 -46 -47 -70 -70 -76 -183 -97 -317 -60 l-62 18 -75
-51 c-93 -63 -130 -75 -215 -70 -104 6 -133 30 -205 176 -162 328 -315 811
-365 1147 -60 406 -54 825 16 1145 55 248 169 525 283 687 l51 72 117 -48 c65
-27 188 -71 273 -99z m1425 -501 c102 -27 223 -85 302 -145 130 -99 255 -261
313 -406 103 -258 99 -341 -34 -832 -88 -324 -283 -907 -307 -919 -8 -4 -57
-27 -109 -52 -165 -80 -273 -185 -328 -320 l-27 -67 -54 2 -53 3 -17 46 c-24
62 -88 153 -153 216 -57 56 -183 133 -258 158 l-46 15 -122 373 c-162 495
-230 747 -266 991 -11 80 -11 99 5 175 24 116 49 185 109 299 135 258 381 437
665 483 87 14 292 3 380 -20z m-2527 -686 c35 -8 96 -30 137 -49 l73 -34 6
-103 c7 -100 29 -319 42 -405 l6 -42 -52 49 c-74 70 -91 65 -46 -13 95 -164
145 -278 190 -431 84 -285 193 -573 287 -759 26 -52 28 -60 12 -55 -10 3 -70
24 -133 46 -159 56 -282 80 -440 87 -129 6 -191 0 -344 -33 -26 -5 -37 2 -118
88 -135 140 -251 321 -322 503 -91 229 -102 537 -26 738 79 211 224 354 415
409 76 22 228 24 313 4z m4896 0 c199 -52 342 -203 422 -445 26 -80 28 -96 28
-260 1 -153 -2 -187 -23 -270 -51 -200 -143 -392 -259 -543 -78 -102 -182
-216 -202 -222 -9 -3 -48 2 -86 12 -52 13 -110 17 -234 17 -192 -1 -303 -20
-490 -85 -63 -22 -123 -43 -132 -46 -13 -4 -5 22 36 108 115 245 182 419 271
709 49 159 91 255 177 398 27 45 48 87 46 94 -2 6 -33 -16 -68 -48 l-63 -59 6
35 c15 81 37 264 47 384 6 82 15 133 23 139 34 24 148 71 202 82 83 18 229 18
299 0z m-3086 -1746 c107 -46 216 -138 273 -229 61 -96 77 -242 36 -315 -43
-75 -141 -106 -217 -67 -32 16 -36 23 -56 109 -35 143 -72 198 -76 111 -1 -24
-2 -128 -3 -233 -1 -151 -5 -201 -19 -244 -38 -116 -101 -171 -195 -171 -148
0 -208 120 -199 393 3 71 1 127 -4 127 -16 0 -56 -103 -69 -174 -14 -80 -6
-176 20 -253 l18 -54 -39 -27 c-97 -64 -240 -30 -298 71 -49 86 -62 242 -34
412 7 40 7 40 -14 22 -32 -29 -62 -110 -74 -201 -9 -69 -8 -94 5 -155 10 -40
17 -77 17 -82 0 -14 -77 -11 -113 4 -140 59 -198 255 -145 487 14 60 80 197
115 239 28 33 30 33 58 18 116 -59 274 -40 395 47 l50 36 72 -16 c85 -20 160
-15 239 15 66 25 141 87 159 131 14 34 19 34 98 -1z m1051 -7 c27 -53 78 -96
148 -123 71 -28 225 -32 283 -8 35 15 35 15 92 -27 76 -55 144 -78 238 -78 58
0 87 5 129 23 l53 24 19 -24 c40 -52 100 -181 119 -256 33 -130 23 -280 -23
-368 -22 -42 -75 -91 -119 -109 -33 -14 -118 -22 -118 -12 0 2 7 33 16 67 30
118 4 305 -52 366 l-25 28 7 -85 c16 -195 -3 -320 -59 -393 -56 -73 -176 -99
-265 -56 -24 12 -46 27 -48 34 -3 7 5 45 17 85 29 97 24 246 -12 334 -13 33
-29 61 -34 63 -7 2 -10 -47 -11 -134 0 -270 -59 -386 -194 -385 -93 1 -165 57
-196 154 -14 42 -18 99 -21 273 -4 226 -7 265 -22 265 -13 0 -46 -92 -62 -174
-13 -66 -15 -70 -54 -87 -145 -66 -270 57 -235 234 25 128 102 237 225 317 49
32 162 88 182 90 2 0 11 -17 22 -38z m-2541 -81 c98 -21 197 -51 273 -83 l46
-19 -49 -97 c-57 -115 -77 -189 -86 -323 l-7 -100 -105 -48 c-151 -70 -196
-84 -269 -84 -73 1 -105 19 -134 74 -38 72 3 199 99 299 62 65 56 74 -24 34
-105 -52 -176 -171 -171 -288 3 -58 2 -60 -27 -68 -71 -21 -178 18 -216 80
-17 28 -20 45 -16 105 6 95 41 164 122 241 l61 58 -35 -6 c-52 -9 -138 -73
-176 -131 -32 -48 -64 -144 -64 -192 0 -28 -3 -28 -52 -1 -120 68 -119 251 2
382 83 90 206 151 365 182 98 19 342 11 463 -15z m4362 19 c113 -18 229 -60
305 -112 98 -65 149 -135 176 -241 21 -86 -20 -185 -92 -222 -42 -22 -46 -20
-52 40 -12 117 -90 230 -190 276 -77 35 -82 23 -14 -40 148 -139 168 -323 44
-395 -39 -23 -55 -27 -114 -24 l-68 3 3 44 c9 138 -75 268 -206 321 -53 21
-50 3 11 -57 70 -70 100 -129 105 -209 7 -109 -42 -156 -161 -155 -71 0 -99 9
-252 80 l-110 50 -6 100 c-8 132 -32 224 -85 328 -24 47 -43 87 -42 88 48 38
289 105 463 128 62 8 223 6 285 -3z"/>
<path d="M6450 7679 c-66 -13 -149 -57 -196 -105 -70 -69 -102 -152 -72 -182
22 -22 46 -12 87 37 55 65 116 105 196 126 54 15 73 16 123 6 33 -6 66 -9 75
-5 44 17 21 85 -36 109 -45 18 -125 25 -177 14z"/>
<path d="M8670 7679 c-73 -14 -125 -63 -104 -96 9 -15 27 -18 105 -18 52 -1
112 -7 134 -14 65 -22 132 -70 171 -122 42 -57 78 -66 94 -23 15 39 -21 113
-86 174 -70 66 -122 88 -244 105 -14 2 -45 -1 -70 -6z"/>
<path d="M6485 7057 c-133 -44 -235 -151 -286 -298 -30 -86 -32 -257 -5 -339
48 -142 121 -237 224 -289 120 -61 245 -63 367 -7 263 120 306 596 75 826 -80
80 -152 113 -254 117 -49 2 -97 -2 -121 -10z m241 -96 c55 -24 137 -102 172
-164 29 -51 28 -65 -2 -30 -13 16 -48 42 -78 58 -46 26 -63 30 -133 30 -70 0
-87 -4 -134 -30 -170 -94 -229 -333 -131 -531 35 -71 123 -159 170 -169 38 -8
40 -26 3 -20 -16 2 -50 7 -77 10 -121 13 -230 129 -272 290 -32 117 -8 291 52
392 42 69 63 93 116 129 95 66 211 79 314 35z m-87 -196 c28 -14 48 -50 52
-90 4 -48 -3 -68 -30 -96 -41 -41 -98 -41 -139 1 -51 51 -47 127 9 174 35 29
67 33 108 11z"/>
<path d="M8553 7055 c-218 -67 -356 -333 -314 -602 26 -168 89 -263 214 -328
73 -37 83 -39 165 -39 107 0 170 20 249 78 71 52 126 131 161 228 23 64 26 89
26 198 1 149 -19 222 -88 316 -96 133 -268 195 -413 149z m220 -95 c205 -97
292 -375 194 -618 -31 -78 -79 -141 -137 -181 -56 -38 -98 -51 -169 -51 l-54
0 61 31 c167 83 244 319 170 516 -29 79 -113 163 -187 188 -103 34 -212 6
-291 -77 -47 -48 -50 -41 -11 27 33 58 101 129 145 152 92 48 194 53 279 13z
m-253 -195 c99 -51 62 -215 -48 -215 -110 1 -143 161 -43 215 34 18 55 18 91
0z"/>
<path d="M7226 5979 c-30 -24 -35 -72 -11 -118 19 -38 105 -81 162 -81 56 0
73 28 54 90 -31 103 -139 161 -205 109z"/>
<path d="M7865 5986 c-70 -30 -121 -134 -90 -182 35 -53 176 -12 214 63 6 12
11 38 11 57 0 66 -62 94 -135 62z"/>
<path d="M8228 5456 c-35 -18 -34 -43 2 -58 l31 -13 -31 -47 c-75 -113 -224
-213 -386 -260 -68 -19 -102 -23 -239 -22 -186 0 -257 14 -380 74 -103 50
-184 115 -241 193 l-46 61 32 15 c22 11 30 21 28 36 -2 16 -12 21 -46 23 -52
4 -114 -28 -142 -74 -39 -62 -13 -109 36 -63 27 25 24 27 78 -54 91 -136 271
-253 451 -294 121 -27 352 -25 465 5 208 55 371 168 460 317 13 22 25 42 27
44 2 3 14 -6 28 -19 48 -45 74 4 35 67 -35 58 -116 92 -162 69z"/>
</g>
</svg>
