<?xml version="1.0" standalone="no"?>
<!DOCTYPE svg PUBLIC "-//W3C//DTD SVG 20010904//EN"
 "http://www.w3.org/TR/2001/REC-SVG-20010904/DTD/svg10.dtd">
<svg version="1.0" xmlns="http://www.w3.org/2000/svg"
 width="1536.000000pt" height="1024.000000pt" viewBox="0 0 1536.000000 1024.000000"
 preserveAspectRatio="xMidYMid meet">

<g transform="translate(0.000000,1024.000000) scale(0.100000,-0.100000)"
fill="#000000" stroke="none">
<path d="M5310 9925 c-296 -66 -552 -290 -668 -586 -57 -144 -67 -200 -66
-374 1 -187 17 -264 88 -410 87 -178 213 -307 381 -389 50 -24 98 -47 108 -50
14 -4 16 -10 8 -24 -29 -54 -118 -412 -153 -612 -18 -103 -17 -509 1 -615 48
-281 148 -538 297 -761 57 -86 60 -93 31 -72 -63 45 -180 164 -239 243 -73 98
-131 217 -194 395 -62 179 -93 247 -159 345 -62 93 -184 213 -268 264 -121 72
-308 116 -443 105 -209 -18 -394 -104 -531 -246 -114 -120 -187 -262 -219
-431 -24 -122 -14 -385 20 -528 72 -309 199 -576 401 -844 373 -494 888 -856
1515 -1064 134 -45 126 -35 102 -127 -40 -151 -76 -363 -103 -604 -15 -135
-15 -490 0 -650 32 -331 111 -685 272 -1217 27 -89 49 -166 49 -172 0 -5 -24
-24 -52 -42 -196 -124 -340 -357 -355 -574 -20 -286 175 -467 587 -544 298
-56 712 -45 982 25 289 74 485 199 563 358 48 98 62 174 80 446 8 129 17 269
21 310 l6 75 177 -1 c167 0 176 -1 178 -20 1 -10 7 -82 13 -159 27 -334 42
-474 56 -530 69 -276 306 -432 779 -511 90 -16 163 -19 400 -19 261 0 301 3
403 23 135 27 264 71 352 120 209 116 287 341 203 592 -57 172 -152 287 -356
432 l-24 17 68 225 c107 355 180 671 209 906 5 47 13 100 16 119 5 32 6 33 20
13 21 -30 141 -106 205 -130 218 -80 491 -30 685 127 230 185 337 527 290 931
-9 80 -25 186 -36 235 -75 353 -255 761 -472 1067 -221 313 -533 618 -808 788
-47 29 -86 53 -87 54 -1 1 27 33 63 72 390 412 547 1003 438 1649 -22 135 -70
338 -104 445 -16 52 -30 100 -30 106 0 5 22 18 49 28 120 43 265 154 351 267
75 100 121 196 157 324 25 89 27 116 27 250 0 130 -4 163 -27 249 -75 277
-255 504 -499 627 -110 55 -204 80 -333 86 -244 11 -476 -86 -641 -271 -51
-57 -125 -165 -137 -199 -2 -6 -38 9 -83 34 -256 144 -555 243 -884 294 -141
22 -502 31 -655 16 -376 -36 -706 -133 -1013 -298 -60 -32 -107 -52 -109 -46
-9 27 -83 139 -128 195 -89 110 -251 213 -400 253 -84 23 -292 29 -375 10z
m264 -105 c155 -23 280 -85 391 -195 63 -62 155 -195 155 -224 0 -6 -44 -44
-97 -85 -54 -42 -118 -92 -141 -113 -42 -35 -44 -36 -55 -18 -6 11 -35 46 -66
78 -208 219 -550 150 -689 -140 -36 -77 -37 -80 -37 -198 0 -117 1 -122 36
-195 44 -92 117 -174 196 -220 l59 -34 -53 -118 c-29 -64 -53 -122 -53 -127 0
-29 -113 17 -219 88 -127 87 -243 254 -291 421 -31 107 -38 281 -16 391 59
292 254 537 509 639 139 56 238 69 371 50z m4341 -31 c115 -36 199 -86 292
-173 334 -311 377 -831 97 -1170 -81 -99 -235 -205 -322 -222 -25 -5 -29 -2
-41 33 -8 21 -33 79 -56 130 l-43 92 46 22 c60 30 163 132 194 194 121 239 43
516 -183 648 -107 63 -253 67 -368 10 -54 -26 -152 -113 -183 -163 l-15 -25
-84 71 c-46 39 -110 90 -141 113 -32 23 -58 46 -58 52 0 17 78 143 116 188 94
109 274 207 423 231 92 14 225 2 326 -31z m-2115 -89 c818 -72 1455 -453 1852
-1107 193 -319 330 -700 389 -1084 26 -170 32 -504 11 -629 -69 -411 -244
-742 -525 -991 -108 -96 -265 -203 -392 -266 -102 -51 -125 -68 -125 -94 0
-30 35 -31 117 -4 101 34 237 105 331 172 53 38 81 53 96 49 12 -3 52 -24 91
-47 336 -203 654 -525 883 -893 198 -319 341 -684 398 -1021 22 -125 24 -381
5 -484 -42 -228 -151 -405 -307 -496 -74 -44 -128 -69 -122 -57 34 65 52 119
65 189 24 131 -5 261 -56 251 -13 -3 -16 -16 -13 -85 5 -144 -30 -277 -94
-351 l-36 -42 -87 0 c-137 0 -235 36 -323 118 -96 90 -95 86 -101 417 -6 297
-13 381 -63 665 -65 381 -181 730 -310 937 -42 68 -71 92 -94 78 -16 -10 -12
-42 10 -84 33 -65 100 -239 142 -366 157 -482 237 -1058 209 -1507 -26 -419
-91 -742 -267 -1315 -31 -101 -54 -189 -51 -198 4 -8 38 -35 76 -60 152 -97
270 -237 322 -380 30 -84 32 -231 3 -295 -24 -52 -63 -101 -106 -131 l-29 -21
6 68 c11 114 -36 258 -109 337 -27 29 -63 36 -72 14 -2 -7 10 -39 29 -69 48
-80 71 -160 71 -248 1 -121 -7 -145 -56 -165 -53 -21 -235 -65 -269 -65 l-26
0 14 63 c18 73 12 205 -12 284 -16 55 -69 140 -97 157 -13 8 -22 7 -34 -5 -14
-15 -13 -21 15 -70 16 -30 37 -81 46 -114 32 -126 7 -312 -45 -326 -47 -13
-355 -9 -485 6 -320 38 -542 121 -671 251 -69 69 -97 129 -114 242 -14 96 -50
533 -51 627 -1 50 -6 86 -15 95 -11 13 -53 15 -273 14 -193 -1 -265 -5 -276
-14 -9 -8 -15 -30 -15 -59 0 -55 -37 -582 -46 -661 -17 -136 -76 -233 -190
-309 -197 -132 -438 -190 -825 -198 l-235 -5 -17 53 c-40 127 -29 242 35 382
28 60 30 70 16 83 -21 21 -43 9 -77 -44 -77 -121 -97 -274 -56 -433 l6 -26
-63 8 c-101 13 -248 51 -271 70 -20 16 -22 26 -22 141 1 110 3 130 27 185 15
35 36 76 47 92 49 69 4 98 -55 36 -70 -74 -109 -200 -103 -332 l4 -81 -29 15
c-51 27 -113 92 -137 146 -34 75 -33 214 3 313 48 137 159 268 307 365 63 40
81 58 81 75 0 13 -30 121 -66 241 -124 412 -214 795 -251 1073 -26 192 -25
710 0 890 56 386 158 761 294 1070 30 69 64 146 76 171 22 51 18 79 -12 79
-57 0 -207 -284 -297 -563 l-28 -88 -31 7 c-16 4 -73 22 -125 41 -617 223
-1089 561 -1435 1028 -234 316 -369 643 -405 984 -27 253 42 485 190 644 249
267 638 302 925 84 133 -101 221 -245 315 -512 98 -280 227 -476 414 -632 108
-90 266 -188 381 -237 44 -18 112 -54 150 -78 140 -91 343 -176 386 -163 46
15 13 59 -76 99 -78 35 -271 156 -350 219 -210 169 -376 392 -478 642 -90 220
-126 392 -134 640 -9 285 40 584 149 909 167 500 431 894 785 1177 468 373
1130 564 1763 509z m-2199 -436 c59 -27 126 -88 152 -139 15 -29 15 -29 -51
-100 -88 -94 -199 -245 -269 -363 -31 -53 -58 -99 -59 -101 -8 -10 -97 46
-139 87 -104 102 -143 263 -95 395 76 211 273 305 461 221z m4246 -5 c74 -35
123 -89 167 -179 28 -59 31 -74 31 -160 0 -82 -4 -103 -27 -153 -15 -31 -50
-81 -78 -111 -55 -58 -140 -110 -147 -89 -8 22 -113 186 -171 267 -32 44 -92
120 -136 169 l-79 89 15 32 c52 108 185 182 308 171 32 -3 81 -18 117 -36z"/>
<path d="M6430 8503 c-63 -12 -154 -65 -208 -120 -93 -95 -115 -172 -52 -181
16 -3 35 10 72 52 37 42 71 66 135 98 79 39 91 42 172 43 48 1 93 5 99 9 7 4
12 20 12 37 0 46 -47 69 -135 68 -38 -1 -81 -4 -95 -6z"/>
<path d="M8550 8493 c-25 -13 -36 -26 -38 -45 -5 -39 28 -58 87 -51 104 12
240 -47 333 -145 40 -42 56 -52 77 -50 92 11 -39 202 -186 270 -87 41 -216 51
-273 21z"/>
<path d="M6498 7847 c-56 -21 -92 -47 -133 -97 -161 -192 -131 -539 59 -669
200 -138 427 29 443 324 6 104 -7 186 -41 261 -29 63 -96 139 -147 165 -51 25
-135 33 -181 16z m98 -93 c40 -19 71 -65 79 -119 13 -85 -71 -175 -150 -161
-105 20 -149 153 -78 237 26 30 73 58 101 59 8 0 29 -7 48 -16z"/>
<path d="M8545 7851 c-146 -38 -245 -201 -245 -403 0 -282 167 -464 372 -404
210 61 306 394 182 637 -30 61 -95 128 -147 152 -43 21 -119 29 -162 18z m95
-109 c102 -74 63 -248 -60 -268 -73 -12 -145 70 -137 157 9 111 115 170 197
111z"/>
<path d="M7495 7329 c-323 -21 -633 -168 -819 -388 -128 -152 -194 -299 -221
-497 -25 -177 11 -374 98 -537 222 -418 726 -632 1270 -541 380 64 708 308
827 617 58 148 65 189 65 362 0 154 -1 164 -33 262 -82 250 -263 460 -502 582
-127 65 -217 96 -347 120 -129 24 -205 28 -338 20z m312 -95 c241 -42 431
-139 593 -303 360 -366 323 -941 -81 -1264 -132 -106 -332 -196 -504 -227
-303 -54 -648 9 -881 162 -249 164 -390 403 -410 695 -15 230 79 467 255 644
131 132 294 222 497 274 179 46 343 52 531 19z"/>
<path d="M7440 7076 c-179 -39 -281 -112 -319 -229 -51 -154 112 -339 347
-394 l72 -17 -2 -166 -3 -165 -69 -35 c-64 -32 -76 -35 -155 -34 -70 0 -96 5
-142 26 -71 32 -129 84 -160 143 -27 50 -42 60 -70 45 -29 -16 -23 -52 22
-118 38 -58 104 -117 159 -142 18 -8 36 -35 60 -88 39 -87 126 -184 197 -221
169 -86 359 -60 496 67 60 57 98 111 122 175 13 34 27 53 49 64 96 49 206 168
206 223 0 39 -24 56 -55 42 -14 -7 -25 -17 -25 -24 0 -23 -54 -89 -102 -124
-27 -20 -76 -45 -109 -55 -105 -33 -194 -22 -281 33 l-48 30 0 162 0 162 61
13 c230 47 406 239 360 393 -45 148 -201 235 -436 244 -71 2 -133 -1 -175 -10z
m287 -1160 c51 -14 133 -54 133 -66 0 -17 -83 -82 -135 -106 -79 -36 -191 -38
-276 -5 -53 20 -149 92 -149 111 0 11 101 60 143 70 54 13 229 11 284 -4z"/>
<path d="M4000 6962 c-42 -22 -80 -90 -80 -142 1 -49 32 -113 69 -139 68 -49
150 -32 198 40 52 79 13 209 -73 245 -45 19 -72 18 -114 -4z m112 -81 c28 -25
33 -36 32 -72 -1 -33 -8 -48 -28 -66 -30 -26 -44 -28 -79 -12 -51 23 -64 113
-22 154 32 33 57 31 97 -4z"/>
<path d="M4453 6833 c-31 -6 -80 -66 -92 -110 -25 -93 47 -193 140 -193 87 0
152 100 128 196 -20 79 -95 125 -176 107z m77 -73 c59 -32 38 -160 -27 -160
-59 0 -93 53 -73 114 17 51 56 69 100 46z"/>
<path d="M3616 6689 c-111 -87 -45 -289 94 -289 110 0 172 136 109 239 -41 68
-147 94 -203 50z m107 -50 c50 -23 70 -99 37 -142 -54 -68 -142 -6 -131 93 2
16 46 60 61 60 5 0 20 -5 33 -11z"/>
<path d="M4130 6451 c-19 -4 -57 -19 -85 -33 -186 -96 -253 -349 -140 -529 42
-65 121 -127 192 -149 74 -23 110 -25 185 -9 137 29 238 128 274 269 41 160
-52 347 -209 421 -67 31 -156 44 -217 30z m188 -100 c136 -70 199 -212 158
-356 -23 -77 -98 -154 -175 -180 -75 -25 -174 -17 -234 18 -213 125 -182 447
50 533 52 19 148 12 201 -15z"/>
<path d="M7435 5060 c-373 -30 -675 -155 -937 -387 -180 -159 -341 -400 -433
-648 -265 -713 -91 -1426 445 -1827 310 -232 688 -341 1129 -325 680 24 1239
417 1436 1010 47 140 66 256 72 434 19 525 -193 1042 -561 1366 -97 85 -248
185 -358 237 -236 110 -527 161 -793 140z m296 -85 c155 -18 237 -37 359 -82
410 -152 745 -510 890 -953 100 -305 121 -626 58 -895 -64 -274 -169 -466
-363 -661 -188 -188 -413 -315 -683 -383 -278 -71 -639 -67 -921 9 -788 213
-1198 937 -1001 1765 162 679 637 1121 1290 1199 154 19 222 19 371 1z"/>
</g>
</svg>
