<svg version="1.1" xmlns="http://www.w3.org/2000/svg" style="display: block;" viewBox="0 0 2048 1365" width="1536" height="1024" preserveAspectRatio="none">
<path transform="translate(0,0)" fill="rgb(255,255,255)" d="M 0 0 L 43.5505 0 L 167.868 0 L 540.004 0 L 581.278 0 L 1045.94 0 L 1087 0 L 1128.12 0 L 1169.04 0 L 1292.89 0 L 1333.94 0 L 1620.93 0 L 1661.93 0 L 1702.68 0 L 1744.01 0 L 1785.67 0 L 1826.3 0 L 2048 0 L 2048 250.881 L 2048 292.123 L 2048 1365 L 1661.95 1365 L 1620.76 1365 L 1580.01 1365 L 1538.47 1365 L 0 1365 L 0 415.961 L 0 43.0321 L 0 0 z"/>
<path transform="translate(0,0)" fill="rgb(0,0,0)" d="M 767.139 48.5604 C 801.691 0.786901 885.48 2.79351 915.857 53.9534 C 966.563 32.2204 1030.81 64.5176 1030.21 122.332 C 1054.6 130.057 1067.65 143.646 1074.26 168.409 C 1076.19 181.994 1075.62 187.507 1071.5 200.668 C 1102.22 207.388 1138.75 218.252 1168.19 223.754 C 1188.18 228.554 1207.14 232.534 1226.62 239.561 C 1308.76 269.187 1276.2 347.696 1206.51 365.986 C 1163.8 377.198 1128.59 369.493 1090.17 347.925 C 1093.11 359.043 1095.56 370.285 1097.52 381.618 C 1097.99 382.082 1098.46 382.551 1098.92 383.023 C 1139.79 424.627 1137.98 492.508 1107.98 539.39 C 1097.41 555.91 1085.8 567.566 1071.9 581.191 C 1086.56 572.074 1098.64 565.483 1113.8 557.537 C 1121.26 553.626 1130.8 544.151 1140.38 539.486 C 1164.17 527.901 1180.32 527.421 1204.58 534.963 C 1284.13 466.953 1348.71 372.995 1411.87 289.922 C 1415.58 285.047 1420.34 264.217 1421.98 257.353 C 1410.8 247.819 1399.98 238.889 1391.07 227.115 C 1363.68 190.922 1354.39 143.047 1370.52 100.073 C 1380.42 73.6863 1399.01 46.5321 1421.78 29.391 C 1444.59 38.9116 1472.66 67.6301 1487.23 87.6292 C 1489.47 91.9182 1492.01 96.574 1493.99 100.939 C 1515.52 154.687 1491.14 213.944 1454.37 254.656 C 1464.81 246.535 1487.5 228.975 1499.08 222.826 C 1504.5 219.239 1511.36 215.753 1517.16 212.614 C 1520.83 210.714 1524.71 208.786 1528.33 206.818 C 1542.12 166.952 1561.87 136.858 1600.94 116.68 C 1628.61 102.219 1660.48 104.489 1689.21 115.028 C 1710.25 122.748 1738.35 137.173 1753.85 153.718 C 1758.32 158.48 1744.44 179.092 1741.57 183.921 C 1725.03 211.716 1702.64 237.653 1672.22 250.479 C 1632.9 267.91 1576.37 259.683 1540.44 237.032 C 1468.97 287.614 1417 356.148 1377.68 433.807 C 1411.33 432.601 1438.87 424.083 1469.92 411.105 C 1492.74 341.643 1537.88 295.558 1615.56 321.996 C 1626.3 325.648 1636.7 330.781 1646.85 335.765 L 1660.84 344.518 C 1663.83 346.527 1674.11 352.765 1673.81 355.936 C 1672.28 372.145 1655.91 397.042 1646.96 409.926 C 1605.81 469.18 1542.12 467.466 1483.13 439.321 C 1470.82 446.634 1461.39 451.714 1448.51 457.895 C 1461.03 463.84 1472.86 471.152 1483.78 479.696 C 1547.84 468.64 1607.67 488.843 1617.05 561.983 C 1619.69 582.535 1622.24 607.293 1616.31 627.161 C 1615.57 629.567 1609.71 630.872 1607.38 631.005 C 1537.9 634.995 1475.66 621.004 1465.45 541.46 C 1464.51 527.556 1464.85 518.797 1466.29 504.96 C 1463.75 503.418 1460.45 501.814 1457.76 500.41 C 1411.74 477.613 1355.3 487.135 1321.98 526.945 C 1315.05 535.227 1306.23 544.108 1298.84 552.17 C 1283.19 569.329 1267.18 586.149 1250.8 602.618 C 1252.06 622.6 1250.86 642.609 1240.67 660.351 C 1220.32 695.772 1175.15 714.825 1138.04 694.134 C 1125.63 705.064 1113.33 714.915 1101 726.228 C 1115.03 739.336 1124.36 756.684 1127.56 775.609 C 1131.51 798.004 1127.11 819.735 1114.03 838.372 C 1141.74 878.732 1134.12 930.227 1093.21 958.306 C 1093.49 960.353 1093.65 962.245 1093.79 964.306 C 1095.34 984.4 1088.69 1004.27 1075.37 1019.39 C 1061.82 1034.61 1047.64 1040.57 1027.76 1041.64 C 1024.53 1059.93 1016.48 1070.42 1003.61 1082.93 C 1003.99 1117.87 1006.34 1152.7 1015.21 1186.63 C 1017.45 1196.22 1021.78 1203.54 1028.06 1211.33 C 1041.5 1228.01 1056.8 1261.32 1041.59 1281.01 C 1031.15 1294.54 1002.38 1304.27 985.039 1306.09 C 953.594 1309.39 914.252 1306.29 888.111 1286.64 C 866.015 1269.96 867.498 1233.67 863.974 1208.96 C 860.014 1179.76 855.14 1150.34 851.737 1121.04 C 832.42 1124.89 812.213 1123.86 794.487 1114.4 C 788.805 1111.37 784.491 1106.99 778.564 1103.98 C 777.578 1104.26 776.404 1104.32 775.722 1105.12 C 767.674 1114.49 766.03 1171.99 766.322 1186.28 C 766.548 1197.42 767.706 1208.58 768.676 1219.67 C 798.365 1259.42 805.813 1306.84 747.691 1319.83 C 706.317 1329.08 651.492 1322.77 622.942 1289.18 C 595.512 1296.55 562.077 1293.82 536.256 1281.59 C 527.596 1277.49 519.033 1271.46 515.867 1261.99 C 509.51 1242.95 548.313 1116.35 557.101 1091 C 561.953 1077 567.38 1063.33 573.9 1050.03 C 572.046 1045.03 571.092 1040.13 569.946 1034.94 C 555.239 1031.75 548.03 1027.92 536.548 1018.42 C 513.921 1040.32 478.083 1037.65 463.656 1007.66 C 427.879 1011.01 401.98 987.124 414.263 951.106 C 405.325 944.843 398.709 935.802 395.443 925.39 C 391.283 912.315 392.54 898.118 398.932 885.978 C 406.155 872.427 415.534 866.99 429.607 862.808 C 430.093 819.479 479.721 803.73 510.116 834.55 C 515.434 822.581 520.592 814.271 530.64 805.787 C 507.961 765.263 522.052 712.863 559.946 686.88 C 546.376 654.723 556.266 619.586 583.979 598.594 C 578.885 590.912 577.21 588.028 575.749 579.006 C 549.384 571.31 537.269 556.217 541.031 528.002 C 536.128 524.136 534.225 522.199 529.962 517.575 C 495.423 541.81 464.229 553.317 420.745 547.829 C 401.682 545.053 376.528 535.471 365.564 518.63 C 329.352 463.006 404.303 411.153 440.309 384.071 C 458.666 370.015 477.337 356.374 496.306 343.156 C 495.998 342.098 495.722 341.031 495.477 339.957 C 492.122 325.572 495.616 314.761 503.152 302.675 C 488.692 273.459 488.628 253.912 501.38 224.071 C 504.61 218.057 506.545 215.386 510.678 209.877 C 520.834 197.789 528.882 193.37 543.337 188.643 C 538.279 159.33 552.19 130.57 575.914 113.469 C 596.199 98.8478 616.489 95.9066 640.45 99.9041 C 644.323 81.6459 651.489 71.142 664.595 58.5119 C 670.928 52.7535 677.819 48.9243 685.207 44.8031 C 710.113 35.7506 732.632 31.7855 758.107 43.7613 C 761.197 45.2066 764.212 46.8084 767.139 48.5604 z"/>
<path transform="translate(0,0)" fill="rgb(253,253,253)" d="M 951.341 213.422 L 952.189 214.092 C 973.556 230.933 993.821 237.099 1020.88 233.896 C 1060.1 285.96 1074.93 324.528 1088.33 387.343 C 1145.59 447.272 1117.94 533.246 1057.51 578.554 C 1046.01 587.183 1035.56 594.129 1022.76 600.916 C 929.198 650.548 821.443 658.789 719.5 634.854 C 646.578 614.917 586.484 575.43 575.354 495.315 C 571.559 467.995 572.651 469.123 583.15 444.731 C 592.927 422.014 593.89 390.083 589.225 365.985 C 619.097 357.563 630.434 333.812 630.386 304.789 C 644.599 308.237 659.514 307.412 673.26 302.417 C 692.449 295.522 706.761 281.884 715.336 263.541 C 758.691 294.473 821.627 286.116 842.731 233.805 C 845.08 235.425 847.475 237.045 849.947 238.473 C 868.033 248.952 889.556 251.77 909.731 246.3 C 928.928 241.064 941.625 230.466 951.341 213.422 z"/>
<path transform="translate(0,0)" fill="rgb(0,0,0)" d="M 900.807 449.324 C 959.603 443.041 955.831 485.696 911.198 507.277 C 912.43 513.931 913.472 519.855 913.937 526.671 C 914.232 530.998 912.378 537.259 913.734 540.359 C 928.775 556.345 962.094 532.127 964.795 514.843 C 965.12 512.765 961.954 509.1 962.793 504.775 L 964.938 503.635 C 970.317 504.12 981.504 512.063 981.229 517.731 C 978.667 519.031 977.953 518.625 974.9 518.141 L 973.924 517.977 C 970.876 520.64 968.808 528.024 966.392 531.639 C 957.684 544.672 948.42 550.022 934.172 554.262 C 926.345 586.585 912.898 618.233 873.162 611.733 C 869.087 610.805 865.137 609.396 861.395 607.535 C 840.7 597.231 829.327 572.812 822.248 551.945 L 813.994 544.582 C 813.304 545.115 812.597 545.626 811.875 546.113 C 809.461 547.72 806.702 549.563 803.914 549.045 L 803.311 547.589 C 804.615 540.748 813.697 528.291 820.783 526.709 C 823.537 527.699 822.531 526.812 823.819 529.545 C 823.076 533.012 821.499 534.789 819.494 537.721 C 844.964 559.5 880.98 566.777 905.98 540.326 C 908.93 528.282 908.336 520.294 907.37 508.228 C 843.136 509.01 830.621 461.207 900.807 449.324 z"/>
<path transform="translate(0,0)" fill="rgb(253,253,253)" d="M 849.785 566.189 C 870.999 566.783 875.007 571.969 890.23 586.845 C 888.19 581.389 881.646 572.876 881.944 570.247 C 891.961 567.495 916.672 579.218 911.686 589.708 C 903.774 597.86 901.453 598.539 890.874 602.357 C 873.504 608.627 840.611 587.092 839.948 569.511 C 842.831 567.239 846.097 566.965 849.785 566.189 z"/>
<path transform="translate(0,0)" fill="rgb(253,253,253)" d="M 902.779 459.331 C 910.59 458.406 924.605 457.452 930.475 463.128 C 934.584 474.141 915.925 485.264 908.777 491.697 C 905.951 494.24 902.981 493.117 899.746 492.44 C 889.29 489.028 877.608 486.677 867.511 482.665 C 865.27 481.774 864.987 479.865 864.47 477.999 C 867.591 467.521 893.113 460.791 902.779 459.331 z"/>
<path transform="translate(0,0)" fill="rgb(0,0,0)" d="M 968.731 321.215 C 1031.15 316.093 1056 419.94 992.569 440.025 C 941.613 451.337 920.707 377.814 940.53 342.17 C 947.338 329.928 955.821 324.894 968.731 321.215 z"/>
<path transform="translate(0,0)" fill="rgb(253,253,253)" d="M 969.651 331.194 C 976.421 330.792 981.213 330.724 987.705 333.051 C 1023.55 345.896 1039.09 407.908 1004.51 430.594 C 1000.75 433.064 996.444 434.949 992.314 436.764 C 1002.78 426.289 1004.14 422.296 1007.67 408.157 C 1012.67 356.244 957.525 324.831 937.22 378.468 C 939.881 355.001 945.052 338.222 969.651 331.194 z"/>
<path transform="translate(0,0)" fill="rgb(253,253,253)" d="M 964.447 362.875 C 971.241 360.755 978.475 364.508 980.655 371.284 C 982.834 378.06 979.145 385.326 972.388 387.565 C 965.547 389.832 958.171 386.087 955.964 379.226 C 953.757 372.366 957.567 365.022 964.447 362.875 z"/>
<path transform="translate(0,0)" fill="rgb(0,0,0)" d="M 735.271 373.271 C 744.674 372.537 754.081 374.657 762.261 379.352 C 778.937 388.964 786.27 405.612 790.914 423.336 C 782.47 406.452 772.158 389.204 752.509 384.068 C 741.945 381.335 730.724 383.015 721.423 388.722 C 687.864 408.895 689.483 468.429 722.977 487.895 C 729.537 491.707 734.823 492.838 742.095 494.65 C 718.155 479.325 708.483 463.17 711.765 434.296 C 721.753 386.878 776.81 394.083 784.842 438.481 C 789.523 464.355 780.861 490.72 752.783 496.091 C 739.318 498.73 725.357 495.898 713.984 488.221 C 674.739 461.494 680.116 382.876 735.271 373.271 z"/>
<path transform="translate(0,0)" fill="rgb(253,253,253)" d="M 742.503 413.799 C 749.491 412.155 756.488 416.493 758.125 423.483 C 759.761 430.473 755.417 437.466 748.425 439.095 C 741.443 440.723 734.462 436.386 732.828 429.405 C 731.194 422.425 735.524 415.44 742.503 413.799 z"/>
<path transform="translate(0,0)" fill="rgb(0,0,0)" d="M 709.707 314.111 C 716.131 313.435 727.557 314.129 730.687 320.779 C 727.508 329.488 711.795 328.65 704.704 333.141 C 696.315 338.454 691.086 345.377 685.555 353.371 C 683.335 358.165 682.211 362.851 676.315 362.176 C 670.364 356.335 674.591 344.602 678.022 338.308 C 685.258 325.029 695.459 318.317 709.707 314.111 z"/>
<path transform="translate(0,0)" fill="rgb(0,0,0)" d="M 954.672 258.151 C 970.189 256.831 983.658 260.836 994.934 272.144 C 998.213 275.433 1001.01 279.865 1000.95 284.638 C 999.401 287.832 1000.45 286.877 997.238 288.005 C 993.305 287.648 990.022 284.713 986.75 282.35 C 979.418 277.969 972.375 275.082 963.806 274.112 C 955.807 273.206 941.904 281.188 936.593 274.343 C 935.283 264.196 947.15 260.575 954.672 258.151 z"/>
<path transform="translate(0,0)" fill="rgb(253,253,253)" d="M 837.96 25.4131 C 871.326 26.204 897.162 37.6386 911.008 69.2193 C 951.351 44.0228 1006.94 62.3878 1018.68 110.97 C 1020.3 117.651 1019.17 125.169 1018.17 131.946 C 1039.52 133.924 1055.56 144.911 1062.27 165.99 C 1070.84 192.874 1055.77 213.479 1029.77 220.835 C 1006.31 227.473 981.24 223.136 961.816 208.099 C 957.095 204.482 953.353 197.774 948.683 195.22 C 947.406 196.727 944.725 202.539 943.824 204.576 C 928.171 239.981 883.85 247.007 852.729 228.031 C 848.057 225.182 842.381 218.272 837.895 217.208 C 833.128 222.027 832.28 237.801 822.219 248.122 C 798.775 272.172 764.802 276.952 734.582 263.026 C 725.058 258.638 718.082 251.653 710.526 244.645 C 709.061 248.679 707.744 253.944 706.207 257.566 C 695.112 283.724 669.734 298.173 641.613 295.961 C 634.246 295.381 622.483 290.135 617.898 292.116 C 616.544 295.983 622.884 309.254 618.857 321.668 C 614.663 336.255 606.338 349.814 590.701 353.655 C 586.63 355.254 577.856 356.245 575.716 360.424 C 561.457 388.265 533.356 412.421 505.991 426.493 C 467.727 446.169 411.837 444.06 397.573 493.286 C 396.654 496.457 397.114 497.959 398.768 500.534 C 403.194 497.559 409.108 482.06 415.619 476.08 C 431.543 461.455 445.373 456.799 465.416 450.994 C 514.09 439.16 552.635 415.152 580.477 372.59 C 583.689 403.666 580.808 426.43 566.536 455.758 C 536.26 517.975 460.082 558.645 393.621 528.051 C 383.583 523.431 371.088 511.821 368.509 500.465 C 357.576 452.311 416.549 417.235 448.047 391.558 C 465.739 377.691 484.46 364.935 502.371 351.484 C 508.619 346.791 523.411 340.317 526.5 334.653 L 525.785 333.4 C 517.625 331.309 512.765 336.02 506.443 337.333 C 501.571 324.336 507.719 312.336 517.032 303.307 C 487.739 264.482 505.597 204.315 556.652 196.808 C 552.105 181.621 551.561 169.046 557.43 153.985 C 564.406 136.395 578.075 122.291 595.437 114.765 C 615.712 105.933 630.548 107.652 650.137 115.178 C 651.379 62.4028 706.613 34.4984 753.532 53.7538 C 760.094 56.4465 764.718 60.0198 770.327 64.2152 C 785.57 37.2461 807.515 27.0404 837.96 25.4131 z"/>
<path transform="translate(0,0)" fill="rgb(253,253,253)" d="M 563.483 481.698 C 564.327 485.398 565.295 496.723 566.046 501.524 C 568.745 519.377 574.441 536.646 582.894 552.601 C 606.874 598.495 651.368 625.251 699.547 640.189 C 732.166 650.026 765.856 655.879 799.882 657.622 C 888.345 662.77 959.433 646.155 1037.34 605.246 C 1039.41 606.302 1041.45 607.419 1043.45 608.596 C 1056.98 616.678 1062.2 628.285 1065.91 642.789 C 1019.48 678.89 975.027 717.45 932.728 758.304 C 925.087 754.33 912.779 748.285 904.452 746.322 C 863.426 736.648 826.345 712.532 785.007 703.976 C 775.622 688.147 751.282 670.302 732.435 676.566 L 731.934 677.906 C 739.681 688.36 765.038 682.84 775.376 710.085 L 775.733 711.052 C 806.938 719.651 836.653 732.537 866.515 745.026 C 832.322 765.738 811.643 813.966 814.714 853.574 C 814.972 856.908 817.033 862.885 816.017 865.669 L 811.925 866.082 C 766.425 859.718 729.988 845.763 692.615 818.172 C 686.725 813.824 668.376 797.65 663.328 795.846 C 660.468 796.588 661.616 795.824 659.853 798.332 C 659.613 805.16 673.172 815.819 678.565 820.373 C 713.715 849.475 756.074 868.542 801.165 875.561 C 770.834 902.116 739.062 926.978 705.994 950.035 C 690.152 960.986 673.86 971.272 657.161 980.866 C 625.412 998.976 603.986 1004.02 581.723 1034.55 L 580.645 1034.45 C 580.55 1033.59 579.698 1027.14 579.243 1026.85 C 574.768 1024.01 568.344 1024.61 563.374 1022.65 C 542.794 1014.51 529.568 996.961 524.764 975.703 C 519.958 954.431 523.09 938.611 534.369 920.327 C 503.96 886.765 508.507 835.31 544.499 807.646 C 517.379 769.9 531.065 710.624 574.16 691.623 C 573.194 689.974 572.279 688.295 571.417 686.59 C 558.96 661.822 563.801 632.273 583.625 612.644 C 590.03 606.302 595.628 603.728 603.549 599.835 C 578.776 586.072 588.955 572.737 584.2 570.771 C 564.858 562.778 543.217 562.572 552.309 521.239 C 544.739 517.832 543.212 516.726 538.307 510.054 C 548.885 499.78 554.308 493.377 563.483 481.698 z"/>
<path transform="translate(0,0)" fill="rgb(253,253,253)" d="M 1091.83 733.712 C 1092.77 733.877 1093.56 734.11 1094.31 734.781 C 1113.53 752.035 1121.54 779.195 1116.95 804.393 C 1114.36 818.579 1108.75 828.256 1100.38 839.483 C 1132.63 872.584 1123.73 932.352 1080.6 952.243 C 1082.94 960.375 1083.94 964.737 1083.5 973.28 C 1082.62 990.119 1075.11 1005.92 1062.62 1017.25 C 1048.76 1029.57 1036.47 1031.63 1019.11 1030.63 C 1017.21 1045.37 1013.74 1055.96 1003.78 1067.51 C 977.197 1098.32 924.972 1110.87 892.112 1082.9 C 873.174 1104.54 856.212 1114.1 825.997 1112.22 C 806.655 1111.02 792.529 1103.84 779.888 1089.23 C 754.769 1106.89 730.231 1105.69 705.073 1089.16 C 747.745 1053.59 792.041 1020.1 834.054 983.693 C 854.465 966.163 874.482 948.178 894.09 929.753 C 905.811 918.721 918.863 905.701 930.532 895.062 C 937.174 889.006 950.952 886.157 961.388 876.105 C 975.673 862.344 973.479 850.131 983.251 839.042 C 992.756 828.254 1006.13 815.244 1016.49 804.877 C 1040.77 780.291 1065.9 756.555 1091.83 733.712 z"/>
<path transform="translate(0,0)" fill="rgb(253,253,253)" d="M 815.566 876.898 C 833.425 876.477 843.171 884.91 860.908 889.955 C 881.843 895.911 892.437 896.755 913.899 896.4 C 880.831 928.344 846.683 959.149 811.514 988.763 C 790.72 1006.09 769.702 1023.14 748.463 1039.92 C 725.39 1058.43 672.479 1099.23 659.471 1123.36 C 641.135 1157.38 624.02 1239.55 619.545 1278.4 C 600.345 1287.34 523.197 1282.22 525.648 1250.46 C 526.348 1241.39 530.411 1225.68 532.666 1216.3 C 537.886 1193.8 543.646 1171.43 549.942 1149.2 C 559.833 1114.41 574.083 1064.01 594.636 1034.71 C 608.015 1015.63 645.229 999.999 667.163 987.353 C 682.17 978.705 696.801 969.421 711.017 959.525 C 743.546 937.222 786.775 903.572 815.566 876.898 z"/>
<path transform="translate(0,0)" fill="rgb(253,253,253)" d="M 1568.57 203.026 L 1570.13 203.172 C 1569.97 204.083 1528.35 233.143 1523.35 236.754 C 1469.1 275.876 1426.29 330.661 1391.56 387.443 C 1386.51 395.705 1366.11 428.781 1366.21 438.261 C 1366.22 439.683 1368.96 442.505 1370.41 442.777 C 1406.73 449.567 1472.87 420.733 1504.78 409.662 C 1486.61 424.53 1470.64 437.332 1449.13 446.799 C 1444.12 449.006 1431.6 453.691 1430.28 458.163 C 1433.81 464.372 1449.37 468.374 1456.38 472.716 C 1473.83 483.512 1492.32 498.497 1505.36 514.152 C 1451.88 485.004 1417.29 463.827 1355.73 488.546 C 1327.8 501.944 1320.26 513.592 1299.81 535.804 C 1282.98 554.364 1265.71 572.525 1248.03 590.273 C 1242.25 567.019 1232.82 554.219 1214.21 540.24 C 1282.38 481.215 1338.01 406.061 1391.4 334.004 C 1396.42 327.232 1418.71 299.719 1420.75 295.434 C 1428.27 279.624 1434.56 248.033 1439.24 229.794 C 1440.94 243.415 1441 262.443 1443.15 274.357 C 1445.4 274.698 1447.13 273.739 1448.95 272.294 C 1465.69 258.963 1481.23 245.975 1499.38 234.433 C 1520.82 220.694 1544.12 210.116 1568.57 203.026 z"/>
<path transform="translate(0,0)" fill="rgb(253,253,253)" d="M 1064.88 210.802 C 1090.46 214.102 1119.08 223.839 1144.56 229.612 C 1171.86 235.796 1200.21 241.261 1226.41 251.202 C 1244.96 258.242 1265.8 274.069 1264.4 296.405 C 1261.28 332.848 1220 354.568 1187.65 358.885 C 1150.78 363.803 1114.04 353.048 1084.76 331.119 C 1081.56 321.837 1077.56 312.018 1073.99 302.804 C 1068.96 291.476 1063.85 281.443 1058.2 270.46 C 1082.58 281.373 1115.75 286.727 1142.28 286.518 C 1160.8 286.372 1176.58 285.171 1195.07 288.303 C 1203.15 289.723 1210.97 292.321 1218.29 296.012 C 1223.84 298.834 1232.11 306.337 1235.04 306.595 L 1236.06 304.975 C 1235.31 300.194 1230.1 295.13 1226.37 292.31 C 1193.37 267.378 1150.19 280.878 1111.86 274.663 C 1086.33 270.523 1071.79 265.897 1048.46 254.83 C 1043.5 246.819 1037.88 239.339 1032.32 231.73 C 1047.74 225.754 1053.16 222.409 1064.88 210.802 z"/>
<path transform="translate(0,0)" fill="rgb(253,253,253)" d="M 1638.61 117.399 C 1673.99 114.824 1717.23 136.878 1744.19 158.387 C 1724.18 193.726 1701.4 230.571 1660.34 243.476 C 1618.99 256.475 1582.6 245.971 1545.61 227.779 C 1551.96 221.929 1561.62 215.126 1568.81 210.377 C 1605.26 186.882 1641.71 182.535 1680.2 170.496 C 1654.42 172.747 1630.82 176.45 1606.05 184.277 C 1583.9 191.276 1562.92 200.208 1540.17 205.145 C 1545.77 187.729 1554.68 171.559 1566.41 157.527 C 1585.11 135.282 1609.22 119.989 1638.61 117.399 z"/>
<path transform="translate(0,0)" fill="rgb(253,253,253)" d="M 1422.8 41.7348 C 1456.56 64.3954 1491.46 95.254 1492.02 139.439 C 1492.5 177.713 1472.73 220.21 1446.38 247.402 C 1443.31 229.283 1443.08 205.504 1441.96 186.809 C 1440.72 163.398 1437.64 140.121 1432.75 117.192 C 1432.65 116.718 1431.89 115.186 1431.65 114.674 C 1430.73 116.879 1432.34 134.111 1432.55 137.52 C 1434.88 175.697 1438.27 210.828 1429.08 248.463 C 1389.66 223.199 1365.55 169.099 1375.05 122.999 C 1381.85 89.9869 1398.96 64.7821 1422.8 41.7348 z"/>
<path transform="translate(0,0)" fill="rgb(253,253,253)" d="M 471.395 829.245 C 487.215 828.434 497.197 834.303 506.559 846.625 C 506.098 849.223 505.67 851.826 505.277 854.434 C 501.46 880.004 506.282 901.081 521.541 921.703 C 505.309 952.104 510.247 983.093 529.557 1010.5 C 512.582 1025.5 491.738 1026.63 475.883 1009.51 C 472.335 1003.75 471.822 1000.37 470.744 993.852 C 450.349 1001.17 429.332 997.473 421.991 973.284 C 419.186 964.041 423.496 954.835 428.565 947.041 C 424.008 944.474 420.453 942.502 416.469 938.992 C 395.115 920.183 400.848 880.251 430.405 873.728 C 433.608 873.022 438.12 873.006 441.482 872.886 C 441.097 870.963 440.747 869.033 440.433 867.097 C 437.044 845.803 451.307 832.208 471.395 829.245 z"/>
<path transform="translate(0,0)" fill="rgb(253,253,253)" d="M 1114.31 618.847 C 1124.95 623.238 1131.24 635.478 1140.89 642.686 C 1140.46 654.746 1141.56 665.656 1140.8 678.696 C 1085.17 721.819 1030.37 776.719 980.435 826.146 C 979.928 822.483 979.374 818.826 978.774 815.176 C 973.138 792.177 960.083 777.67 941.458 764.174 C 997.082 712.1 1052.47 663.72 1114.31 618.847 z"/>
<path transform="translate(0,0)" fill="rgb(253,253,253)" d="M 991.988 1092 C 994.102 1094.11 993.88 1110.12 994.052 1114.08 C 995.415 1145.34 1000.28 1171.6 1008.46 1201.67 C 976.449 1226.58 912.665 1229.79 875.227 1216.42 C 870.921 1183.74 866.366 1151.1 861.561 1118.49 C 876.349 1112.19 882.521 1109.14 893.938 1097.45 C 926.274 1117.27 960.937 1109.8 991.988 1092 z"/>
<path transform="translate(0,0)" fill="rgb(253,253,253)" d="M 1565.88 325.354 C 1598.11 322.084 1637.57 340.913 1663.22 359.199 C 1661.98 362.029 1660.69 364.834 1659.34 367.611 C 1621.05 446.572 1566.63 468.16 1487.06 429.446 C 1495.49 422.467 1500.51 418.536 1509.67 412.456 C 1527.21 401.151 1551.89 392.095 1571.53 385.202 C 1582.22 381.451 1593.29 378.831 1603.72 374.176 C 1552.96 379.855 1526.11 397.44 1480.97 411.502 C 1493.74 370.147 1519.12 331.206 1565.88 325.354 z"/>
<path transform="translate(0,0)" fill="rgb(253,253,253)" d="M 1503.59 487.394 C 1508.05 486.663 1516.66 486.724 1521.19 487.017 C 1602.98 492.304 1612.4 553.743 1607.91 620.79 C 1559.17 622.198 1506.88 620.213 1482.92 569.834 C 1474.09 547.645 1474.35 526.599 1476.72 503.433 C 1522.11 524.748 1537.35 546.476 1571.71 578.959 C 1548.71 543.151 1517.69 519.645 1488 489.459 C 1493.07 488.637 1498.46 488.042 1503.59 487.394 z"/>
<path transform="translate(0,0)" fill="rgb(253,253,253)" d="M 696.738 1096.64 C 698.103 1097.09 698.095 1097.12 699.251 1097.89 C 721.085 1112.51 737.161 1115.07 762.544 1109.76 C 756.771 1145 752.838 1183.92 758.234 1219.52 C 742.785 1229.75 728.049 1232.36 710.249 1234.86 C 682.771 1236.43 665.244 1235.53 638.834 1227.66 C 645.367 1198 653.957 1154.95 668.633 1128.67 C 674.322 1118.48 688.368 1104.74 696.738 1096.64 z"/>
<path transform="translate(0,0)" fill="rgb(253,253,253)" d="M 877.568 750.094 C 907.285 757.054 928.759 764.05 951.009 786.368 C 924.039 807.05 901.974 842.138 888.827 873.171 L 885.1 884.648 C 863.61 880.792 846.573 874.61 827.083 865.079 C 819.402 834.395 831.546 797.134 850.456 772.462 C 858.305 762.222 866.586 756.234 877.568 750.094 z"/>
<path transform="translate(0,0)" fill="rgb(253,253,253)" d="M 1013.62 1210.12 C 1025.81 1222.8 1041.3 1249.13 1036.13 1267.63 C 1033.37 1277.51 1023.7 1282.5 1015.03 1286.61 C 1013.69 1277.06 1007.87 1245.85 996.815 1243.71 C 994.733 1247.92 998.215 1257.38 999.651 1262.03 C 1002.8 1272.24 1004.74 1279.92 1004.79 1290.82 C 984.185 1297.14 967.744 1297.21 946.469 1295.82 C 894.312 1288.33 881.945 1278.15 876.191 1226.14 C 883.507 1228.49 890.987 1230.28 898.569 1231.52 C 935.791 1237.65 982.387 1232.61 1013.62 1210.12 z"/>
<path transform="translate(0,0)" fill="rgb(253,253,253)" d="M 761.012 1228.9 L 762.141 1229.24 C 773.008 1240.96 783.904 1272.26 779.276 1288.23 C 776.806 1296.75 762.694 1302.92 755.108 1306.21 C 755.133 1305.12 755.134 1304.03 755.113 1302.94 C 754.862 1290.56 751.355 1270.2 742.191 1261.32 L 740.686 1261.36 C 737.856 1268.45 744.074 1284.88 744.726 1293.4 C 745.174 1299.25 745.358 1303.45 745.39 1309.4 C 730.038 1314.03 711.561 1313.42 695.775 1311.89 C 692.528 1311.45 689.293 1310.91 686.073 1310.3 C 664.434 1305.98 642.257 1298.5 629.482 1279.41 C 631.404 1265.26 634.383 1250.83 637.206 1236.81 C 642.977 1238.59 648.826 1240.11 654.735 1241.36 C 687.719 1248.48 731.911 1247.66 761.012 1228.9 z"/>
<path transform="translate(0,0)" fill="rgb(253,253,253)" d="M 1169.67 541.29 C 1202.62 538.55 1223.38 554.569 1235.71 584.54 C 1203.6 590.642 1183.42 601.698 1157.68 621.744 C 1152.77 625.649 1149.52 629.26 1145.25 633.785 C 1130.57 620.435 1132.82 618.75 1112.69 607.016 L 1103.57 613.359 C 1107.76 573.821 1129.82 547.608 1169.67 541.29 z"/>
<path transform="translate(0,0)" fill="rgb(253,253,253)" d="M 1232.38 594.184 C 1236.5 593.992 1235.26 593.456 1238.16 595.464 C 1241.79 601.866 1240.94 623.572 1239.84 630.727 C 1233.72 670.328 1196.67 697.601 1156.64 690.941 C 1152.34 689.6 1148.46 689.483 1147.68 684.789 C 1154.6 674.078 1150.92 652.605 1150.98 639.613 C 1171.73 618.468 1203.52 601.027 1232.38 594.184 z"/>
<path transform="translate(0,0)" fill="rgb(253,253,253)" d="M 956.629 793.705 C 963.629 800.095 968.101 814.563 969.298 823.791 C 971.236 837.852 967.354 852.096 958.548 863.229 C 946.076 879.156 928.733 883.612 909.788 885.886 L 894.132 885.719 C 901.174 855.352 933.248 814.086 956.629 793.705 z"/>
<path transform="translate(0,0)" fill="rgb(253,253,253)" d="M 1103.89 574.155 C 1104.98 575.42 1102.49 579.536 1101.65 581.327 C 1095.54 594.333 1092.31 605.523 1095.47 619.742 L 1074.67 635.475 L 1071.37 625.046 C 1067.05 616.837 1064.22 613.284 1057.44 606.994 C 1074.05 592.176 1084.1 584.08 1103.89 574.155 z"/>
<path transform="translate(0,0)" fill="rgb(28,28,29)" d="M 1066.4 584.811 L 1067.77 586.119 C 1066.03 588.635 1063.35 589.741 1060.61 591.292 L 1059.35 590.307 C 1060.39 587.638 1063.4 586.633 1066.4 584.811 z"/>
<path transform="translate(0,0)" fill="rgb(253,253,253)" d="M 0 0 L 43.5505 0 L 167.868 0 C 167.527 14.436 167.851 28.5847 168.121 43.0096 L 43.8723 43.0211 C 43.7672 56.5962 43.4695 70.6509 43.8273 84.1845 C 50.0312 84.1485 79.9187 83.2293 83.4787 85.5978 C 84.1549 90.8442 84.5427 95.4446 84.9071 100.726 L 85.0604 93.2572 C 85.6235 104.293 85.5848 114.427 85.51 125.49 C 92.9841 125.46 116.962 124.591 122.168 126.143 L 121.763 126.016 C 125.669 128.585 126.616 130.254 126.767 135.201 C 127.093 145.902 126.601 156.767 126.791 167.465 C 131.567 167.593 165.929 166.888 168.174 167.539 C 168.353 170.6 167.317 177.807 167.438 181.722 C 167.591 186.694 168.682 204.707 166.833 207.78 L 163.112 208.53 C 164.973 209.015 165.738 209.089 167.61 209.314 C 168.456 214.33 168.003 244.603 168 251 C 156.697 251.149 145.391 251.078 134.091 250.786 L 133.917 251.3 C 145.588 254.345 162.611 248.605 168.034 253.54 C 169.693 258.412 167.39 283.581 168.83 290.447 C 169.436 290.794 170.042 291.142 170.648 291.49 L 173.994 291.541 C 171.875 292.184 170.886 292.105 168.721 292.166 C 167.376 295.001 167.967 326.822 168 333 C 154.16 333.193 140.483 332.859 127 333 L 127 375 C 118.431 374.979 92.1193 373.265 87.1401 376.948 C 85.1494 380.283 84.8428 410.458 85 416 C 66.5678 416.031 48.8086 415.716 30.4091 415.035 C 20.6168 414.673 9.75334 416.336 0 415.961 L 0 43.0321 L 0 0 z"/>
<path transform="translate(0,0)" fill="rgb(253,253,253)" d="M 1045.94 0 L 1087 0 L 1128.12 0 L 1169.04 0 L 1169.16 43.1096 C 1156.93 43.0822 1139.98 43.5093 1128.06 42.9601 C 1128.06 56.5872 1127.87 70.6069 1128.16 84.2003 L 1168.68 83.9964 C 1167.9 97.4955 1168.83 111.365 1167.86 124.433 C 1165.58 125.811 1165.38 125.278 1162.19 125.235 L 1162.95 126.045 C 1165.7 126.062 1167.31 125.508 1168.85 127.034 C 1168.96 132.68 1169.54 163.363 1168.53 167.591 C 1165.44 168.129 1164.64 168.127 1161.48 168.08 L 1161.48 169.003 L 1167.47 169.057 C 1170.33 172.248 1170.56 217.208 1168.19 223.754 C 1138.75 218.252 1102.22 207.388 1071.5 200.668 C 1075.62 187.507 1076.19 181.994 1074.26 168.409 L 1086.86 166.642 C 1087.27 153.699 1086.96 139.316 1086.95 126.265 C 1079.56 126.385 1074.44 126.362 1066.99 125.809 C 1072.76 124.691 1080.02 124.989 1086 125 C 1086.03 118.959 1086.6 87.9248 1085.29 85.1822 L 1080.43 84.9848 L 1079.9 84.253 C 1083.19 84.0877 1083.99 84.5873 1086.42 82.9106 C 1087.62 74.5674 1087.02 52.5503 1087.1 43.062 L 1045.76 43.1754 C 1046.29 30.0314 1045.91 13.3754 1045.94 0 z"/>
<path transform="translate(0,0)" fill="rgb(253,253,253)" d="M 1785.67 0 L 1826.3 0 L 1826.25 42.8068 C 1838.31 42.8017 1852.36 42.4632 1864.21 43.4732 C 1853.28 44.3819 1838.25 43.9845 1827 44 C 1827.07 48.0446 1826.93 51.0742 1826.67 55.1062 C 1825.79 53.1642 1825.98 45.6744 1825.95 43.0494 L 1785.02 43.0822 C 1784.93 30.3086 1784.6 12.4165 1785.67 0 z"/>
<path transform="translate(0,0)" fill="rgb(253,253,253)" d="M 540.004 0 L 581.278 0 C 580.77 12.8304 581.245 29.7595 581.279 42.8594 C 590.299 42.7763 598.447 42.6717 607.451 43.2322 C 599.164 44.3065 590.388 44.0235 582 44 C 582.085 48.1745 582.067 50.1225 581.592 54.3381 C 580.554 51.9443 580.865 46.0441 580.854 43.1339 L 539.974 43.0446 L 540.004 0 z"/>
<path transform="translate(0,0)" fill="rgb(253,253,253)" d="M 1620.93 0 L 1661.93 0 L 1662.03 43.0258 C 1643.31 42.8165 1596.17 45.5032 1582.1 43.4883 C 1587.58 42.312 1613.63 42.7747 1620.72 42.779 L 1620.93 0 z"/>
<path transform="translate(0,0)" fill="rgb(253,253,253)" d="M 1292.89 0 L 1333.94 0 L 1334.1 43.0975 C 1320.4 42.9491 1306.45 43.0824 1292.73 43.0905 L 1292.89 0 z"/>
<path transform="translate(0,0)" fill="rgb(253,253,253)" d="M 1702.68 0 L 1744.01 0 L 1744.11 43.0771 L 1702.86 42.98 C 1703.02 28.6532 1702.95 14.3249 1702.68 -7.10543e-15 z"/>
<path transform="translate(0,0)" fill="rgb(253,253,253)" d="M 1661.81 1325.38 C 1661.85 1315.53 1661.38 1297.06 1662.37 1287.89 C 1663.39 1299.24 1663.02 1313.4 1663 1325 C 1665.88 1325.01 1676.89 1324.68 1678.63 1325.65 L 1681.03 1325.55 C 1673.96 1326.1 1668.99 1326.13 1662 1326.03 L 1661.95 1365 L 1620.76 1365 L 1620.74 1326.02 C 1610.12 1326.04 1598.22 1326.33 1587.75 1325.42 C 1598.64 1324.94 1609.12 1324.98 1620 1325 C 1620.01 1322.66 1619.72 1317.27 1620.61 1315.55 C 1620.93 1319.08 1621.12 1321.78 1621.15 1325.38 C 1634.2 1325.52 1648.87 1325.92 1661.81 1325.38 z"/>
<path transform="translate(0,0)" fill="rgb(253,253,253)" d="M 1579.81 1325.48 C 1579.75 1321.43 1579.36 1317.53 1580.59 1313.74 C 1581.1 1330.6 1579.26 1346.87 1580.01 1365 L 1538.47 1365 C 1538.76 1351.86 1538.85 1338.72 1538.73 1325.57 L 1579.81 1325.48 z"/>
<path transform="translate(0,0)" fill="rgb(253,253,253)" d="M 2032.75 292.075 C 2032.82 280.005 2032.91 266.053 2032.79 253.858 C 2032.76 251.011 2030.26 251.692 2028.02 250.171 C 2030.16 250.045 2030.35 250.181 2032.28 249.139 C 2033.4 246.036 2033.51 247.113 2032.7 244.369 L 2031.93 246.046 L 2031.94 243.818 L 2033.13 245.091 L 2031.96 245.977 L 2031.87 243.872 L 2033.3 245.656 L 2032.19 246.602 L 2033.61 249.686 C 2037.14 251.166 2043.86 250.835 2048 250.881 L 2048 292.123 L 2032.75 292.075 z"/>
<path transform="translate(0,0)" fill="rgb(253,253,253)" d="M 1457.76 500.41 C 1460.45 501.814 1463.75 503.418 1466.29 504.96 C 1464.85 518.797 1464.51 527.556 1465.45 541.46 C 1461.76 540.979 1460.83 540.853 1457.37 539.536 C 1457.99 530.672 1456.83 504.769 1457.76 500.41 z"/>
<path transform="translate(0,0)" fill="rgb(253,253,253)" d="M 664.015 43.0054 C 671.413 42.836 678.343 42.1713 685.207 44.8031 C 677.819 48.9243 670.928 52.7535 664.595 58.5119 C 663.553 54.1685 663.94 47.6604 664.015 43.0054 z"/>
<path transform="translate(0,0)" fill="rgb(253,253,253)" d="M 1499.08 222.826 C 1497.67 218.032 1498.78 213.792 1496.83 209.889 L 1491.02 209.292 L 1490.83 208.363 C 1493.13 206.391 1493.22 206.964 1496.77 206.389 C 1498.99 207.114 1499.44 207.509 1501.1 209.16 C 1506.9 208.897 1512.63 208.508 1517.16 212.614 C 1511.36 215.753 1504.5 219.239 1499.08 222.826 z"/>
<path transform="translate(0,0)" fill="rgb(253,253,253)" d="M 1487.23 87.6292 C 1490.34 86.0222 1491.64 84.9575 1495.1 85.2265 C 1500.17 89.0092 1497.16 96.7051 1493.99 100.939 C 1492.01 96.574 1489.47 91.9182 1487.23 87.6292 z"/>
<path transform="translate(0,0)" fill="rgb(253,253,253)" d="M 501.38 224.071 C 499.402 219.704 497.492 214.191 500.388 210.067 C 503.726 208.424 506.823 209.355 510.678 209.877 C 506.545 215.386 504.61 218.057 501.38 224.071 z"/>
<path transform="translate(0,0)" fill="rgb(253,253,253)" d="M 1646.85 335.765 C 1652.19 333.259 1657.64 331.266 1661.7 336.431 C 1662.1 340.068 1661.75 340.935 1660.84 344.518 L 1646.85 335.765 z"/>
<path transform="translate(0,0)" fill="rgb(253,253,253)" d="M 1620.86 953.714 C 1620.91 943.297 1620.45 925.407 1621.39 915.577 C 1622.29 927.825 1622.03 940.676 1622 953 L 1661 953 C 1661.02 941.922 1660.62 926.951 1661.5 916.19 C 1662.24 928.704 1662.01 941.326 1661.93 953.868 C 1649.06 954.608 1634.09 954.211 1621.06 954.164 C 1620.89 967.814 1620.9 981.464 1621.08 995.113 C 1608.08 995.074 1594.37 994.813 1581.43 995.342 C 1579.45 997.394 1580.23 996.19 1579.5 999.336 C 1578.92 996.743 1579.57 997.684 1578 996.098 C 1569.48 995.923 1547.7 996.513 1541.26 995.437 C 1547.52 994.235 1571.88 994.862 1579.81 994.773 C 1579.84 982.599 1579.77 970.424 1579.6 958.251 L 1580.16 954.908 C 1585.45 952.323 1613.13 953.729 1620.86 953.714 z"/>
<path transform="translate(0,0)" fill="rgb(253,253,253)" d="M 1374.9 914.5 C 1376.94 917.912 1376.04 946.964 1376 953 C 1387.21 952.954 1402.52 952.62 1413.35 953.576 C 1407.83 954.82 1384.09 953.791 1375.91 954.471 L 1374.94 954.556 C 1375.14 967.776 1374.68 981.569 1374.65 994.875 C 1386.55 994.84 1401.7 994.592 1413.38 995.241 C 1408.69 996.326 1382.37 995.994 1376 996 C 1376.03 1008.04 1376.33 1021.28 1375.43 1033.19 C 1374.45 1023.76 1374.86 1005.25 1374.79 995.15 C 1361.09 995.053 1347.4 995.072 1333.7 995.21 C 1334.12 981.755 1333.88 967.259 1333.91 953.727 C 1347.55 953.753 1361.19 953.673 1374.83 953.486 C 1375 940.594 1374.88 927.416 1374.9 914.5 z"/>
<path transform="translate(0,0)" fill="rgb(253,253,253)" d="M 374.523 748.5 C 377.165 751.886 376.043 781.554 376 788 C 384.282 787.965 405.665 787.566 413.231 788.742 L 375.274 789.091 C 375.198 802.673 375.203 816.255 375.289 829.837 C 387.468 829.865 400.71 829.634 412.769 830.524 C 407.945 831.151 399.616 830.964 394.5 831 L 376 831 C 376.022 834.989 375.18 846.292 375.457 849.101 C 374.681 843.728 374.924 835.738 374.921 830.119 C 363.009 830.687 345.982 830.216 333.706 830.213 L 333.964 788.658 C 347.626 788.972 361.293 788.996 374.955 788.728 C 375.115 776.849 375.356 760.152 374.523 748.5 z"/>
<path transform="translate(0,0)" fill="rgb(253,253,253)" d="M 333 501.423 L 333.466 501.665 C 334.619 504.235 334.106 535.303 334.099 540.51 C 345.287 540.531 364.977 541.194 375.102 539.73 C 375.054 553.091 374.638 568.673 375.458 581.841 C 387.295 581.852 401.448 581.524 413.061 582.478 C 408.545 583.281 382.12 582.983 376 583 C 376.019 591.057 376.553 616.657 375.204 622.759 C 374.73 609.437 374.989 595.463 375.039 582.087 C 362.694 582.609 346.518 582.225 333.902 582.253 C 333.859 555.201 332.936 528.679 333 501.423 z"/>
<path transform="translate(0,0)" fill="rgb(253,253,253)" d="M 1702.84 953.792 C 1702.86 943.753 1702.4 926.618 1703.36 917.142 C 1704.31 921.79 1704.03 946.548 1704 953 L 1743 953 L 1743.02 936.354 L 1743.82 936.022 L 1743.95 936.109 L 1744.08 954.156 L 1702.91 954.168 C 1703.01 967.809 1703.03 981.449 1702.98 995.09 L 1661.84 995.18 C 1661.84 982.58 1661.42 966.183 1661.93 953.868 C 1675.56 953.677 1689.2 953.652 1702.84 953.792 z"/>
<path transform="translate(0,0)" fill="rgb(253,253,253)" d="M 1949.99 167.759 C 1958.91 167.596 1972.23 167.399 1980.85 168.461 C 1971.43 169.189 1960.58 168.98 1951 169 C 1950.99 176.27 1950.47 202.251 1951.44 207.718 L 1954.59 208.059 L 1954.93 208.897 C 1952.81 209.111 1952.34 208.954 1950.59 210.166 C 1949.1 221.328 1950.57 238.078 1949.99 250.313 L 1948.17 251.449 C 1940.69 249.87 1917.53 250.459 1908.85 250.49 L 1908.84 209.07 L 1949.97 209.042 L 1949.99 167.759 z"/>
<path transform="translate(0,0)" fill="rgb(253,253,253)" d="M 1620.92 664.644 C 1634.28 664.895 1648.47 664.699 1661.89 664.722 L 1662.08 706.171 C 1648.26 706.131 1634.44 706.193 1620.63 706.357 L 1620.92 664.644 z"/>
<path transform="translate(0,0)" fill="rgb(253,253,253)" d="M 1661.94 788.896 C 1674.31 788.33 1690.36 788.738 1703 788.721 C 1702.84 802.549 1702.86 816.379 1703.07 830.206 C 1689.33 830.201 1675.59 830.27 1661.85 830.416 L 1661.94 788.896 z"/>
<path transform="translate(0,0)" fill="rgb(253,253,253)" d="M 1908.95 788.731 L 1950.32 788.694 C 1950.01 802.494 1950 816.3 1950.28 830.102 C 1936.72 830.428 1922.39 830.219 1908.77 830.243 C 1909.02 816.622 1908.9 802.397 1908.95 788.731 z"/>
<path transform="translate(0,0)" fill="rgb(253,253,253)" d="M 1374.99 1118.68 L 1375.1 1160.46 C 1361.6 1160.07 1347.38 1160.33 1333.82 1160.36 L 1333.92 1118.7 L 1374.99 1118.68 z"/>
</svg>