<?xml version="1.0" standalone="no"?>
<!DOCTYPE svg PUBLIC "-//W3C//DTD SVG 20010904//EN"
 "http://www.w3.org/TR/2001/REC-SVG-20010904/DTD/svg10.dtd">
<svg version="1.0" xmlns="http://www.w3.org/2000/svg"
 width="1536.000000pt" height="1024.000000pt" viewBox="0 0 1536.000000 1024.000000"
 preserveAspectRatio="xMidYMid meet">

<g transform="translate(0.000000,1024.000000) scale(0.100000,-0.100000)"
fill="#000000" stroke="none">
<path d="M5860 9420 c-349 -47 -669 -197 -891 -419 -197 -197 -295 -412 -306
-671 l-5 -116 -90 -63 c-195 -138 -461 -248 -743 -307 -271 -56 -360 -108
-381 -222 -22 -115 116 -245 329 -311 156 -48 455 -78 672 -67 78 4 160 2 205
-4 41 -6 199 -15 350 -20 256 -8 281 -10 358 -35 45 -14 82 -28 82 -31 0 -11
-46 -94 -89 -159 -59 -90 -164 -225 -300 -384 -344 -404 -495 -662 -581 -993
-48 -188 -63 -320 -57 -503 16 -422 167 -756 501 -1103 344 -357 822 -650
1441 -883 l180 -68 -1 -43 c-1 -24 -5 -123 -9 -220 l-8 -177 -26 -5 c-14 -3
-66 -8 -116 -11 -157 -11 -537 -54 -661 -75 -286 -49 -480 -124 -520 -201 -35
-69 -3 -108 126 -153 41 -14 86 -34 99 -44 46 -34 48 -46 17 -110 -53 -111
-17 -143 139 -124 269 33 417 -1 550 -129 58 -55 67 -61 107 -61 29 0 84 17
168 52 202 83 472 191 670 270 298 117 363 156 376 225 9 51 -23 111 -114 211
-77 85 -82 91 -84 139 -2 66 3 269 8 274 2 2 57 -4 122 -13 64 -9 165 -19 222
-23 105 -6 105 -6 194 -59 l90 -53 -3 -253 c-1 -139 -6 -256 -9 -260 -4 -4
-70 -23 -147 -43 -451 -118 -683 -198 -928 -321 -130 -65 -175 -99 -186 -139
-18 -70 3 -85 171 -119 130 -26 185 -46 194 -71 3 -8 -4 -39 -15 -70 -27 -71
-26 -81 4 -110 31 -32 60 -32 199 0 297 67 456 36 626 -120 106 -97 112 -97
251 -7 114 75 162 109 476 344 224 168 289 229 299 284 12 63 -4 101 -85 207
-43 56 -82 111 -88 122 -6 12 -14 137 -18 295 l-7 275 94 61 93 61 180 27
c846 128 1410 371 1849 796 132 129 213 224 295 350 38 59 94 123 183 209 238
229 390 468 457 717 29 109 29 233 1 259 -28 25 -88 15 -196 -35 -48 -22 -88
-40 -90 -40 -1 0 6 30 17 68 11 37 23 112 26 167 6 116 -8 171 -48 194 -24 13
-33 11 -160 -49 -237 -111 -434 -160 -643 -160 -253 0 -707 143 -1021 321
-320 182 -685 364 -895 447 -435 173 -778 250 -1240 280 l-105 7 3 85 c5 119
26 257 72 471 92 420 115 614 107 879 -6 202 -22 317 -67 485 -56 214 -138
384 -262 550 -204 271 -493 445 -848 510 -108 20 -453 29 -560 15z m530 -185
c408 -77 676 -275 853 -630 82 -166 135 -357 157 -574 28 -282 7 -456 -124
-1028 -61 -267 -70 -333 -70 -529 l-1 -181 -120 -23 c-472 -90 -847 -321 -981
-605 -47 -99 -65 -174 -71 -296 -9 -173 26 -318 115 -481 207 -381 694 -690
1299 -824 565 -125 1551 -136 1997 -23 256 65 426 155 552 292 33 35 78 74
102 86 185 94 323 244 362 391 9 35 25 57 72 99 75 68 119 151 126 238 l5 61
86 7 c179 12 356 53 505 116 37 16 70 29 72 29 10 0 2 -63 -16 -134 -37 -145
-127 -272 -265 -374 l-60 -44 50 7 c109 15 207 49 373 132 95 47 175 83 179
80 16 -17 -66 -212 -140 -332 -184 -300 -463 -527 -802 -651 l-90 -33 69 -1
c38 0 110 7 162 16 51 9 101 14 111 12 24 -4 -262 -292 -370 -372 -363 -269
-818 -455 -1317 -540 -80 -13 -178 -28 -219 -32 l-74 -7 7 24 c15 52 18 153 6
227 -16 102 -25 117 -35 57 -12 -82 -62 -213 -110 -291 -103 -165 -276 -258
-500 -271 -321 -17 -564 151 -887 617 -18 25 -18 24 -12 -30 11 -93 42 -201
84 -289 22 -46 39 -85 38 -86 -2 -1 -68 7 -148 17 -429 53 -877 188 -1305 391
-397 189 -657 361 -894 591 -226 221 -355 416 -444 671 -62 178 -72 246 -72
475 0 217 7 272 60 454 50 174 163 396 289 574 38 53 142 187 231 297 227 281
355 466 386 553 l9 28 113 -24 c157 -33 422 -41 607 -17 367 46 640 230 640
429 0 73 -12 86 -39 42 -63 -101 -139 -169 -261 -231 -158 -80 -335 -110 -600
-102 -207 6 -314 25 -445 76 -115 45 -114 43 -53 82 123 80 152 217 65 315
-35 41 -75 63 -172 94 -146 47 -190 91 -243 242 -82 233 -181 328 -324 315
-32 -3 -58 -4 -58 -2 0 19 35 182 47 220 58 182 189 354 364 478 77 55 241
135 349 171 73 24 245 61 325 70 82 9 372 -3 455 -19z m-1431 -1071 c49 -19
81 -66 111 -159 57 -177 138 -287 265 -361 l49 -28 -89 -42 c-173 -82 -453
-149 -730 -175 -149 -14 -448 -6 -569 16 -233 42 -367 119 -354 207 4 29 67
62 147 78 405 80 714 208 948 391 121 95 147 103 222 73z m575 -610 c12 -31 5
-51 -27 -85 -48 -49 -134 -88 -219 -99 -92 -12 -275 -13 -262 -1 5 4 40 16 78
25 92 23 200 65 316 126 52 27 98 49 101 49 4 1 10 -6 13 -15z m2406 -1389
c507 -75 1044 -274 1599 -594 69 -39 129 -71 135 -71 6 0 2 -6 -9 -12 -36 -21
-352 -23 -490 -3 -66 10 -141 21 -167 25 -27 3 -48 4 -48 1 0 -4 25 -26 56
-50 109 -85 205 -225 220 -318 16 -105 -41 -187 -155 -224 -86 -28 -299 -36
-453 -16 l-107 13 63 -65 c157 -163 205 -315 142 -446 -150 -306 -892 -352
-1539 -94 -560 223 -898 567 -947 962 -25 204 41 404 180 546 168 171 500 311
860 361 97 13 536 4 660 -15z m2159 -845 c210 -61 322 -104 346 -130 23 -25
22 -83 -3 -121 -53 -84 -221 -139 -512 -168 -106 -11 -565 -9 -576 2 -4 4 0
15 9 25 67 74 62 247 -12 363 l-29 46 197 6 c136 4 222 12 281 25 51 11 93 15
105 10 11 -4 98 -30 194 -58z m150 -561 c-43 -79 -122 -150 -223 -199 -172
-83 -352 -111 -777 -117 l-306 -5 -6 69 c-6 76 -33 155 -72 214 l-25 39 87 0
c49 0 130 9 182 20 91 18 101 19 230 3 203 -23 713 -8 861 27 19 4 45 8 58 9
23 1 23 1 -9 -60z m-429 -403 c0 -2 -31 -22 -69 -45 -208 -123 -474 -180 -881
-187 l-225 -5 60 32 c35 18 88 61 128 101 l67 70 243 -1 c206 -2 604 20 642
34 14 5 35 6 35 1z m-2910 -1394 l145 -37 0 -206 0 -207 93 -95 c75 -78 92
-102 92 -126 0 -21 -7 -35 -23 -45 -12 -8 -110 -45 -217 -81 -237 -81 -447
-161 -598 -228 -127 -56 -120 -56 -207 13 -90 72 -257 116 -408 108 -42 -2
-73 0 -69 4 33 31 391 192 597 268 50 18 97 39 105 47 12 11 9 13 -22 13 -113
0 -387 -80 -615 -180 -103 -45 -139 -57 -145 -48 -4 7 -8 15 -8 18 0 10 -56
67 -80 82 -14 8 -42 21 -63 28 -22 6 -35 16 -30 20 10 9 190 53 303 74 106 20
510 78 730 106 91 11 180 23 198 26 l32 6 0 147 c0 80 3 190 7 244 5 84 8 97
22 92 9 -4 81 -23 161 -43z m1627 -936 c87 -91 112 -129 100 -158 -4 -10 -410
-311 -658 -487 l-46 -32 -69 52 c-127 96 -207 120 -429 128 l-169 6 89 61 c91
61 316 197 489 294 118 67 -7 46 -197 -32 -149 -60 -303 -141 -418 -217 l-87
-57 -27 33 c-43 54 -103 92 -166 105 -33 7 -59 15 -59 19 0 10 151 72 290 120
147 51 629 200 740 229 47 12 100 28 118 36 l32 13 0 271 0 271 48 -7 c62 -11
249 -8 287 3 l30 9 5 -281 5 -282 92 -97z"/>
<path d="M5815 8514 c-95 -24 -142 -59 -183 -138 -24 -45 -27 -62 -27 -151 0
-117 17 -159 87 -219 47 -40 91 -56 158 -56 77 0 121 18 171 70 167 171 84
480 -133 495 -29 2 -62 2 -73 -1z m113 -124 c42 -39 17 -100 -41 -100 -62 0
-92 71 -45 104 30 22 60 20 86 -4z"/>
<path d="M4884 7952 c-52 -29 -132 -96 -143 -121 -26 -55 49 -69 137 -25 86
43 125 111 82 146 -27 22 -36 22 -76 0z"/>
</g>
</svg>
