<?xml version="1.0" standalone="no"?>
<!DOCTYPE svg PUBLIC "-//W3C//DTD SVG 20010904//EN"
 "http://www.w3.org/TR/2001/REC-SVG-20010904/DTD/svg10.dtd">
<svg version="1.0" xmlns="http://www.w3.org/2000/svg"
 width="1536.000000pt" height="1024.000000pt" viewBox="0 0 1536.000000 1024.000000"
 preserveAspectRatio="xMidYMid meet">

<g transform="translate(0.000000,1024.000000) scale(0.100000,-0.100000)"
fill="#000000" stroke="none">
<path d="M4040 8581 c-128 -34 -225 -117 -284 -241 -29 -61 -31 -71 -31 -185
0 -113 2 -124 31 -185 39 -83 83 -133 157 -181 165 -107 371 -108 524 -3 139
95 211 262 184 425 -45 276 -309 444 -581 370z m272 -153 c105 -62 163 -160
163 -278 0 -89 -25 -154 -83 -214 -58 -61 -122 -86 -218 -86 -70 0 -89 4 -142
30 -105 53 -162 139 -170 255 -5 83 7 134 47 197 57 89 144 130 272 125 71 -2
93 -7 131 -29z"/>
<path d="M4085 8378 c-76 -27 -135 -102 -135 -173 0 -51 15 -75 48 -75 37 0
52 17 52 57 0 72 63 153 129 168 36 8 40 20 9 29 -32 8 -68 6 -103 -6z"/>
<path d="M7715 8034 c-309 -45 -714 -225 -1025 -458 -191 -142 -395 -345 -532
-526 -84 -113 -88 -116 -145 -134 -208 -65 -483 -196 -686 -329 -358 -233
-663 -556 -820 -867 l-48 -94 -52 -13 c-112 -29 -186 -81 -232 -164 -27 -49
-30 -63 -30 -144 0 -79 4 -97 29 -148 31 -63 128 -174 181 -207 29 -18 33 -26
39 -83 19 -193 102 -357 267 -531 264 -279 658 -512 1115 -661 58 -19 148 -44
199 -56 l93 -21 38 -76 c29 -61 57 -97 135 -174 83 -83 110 -103 191 -142 128
-62 189 -76 358 -83 l145 -6 74 -69 c194 -181 412 -267 645 -255 160 8 269 63
349 177 78 112 88 257 28 386 -37 78 -148 200 -195 213 -28 7 -20 10 69 30
203 46 442 121 589 185 l79 34 39 -28 c56 -41 170 -86 268 -106 123 -25 332
-15 453 20 230 68 433 219 515 384 31 64 37 86 36 136 -1 93 -46 168 -140 232
-29 20 -54 40 -54 44 0 4 35 28 77 55 64 41 164 89 313 152 23 10 34 2 170
-131 219 -214 431 -362 693 -486 362 -171 797 -261 988 -204 117 35 154 93
153 239 -4 313 -201 781 -482 1143 -45 59 -80 112 -77 119 2 7 107 185 233
396 126 210 259 437 295 504 237 428 301 698 196 818 -44 50 -85 60 -234 59
-210 -2 -437 -52 -685 -151 -459 -182 -828 -475 -1173 -931 -58 -76 -83 -102
-100 -102 -41 0 -220 42 -307 71 -47 16 -149 62 -228 101 -119 60 -143 76
-148 98 -25 125 -48 161 -181 272 -91 75 -122 121 -152 218 -25 79 -67 149
-112 183 -19 14 -77 46 -130 72 -53 26 -108 59 -122 73 -16 17 -33 56 -47 106
-11 43 -27 91 -35 106 -26 50 -122 127 -217 174 -170 83 -208 134 -208 278 0
119 -21 178 -81 232 -25 23 -64 48 -85 55 -39 13 -233 23 -289 15z m184 -180
c47 -10 60 -38 65 -135 l5 -86 -102 -54 c-258 -137 -514 -338 -667 -524 l-25
-30 -275 0 c-246 0 -404 -10 -473 -31 -33 -10 -6 24 130 165 256 268 509 445
827 580 227 96 407 136 515 115z m159 -368 c43 -60 90 -95 201 -150 51 -26
104 -59 117 -73 41 -45 33 -58 -68 -109 -126 -62 -240 -139 -326 -219 l-72
-67 -153 40 c-155 42 -330 80 -379 84 -16 1 -28 5 -28 8 0 3 42 51 93 107 142
158 290 273 480 374 51 27 95 49 98 49 3 0 20 -20 37 -44z m420 -425 c24 -55
82 -101 201 -161 105 -52 171 -102 171 -129 0 -5 -20 -11 -43 -14 -62 -9 -129
-32 -223 -78 l-81 -40 -67 30 c-57 26 -257 106 -350 141 l-29 11 29 30 c43 46
136 110 259 178 60 34 112 61 115 61 3 0 11 -13 18 -29z m3586 -97 c30 -29 14
-117 -51 -286 l-26 -67 -71 -11 c-516 -82 -1005 -339 -1446 -759 l-95 -90 -59
59 -60 59 64 83 c396 515 862 851 1355 978 152 39 202 47 297 49 57 1 80 -3
92 -15z m-4734 -163 c144 -19 285 -48 389 -78 107 -31 292 -227 377 -398 59
-120 78 -198 78 -315 0 -154 -52 -287 -150 -390 -30 -31 -54 -60 -54 -63 0 -4
9 -7 20 -7 36 0 146 -60 193 -106 57 -54 105 -123 128 -184 l18 -48 -57 -7
c-180 -21 -486 -107 -637 -179 l-110 -52 -1 170 c0 165 -8 242 -40 389 -60
281 -224 598 -412 798 -72 77 -221 199 -243 199 -6 0 11 -28 38 -61 242 -308
389 -624 448 -959 69 -395 18 -745 -147 -997 -63 -97 -202 -236 -302 -303
-189 -126 -481 -230 -649 -230 -62 0 -91 -13 -55 -25 46 -14 329 -18 422 -5
170 23 387 112 503 207 l53 43 68 -33 c148 -75 303 -107 511 -107 283 0 531
64 743 192 279 168 468 437 470 666 1 182 -129 289 -364 300 l-107 5 -15 51
c-27 91 -132 231 -229 303 l-27 21 29 49 c77 125 102 324 62 483 -43 173 -148
341 -303 484 l-81 76 54 -19 c317 -111 540 -201 745 -301 137 -68 189 -114
263 -237 62 -104 93 -200 99 -308 8 -152 -28 -263 -114 -355 -26 -28 -45 -52
-43 -54 2 -2 27 -15 55 -29 106 -53 193 -176 215 -305 13 -74 1 -180 -31 -265
-24 -64 -89 -168 -127 -203 -14 -13 -24 -27 -20 -30 12 -13 96 36 154 90 107
99 161 237 150 386 -8 121 -61 231 -161 336 l-45 46 29 47 c50 82 65 145 64
266 -1 91 -6 123 -26 182 -34 97 -90 194 -149 259 -27 30 -49 56 -49 59 0 15
528 -275 574 -316 53 -47 111 -132 145 -211 23 -56 26 -76 25 -173 0 -95 -4
-119 -27 -173 -14 -34 -35 -74 -47 -89 -25 -33 -14 -39 37 -22 85 28 156 129
169 240 13 112 -41 267 -126 362 l-42 48 53 -22 c98 -38 199 -67 277 -80 92
-14 129 -36 213 -128 121 -132 165 -296 124 -469 -21 -90 -57 -153 -130 -230
-78 -83 -133 -115 -261 -147 -108 -28 -287 -109 -386 -176 -35 -24 -143 -101
-241 -172 -689 -500 -1264 -725 -2047 -798 -195 -19 -570 -16 -775 5 -584 59
-1129 265 -1485 561 -175 146 -274 264 -352 420 -36 71 -65 152 -57 159 3 3
31 -4 63 -15 126 -41 343 -41 466 2 84 28 156 64 203 102 l38 30 29 -32 c35
-38 53 -39 87 -5 22 22 25 32 21 78 -8 91 -78 155 -170 156 -35 0 -38 -2 -38
-27 0 -16 7 -37 15 -47 8 -11 15 -26 15 -33 0 -20 -112 -70 -198 -89 -105 -23
-319 -15 -417 16 -163 51 -305 155 -338 246 -42 120 -4 200 108 229 17 4 68
10 114 14 l84 6 12 40 c51 170 221 414 444 635 396 393 852 603 1461 674 19 2
159 3 310 1 203 -3 313 -9 420 -24z m1560 -137 c0 -9 14 -43 32 -76 25 -47 53
-77 132 -142 94 -77 146 -126 134 -126 -2 0 -69 32 -149 71 -79 39 -199 98
-266 130 -68 32 -123 62 -123 68 0 5 42 25 93 44 143 55 147 55 147 31z m2995
-244 c-37 -73 -182 -315 -303 -505 -64 -101 -72 -110 -103 -113 -160 -15 -741
-164 -907 -233 -41 -17 -75 -29 -75 -27 -1 2 -15 28 -30 58 l-28 55 118 114
c140 136 328 289 473 383 248 163 582 297 825 331 70 10 68 13 30 -63z m-535
-866 c-49 -76 -90 -143 -90 -149 0 -5 45 -70 100 -143 96 -129 169 -239 153
-229 -4 3 -31 7 -59 11 -162 19 -452 88 -719 170 -99 31 -184 56 -190 56 -6 0
-10 38 -10 93 l0 92 220 69 c121 38 263 80 315 94 109 27 364 81 368 77 1 -1
-38 -65 -88 -141z m-660 -429 c214 -72 483 -138 691 -170 91 -14 175 -25 186
-25 17 0 36 -31 102 -162 65 -130 151 -338 151 -364 0 -2 -17 -2 -37 1 -21 2
-76 9 -123 15 -114 15 -338 72 -458 116 -247 92 -515 256 -725 441 l-37 32 25
47 c14 26 30 65 37 86 6 21 14 38 17 38 3 0 80 -25 171 -55z m-2047 -71 c15
-4 41 -19 58 -35 30 -28 31 -32 27 -97 -3 -45 -13 -87 -32 -129 -41 -90 -50
-96 -127 -83 -331 55 -809 65 -1060 24 -35 -6 -36 -5 -32 20 7 33 9 35 128 94
130 66 264 111 455 156 256 59 458 76 583 50z m2017 -345 c233 -163 412 -250
647 -317 161 -47 287 -69 434 -78 l106 -7 12 -36 c7 -20 15 -72 18 -116 6 -93
0 -104 -70 -112 -64 -8 -231 13 -349 43 -390 98 -807 341 -1096 638 l-84 85
53 59 53 59 78 -67 c43 -37 132 -105 198 -151z m-2440 -43 c74 -8 186 -22 248
-32 l113 -17 -58 -60 c-84 -85 -175 -152 -279 -204 l-92 -45 -93 45 c-188 92
-339 143 -543 186 -55 11 -100 22 -101 23 -1 2 6 22 16 45 14 34 24 43 51 48
145 26 536 31 738 11z m-695 -211 c235 -66 518 -177 498 -195 -15 -13 -103
-31 -201 -40 -174 -16 -343 10 -494 77 -58 26 -68 36 -47 49 6 3 31 37 55 75
25 38 50 69 55 69 6 0 66 -16 134 -35z m2046 -113 c61 -39 101 -88 97 -121 -4
-31 -18 -31 -143 -1 -44 11 -104 22 -133 26 -44 6 -51 9 -40 20 28 27 144 103
159 103 8 1 35 -12 60 -27z m10 -222 c36 0 30 -23 -17 -72 -52 -53 -144 -121
-181 -132 -21 -7 -196 54 -313 108 l-48 22 115 76 115 75 156 -39 c85 -21 164
-38 173 -38z m-496 -202 c85 -34 154 -63 152 -64 -18 -18 -254 -30 -314 -15
-66 16 -153 51 -153 62 0 5 4 9 9 9 5 0 35 15 67 34 33 19 64 35 71 35 7 1 82
-27 168 -61z m-2582 -398 c87 -11 160 -20 163 -20 2 0 19 -30 38 -67 19 -38
45 -84 58 -103 46 -67 48 -64 -32 -56 -94 10 -193 43 -264 91 -54 36 -176 158
-176 177 0 5 12 7 28 4 15 -3 98 -15 185 -26z m1151 -27 c73 -39 158 -115 189
-171 l18 -32 -34 0 c-46 0 -191 43 -275 81 -82 37 -215 119 -207 127 5 5 94
17 224 31 7 0 45 -16 85 -36z m-357 -58 c149 -109 335 -189 518 -220 69 -11
70 -12 67 -41 -9 -74 -73 -170 -131 -194 -23 -9 -37 -6 -94 19 -182 82 -380
245 -519 428 l-47 62 47 4 c26 2 53 4 59 5 7 1 52 -27 100 -63z m-260 -7 c131
-200 341 -380 541 -465 l57 -24 -65 5 c-240 22 -493 209 -653 484 l-36 62 57
0 58 0 41 -62z"/>
<path d="M5865 6047 c-114 -38 -207 -124 -245 -224 -76 -202 7 -412 198 -501
50 -24 69 -27 162 -27 95 0 111 3 167 29 77 35 154 114 189 193 85 192 -3 423
-196 512 -66 30 -209 40 -275 18z m207 -146 c49 -54 33 -121 -35 -151 -53 -24
-105 -13 -137 27 -22 28 -26 82 -10 113 31 58 135 64 182 11z"/>
<path d="M3450 7639 c-118 -13 -212 -70 -278 -169 -140 -208 -65 -473 165
-587 75 -37 80 -38 187 -38 100 0 117 3 169 27 81 38 168 124 203 201 25 55
29 73 29 162 0 92 -3 106 -32 167 -80 170 -246 259 -443 237z m172 -150 c104
-52 162 -143 162 -254 0 -86 -23 -135 -90 -194 -53 -46 -94 -61 -175 -61 -154
0 -266 101 -277 251 -9 132 62 239 188 280 41 14 145 2 192 -22z"/>
<path d="M3427 7446 c-50 -18 -76 -42 -98 -92 -20 -45 -15 -90 14 -108 26 -17
49 4 62 55 17 65 35 88 90 116 43 22 47 27 30 34 -29 11 -55 10 -98 -5z"/>
<path d="M3955 6686 c-163 -41 -255 -154 -255 -311 0 -93 30 -164 95 -230 71
-71 141 -98 251 -98 98 0 165 27 232 92 137 134 117 375 -40 490 -73 54 -197
79 -283 57z m185 -140 c118 -78 132 -241 29 -330 -94 -80 -227 -67 -307 30
-88 107 -50 261 78 319 53 23 150 14 200 -19z"/>
<path d="M3921 6505 c-42 -36 -58 -88 -36 -121 24 -38 46 -26 66 36 17 54 48
90 75 90 8 0 14 5 14 10 0 6 -20 10 -44 10 -33 0 -52 -7 -75 -25z"/>
</g>
</svg>
