<?xml version="1.0" standalone="no"?>
<!DOCTYPE svg PUBLIC "-//W3C//DTD SVG 20010904//EN"
 "http://www.w3.org/TR/2001/REC-SVG-20010904/DTD/svg10.dtd">
<svg version="1.0" xmlns="http://www.w3.org/2000/svg"
 width="1536.000000pt" height="1024.000000pt" viewBox="0 0 1536.000000 1024.000000"
 preserveAspectRatio="xMidYMid meet">

<g transform="translate(0.000000,1024.000000) scale(0.100000,-0.100000)"
fill="#000000" stroke="none">
<path d="M8380 8019 c-532 -28 -986 -148 -1445 -382 -354 -180 -687 -442 -901
-707 -67 -82 -175 -238 -218 -312 -15 -27 -29 -48 -32 -48 -3 0 -18 8 -32 18
-148 102 -442 214 -661 254 -147 26 -535 37 -675 19 -541 -72 -967 -395 -1119
-851 -51 -156 -62 -224 -62 -400 1 -184 17 -264 76 -382 33 -66 112 -156 166
-189 18 -11 33 -26 33 -32 0 -6 20 -53 45 -104 37 -75 62 -110 137 -189 244
-255 616 -410 1125 -470 l43 -5 -60 -72 c-111 -131 -190 -289 -231 -463 -36
-150 -14 -203 108 -267 212 -110 518 -177 813 -177 193 0 306 20 463 80 140
54 250 125 361 231 52 49 99 89 105 89 6 0 33 -11 59 -24 137 -69 365 -136
601 -177 69 -12 128 -23 130 -25 2 -2 -23 -33 -57 -68 -33 -36 -74 -85 -92
-110 -86 -126 -152 -324 -130 -391 21 -64 77 -101 233 -155 364 -126 759 -154
1122 -79 351 73 601 249 621 436 3 26 -1 96 -9 156 -7 59 -11 110 -8 112 2 3
32 5 65 5 128 0 513 43 691 77 502 95 869 237 1273 492 62 39 115 71 117 71
12 0 3 -25 -24 -63 -71 -105 -138 -280 -148 -388 -10 -114 18 -142 197 -202
490 -164 1055 -105 1316 137 87 80 115 137 122 247 12 193 -78 421 -261 665
-43 58 -77 106 -76 108 2 1 42 24 89 50 230 131 348 267 418 486 74 230 43
470 -61 470 -12 0 -51 -16 -87 -35 -90 -50 -160 -83 -190 -90 -22 -5 -30 1
-67 58 -68 103 -172 185 -349 273 -69 35 -71 37 -88 93 -111 357 -324 767
-546 1048 -162 207 -431 456 -648 601 -552 371 -1085 545 -1777 582 -208 11
-259 11 -475 -1z m650 -184 c80 -8 158 -18 173 -24 82 -31 248 -187 330 -309
78 -116 93 -102 -213 -203 -146 -48 -329 -108 -408 -133 l-143 -46 -137 71
c-75 40 -141 75 -147 79 -5 4 -125 65 -265 136 -140 70 -257 129 -259 131 -8
6 134 208 180 256 36 37 53 47 80 48 19 1 97 5 174 9 173 9 443 3 635 -15z
m-1132 -130 c-34 -47 -72 -94 -85 -105 -13 -10 -70 -33 -126 -50 -56 -17 -178
-56 -272 -87 -188 -62 -190 -62 -342 -14 l-58 17 82 42 c110 56 221 101 388
158 131 44 419 122 457 123 12 1 0 -23 -44 -84z m1677 41 c325 -82 689 -245
908 -407 5 -3 -15 -29 -45 -56 -117 -110 -138 -126 -151 -116 -12 9 -162 74
-412 176 -109 45 -134 59 -152 88 -72 110 -127 182 -203 262 -47 50 -76 87
-65 84 11 -3 65 -17 120 -31z m-1497 -402 c478 -246 598 -310 606 -323 6 -10
-42 -869 -49 -881 -3 -4 -91 -45 -197 -90 -105 -45 -274 -120 -375 -167 l-184
-86 -24 19 c-13 10 -67 58 -120 107 -247 223 -510 393 -728 472 l-79 28 7 36
c26 143 261 699 334 793 13 15 50 37 90 53 80 30 467 144 494 144 10 1 111
-47 225 -105z m-1078 -40 c69 -20 127 -38 129 -40 2 -2 -3 -12 -11 -21 -56
-63 -214 -414 -293 -652 l-47 -143 -37 6 c-82 14 -322 26 -411 21 -52 -4 -151
-15 -219 -26 -68 -11 -125 -18 -127 -16 -12 11 111 208 220 352 169 225 551
555 641 555 17 0 87 -16 155 -36z m2841 -85 c68 -28 185 -75 259 -106 74 -30
141 -57 148 -60 17 -7 94 -151 175 -328 61 -133 185 -452 200 -513 5 -20 -18
-39 -196 -166 -215 -152 -355 -246 -504 -340 l-92 -57 -168 79 c-92 44 -319
150 -503 237 -184 86 -339 161 -344 166 -9 8 10 783 20 844 l5 31 322 102
c177 56 363 115 412 131 50 16 102 29 116 30 14 1 81 -22 150 -50z m848 -47
c94 -74 268 -252 364 -372 145 -180 335 -490 323 -527 -3 -10 -43 -56 -89
-101 l-83 -83 -216 71 -215 70 -12 43 c-46 157 -196 505 -296 687 l-57 105 92
88 c51 48 96 86 101 85 4 -2 44 -31 88 -66z m-5752 -477 c154 -20 292 -56 428
-111 413 -169 664 -415 1020 -1004 64 -107 142 -229 173 -270 60 -82 232 -260
251 -260 6 0 11 9 11 20 0 11 -70 165 -155 341 -85 176 -155 323 -155 325 0
11 67 2 122 -17 61 -20 149 -74 214 -131 19 -17 115 -130 212 -252 164 -206
400 -459 509 -547 l42 -34 -35 -85 c-149 -355 -445 -504 -996 -502 -226 1
-458 34 -663 93 -122 35 -265 91 -259 100 3 5 26 20 52 33 84 43 194 156 153
156 -5 0 -47 -14 -93 -31 -393 -145 -964 -146 -1401 -3 -108 35 -282 119 -382
185 -74 49 -264 223 -254 234 3 2 23 -2 44 -10 76 -25 203 -38 348 -33 122 5
152 9 217 33 99 36 163 73 230 133 l56 50 23 -19 c53 -43 109 -4 98 68 -17
105 -176 194 -237 133 -22 -22 -21 -26 22 -82 l28 -36 -32 -28 c-157 -132
-520 -153 -781 -44 -147 61 -227 139 -263 253 -38 126 -26 356 31 552 32 111
119 290 180 370 177 234 423 376 725 419 130 19 374 19 517 1z m1763 -379 c52
-8 136 -28 186 -45 86 -28 264 -106 264 -116 0 -2 -35 -31 -78 -64 -44 -33
-114 -97 -156 -142 l-77 -83 -92 46 c-114 57 -201 84 -318 99 l-90 12 -39 57
c-22 32 -71 97 -110 145 -39 48 -70 88 -68 90 2 2 44 8 93 14 113 12 361 6
485 -13z m4857 -401 c72 -191 106 -303 99 -327 -6 -24 -121 -183 -132 -183 -3
0 -29 70 -58 155 -29 85 -78 218 -109 295 l-56 140 81 79 81 79 24 -59 c13
-32 45 -113 70 -179z m-4184 111 c146 -98 274 -206 486 -413 l195 -189 -70
-49 c-98 -70 -207 -165 -291 -254 l-73 -76 -72 75 c-40 41 -156 172 -257 290
-102 118 -226 257 -275 308 l-91 93 85 83 c98 94 228 196 251 196 9 0 59 -29
112 -64z m3598 0 c116 -35 211 -66 213 -68 1 -1 11 -34 23 -73 11 -38 53 -176
92 -305 94 -309 93 -300 44 -331 -310 -206 -782 -342 -1213 -351 l-115 -3 -42
290 c-23 160 -42 301 -43 315 0 21 21 39 132 115 72 50 231 161 352 248 291
208 318 227 333 227 7 0 108 -29 224 -64z m-1913 -155 c185 -87 418 -196 517
-241 99 -45 183 -85 187 -89 8 -7 102 -640 96 -646 -9 -10 -284 27 -443 60
-474 97 -818 254 -1164 531 -101 81 -201 173 -201 184 0 13 231 142 460 257
113 56 206 103 208 103 2 0 155 -71 340 -159z m2864 -372 c75 -38 170 -126
198 -183 59 -123 40 -268 -54 -400 l-32 -45 -54 71 c-73 93 -200 213 -282 267
l-66 44 56 66 c32 36 79 99 105 139 27 39 53 72 58 72 5 0 37 -14 71 -31z
m-3664 -228 c216 -145 431 -255 642 -331 36 -13 68 -26 72 -29 8 -7 -94 -567
-106 -578 -16 -16 -352 110 -551 207 -200 97 -461 276 -574 393 l-33 35 20 29
c52 73 372 353 403 353 5 0 62 -35 127 -79z m4306 -18 c-10 -84 -48 -198 -91
-272 -64 -109 -207 -239 -293 -266 l-24 -8 28 38 c109 142 158 255 172 394 l7
72 96 49 c53 27 99 49 104 49 4 1 4 -25 1 -56z m-884 -153 c69 -47 205 -189
248 -258 l32 -52 -79 -63 c-86 -67 -281 -183 -399 -236 -41 -19 -128 -53 -194
-76 l-119 -43 -16 37 c-90 203 -157 326 -224 412 -16 20 -29 39 -29 43 0 3 21
12 48 20 133 40 379 156 518 245 l78 49 40 -20 c23 -12 66 -38 96 -58z m-2325
-285 c160 -31 411 -65 475 -65 26 0 52 -6 58 -12 25 -30 126 -359 166 -540 l6
-28 -107 0 c-247 0 -612 41 -838 94 -117 27 -110 8 -76 196 12 69 31 179 42
245 11 66 24 130 29 142 9 21 10 21 62 7 29 -8 112 -25 183 -39z m1470 -56
c60 -82 131 -212 177 -327 21 -52 38 -95 38 -97 0 -3 -3 -4 -170 -48 -117 -31
-232 -55 -385 -82 -52 -9 -279 -33 -283 -30 -1 1 -18 60 -37 131 -36 138 -89
298 -124 378 -12 27 -20 50 -18 52 2 2 86 8 188 14 186 11 352 31 450 55 104
25 114 22 164 -46z m-2998 -160 c41 -28 103 -68 139 -89 l64 -37 -92 -33
c-218 -76 -380 -189 -496 -348 -53 -72 -36 -70 -206 -30 l-88 20 119 58 c207
101 320 211 428 418 27 50 51 92 54 92 2 0 38 -23 78 -51z m4131 -157 c130
-165 257 -385 308 -535 14 -40 27 -106 31 -147 7 -93 -12 -137 -84 -199 -44
-38 -150 -90 -214 -106 -25 -6 -27 -4 -34 33 -10 61 -63 142 -109 165 -81 42
-161 32 -227 -30 l-26 -24 -24 35 c-52 77 -154 99 -237 51 l-43 -24 -9 23 c-4
12 -23 35 -41 50 -30 25 -39 28 -90 24 -39 -3 -56 -1 -52 6 30 54 97 136 111
136 9 0 49 -9 87 -20 101 -30 234 -37 315 -16 65 17 110 39 110 55 0 4 -44 11
-97 14 -147 9 -275 39 -370 88 -79 39 -160 110 -149 128 3 4 38 18 78 31 207
64 488 193 625 285 37 25 72 45 78 45 5 0 34 -31 63 -68z m-3533 -149 c209
-78 252 -150 243 -408 -4 -121 -8 -148 -28 -187 l-22 -45 26 -114 c37 -163 46
-230 46 -347 0 -125 -10 -150 -86 -222 -77 -73 -206 -130 -375 -165 l-57 -11
-12 53 c-34 154 -177 239 -307 183 -28 -12 -59 -30 -69 -41 -21 -23 -34 -24
-34 -4 0 26 -70 93 -116 111 -53 20 -114 15 -176 -15 -24 -11 -47 -21 -50 -21
-3 0 -11 13 -17 28 -16 39 -82 75 -127 70 -19 -2 -34 -2 -34 0 0 14 77 106
110 132 l39 31 93 -35 c125 -47 214 -66 304 -66 72 0 114 11 114 29 0 5 -35
17 -77 26 -164 35 -297 85 -351 129 -31 27 -32 31 -32 99 1 226 142 503 335
660 75 60 197 121 295 147 112 30 257 23 365 -17z m-2958 -74 c111 -45 236
-86 327 -110 l79 -20 111 -113 c61 -62 139 -132 174 -155 34 -23 62 -46 62
-52 0 -19 -95 -111 -170 -164 -90 -63 -153 -96 -239 -124 -79 -26 -81 -26 -81
-1 0 38 -41 127 -72 158 -78 75 -178 82 -270 20 l-27 -19 -20 40 c-47 90 -163
123 -258 74 -43 -23 -53 -21 -53 9 0 10 -15 35 -34 55 -31 34 -38 37 -100 41
-36 2 -66 7 -66 11 0 23 111 181 168 239 98 100 133 121 222 128 41 4 77 8 79
10 15 14 101 0 168 -27z m3420 -83 c70 -24 354 -84 498 -105 152 -21 400 -41
522 -41 124 0 94 -9 -202 -59 -237 -41 -355 -52 -621 -58 l-231 -6 -6 109 c-4
60 -11 124 -16 142 -11 37 -5 39 56 18z m2013 -36 c-51 -40 -279 -171 -380
-219 -129 -61 -347 -142 -501 -186 -270 -78 -690 -143 -1037 -161 l-133 -7 3
124 3 124 185 -3 c412 -7 761 39 1135 149 94 28 197 61 231 75 67 27 173 55
279 74 39 7 102 21 140 31 93 23 106 23 75 -1z m-4655 -75 c44 -9 167 -19 274
-22 180 -6 194 -8 199 -26 13 -52 85 -179 132 -236 l53 -63 -34 7 c-74 16
-299 99 -394 145 -122 59 -351 209 -320 210 6 0 46 -7 90 -15z m776 -26 c23
-11 100 -36 171 -54 72 -19 132 -35 134 -37 2 -2 -8 -32 -22 -66 -14 -34 -34
-97 -44 -139 -11 -42 -22 -78 -24 -80 -2 -2 -38 5 -80 15 -80 21 -122 48 -193
125 -52 56 -153 216 -153 241 0 5 56 11 128 14 27 1 58 -6 83 -19z m-2099
-266 c25 -22 23 -68 -8 -133 -37 -81 -39 -82 -87 -63 -82 32 -96 66 -54 136
42 69 109 96 149 60z m287 -77 c48 -25 64 -94 40 -167 -21 -61 -28 -64 -116
-46 -43 8 -90 20 -105 26 l-28 10 20 47 c24 56 50 89 92 121 37 27 58 29 97 9z
m5991 -11 c17 -20 9 -76 -20 -143 -22 -51 -24 -53 -54 -46 -53 11 -86 33 -86
56 0 32 38 105 67 128 30 24 75 26 93 5z m285 -58 c32 -27 43 -91 26 -155
l-12 -42 -62 0 c-65 1 -143 13 -154 24 -10 10 16 75 49 123 49 72 106 91 153
50z m-5915 -15 c19 -20 31 -44 35 -76 11 -73 -1 -80 -140 -85 -63 -2 -115 0
-115 4 0 23 65 138 91 159 42 36 92 35 129 -2z m6246 -27 c37 -40 57 -121 33
-135 -19 -12 -128 -30 -182 -30 -53 0 -54 2 -32 78 35 118 115 157 181 87z
m-4510 -510 c20 -30 15 -70 -17 -144 -25 -59 -29 -59 -116 -21 -36 16 -43 24
-43 47 0 34 32 90 68 120 37 32 87 30 108 -2z m324 -63 c37 -37 46 -89 29
-155 -14 -50 -15 -52 -53 -55 -47 -4 -198 25 -207 40 -9 14 8 63 37 109 57 91
138 116 194 61z m355 -54 c33 -26 55 -75 55 -121 0 -32 -3 -35 -37 -41 -21 -3
-80 -9 -130 -13 -106 -7 -103 -10 -77 77 22 74 68 120 122 120 25 0 49 -8 67
-22z"/>
<path d="M4800 6205 c-111 -31 -220 -133 -257 -240 -26 -74 -23 -204 6 -277
31 -79 97 -150 179 -190 61 -30 74 -33 162 -33 81 0 103 4 150 26 114 54 194
157 220 283 44 215 -118 427 -338 442 -42 2 -87 -2 -122 -11z m191 -154 c79
-80 -11 -199 -118 -156 -95 39 -58 185 47 185 33 0 48 -6 71 -29z"/>
<path d="M3715 5788 c-52 -28 -63 -101 -20 -143 56 -56 145 -16 145 65 0 71
-65 111 -125 78z"/>
</g>
</svg>
