<svg xmlns="http://www.w3.org/2000/svg" width="1536" height="1024" viewBox="0 0 1536 1024" version="1.1">
	<path d="M 1072.077 25.589 C 1069.727 27.566, 1069 29, 1069 31.655 C 1069 33.567, 1069.390 35.889, 1069.868 36.816 C 1070.345 37.742, 1071.046 54.097, 1071.426 73.160 L 1072.116 107.820 1065.308 113.222 C 1029.893 141.321, 988.275 174.879, 985.917 177.237 C 982.094 181.060, 982.106 185.287, 985.963 192.927 C 990.780 202.469, 996.464 205.331, 1002 201 C 1003.375 199.924, 1005 199.034, 1005.611 199.022 C 1007.098 198.992, 1007.943 209.075, 1007.273 218.849 L 1006.735 226.694 988.707 227.347 C 978.792 227.706, 953.764 228.042, 933.090 228.094 C 912.415 228.146, 891.373 228.483, 886.329 228.844 C 875.143 229.644, 874.664 230.016, 865.712 244.868 C 862.187 250.715, 851.585 268.272, 842.151 283.882 C 828.126 307.092, 825 312.941, 825 315.977 C 825 321.518, 827.651 323.391, 836.351 324 L 843.500 324.500 843.759 377.699 L 844.017 430.898 840.479 432.577 C 837.319 434.077, 836.757 434.095, 835.220 432.749 C 831.724 429.685, 826.959 428, 821.800 428.004 C 815.396 428.008, 811.276 430.256, 807.097 436.025 C 803.882 440.462, 802.798 444.060, 802.614 450.902 L 802.495 455.310 798.067 455.723 C 792.441 456.247, 789.093 457.991, 785.198 462.428 C 780.823 467.411, 779.889 474.940, 782.553 483.750 C 783.010 485.261, 782.815 486, 781.961 486 C 779.361 486, 773.699 491.427, 771.785 495.754 C 769.473 500.980, 769.906 506.488, 773.096 512.439 C 774.208 514.516, 774.980 516.347, 774.809 516.510 C 774.639 516.672, 770.900 517.488, 766.500 518.323 L 758.500 519.841 756.523 517.171 C 752.822 512.172, 744.591 503.870, 740.039 500.545 C 735.735 497.400, 707.654 481.359, 686.974 470.232 C 681.735 467.412, 676.405 463.995, 675.129 462.638 L 672.811 460.170 675.156 458.748 C 676.445 457.966, 682.556 454.480, 688.735 451.001 C 725.923 430.066, 749.617 402.305, 762.039 365.112 C 770.872 338.669, 771.307 312.207, 763.452 279.159 C 762.101 273.471, 761.210 268.469, 761.473 268.044 C 761.736 267.618, 763.761 267.027, 765.973 266.730 C 771.694 265.963, 782.009 260.887, 787.043 256.362 C 792.124 251.795, 798.002 243.055, 799.938 237.189 C 801.198 233.371, 801.619 233, 804.695 233 C 809.243 233, 812.254 230.831, 816.423 224.551 C 824.155 212.902, 827.477 194.968, 824.739 179.654 C 823.477 172.593, 823.495 171.759, 824.918 171.323 C 832.419 169.021, 834 165.864, 834 153.192 C 834 137.434, 828.100 120.651, 816.828 104.346 C 811.774 97.034, 800.321 85.555, 794.750 82.217 C 791.469 80.251, 791.379 79.621, 794 77 C 799.038 71.962, 793.971 63.849, 780.605 55.550 C 765.567 46.214, 751.578 42.578, 731 42.657 C 718.665 42.705, 715.029 43.103, 706.648 45.325 C 677.307 53.103, 655.184 72.545, 642.510 101.692 C 640.762 105.712, 639.060 109.273, 638.729 109.604 C 638.398 109.935, 634.611 109.054, 630.313 107.645 C 605.558 99.530, 586.494 96.568, 559.500 96.645 C 533.826 96.718, 516.014 99.265, 494.500 105.939 C 477.990 111.061, 452.104 123.589, 435.555 134.464 C 430.085 138.059, 425.548 141, 425.471 141 C 425.395 141, 423.647 138.553, 421.587 135.562 C 416.902 128.760, 403.343 115.704, 395.768 110.702 C 376.501 97.979, 356.434 92, 333 92 C 297.391 92, 261.076 109.455, 242.931 135.291 C 236.009 145.149, 235.186 151.980, 240.671 154.065 L 243.171 155.016 238.824 159.851 C 226.319 173.759, 216.510 193.274, 212.452 212.315 C 210.498 221.485, 210.566 236.371, 212.589 242.308 C 214.559 248.088, 219.167 252.238, 223.151 251.820 L 226.007 251.521 226.429 261.510 C 226.919 273.113, 229.592 284.274, 234.018 293.196 C 240.097 305.450, 245.441 310.259, 252.473 309.801 C 256.433 309.544, 256.459 309.566, 259.973 316.277 C 267.147 329.973, 276.523 338.915, 287.709 342.726 C 291.535 344.029, 293.148 344.108, 296.684 343.162 C 300.862 342.044, 301.140 342.120, 305.747 345.643 C 317.818 354.872, 335.693 357.528, 349.757 352.184 C 355.941 349.834, 356.181 350.021, 358.501 359 C 364.428 381.940, 376.543 404.447, 391.984 421.204 C 395.843 425.392, 399 429.015, 399 429.256 C 399 429.496, 392.813 429.967, 385.250 430.301 C 365.106 431.193, 351.474 435.278, 337.304 444.667 C 315.507 459.111, 297 488.982, 297 509.721 C 297 512.406, 295.887 517.100, 294.344 520.922 C 292.883 524.540, 290.289 532.664, 288.579 538.975 L 285.470 550.450 281.132 551.190 C 271.632 552.812, 264.355 559.353, 258.536 571.500 C 253.663 581.673, 251.412 591.916, 252.749 597.827 C 253.560 601.412, 253.471 604.013, 252.365 609 C 249.952 619.878, 249.464 638.401, 251.391 646 C 253.701 655.113, 259.006 662.518, 266.974 667.755 C 270.535 670.094, 274.073 673.244, 274.837 674.755 C 284.928 694.717, 305.188 706.698, 338 712.107 C 342.125 712.786, 353.825 713.406, 364 713.484 L 382.500 713.625 382.853 716.562 C 383.047 718.178, 382.665 722.556, 382.005 726.291 C 380.614 734.156, 379.273 735.428, 371.342 736.407 C 364.308 737.276, 355.639 740.382, 349.815 744.119 C 339.621 750.660, 332.902 761.459, 328.281 778.729 C 325.924 787.537, 325.669 790.224, 325.699 806 C 325.725 819.606, 326.169 825.469, 327.692 832.348 C 329.010 838.301, 329.299 841.301, 328.576 841.515 C 325.885 842.313, 289.090 842.954, 288.631 842.212 C 287.849 840.947, 293.201 832.242, 298.905 825.500 C 306.343 816.709, 306.965 815.200, 304.103 812.883 C 302.825 811.847, 300.348 811, 298.599 811 C 294.586 811, 284.940 813.490, 279.313 815.980 C 275.163 817.815, 275 817.818, 275 816.059 C 275 814.373, 286.755 790.480, 293.582 778.289 C 296.332 773.378, 296.402 772.980, 294.795 771.370 C 293.266 769.838, 292.493 769.794, 287.295 770.951 C 275.065 773.673, 260.011 783.792, 252.500 794.340 C 250.300 797.429, 248.155 799.967, 247.734 799.978 C 247.005 799.999, 247.228 784.594, 248.592 740.727 C 249.240 719.912, 248.925 718, 244.855 718 C 240.177 718, 227.451 733.157, 220.507 747 C 216.119 755.748, 210.536 771.796, 209.392 778.950 C 209.036 781.178, 208.358 783, 207.887 783 C 207.415 783, 205.617 780.188, 203.891 776.750 C 192.137 753.341, 173.392 736.112, 150.242 727.441 C 135.688 721.990, 127.453 720.606, 110 720.679 C 91.871 720.754, 86.500 721.971, 86.500 726.004 C 86.500 728.233, 86.874 728.476, 90 728.273 C 105.405 727.273, 123.295 727.741, 131.500 729.357 C 165.875 736.130, 190.877 758.240, 203.467 793 C 206.453 801.245, 208.170 816, 206.143 816 C 205.514 816, 205 815.609, 205 815.130 C 205 813.450, 190.883 802.524, 183.232 798.283 C 168.188 789.942, 150.719 786.190, 135.220 787.969 C 125.583 789.075, 121.620 790.678, 121.196 793.641 C 120.943 795.406, 122.538 796.644, 130.654 800.980 C 152.486 812.645, 167.370 826.233, 176.948 843.240 L 180.180 848.981 177.840 849.851 C 176.553 850.329, 172.575 851.032, 169 851.412 C 142.321 854.251, 83.135 866.164, 63.096 872.729 C 56.764 874.804, 54.719 877.147, 57.134 879.563 C 58.601 881.029, 59.291 880.990, 65.422 879.097 C 88.259 872.043, 138.540 862.222, 173 858.084 C 208.959 853.767, 272.485 849.795, 308.411 849.618 L 332.323 849.500 336.313 857.392 C 346.537 877.613, 365.434 889.411, 387.500 889.349 C 411.975 889.280, 427.413 878.387, 432.778 857.400 C 433.748 853.605, 434.876 849.972, 435.283 849.326 C 436.092 848.044, 449.647 848.236, 487.500 850.065 C 524.462 851.851, 552.929 854.518, 605 861.072 C 664.305 868.537, 688.195 872.027, 759 883.574 C 793.582 889.213, 803.705 890.577, 858 896.911 C 965.563 909.458, 985.789 911.331, 1102 919.502 C 1259.761 930.595, 1280.463 932.398, 1332.500 939.586 C 1370.003 944.767, 1403.162 950.852, 1430.553 957.582 C 1439.992 959.901, 1441.396 960.033, 1442.710 958.719 C 1443.818 957.611, 1443.934 956.745, 1443.166 955.310 C 1441.470 952.141, 1406.666 944.233, 1362.500 936.982 C 1339.278 933.170, 1301.669 928.283, 1278 926.004 C 1271.675 925.395, 1266.196 924.582, 1265.825 924.198 C 1264.715 923.050, 1273.827 910.440, 1281.416 902.622 C 1290.028 893.749, 1300.520 885.855, 1312.439 879.280 C 1322.255 873.865, 1324.116 871.993, 1322.395 869.265 C 1320.401 866.103, 1313.404 864.805, 1301.500 865.391 C 1283.340 866.285, 1268.367 871.048, 1253.996 880.503 C 1249.409 883.520, 1245.492 885.825, 1245.291 885.625 C 1244.760 885.093, 1248.408 876.139, 1252.568 867.768 C 1258.678 855.474, 1268.089 840.365, 1277.241 828.158 C 1282.048 821.746, 1285.986 816.007, 1285.991 815.405 C 1285.996 814.803, 1285.128 813.521, 1284.062 812.557 C 1281.704 810.422, 1277.304 810.926, 1265.500 814.682 C 1246.196 820.826, 1224.543 837.565, 1210.929 856.871 C 1208.551 860.242, 1206.357 863, 1206.053 863.001 C 1205.749 863.001, 1205.628 856.139, 1205.786 847.751 C 1205.943 839.363, 1206.418 808.309, 1206.843 778.743 C 1207.326 745.048, 1207.990 724.610, 1208.621 723.979 C 1209.297 723.303, 1222.429 723.506, 1248.564 724.597 C 1269.979 725.491, 1297.400 726.285, 1309.500 726.362 C 1330.392 726.493, 1331.728 726.388, 1336.029 724.268 C 1345.449 719.625, 1409.873 664.129, 1413.033 657.936 C 1415.232 653.625, 1415.561 647.907, 1413.886 643.103 C 1412.852 640.136, 1399.041 627.529, 1346.500 581.593 C 1341.550 577.265, 1335.475 572.796, 1333 571.661 C 1328.167 569.446, 1325.286 569.309, 1240 567.240 L 1209.500 566.500 1208.960 555.965 C 1208.277 542.658, 1206.442 538.619, 1199.439 535.012 C 1194.683 532.563, 1193.948 532.492, 1170.031 532.168 C 1144.388 531.821, 1140.473 532.267, 1135.615 536.088 C 1131.291 539.490, 1129.898 543.437, 1129.174 554.347 L 1128.500 564.500 1113 564.500 C 1104.475 564.500, 1076.575 564.292, 1051 564.039 L 1004.500 563.577 998.253 566.424 C 990.483 569.964, 984.988 575.773, 982.021 583.581 C 980.067 588.724, 979.648 592.517, 978.822 612.500 C 977.427 646.249, 978.187 686.065, 980.353 692.706 C 983.651 702.816, 992.608 711.321, 1003.304 714.498 C 1007.082 715.619, 1019.601 716.409, 1051.455 717.532 C 1075.130 718.367, 1101.925 719.377, 1111 719.775 L 1127.500 720.500 1127.494 754 C 1127.482 818.851, 1126.875 875, 1126.186 875 C 1125.803 875, 1124.413 872.188, 1123.097 868.750 C 1116.300 850.996, 1105.097 833.361, 1091.740 819.389 C 1081.213 808.378, 1072.931 801.857, 1064.299 797.784 C 1056.583 794.143, 1052.638 794.299, 1052.182 798.266 C 1052.007 799.793, 1055.016 810.542, 1058.902 822.266 C 1067.829 849.200, 1075.417 874.916, 1074.661 875.672 C 1074.340 875.993, 1071.706 874.122, 1068.806 871.515 C 1057.025 860.924, 1041.379 852.954, 1026.190 849.810 C 1010.667 846.596, 997.500 848.499, 997.500 853.957 C 997.500 855.837, 999.159 857.561, 1004.834 861.579 C 1016.382 869.756, 1027.612 879.848, 1034.234 888 C 1040.838 896.129, 1047 905.277, 1047 906.952 C 1047 907.536, 1044.898 907.998, 1042.250 907.995 C 1037.979 907.990, 998.019 904.826, 985.500 903.501 C 982.750 903.210, 964.300 901.383, 944.500 899.442 C 924.700 897.501, 901.300 895.051, 892.500 893.997 C 883.700 892.943, 863.225 890.496, 847 888.560 C 830.775 886.624, 810.750 884.136, 802.500 883.030 C 779.600 879.961, 704.011 867.580, 704.005 866.897 C 704.002 866.565, 707.318 866.013, 711.374 865.670 C 727.600 864.299, 744.426 856.236, 760.720 842.026 C 793.029 813.848, 812.287 775.928, 807.060 750.781 C 804.366 737.822, 797.081 728.223, 786.120 723.190 C 781.271 720.963, 779.128 720.609, 770.500 720.606 C 761.925 720.603, 759.563 720.987, 753.922 723.301 C 750.303 724.786, 746.926 726, 746.416 726 C 745.907 726, 744.411 723.188, 743.093 719.750 C 737.493 705.150, 727.833 690.802, 716.246 679.871 C 707.165 671.304, 701.932 667.766, 690.306 662.334 C 681.826 658.371, 680.859 657.651, 681.384 655.695 C 681.708 654.488, 681.979 652.928, 681.986 652.229 C 681.994 651.529, 684.546 648.379, 687.658 645.229 C 694.336 638.467, 699.003 631.483, 702.258 623.378 L 704.619 617.500 713.390 616.339 C 730.465 614.078, 740.708 609.198, 750.900 598.469 C 766.525 582.020, 771.638 559.013, 764.979 535.122 C 763.848 531.064, 763.143 527.523, 763.414 527.253 C 765.644 525.022, 847.380 522.691, 927.184 522.583 L 987.868 522.500 990.739 525.250 L 993.609 528 1028.055 528.006 C 1047 528.009, 1088.474 528.479, 1120.219 529.049 C 1173.914 530.014, 1178.120 529.968, 1180.534 528.386 C 1182.882 526.847, 1185.677 526.749, 1209.815 527.356 C 1255.055 528.494, 1387.220 533.355, 1418.500 535.031 C 1449.434 536.689, 1448.101 536.700, 1449.342 534.778 C 1450.957 532.278, 1449.258 531.055, 1443.173 530.334 C 1440.328 529.997, 1438 529.545, 1438 529.330 C 1438 529.115, 1439.598 527.536, 1441.551 525.821 C 1449.920 518.473, 1451.742 507.028, 1445.755 499.416 C 1444.519 497.845, 1443.677 495.559, 1443.849 494.245 C 1444.262 491.089, 1441.774 487.514, 1437.120 484.575 L 1433.290 482.158 1434.780 476.329 C 1437.860 464.277, 1431.525 454.570, 1419.250 452.530 L 1415 451.824 1415 444.228 C 1415 432.082, 1409.411 423.534, 1399.773 420.939 C 1391.739 418.775, 1383.972 421.094, 1377.467 427.600 C 1374.465 430.601, 1373.660 430.963, 1372.365 429.888 C 1371.519 429.186, 1368.953 428.361, 1366.663 428.056 L 1362.500 427.500 1362.500 376 L 1362.500 324.500 1369.814 323.847 C 1377.953 323.120, 1380.493 321.586, 1381.554 316.756 C 1382.090 314.315, 1381.310 311.978, 1377.571 304.823 C 1365.562 281.845, 1337.852 234.081, 1335.068 231.562 C 1330.138 227.100, 1329.938 227.090, 1243.309 227.044 C 1179.786 227.010, 1160.947 226.723, 1160.365 225.781 C 1159.950 225.110, 1159.462 218.585, 1159.280 211.281 C 1159.003 200.128, 1159.185 198, 1160.416 198 C 1161.222 198, 1162.188 198.496, 1162.563 199.102 C 1162.938 199.708, 1164.770 200.842, 1166.635 201.621 C 1169.587 202.854, 1170.400 202.844, 1172.910 201.546 C 1176.905 199.481, 1182.217 190.556, 1182.758 185 C 1183.437 178.033, 1184.596 179.090, 1140.500 146.477 C 1131.700 139.969, 1119.550 130.983, 1113.500 126.509 C 1107.450 122.035, 1099.013 115.811, 1094.750 112.680 L 1087 106.986 1087 95.942 L 1087 84.898 1090.750 83.288 C 1097 80.606, 1106.405 81.104, 1114 84.520 C 1119.522 87.003, 1121.779 87.446, 1129 87.462 C 1138.353 87.482, 1146.525 85.288, 1149.553 81.942 C 1151.186 80.137, 1151.235 79.273, 1150.114 71.951 C 1148.841 63.633, 1149.173 58.585, 1151.648 48.654 C 1152.951 43.425, 1152.938 42.555, 1151.529 40.404 C 1149.655 37.544, 1147.167 37.384, 1138.700 39.578 C 1135.351 40.445, 1129.886 41.191, 1126.556 41.233 C 1121.406 41.300, 1119.379 40.735, 1113 37.456 C 1106.420 34.074, 1104.396 33.534, 1096.500 33.051 C 1088.167 32.541, 1087.477 32.336, 1087.185 30.284 C 1086.748 27.209, 1081.440 23, 1078 23 C 1076.397 23, 1073.810 24.131, 1072.077 25.589 M 1074.714 29.619 C 1073.697 30.636, 1073.830 34.425, 1074.922 35.550 C 1075.430 36.072, 1076.168 46.300, 1076.564 58.278 C 1076.959 70.257, 1077.662 80.291, 1078.125 80.577 C 1078.588 80.863, 1082.597 79.951, 1087.035 78.549 C 1098.249 75.006, 1105.746 75.125, 1115.500 79 C 1124.232 82.469, 1132.804 82.968, 1140.225 80.439 L 1144.806 78.878 1144.329 67.189 C 1143.989 58.846, 1144.263 53.989, 1145.287 50.223 C 1146.076 47.320, 1146.371 44.729, 1145.944 44.465 C 1145.516 44.201, 1142.316 44.656, 1138.833 45.477 C 1135.350 46.299, 1129.548 46.977, 1125.940 46.985 C 1120.472 46.998, 1118.222 46.430, 1112.425 43.573 C 1102.143 38.508, 1097.056 37.460, 1089.511 38.850 C 1086.078 39.483, 1082.534 40, 1081.635 40 C 1079.788 40, 1079.432 36.968, 1081.085 35.315 C 1081.681 34.719, 1082.019 33.166, 1081.835 31.865 C 1081.579 30.055, 1080.788 29.430, 1078.464 29.203 C 1076.794 29.039, 1075.107 29.227, 1074.714 29.619 M 718.500 51.041 C 709.776 52.398, 699.587 55.680, 691.543 59.723 C 672.510 69.291, 660.851 81.378, 651.588 101.148 C 645.109 114.977, 645.149 114.417, 650.409 117.499 C 655.052 120.221, 656.993 123.407, 655.137 125.263 C 654.388 126.012, 651.470 125.114, 645.229 122.215 C 613.193 107.330, 572.502 101.403, 534.500 106.085 C 499.889 110.350, 464.632 123.681, 436.294 143.221 C 429.785 147.708, 429.140 148.451, 429.630 150.901 C 430.193 153.714, 427.968 156.716, 426.152 155.594 C 425.638 155.276, 422.280 150.605, 418.691 145.214 C 412.051 135.240, 401.305 124.058, 392.609 118.075 C 384.367 112.405, 367.725 105.076, 357.876 102.781 C 345.374 99.868, 322.398 99.671, 310.500 102.376 C 289.966 107.044, 270.162 117.798, 256.563 131.664 C 249.784 138.576, 245.955 144.288, 247.239 145.572 C 247.518 145.851, 251.230 144.696, 255.487 143.005 C 265.326 139.097, 271.103 138.214, 272.875 140.349 C 274.696 142.544, 273.845 143.447, 266.139 147.496 C 240.652 160.889, 218.462 198.687, 218.583 228.500 C 218.609 235.018, 219.093 238.396, 220.335 240.750 C 221.279 242.537, 222.393 244, 222.811 244 C 223.228 244, 225.984 240.625, 228.934 236.500 C 232.296 231.800, 234.989 229, 236.149 229 C 238.424 229, 238.505 231.278, 236.521 239.500 C 235.725 242.800, 234.773 249.568, 234.404 254.541 C 233.302 269.419, 237.805 286.689, 245.540 297.250 C 250.648 304.224, 252.422 303.707, 254.123 294.750 C 255.264 288.742, 255.829 287.500, 257.423 287.500 C 259.022 287.500, 259.646 288.900, 261.138 295.835 C 265.259 314.991, 275.638 329.641, 288.593 334.589 C 291.042 335.524, 293.290 336.043, 293.590 335.743 C 293.890 335.443, 293.434 332.832, 292.575 329.942 C 291.416 326.037, 291.301 324.342, 292.130 323.344 C 292.743 322.605, 293.584 322, 294 322 C 294.415 322, 296.993 325.068, 299.729 328.818 C 311.217 344.563, 329.136 350.599, 347.526 344.919 L 354.263 342.838 353.626 336.669 C 353.276 333.276, 352.704 325.760, 352.356 319.967 L 351.723 309.434 343.612 309.467 C 337.658 309.491, 334.504 309.005, 331.756 307.639 C 325.869 304.713, 320.033 298.349, 316.900 291.440 L 314.022 285.093 310.475 286.575 C 302.949 289.719, 293.982 283.913, 290.024 273.333 C 286.901 264.988, 287.526 251.391, 291.471 241.811 C 292.026 240.466, 291.439 239.985, 288.591 239.451 C 280.745 237.979, 276.600 228.596, 278.849 217.399 C 281.533 204.035, 288.168 192.813, 299.925 181.752 C 313.641 168.849, 327.834 163.342, 344.976 164.270 C 356.201 164.878, 364.941 167.434, 373.885 172.724 C 380.450 176.607, 394 188.387, 394 190.212 C 394 190.775, 392.641 192.784, 390.979 194.676 C 386.697 199.553, 374.734 224.530, 370.605 237.212 C 367.008 248.261, 363.019 264.878, 360.815 278 C 360.078 282.393, 359.560 294.201, 359.565 306.500 C 359.573 323.865, 359.953 329.496, 361.757 339.033 C 365.900 360.931, 371.082 375.736, 380.150 391.585 C 403.758 432.845, 444.702 457.025, 512 469.448 C 535.185 473.728, 571.059 475.503, 572.766 472.454 C 573.458 471.216, 574.177 471.117, 576.380 471.954 C 582.458 474.265, 602.237 472.500, 620 468.063 C 651.419 460.213, 658.794 457.671, 677.057 448.391 C 722.823 425.135, 749.585 391.634, 759.096 345.688 C 764.219 320.943, 760.326 290.124, 746.884 249 C 732.492 204.971, 711.187 169.027, 687.627 149.025 C 683.432 145.463, 680 141.964, 680 141.250 C 680 140.536, 681.798 137.104, 683.995 133.625 C 702.216 104.774, 737.349 100.692, 761.731 124.594 C 774.460 137.072, 777.480 148.783, 769.966 156.535 C 766.886 159.713, 766.765 160.082, 768.257 161.731 C 772.014 165.883, 774.980 174.379, 774.990 181.016 C 775.003 189.470, 772.805 193.822, 767.184 196.474 L 763 198.448 762.978 204.974 C 762.950 213.416, 760.395 219.076, 753.827 225.249 L 748.775 229.998 753.637 244.749 L 758.500 259.500 762.515 259.431 C 764.723 259.393, 769.052 258.207, 772.135 256.796 C 785.840 250.521, 794.417 237.294, 796.482 219.248 C 796.875 215.810, 797.622 212.733, 798.142 212.412 C 799.926 211.310, 801.892 214.160, 803.114 219.618 C 804.630 226.393, 806.220 226.392, 810.759 219.614 C 816.031 211.742, 817.503 205.357, 817.476 190.500 C 817.450 177.047, 817.172 175.772, 810.884 160.264 C 809.884 157.797, 809.849 156.751, 810.740 155.860 C 811.630 154.970, 812.771 155.382, 815.540 157.596 C 817.538 159.193, 820.284 161.175, 821.643 162 C 823.912 163.378, 824.238 163.337, 825.653 161.500 C 828.056 158.378, 826.800 145.183, 823.027 133.921 C 814.299 107.871, 794.365 86.613, 772.074 79.585 C 767.677 78.199, 764.500 76.644, 764.500 75.878 C 764.500 73.072, 769.223 71.868, 778.232 72.376 C 783.034 72.646, 787.200 72.485, 787.489 72.018 C 788.442 70.476, 778.642 62.976, 770.500 59.015 C 766.100 56.875, 758.680 54.159, 754.012 52.980 C 744.326 50.533, 727.622 49.621, 718.500 51.041 M 1077.701 86.632 C 1076.661 87.673, 1076.850 104.790, 1077.910 105.444 C 1078.410 105.753, 1079.551 105.726, 1080.446 105.382 C 1082.779 104.487, 1082.320 86.680, 1079.951 86.227 C 1079.099 86.064, 1078.087 86.246, 1077.701 86.632 M 1077.813 111.820 C 1076.006 112.548, 1057.211 127.286, 1015.500 160.683 C 999.317 173.640, 989.392 182.255, 989.214 183.500 C 988.825 186.224, 994.114 196.429, 996.105 196.795 C 997.694 197.088, 1013.028 185.535, 1055.271 152.218 C 1078.824 133.643, 1080.421 132.543, 1082.271 133.630 C 1082.947 134.028, 1101.725 147.703, 1124 164.020 C 1146.275 180.337, 1165.514 194.317, 1166.753 195.086 C 1169.647 196.883, 1171.725 195.664, 1174.734 190.404 C 1179.285 182.448, 1180.270 183.557, 1146.358 158.435 C 1098.695 123.126, 1081.859 110.994, 1080.632 111.070 C 1080.009 111.109, 1078.741 111.446, 1077.813 111.820 M 715.929 117.303 C 709.302 119.183, 702.214 123.628, 696.500 129.488 C 687.270 138.953, 687.069 137.901, 700.718 151.587 C 716.695 167.607, 729.109 186.304, 740.455 211.432 C 746.189 224.131, 745.708 223.644, 749.236 220.332 C 755.595 214.361, 757.512 205.343, 754.529 195.430 C 752.727 189.442, 753.629 188.102, 758.322 189.799 C 762.802 191.420, 763.671 191.329, 766 189 C 771.180 183.820, 766.359 167.743, 757.371 160.230 C 751.147 155.028, 751.586 152.500, 758.714 152.500 C 766.099 152.500, 767.845 150.607, 766.185 144.400 C 765.506 141.865, 763.565 137.775, 761.872 135.313 C 758.044 129.750, 747.293 121.690, 740 118.916 C 733.165 116.316, 722.037 115.570, 715.929 117.303 M 1062 154.602 C 1051.825 162.583, 1036.862 174.294, 1028.750 180.626 L 1014 192.140 1014 228.989 L 1014 265.839 1000.144 277.669 C 992.523 284.176, 979.698 295.054, 971.644 301.842 C 957.010 314.176, 957 314.187, 957 318.443 C 957 325.095, 958.792 329.015, 962.550 330.585 C 965.025 331.620, 966.574 331.696, 968.869 330.896 C 970.541 330.313, 972.717 329.991, 973.705 330.182 C 975.408 330.510, 975.525 334.528, 976 409.014 L 976.500 487.500 996.500 487.500 L 1016.500 487.500 1017 434 C 1017.496 380.966, 1017.520 380.463, 1019.741 376.308 C 1022.404 371.325, 1027.003 367.626, 1032.500 366.044 C 1035.352 365.223, 1051.453 364.980, 1088.580 365.196 L 1140.659 365.500 1145.525 368.509 C 1148.818 370.545, 1151.137 372.969, 1152.701 376.009 L 1155.011 380.500 1155.255 433.977 L 1155.500 487.454 1160.259 488.252 C 1162.877 488.690, 1172.327 488.926, 1181.259 488.775 L 1197.500 488.500 1197.746 410.500 C 1197.881 367.600, 1198.199 331.953, 1198.452 331.283 C 1198.781 330.412, 1200.748 330.238, 1205.386 330.672 L 1211.861 331.276 1213.927 327.888 C 1215.311 325.618, 1215.994 322.789, 1215.996 319.316 L 1216 314.132 1198.501 300.316 C 1188.877 292.718, 1180.482 286.327, 1179.845 286.115 C 1179.209 285.903, 1180.184 287.590, 1182.011 289.864 C 1186.109 294.963, 1185.283 296.334, 1180.594 292.216 C 1178.343 290.241, 1175.185 288.765, 1171.623 288.026 C 1167.689 287.209, 1142.573 286.972, 1083.313 287.192 C 1006.139 287.479, 1000.229 287.622, 996.514 289.298 C 994.321 290.286, 991.510 292.051, 990.268 293.218 C 986.919 296.364, 986.337 294.600, 989.264 290.177 C 993.245 284.162, 997.333 282.763, 1013.500 281.887 C 1030.677 280.956, 1148.254 280.914, 1163.656 281.834 C 1169.792 282.200, 1174.621 282.193, 1174.388 281.817 C 1174.156 281.442, 1169.675 277.924, 1164.433 274.001 C 1159.190 270.078, 1154.566 265.885, 1154.158 264.684 C 1153.749 263.483, 1153.277 246.975, 1153.107 228 C 1152.909 205.808, 1152.424 193.041, 1151.747 192.214 C 1151.169 191.507, 1138.502 182.083, 1123.598 171.272 C 1108.694 160.460, 1093.039 149.002, 1088.809 145.807 C 1084.579 142.613, 1080.979 140.021, 1080.809 140.046 C 1080.639 140.071, 1072.175 146.621, 1062 154.602 M 325.468 174.771 C 310.468 179.868, 297.956 191.217, 290.332 206.643 C 287.191 212.997, 286.456 215.651, 286.149 221.725 C 285.846 227.722, 286.106 229.459, 287.543 231.048 C 289.847 233.593, 291.051 233.514, 297.164 230.417 C 301.829 228.053, 302.397 227.969, 303.856 229.428 C 305.315 230.886, 305.301 231.254, 303.689 233.761 C 295.235 246.908, 292.851 262.910, 297.880 272.762 C 302.475 281.766, 307.614 282.366, 312.750 274.500 C 314.546 271.750, 316.535 269.500, 317.170 269.500 C 317.805 269.500, 319.350 273.678, 320.603 278.785 C 321.856 283.893, 323.825 289.599, 324.979 291.466 C 329.766 299.211, 337.808 303.691, 345.156 302.706 C 350.947 301.929, 351.999 300.612, 352.008 294.128 C 352.044 267.115, 365.314 221.999, 380.647 196.759 L 384.357 190.651 379.308 186.009 C 373.771 180.917, 362.052 174.682, 355 173.075 C 346.308 171.093, 334.255 171.786, 325.468 174.771 M 1071 178.550 C 1060.010 181.994, 1051.145 193.087, 1049.063 206 C 1048.487 209.575, 1048.012 220.193, 1048.008 229.595 C 1047.998 251.320, 1047.461 250.582, 1062.594 249.656 C 1072.239 249.066, 1073.422 249.187, 1075.732 251.004 C 1078.890 253.488, 1085.627 253.650, 1088.952 251.321 C 1090.886 249.967, 1093.328 249.692, 1101.598 249.897 C 1116.969 250.279, 1116.005 251.733, 1115.976 228.215 C 1115.962 217.372, 1115.506 206.569, 1114.961 204.209 C 1112.279 192.581, 1104.253 182.735, 1094.474 179.076 C 1087.951 176.636, 1077.831 176.409, 1071 178.550 M 1079.408 183.378 C 1078.599 185.487, 1079.735 187, 1082.129 187 C 1083.639 187, 1084.060 186.443, 1083.820 184.760 C 1083.447 182.146, 1080.264 181.149, 1079.408 183.378 M 1069 185.103 C 1060.092 190.437, 1055.710 196.894, 1054.049 207.129 C 1052.739 215.202, 1052.698 226, 1053.977 226 C 1056.340 226, 1058.348 220.499, 1059.041 212.123 C 1059.509 206.482, 1060.496 201.948, 1061.824 199.345 C 1064.045 194.992, 1069.601 189.579, 1072.934 188.521 C 1074.276 188.095, 1075 187.013, 1075 185.433 C 1075 182.454, 1073.557 182.374, 1069 185.103 M 1089 184.980 C 1089 186.269, 1090.340 187.643, 1092.845 188.921 C 1097.905 191.502, 1102.683 197.057, 1103.870 201.737 C 1104.395 203.807, 1105.136 208.650, 1105.517 212.500 C 1106.231 219.706, 1108.202 225, 1110.171 225 C 1112.063 225, 1110.526 206.394, 1108.104 199.968 C 1105.881 194.068, 1099.917 187.432, 1094.300 184.609 C 1090.108 182.502, 1089 182.579, 1089 184.980 M 1074.502 192.575 C 1067.422 196.267, 1065.336 199.952, 1063.935 211.239 C 1062.450 223.208, 1062.299 223.663, 1058.367 228.015 C 1055.365 231.339, 1055.052 232.083, 1056.432 232.612 C 1058.609 233.448, 1106.720 232.613, 1107.608 231.725 C 1107.987 231.346, 1107.085 229.288, 1105.605 227.151 C 1102.486 222.651, 1101.418 219.035, 1100.528 209.968 C 1099.726 201.786, 1096.727 196.259, 1091.480 193.287 C 1086.717 190.589, 1078.936 190.263, 1074.502 192.575 M 672.331 219.881 C 667.340 222.214, 665.447 225.098, 667 228 C 668.283 230.397, 668.723 230.431, 673.346 228.500 C 680.349 225.574, 686.904 226.934, 695.480 233.093 C 703.187 238.628, 706.236 233.528, 699.250 226.788 C 691.050 218.878, 680.350 216.132, 672.331 219.881 M 918.299 234.963 C 894.127 235.294, 878.755 235.883, 878.205 236.500 C 877.315 237.496, 837.873 302.647, 833.240 310.773 C 828.820 318.525, 824.853 318.047, 891.158 317.758 L 950.373 317.500 951.202 314.299 C 952.090 310.874, 962.161 301.715, 996 273.558 C 1001.225 269.210, 1005.867 265.341, 1006.316 264.961 C 1006.764 264.580, 1007.214 257.571, 1007.316 249.384 L 1007.500 234.500 982.500 234.463 C 968.750 234.443, 939.859 234.668, 918.299 234.963 M 1160.667 234.667 C 1160.300 235.033, 1160 241.534, 1160 249.112 L 1160 262.891 1168.750 269.646 C 1191.946 287.552, 1214.826 305.630, 1217.780 308.388 C 1219.584 310.072, 1221.406 312.787, 1221.830 314.422 L 1222.600 317.394 1298.040 317.108 C 1339.532 316.950, 1373.822 316.610, 1374.240 316.351 C 1376.018 315.253, 1374.280 311.530, 1360.838 287.655 C 1338.008 247.102, 1331.180 236.019, 1328.368 234.950 C 1325.536 233.873, 1161.737 233.597, 1160.667 234.667 M 1053.584 240.328 C 1053.249 242.004, 1053.361 243.761, 1053.832 244.232 C 1054.304 244.704, 1058.247 244.957, 1062.595 244.795 C 1070.385 244.504, 1070.495 244.464, 1070.164 242 C 1069.688 238.466, 1069.325 238.291, 1061.347 237.759 L 1054.194 237.281 1053.584 240.328 M 1075.708 237.626 C 1074.209 239.125, 1075.107 243.198, 1077.455 245.545 C 1082.083 250.174, 1088.742 247.605, 1089.238 241 L 1089.500 237.500 1082.958 237.209 C 1079.359 237.049, 1076.097 237.237, 1075.708 237.626 M 1095.497 238.206 C 1095.237 238.918, 1094.906 240.625, 1094.762 242 C 1094.502 244.480, 1094.563 244.500, 1102.500 244.500 L 1110.500 244.500 1110.500 241 L 1110.500 237.500 1103.236 237.206 C 1097.985 236.993, 1095.840 237.271, 1095.497 238.206 M 479.275 248.654 C 471.393 251.445, 461 262.923, 461 268.838 C 461 271.380, 463.495 273.388, 465.337 272.329 C 466.130 271.873, 468.916 269.115, 471.527 266.200 C 477.676 259.337, 482.700 256.789, 491.500 256.071 C 497.670 255.568, 498.536 255.247, 498.804 253.365 C 498.999 251.998, 498.142 250.470, 496.420 249.115 C 493.182 246.568, 485.731 246.368, 479.275 248.654 M 595.734 261.088 C 579.030 265.024, 567.385 282.990, 564.048 309.974 C 561.151 333.404, 564.515 357.227, 572.336 368.658 C 576.568 374.842, 584.850 380.529, 592.460 382.475 C 599.235 384.208, 615.286 384.462, 621.888 382.939 C 628.142 381.498, 636.217 377.477, 641.934 372.958 C 645.618 370.046, 647.821 367.118, 650.679 361.332 L 654.500 353.599 654.453 341.050 C 654.403 327.424, 653.369 321.306, 648.786 307.500 C 637.492 273.485, 617.469 255.968, 595.734 261.088 M 681.882 268.341 C 668.009 273.450, 661.236 285.464, 662.246 303.176 C 662.848 313.730, 666.007 321.137, 672.667 327.611 C 677.005 331.827, 684.018 335, 688.997 335 C 698.483 335, 708.564 328.162, 713.533 318.356 C 716.245 313.004, 716.497 311.639, 716.467 302.500 C 716.436 293.210, 716.203 292.054, 713.187 286.220 C 707.200 274.638, 699.968 268.822, 690 267.573 C 687.318 267.237, 684.038 267.548, 681.882 268.341 M 594.679 269.490 C 585.071 273.147, 578.300 282.325, 574.172 297.284 C 571.861 305.657, 571.624 308.284, 571.578 326 C 571.525 346.523, 572.546 353.270, 577.042 362.083 C 581.386 370.597, 591.190 375.820, 604.500 376.712 C 624.023 378.020, 641.334 368.715, 645.505 354.672 C 647.442 348.148, 647.414 334.405, 645.443 324.011 C 640.954 300.349, 627.165 276.506, 614.500 270.506 C 609.386 268.083, 599.681 267.585, 594.679 269.490 M 679.418 278.931 C 678.274 279.415, 676.136 281.238, 674.668 282.982 C 670.766 287.620, 670.938 293.720, 675.104 298.465 C 677.725 301.451, 678.855 302, 682.381 302 C 693.618 302, 697.969 288.617, 689.287 280.760 C 686.929 278.626, 682.209 277.751, 679.418 278.931 M 492.951 295.332 C 479.103 299.158, 470.766 311.622, 470.766 328.500 C 470.766 346.481, 481.438 359.968, 497.727 362.572 C 502.841 363.390, 511.941 360.824, 517.506 356.996 C 526.853 350.565, 532.014 337.104, 529.989 324.432 C 528.592 315.689, 525.850 309.823, 520.471 304.073 C 512.889 295.967, 502.546 292.682, 492.951 295.332 M 993.234 299.166 C 991.357 301.043, 991.506 330.345, 993.401 331.918 C 994.298 332.662, 997.987 332.976, 1003.651 332.790 C 1012.346 332.505, 1012.500 332.456, 1012.500 330 C 1012.500 327.619, 1012.167 327.476, 1005.500 327 L 998.500 326.500 998.500 322.500 L 998.500 318.500 1004.301 318.199 C 1013.814 317.704, 1013.285 312.357, 1003.669 311.799 L 998.500 311.500 998.500 308 L 998.500 304.500 1005.500 304 C 1012.167 303.524, 1012.500 303.381, 1012.500 301 C 1012.500 298.539, 1012.359 298.496, 1003.484 298.216 C 997.327 298.021, 994.077 298.323, 993.234 299.166 M 1020.923 300.923 C 1017.562 304.285, 1017.019 309.154, 1019.595 312.832 C 1020.472 314.085, 1023.628 316.187, 1026.607 317.505 C 1032.306 320.025, 1033.988 322.203, 1032.307 324.886 C 1030.848 327.215, 1027.229 327.438, 1023.499 325.430 C 1017.683 322.297, 1014.798 325.583, 1019.492 329.993 C 1021.287 331.678, 1023.521 332.462, 1027.470 332.789 C 1032.704 333.223, 1033.123 333.077, 1036.605 329.595 C 1039.825 326.375, 1040.185 325.525, 1039.669 322.349 C 1038.906 317.645, 1036.656 315.279, 1030.238 312.433 C 1024.534 309.903, 1023.038 307.864, 1025.083 305.401 C 1026.028 304.262, 1027.372 303.992, 1029.944 304.426 C 1037.121 305.637, 1037.488 305.587, 1037.807 303.347 C 1038.253 300.215, 1034.481 298, 1028.701 298 C 1024.668 298, 1023.351 298.495, 1020.923 300.923 M 1050.420 299.886 C 1046.119 302.508, 1043.603 308.225, 1043.546 315.500 C 1043.465 326.019, 1049.265 333, 1058.087 333 C 1062.923 333, 1068.500 329.237, 1068.500 325.974 C 1068.500 322.740, 1065.744 322.269, 1062.366 324.927 C 1058.655 327.846, 1055.628 327.536, 1052.589 323.923 C 1050.563 321.516, 1050 319.765, 1050 315.874 C 1050 310.484, 1051.969 305.610, 1054.545 304.621 C 1057.596 303.450, 1060.691 304.001, 1062.540 306.044 C 1064.860 308.607, 1068.395 308.234, 1068.802 305.383 C 1068.999 304.001, 1068.017 302.351, 1065.975 300.633 C 1062.090 297.364, 1055.106 297.028, 1050.420 299.886 M 1074.709 298.624 C 1073.620 299.713, 1073.879 320.025, 1075.035 324.186 C 1077.797 334.130, 1091.710 336.402, 1097.012 327.775 C 1098.800 324.865, 1098.995 323.052, 1098.762 311.500 L 1098.500 298.500 1096 298.500 L 1093.500 298.500 1093 311.334 C 1092.563 322.545, 1092.255 324.347, 1090.559 325.584 C 1087.792 327.603, 1084.614 327.335, 1082.405 324.898 C 1080.823 323.151, 1080.415 320.738, 1080 310.648 C 1079.536 299.373, 1079.353 298.479, 1077.459 298.208 C 1076.336 298.047, 1075.099 298.235, 1074.709 298.624 M 1106.457 299.252 C 1106.176 299.983, 1106.071 307.762, 1106.224 316.540 L 1106.500 332.500 1115.598 332.786 C 1122.780 333.011, 1124.962 332.750, 1125.960 331.548 C 1128.464 328.531, 1126.473 327.110, 1119.299 326.797 L 1112.500 326.500 1112.500 322.500 L 1112.500 318.500 1118 318 C 1123.067 317.539, 1123.500 317.303, 1123.500 315 C 1123.500 312.655, 1123.140 312.481, 1117.693 312.198 L 1111.885 311.897 1112.193 308.198 L 1112.500 304.500 1119 304 C 1125.133 303.528, 1125.500 303.359, 1125.500 301 C 1125.500 298.534, 1125.374 298.496, 1116.233 298.212 C 1109.244 297.995, 1106.841 298.251, 1106.457 299.252 M 1132.469 299.220 C 1132.182 299.968, 1132.071 307.762, 1132.224 316.540 L 1132.500 332.500 1142 332.500 C 1151.467 332.500, 1151.500 332.491, 1151.500 330 C 1151.500 327.641, 1151.133 327.472, 1145 327 L 1138.500 326.500 1138 312.500 C 1137.515 298.908, 1137.434 298.491, 1135.246 298.180 C 1134.006 298.004, 1132.756 298.472, 1132.469 299.220 M 1165.007 300.481 C 1160.423 312.540, 1154.948 329.491, 1155.206 330.831 C 1155.812 333.977, 1158.892 333.297, 1161.117 329.526 C 1163.207 325.984, 1163.369 325.914, 1168.800 326.204 C 1173.792 326.470, 1174.513 326.800, 1176.005 329.500 C 1177.816 332.778, 1182.235 333.735, 1182.768 330.965 C 1182.931 330.121, 1180.630 322.471, 1177.655 313.965 C 1172.324 298.722, 1172.202 298.496, 1169.123 298.187 C 1166.536 297.927, 1165.828 298.322, 1165.007 300.481 M 489.256 306.029 C 486.213 307.252, 483.008 312.773, 483.004 316.800 C 482.996 323.252, 488.177 329, 494 329 C 502.236 329, 507.579 318.888, 503.506 311.011 C 500.698 305.581, 495.174 303.650, 489.256 306.029 M 1166.612 313.625 C 1165.745 316.169, 1165.280 318.644, 1165.577 319.125 C 1166.171 320.086, 1171.333 320.333, 1172.223 319.443 C 1172.941 318.726, 1169.849 309, 1168.903 309 C 1168.510 309, 1167.479 311.081, 1166.612 313.625 M 850.690 324.643 C 849.979 325.354, 849.752 475, 850.462 475 C 850.705 475, 853.064 472.850, 855.702 470.222 C 863.365 462.591, 871.734 461.070, 880.906 465.641 C 884.491 467.427, 887.335 469.854, 889.696 473.141 C 891.617 475.813, 893.275 478, 893.382 478 C 893.489 478, 895.342 477.100, 897.500 476 C 902.685 473.357, 910.428 473.354, 914.759 475.995 C 918.201 478.093, 921.990 483.396, 921.996 486.123 C 921.999 487.336, 923.247 487.865, 926.943 488.221 C 933.039 488.806, 936.736 491.123, 938.567 495.505 C 939.336 497.347, 940.854 499.136, 941.939 499.481 C 943.024 499.825, 945.057 501.467, 946.456 503.130 C 948.434 505.481, 949 507.258, 949 511.121 L 949 516.088 956.250 515.794 L 963.500 515.500 964 503.011 C 964.498 490.573, 964.511 490.516, 967.250 489.206 L 970 487.891 970 412.445 L 970 337 965.750 336.996 C 959.877 336.991, 955.316 333.970, 952.885 328.473 L 950.906 324 901.120 324 C 873.737 324, 851.044 324.289, 850.690 324.643 M 1222.331 325.243 C 1221.893 325.934, 1220.852 327.841, 1220.018 329.480 C 1217.776 333.882, 1212.524 337, 1207.352 337 L 1203 337 1203 412.474 L 1203 487.949 1206 489.500 C 1207.650 490.353, 1209.051 491.827, 1209.114 492.776 C 1209.177 493.724, 1209.289 500.350, 1209.364 507.500 L 1209.500 520.500 1212.339 520.500 C 1215.001 520.500, 1215.196 520.215, 1215.465 515.940 C 1215.999 507.464, 1221.538 500.896, 1229.558 499.229 C 1233.339 498.444, 1233.514 498.230, 1234.181 493.568 C 1234.995 487.878, 1238.830 482.591, 1244.595 479.210 C 1247.896 477.275, 1249.505 476.993, 1255 477.388 C 1258.575 477.644, 1262.635 478.145, 1264.023 478.500 C 1266.224 479.064, 1266.704 478.706, 1267.796 475.687 C 1269.701 470.418, 1276.800 463.002, 1282.462 460.366 C 1294.200 454.900, 1308.048 459.272, 1315.104 470.673 C 1316.984 473.710, 1317.185 473.785, 1319.784 472.429 C 1323.352 470.568, 1328.403 470.623, 1332.500 472.567 L 1335.803 474.134 1339.651 470.040 C 1342.029 467.510, 1345.793 465.020, 1349.500 463.524 L 1355.500 461.103 1355.500 392.801 L 1355.500 324.500 1289.313 324.243 C 1237.028 324.040, 1222.960 324.250, 1222.331 325.243 M 986 329.115 C 986 331.467, 991.324 339.863, 994.132 341.939 C 1001.111 347.099, 999.297 347, 1086.500 347 C 1173.381 347, 1171.865 347.080, 1178.867 342.095 C 1181.684 340.089, 1187.634 330.301, 1186.640 329.307 C 1186.333 329, 1184.924 330.125, 1183.509 331.807 C 1182.094 333.489, 1178.813 336.133, 1176.218 337.682 L 1171.500 340.500 1087.950 340.772 L 1004.399 341.044 997.950 337.772 C 993.882 335.708, 990.761 333.314, 989.500 331.289 C 987.462 328.017, 986 327.108, 986 329.115 M 1244.096 353.265 C 1242.774 353.944, 1240.749 355.770, 1239.596 357.322 C 1237.567 360.053, 1237.491 361.358, 1237.216 397.978 C 1236.977 429.751, 1236.697 436.007, 1235.466 437.028 C 1233.441 438.709, 1233.633 440.733, 1235.934 441.965 C 1238.585 443.384, 1321.415 443.384, 1324.066 441.965 C 1326.380 440.726, 1326.557 438.707, 1324.500 437 C 1323.215 435.933, 1323 430.296, 1323 397.600 C 1323 355.294, 1323.136 356.208, 1316.401 353.394 C 1311.844 351.490, 1247.773 351.375, 1244.096 353.265 M 881.923 355.923 L 879 358.846 879 397.301 C 879 435.679, 878.996 435.759, 876.825 437.200 C 873.866 439.165, 875.021 441.633, 879.170 442.212 C 881.002 442.468, 888.800 442.587, 896.500 442.478 C 904.200 442.369, 921.202 442.216, 934.281 442.140 C 954.668 442.020, 958.147 441.781, 958.653 440.463 C 958.977 439.617, 958.513 438.119, 957.621 437.134 C 956.187 435.550, 956 431.040, 956 398.106 C 956 359.371, 955.884 358.215, 951.633 354.772 C 949.712 353.216, 946.292 353.042, 917.173 353.022 L 884.846 353 881.923 355.923 M 928 358.930 L 920.500 359.500 920.500 376.500 L 920.500 393.500 935 393.500 L 949.500 393.500 949.783 377.500 C 950.159 356.305, 951.173 357.170, 928 358.930 M 1244.512 360.341 C 1243.231 362.296, 1242.996 365.449, 1243.223 377.616 L 1243.500 392.500 1260 392.500 L 1276.500 392.500 1276.500 375.500 L 1276.500 358.500 1261.290 358.224 C 1246.213 357.951, 1246.066 357.969, 1244.512 360.341 M 1282.442 359.290 C 1282.170 360, 1282.071 367.762, 1282.224 376.540 L 1282.500 392.500 1299.500 392.500 L 1316.500 392.500 1316.777 377.108 C 1317.143 356.773, 1318.329 358, 1298.314 358 C 1286.680 358, 1282.817 358.314, 1282.442 359.290 M 885.119 360.356 C 884.306 361.337, 884.032 366.612, 884.224 377.634 L 884.500 393.500 899 393.500 L 913.500 393.500 913.500 376.500 L 913.500 359.500 899.895 359.223 C 889.147 359.004, 886.044 359.242, 885.119 360.356 M 1031.218 372.653 C 1029.413 373.548, 1026.938 375.680, 1025.718 377.390 L 1023.500 380.500 1023.500 434 L 1023.500 487.500 1052.500 487.500 L 1081.500 487.500 1081.500 429.500 L 1081.500 371.500 1058 371.263 C 1037.979 371.061, 1034.014 371.267, 1031.218 372.653 M 1088.459 372.250 C 1088.196 372.938, 1088.098 399.150, 1088.240 430.500 L 1088.500 487.500 1118.500 487.500 L 1148.500 487.500 1148.500 433.330 L 1148.500 379.160 1146 376.485 C 1141.037 371.175, 1140.002 371, 1113.518 371 C 1094.775 371, 1088.824 371.297, 1088.459 372.250 M 550.401 388.198 C 543.673 394.400, 541.095 400.332, 544.551 401.658 C 545.446 402.001, 547.143 401.274, 548.566 399.938 L 551.030 397.623 554.818 401.322 C 557.745 404.181, 559.118 406.764, 560.865 412.700 C 564.363 424.592, 567.717 430.506, 574.629 436.972 C 582.326 444.172, 589.160 447, 598.859 447 C 608.305 447, 614.055 444.769, 620.868 438.461 C 627.053 432.735, 630.941 426.433, 634.951 415.634 C 637.456 408.885, 637.593 408.733, 642.916 406.752 C 646.889 405.273, 650.202 402.867, 655.342 397.727 C 662.206 390.863, 662.321 390.663, 660.888 388.109 C 658.987 384.723, 654.829 384.509, 654.045 387.757 C 653.119 391.594, 648.133 396.899, 643.017 399.492 C 634.088 404.016, 622.649 403.735, 615.749 398.821 L 612.979 396.849 609.069 399.945 C 601.781 405.718, 596.479 407.489, 586.479 407.495 C 578.345 407.500, 576.821 407.186, 570.979 404.304 C 567.416 402.546, 562.502 399.066, 560.059 396.571 L 555.618 392.035 557.956 389.547 C 559.896 387.482, 560.077 386.798, 559.024 385.529 C 557.041 383.139, 555.307 383.676, 550.401 388.198 M 884.455 400.258 C 884.178 400.980, 884.074 409.429, 884.225 419.035 L 884.500 436.500 899 436.428 L 913.500 436.356 913.500 417.928 L 913.500 399.500 899.229 399.222 C 888.171 399.007, 884.845 399.240, 884.455 400.258 M 920.693 399.640 C 920.312 400.022, 920 408.358, 920 418.167 L 920 436 935.023 436 L 950.045 436 949.773 417.750 L 949.500 399.500 935.443 399.224 C 927.712 399.072, 921.074 399.259, 920.693 399.640 M 1243.691 399.643 C 1243.311 400.023, 1243 408.118, 1243 417.631 C 1243 433.861, 1243.123 434.995, 1244.984 435.992 C 1246.201 436.643, 1252.682 436.947, 1261.734 436.777 L 1276.500 436.500 1276.500 418 L 1276.500 399.500 1260.441 399.226 C 1251.608 399.076, 1244.070 399.263, 1243.691 399.643 M 1282.453 400.261 C 1282.177 400.981, 1282.074 409.429, 1282.225 419.035 L 1282.500 436.500 1299.500 436.500 L 1316.500 436.500 1316.500 418 L 1316.500 399.500 1299.728 399.226 C 1286.629 399.012, 1282.846 399.238, 1282.453 400.261 M 576.625 419.430 C 574.493 420.211, 572.318 421.282, 571.790 421.810 C 569.068 424.532, 580.756 436.707, 588.684 439.408 C 594.590 441.420, 603.331 441.447, 609.131 439.471 C 614.356 437.691, 620 432.917, 620 430.279 C 620 424.284, 606.554 417.028, 600.976 420.013 C 598.947 421.099, 598.924 421.258, 600.538 423.042 C 602.225 424.906, 601.954 428, 600.104 428 C 599.576 428, 598.100 426.710, 596.822 425.133 C 591.923 419.083, 583.816 416.794, 576.625 419.430 M 1058.923 427.923 C 1049.998 436.849, 1062.171 450.617, 1071.814 442.503 C 1079.419 436.104, 1075.079 425, 1064.973 425 C 1062.850 425, 1060.907 425.939, 1058.923 427.923 M 1099.367 426.772 C 1093.983 431.134, 1093.612 436.812, 1098.400 441.600 C 1105.684 448.884, 1116.505 442.838, 1114.577 432.560 C 1113.338 425.955, 1104.519 422.599, 1099.367 426.772 M 1387.406 427.425 C 1385.704 428.166, 1382.157 431.268, 1379.524 434.318 L 1374.737 439.863 1371.432 436.359 C 1368.901 433.675, 1367.468 432.930, 1365.313 433.177 L 1362.500 433.500 1362.222 447.289 L 1361.943 461.078 1365.722 462.637 C 1374.472 466.248, 1379.421 472.499, 1380.655 481.497 C 1381.271 485.991, 1381.280 486, 1385.320 486 C 1390.560 486, 1397.396 489.343, 1400.196 493.275 C 1401.411 494.981, 1402.918 498.399, 1403.546 500.870 C 1404.534 504.764, 1405.180 505.534, 1408.386 506.644 C 1417.005 509.628, 1421.934 516.193, 1421.978 524.750 C 1421.997 528.354, 1422.310 529, 1424.040 529 C 1426.611 529, 1433.762 525.447, 1436.845 522.637 C 1439.457 520.257, 1441.821 516.113, 1443.089 511.690 C 1444.082 508.229, 1441.886 502, 1439.673 502 C 1438.888 502, 1437.672 501.310, 1436.972 500.466 C 1435.938 499.221, 1435.953 498.456, 1437.053 496.401 C 1439.321 492.163, 1435.028 488.046, 1428.309 488.015 C 1423.893 487.994, 1423.500 486.710, 1426.398 481.764 C 1434.064 468.682, 1427.502 457.031, 1413.384 458.655 C 1407.534 459.328, 1406.483 458.473, 1408.077 454.334 C 1408.677 452.775, 1409.219 448.562, 1409.281 444.971 C 1409.371 439.763, 1408.898 437.556, 1406.947 434.070 C 1402.914 426.866, 1394.929 424.150, 1387.406 427.425 M 1062.200 431.200 C 1061.540 431.860, 1061 433.570, 1061 435 C 1061 438.160, 1062.672 440, 1065.545 440 C 1067.962 440, 1071 437.119, 1071 434.826 C 1071 431.159, 1064.797 428.603, 1062.200 431.200 M 1101.698 431.781 C 1099.505 434.204, 1099.547 436.280, 1101.829 438.345 C 1104.261 440.546, 1106.299 440.432, 1108.527 437.970 C 1109.981 436.364, 1110.166 435.371, 1109.414 433.220 C 1108.226 429.822, 1104.157 429.064, 1101.698 431.781 M 817.418 433.969 C 814.216 435.264, 810.175 440.638, 808.932 445.253 C 808.271 447.709, 808.083 451.952, 808.474 455.606 C 808.879 459.384, 808.749 462.037, 808.140 462.414 C 807.591 462.753, 805.161 462.500, 802.739 461.853 C 798.905 460.827, 797.838 460.922, 794.482 462.587 C 789.025 465.296, 786.667 468.926, 786.751 474.489 C 786.802 477.850, 787.536 480.014, 789.498 482.587 C 792.646 486.714, 792.295 488.491, 788.168 489.316 C 784.074 490.135, 778.367 495.357, 776.984 499.550 C 775.405 504.333, 777.191 509.281, 781.753 512.761 C 785.196 515.388, 785.847 515.504, 797.629 515.592 C 805.936 515.655, 810.408 516.094, 811.438 516.948 C 812.564 517.883, 815.111 518.018, 821.230 517.467 C 825.779 517.057, 855.150 516.447, 886.500 516.111 L 943.500 515.500 943.799 511.949 C 944.151 507.753, 941.823 505.133, 936.791 504.066 C 933.915 503.456, 933.527 503.003, 933.717 500.476 C 933.836 498.878, 933.165 496.730, 932.217 495.676 C 930.734 494.029, 929.598 493.852, 923.877 494.380 L 917.254 494.990 916.755 489.805 C 916.350 485.589, 915.668 484.093, 913.113 481.809 C 911.019 479.939, 908.888 479.007, 906.734 479.022 C 902.975 479.047, 896.112 481.943, 894.128 484.342 C 891.800 487.154, 890.162 486.218, 887.479 480.546 C 883.049 471.183, 875.261 466.775, 867.053 468.986 C 860.742 470.685, 853.098 480.107, 853.022 486.281 C 852.991 488.826, 850.831 489.313, 847.434 487.542 C 838.307 482.783, 828.397 489.416, 829.206 499.744 L 829.500 503.500 824.418 503.173 C 820.073 502.894, 818.864 503.243, 816.082 505.584 C 814.292 507.090, 812.409 509.424, 811.897 510.770 C 811.128 512.793, 810.710 513.004, 809.483 511.986 C 805.021 508.283, 813.047 498, 820.399 498 C 823.091 498, 823.364 497.648, 824.416 492.827 C 825.728 486.816, 834.590 480.075, 841.250 480.022 L 844 480 844 459.059 C 844 447.541, 843.615 437.880, 843.145 437.590 C 842.675 437.299, 841.247 438.173, 839.971 439.531 C 836.930 442.768, 835.596 442.646, 832.919 438.887 C 829.441 434.002, 822.657 431.850, 817.418 433.969 M 381 437.615 C 366.460 439.316, 359.322 441.305, 348.635 446.636 C 331.981 454.943, 319.070 468.746, 310.400 487.511 C 301.875 505.961, 302.351 516.008, 312.144 524.392 C 320.033 531.144, 336.410 535.078, 346.134 532.555 C 353.654 530.605, 356.917 526.691, 366.124 508.577 C 381.213 478.892, 391.629 467.110, 407.250 462.058 C 409.313 461.391, 411 460.470, 411 460.011 C 411 457.593, 402.069 451.914, 392.121 448.006 C 384.913 445.174, 384.113 443.402, 390.179 443.703 C 395.401 443.961, 407.586 449.728, 412.730 454.375 L 416.701 457.963 420.668 456.046 C 422.850 454.992, 425.862 453.822, 427.361 453.446 C 428.860 453.069, 429.955 452.425, 429.794 452.014 C 429.632 451.603, 425.147 448.324, 419.828 444.728 L 410.156 438.190 397.328 437.698 C 390.272 437.427, 382.925 437.390, 381 437.615 M 434.951 458.363 C 427.461 459.976, 418.470 464.629, 413.278 469.579 C 408.847 473.803, 407.594 476.757, 410.750 475.538 C 421.855 471.251, 442.463 471.002, 453.858 475.017 C 471.015 481.061, 490.114 499.976, 498.047 518.779 C 501.462 526.874, 501.964 527.351, 505.587 525.940 C 507.189 525.316, 513.225 524.589, 519 524.325 C 524.775 524.060, 530.058 523.669, 530.741 523.457 C 532.554 522.891, 527.843 510.331, 522.139 500.524 C 519.490 495.971, 513.959 488.846, 509.246 483.918 L 500.992 475.288 492.777 473.513 C 483.053 471.412, 455.952 462.838, 448.204 459.412 C 442.075 456.701, 442.507 456.735, 434.951 458.363 M 657.774 465.501 C 654.074 466.794, 650.602 468.128, 650.057 468.465 C 649.510 468.803, 651.699 472.630, 654.944 477.006 C 658.177 481.366, 663.631 490.574, 667.062 497.467 C 670.494 504.360, 673.543 510, 673.837 510 C 674.131 510, 675.300 509.134, 676.436 508.075 C 677.571 507.016, 680.845 504.976, 683.712 503.541 C 686.578 502.107, 689.187 500.506, 689.510 499.983 C 690.321 498.672, 683.720 485.771, 678.519 478.500 C 673.515 471.505, 666.124 462.967, 665.165 463.074 C 664.799 463.115, 661.473 464.207, 657.774 465.501 M 1287.838 464.160 C 1280.492 466.160, 1271 477.754, 1271 484.728 C 1271 488.268, 1268.390 488.543, 1263.955 485.469 C 1258.324 481.567, 1251.628 481.047, 1247.092 484.161 C 1241.197 488.207, 1239.620 491.199, 1239.807 497.979 L 1239.973 504 1235.134 504 C 1226.796 504, 1220.697 509.706, 1221.240 517 L 1221.500 520.500 1229.500 521.213 C 1233.900 521.605, 1260.225 522.630, 1288 523.490 C 1315.775 524.350, 1355.278 525.759, 1375.785 526.620 C 1396.292 527.482, 1413.729 527.934, 1414.535 527.625 C 1415.480 527.262, 1416 525.659, 1416 523.108 C 1416 515.984, 1409.114 510.562, 1400.908 511.225 L 1397.500 511.500 1397.822 506.500 C 1398.240 500.012, 1396.822 496.486, 1392.775 493.945 C 1389.611 491.958, 1386.433 491.801, 1377.500 493.189 C 1375.687 493.471, 1375.450 492.794, 1374.964 485.958 C 1374.617 481.082, 1373.725 477.194, 1372.441 474.958 C 1370.122 470.922, 1363.131 467, 1358.256 467 C 1351.163 467, 1343.591 472.050, 1339.888 479.250 C 1337.556 483.784, 1336.252 483.917, 1332.500 480 C 1328.469 475.792, 1323.384 475.846, 1318.483 480.149 C 1314.523 483.626, 1313.837 483.362, 1312.015 477.664 C 1310.605 473.255, 1305.894 467.507, 1302.102 465.567 C 1298.322 463.634, 1292.046 463.015, 1287.838 464.160 M 394.208 477.750 C 386.396 485.438, 381.844 492.427, 372.168 511.584 C 360.423 534.839, 354.482 540.003, 339.500 539.980 C 326.714 539.960, 312.649 534.803, 305.599 527.549 C 303.147 525.026, 300.936 523.308, 300.684 523.731 C 299.792 525.229, 294.166 543.554, 293.498 547.135 C 292.675 551.551, 292.769 551.618, 303.290 554.117 C 316.954 557.363, 333.197 562.797, 338.640 565.944 C 349.242 572.072, 350.112 579.833, 344.530 618.500 C 337.536 666.949, 334.674 674.652, 322.101 678.862 C 316.602 680.703, 302.329 680.249, 293.571 677.956 C 289.279 676.831, 285.354 676.049, 284.850 676.217 C 283.421 676.693, 287.951 682.242, 294.002 687.427 C 303.363 695.449, 317.640 701.209, 336.103 704.411 C 346.775 706.262, 350.211 705.399, 356.113 699.385 C 360.006 695.418, 360.256 694.856, 359.176 692.486 C 356.749 687.159, 358.944 665.787, 362.471 660.404 C 363.402 658.983, 364.380 653.559, 365.015 646.298 C 365.582 639.809, 366.732 628.929, 367.569 622.119 C 368.939 610.987, 368.936 608.985, 367.546 602.263 C 363.255 581.513, 367.585 557.877, 380.446 531.842 C 383.431 525.801, 386.160 519.428, 386.512 517.679 C 387.782 511.367, 393.372 494.275, 397.641 483.651 C 400.038 477.685, 402 472.622, 402 472.401 C 402 470.902, 399.244 472.794, 394.208 477.750 M 628.500 474.146 C 603.569 480.825, 575.487 483.176, 545.178 481.121 C 534.905 480.424, 524.250 479.486, 521.500 479.035 C 518.750 478.585, 516.353 478.352, 516.174 478.517 C 515.995 478.683, 518.789 482.673, 522.383 487.384 C 531.040 498.730, 536.663 510.566, 540.541 525.606 C 540.698 526.214, 543.285 528.099, 546.290 529.795 C 556.127 535.346, 561.801 545.202, 560.714 554.848 C 560.286 558.638, 560.671 560.287, 562.846 563.986 C 565.126 567.864, 565.498 569.629, 565.487 576.515 C 565.477 583.115, 565.060 585.233, 563.127 588.509 C 561.410 591.419, 560.724 594.235, 560.572 598.994 C 560.309 607.196, 557.109 613.754, 550.226 620.192 C 545.284 624.814, 536.911 629.620, 529.766 631.935 C 526.779 632.903, 524.782 634.880, 519.781 641.822 C 501.817 666.761, 475.962 686.610, 449 696.161 C 434.083 701.445, 424.018 703.221, 407.046 703.563 L 390.591 703.894 390.868 708.401 C 391.395 716.965, 388.965 732.167, 385.879 739.608 C 381.517 750.129, 376.257 754.135, 377.181 746.233 C 377.481 743.667, 377.287 743.519, 374 743.816 C 359.132 745.160, 346.597 753.704, 340.458 766.679 C 334.970 778.281, 333.642 785.891, 333.595 806 C 333.556 823.247, 333.745 825.211, 336.385 835 C 340.084 848.712, 344.650 858.143, 351.059 865.302 C 356.319 871.178, 364.920 876.973, 368.406 876.991 C 371.684 877.007, 376.734 872.244, 379.558 866.470 C 382.313 860.840, 384.239 859.880, 384.822 863.846 C 385.318 867.222, 383.104 872.812, 379.761 876.619 C 378.096 878.516, 377.055 880.388, 377.446 880.780 C 378.791 882.124, 393.393 882.130, 396 880.788 C 397.481 880.025, 399.803 876.850, 401.697 873 C 403.456 869.425, 405.481 866.500, 406.197 866.500 C 407.921 866.500, 408.407 870.394, 407.137 874.037 C 405.719 878.105, 406.996 878.389, 412.104 875.144 C 419.203 870.634, 425.531 859.753, 426.676 850.087 L 427.258 845.176 421.379 844.564 C 411.616 843.548, 405.186 841.972, 402.781 840.006 C 399.094 836.993, 401.460 836.071, 410.500 836.998 C 427.753 838.769, 452.693 834.735, 468.205 827.666 C 484.599 820.195, 503.806 804.152, 513.986 789.426 C 521.276 778.881, 528.296 763.542, 532.489 749 C 534.471 742.125, 536.420 735.375, 536.820 734 C 537.221 732.625, 538.212 731.500, 539.024 731.500 C 540.227 731.500, 540.473 733.166, 540.354 740.500 C 540.240 747.495, 539.538 751.565, 537.203 758.768 L 534.200 768.037 536.287 769.153 C 538.584 770.383, 554.721 769.685, 564.730 767.924 C 588.668 763.713, 610.818 751.243, 632.038 730.033 C 653.945 708.136, 666.165 686.517, 673.071 657.439 C 677.397 639.224, 678.218 632.438, 678.731 610.655 C 679.172 591.941, 678.997 587.891, 677.509 582.395 C 676.554 578.866, 676.028 575.003, 676.340 573.809 C 676.747 572.250, 675.954 570.584, 673.520 567.891 C 668.478 562.309, 666.795 554.754, 669.114 548.104 C 670.011 545.530, 669.937 544.577, 668.734 543.204 C 663.728 537.490, 662.632 528.610, 666.014 521.158 L 667.984 516.816 662.674 505.644 C 657.018 493.746, 652.251 485.740, 645.767 477.250 C 641.150 471.205, 640.150 471.025, 628.500 474.146 M 427.500 483.683 C 406.585 500.175, 388.956 525.716, 379.653 553 C 371.185 577.837, 371.152 595.693, 379.539 613.500 C 383.901 622.761, 388.704 628.886, 396.016 634.513 C 408.953 644.467, 422.085 648.322, 443 648.305 C 462.347 648.289, 476.189 644.351, 491.578 634.485 C 496.837 631.114, 498.844 630.491, 509.500 628.930 C 516.100 627.962, 524.542 626.026, 528.260 624.626 C 543.181 619.010, 553 608.707, 553 598.667 C 553 594.308, 550.098 590.657, 545.019 588.624 C 540.700 586.896, 540.165 585.938, 542.459 584.034 C 544.136 582.642, 549.290 583.431, 552.723 585.604 C 554.763 586.895, 555.090 586.792, 556.688 584.354 C 558.997 580.829, 558.923 572.617, 556.536 567.661 C 554.352 563.125, 548.730 559.130, 542.197 557.471 C 538.679 556.578, 537.500 555.804, 537.500 554.389 C 537.500 552.765, 538.272 552.501, 543 552.507 C 546.025 552.511, 549.513 552.879, 550.750 553.324 C 552.715 554.032, 553 553.805, 553 551.528 C 553 545.196, 546.767 537.605, 538.500 533.869 C 534.355 531.996, 531.704 531.602, 523 531.569 C 505.752 531.504, 494.078 536.720, 481.731 550.011 L 474.291 558.019 470.395 556.383 C 467.215 555.047, 464.296 554.851, 454.500 555.318 C 447.900 555.633, 440.759 556.401, 438.630 557.025 C 433.843 558.429, 431.735 557.056, 434.309 554.211 C 437.599 550.576, 446.563 548.619, 460.199 548.557 L 472.898 548.500 477.326 543.312 C 479.909 540.286, 482.032 536.641, 482.422 534.562 C 483.154 530.665, 485.447 529.777, 486.306 533.060 C 486.842 535.111, 486.861 535.110, 490.410 532.810 C 492.371 531.540, 493.980 529.825, 493.987 529 C 493.993 528.175, 492.673 524.699, 491.054 521.275 C 480.024 497.960, 460.070 481.976, 439 479.577 C 433.588 478.961, 433.404 479.027, 427.500 483.683 M 690 481.362 C 690 481.560, 691.822 485.610, 694.048 490.362 L 698.096 499 702.732 499 C 705.282 499, 709.976 499.732, 713.163 500.626 C 719.650 502.446, 726.839 507.834, 725.554 509.912 C 724.688 511.314, 722.779 511.025, 716 508.465 C 709.322 505.943, 696.976 506.143, 689.853 508.890 C 683.244 511.437, 675.934 517.513, 673.626 522.375 C 671.572 526.704, 671.469 535.315, 673.452 536.960 C 674.628 537.936, 675.797 537.483, 679.604 534.576 C 687.072 528.874, 698.330 526.327, 702.521 529.392 C 705.331 531.446, 703.047 533.601, 697.233 534.384 C 691.251 535.188, 682.929 539.916, 679.439 544.491 C 676.044 548.942, 675.163 555.482, 677.382 559.771 C 678.264 561.477, 679.440 563.154, 679.996 563.498 C 680.552 563.841, 683.818 562.758, 687.253 561.092 C 695.638 557.025, 702.709 556.134, 705.927 558.740 C 708.919 561.163, 707.925 563, 703.622 563 C 698.290 563, 690.403 565.821, 687.094 568.912 C 684.715 571.134, 684 572.656, 684 575.497 C 684 584.048, 691.172 588.325, 705.708 588.442 C 715.125 588.518, 717.797 589.480, 716.680 592.392 C 716.358 593.232, 714.629 594.298, 712.838 594.762 C 709.779 595.555, 709.514 595.986, 708.445 601.893 C 707.054 609.590, 707.425 609.848, 717.424 608.135 C 742.529 603.835, 760 581.825, 760 554.500 C 760 537.647, 754.739 525.473, 742.067 513 C 734.209 505.266, 731.519 503.441, 712.213 492.750 C 691.951 481.530, 690 480.530, 690 481.362 M 407.983 484.250 C 403.945 486.296, 403.290 487.169, 400.749 493.894 C 397.849 501.569, 397.833 504.156, 400.711 499.940 C 401.627 498.598, 405.745 494.012, 409.862 489.750 C 416.501 482.876, 417.069 482, 414.885 482 C 413.531 482, 410.426 483.012, 407.983 484.250 M 969.667 494.667 C 969.300 495.033, 969 499.968, 969 505.631 C 969 518.063, 969.155 518.217, 981.234 517.790 L 989.450 517.500 990.206 513.054 C 991.134 507.601, 992.742 505.888, 997.682 505.091 C 1001.491 504.476, 1001.501 504.462, 1001.802 499.237 L 1002.105 494 986.219 494 C 977.482 494, 970.033 494.300, 969.667 494.667 M 1008.206 495.194 C 1007.543 495.857, 1007 498.068, 1007 500.107 L 1007 503.813 1016.250 504.380 C 1021.337 504.691, 1056.550 505.071, 1094.500 505.223 L 1163.500 505.500 1163.500 500 L 1163.500 494.500 1086.456 494.244 C 1027.363 494.047, 1009.131 494.269, 1008.206 495.194 M 1170.199 499.689 C 1170.494 505.317, 1170.564 505.439, 1173.861 506.109 C 1178.662 507.086, 1180.373 509.286, 1180.973 515.259 L 1181.500 520.500 1192.500 520.500 L 1203.500 520.500 1203.500 507.500 L 1203.500 494.500 1186.699 494.226 L 1169.899 493.951 1170.199 499.689 M 997.189 511.291 C 996.646 511.956, 996.044 514.525, 995.851 517 L 995.500 521.500 1039 522.110 C 1062.925 522.446, 1103.200 522.896, 1128.500 523.110 L 1174.500 523.500 1174.500 518 L 1174.500 512.500 1149 511.862 C 1134.975 511.512, 1095.302 510.968, 1060.838 510.654 C 1012.488 510.213, 997.951 510.359, 997.189 511.291 M 323.655 516.829 C 321.534 519.172, 321.570 520.300, 323.829 522.345 C 327.095 525.301, 332 523.866, 332 519.955 C 332 517.957, 328.912 515, 326.826 515 C 325.992 515, 324.565 515.823, 323.655 516.829 M 1143.014 540.752 C 1138.018 543.257, 1136.948 546.086, 1137.245 556 L 1137.500 564.500 1143.500 565.169 C 1146.800 565.537, 1160.975 565.930, 1175 566.042 L 1200.500 566.245 1200.500 556.143 C 1200.500 546.436, 1200.391 545.932, 1197.729 543.270 C 1195.203 540.746, 1194.095 540.442, 1185.229 539.850 C 1179.878 539.493, 1168.975 539.156, 1161 539.102 C 1149.053 539.020, 1145.886 539.311, 1143.014 540.752 M 277.317 559.877 C 269.541 563.530, 261.273 578.414, 260.259 590.585 C 259.577 598.775, 260.733 600.545, 269.369 604.535 C 276.653 607.900, 295.780 613.395, 304 614.484 C 312.357 615.591, 317.902 610.932, 320.621 600.520 C 322.516 593.265, 327.007 584.226, 330.150 581.346 C 331.442 580.161, 334.259 578.467, 336.410 577.580 L 340.319 575.969 338.086 573.591 C 335.248 570.571, 325.206 566.909, 307.470 562.428 C 289.286 557.834, 282.830 557.288, 277.317 559.877 M 999.930 574.750 C 994.218 577.644, 990.820 581.689, 988.898 587.882 C 987.658 591.879, 986.189 629.686, 986.095 660 C 986.007 688.631, 988.151 696.600, 997.635 702.882 C 1000.141 704.541, 1004.510 706.370, 1007.345 706.945 C 1010.180 707.521, 1031.400 708.667, 1054.500 709.494 C 1077.600 710.320, 1109.100 711.459, 1124.500 712.025 C 1187.793 714.350, 1291.710 718.086, 1309 718.658 C 1324.164 719.160, 1328.131 719.002, 1331 717.781 C 1336.799 715.314, 1392.222 668.958, 1402.250 658.187 C 1407.267 652.798, 1408.136 649.584, 1405.735 645.292 C 1405.056 644.078, 1392.575 632.636, 1378 619.867 C 1363.425 607.098, 1347.255 592.916, 1342.067 588.352 C 1336.878 583.788, 1331.159 579.354, 1329.358 578.500 C 1326.577 577.180, 1314.643 576.724, 1250.291 575.480 C 1095.580 572.489, 1066.790 572.022, 1036.429 572.011 L 1005.359 572 999.930 574.750 M 334.741 586.750 C 333.292 588.263, 331.214 591.525, 330.122 594 C 325.355 604.801, 320.187 631.974, 319.374 650.500 C 318.921 660.842, 319.100 662.984, 320.674 666 C 321.678 667.925, 323.157 669.500, 323.960 669.500 C 326.412 669.500, 329.810 663.247, 331.471 655.680 C 333.802 645.059, 339.986 602.836, 340.688 592.750 C 341.260 584.518, 341.180 584, 339.335 584 C 338.257 584, 336.189 585.237, 334.741 586.750 M 686.992 605.750 C 686.988 612.763, 686.548 622.298, 686.015 626.939 C 685.481 631.580, 685.264 635.597, 685.533 635.866 C 687.048 637.382, 694.453 623.870, 697.829 613.429 C 701.185 603.046, 702.247 597.271, 700.946 596.467 C 699.876 595.805, 689.360 593, 687.951 593 C 687.400 593, 686.997 598.358, 686.992 605.750 M 281.046 595.445 C 279.191 597.679, 280.217 601.275, 283.182 602.933 C 285.630 604.303, 286.043 604.271, 287.932 602.562 C 290.616 600.132, 290.558 597.505, 287.777 595.557 C 285 593.611, 282.601 593.572, 281.046 595.445 M 258.150 616.250 C 253.496 649.557, 261.517 662.290, 292.355 670.542 C 304.622 673.825, 315.747 674.824, 316.556 672.714 C 316.885 671.857, 316.660 670.233, 316.056 669.105 C 312.707 662.847, 312.824 647.879, 316.382 627.406 C 317.876 618.809, 317.656 617.211, 315.256 619.201 C 314.225 620.056, 310.752 620.479, 305.095 620.439 C 295.049 620.368, 280.775 616.785, 269.109 611.407 C 265.044 609.533, 261.175 608, 260.511 608 C 259.758 608, 258.869 611.107, 258.150 616.250 M 1016.035 613.934 C 1015.395 615.131, 1015 626.197, 1015 642.959 L 1015 670.050 1017.565 671.025 C 1018.976 671.561, 1026.121 672, 1033.443 672 C 1048.269 672, 1049.369 671.557, 1048.818 665.815 L 1048.500 662.500 1037 662 L 1025.500 661.500 1025.500 654.500 L 1025.500 647.500 1034.448 647.208 C 1039.369 647.048, 1043.982 646.430, 1044.698 645.836 C 1045.414 645.241, 1046 643.515, 1046 642 C 1046 640.485, 1045.414 638.759, 1044.698 638.164 C 1043.982 637.570, 1039.369 636.952, 1034.448 636.792 L 1025.500 636.500 1025.500 629.500 L 1025.500 622.500 1036.787 622.217 C 1047.691 621.943, 1048.111 621.850, 1049.197 619.467 C 1050.031 617.636, 1050.028 616.356, 1049.182 614.500 L 1048.043 612 1032.557 612 C 1018.269 612, 1016.990 612.150, 1016.035 613.934 M 1066.970 614.250 C 1060.664 617.435, 1058 621.850, 1058 629.113 C 1058 634.248, 1058.381 635.366, 1061.250 638.642 C 1063.288 640.969, 1067.565 643.792, 1072.716 646.209 C 1084.064 651.534, 1086.538 655.552, 1081.545 660.545 C 1077.383 664.707, 1070.736 663.774, 1064.745 658.186 L 1061.990 655.617 1059.245 657.659 C 1055.205 660.664, 1055.216 663.524, 1059.281 667.358 C 1067.874 675.463, 1084.812 674.690, 1091.065 665.909 C 1092.774 663.508, 1093.542 660.852, 1093.829 656.344 C 1094.423 647.010, 1092.334 644.238, 1080.190 638.256 C 1068.572 632.532, 1066.305 629.754, 1069.620 625.296 C 1072.562 621.339, 1077.935 620.990, 1082.904 624.434 C 1087.311 627.488, 1088.172 627.573, 1090.345 625.171 C 1093.858 621.290, 1091.245 616.672, 1083.768 613.548 C 1078.498 611.346, 1072.198 611.609, 1066.970 614.250 M 1116.500 614.389 C 1102.491 620.509, 1096.408 640.653, 1103.138 658.639 C 1108.961 674.202, 1128.890 679.110, 1140.226 667.774 C 1144.574 663.426, 1145.111 659.892, 1141.777 657.557 C 1138.534 655.285, 1136.649 655.631, 1134.194 658.951 C 1129.885 664.780, 1120.512 664.774, 1115.603 658.940 C 1109.422 651.594, 1109.377 635.459, 1115.518 628.161 C 1120.841 621.835, 1129.558 621.778, 1134.188 628.040 C 1137.892 633.050, 1144 631.655, 1144 625.800 C 1144 622.098, 1137.413 615.486, 1132.315 614.071 C 1127.187 612.646, 1120.165 612.788, 1116.500 614.389 M 1155.200 615.200 C 1153.518 616.882, 1153.540 655.734, 1155.226 661.360 C 1157.011 667.319, 1162.600 672.465, 1168.939 673.985 C 1181.911 677.097, 1193.085 670.479, 1195.926 658 C 1196.490 655.525, 1196.962 645.051, 1196.976 634.725 L 1197 615.950 1194.278 614.916 C 1192.401 614.202, 1190.850 614.203, 1189.278 614.919 C 1187.307 615.817, 1186.989 616.735, 1186.916 621.729 C 1186.870 624.903, 1186.529 634.336, 1186.159 642.691 C 1185.493 657.734, 1185.458 657.913, 1182.556 660.941 C 1178.483 665.193, 1172.139 665.293, 1168.016 661.170 C 1164.310 657.464, 1163.505 651.056, 1164.366 632.105 C 1164.941 619.456, 1164.817 617.455, 1163.356 615.841 C 1161.467 613.754, 1156.997 613.403, 1155.200 615.200 M 1209.655 616.829 C 1208.201 618.436, 1208 621.946, 1208 645.794 C 1208 671.599, 1208.095 672.980, 1209.934 673.965 C 1212.738 675.465, 1240.277 675.323, 1241.800 673.800 C 1243.397 672.203, 1243.330 667.519, 1241.691 666.158 C 1240.970 665.561, 1235.458 664.943, 1229.441 664.786 L 1218.500 664.500 1218.500 657.500 L 1218.500 650.500 1228.500 650 L 1238.500 649.500 1238.818 646.185 C 1239.334 640.807, 1237.901 640, 1227.834 640 L 1218.912 640 1219.206 632.750 L 1219.500 625.500 1231 625 L 1242.500 624.500 1242.829 621.044 C 1243.349 615.575, 1241.698 615, 1225.464 615 C 1213.022 615, 1211.110 615.221, 1209.655 616.829 M 1253.651 616.755 C 1253.358 617.229, 1252.801 629.968, 1252.412 645.064 C 1251.817 668.169, 1251.930 672.697, 1253.125 673.689 C 1253.954 674.377, 1260.256 675.163, 1268.282 675.579 C 1280.712 676.224, 1282.209 676.120, 1284.010 674.491 C 1286.244 672.469, 1286.649 668.538, 1284.750 667.309 C 1284.063 666.864, 1279 666.050, 1273.500 665.500 L 1263.500 664.500 1263 640.500 L 1262.500 616.500 1258.342 616.197 C 1256.055 616.030, 1253.944 616.282, 1253.651 616.755 M 1309.295 618.250 C 1308.772 618.938, 1304.180 631.425, 1299.090 646 C 1292.523 664.807, 1290.109 672.935, 1290.777 674 C 1291.351 674.915, 1293.235 675.500, 1295.605 675.500 C 1299.452 675.500, 1299.513 675.439, 1301.620 669.500 L 1303.748 663.500 1313.624 663.839 C 1319.056 664.025, 1323.808 664.475, 1324.185 664.839 C 1324.562 665.202, 1325.687 667.975, 1326.685 671 C 1328.471 676.413, 1328.561 676.500, 1332.391 676.500 C 1339.247 676.500, 1339.196 675.957, 1329.558 646.384 C 1324.738 631.598, 1320.336 618.938, 1319.775 618.250 C 1319.214 617.563, 1316.840 617, 1314.500 617 C 1312.160 617, 1309.817 617.563, 1309.295 618.250 M 372.997 622.750 C 372.995 623.712, 372.301 631.406, 371.454 639.846 C 370.371 650.640, 370.227 655.568, 370.967 656.460 C 372.106 657.833, 382.982 660.351, 383.883 659.450 C 384.185 659.148, 385.201 654.319, 386.141 648.719 L 387.849 638.538 382.559 632.019 C 379.650 628.433, 376.744 624.487, 376.100 623.250 C 374.706 620.571, 373.001 620.296, 372.997 622.750 M 1313.538 634.083 C 1310.505 642.231, 1307.297 652.963, 1307.756 653.423 C 1308.679 654.346, 1319.827 654.088, 1320.419 653.130 C 1321.035 652.135, 1316.202 634.972, 1314.915 633.583 C 1314.412 633.040, 1313.850 633.244, 1313.538 634.083 M 505.208 636.727 C 503.397 636.950, 498.278 639.342, 493.833 642.042 C 480.723 650.005, 462.379 656, 451.124 656 C 448.924 656, 445.013 657.080, 442.324 658.431 C 435.334 661.942, 423.558 665.603, 414.617 667.046 C 405.509 668.515, 385.912 667.762, 376 665.562 C 367.999 663.786, 367.657 664.068, 366.136 673.693 C 364.630 683.231, 364.702 688.508, 366.358 689.882 C 368.580 691.726, 382.245 694.834, 393.424 696.038 C 416.927 698.568, 447.611 691.552, 468.627 678.840 C 477.744 673.326, 491.056 662.956, 498.578 655.508 C 505.919 648.239, 514 638.494, 514 636.910 C 514 636.004, 511.483 635.952, 505.208 636.727 M 393.535 645.750 C 393.161 646.712, 392.598 650.538, 392.283 654.250 L 391.710 661 398.605 660.980 C 409.485 660.949, 427 658.002, 427 656.202 C 427 655.806, 423.512 654.694, 419.250 653.732 C 414.988 652.770, 407.900 650.202, 403.500 648.027 C 399.100 645.851, 395.211 644.055, 394.857 644.036 C 394.503 644.016, 393.908 644.788, 393.535 645.750 M 678.333 668.750 C 668.721 696.592, 657.674 715.254, 640.096 733.348 C 629.001 744.768, 619.177 752.653, 607.430 759.567 C 602.244 762.619, 598 765.308, 598 765.541 C 598 765.775, 600.362 767.161, 603.250 768.622 C 624.356 779.296, 646.854 800.581, 668.561 830.410 C 681.245 847.841, 687.377 853.253, 698.028 856.416 C 708.287 859.462, 719.156 857.929, 732.755 851.515 C 760.991 838.199, 790.831 802.119, 798.931 771.500 C 800.138 766.937, 800.384 751.972, 799.250 752.054 C 798.837 752.084, 797.150 754.219, 795.500 756.798 C 792.652 761.250, 789 763.566, 789 760.920 C 789 760.245, 790.134 757.295, 791.521 754.364 C 794.635 747.781, 795.071 741.284, 792.647 737.584 C 790.645 734.529, 782.162 728.782, 780.851 729.592 C 780.380 729.883, 780.446 730.964, 780.997 731.995 C 782.644 735.072, 782.127 740.188, 779.632 745.500 C 776.745 751.647, 773.467 754.867, 771.796 753.196 C 770.921 752.321, 771.210 750.822, 772.986 747.029 C 776.158 740.258, 776.131 733.840, 772.917 730.389 C 770.726 728.036, 769.991 727.845, 765.046 728.345 C 755.466 729.315, 745.859 734.891, 735.260 745.635 C 730.179 750.786, 725.566 755, 725.010 755 C 721.763 755, 726.944 744.411, 733.934 736.762 L 738.977 731.245 737.127 725.868 C 728.869 701.867, 709.359 679.385, 688.633 669.988 C 681.036 666.543, 679.172 666.319, 678.333 668.750 M 360.250 701.593 C 357.913 704.071, 356 706.366, 356 706.695 C 356 707.023, 361.669 707.046, 368.599 706.747 C 385.863 706.001, 387.817 703.762, 374.439 700.054 C 370.622 698.996, 366.825 697.896, 366 697.609 C 365.085 697.292, 362.842 698.846, 360.250 701.593 M 1136.304 721.315 C 1136.027 721.764, 1135.430 753.714, 1134.976 792.315 C 1134.522 830.917, 1134.004 874.200, 1133.825 888.500 L 1133.500 914.500 1142 915.178 C 1178.175 918.063, 1195.357 919.043, 1196.136 918.264 C 1197.117 917.283, 1198.712 839.153, 1199.193 768.500 L 1199.500 723.500 1192.500 722.762 C 1181.174 721.567, 1136.851 720.427, 1136.304 721.315 M 235.037 735.745 C 225.697 748.465, 219.121 764.292, 214.807 784.435 C 213.125 792.290, 212.635 798.104, 212.576 810.916 C 212.518 823.366, 212.189 827.436, 211.212 827.762 C 210.503 827.999, 206.418 824.844, 202.134 820.751 C 192.991 812.015, 184.652 806.151, 174.691 801.454 C 164.795 796.788, 157.345 795.008, 144.750 794.303 C 133.762 793.687, 131.349 794.471, 136.712 796.915 C 143.041 799.798, 156.383 809.368, 163.560 816.172 C 172.696 824.834, 179.185 833.172, 184 842.435 L 187.500 849.170 195 848.709 C 245.916 845.584, 272.274 843.792, 275.934 843.208 C 280.249 842.519, 280.500 842.270, 285.238 834 C 287.916 829.325, 291.434 824.129, 293.054 822.452 C 294.674 820.776, 296 819.031, 296 818.575 C 296 817.311, 288.154 818.838, 283.042 821.097 C 280.544 822.201, 275.897 825.148, 272.715 827.646 C 267.180 831.991, 264 832.748, 264 829.719 C 264 827.895, 269.106 812.990, 272.469 805 C 273.973 801.425, 277.676 794.081, 280.698 788.679 C 283.720 783.278, 285.953 778.619, 285.660 778.327 C 284.701 777.368, 274.626 782.614, 268.454 787.286 C 260.980 792.944, 254.762 800.586, 249.377 810.732 C 246.475 816.200, 244.698 818.500, 243.377 818.500 C 241.568 818.500, 241.503 816.886, 241.582 773.750 C 241.627 749.138, 241.287 729, 240.827 729 C 240.367 729, 237.761 732.035, 235.037 735.745 M 578.500 772.635 C 568.053 775.782, 546.537 778.333, 537.761 777.465 L 531.022 776.799 529.261 780.034 C 520.195 796.687, 505.687 813.414, 491.572 823.486 C 482.938 829.647, 469.534 836.363, 461.565 838.520 C 457.954 839.497, 455 840.680, 455 841.148 C 455 841.617, 457.225 842, 459.945 842 C 475.817 842, 533.579 845.783, 560 848.554 C 590.765 851.779, 678.754 863.248, 693.934 866.011 C 700.603 867.225, 702 867.246, 702 866.132 C 702 865.654, 700.208 865.023, 698.017 864.729 C 695.826 864.435, 692.023 863.221, 689.564 862.031 C 680.812 857.794, 675.152 852.050, 660.615 832.652 C 644.987 811.799, 628.538 794.666, 614.902 785.040 C 607.785 780.016, 592.657 771.825, 588.500 770.745 C 587.400 770.459, 582.900 771.309, 578.500 772.635 M 1060 804.092 C 1060 804.715, 1062.013 810.912, 1064.473 817.862 C 1072.611 840.853, 1082.612 876.088, 1084.589 888.733 C 1085.130 892.197, 1084.939 893.086, 1083.536 893.625 C 1082.259 894.115, 1079.887 892.181, 1074.246 886.050 C 1070.080 881.523, 1063.708 875.574, 1060.086 872.830 C 1051.457 866.295, 1037.465 859.475, 1027.590 856.990 C 1019.624 854.986, 1009 854.310, 1009 855.807 C 1009 856.251, 1012.038 858.838, 1015.750 861.556 C 1030.026 872.007, 1046.781 890.895, 1053.583 904.203 C 1055.555 908.063, 1056.571 908.996, 1059.243 909.405 C 1063.484 910.054, 1108.296 913.016, 1118 913.289 L 1125.500 913.500 1125.798 906.067 C 1126.055 899.638, 1125.536 896.867, 1121.959 885.567 C 1112.564 855.889, 1095.373 829.116, 1075.391 813.041 C 1067.135 806.400, 1060 802.251, 1060 804.092 M 1263.215 822.449 C 1244.682 830.083, 1226.111 846.032, 1213.104 865.483 C 1209.207 871.311, 1205.813 877.074, 1205.562 878.290 C 1205.312 879.505, 1204.921 889.201, 1204.693 899.835 C 1204.402 913.456, 1204.608 919.276, 1205.390 919.527 C 1206 919.723, 1215.725 920.588, 1227 921.447 C 1238.275 922.307, 1249.601 923.270, 1252.169 923.588 L 1256.837 924.165 1262.965 915.053 C 1273.589 899.253, 1288.639 885.220, 1304.024 876.769 C 1307.298 874.971, 1309.982 873.163, 1309.988 872.750 C 1310.009 871.423, 1296.154 871.951, 1288.208 873.581 C 1272.042 876.896, 1256.368 885.120, 1243.845 896.856 C 1235.248 904.912, 1232.241 905.758, 1233.548 899.751 C 1237.722 880.572, 1253.714 848.405, 1269.579 827.282 C 1272.560 823.311, 1275 819.824, 1275 819.532 C 1275 818.263, 1270.932 819.271, 1263.215 822.449" stroke="none" fill="black" fill-rule="evenodd"/>
</svg>