<svg xmlns="http://www.w3.org/2000/svg" width="1536" height="1024" viewBox="0 0 1536 1024" version="1.1">
	<path d="M 661.625 44.490 C 628.514 51.378, 602.421 71.906, 591.164 99.923 C 589.596 103.827, 588.077 107.256, 587.789 107.544 C 587.501 107.832, 583.493 106.976, 578.883 105.640 C 520.717 88.793, 452.522 102.643, 404.121 141.132 C 400.063 144.359, 396.213 147, 395.567 147 C 394.921 147, 392.842 145.386, 390.946 143.412 C 375.900 127.749, 352.747 116.461, 330.455 113.920 C 296.399 110.038, 261.035 123.839, 240.132 149.167 C 232.540 158.367, 229.333 164.491, 231.033 166.539 C 231.699 167.343, 232.865 168, 233.622 168 C 235.785 168, 235.330 168.859, 230.189 174.484 C 224.450 180.763, 218.118 191.226, 215.049 199.500 C 206.775 221.809, 209.109 251.629, 219.223 252.811 L 221.881 253.121 221.816 262.311 C 221.690 280.048, 226.949 294.907, 237.014 305.258 C 242.577 310.978, 242.908 311.157, 247.439 310.878 L 252.118 310.590 255.570 317.727 C 263.580 334.285, 281.574 346.352, 291.140 341.580 C 294.320 339.994, 294.535 340.033, 300.946 343.395 C 308.356 347.282, 318.254 349.439, 324.375 348.502 C 326.644 348.155, 331.365 346.977, 334.866 345.885 C 338.367 344.792, 341.398 344.065, 341.601 344.267 C 341.804 344.470, 343.264 349.106, 344.847 354.568 C 352.106 379.628, 364.866 401.356, 381.211 416.489 C 389.047 423.744, 401.372 432.779, 407.269 435.591 C 409.321 436.570, 411 437.919, 411 438.588 C 411 439.258, 406.613 443.311, 401.250 447.595 C 395.887 451.879, 389.475 457.018, 387 459.014 C 379.431 465.119, 348.509 486.093, 329.500 498.014 C 319.600 504.223, 309.700 510.454, 307.500 511.861 C 305.300 513.269, 299.900 515.598, 295.500 517.038 C 285.762 520.226, 281.765 522.224, 276.332 526.625 C 274.039 528.481, 271.526 530, 270.746 530 C 268.973 530, 236.296 515.679, 224.377 509.678 C 214.262 504.586, 198.833 494.665, 191.780 488.717 C 184.880 482.899, 185.477 478.476, 193.500 475.973 C 215.292 469.175, 233.593 446.752, 239.593 419.500 C 241.918 408.938, 242.200 384.151, 240.025 381.530 C 236.525 377.313, 218.630 383.517, 205.542 393.484 C 188.292 406.620, 178.415 425.678, 177.290 448 C 176.810 457.519, 177.008 459.235, 179.411 466.364 C 181.821 473.512, 182.090 478, 180.110 478 C 178.635 478, 163.252 461.413, 159.706 456 C 156.319 450.827, 152 438.157, 152 433.391 C 152 432.062, 153.685 429.860, 156.410 427.627 C 170.031 416.466, 181.983 391.233, 184.891 367.500 C 187.305 347.803, 185.171 321.925, 179.545 302.678 C 176.041 290.687, 173.556 285.993, 170.730 286.025 C 163.704 286.103, 147.619 304.087, 139 321.500 C 132.149 335.342, 129.364 345.024, 127.772 360.537 C 125.782 379.929, 130.163 403.396, 139.092 421.174 C 141.212 425.395, 143.408 429.134, 143.973 429.483 C 145.240 430.266, 145.344 439.670, 144.094 440.442 C 143.020 441.106, 138.527 435.781, 126.420 419.500 C 111.636 399.617, 111.613 399.574, 113.016 394.136 C 116.270 381.517, 114.896 357.081, 109.904 338.782 C 104.960 320.662, 94.750 299.402, 84.470 285.826 C 73.051 270.744, 48.437 249, 42.784 249 C 35.085 249, 32.402 288.481, 38.367 314 C 47.070 351.239, 67.937 381.366, 95.320 396.228 C 107.332 402.747, 107.268 402.662, 112.577 419.500 C 117.071 433.756, 125.684 454.843, 135.756 476.246 C 138.278 481.606, 140.069 486.264, 139.736 486.598 C 138.233 488.100, 121.004 480.867, 120.995 478.730 C 120.986 476.434, 113.833 463.529, 108.815 456.756 C 92.174 434.293, 60.382 415.924, 35.272 414.265 C 27.987 413.783, 26.966 413.926, 26.356 415.515 C 25.300 418.266, 27.584 425.493, 32.987 436.500 C 44.441 459.833, 63.222 476.527, 86.500 484.068 C 92.113 485.886, 96.088 486.374, 106.559 486.530 C 121.276 486.750, 120.964 486.644, 132.500 495.364 C 147.822 506.947, 167.466 528.739, 166.798 533.413 C 166.269 537.120, 162.584 536.912, 114.134 530.450 C 90.414 527.286, 85.047 527.256, 82.212 530.274 C 79.273 533.403, 77.630 541.632, 77.576 553.500 C 77.526 564.548, 78.967 570.277, 82.355 572.497 C 84.632 573.989, 96.962 577.090, 128 583.976 C 193.534 598.515, 210.097 603.791, 243.152 620.659 C 284.244 641.630, 332.212 678.325, 387.500 731.083 C 417.232 759.456, 452.695 791.282, 470.249 805.347 C 484.044 816.400, 506.989 832.623, 521.862 841.839 C 534.947 849.947, 545.935 856.051, 576.371 872.121 C 602.949 886.152, 608.637 893.387, 602.948 905.927 C 598.924 914.796, 583.698 931.516, 561.500 951.442 C 552.869 959.190, 550.500 961.875, 550.500 963.908 C 550.500 965.845, 551.076 966.582, 552.782 966.824 C 555.593 967.223, 571.706 953.200, 589.505 934.866 C 606.849 917.001, 612.308 908.131, 612.246 897.919 C 612.184 887.648, 606.341 880.079, 592.020 871.717 C 587.884 869.302, 575.275 862.451, 564 856.491 C 519.382 832.907, 483.821 808.216, 447.500 775.600 C 429.094 759.071, 403.989 736.036, 387.344 720.404 C 328.848 665.467, 288.802 635.221, 244.500 612.514 C 212.236 595.978, 195.354 590.886, 113.500 572.997 C 87.827 567.387, 83.570 565.952, 84.426 563.198 C 84.716 562.264, 85.189 556.115, 85.478 549.534 C 85.851 541.021, 86.418 537.153, 87.443 536.128 C 88.697 534.874, 90.995 534.973, 105.192 536.890 C 141.780 541.831, 161.699 544.003, 165.221 543.435 C 170.064 542.653, 173.680 539.735, 174.514 535.934 C 175.968 529.315, 167.090 517.153, 150.110 502.500 C 142.069 495.562, 140.936 493.364, 147.022 496.512 C 153.543 499.883, 153.328 497.979, 145.313 481.341 C 135.283 460.520, 116.892 417.761, 117.664 417.056 C 117.999 416.750, 118.463 417.029, 118.695 417.675 C 120.188 421.836, 144.407 454, 146.048 454 C 147.022 454, 147.970 450.210, 147.986 446.250 C 148.007 441.217, 149.505 442.398, 151.303 448.867 C 152.206 452.112, 155.143 458.037, 157.876 462.123 C 163.618 470.707, 178.515 487, 180.622 487 C 181.416 487, 182.387 487.825, 182.782 488.834 C 183.681 491.131, 188.138 494.945, 199 502.713 C 212.349 512.260, 231.974 522.433, 256.500 532.520 C 261.450 534.556, 265.682 536.391, 265.904 536.598 C 266.126 536.805, 264.913 540.018, 263.207 543.737 C 261.502 547.457, 259.813 552.761, 259.454 555.525 C 258.214 565.076, 262.441 574.020, 269.887 577.601 C 273.318 579.252, 274.541 580.539, 275.587 583.601 C 278.332 591.643, 288.539 597.927, 296.445 596.444 C 299.276 595.913, 300.086 596.177, 301.180 597.985 C 303.269 601.438, 309.269 604, 315.264 604 C 322.909 604, 329.774 600.304, 336.285 592.682 C 345.256 582.182, 348.673 579, 350.979 579 C 353.726 579, 370 589.477, 370 591.245 C 370 591.955, 368.851 594.227, 367.447 596.293 C 363.736 601.754, 362 607.448, 362 614.158 C 362 621.444, 363.716 625.742, 368.098 629.429 C 370.442 631.401, 371.847 633.747, 372.715 637.139 C 373.401 639.819, 374.719 643.168, 375.644 644.579 C 377.761 647.810, 386.653 652.978, 390.117 652.991 C 392.039 652.998, 393.409 654.020, 395.278 656.844 C 398.840 662.226, 403.948 664.529, 412 664.380 C 420.120 664.231, 426.086 661.718, 435.612 654.436 C 439.523 651.446, 443.072 649, 443.497 649 C 444.353 649, 455.207 658.634, 473.500 675.629 C 497.277 697.719, 515.294 713.188, 524.613 719.512 C 528.320 722.028, 529.754 724.969, 534.067 738.897 C 534.365 739.858, 532.781 740.823, 529 741.984 C 520.555 744.578, 515.880 747.351, 510.801 752.782 C 506.001 757.913, 503 765.114, 503 771.500 C 503 777.417, 506.003 785.048, 510.067 789.457 C 512.230 791.804, 514 794.148, 514 794.666 C 514 795.184, 515.328 797.702, 516.951 800.261 C 520.286 805.520, 528.699 811.613, 534 812.607 C 535.925 812.968, 538.640 814.320, 540.033 815.611 C 548.758 823.696, 580.131 826.509, 600.500 821.033 C 617.578 816.441, 630.977 807.769, 638.498 796.436 C 641.504 791.908, 642.625 790.936, 644.358 791.352 C 658.144 794.663, 683.279 795.459, 700.747 793.138 L 710.993 791.776 719.603 799.926 C 726.787 806.726, 730.058 808.967, 739.356 813.458 C 745.485 816.419, 753.875 819.657, 758 820.654 C 763.095 821.886, 767.103 823.637, 770.500 826.117 C 777.435 831.180, 780.943 832.812, 789.718 835.056 C 808.299 839.808, 822.920 835.501, 838.243 820.761 C 845.366 813.909, 846.951 811.818, 847.536 808.500 C 847.925 806.300, 849.274 803.375, 850.534 802 C 855.094 797.027, 856.026 785.819, 852.454 778.912 C 849.410 773.025, 842.547 768.899, 834 767.817 C 831.754 767.532, 831.411 766.877, 830.625 761.359 L 829.751 755.218 836.406 747.042 C 840.066 742.545, 844.266 737.044, 845.739 734.818 L 848.417 730.771 853.459 731.561 C 866.052 733.534, 876.235 730.944, 879.970 724.818 C 881.082 722.993, 881.994 720.791, 881.996 719.924 C 881.998 719.058, 883.183 717.258, 884.629 715.924 C 888.227 712.606, 890.265 707.481, 889.454 703.788 C 889.022 701.823, 889.402 699.436, 890.553 696.883 C 892.052 693.559, 892.134 692.391, 891.111 688.975 C 890.450 686.770, 888.513 683.376, 886.806 681.432 C 884.554 678.867, 884.004 677.596, 884.800 676.800 C 885.596 676.004, 886.665 676.220, 888.699 677.589 C 890.239 678.627, 892.396 679.943, 893.491 680.513 C 894.872 681.232, 895.695 683.034, 896.175 686.390 C 896.960 691.877, 899.479 695.107, 905.500 698.347 C 908.902 700.178, 911.145 700.500, 920.500 700.500 C 932.678 700.500, 936.321 699.591, 951.237 692.828 C 956.043 690.649, 960.430 689.148, 960.987 689.492 C 963.305 690.925, 961.159 716.870, 957.637 730 C 951.987 751.060, 942.232 771.789, 929.491 789.810 C 924.704 796.581, 921.046 802.379, 921.362 802.696 C 923.435 804.768, 939.456 787.456, 947.089 774.897 L 952.800 765.500 959.650 765.752 C 970.663 766.157, 991 769.518, 991 770.932 C 991 771.269, 989.409 772.402, 987.465 773.449 C 982.567 776.087, 976.298 783.149, 973.856 788.780 C 970.784 795.865, 971.613 806.578, 975.681 812.350 C 977.316 814.669, 979.204 818.754, 979.877 821.427 C 980.550 824.099, 982.418 828.200, 984.027 830.540 C 986.987 834.842, 994.387 841, 996.596 841 C 997.257 841, 1000.011 843.167, 1002.716 845.817 C 1010.998 853.925, 1027.896 859, 1046.618 859 C 1060.049 859, 1069.099 856.975, 1081 851.306 C 1089.339 847.335, 1091.622 845.634, 1099.676 837.391 C 1107.615 829.266, 1109.301 827.999, 1112.176 827.996 C 1118.611 827.988, 1133.939 824.983, 1145.655 821.433 C 1189.749 808.070, 1220.604 778.360, 1234.909 735.490 C 1237.110 728.896, 1239.486 720.446, 1240.190 716.713 C 1241.436 710.106, 1241.630 709.801, 1247.485 705.221 C 1262.370 693.577, 1284.697 668.395, 1301.764 644 C 1316.108 623.498, 1325.176 607.288, 1335.047 584.500 C 1337.430 579, 1340.187 573.036, 1341.175 571.246 C 1342.163 569.456, 1344.133 565.699, 1345.553 562.896 C 1346.973 560.094, 1348.362 558.028, 1348.639 558.306 C 1348.917 558.584, 1347.803 563.241, 1346.163 568.655 C 1341.190 585.078, 1339.801 591.861, 1340.528 596.168 C 1340.897 598.352, 1341.793 600.367, 1342.518 600.645 C 1343.243 600.924, 1348.685 597.529, 1354.611 593.101 C 1360.536 588.674, 1365.542 585.209, 1365.735 585.402 C 1365.928 585.594, 1363.381 589.520, 1360.076 594.126 C 1352.886 604.147, 1344.949 618.031, 1334.424 639 C 1330.145 647.525, 1325.769 655.772, 1324.699 657.327 C 1322.002 661.248, 1323.800 663.140, 1327.914 660.710 C 1334.654 656.729, 1333.265 659.609, 1324.196 668.423 C 1313.769 678.557, 1306.863 688.571, 1295.894 709.464 C 1289.278 722.066, 1288.011 727.187, 1290.379 731.766 C 1293.791 738.364, 1301.142 738.442, 1327.500 732.162 C 1352.960 726.097, 1378.597 721.194, 1396.443 718.979 C 1416.261 716.519, 1418.661 716.498, 1419.877 718.770 C 1421.639 722.062, 1424.129 736.478, 1423.508 739.796 C 1422.757 743.812, 1422.316 744.007, 1405 747.977 C 1341.884 762.448, 1303.478 776.943, 1219.500 817.986 C 1175.385 839.547, 1155.413 847.647, 1125.555 856.089 C 1093.482 865.158, 1065.558 869.502, 1007 874.533 C 968.388 877.851, 937.430 881.935, 911.500 887.131 C 834.511 902.559, 778.971 930.405, 745.218 970.500 C 734.450 983.292, 731.313 988.467, 733.056 990.568 C 735.454 993.457, 738.330 991.625, 744.936 983 C 762.200 960.457, 784.131 942.832, 813.739 927.708 C 846.465 910.990, 878.800 900.824, 925.500 892.571 C 953.798 887.570, 971.691 885.442, 1027 880.502 C 1090.380 874.840, 1131.684 865.385, 1178.416 845.838 C 1184.969 843.097, 1207.019 832.739, 1227.416 822.820 C 1303.766 785.692, 1342.512 770.861, 1398.500 757.332 C 1408.950 754.807, 1419.180 752.334, 1421.234 751.836 C 1423.288 751.339, 1426.213 749.861, 1427.734 748.552 C 1430.401 746.258, 1430.497 745.838, 1430.422 736.836 C 1430.327 725.583, 1427.905 715.483, 1424.475 712.034 C 1422.218 709.765, 1421.368 709.586, 1413.856 709.804 C 1397.175 710.288, 1366.053 715.585, 1327.838 724.442 C 1307.090 729.252, 1299.110 730.042, 1296.999 727.498 C 1295.975 726.264, 1296.489 724.461, 1299.884 717.386 C 1304.769 707.206, 1313.316 692.504, 1319.434 683.757 C 1326.779 673.255, 1344.020 656.865, 1351.447 653.324 C 1354.446 651.894, 1354.750 651.967, 1359.762 655.340 C 1376.750 666.772, 1405.273 670.995, 1429 665.590 C 1445.862 661.750, 1459.032 656.009, 1474.500 645.755 C 1485.510 638.457, 1489 635.269, 1489 632.509 C 1489 627.352, 1471.453 615.682, 1455.488 610.223 C 1428.790 601.094, 1398.329 604.528, 1376.499 619.129 C 1368.440 624.519, 1357.923 635.292, 1354.848 641.307 C 1353.450 644.040, 1351.668 645.642, 1348.526 646.989 C 1342.939 649.384, 1337.283 650.949, 1336.618 650.285 C 1335.908 649.575, 1347.371 626.890, 1355.205 613.500 C 1362.554 600.941, 1367.449 593.681, 1375.773 583 C 1380.894 576.428, 1381.982 575.529, 1384.559 575.732 C 1418.859 578.436, 1434.151 576.128, 1456.500 564.872 C 1470.350 557.897, 1480.605 550.232, 1491.880 538.427 C 1501.559 528.293, 1511.496 514.856, 1512.619 510.383 C 1513.485 506.933, 1511.629 505.275, 1504.407 503.044 C 1482.558 496.296, 1453.133 498.259, 1431.717 507.894 C 1407.323 518.869, 1386.632 540.712, 1379.809 562.693 L 1377.501 570.127 1370.001 575.050 C 1365.875 577.758, 1359.228 582.294, 1355.228 585.131 C 1351.229 587.969, 1347.786 590.112, 1347.577 589.895 C 1347.051 589.348, 1350.231 575.332, 1353.338 564.500 C 1357.056 551.537, 1360.533 541.672, 1364.154 533.816 L 1367.321 526.946 1375.584 523.074 C 1385.760 518.305, 1391.224 514.593, 1399.596 506.761 C 1421.364 486.399, 1435.122 454.949, 1436.676 422 C 1437.328 408.172, 1435.832 393.404, 1433.548 391.120 C 1431.500 389.071, 1425.064 391.707, 1413.929 399.155 C 1377.001 423.856, 1356.095 471.487, 1361.326 519 L 1362.151 526.500 1357.326 534.609 C 1345.218 554.955, 1341.447 560.954, 1340.750 560.976 C 1339.545 561.014, 1339.888 553.187, 1341.124 552.423 C 1342.677 551.464, 1347.338 540.927, 1349.938 532.500 C 1353.096 522.266, 1355.993 503.755, 1355.964 494 C 1355.878 465.605, 1345.593 435.948, 1328.952 416.113 C 1324.453 410.751, 1322.854 409.500, 1320.497 409.500 C 1317.865 409.500, 1317.199 410.268, 1313.469 417.604 C 1308.676 427.033, 1303.904 440.934, 1301.320 453 C 1299.947 459.414, 1299.505 465.795, 1299.520 479 C 1299.545 501.702, 1301.648 511.531, 1310.216 529 C 1313.670 536.043, 1316.066 539.176, 1324.193 547.278 C 1335.170 558.222, 1335.302 558.588, 1332.921 571.471 C 1329.621 589.321, 1300.037 637.983, 1273.932 668.500 C 1265.092 678.833, 1246.647 697, 1244.994 697 C 1244.195 697, 1244.109 694.236, 1244.690 687.250 C 1247.632 651.845, 1241.600 606.774, 1228.453 565.947 C 1218.130 533.887, 1202.573 500.748, 1186.835 477.295 C 1184.176 473.332, 1182 469.644, 1182 469.099 C 1182 468.553, 1184.530 466.428, 1187.621 464.376 C 1195.648 459.048, 1209.414 445.737, 1215.779 437.150 C 1225.210 424.426, 1233.515 406.730, 1236.974 391.989 C 1238.785 384.271, 1239.176 383.948, 1244.692 385.608 C 1250.933 387.486, 1263.782 387.382, 1269.715 385.406 C 1272.347 384.529, 1276.620 382.468, 1279.211 380.827 C 1283.580 378.058, 1284.173 377.933, 1287.396 379.099 C 1290.190 380.109, 1291.717 380.107, 1295.186 379.088 C 1305.907 375.940, 1315.203 367.112, 1321.142 354.438 C 1324.962 346.287, 1325.127 346.101, 1327.558 347.208 C 1331.265 348.897, 1336.029 346.200, 1341.023 339.585 C 1349.050 328.955, 1353.689 311.504, 1352.472 296.525 L 1351.901 289.500 1355.200 287.486 C 1359.319 284.973, 1360.807 279.901, 1360.918 268 C 1361.060 252.805, 1355.082 233.701, 1346.103 220.649 C 1344.432 218.221, 1340.520 213.749, 1337.409 210.712 C 1331.896 205.330, 1331.794 205.132, 1333.377 202.873 C 1335.545 199.777, 1335.422 196.748, 1332.929 191.861 C 1326.411 179.084, 1308.032 167.220, 1286.356 161.797 C 1279.056 159.971, 1274.777 159.590, 1262 159.627 C 1244.042 159.680, 1234.924 161.456, 1220.383 167.735 C 1208.735 172.765, 1200.399 178.492, 1189.991 188.615 L 1181.482 196.891 1174.491 191.622 C 1149.116 172.497, 1119.062 160.341, 1085 155.425 C 1076.062 154.135, 1068.933 153.876, 1053 154.264 C 1032.640 154.759, 1025.018 155.801, 1008.253 160.383 C 1005.367 161.172, 1002.834 161.521, 1002.625 161.159 C 1002.416 160.796, 1001.473 157.800, 1000.530 154.500 C 997.985 145.594, 990.847 132.464, 983.764 123.662 C 970.376 107.024, 948.965 94.191, 926.685 89.450 C 916.063 87.190, 911.547 87.489, 909.088 90.615 C 907.125 93.111, 906.546 93.241, 896.266 93.480 C 881.128 93.832, 869.299 98.340, 862.152 106.480 C 858.333 110.829, 857.335 114.399, 858.830 118.360 C 859.454 120.015, 859.861 121.444, 859.733 121.537 C 859.605 121.630, 856.125 123.653, 852 126.034 C 839.546 133.220, 828.371 145.273, 821.526 158.901 C 817.586 166.746, 816.023 172.666, 816.011 179.798 C 816.001 185.276, 816.333 186.404, 818.558 188.466 L 821.116 190.837 818.605 195.793 C 814.807 203.288, 812 215.310, 812 224.083 C 812 238.194, 817.842 251, 824.278 251 C 826.571 251, 826.744 251.408, 827.308 258.135 C 828.356 270.637, 838.593 287.873, 845.927 289.484 C 847.463 289.821, 850.020 291.465, 851.609 293.138 C 855.559 297.292, 861.348 300.516, 868.500 302.544 C 871.800 303.479, 874.787 304.410, 875.138 304.613 C 875.490 304.815, 874.499 309.745, 872.936 315.568 C 868.219 333.152, 867.361 344.969, 869.281 365.887 C 869.468 367.921, 868.760 368.528, 864.488 369.995 C 861.732 370.942, 857.502 372.723, 855.089 373.955 C 850.634 376.227, 839.148 386.849, 837.197 390.500 C 836.142 392.473, 836.063 392.475, 831.314 390.653 C 821.126 386.745, 810.197 383.894, 801.034 382.756 L 791.500 381.572 787.300 376.945 C 782.998 372.205, 774.737 367.743, 767.973 366.506 C 763.847 365.752, 759.343 368.579, 758.817 372.254 C 758.538 374.201, 757.988 374.430, 754.250 374.157 C 750.641 373.894, 749.546 374.300, 747 376.847 C 744.847 378.999, 744 380.803, 744 383.234 C 744 386.512, 743.804 386.680, 737.931 388.439 C 731.294 390.427, 718.699 396.271, 712.179 400.387 C 709.902 401.824, 707.444 403, 706.716 403 C 705.988 403, 703.842 401.379, 701.946 399.397 C 700.051 397.416, 696.138 394.448, 693.250 392.802 C 690.362 391.156, 688 389.589, 688 389.321 C 688 389.052, 690.640 385.608, 693.866 381.666 C 704.876 368.216, 712.013 353.981, 716.723 336.074 C 720.424 322.005, 721.074 296.266, 718.139 280 C 716.998 273.675, 715.388 266.259, 714.561 263.521 C 713.734 260.783, 713.382 258.243, 713.779 257.878 C 714.176 257.512, 716.947 256.702, 719.938 256.077 C 734.003 253.137, 748.438 241.927, 754.026 229.602 C 756.884 223.300, 757.179 223, 760.507 223 C 768.121 223, 776.510 210.917, 779.740 195.300 C 781.192 188.276, 781.258 185.941, 780.216 178.328 C 779.552 173.472, 778.741 168.326, 778.415 166.890 C 777.948 164.842, 778.248 164.168, 779.808 163.760 C 785.535 162.263, 787.292 151.443, 784.103 137.327 C 781.545 126.009, 778.718 118.333, 774.388 110.943 C 770.628 104.529, 759.277 92.007, 753.135 87.500 C 750.887 85.850, 749.037 84.269, 749.024 83.987 C 749.011 83.705, 750.013 83.030, 751.250 82.487 C 755.236 80.738, 754.645 76.934, 749.500 71.211 C 739.769 60.388, 722.857 50.457, 706.500 45.960 C 696.136 43.111, 672.049 42.321, 661.625 44.490 M 660.820 52.971 C 651.477 54.942, 639.253 59.822, 630.266 65.169 C 616.909 73.117, 602.821 90.434, 596.958 106.113 L 594.715 112.111 597.970 115.469 C 602.972 120.630, 601.113 121.385, 591.786 117.981 C 587.315 116.349, 578.447 113.708, 572.078 112.110 C 531.126 101.839, 482.046 107.250, 442.639 126.381 C 423.176 135.829, 401.351 151.687, 399.160 157.971 C 398.579 159.637, 397.461 161, 396.674 161 C 395.888 161, 393.145 158.412, 390.578 155.250 C 379.258 141.305, 359.439 128.740, 341 123.819 C 334.098 121.976, 329.868 121.548, 318.500 121.541 C 305.700 121.533, 303.534 121.809, 293.233 124.762 C 281.755 128.053, 271.078 132.838, 263 138.314 C 257.344 142.147, 242.902 156.033, 243.524 157.039 C 243.780 157.453, 247.254 156.535, 251.244 155.001 C 260.943 151.272, 266.282 150.429, 267.896 152.374 C 268.915 153.603, 268.724 154.116, 266.817 155.278 C 252.372 164.076, 248.712 166.570, 243.825 170.946 C 224.817 187.962, 213.688 216.457, 218.069 236.885 C 219.757 244.756, 220.916 244.902, 226.920 237.999 C 234.410 229.387, 237.384 229.856, 233.869 239.095 C 231.246 245.991, 228.995 257.700, 229.017 264.338 C 229.059 276.638, 235.309 294.096, 241.946 300.450 C 244.621 303.011, 245.210 303.209, 246.408 301.950 C 247.167 301.153, 248.554 297.800, 249.489 294.500 C 250.424 291.200, 251.656 287.932, 252.227 287.238 C 254.055 285.015, 256 287.845, 256 292.728 C 256 308.046, 266.447 326.185, 279.151 332.924 C 285.047 336.052, 287.568 335.296, 286.453 330.735 C 285.308 326.050, 285.335 319.062, 286.500 318.836 C 287.050 318.730, 289.163 321.142, 291.194 324.196 C 298.749 335.551, 307.673 340.491, 320.500 340.418 C 327.794 340.376, 336.987 337.926, 339.014 335.483 C 339.897 334.419, 339.905 332.786, 339.048 328.788 C 338.424 325.880, 337.648 319.225, 337.323 314 C 336.998 308.775, 336.386 303.847, 335.963 303.048 C 335.423 302.027, 333.311 301.572, 328.847 301.515 C 318.674 301.384, 310.736 296.178, 305.648 286.300 C 304.742 284.539, 304 282.204, 304 281.109 C 304 278.279, 302.363 277.632, 299.779 279.442 C 298.556 280.299, 295.810 281, 293.677 281 C 288.454 281, 283.779 276.361, 281.597 269.016 C 279.418 261.678, 279.619 256.371, 282.477 245.750 C 283.149 243.251, 282.973 243, 280.543 243 C 268.470 243, 267.664 223.964, 278.933 204.995 C 286.203 192.759, 298.623 182.396, 311.277 178.007 C 319.107 175.292, 331.659 174.369, 339.263 175.949 C 346.790 177.514, 357.243 182.875, 363.486 188.373 L 368.471 192.764 363.264 203.632 C 351.240 228.729, 345.957 248.964, 343.847 278 C 341.485 310.514, 347.742 347.583, 360.014 373.770 C 368.893 392.719, 386.040 413.035, 402 423.517 C 431.891 443.149, 471.832 452.956, 522.030 452.990 C 548.698 453.007, 573.131 448.745, 593.814 440.467 C 601.899 437.231, 603.184 436.361, 605.353 432.661 C 606.695 430.371, 608.739 427.641, 609.896 426.594 C 611.343 425.284, 612 423.484, 612 420.825 C 612 411.553, 626.968 397.838, 639.750 395.398 C 641.996 394.969, 643 394.216, 643 392.961 C 643 391.962, 644.130 390.256, 645.512 389.170 C 649.668 385.900, 657.218 384.659, 669.130 385.288 L 679.917 385.857 685.350 379.989 C 703.788 360.073, 714.468 327.943, 712.575 298.080 C 710.530 265.806, 695.418 220.671, 676.321 189.798 C 666.098 173.272, 648.914 153.602, 635.750 143.358 C 632.587 140.897, 630 138.219, 630 137.408 C 630 134.246, 635.458 125.412, 640.571 120.299 C 646.627 114.243, 657.327 108.628, 665.886 107.015 C 682.346 103.913, 700.574 109.528, 712.571 121.397 C 722.639 131.357, 724.592 140.327, 717.487 143.969 C 715.844 144.811, 714.322 145.603, 714.104 145.730 C 713.886 145.856, 715.614 148.027, 717.943 150.554 C 724.434 157.596, 727.314 164.735, 726.816 172.551 C 726.327 180.227, 723.735 183.699, 717.782 184.651 C 714.872 185.116, 714.063 185.654, 714.421 186.882 C 717.225 196.488, 715.132 204.880, 708.209 211.796 C 705.619 214.383, 702.605 216.996, 701.512 217.602 C 699.587 218.668, 699.576 218.860, 701.176 223.602 C 704.055 232.138, 709.469 246.452, 710.309 247.750 C 711.898 250.205, 720.155 249.193, 727.528 245.641 C 741.375 238.971, 749.651 226.664, 750.688 211.202 C 751.469 199.557, 753.318 197.186, 756.955 203.166 C 758.014 204.908, 759.172 208.058, 759.528 210.166 C 759.920 212.486, 760.731 214, 761.582 214 C 763.866 214, 768.870 206.161, 771.011 199.230 C 775.510 184.663, 772.402 168.143, 762.287 152.858 C 760.048 149.475, 759.873 147, 761.872 147 C 762.287 147, 765.682 148.843, 769.417 151.096 C 777.328 155.867, 778.577 155.450, 778.355 148.109 C 777.990 136.083, 770.768 118.299, 761.672 107.026 C 748.962 91.275, 734.639 82.536, 709.563 75.231 C 707.947 74.760, 706.448 73.843, 706.231 73.194 C 705.247 70.240, 716.957 68.873, 730.250 70.389 C 733.988 70.816, 737 70.772, 737 70.292 C 737 68.832, 724.111 60.852, 716.777 57.771 C 701.358 51.292, 678.199 49.306, 660.820 52.971 M 918.543 96.931 C 918.226 97.443, 918.425 98.144, 918.984 98.490 C 920.192 99.236, 920.341 102.671, 919.197 103.378 C 918.755 103.651, 915.043 102.968, 910.947 101.861 C 897.692 98.276, 882.847 100.441, 872.153 107.517 C 867.611 110.523, 865.098 114.498, 866.717 116.117 C 867.309 116.709, 870.501 117.513, 873.811 117.903 C 880.224 118.659, 883.817 120.583, 882.073 122.327 C 881.517 122.883, 877.820 124.162, 873.858 125.168 C 850.463 131.109, 830.043 150.223, 824.359 171.500 C 821.710 181.418, 822.783 182.728, 830.500 179 C 838.980 174.904, 840.611 176.950, 834.537 184.065 C 829.350 190.142, 822.895 202.120, 820.598 209.932 C 817.704 219.770, 819.331 236.854, 823.549 240.918 C 825.053 242.367, 825.372 242.255, 827.346 239.589 C 832.578 232.520, 833.803 231.443, 835.130 232.750 C 836.144 233.747, 836.158 235.174, 835.200 239.810 C 832.374 253.491, 834.879 267.875, 841.415 275.500 C 844.173 278.717, 845.094 279.255, 846.122 278.250 C 848.163 276.254, 848.858 276.720, 851.168 281.634 C 854.658 289.058, 868.431 296.780, 876.495 295.833 C 879.001 295.538, 879.584 294.751, 881.552 289 C 882.775 285.425, 885.364 278.778, 887.305 274.228 L 890.833 265.956 887.024 264.012 C 881.897 261.397, 876.510 254.893, 874.998 249.495 C 874.222 246.723, 874.019 243.007, 874.452 239.536 C 875.133 234.085, 875.105 234, 872.588 234 C 871.176 234, 868.569 232.693, 866.766 231.082 C 863.633 228.283, 863.501 227.865, 863.530 220.832 C 863.564 212.323, 865.587 207.587, 872.321 200.245 C 875.242 197.061, 876.086 195.548, 875.125 195.220 C 872.834 194.437, 870.089 191.203, 869.406 188.482 C 867.462 180.738, 879.907 165.685, 893.413 159.445 C 914.071 149.900, 934.154 153.071, 949.247 168.261 C 954.858 173.908, 961 184.108, 961 187.779 C 961 188.890, 958.337 191.565, 954.250 194.557 C 938.816 205.859, 919.635 227.590, 909.285 245.500 C 896.271 268.021, 885.540 294.705, 879.326 320 C 876.600 331.095, 875.071 353.319, 876.416 362.288 L 877.083 366.737 884.219 367.248 C 890.611 367.705, 891.622 368.072, 893.927 370.767 C 895.923 373.102, 897.616 373.916, 901.477 374.400 C 908.045 375.223, 917.585 379.819, 922.250 384.408 C 925.110 387.221, 926 388.895, 926 391.463 C 926 394.342, 926.716 395.356, 930.949 398.463 C 940.013 405.116, 947.712 419.505, 948.744 431.720 C 949.142 436.437, 948.879 438.535, 947.656 440.402 C 946.241 442.562, 946.193 443.807, 947.263 450.536 C 948.299 457.045, 948.901 458.505, 951.231 460.165 C 954.718 462.647, 976.475 473.455, 982.183 475.541 C 1012.489 486.610, 1028.483 489.449, 1060.500 489.438 C 1131.068 489.414, 1184.340 468.602, 1211.195 430.567 C 1227.821 407.019, 1237 372.709, 1237 334.114 C 1237 303.156, 1230.031 274.422, 1217.017 251.726 C 1214.258 246.914, 1212 242.352, 1212 241.588 C 1212 239.342, 1222.146 230.733, 1228.393 227.679 C 1237.320 223.315, 1246.919 221.658, 1256.108 222.895 C 1275.314 225.480, 1289.761 236.166, 1299.193 254.764 C 1303.236 262.738, 1303.500 263.763, 1303.500 271.521 C 1303.500 281.773, 1301.894 284.265, 1295.540 283.875 C 1292.560 283.692, 1291.581 283.984, 1291.808 284.988 C 1291.978 285.736, 1292.765 288.840, 1293.558 291.885 C 1296.724 304.040, 1294.654 314.748, 1288.066 320.291 C 1284.442 323.340, 1281.785 323.658, 1277.705 321.530 C 1275.179 320.212, 1274.853 320.237, 1274.320 321.786 C 1269.532 335.705, 1262.771 341.709, 1250.529 342.913 L 1244.558 343.500 1243.390 354 C 1242.747 359.775, 1241.895 367.089, 1241.495 370.253 L 1240.769 376.005 1244.391 377.519 C 1249.710 379.741, 1258.739 380.404, 1265.261 379.050 C 1272.726 377.500, 1279.527 372.831, 1284.269 366 C 1289.922 357.857, 1293.417 358.374, 1291.221 367.029 C 1290.546 369.687, 1290.543 371.218, 1291.211 371.631 C 1293.419 372.995, 1300.673 369.385, 1305.649 364.444 C 1313.426 356.724, 1317.978 346.350, 1319.563 332.737 C 1319.932 329.567, 1320.699 326.686, 1321.269 326.334 C 1322.649 325.481, 1324.719 328.453, 1326.780 334.250 C 1327.828 337.197, 1329.069 339, 1330.048 339 C 1334.046 339, 1340.375 328.396, 1343.453 316.540 C 1346.430 305.069, 1345.003 288.980, 1340.011 277.738 C 1337.979 273.164, 1338.008 271, 1340.102 271 C 1340.643 271, 1343.331 273.100, 1346.075 275.667 C 1352.280 281.471, 1353.321 280.767, 1353.844 270.418 C 1354.628 254.883, 1347.300 234.337, 1335.931 220.194 C 1330.301 213.190, 1320.639 205.635, 1311.808 201.330 C 1306.187 198.589, 1304.665 196.723, 1307.250 195.738 C 1308.477 195.270, 1316.460 196.199, 1322.629 197.528 C 1333.861 199.947, 1317.753 182.958, 1302 175.771 C 1285.659 168.316, 1263.412 165.384, 1246.115 168.406 C 1234.169 170.494, 1217.899 176.841, 1208.679 183.011 C 1201.770 187.635, 1191.889 197.180, 1185.404 205.495 L 1182.308 209.465 1177.559 204.717 C 1174.947 202.105, 1167.774 196.614, 1161.620 192.516 C 1142.635 179.873, 1120.870 170.745, 1096.774 165.322 C 1085.075 162.688, 1083.282 162.559, 1058.500 162.568 C 1029.342 162.578, 1021.625 163.662, 1001.125 170.626 C 989.307 174.640, 987.134 174.195, 991.923 168.741 C 993.615 166.813, 995 164.521, 995 163.647 C 995 162.773, 993.660 158.386, 992.022 153.899 C 982.200 126.984, 957.825 105.244, 929.289 97.946 C 920.677 95.743, 919.354 95.618, 918.543 96.931 M 663.424 114.882 C 653.244 117.797, 643.599 124.945, 639.802 132.389 L 637.748 136.414 643.624 141.398 C 662.489 157.398, 678.243 177.417, 690.502 200.969 C 695.895 211.328, 696.759 212.474, 699.002 212.247 C 702.644 211.879, 707.635 205.967, 709.443 199.880 C 711.100 194.299, 710.760 189.530, 708.366 184.800 C 705.342 178.822, 707.377 175.890, 713.154 177.904 C 723.756 181.600, 723.788 165.359, 713.200 154.397 C 711.130 152.254, 707.875 149.274, 705.968 147.777 C 702.714 145.222, 702.611 144.966, 704.295 143.633 C 705.282 142.853, 708.121 141.909, 710.603 141.537 C 718.283 140.385, 717.788 135.338, 709.179 127 C 696.902 115.110, 679.097 110.394, 663.424 114.882 M 903.251 162.488 C 891.755 165.708, 881.425 173.388, 877.329 181.759 C 874.968 186.585, 874.857 187.286, 876.235 188.663 C 877.078 189.506, 879.624 190.291, 881.893 190.407 C 888.185 190.728, 889.271 192.612, 885.030 195.850 C 875.334 203.254, 870.307 210.612, 869.335 218.822 C 868.901 222.483, 869.188 224.011, 870.648 225.814 C 872.423 228.006, 872.754 228.058, 877.253 226.855 C 883.627 225.150, 884.675 226.292, 882.050 232.078 C 877.757 241.540, 880.533 252.819, 888.293 257.447 C 893.334 260.453, 893.932 260.072, 898.544 250.914 C 908.501 231.141, 926.348 209.224, 944.509 194.467 L 953.994 186.759 951.325 181.856 C 947.666 175.133, 940.252 168.481, 932.241 164.732 C 926.661 162.121, 924.103 161.545, 917.017 161.306 C 911.709 161.126, 906.522 161.572, 903.251 162.488 M 318.227 183.447 C 303.227 187.079, 289.293 198.549, 282 213.267 C 276.992 223.374, 275.760 231.256, 278.636 234.789 L 280.500 237.077 286.775 234.364 C 294.890 230.855, 296.270 231.869, 292.624 238.661 C 288.438 246.457, 287 251.780, 287 259.478 C 287 265.343, 287.430 267.344, 289.282 270.102 C 292.549 274.966, 295.820 275.061, 300.934 270.440 C 305.900 265.954, 307.450 266.711, 308.319 274.044 C 309.692 285.640, 318.484 295, 328.005 295 C 335.273 295, 335.675 294.281, 336.386 280 C 337.714 253.351, 344.968 225.026, 356.205 202.615 C 360.723 193.603, 360.904 194.161, 351.657 188.620 C 341.800 182.713, 329.267 180.774, 318.227 183.447 M 613.655 217.409 C 606.595 220.017, 603.037 225.126, 606.359 227.883 C 607.378 228.729, 608.786 228.634, 611.985 227.505 C 620.450 224.519, 627.324 225.791, 637.296 232.190 C 640.716 234.384, 642.427 234.973, 643.185 234.215 C 646.167 231.233, 639.433 222.404, 631.504 218.901 C 625.697 216.335, 618.247 215.712, 613.655 217.409 M 1243.174 230.025 C 1237.453 230.858, 1227.357 235.477, 1222.525 239.474 L 1219.549 241.934 1225.186 252.717 C 1236.647 274.644, 1242.570 297.091, 1243.863 323.500 L 1244.500 336.500 1247.408 336.832 C 1257.769 338.013, 1268.907 327.868, 1268.978 317.184 C 1269.004 313.320, 1270.549 309.983, 1272.285 310.041 C 1272.953 310.063, 1275.058 311.413, 1276.962 313.041 C 1278.866 314.668, 1281.159 316, 1282.057 316 C 1286.734 316, 1290.434 304.969, 1288.813 295.862 C 1288.288 292.913, 1286.540 287.841, 1284.929 284.590 C 1283.318 281.340, 1282 278.063, 1282 277.309 C 1282 274.975, 1284.771 274.717, 1289.928 276.571 C 1294.178 278.099, 1295.110 278.154, 1296.549 276.959 C 1297.905 275.834, 1298.105 274.513, 1297.598 270.034 C 1296.126 257.041, 1283.771 240.811, 1270.593 234.559 C 1259.788 229.433, 1253.914 228.461, 1243.174 230.025 M 437.365 250.089 C 428.208 252.743, 418 264.155, 418 271.737 C 418 276.107, 420.739 277.337, 422.871 273.925 C 423.705 272.591, 426.693 269.208, 429.511 266.406 C 434.999 260.950, 441.508 258, 448.056 258 C 454.921 258, 455.888 253.105, 449.546 250.455 C 445.673 248.837, 442.060 248.728, 437.365 250.089 M 44.675 258.725 C 43.342 260.905, 41.948 279.621, 42.494 288 C 43.281 300.065, 46.309 316.628, 49.534 326.507 C 55.257 344.039, 66.626 362.556, 78.821 374.207 C 86.963 381.986, 99.733 391.283, 101.107 390.434 C 101.529 390.173, 99.412 384.006, 96.404 376.730 C 84.921 348.959, 79.813 335.854, 80.285 335.381 C 81.083 334.583, 93.304 358.310, 102.365 378.250 C 104.301 382.512, 106.362 386, 106.943 386 C 108.471 386, 108.239 372.441, 106.503 360.226 C 100.729 319.608, 81.374 286.085, 49.324 261.193 C 47.028 259.409, 44.936 258.299, 44.675 258.725 M 616.500 265.603 C 611.529 268.305, 607.264 272.972, 604.825 278.382 C 601.581 285.574, 601.647 298.931, 604.968 307.441 C 609.846 319.941, 622.433 327.873, 632.994 325.102 C 641.252 322.935, 646.154 319.102, 649.797 311.961 C 655.780 300.234, 654.875 287.571, 647.237 276.143 C 641.867 268.110, 635.786 264.605, 626.597 264.248 C 621.504 264.050, 618.653 264.432, 616.500 265.603 M 953.548 265.772 C 944.922 268.643, 936.608 278.761, 941.373 280.590 C 942.129 280.880, 944.885 279.761, 947.498 278.103 C 954.512 273.655, 961.582 272.446, 968.617 274.491 C 975.135 276.386, 977 275.984, 977 272.686 C 977 269.754, 974.326 267.236, 969.316 265.449 C 964.297 263.659, 959.608 263.755, 953.548 265.772 M 533.257 267.060 C 521.147 271.852, 512.593 284.046, 509.336 301.164 C 506.123 318.050, 509.404 347.070, 515.984 359.968 C 519.207 366.287, 526.176 372.548, 532.704 374.991 C 535.899 376.186, 542.291 377.406, 547.425 377.802 L 556.500 378.500 556.807 382.190 C 557.232 387.301, 554.723 391.572, 549.729 394.240 C 546.214 396.119, 543.981 396.493, 536.500 396.459 C 528.773 396.424, 526.695 396.028, 521.807 393.663 C 513.946 389.860, 509.569 385.651, 510.450 382.742 C 511.677 378.686, 511.523 377.581, 509.677 377.201 C 507.532 376.759, 500.831 383.580, 498.951 388.119 C 497.172 392.413, 498.980 393.948, 502.528 391.157 L 505.198 389.056 510.922 394.095 C 514.385 397.143, 517.168 400.589, 517.967 402.817 C 521.575 412.882, 531.463 423.607, 539.734 426.425 C 547.079 428.928, 558.051 428.508, 564.455 425.478 C 573.178 421.351, 580.954 411.312, 583.899 400.374 C 584.795 397.047, 586.014 395.610, 590.425 392.681 C 597.201 388.182, 602.759 380.620, 600.920 378.403 C 599.853 377.118, 599.058 377.611, 595.339 381.862 C 587.155 391.218, 574.165 394.837, 566.201 389.981 C 563.025 388.045, 562.912 387.760, 563.201 382.369 L 563.500 376.769 569.500 374.580 C 581.489 370.207, 590.390 362.147, 593.696 352.671 C 599.169 336.984, 591.790 305.542, 577.930 285.493 C 568.291 271.550, 559.435 265.866, 546.500 265.322 C 540.184 265.056, 537.396 265.422, 533.257 267.060 M 535.845 273.485 C 530.264 275.538, 527.324 277.791, 523.593 282.873 C 516.575 292.433, 513.331 308.894, 515.028 326.325 C 517.604 352.776, 524.252 365.597, 537.432 369.529 C 544.531 371.647, 557.439 371.417, 565.145 369.036 C 586.283 362.503, 593 348.026, 586.599 322.793 C 580.355 298.175, 568.800 279.897, 555.732 273.965 C 550.743 271.700, 541.316 271.473, 535.845 273.485 M 615.306 276.413 C 612.904 278.479, 612.500 279.572, 612.500 284 C 612.500 288.428, 612.904 289.521, 615.306 291.587 C 619.318 295.038, 624.315 294.839, 628.077 291.077 C 636.914 282.240, 624.758 268.283, 615.306 276.413 M 163.469 299.778 C 149.736 312.985, 140.663 330.155, 136.463 350.885 C 134.108 362.510, 134.847 386.158, 137.915 397.319 C 140.502 406.734, 144.910 418, 146.005 418 C 146.441 418, 147.099 414.738, 147.469 410.750 C 148.229 402.560, 152.947 372.722, 153.584 372.083 C 154.824 370.841, 154.814 373.818, 153.542 385.058 C 151.395 404.029, 150.574 421, 151.803 421 C 154.261 421, 162.521 409.724, 167.552 399.500 C 176.935 380.432, 180.270 360.788, 178.147 337.081 C 177.478 329.611, 176.273 320.350, 175.469 316.500 C 173.561 307.370, 169.882 295, 169.073 295 C 168.723 295, 166.201 297.150, 163.469 299.778 M 446.230 296.982 C 431.207 303.801, 426.068 325.090, 435.275 342.365 C 442.032 355.041, 456.397 360.338, 468.500 354.617 C 474.303 351.873, 477.881 348.308, 481.160 342 C 484.478 335.619, 484.469 320.853, 481.142 313.533 C 474.046 297.918, 459.432 290.990, 446.230 296.982 M 1131.098 297.265 C 1124.383 300.718, 1126.265 304.474, 1135.112 305.276 C 1142.525 305.949, 1149.086 310.008, 1154.518 317.285 C 1158.553 322.689, 1161.300 323.222, 1161.820 318.702 C 1161.996 317.173, 1161.171 313.919, 1159.986 311.472 C 1154.815 300.789, 1139.189 293.104, 1131.098 297.265 M 445.400 308.400 C 440.868 312.932, 440.696 317.850, 444.923 322.077 C 453.743 330.897, 466.485 317.672, 458.411 308.077 C 454.717 303.686, 449.997 303.803, 445.400 308.400 M 951.144 308.146 C 931.505 313.799, 923.551 344.322, 937.804 359.342 C 944.089 365.966, 954.868 368.257, 963.162 364.732 C 968.083 362.640, 974.119 356.433, 977.077 350.423 C 980.644 343.173, 981.071 329.361, 977.952 322.110 C 975.165 315.632, 968.559 309.630, 962.549 308.117 C 957.405 306.821, 955.732 306.826, 951.144 308.146 M 1027.723 313.358 C 1013.468 317.377, 998.868 334.926, 991.433 356.981 C 984.978 376.130, 984.571 388.545, 990.034 399.694 C 993.621 407.011, 997.890 410.693, 1008.443 415.569 L 1016 419.061 1016 424.408 C 1016 431.062, 1014.725 432.248, 1006.972 432.808 C 999.069 433.380, 993.082 430.511, 988.305 423.862 C 984.677 418.812, 983.315 418.016, 982.396 420.410 C 981.473 422.816, 984.727 427.642, 990.991 433.156 C 994.296 436.065, 997 438.907, 997.001 439.472 C 997.001 440.038, 998.288 443.218, 999.859 446.540 C 1006.675 460.948, 1021.879 467.385, 1036.326 461.979 C 1041.638 459.992, 1045.929 456.595, 1044.691 455.358 C 1044.344 455.011, 1041.685 455.781, 1038.780 457.069 C 1028.357 461.692, 1014.266 459.234, 1007.030 451.532 C 1004.700 449.051, 1004.694 448.995, 1006.583 446.908 C 1009.692 443.472, 1013.975 441.733, 1017.997 442.273 C 1020.016 442.544, 1022.451 442.327, 1023.408 441.791 C 1024.652 441.095, 1026.481 441.383, 1029.824 442.802 C 1041.861 447.911, 1053.784 445.883, 1065.292 436.769 C 1068.902 433.910, 1069.175 433.848, 1070.979 435.481 C 1073.020 437.328, 1075 436.796, 1075 434.401 C 1075 432.194, 1071.505 425.764, 1069.144 423.629 C 1066.166 420.936, 1063.588 422.192, 1064.343 425.967 C 1064.850 428.498, 1064.367 429.386, 1060.849 432.397 C 1046.633 444.566, 1022.048 439.079, 1023.226 424 L 1023.500 420.500 1033.158 419.933 C 1049.778 418.956, 1058.826 412.991, 1065.590 398.552 C 1070.477 388.120, 1072.396 377.851, 1072.330 362.500 C 1072.247 343.441, 1068.692 332.045, 1059.829 322.430 C 1052.044 313.984, 1038.788 310.238, 1027.723 313.358 M 948.272 319.528 C 945.062 322.738, 944.795 323.435, 945.309 327.268 C 945.992 332.360, 948.853 335, 953.688 335 C 961.719 335, 966.223 324.132, 960.545 318.455 C 956.892 314.801, 952.626 315.174, 948.272 319.528 M 1026.692 320.972 C 1020.041 323.571, 1015.595 327.196, 1010.263 334.370 C 997.673 351.307, 990.015 379.306, 994.176 393.193 C 998.430 407.393, 1021.261 417.184, 1039.577 412.664 C 1054.318 409.027, 1060.676 400.268, 1064.502 378.328 C 1068.126 357.547, 1064.711 338.129, 1055.509 327.193 C 1049.298 319.811, 1036.651 317.081, 1026.692 320.972 M 1118.500 339.935 C 1110.274 341.938, 1104.032 347.570, 1099.642 356.952 C 1097.041 362.511, 1096.608 364.615, 1096.558 371.959 C 1096.491 381.807, 1098.463 387.309, 1104.066 392.912 C 1116.911 405.757, 1137.347 400.777, 1145.560 382.800 C 1147.998 377.464, 1148.443 375.199, 1148.469 368 C 1148.496 360.504, 1148.146 358.801, 1145.500 353.578 C 1140.083 342.887, 1129.123 337.349, 1118.500 339.935 M 1113.923 350.923 C 1111.561 353.285, 1111 354.707, 1111 358.334 C 1111 362.118, 1111.483 363.228, 1114.077 365.411 C 1118.112 368.807, 1122.126 368.753, 1126.046 365.250 C 1128.240 363.290, 1129.285 361.294, 1129.687 358.298 C 1130.186 354.573, 1129.905 353.751, 1127.202 351.048 C 1123.039 346.885, 1118.009 346.837, 1113.923 350.923 M 765 374.138 C 765 375.314, 766.800 378.229, 769 380.616 C 771.200 383.003, 773 385.429, 773 386.009 C 773 388.547, 769.612 387.937, 764.366 384.455 C 754.930 378.192, 747.784 379.675, 752.884 386.838 C 755.174 390.054, 754.234 392, 750.390 392 C 747.220 392, 731.081 397.419, 724.820 400.586 C 718.122 403.974, 709.531 409.780, 703.522 414.981 C 699.235 418.691, 696 420.089, 696 418.232 C 696 417.810, 697.125 415.809, 698.500 413.785 C 699.875 411.762, 701 409.625, 701 409.036 C 701 407.013, 691.494 398.736, 686.500 396.412 C 677.841 392.382, 669.340 390.695, 660.673 391.287 C 656.368 391.581, 652.560 392.107, 652.210 392.456 C 651.861 392.805, 652.136 393.989, 652.822 395.086 C 654.436 397.671, 653.548 398.997, 650.191 399.012 C 642.123 399.047, 628.121 405.555, 623.321 411.500 C 619.935 415.694, 620.018 416.390, 623.912 416.449 C 628.836 416.523, 628.751 418.387, 623.663 421.888 C 618.245 425.615, 611.502 433.118, 608.774 438.452 C 603.673 448.427, 600.816 461.919, 602.957 465.920 L 604.114 468.082 607.134 465.541 C 612.856 460.726, 613.693 462.432, 610.340 472.073 C 608.263 478.044, 607.857 480.736, 608.239 485.988 C 608.738 492.865, 611.980 501.767, 614.968 504.471 C 616.635 505.980, 616.892 505.848, 618.889 502.464 C 620.064 500.472, 621.548 499.016, 622.187 499.229 C 622.826 499.442, 623.922 502.429, 624.624 505.868 C 627.148 518.244, 636.759 526.729, 649.402 527.744 C 652.880 528.023, 655.968 527.858, 656.264 527.376 C 656.560 526.894, 656.952 521.396, 657.135 515.158 L 657.469 503.816 654.484 502.536 C 650.450 500.805, 647.316 497.219, 645.674 492.456 C 644.768 489.831, 643.626 488.398, 642.279 488.197 C 636.337 487.309, 633.241 477.032, 636.280 468.281 C 637.702 464.186, 637.675 464.017, 635.372 462.508 C 633.548 461.313, 633 460.054, 633 457.059 C 633 452.242, 633.809 450, 635.547 450 C 636.365 450, 636.999 451.448, 637.190 453.750 C 637.492 457.407, 637.600 457.500, 641.500 457.500 C 643.700 457.500, 645.491 457.950, 645.481 458.500 C 645.470 459.050, 644.233 461.848, 642.731 464.717 C 640.709 468.580, 640 471.377, 640 475.498 C 640 481.595, 641.612 483.348, 645.173 481.124 C 647.910 479.415, 649 480.550, 649 485.109 C 649 491.507, 652.781 497, 657.185 497 C 658.078 497, 659.053 493.676, 660.217 486.662 C 662.281 474.218, 667.483 457.911, 672.971 446.677 C 675.187 442.141, 677 437.895, 677 437.241 C 677 436.586, 675.538 435.265, 673.750 434.305 C 670.337 432.471, 660.109 431.964, 654.652 433.359 C 650.756 434.355, 651.571 432.159, 656.080 429.509 C 661.439 426.361, 671.153 426.708, 677.204 430.265 C 679.791 431.786, 682.481 432.911, 683.180 432.765 C 685.850 432.209, 684.939 436.928, 681.053 443.786 C 673.448 457.207, 667.606 475.575, 664.899 494.582 C 663.046 507.588, 663.306 533.160, 665.386 542.500 C 670.586 565.843, 683.010 583.017, 703.500 595.182 C 722.338 606.367, 752.640 612.757, 781.928 611.722 C 798.645 611.132, 806.142 609.684, 824.993 603.409 C 862.803 590.821, 885.625 571.939, 894.498 545.901 C 899.502 531.218, 899.147 510.541, 893.504 488 C 887.284 463.152, 878.444 442.961, 867.372 428.311 C 863.709 423.465, 860.665 418.825, 860.606 418 C 860.544 417.120, 861.531 416.360, 863 416.159 C 864.375 415.971, 866.183 415.208, 867.018 414.464 C 869.685 412.086, 877.390 409.045, 880.807 409.022 C 885.698 408.989, 893.137 411.087, 892.711 412.379 C 892.506 413.001, 889.039 413.750, 884.921 414.061 C 877.644 414.611, 872.552 416.426, 870.144 419.327 C 869.155 420.518, 869.967 422.225, 874.573 428.643 C 880.953 437.532, 889.721 454.901, 893.350 465.843 C 894.690 469.882, 896.200 473.600, 896.706 474.106 C 897.267 474.667, 898.562 474.031, 900.018 472.481 C 901.900 470.478, 902.497 468.558, 902.821 463.468 C 903.199 457.539, 903.421 457, 905.494 457 C 911.215 457, 911.170 450.379, 905.392 441.979 C 901.728 436.652, 901.546 434, 904.846 434 C 905.896 434, 907.288 433.357, 907.940 432.572 C 909.347 430.877, 907.289 426.123, 903.304 421.860 C 900.557 418.921, 901.620 417.191, 905.046 419.025 C 907.877 420.540, 913 428.811, 913 431.867 C 913 433.229, 912.265 435.155, 911.367 436.147 C 909.851 437.823, 909.887 438.309, 911.867 442.912 C 913.103 445.785, 914 449.982, 914 452.893 C 914 457.434, 913.665 458.182, 910.500 460.707 C 907.771 462.885, 907 464.227, 907 466.800 C 907 471.076, 904.812 475.219, 900.965 478.230 L 897.891 480.636 900.003 489.568 C 903.888 505.997, 903.184 504.538, 907.054 504.193 C 912.372 503.719, 920.868 498.998, 924.601 494.442 C 929.455 488.519, 931.259 482.765, 930.460 475.756 C 929.900 470.847, 930.058 469.915, 931.547 469.344 C 933.242 468.693, 933.854 469.212, 936.656 473.663 C 937.687 475.302, 938.059 474.961, 940.106 470.500 C 941.834 466.735, 942.410 463.646, 942.437 457.996 C 942.471 451.151, 942.105 449.753, 938.280 442.081 C 935.973 437.454, 934.318 433.294, 934.602 432.835 C 935.440 431.478, 938.208 431.878, 940.150 433.636 C 941.828 435.154, 942.007 435.145, 942.635 433.508 C 943.568 431.076, 941.296 422.511, 938.131 416.526 C 934.315 409.311, 925.395 400.812, 917.623 396.986 C 910.188 393.326, 909.003 391, 914.573 391 C 919.756 391, 918.756 388.271, 912.121 384.306 C 905.193 380.166, 895.059 377.837, 889 378.991 C 883.676 380.006, 881.926 378.949, 883.844 375.878 C 884.556 374.738, 884.912 373.578, 884.635 373.301 C 884.357 373.024, 880.839 373.334, 876.815 373.989 C 864.162 376.051, 851.963 382.654, 845.747 390.805 C 842.124 395.556, 840.960 399, 842.977 399 C 843.514 399, 844.706 400.148, 845.626 401.551 C 848.063 405.272, 846.077 406.897, 842.327 404.250 C 832.598 397.380, 815.733 391.392, 800.105 389.260 L 788.500 387.677 784.234 382.908 C 780.285 378.495, 769.631 372, 766.340 372 C 765.603 372, 765 372.962, 765 374.138 M 228 388.937 C 218.513 391.841, 204.537 401.931, 198.209 410.443 C 187.427 424.949, 182.062 444.643, 184.642 460.250 C 184.983 462.313, 185.676 464, 186.183 464 C 186.690 464, 188.509 460.962, 190.226 457.250 C 194.253 448.540, 201.827 435.388, 203.722 433.816 C 205.377 432.442, 205.089 433.217, 198.998 446.500 C 190.782 464.417, 189.037 468.703, 189.692 469.359 C 190.633 470.300, 201.305 465.010, 206.735 460.911 C 216.976 453.178, 226.848 437.741, 230.899 423.122 C 233.528 413.634, 235.389 398.079, 234.558 392.536 C 233.839 387.742, 233.147 387.362, 228 388.937 M 1421.455 402.569 C 1394.805 418.617, 1376.885 446.182, 1369.585 482.357 C 1367.963 490.396, 1367.380 511, 1368.774 511 C 1369.200 511, 1371.719 506.613, 1374.372 501.250 C 1379.439 491.009, 1394.542 463.408, 1396.274 461.226 C 1400.526 455.866, 1395.119 469.087, 1380.929 498.740 C 1376.655 507.672, 1373.516 515.201, 1373.953 515.471 C 1375.208 516.247, 1386.047 508.827, 1393.423 502.143 C 1413.756 483.716, 1425.330 459.470, 1429.029 427.553 C 1430.167 417.731, 1429.555 400.461, 1428.036 399.522 C 1427.623 399.267, 1424.662 400.638, 1421.455 402.569 M 535.204 402.746 C 528.488 402.985, 525.762 403.457, 525.382 404.448 C 523.880 408.361, 533.888 418.752, 541.734 421.425 C 547.932 423.537, 556.522 423.400, 561.565 421.110 C 566.333 418.944, 573 413.349, 573 411.513 C 573 409.275, 565.263 403.140, 561.567 402.447 C 557.580 401.699, 554.554 402.469, 555.496 403.993 C 557.057 406.520, 554.611 406.808, 551.211 404.497 C 549.189 403.124, 546.853 402.093, 546.018 402.208 C 545.183 402.322, 540.317 402.564, 535.204 402.746 M 1318.433 423.685 C 1302.594 460.331, 1302.111 497.049, 1317.085 526.002 C 1320.914 533.406, 1332.168 547.088, 1333.432 545.876 C 1333.790 545.532, 1333.396 537.882, 1332.557 528.876 C 1331.719 519.869, 1330.544 507.169, 1329.946 500.653 C 1328.968 489.978, 1329.099 486.766, 1330.458 488.125 C 1330.868 488.534, 1333.738 507.811, 1337.028 532.250 C 1337.676 537.063, 1338.517 541, 1338.897 541 C 1340.065 541, 1344.845 524.995, 1346.447 515.724 C 1350.915 489.862, 1348.548 468.900, 1338.573 446 C 1334.394 436.407, 1324.088 420.663, 1321.674 420.185 C 1320.636 419.979, 1319.508 421.197, 1318.433 423.685 M 35 421.942 C 35 426.966, 46.951 447.382, 55.272 456.571 C 63.352 465.495, 78.077 474.238, 90.420 477.442 C 98.380 479.509, 109.383 480.609, 108.884 479.288 C 108.673 478.730, 104.068 474.738, 98.652 470.419 C 93.235 466.100, 89.221 462.426, 89.730 462.257 C 90.240 462.087, 94.838 464.456, 99.947 467.522 C 105.057 470.587, 109.472 472.862, 109.758 472.576 C 110.707 471.626, 103.673 461.110, 97.549 454.325 C 89.272 445.154, 79.045 437.250, 68.427 431.819 C 55.028 424.966, 35 419.048, 35 421.942 M 421.959 445.378 C 420.474 448.951, 417.182 466.913, 415.979 478 C 414.499 491.645, 414.456 516.962, 415.892 529 C 417.567 543.038, 421.054 563.233, 422.161 565.300 C 423.046 566.955, 424.023 566.633, 433.814 561.471 C 460.935 547.171, 477.019 533.485, 498.736 506.229 C 506.321 496.709, 509.639 494.867, 505.860 502.274 C 496.745 520.141, 478.546 540.835, 461 553.283 C 448.937 561.842, 414.734 579, 409.738 579 C 405.714 579, 394.254 582.333, 388.882 585.066 C 382.933 588.092, 374.292 596.704, 371.520 602.371 C 368.033 609.497, 367.345 616.479, 369.691 620.940 C 372.184 625.682, 373.566 625.766, 375.855 621.315 C 379.043 615.116, 387.549 608.229, 390.581 609.393 C 391.845 609.878, 391.208 610.948, 387.532 614.521 C 376.253 625.483, 376.142 639.880, 387.294 645.347 C 391.719 647.517, 393.479 646.648, 394.552 641.764 C 395.378 638.002, 403.549 629, 406.137 629 C 408.654 629, 408.481 630.275, 405.480 633.841 C 396.183 644.890, 397.870 656.061, 409.067 657.596 C 415.539 658.483, 420.731 656.693, 428.909 650.756 C 445.183 638.941, 444.002 639.382, 461.201 638.682 C 511.854 636.620, 553.843 619.924, 583.910 589.892 C 592.620 581.191, 603.481 567.407, 609.168 557.834 C 611.396 554.084, 613.595 551.250, 614.055 551.534 C 615.212 552.249, 612.859 558.543, 607.793 568.287 C 585.727 610.730, 532.599 640.983, 473.715 644.636 C 467.783 645.004, 462.689 645.694, 462.395 646.171 C 462.100 646.647, 463.309 650.181, 465.081 654.026 C 468.363 661.145, 474.369 667.409, 500.463 690.927 C 508.669 698.324, 524.876 711, 526.127 711 C 526.607 711, 527.007 707.737, 527.015 703.750 C 527.077 673.034, 549.511 647.153, 581.080 641.378 C 588.998 639.929, 591.816 639.846, 600.069 640.814 C 611.167 642.116, 624.168 646.444, 631.472 651.268 C 637.719 655.395, 638.809 657.811, 633.352 655.436 C 593.862 638.250, 555.373 648.048, 540.258 679.134 C 534.600 690.769, 533.612 695.945, 534.287 710.412 C 535.181 729.555, 541.268 744.297, 555.298 761.290 C 557.474 763.925, 558.983 766.351, 558.652 766.681 C 557.758 767.575, 549.727 760.691, 543.778 753.933 C 539.220 748.755, 538.097 748, 534.956 748 C 525.812 748, 515.949 754.322, 512.006 762.711 C 510.202 766.548, 509.868 768.608, 510.291 773.274 C 510.776 778.625, 513.043 784.037, 514.773 783.973 C 515.173 783.958, 516.625 782.100, 518 779.843 C 520.675 775.453, 525.779 771.541, 530.250 770.452 C 534.441 769.432, 533.675 771.429, 527.597 777.362 C 520.437 784.353, 519.121 788.691, 522.263 794.949 C 524.466 799.337, 532.525 806, 535.631 806 C 536.407 806, 537.581 804.763, 538.240 803.250 C 541.807 795.053, 549.764 787.928, 553.674 789.428 C 554.923 789.908, 554.207 791.145, 550.278 795.300 C 544.586 801.318, 542.058 807.160, 544.087 809.605 C 548.197 814.557, 562.754 817.447, 579.927 816.720 C 594.549 816.101, 601.435 814.480, 612.554 809.039 C 624.993 802.951, 633.285 794.659, 634.949 786.642 C 635.531 783.836, 635.970 783.506, 639.051 783.559 C 640.948 783.592, 647.129 784.432, 652.787 785.426 C 669.372 788.340, 698.939 786.914, 703.324 782.989 C 703.778 782.583, 702.333 778.640, 700.113 774.226 C 695.427 764.905, 690.726 749.816, 688.968 738.455 C 687.239 727.274, 687.435 707.862, 689.438 692 C 692.150 670.515, 702.669 629.961, 709.636 614.126 C 710.936 611.170, 711.998 608.245, 711.996 607.626 C 711.994 607.007, 709.940 605.656, 707.432 604.624 C 700.312 601.696, 688.221 593.381, 681.917 587.077 C 670.805 575.965, 661.430 557.708, 658.988 542.428 C 658.385 538.649, 657.743 535.410, 657.563 535.230 C 657.383 535.050, 654.106 534.766, 650.281 534.599 C 638.345 534.079, 628.399 528.220, 622.893 518.464 C 620.731 514.634, 619.210 513.092, 617.195 512.689 C 612.928 511.836, 609.347 508.436, 606.700 502.725 C 603.129 495.023, 601.798 488.469, 602.561 482.355 C 603.191 477.313, 603.060 476.859, 600.203 474.189 C 596.325 470.567, 595.234 464.161, 596.866 454.605 C 597.513 450.813, 597.886 447.553, 597.694 447.360 C 597.501 447.168, 593.329 448.378, 588.422 450.050 C 578.287 453.503, 567.985 456.037, 553.500 458.641 C 545.645 460.053, 538.458 460.425, 520 460.375 C 486.184 460.284, 463.107 456.779, 435.670 447.565 C 422.948 443.293, 422.833 443.275, 421.959 445.378 M 403.816 454.826 C 386.754 468.831, 366.015 483.165, 327.902 507.296 C 312.286 517.184, 304.392 521.561, 299.402 523.100 C 284.174 527.798, 274.571 535.065, 269.236 545.929 C 264.630 555.307, 265.795 566.869, 271.738 570.762 C 273.765 572.090, 274.036 572.052, 274.619 570.364 C 277.172 562.970, 280.837 556.476, 284.145 553.488 C 290.463 547.780, 293.549 549.733, 288.614 556.317 C 283.485 563.160, 281.594 568.208, 281.546 575.182 C 281.504 581.230, 281.776 582.152, 284.415 584.909 C 286.018 586.583, 288.809 588.442, 290.616 589.038 C 295.639 590.696, 297.483 589.151, 298.997 582.013 C 300.445 575.192, 304.566 567.986, 308.489 565.415 C 313.151 562.361, 313.325 565.020, 309.008 573.362 C 302.188 586.542, 303.844 595.755, 313.355 597.539 C 320.066 598.798, 326.181 594.686, 338.181 580.846 C 346.548 571.196, 347.249 570.981, 368.051 571.688 C 392.303 572.513, 414.709 569.728, 414.374 565.931 C 414.304 565.144, 413.281 559.325, 412.101 553 C 409.034 536.569, 406.782 508.607, 407.510 496 C 408.372 481.078, 411.553 457.064, 413.636 449.750 C 414.504 446.704, 412.362 447.811, 403.816 454.826 M 832.944 466.844 C 829.322 469.777, 830.941 472.193, 835.990 471.386 C 840.345 470.689, 847.856 472.916, 850.044 475.553 C 851.589 477.414, 855 477.431, 855 475.577 C 855 473.540, 850.258 468.185, 846.931 466.464 C 842.918 464.389, 835.735 464.585, 832.944 466.844 M 945.878 473.755 C 943.506 478.726, 942.071 480.490, 939.540 481.548 C 936.878 482.660, 936.156 483.623, 935.661 486.720 C 935.098 490.239, 931.921 495.890, 927.071 502 C 924.655 505.043, 914.781 536.736, 915.522 539.069 C 915.813 539.986, 915.583 541.967, 915.011 543.471 C 913.404 547.697, 911.185 564.210, 910.422 577.622 L 909.732 589.743 916.116 594.062 C 919.627 596.438, 924.843 600.770, 927.706 603.691 C 930.570 606.611, 933.573 609, 934.381 609 C 935.189 609, 941.846 606.916, 949.175 604.369 C 991.613 589.620, 1012.437 576.643, 1042.465 546.232 C 1050.963 537.625, 1058.212 530.878, 1058.572 531.239 C 1060.317 532.984, 1045.097 552.712, 1032.845 564.588 C 1023.910 573.247, 1013.707 581.126, 1002.474 588.040 C 983.657 599.622, 942.091 616, 931.514 616 C 925.564 616, 914.827 618.383, 907.218 621.392 C 897.773 625.127, 891.575 630.126, 888.438 636.537 C 885.425 642.696, 885.679 646.088, 889.335 648.484 C 891.417 649.848, 892.016 649.814, 895.569 648.124 C 902.127 645.006, 906.662 643.656, 908.374 644.313 C 911.610 645.555, 909.872 647.754, 903.524 650.452 C 895.791 653.739, 890 659.513, 890 663.938 C 890 668.985, 891.760 672.002, 895.653 673.628 C 899.165 675.096, 899.687 675.028, 908.135 672.006 C 916.384 669.055, 919.563 668.810, 918.772 671.185 C 918.588 671.736, 915.122 674.058, 911.070 676.344 C 902.485 681.186, 901.179 682.764, 902.544 686.644 C 904.135 691.169, 909.158 693.344, 919.116 693.820 C 929.625 694.322, 936.973 692.404, 953.178 684.927 L 963.855 680 979.678 679.991 C 1016.379 679.971, 1049.632 672.738, 1080.561 658.047 C 1108.949 644.563, 1132.453 624.558, 1151 598.094 C 1154.575 592.993, 1158.026 588.073, 1158.668 587.161 C 1159.311 586.249, 1160.175 585.842, 1160.589 586.255 C 1161.775 587.442, 1152.755 604.683, 1145.925 614.285 C 1138.571 624.623, 1121.474 641.422, 1110.939 648.663 C 1096.136 658.835, 1074.576 669.505, 1057.894 674.915 C 1035.536 682.166, 1013.365 685.976, 988.500 686.840 L 969.500 687.500 968.913 700.500 C 968.317 713.700, 967.368 719.725, 963.834 732.777 L 961.864 740.055 966.416 746.277 C 975.928 759.279, 976.565 759.752, 987.599 762.007 C 993.044 763.120, 1000.314 764.961, 1003.753 766.098 C 1007.192 767.235, 1010.541 767.986, 1011.194 767.769 C 1012.005 767.498, 1012.445 763.734, 1012.575 755.936 C 1012.806 742.176, 1015.134 732.544, 1021.381 719.500 C 1034.020 693.110, 1054.504 676.326, 1084.500 667.784 C 1091.271 665.855, 1094.882 665.505, 1108 665.503 C 1125.459 665.500, 1132.510 667.050, 1145.168 673.673 C 1156.391 679.545, 1158.198 683.629, 1147.475 678.886 C 1139.414 675.320, 1130.006 673.044, 1118.500 671.877 C 1109.348 670.948, 1105.681 671.029, 1096.670 672.359 C 1075.850 675.431, 1060.704 682.529, 1046.970 695.651 C 1031.307 710.616, 1022.618 727.746, 1019.886 749.051 C 1017.984 763.880, 1021.546 782.724, 1028.489 794.572 C 1031.732 800.106, 1031.697 802.001, 1028.409 798.924 C 1024.016 794.814, 1019.392 787.754, 1017.412 782.134 C 1015.226 775.929, 1013.624 774.995, 1005.185 775.010 C 995.379 775.027, 985.028 781.180, 981.078 789.339 C 978.634 794.387, 978.269 803.618, 980.398 806.530 C 981.737 808.361, 981.985 808.269, 986.207 804.377 C 992.726 798.368, 1003 795.049, 1003 798.952 C 1003 799.510, 1000.796 801.083, 998.101 802.449 C 992.344 805.366, 987.255 811.124, 986.398 815.691 C 985.613 819.878, 988.887 826.815, 993.603 830.956 C 996.968 833.911, 1001 835.026, 1001 833.003 C 1001 831.158, 1008.329 823.873, 1012.142 821.928 C 1016.169 819.873, 1019.538 819.444, 1020.422 820.874 C 1020.719 821.354, 1018.645 823.492, 1015.813 825.624 C 1009.285 830.538, 1006.869 833.829, 1006.663 838.089 C 1006.507 841.322, 1006.808 841.623, 1013.578 845.023 C 1022.958 849.733, 1029.084 851.101, 1043.617 851.733 C 1058.752 852.391, 1067.551 850.625, 1079.874 844.456 C 1088.895 839.940, 1097.507 832.184, 1101.161 825.285 C 1102.533 822.694, 1103.575 822.056, 1107.161 821.613 C 1132.071 818.531, 1142.271 816.095, 1157.917 809.491 C 1201.436 791.121, 1227.516 755.057, 1235.648 702 C 1237.821 687.826, 1238.127 651.592, 1236.206 636 C 1231.006 593.788, 1218.786 553.610, 1199.041 513.803 C 1190.801 497.189, 1176.104 473, 1174.250 473 C 1173.526 473, 1170.811 474.070, 1168.217 475.377 C 1148.729 485.197, 1116.090 493.410, 1085.922 496.086 C 1069.936 497.504, 1035.321 496.689, 1023.500 494.616 C 1003.774 491.157, 982.311 483.978, 963.223 474.453 L 948.945 467.329 945.878 473.755 M 715.500 476.573 C 709.155 479.872, 704.419 486.819, 706.854 489.254 C 707.710 490.110, 708.810 489.609, 711.248 487.249 C 715.063 483.557, 720.689 481, 724.999 481 C 728.758 481, 730.177 478.334, 727.471 476.355 C 724.994 474.544, 719.199 474.649, 715.500 476.573 M 1328 484.500 C 1328 485.325, 1328.450 486, 1329 486 C 1329.550 486, 1330 485.325, 1330 484.500 C 1330 483.675, 1329.550 483, 1329 483 C 1328.450 483, 1328 483.675, 1328 484.500 M 775.227 495.116 C 769.892 497.758, 765.607 502.876, 762.767 510 C 760.886 514.719, 760.570 517.487, 760.538 529.500 C 760.495 545.401, 761.418 549.244, 766.683 555.071 C 770.222 558.988, 776.291 561.642, 783 562.206 C 785.906 562.450, 786.550 562.930, 786.795 565.033 C 787.269 569.096, 783.096 572.245, 776.513 572.791 C 768.130 573.486, 759 569.111, 759 564.401 C 759 560.355, 756.046 560.182, 752.827 564.039 C 751.272 565.901, 750 567.977, 750 568.653 C 750 570.461, 752.010 571.390, 753.246 570.154 C 755.163 568.237, 761.540 574.420, 764.775 581.333 C 768.666 589.648, 773.866 594.615, 780.788 596.627 C 792.882 600.143, 804.178 593.248, 808.559 579.678 C 809.730 576.050, 811.858 572.828, 815.669 568.917 C 820.361 564.099, 820.900 563.162, 819.596 562.080 C 818.333 561.031, 817.464 561.477, 814.293 564.802 C 809.085 570.262, 800.868 572.421, 794.505 570.002 C 792.236 569.139, 791.921 568.507, 792.190 565.356 C 792.470 562.056, 792.881 561.596, 796.500 560.522 C 812.336 555.826, 817.105 543.013, 811.368 520.571 C 808.397 508.946, 801.479 498.816, 793.858 494.928 C 788.727 492.310, 780.734 492.391, 775.227 495.116 M 833.500 496.871 C 822.387 503.773, 820.524 519.933, 829.674 530.061 C 835.894 536.946, 843.843 537.369, 851.168 531.205 C 861.863 522.206, 859.166 502.709, 846.316 496.120 C 843.007 494.424, 836.860 494.784, 833.500 496.871 M 778.481 499.394 C 769.987 503.095, 765.627 513.423, 765.562 530 C 765.517 541.655, 766.830 546.988, 770.791 551.232 C 776.917 557.798, 790.425 558.871, 799.561 553.517 C 806.322 549.555, 808.380 544.427, 807.758 533.096 C 806.442 509.149, 792.618 493.234, 778.481 499.394 M 833.773 503.750 C 830.786 507.152, 830.690 509.781, 833.455 512.545 C 837.554 516.645, 843.333 513.931, 843.333 507.906 C 843.333 502.623, 837.131 499.926, 833.773 503.750 M 721.481 505.394 C 714.315 508.516, 709.299 518.087, 710.278 526.770 C 712.337 545.037, 731.963 551.566, 741.642 537.203 C 746.577 529.880, 745.434 517.704, 739.159 510.749 C 733.444 504.416, 727.711 502.679, 721.481 505.394 M 1459.500 507.426 C 1434.363 511.726, 1412.585 524.154, 1399.068 541.910 C 1393.224 549.588, 1387.627 559.426, 1388.193 561.027 C 1388.362 561.505, 1393 558.967, 1398.500 555.387 C 1408.950 548.585, 1432.784 536.450, 1433.765 537.432 C 1434.484 538.151, 1434.629 538.045, 1427.500 542.014 C 1422.219 544.954, 1395.757 562.496, 1390.573 566.494 C 1389.513 567.311, 1388.988 568.321, 1389.406 568.740 C 1390.914 570.248, 1420.165 569.415, 1427.943 567.642 C 1447.253 563.242, 1467.630 551.986, 1482.512 537.500 C 1492.529 527.750, 1504.560 512.160, 1503.153 510.753 C 1499.644 507.244, 1472.605 505.183, 1459.500 507.426 M 909.750 510.305 L 905 511.335 904.983 521.418 C 904.953 538.726, 899.893 555.400, 890.947 567.671 C 888.221 571.411, 886.130 574.927, 886.302 575.485 C 886.646 576.607, 899.843 583.918, 901.613 583.968 C 902.310 583.988, 902.986 580.359, 903.422 574.250 C 904.632 557.293, 908.326 537.047, 913.402 519.543 C 916.220 509.827, 916.380 508.930, 915.250 509.138 C 914.837 509.213, 912.362 509.739, 909.750 510.305 M 721.174 513.314 C 715.421 519.439, 723.071 527.929, 729 522 C 731.718 519.282, 731.606 514.538, 728.777 512.557 C 725.709 510.407, 723.719 510.605, 721.174 513.314 M 771.627 579.263 C 769.155 581.097, 770.114 584.043, 774.603 588.403 C 779.103 592.773, 785.247 594.549, 790.743 593.069 C 795.115 591.892, 801 587.121, 801 584.754 C 801 581.760, 796.957 579.507, 791.143 579.263 C 788.039 579.132, 782.800 578.766, 779.500 578.449 C 775.191 578.036, 772.972 578.265, 771.627 579.263 M 370 579.918 C 370 580.424, 371.551 581.796, 373.447 582.967 L 376.895 585.098 380.947 582.416 C 383.176 580.941, 385 579.569, 385 579.367 C 385 579.165, 381.625 579, 377.500 579 C 373.375 579, 370 579.413, 370 579.918 M 875 584.619 C 858.773 597.599, 829.258 610.671, 805.500 615.399 C 792.372 618.012, 776.662 618.964, 764 617.915 C 751.738 616.899, 734.478 613.959, 726.411 611.511 C 723.710 610.692, 720.919 610.017, 720.208 610.011 C 715.536 609.972, 700.177 661.401, 695.873 691.500 C 693.946 704.969, 694.185 731.576, 696.328 742.312 C 703.841 779.942, 725.496 804.688, 759.485 814.482 C 764.866 816.033, 770.883 818.638, 774.485 820.976 C 786.794 828.966, 799.009 832.178, 809.112 830.081 C 815.898 828.672, 826.825 823.618, 827.632 821.516 C 828.728 818.660, 825.845 813.994, 821.363 811.367 C 816.637 808.597, 816.240 807.875, 818.441 806.049 C 820.590 804.266, 828.068 807.911, 831.505 812.418 L 834.293 816.073 836.590 813.915 C 843.912 807.037, 842.870 800.221, 833.447 793.352 C 831.198 791.712, 830.773 790.919, 831.651 790.001 C 833.390 788.184, 838.624 789.731, 842.626 793.244 C 846.858 796.960, 848.333 796.034, 848.333 789.661 C 848.333 783.508, 845.461 778.995, 839.730 776.142 C 832.926 772.755, 830.723 773.625, 826.896 781.207 C 823.025 788.874, 820.022 793, 818.312 793 C 816.558 793, 816.616 792.691, 819.412 787.174 C 826.082 774.011, 826.522 762.131, 820.800 749.717 C 817.261 742.038, 809.154 733.690, 801.832 730.183 C 787.475 723.307, 767.054 726.004, 750.568 736.954 C 740.456 743.670, 741 739.177, 751.271 731.154 C 754.330 728.764, 759.665 725.783, 763.125 724.531 C 766.585 723.278, 769.562 721.813, 769.742 721.275 C 769.921 720.737, 768.081 719.539, 765.653 718.612 C 757.885 715.645, 743.444 705.356, 737.310 698.418 C 731.297 691.618, 724.753 681.209, 725.613 679.817 C 725.883 679.380, 730.918 683.906, 736.802 689.876 C 755.846 709.198, 772.121 717.560, 798.231 721.437 C 810.564 723.268, 818.403 723.395, 829.935 721.949 C 837.699 720.975, 839.061 721.094, 848.379 723.551 C 861.366 726.977, 869.730 726.724, 873.667 722.788 C 877.057 719.398, 876.313 717.699, 870.047 714.524 C 865.209 712.072, 864.041 710.711, 865.828 709.606 C 866.284 709.325, 869.717 709.837, 873.458 710.746 L 880.260 712.397 882.130 710.088 C 883.158 708.818, 884 707.188, 884 706.466 C 884 704.034, 878.963 699.143, 875.217 697.936 C 870.787 696.510, 868.821 695.099, 869.570 693.887 C 870.411 692.525, 876.666 692.834, 880.473 694.424 C 883.421 695.656, 884.041 695.656, 885.062 694.425 C 888.136 690.721, 879.640 681.206, 870.810 678.464 C 867.889 677.557, 860.550 676.460, 854.500 676.025 C 836.910 674.763, 813.371 666.122, 798.500 655.468 C 789.957 649.348, 778.297 637.303, 779.627 635.973 C 780.360 635.240, 783.967 637.498, 791.589 643.465 C 812.286 659.667, 840.625 670.949, 860.715 670.985 C 865.501 670.994, 870.855 671.654, 873.541 672.565 C 877.737 673.990, 878.369 673.988, 880.576 672.542 C 882.232 671.457, 883 670.022, 883 668.012 C 883 666.394, 883.709 662.982, 884.575 660.430 C 886.079 656.001, 886.059 655.692, 884.142 653.645 C 879.944 649.162, 878.830 641.737, 881.424 635.528 C 882.207 633.654, 884.723 630.087, 887.014 627.600 C 891.067 623.203, 891.149 622.980, 889.983 619.448 C 888.261 614.230, 890.053 612.718, 893.755 616.265 L 896.524 618.918 904.991 615.504 C 909.648 613.626, 915.605 611.574, 918.229 610.945 C 920.853 610.316, 923 609.442, 923 609.004 C 923 607.901, 917.454 603.139, 909.857 597.717 C 904.583 593.954, 881.321 580.976, 879.909 581.010 C 879.684 581.015, 877.475 582.639, 875 584.619 M 1409.651 613.529 C 1400.571 615.249, 1391.070 618.850, 1382.761 623.720 C 1376.318 627.496, 1363.726 638.748, 1364.515 640.024 C 1364.790 640.469, 1368.500 639.763, 1372.759 638.455 C 1384.462 634.861, 1394.455 632.968, 1405.250 632.301 C 1412.286 631.866, 1415 632.018, 1415 632.849 C 1415 633.482, 1413.851 634, 1412.446 634 C 1404.624 634, 1363 645.878, 1363 648.109 C 1363 649.501, 1376.144 655.724, 1382.587 657.384 C 1399.718 661.796, 1415.063 661.635, 1433.500 656.848 C 1447.909 653.108, 1479 636.518, 1479 632.570 C 1479 629.052, 1460.312 619.134, 1446.721 615.439 C 1434.926 612.233, 1420.434 611.486, 1409.651 613.529 M 452.188 646.063 C 452.428 646.784, 453.216 647.572, 453.938 647.813 C 454.688 648.063, 455.063 647.688, 454.813 646.938 C 454.572 646.216, 453.784 645.428, 453.063 645.188 C 452.313 644.938, 451.938 645.313, 452.188 646.063 M 830.500 728.046 C 827.750 728.474, 822.688 728.864, 819.250 728.912 C 815.813 728.961, 813 729.207, 813 729.460 C 813 729.713, 815.174 731.953, 817.831 734.439 C 820.488 736.924, 823.522 740.554, 824.573 742.506 C 825.645 744.496, 827.126 745.930, 827.948 745.772 C 828.753 745.616, 832.200 741.892, 835.608 737.495 C 843.666 727.098, 843.116 726.081, 830.500 728.046 M 957.381 752.632 C 956.546 754.629, 956.231 756.608, 956.682 757.030 C 957.998 758.263, 968.296 759.369, 967.870 758.231 C 967.378 756.917, 960.159 749, 959.452 749 C 959.147 749, 958.215 750.634, 957.381 752.632" stroke="none" fill="black" fill-rule="evenodd"/>
</svg>