<svg xmlns="http://www.w3.org/2000/svg" width="1536" height="1024" viewBox="0 0 1536 1024" version="1.1">
	<path d="M 769.428 27.500 C 747.192 33.498, 727.987 50.247, 716.934 73.281 C 714.651 78.041, 712.044 82.141, 711.141 82.393 C 710.238 82.645, 706.125 83.385, 702 84.037 C 683.769 86.917, 664.209 92.085, 646.500 98.700 C 626.728 106.086, 596.584 121.923, 581.730 132.729 C 577.087 136.108, 574 136.492, 574 133.693 C 574 130.917, 564.071 112.177, 556.942 101.500 C 547.974 88.066, 530.748 70.505, 517 60.780 C 505.565 52.691, 485.791 42.344, 473.602 38.071 C 452.936 30.826, 425.584 27.856, 413.257 31.516 C 406.956 33.388, 403 37.653, 403 42.577 L 403 46 394.099 46 C 371.408 46, 346.798 53.296, 328.563 65.430 C 309.518 78.102, 300.317 94.539, 308.265 101.691 C 309.494 102.797, 311.288 103.980, 312.250 104.320 C 314.954 105.274, 314.368 106.493, 309.750 109.518 C 303.091 113.879, 290.925 124.441, 286.197 129.966 C 274.876 143.195, 264.831 161.019, 261.581 173.644 C 260.712 177.024, 260.001 183.099, 260.002 187.144 C 260.003 196.312, 262.013 200.803, 267.201 203.235 L 270.901 204.969 268.853 209.600 C 267.726 212.147, 265.464 219.466, 263.826 225.865 C 259.662 242.133, 258.929 261.014, 261.883 275.895 C 264.987 291.530, 271.644 304.367, 278.016 307.007 C 280.910 308.205, 285.880 308.011, 289.189 306.569 C 290.561 305.971, 291 306.553, 291.526 309.666 C 293.776 322.975, 300.083 338.966, 307.394 349.898 C 320.998 370.238, 338.474 380.943, 349.103 375.447 L 352.107 373.893 360.150 381.459 C 364.573 385.620, 371.323 390.885, 375.149 393.158 C 390.250 402.129, 410.960 406.322, 428.627 403.983 C 433.819 403.296, 438.327 402.994, 438.646 403.312 C 438.964 403.631, 438.715 406.818, 438.092 410.395 C 434.146 433.054, 436.566 459.364, 444.659 481.774 C 446.103 485.775, 447.021 489.313, 446.697 489.636 C 446.374 489.960, 443.235 489.724, 439.723 489.112 C 430.835 487.564, 410.619 487.723, 401.838 489.409 C 364.459 496.588, 337.271 522.295, 330.036 557.302 C 328.850 563.039, 328.774 563.133, 323.168 565.770 C 310.589 571.688, 304.344 581.990, 305.219 595.379 C 305.979 607.019, 311.035 614.465, 321.905 619.952 L 327.557 622.805 328.878 634.153 C 330.346 646.766, 335.280 664.409, 340.498 675.701 C 353.968 704.856, 379.052 727.429, 409.055 737.395 C 439.235 747.419, 467.777 748.330, 501.771 740.354 C 507.970 738.899, 513.276 737.943, 513.562 738.229 C 513.848 738.515, 513.185 744.993, 512.088 752.624 C 505.906 795.641, 510.309 837.475, 525.597 880.959 L 530.328 894.419 526.414 897.423 C 516.869 904.748, 508.200 914.791, 503.859 923.553 C 499.832 931.680, 499.537 932.849, 499.163 942.152 C 498.782 951.636, 498.903 952.361, 501.882 958.412 C 509.121 973.116, 524.727 981.159, 556.500 986.561 C 610.601 995.758, 675.677 988.358, 696 970.698 C 704.426 963.375, 707.170 956.709, 711.060 934.110 C 712.611 925.095, 714.306 917.294, 714.826 916.774 C 715.420 916.180, 719.783 916.232, 726.559 916.914 C 739.092 918.176, 759.445 918.254, 769.500 917.080 C 773.350 916.630, 776.797 916.541, 777.161 916.881 C 777.524 917.222, 779.012 925.600, 780.466 935.500 C 783.422 955.623, 785.363 961.184, 791.908 968.285 C 799.002 975.981, 813.539 982.295, 832.655 985.984 C 866.212 992.460, 901.899 992.643, 938 986.524 C 968.012 981.438, 984.798 972.448, 991.261 958 C 994.361 951.069, 994.759 938.855, 992.163 930.329 C 988.790 919.255, 980.420 908.111, 968.845 899.284 C 966.180 897.252, 964 895.022, 964 894.329 C 964 893.636, 966.206 886.416, 968.903 878.285 C 971.600 870.153, 974.813 859.080, 976.043 853.677 C 978.264 843.926, 978.300 843.859, 980.890 844.585 C 982.326 844.988, 985.525 845.583, 988 845.909 L 992.500 846.500 992.710 853.352 C 992.853 858.004, 993.621 861.652, 995.104 864.715 C 998.996 872.756, 1010.240 877.726, 1018.425 875.025 C 1021.211 874.105, 1022.828 874.121, 1025.750 875.097 C 1027.813 875.786, 1032.280 876.355, 1035.678 876.362 C 1055.944 876.405, 1078.934 851.038, 1086.916 819.828 C 1098.690 773.792, 1087.657 719.025, 1056.256 667.627 C 1040.090 641.167, 1015.726 615.347, 991.493 598.995 C 987.372 596.214, 984 593.488, 984 592.937 C 984 592.386, 988.163 590, 993.250 587.635 C 1045.069 563.551, 1081.769 523.421, 1093.500 478.018 C 1098.108 460.184, 1099.339 437.120, 1096.640 419.189 C 1095.952 414.618, 1095.758 410.650, 1096.209 410.371 C 1096.660 410.092, 1099.610 410.433, 1102.764 411.129 C 1112.177 413.205, 1127.990 412.555, 1139.294 409.628 C 1154.335 405.735, 1163.677 400.337, 1175 388.999 L 1184.500 379.486 1188.348 381.372 C 1191.720 383.025, 1192.708 383.105, 1196.348 382.015 C 1215.095 376.403, 1233.353 349.804, 1240.411 317.822 C 1240.981 315.237, 1241.185 315.164, 1246.327 315.694 C 1251.236 316.201, 1251.930 316.001, 1255.197 313.132 C 1266.429 303.270, 1273.749 274.294, 1271.082 250.250 C 1270.018 240.660, 1267.335 227.481, 1265.493 222.800 C 1264.987 221.513, 1265.680 220.743, 1268.346 219.629 C 1273.131 217.630, 1275.239 213.194, 1275.775 204 C 1277.089 181.424, 1259.438 147.361, 1235.903 127.054 C 1231.968 123.659, 1227.680 120.181, 1226.374 119.326 C 1223.263 117.287, 1223.379 116.372, 1226.983 114.509 C 1230.441 112.720, 1233 108.345, 1233 104.219 C 1233 97.287, 1225.257 86.774, 1213.615 77.900 C 1194.795 63.554, 1171.560 55.509, 1145 54.143 L 1132.500 53.500 1132.823 50.269 C 1133.317 45.336, 1132.203 43.144, 1128.153 41.078 C 1115.539 34.643, 1087.524 36.303, 1062 44.999 C 1020.746 59.054, 988.144 87.649, 969.931 125.750 C 967.237 131.388, 964.827 136, 964.577 136 C 964.326 136, 960.607 133.477, 956.311 130.393 C 929.651 111.257, 891.813 94.436, 858.750 87.022 C 853.388 85.820, 849 84.647, 849 84.415 C 849 84.184, 850.775 82.391, 852.944 80.431 C 863.189 71.176, 859.335 58.819, 844.365 52.918 C 835.746 49.520, 818.036 49.696, 806.004 53.299 C 801.332 54.698, 797.349 55.682, 797.154 55.487 C 796.958 55.292, 797.770 52.324, 798.958 48.893 C 802.491 38.683, 800.053 31.745, 791.579 27.896 C 786.685 25.674, 776.850 25.498, 769.428 27.500 M 768.108 37.516 C 748.656 44.280, 732.800 59.488, 722.475 81.285 L 717.980 90.773 709.740 91.960 C 667.058 98.111, 625.126 114.439, 589.500 138.780 C 574.009 149.364, 565.227 156.658, 551.982 169.946 C 525.664 196.346, 507.560 223.876, 491.742 261.549 C 482.027 284.688, 475.184 307.079, 466.987 342.558 C 464.181 354.702, 460.485 367.772, 458.506 372.553 C 453.754 384.034, 448.551 401.683, 446.878 412 C 445.223 422.209, 445.218 446.950, 446.869 456 C 448.525 465.076, 454.538 483.526, 457.784 489.493 C 460.115 493.777, 461.612 495.083, 468.320 498.680 C 483.868 507.018, 494.497 517.818, 502.590 533.500 C 506.163 540.423, 503.886 539.963, 527.500 538.542 C 538.803 537.861, 542.132 538.050, 553 539.985 C 561.691 541.533, 569.301 542.197, 577.972 542.164 C 590.652 542.115, 622.021 539.223, 624.150 537.907 C 624.939 537.419, 623.706 535.124, 620.354 530.842 C 606.559 513.222, 597.135 491.419, 591.209 463.412 C 588.674 451.436, 588.279 450.421, 585.666 449.169 C 581.408 447.128, 578.288 448.495, 571.881 455.207 C 566.946 460.377, 565.833 461.107, 564.533 460.027 C 562.316 458.187, 562.631 455.973, 565.825 450.946 C 571.568 441.907, 583.258 434.647, 594 433.449 C 603.751 432.361, 606.586 437.781, 597.533 440.202 C 595.040 440.869, 593 441.744, 593 442.147 C 593 443.516, 630.864 454.196, 654.108 459.384 C 722.665 474.683, 797.543 476.825, 867.500 465.487 C 895.484 460.951, 939.201 450.539, 939.042 448.447 C 939.002 447.926, 937.647 447.050, 936.029 446.500 C 931.602 444.995, 930.389 443.441, 932.064 441.423 C 933.953 439.147, 944.299 439.998, 950.348 442.926 C 960.003 447.600, 969.499 458.797, 968.820 464.708 C 968.324 469.030, 964.773 468.986, 962.077 464.624 C 958.831 459.373, 953.378 455, 950.076 455 C 944.914 455, 943.150 457.594, 940.557 469 C 933.064 501.964, 917.493 529.717, 895.831 548.716 C 892.349 551.771, 885.055 557.246, 879.621 560.885 C 874.188 564.523, 868.563 568.297, 867.121 569.271 C 865.680 570.245, 858.650 572.890, 851.500 575.149 C 844.350 577.408, 836.611 580.352, 834.303 581.692 C 831.084 583.560, 828.287 584.216, 822.303 584.504 C 818.011 584.711, 810 585.620, 804.500 586.525 C 797.265 587.716, 784.124 588.371, 756.967 588.892 C 736.324 589.289, 718.949 589.914, 718.356 590.280 C 717.763 590.646, 709.003 591.012, 698.889 591.092 C 678.153 591.256, 674.453 590.437, 671.109 584.939 C 670.045 583.189, 667.386 580.957, 665.200 579.978 C 663.014 579, 659.325 576.482, 657.002 574.383 L 652.779 570.567 627.075 573.819 C 591.454 578.325, 569 583.086, 569 586.133 C 569 587.419, 571.987 588.460, 593.010 594.509 C 632.731 605.935, 675.381 613.251, 725 617.149 C 744.951 618.716, 804.120 618.731, 823.500 617.174 C 925.656 608.968, 997.521 585.424, 1040.405 546.112 C 1072.139 517.022, 1089.157 480.653, 1089.093 442.060 C 1089.059 421.068, 1086.971 409.790, 1078.449 384.559 C 1075.334 375.335, 1073.172 366.214, 1071.087 353.500 C 1064.204 311.519, 1055.625 281.131, 1041.304 248 C 1011.668 179.436, 953.485 127.072, 879.251 102.151 C 862.575 96.553, 845.403 92.921, 832 92.156 C 822.878 91.636, 820.500 91.198, 820.500 90.038 C 820.500 88.437, 821.700 87.737, 833.428 82.503 C 851.389 74.488, 854.423 67.262, 842.166 61.693 C 835.336 58.590, 819.363 58.676, 809.049 61.871 C 799.654 64.782, 787.589 70.821, 779.699 76.562 C 773.476 81.090, 771.604 81.786, 770.489 79.982 C 769.714 78.728, 772.075 74.868, 779.958 64.500 C 786.963 55.288, 792 45.874, 792 41.995 C 792 35.069, 781.050 33.016, 768.108 37.516 M 417.079 40.191 C 415.747 40.911, 414.482 42.033, 414.267 42.685 C 414.053 43.336, 416.783 46.153, 420.335 48.945 C 431.208 57.490, 430.441 60.098, 417.861 57.351 C 411.568 55.977, 405.543 55.547, 393.500 55.615 C 379.668 55.692, 376.213 56.050, 368 58.259 C 350.338 63.008, 334.945 70.659, 324.927 79.667 C 320.535 83.616, 315 91.418, 315 93.661 C 315 95.823, 318.711 97.069, 328.286 98.122 C 337.247 99.107, 340.939 100.671, 339.562 102.899 C 339.192 103.499, 334.770 106.055, 329.737 108.578 C 301.807 122.582, 279.976 146.524, 271.563 172.378 C 268.550 181.638, 268.114 191.020, 270.601 193.083 C 271.943 194.197, 272.952 194.121, 276.851 192.612 C 283.259 190.131, 286.636 189.602, 287.469 190.949 C 287.857 191.577, 286.335 195.187, 284.087 198.971 C 274.776 214.642, 270.137 230.982, 269.300 251.043 C 268.463 271.104, 272.403 288.207, 279.636 295.907 L 283.010 299.500 285.601 296.500 C 287.026 294.850, 289.612 291.031, 291.348 288.013 C 293.084 284.996, 295.291 282.375, 296.252 282.190 C 297.722 281.907, 298 282.625, 298 286.703 C 298 305.943, 304.746 329.598, 314.484 344.505 C 320.223 353.290, 331.702 364.339, 337.319 366.484 C 343.500 368.845, 344.651 367.819, 345.182 359.476 C 345.882 348.483, 348.304 348.486, 354.455 359.486 C 369.923 387.145, 402.582 400.931, 435.762 393.806 C 438.656 393.185, 441.408 392.187, 441.879 391.588 C 442.349 390.990, 443.767 387.350, 445.029 383.500 C 446.292 379.650, 448.530 373.575, 450.002 370 C 453.255 362.104, 457.552 346.219, 456.673 345.339 C 456.323 344.989, 451.754 345.735, 446.519 346.995 C 438.804 348.854, 435.515 349.164, 429.144 348.632 C 414.704 347.428, 404.165 343.088, 395.190 334.648 C 390.269 330.021, 384.003 319.784, 384.001 316.367 C 384 315.744, 381.535 314.029, 378.523 312.555 C 359.671 303.332, 350.956 274.438, 359.450 249.325 L 362.216 241.149 358.775 237.709 C 356.716 235.650, 354.802 232.364, 354.007 229.525 C 350.294 216.262, 360.326 193.614, 374.731 182.738 C 379.837 178.883, 380 178.607, 380 173.840 C 380 167.486, 382.499 162.678, 388.925 156.667 C 402.309 144.148, 430.568 137.464, 451.500 141.866 C 479.281 147.710, 502.179 164.364, 514.084 187.386 C 515.963 191.020, 517.803 193.994, 518.173 193.996 C 518.543 193.998, 522.123 189.837, 526.129 184.750 C 533.793 175.014, 551.413 156.800, 561.437 148.252 L 567.373 143.189 566.086 138.845 C 563.707 130.817, 557.973 119.626, 550.553 108.523 C 528.958 76.216, 496.063 53.120, 457 42.840 C 443.465 39.278, 421.468 37.819, 417.079 40.191 M 1090 47.461 C 1040.566 54.687, 992.521 91.439, 975.373 135.146 L 972.748 141.837 990.750 159.669 C 1001.061 169.883, 1011.847 181.665, 1015.998 187.250 C 1019.983 192.613, 1023.625 197, 1024.091 197 C 1024.557 197, 1026.108 194.611, 1027.538 191.691 C 1040.596 165.023, 1071.875 146.515, 1103.500 146.744 C 1122.035 146.878, 1138.667 152.843, 1149.760 163.335 C 1156.987 170.170, 1159.397 174.945, 1159.232 182.104 L 1159.103 187.707 1164.682 192.524 C 1170.914 197.904, 1177.840 207.931, 1180.553 215.500 C 1181.723 218.764, 1182.360 223.451, 1182.387 229 C 1182.435 238.540, 1181.060 242.243, 1176.001 246.202 L 1172.963 248.580 1174.892 254.187 C 1179.712 268.196, 1179.753 280.686, 1175.023 294.432 C 1171.175 305.618, 1162.214 316.347, 1154.342 319.193 C 1151.586 320.190, 1150.308 321.660, 1147.838 326.677 C 1142.404 337.716, 1130.188 347.233, 1116.500 351.091 C 1109.764 352.989, 1092.972 352.752, 1086.521 350.667 C 1083.583 349.718, 1081.174 349.426, 1080.645 349.955 C 1078.926 351.674, 1082.106 367.502, 1087.184 382.500 C 1089.977 390.750, 1092.684 398.033, 1093.200 398.686 C 1094.882 400.812, 1107.607 403, 1118.287 403 C 1130.807 403, 1140.956 400.661, 1151.907 395.251 C 1162.438 390.049, 1173.834 378.648, 1180.421 366.726 C 1183.087 361.900, 1185.697 357.687, 1186.221 357.363 C 1187.960 356.288, 1189.186 358.726, 1189.884 364.648 C 1190.763 372.101, 1191.527 373.335, 1194.763 372.523 C 1203.542 370.320, 1215.780 356.695, 1223.475 340.559 C 1230.262 326.325, 1232.980 314.690, 1232.992 299.809 C 1232.997 294.759, 1233.445 290.843, 1234.063 290.461 C 1235.703 289.448, 1238.891 292.904, 1241.803 298.851 C 1244.750 304.869, 1247.958 307.110, 1250.548 304.960 C 1255.295 301.021, 1260.441 286.068, 1262.175 271.178 C 1264.301 252.921, 1260.821 234.449, 1251.816 216.185 C 1245.326 203.020, 1245.940 201.878, 1256.478 207.522 C 1265.768 212.496, 1266.507 212.030, 1266.484 201.200 C 1266.465 191.864, 1263.690 182.270, 1257.341 169.589 C 1246.469 147.874, 1227.872 128.939, 1205.636 116.945 C 1201.436 114.680, 1198 112.406, 1198 111.892 C 1198 110.213, 1202.335 109.033, 1211.831 108.128 C 1216.963 107.639, 1221.621 106.779, 1222.182 106.218 C 1225.618 102.782, 1215.465 89.787, 1202.732 81.322 C 1181.522 67.221, 1148.743 60.026, 1124 64.038 C 1111.094 66.131, 1109.273 66.251, 1108.537 65.060 C 1107.610 63.561, 1110.077 60.790, 1116.750 55.835 C 1119.786 53.581, 1122 51.157, 1122 50.087 C 1122 46.156, 1107.224 44.944, 1090 47.461 M 419 150.509 C 409.684 153.052, 397.702 159.515, 393.152 164.451 C 388.091 169.942, 387.621 173.829, 391.662 176.773 C 394.848 179.093, 394.336 181.472, 390.278 183.201 C 384.884 185.500, 374.989 193.135, 371.528 197.667 C 364.015 207.507, 360.031 219.688, 361.971 226.891 C 363.239 231.601, 365.278 233, 370.875 233 C 373.079 233, 375.161 233.451, 375.501 234.002 C 375.842 234.553, 374.488 237.648, 372.493 240.880 C 365.272 252.579, 362.493 267.974, 365.384 280.259 C 368.392 293.035, 374.612 301.866, 383.073 305.370 C 385.508 306.379, 388.131 307.516, 388.901 307.899 C 389.672 308.281, 390.819 310.629, 391.451 313.117 C 395.129 327.602, 407.746 337.581, 425.690 340.196 C 435.566 341.635, 444.848 340.251, 453.844 335.996 C 459.176 333.475, 460.001 332.691, 460.869 329.320 C 469.973 293.962, 474.848 278.639, 483.618 257.808 C 490.610 241.202, 496.467 229.525, 504.603 215.976 C 508.121 210.117, 511 204.238, 510.999 202.912 C 510.998 199.281, 505.541 188.474, 499.794 180.722 C 490.285 167.895, 474.886 157.176, 458.500 151.980 C 449.272 149.053, 427.328 148.236, 419 150.509 M 1088.500 155.965 C 1062.970 161.522, 1040.639 179.534, 1032.990 200.740 L 1030.740 206.979 1041.835 229.240 C 1057.478 260.623, 1067.245 288.519, 1074.310 322 L 1077.581 337.500 1083.122 340.293 C 1091.048 344.288, 1100.294 345.622, 1109.848 344.148 C 1127.090 341.488, 1138.943 331.328, 1143.588 315.227 C 1143.789 314.527, 1144.752 313.705, 1145.727 313.399 C 1151.459 311.602, 1157.535 308.154, 1160.081 305.255 C 1166.591 297.840, 1170 287.443, 1170 275 C 1170 265.424, 1168.526 259.472, 1163.924 250.475 C 1159.354 241.538, 1159.727 240, 1166.467 240 C 1171.553 240, 1173.514 238.139, 1174.450 232.425 C 1176.470 220.087, 1165.199 200.880, 1151.106 192.645 C 1144.480 188.773, 1143.683 186.733, 1147.938 184.532 C 1156.927 179.884, 1143.757 164.931, 1124.807 158.271 C 1118.763 156.147, 1115.340 155.651, 1105 155.399 C 1098.125 155.231, 1090.700 155.486, 1088.500 155.965 M 621.500 220.391 C 608.182 223.643, 596.075 232.754, 590.051 244.056 C 583.998 255.413, 587.674 258.184, 597.260 249.491 C 609.876 238.049, 627.613 232.315, 642.668 234.809 C 650.124 236.045, 652 235.371, 652 231.455 C 652 228.020, 644.997 222.543, 638.146 220.621 C 631.461 218.745, 628.412 218.703, 621.500 220.391 M 907.821 224.395 C 899.528 226.628, 893.575 232.844, 895.335 237.431 C 895.787 238.608, 897.857 238.763, 906.796 238.291 C 916.119 237.800, 918.715 238.022, 924.645 239.823 C 932.852 242.316, 941.830 247.885, 949.067 254.971 C 954.745 260.531, 957.319 261.048, 957.818 256.729 C 958.359 252.035, 953.528 243.279, 946.729 236.634 C 939.630 229.694, 932.244 225.695, 923.566 224.094 C 916.249 222.745, 913.774 222.792, 907.821 224.395 M 761.056 296.090 C 748.652 298.523, 733.682 309.285, 725.018 322 C 709.450 344.845, 699.736 382.001, 702.882 406.668 C 705.625 428.180, 715.909 443.451, 733.437 452.039 C 746.054 458.221, 752.112 459.454, 770 459.479 C 783.490 459.497, 786.472 459.196, 793 457.158 C 815.537 450.121, 828.901 436.417, 834.600 414.500 C 837.413 403.685, 837.021 382.086, 833.730 366.500 C 832.336 359.900, 830.220 351.575, 829.027 348 C 826.037 339.042, 819.186 325.520, 814.257 318.848 C 801.120 301.065, 780.554 292.267, 761.056 296.090 M 617.348 300.420 C 608.135 302.655, 600.921 306.903, 593.325 314.567 C 581.251 326.751, 575.055 342.496, 575.017 361.090 C 574.983 378.096, 580.775 392.784, 591.973 404.089 C 601.917 414.127, 613.271 418.925, 627.201 418.976 C 652.096 419.066, 671.514 403.171, 678.590 376.908 C 680.867 368.456, 680.879 351.876, 678.615 342.528 C 671.165 311.772, 644.917 293.733, 617.348 300.420 M 903.500 304.447 C 889.006 308.150, 878.464 316.625, 870.176 331.239 C 862.855 344.146, 860.006 364.942, 863.443 380.390 C 869.309 406.754, 889.105 424.063, 913.299 423.983 C 944.235 423.879, 967.202 398.148, 967.283 363.500 C 967.361 329.848, 943.890 303.008, 914.500 303.143 C 911.200 303.158, 906.250 303.745, 903.500 304.447 M 760.102 305.583 C 740.711 310.798, 725.087 331.245, 715.854 363.493 C 708.648 388.662, 709.619 412.436, 718.469 427.537 C 724.173 437.270, 737.567 446.272, 751.088 449.459 C 759.678 451.484, 780.642 451.495, 788.540 449.478 C 803.694 445.609, 815.608 436.639, 821.505 424.658 C 826.797 413.906, 828.305 405.160, 827.653 389 C 826.512 360.694, 817.126 334.652, 802.465 319.110 C 790.313 306.228, 775.405 301.468, 760.102 305.583 M 620 308.394 C 611.605 310.742, 605.518 314.376, 598.969 320.947 C 573.205 346.796, 577.718 393.234, 607.540 409.147 C 613.040 412.081, 623.598 414.765, 624.756 413.524 C 625.165 413.085, 624.979 412.539, 624.342 412.310 C 620.367 410.883, 613.101 404.784, 609.423 399.788 C 603.747 392.078, 600.845 384.223, 600.251 374.967 C 599.018 355.728, 608.329 338.424, 623.825 331.160 C 631.833 327.406, 643.005 327.481, 651.112 331.342 C 661.625 336.349, 671.119 349.110, 672.618 360.250 C 673.522 366.960, 675 366.152, 675 358.947 C 675 344.242, 669.453 330.438, 659.522 320.431 C 648.420 309.244, 633.360 304.657, 620 308.394 M 904.500 312.411 C 888.009 316.504, 874.575 330.769, 869.572 349.500 C 867.455 357.429, 866.267 375, 867.849 375 C 868.539 375, 869 373.272, 869 370.682 C 869 364.754, 871.583 356.434, 875.185 350.762 C 891.807 324.582, 925.133 326.702, 938.278 354.777 C 940.935 360.451, 941.491 362.966, 941.839 370.899 C 942.332 382.123, 940.932 389.315, 936.663 397.500 C 932.842 404.825, 924.437 413.211, 918.449 415.674 C 912.536 418.105, 912.818 419.414, 919.076 418.584 C 943.042 415.405, 960 393.409, 960 365.500 C 960 348.934, 954.779 335.610, 944.089 324.897 C 932.225 313.008, 918.956 308.823, 904.500 312.411 M 622.299 340.960 C 613.350 346.416, 614.086 361.631, 623.490 365.560 C 628.059 367.470, 630.831 367.376, 634.938 365.173 C 639.156 362.911, 642.001 357.808, 641.996 352.516 C 641.987 342.065, 631.029 335.636, 622.299 340.960 M 890.299 344.960 C 888.538 346.033, 886.339 348.378, 885.412 350.170 C 881.977 356.812, 884.177 365.308, 890.299 369.040 C 899.077 374.393, 909.993 367.719, 909.993 357 C 909.993 346.066, 899.252 339.500, 890.299 344.960 M 604.343 456.549 C 604.016 457.400, 603.953 461.625, 604.203 465.937 C 605.008 479.848, 611.594 489.340, 622.696 492.590 C 628.504 494.290, 633.156 493.800, 637.754 491.003 L 640.744 489.185 640.255 477.342 C 639.986 470.829, 639.442 465.146, 639.046 464.713 C 638.490 464.106, 606.834 455, 605.280 455 C 605.091 455, 604.670 455.697, 604.343 456.549 M 920.917 462.415 C 920.688 462.644, 915.100 464.031, 908.500 465.497 C 892.211 469.117, 892.006 469.276, 891.976 478.273 C 891.963 482.248, 891.537 487.291, 891.030 489.480 C 889.878 494.447, 891.270 496.256, 897.608 498.030 C 903.462 499.669, 911.272 498.035, 916.834 494.006 C 922.808 489.678, 927.022 480.432, 927.731 470.101 L 928.286 462 924.810 462 C 922.898 462, 921.146 462.187, 920.917 462.415 M 645.920 468.648 C 645.298 470.252, 644.997 474.844, 645.235 479.139 C 645.736 488.218, 649.379 496.714, 654.328 500.344 C 663.685 507.209, 676.593 507.808, 685.250 501.779 C 687.999 499.865, 688 499.858, 688 487.491 C 688 480.686, 687.585 474.862, 687.078 474.548 C 686.571 474.235, 678.028 472.397, 668.094 470.464 C 658.160 468.531, 649.356 466.690, 648.530 466.373 C 647.521 465.986, 646.664 466.733, 645.920 468.648 M 863.576 474.004 C 850.530 476.125, 846.348 477.171, 845.326 478.569 C 844.464 479.747, 844 483.439, 844 489.109 C 844 493.909, 843.723 498.558, 843.384 499.441 C 842.980 500.494, 844 502.207, 846.351 504.424 C 849.074 506.992, 851.080 507.929, 854.716 508.330 C 857.347 508.620, 860.896 509.155, 862.601 509.520 C 870.063 511.116, 881.342 502.633, 884.424 493.109 C 886.542 486.565, 887.374 477.020, 886.111 473.750 C 884.830 470.433, 885.592 470.424, 863.576 474.004 M 694.547 477.738 C 693.103 481.501, 692.818 491.805, 694 497.505 C 695.011 502.382, 696.035 504.293, 699.490 507.750 C 704.374 512.638, 704.125 512.607, 721.500 510.510 C 728.100 509.714, 739.437 509.048, 746.693 509.031 C 763.276 508.992, 763 509.248, 763 493.900 C 763 485.888, 762.646 482.951, 761.572 482.060 C 760.731 481.361, 753.727 480.490, 744.519 479.939 C 735.925 479.424, 722.799 478.327, 715.351 477.501 C 697.718 475.546, 695.378 475.573, 694.547 477.738 M 823 479.037 C 818.875 479.429, 805.449 480.105, 793.164 480.537 L 770.827 481.324 769.914 483.727 C 768.451 487.574, 768.776 505.312, 770.349 507.462 C 771.640 509.228, 771.968 509.172, 778.009 506.154 C 787.678 501.322, 795.328 501.909, 804.093 508.156 C 805.345 509.048, 806.310 508.839, 808.593 507.182 C 810.192 506.021, 813.662 504.506, 816.305 503.814 C 820.504 502.714, 821.703 502.783, 825.805 504.359 C 834.413 507.665, 834.522 507.649, 836.458 502.839 C 838.611 497.493, 839.591 484.500, 838.125 480.750 C 836.935 477.706, 836.959 477.709, 823 479.037 M 610.332 496.271 C 609.713 497.273, 616.805 511.880, 619.809 515.789 C 621.502 517.993, 621.705 518.021, 625.252 516.539 C 627.278 515.693, 629.678 515, 630.586 515 C 631.493 515, 633.774 513.650, 635.653 512 C 643.862 504.793, 655.326 511.421, 652.014 521.459 C 650.849 524.988, 646.929 528, 643.500 528 C 640.550 528, 636.048 524.993, 634.491 521.983 C 632.709 518.537, 630.235 518.179, 626.895 520.884 L 624.568 522.769 627.284 526.688 C 628.778 528.844, 631.463 532.006, 633.250 533.715 C 636.423 536.748, 636.637 536.799, 642.254 535.896 C 650.240 534.612, 657.563 531.150, 665.044 525.121 C 671.972 519.539, 678.046 516.854, 688.045 514.955 C 691.595 514.281, 694.800 513.453, 695.168 513.115 C 695.535 512.777, 694.620 511.058, 693.133 509.296 L 690.431 506.092 684.575 509.046 C 677.573 512.578, 669.948 512.963, 660.549 510.260 C 655.535 508.818, 653.451 507.469, 648.369 502.374 L 642.239 496.227 636.869 498.081 C 629.809 500.519, 625.907 500.428, 617.710 497.635 C 613.720 496.275, 610.678 495.713, 610.332 496.271 M 413.468 497.030 C 375.341 500.167, 346.769 523.540, 338.603 558.272 C 337.654 562.308, 340.645 563.207, 343.227 559.662 C 346.998 554.486, 349.985 557.633, 350.015 566.815 C 350.038 573.790, 353.516 586.426, 357.993 595.802 C 365.203 610.900, 376.734 620.329, 389.500 621.564 C 394.549 622.053, 396.204 621.777, 399.941 619.823 C 406.766 616.254, 408.427 613.274, 408.856 603.832 C 409.275 594.605, 408.048 587.356, 403.834 574.165 C 400.851 564.827, 400.730 562, 403.314 562 C 406.573 562, 411.706 571.358, 415.124 583.533 C 416.844 589.657, 417.377 594.276, 417.431 603.500 L 417.500 615.500 421.500 617.500 C 427.260 620.380, 438.800 620.177, 445.221 617.083 C 456.376 611.706, 460.539 602.561, 459.789 585.077 C 459.400 575.998, 458.753 572.800, 455.220 562.500 C 451.664 552.135, 451.297 550.305, 452.521 549.067 C 453.750 547.824, 454.221 547.890, 456.073 549.566 C 464.191 556.912, 470.716 583.116, 468.133 598 C 467.609 601.025, 467.534 603.873, 467.968 604.329 C 468.403 604.785, 470.563 605.400, 472.769 605.696 C 482.859 607.049, 494.571 598.904, 499.018 587.441 C 502.153 579.362, 502.869 564.004, 500.589 553.757 C 496.927 537.297, 486.072 520.869, 473.001 512.007 C 455.431 500.094, 435.910 495.183, 413.468 497.030 M 914 502.633 C 909.551 504.582, 907.163 504.983, 901.500 504.733 C 897.650 504.564, 893.150 503.734, 891.500 502.890 C 888.518 501.365, 888.466 501.386, 882.960 506.428 C 879.914 509.217, 875.978 512.265, 874.215 513.201 L 871.009 514.902 873.185 518.701 C 874.382 520.790, 875.500 522.683, 875.670 522.906 C 875.840 523.130, 877.848 522.470, 880.131 521.441 C 886.577 518.534, 893.731 519.047, 899.928 522.860 C 902.734 524.587, 905.361 525.990, 905.765 525.979 C 907.283 525.935, 921 503.146, 921 500.668 C 921 499.703, 920.132 499.946, 914 502.633 M 782.373 509.918 C 777.117 512.305, 776.557 513.289, 779.130 515.616 C 782.557 518.715, 785.047 524.699, 785.665 531.318 C 786.404 539.225, 783.621 546.303, 777.655 551.693 L 773.549 555.403 773.845 566.451 C 774.184 579.107, 774.268 579.245, 782.785 581.151 C 787.512 582.209, 789.238 582.140, 794.848 580.669 C 798.449 579.724, 802.757 577.902, 804.420 576.619 C 807.127 574.531, 807.455 573.692, 807.537 568.637 C 807.649 561.783, 811.343 555.792, 817.382 552.672 C 827.224 547.588, 839.821 552.960, 841.887 563.123 C 842.565 566.458, 842.648 566.504, 848.537 566.809 C 856.613 567.227, 862.174 565.479, 867.395 560.884 C 875.551 553.704, 876.829 545.292, 870.806 538.432 C 868.016 535.254, 867.838 534.672, 868.995 532.509 C 870.902 528.945, 869.680 522.319, 866.503 519.003 C 864.618 517.035, 862.111 515.889, 857.871 515.054 C 851 513.703, 846.628 514.658, 841.228 518.691 L 837.956 521.135 832.728 515.643 C 828.863 511.581, 826.523 509.971, 823.750 509.464 C 817.878 508.389, 813.352 509.715, 809.399 513.667 L 805.828 517.238 802.164 513.737 C 800.149 511.812, 797.517 509.733, 796.316 509.118 C 793.067 507.455, 787.036 507.801, 782.373 509.918 M 839.611 509.877 C 837.483 512.229, 838.978 513.473, 841.603 511.535 C 842.959 510.534, 843.194 509.824, 842.426 509.044 C 841.653 508.258, 840.865 508.492, 839.611 509.877 M 640.750 514.080 C 638.740 515.251, 638.401 520.001, 640.200 521.800 C 640.860 522.460, 642.345 523, 643.500 523 C 647.919 523, 649.598 517.756, 646.171 514.655 C 644.072 512.755, 643.186 512.661, 640.750 514.080 M 729.500 517.659 C 727.850 517.857, 719.975 518.722, 712 519.582 C 683.127 522.693, 677.780 524.308, 667.454 533.039 C 657.682 541.302, 650.902 543.141, 614 547.544 C 584.368 551.079, 568.758 551.209, 551 548.067 C 538.257 545.813, 536.771 545.747, 524.500 546.889 C 516.913 547.596, 510.967 548.626, 510.221 549.365 C 509.206 550.368, 509.181 551.748, 510.102 556.039 C 511.568 562.877, 510.744 580.994, 508.702 586.817 C 506.767 592.332, 507.257 592.540, 518.725 591.069 C 538.182 588.573, 546.274 586.441, 560.262 580.126 C 569.256 576.065, 577.768 573.503, 590.294 571.086 C 601.386 568.945, 643.079 563.563, 656.853 562.493 C 664.716 561.883, 665.558 561.585, 671.216 557.420 C 680.918 550.278, 696.166 546.517, 727.658 543.501 C 745.848 541.758, 760.813 541.604, 766.500 543.100 C 773.327 544.897, 774.093 544.731, 776.179 541 C 777.699 538.279, 778.020 536.288, 777.620 532.059 C 776.997 525.475, 774.806 522.227, 768.980 519.250 C 764.909 517.170, 763.363 517.011, 748.538 517.150 C 739.717 517.232, 731.150 517.462, 729.500 517.659 M 880.196 527.488 C 874.979 531.878, 874.649 533.234, 877.497 538.590 C 878.873 541.179, 880 544.581, 880 546.149 C 880 547.717, 880.520 549, 881.156 549 C 884.514 549, 899 535.522, 899 532.398 C 899 528.263, 895.977 526.035, 889.469 525.374 C 883.911 524.809, 883.183 524.975, 880.196 527.488 M 744.506 550.195 C 744.246 550.913, 744.363 557.575, 744.766 565 L 745.500 578.500 749.459 578.256 C 755.730 577.869, 755.970 577.209, 755.190 562.500 L 754.500 549.500 749.740 549.195 C 746.504 548.987, 744.828 549.308, 744.506 550.195 M 729.616 551.290 C 727.850 552.583, 727.787 553.540, 728.616 566.585 L 729.500 580.500 732.059 580.798 C 733.466 580.962, 735.829 580.635, 737.309 580.073 C 739.960 579.065, 739.999 578.918, 739.901 570.275 C 739.847 565.449, 739.509 559.025, 739.151 556 C 738.509 550.580, 738.449 550.496, 735 550.205 C 733.075 550.044, 730.652 550.532, 729.616 551.290 M 759.550 550.919 C 759.238 551.425, 759.280 557.050, 759.643 563.419 C 760.340 575.611, 760.696 576.304, 765.066 573.965 C 766.788 573.043, 767 571.788, 767 562.500 C 767 553.212, 766.788 551.957, 765.066 551.035 C 762.671 549.754, 760.301 549.704, 759.550 550.919 M 716.275 551.980 C 713.401 552.294, 710.551 553.049, 709.943 553.657 C 708.551 555.049, 709.055 580.512, 710.500 581.791 C 711.050 582.278, 714.200 582.412, 717.500 582.088 L 723.500 581.500 723.264 567.064 C 723.135 559.125, 722.685 552.354, 722.264 552.019 C 721.844 551.684, 719.149 551.666, 716.275 551.980 M 696.177 555.463 C 693.249 556.169, 690.379 557.221, 689.798 557.802 C 689.077 558.523, 689.021 562.593, 689.622 570.678 L 690.500 582.500 697.264 582.796 C 702.319 583.017, 704.162 582.741, 704.560 581.704 C 705.443 579.403, 703.577 554.679, 702.500 554.420 C 701.950 554.288, 699.105 554.757, 696.177 555.463 M 816.566 559.076 C 812.288 562.833, 811.144 567.444, 813.406 571.818 C 815.662 576.181, 818.774 578.001, 823.973 577.996 C 832.913 577.989, 839.009 571.462, 837.010 564.037 C 835.504 558.443, 831.975 556, 825.400 556 C 820.874 556, 819.541 556.464, 816.566 559.076 M 678.090 562.405 C 676.007 564.621, 675.809 565.617, 676.173 572.047 C 676.609 579.777, 678.065 582, 682.691 582 C 684.915 582, 684.996 581.713, 684.882 574.250 C 684.672 560.514, 682.850 557.337, 678.090 562.405 M 335.407 571.037 C 325.214 573.043, 318.638 577.434, 315.394 584.401 C 311.360 593.064, 312.721 600.984, 319.390 607.653 C 325.278 613.542, 332.105 615.391, 345.717 614.786 C 351.414 614.532, 356.521 613.879, 357.066 613.334 C 357.721 612.679, 357.351 611.444, 355.975 609.696 C 351.099 603.496, 345.113 588.146, 342.280 574.577 C 341.347 570.107, 341.011 569.934, 335.407 571.037 M 665.226 571.179 C 665.806 572.919, 668.782 574.551, 669.700 573.633 C 670.138 573.195, 669.624 572.198, 668.557 571.418 C 666.198 569.693, 664.695 569.585, 665.226 571.179 M 550.445 593.366 C 548.764 594.122, 543.139 595.526, 537.945 596.487 C 521.359 599.554, 522.918 598.585, 522.624 606.014 C 522.302 614.171, 519.522 620.542, 513.819 626.196 C 508.408 631.561, 502.192 634.651, 492.923 636.583 C 480.313 639.213, 465.069 635.268, 455.553 626.913 L 452.051 623.837 446.275 626.089 C 437.770 629.405, 426.618 629.274, 418.107 625.758 L 411.713 623.117 408.607 625.485 C 406.898 626.788, 402.679 628.638, 399.231 629.596 C 393.770 631.114, 392.096 631.179, 386.248 630.102 C 382.556 629.421, 376.522 627.282, 372.840 625.347 L 366.145 621.829 351.823 623.164 L 337.500 624.500 337.183 628.365 C 336.503 636.647, 342.393 658.474, 349.138 672.672 C 365.009 706.076, 394.514 727.761, 433.171 734.431 C 458.185 738.747, 485.538 736.837, 508.500 729.171 L 516.500 726.500 520.652 713.735 C 531.645 679.942, 543.111 656.741, 557.663 638.842 C 563.287 631.925, 565.641 630.241, 567.327 631.927 C 567.984 632.584, 566.590 635.740, 563.206 641.257 C 521.565 709.161, 509.133 776.346, 525.137 847 C 528.492 861.812, 533.418 877.890, 538.026 889.063 C 539.662 893.030, 541 896.824, 541 897.495 C 541 898.167, 538.293 900.386, 534.985 902.428 C 521.750 910.598, 510.683 925.248, 508.071 938.057 C 506.573 945.403, 508.118 952.692, 512.342 958.214 C 517.119 964.460, 518 964.234, 518 956.765 C 518 953.244, 518.665 948.125, 519.477 945.390 C 522.071 936.655, 530.350 927.025, 535.281 927.007 C 538.846 926.993, 538.231 929.949, 533.597 935.104 C 522.901 947, 522.353 967.325, 532.611 971.611 C 538.325 973.998, 548.169 976.234, 549.014 975.337 C 549.447 974.877, 549.322 971.921, 548.737 968.770 C 546.894 958.847, 551.232 945.768, 558.914 938.086 C 566.109 930.891, 572.359 933.540, 565.666 940.948 C 563.712 943.111, 561.343 946.370, 560.401 948.190 C 558.336 952.181, 556.028 960.530, 556.012 964.068 C 555.991 968.480, 558.980 976.919, 560.934 977.965 C 563.174 979.164, 586.304 981.481, 588.318 980.708 C 589.537 980.241, 589.531 979.371, 588.281 974.462 C 586.511 967.512, 587.574 959.890, 591.460 951.677 C 594.342 945.584, 601.855 938, 605.009 938 C 608.707 938, 608.254 940.717, 603.603 946.426 C 595.308 956.611, 592.677 972.506, 598.138 979.448 C 599.958 981.763, 600.813 981.999, 607.323 981.990 C 633.155 981.953, 665.681 976.561, 679.847 969.968 C 693.172 963.767, 697.540 957.837, 700.815 941.500 C 703.745 926.888, 705.361 913.945, 704.365 913.070 C 703.889 912.652, 699 910.906, 693.500 909.190 C 655.398 897.301, 624.148 869.556, 610.369 835.385 C 595.591 798.735, 598.967 753.628, 619.124 718.398 C 641.389 679.483, 678.391 656.388, 728 650.441 C 762.836 646.265, 796.291 651.486, 824.500 665.500 C 844.414 675.393, 859.114 687.575, 871.663 704.585 C 898.555 741.038, 905.576 793.803, 888.912 834.214 C 879.474 857.102, 862.866 876.992, 841.089 891.490 C 826.139 901.442, 810.762 908.074, 791.129 913.037 L 786.758 914.142 787.407 920.321 C 788.945 934.970, 791.317 948.771, 793.126 953.607 C 799.323 970.171, 827.494 979.881, 874.648 981.707 L 889.797 982.294 891.641 978.897 C 893.011 976.374, 893.475 973.441, 893.444 967.500 C 893.395 958.161, 891.317 952.570, 885.503 946.135 C 879.307 939.277, 883.895 935.992, 891.227 942.036 C 899.399 948.772, 903.786 964.387, 900.706 975.777 C 899.921 978.680, 899.674 981.299, 900.157 981.597 C 901.024 982.133, 920.409 980.500, 926.785 979.355 C 931.667 978.477, 933.405 974.476, 933.455 964 C 933.500 954.314, 931.545 948.811, 925.387 941.296 C 920.177 934.939, 922.021 931.886, 928.634 935.919 C 938.012 941.637, 944.031 958.519, 941.142 971 C 940.521 973.684, 940.465 975.865, 941.005 976.405 C 942.190 977.590, 954.153 974.639, 959.950 971.731 C 965.218 969.090, 966.821 965.577, 966.900 956.500 C 966.964 949.141, 963.909 941.167, 958.493 934.557 C 955.056 930.363, 954.828 929.743, 956.213 928.358 C 957.597 926.974, 958.052 926.975, 960.757 928.374 C 969.168 932.724, 976.316 949.249, 974.482 960.105 C 973.652 965.019, 974.848 965.076, 979.022 960.323 C 983.602 955.105, 985 951.072, 985 943.069 C 985 928.559, 976.029 914.830, 958.750 902.897 C 955.587 900.712, 953 898.301, 953 897.538 C 953 896.775, 954.317 892.855, 955.927 888.826 C 959.600 879.633, 965.335 860.751, 968.627 847.016 C 970.667 838.501, 971.030 835.073, 970.533 829 C 970.078 823.447, 970.447 818.822, 971.957 811.186 C 981.208 764.391, 970.079 704.166, 942.391 651.190 C 936.242 639.425, 935.557 637, 938.385 637 C 941.489 637, 951.992 652.553, 959.517 668.291 C 972.208 694.836, 979.879 724.538, 983.472 761.046 C 984.953 776.097, 984.961 778.807, 983.562 791.046 C 982.716 798.446, 981.272 809, 980.353 814.500 C 978.387 826.266, 978.982 831.152, 982.816 834.706 C 985.010 836.741, 986.205 837.101, 989.368 836.677 C 995.293 835.883, 999.898 831.440, 1005.201 821.400 C 1008.455 815.240, 1010.456 812.500, 1011.701 812.500 C 1013.204 812.500, 1013.473 813.284, 1013.337 817.266 C 1013.179 821.873, 1010.938 827.366, 1004.407 839.155 C 999.073 848.782, 1000.371 860.817, 1007.190 864.974 C 1011.410 867.548, 1015.035 867.533, 1020.153 864.922 C 1028.772 860.525, 1035.813 850.380, 1042.654 832.500 C 1044.053 828.844, 1045.095 827.500, 1046.534 827.500 C 1048.094 827.500, 1048.565 828.296, 1048.816 831.352 C 1049.474 839.357, 1042.329 855.872, 1034.848 863.637 C 1031.327 867.292, 1032.264 868.548, 1037.743 867.520 C 1046.928 865.797, 1059.407 856.275, 1066.054 845.916 C 1070.625 838.793, 1076.397 824.902, 1078.874 815.064 C 1091.074 766.606, 1072.943 701.175, 1033.133 650 C 1019.370 632.308, 996.505 611.924, 978.271 601.092 L 971.387 597.002 961.039 600.487 C 940.208 607.502, 921.881 612.024, 892.380 617.428 C 813.675 631.845, 723.188 630.934, 640 614.888 C 619.104 610.857, 589.450 603.131, 573 597.431 C 557.310 591.995, 554.587 591.504, 550.445 593.366 M 503.001 601.716 C 501.627 601.984, 498.640 603.920, 496.365 606.017 C 488.443 613.320, 478.822 616.174, 469.303 614.043 C 463.849 612.823, 463.529 612.863, 461.803 614.995 C 459.364 618.007, 459.531 619.486, 462.583 621.887 C 467.776 625.972, 475.961 628.349, 485.101 628.427 C 493.031 628.494, 494.237 628.227, 500.559 625 C 509.771 620.298, 513.445 615.234, 513.477 607.196 L 513.500 601.500 509.500 601.364 C 507.300 601.288, 504.375 601.447, 503.001 601.716 M 731 657.607 C 695.531 661.855, 667.027 674.675, 645.915 695.875 C 629.496 712.363, 618.399 732.392, 612.280 756.584 C 609.712 766.738, 609.522 768.895, 609.557 787.500 C 609.592 805.975, 609.798 808.250, 612.262 817.337 C 622.091 853.591, 647.500 882.059, 683.428 897.071 C 704.548 905.896, 726.307 909.459, 754.500 908.709 C 776.877 908.114, 787.948 906.373, 804.500 900.849 C 825.858 893.721, 842.752 883.173, 857.804 867.569 C 872.378 852.460, 881.154 836.890, 886.554 816.564 C 896.160 780.410, 886.759 736.296, 862.843 705.296 C 845.234 682.472, 815.476 665.753, 781.262 659.460 C 772.823 657.908, 738.921 656.658, 731 657.607" stroke="none" fill="black" fill-rule="evenodd"/>
</svg>