<svg xmlns="http://www.w3.org/2000/svg" width="1536" height="1024" viewBox="0 0 1536 1024" version="1.1">
	<path d="M 768.500 21.605 C 767.400 21.833, 764.025 22.511, 761 23.110 C 754.608 24.378, 741.196 30.393, 734.521 34.986 C 727.001 40.160, 717.056 50, 711.830 57.438 L 706.956 64.377 695.228 66.740 C 688.778 68.040, 678.647 70.715, 672.715 72.685 C 660.943 76.594, 638.083 87.521, 628.362 93.887 C 621.298 98.512, 622.510 99.096, 614.636 87.276 C 603.941 71.223, 587.258 56.379, 570 47.560 C 519.243 21.624, 456.933 31.012, 417.407 70.551 C 404.065 83.898, 396.069 96.422, 396.022 104.050 C 395.997 108.156, 397.447 110, 400.700 110 C 401.965 110, 403 110.420, 403 110.934 C 403 111.448, 400.522 115.160, 397.494 119.184 C 387.642 132.276, 381.596 145.991, 378.512 162.250 C 375.160 179.923, 378.186 197.930, 385.259 202.391 C 386.524 203.190, 387.628 202.912, 389.918 201.219 C 391.569 199.998, 393.050 199, 393.210 198.999 C 393.369 198.999, 393.347 203.201, 393.159 208.337 C 392.292 232.087, 402.800 259.876, 418.252 274.695 C 426.921 283.008, 431.808 284.053, 434.487 278.168 C 435.030 276.976, 435.801 276, 436.200 276 C 436.599 276, 438.737 278.668, 440.951 281.929 C 456.814 305.287, 485.649 320.055, 515.793 320.259 C 521.454 320.298, 526.332 320.728, 526.633 321.215 C 526.934 321.702, 528.068 326.465, 529.154 331.800 C 531.433 343.002, 535.899 356.539, 540.542 366.324 C 542.638 370.740, 543.378 373.286, 542.640 373.540 C 542.013 373.757, 525.975 374.070, 507 374.236 C 474.168 374.524, 472.212 374.647, 466.539 376.768 C 448.001 383.700, 439.015 397.632, 440.252 417.525 C 440.880 427.638, 443.862 434.931, 449.048 439.038 C 453.453 442.527, 452.652 436.867, 456.544 492 C 460.171 543.378, 463.825 580.731, 468.082 609.941 C 473.487 647.040, 479.148 663.559, 490.750 676.095 C 493.637 679.215, 496 681.998, 496 682.279 C 496 682.561, 493.863 684.166, 491.250 685.845 C 476.115 695.575, 469.748 709.410, 473.337 724.770 C 474.202 728.471, 475.394 735.154, 475.987 739.620 C 483.202 794.022, 513.991 837.180, 565.848 865.584 C 572.640 869.304, 578.453 873.016, 578.766 873.832 C 579.750 876.397, 577.097 897.410, 574.557 907.160 C 573.219 912.297, 570.249 920.999, 567.957 926.499 C 558.810 948.442, 559.377 959.036, 570.285 970 C 588.416 988.222, 638.750 1000.944, 708.707 1004.985 C 735.965 1006.560, 795.981 1006.317, 819 1004.539 C 870.211 1000.584, 906.395 993.110, 930.500 981.511 C 944.013 975.008, 949.878 970.025, 954.093 961.463 C 957.039 955.478, 957.223 954.493, 956.745 947.266 C 956.329 940.979, 955.255 937.076, 951.106 926.775 C 944.693 910.850, 941.191 896.557, 940.363 882.925 L 939.721 872.349 948.610 867.968 C 953.500 865.558, 963.390 859.635, 970.588 854.806 C 996.276 837.572, 1016.598 814.696, 1028.159 790 C 1035.240 774.872, 1041.681 752.586, 1043.477 737 C 1043.825 733.975, 1044.812 728.575, 1045.668 725 C 1047.675 716.627, 1046.974 708.855, 1043.614 702.224 C 1039.877 694.851, 1035.849 690.671, 1027.409 685.411 C 1019.946 680.759, 1018.793 679.401, 1021.445 678.383 C 1023.775 677.488, 1030.541 668.073, 1034.409 660.341 C 1045.626 637.917, 1052.269 585.257, 1060.599 452.719 C 1061.252 442.339, 1061.383 441.863, 1064.135 439.904 C 1065.706 438.785, 1068.232 435.761, 1069.746 433.185 C 1072.397 428.675, 1072.500 427.977, 1072.500 414.500 C 1072.500 401.285, 1072.351 400.219, 1069.850 395.480 C 1066.628 389.377, 1058.461 381.534, 1052.655 378.965 C 1042.655 374.542, 1037.886 374, 1008.957 374 C 993.764 374, 981.037 373.704, 980.675 373.342 C 980.313 372.980, 980.404 372.193, 980.877 371.592 C 985.048 366.290, 993.583 341.078, 996.650 325 L 997.508 320.500 1008.504 320.287 C 1021.469 320.035, 1032.430 318.001, 1043.484 313.794 C 1060.359 307.372, 1076.229 295.544, 1085.609 282.400 C 1088.120 278.880, 1090.479 276, 1090.851 276 C 1091.222 276, 1091.970 276.976, 1092.513 278.168 C 1095.139 283.938, 1100.032 283.014, 1108.243 275.199 C 1115.337 268.447, 1118.823 263.584, 1124.019 253.197 C 1130.648 239.943, 1133.170 229.589, 1133.748 213.250 C 1134.025 205.412, 1134.438 199, 1134.666 199 C 1134.894 199, 1136.359 199.945, 1137.921 201.099 C 1140.297 202.856, 1141.121 203.005, 1142.974 202.014 C 1146.036 200.375, 1148.757 193.717, 1150.125 184.516 C 1151.490 175.343, 1150.086 160.742, 1146.818 150.118 C 1143.739 140.108, 1136.373 125.690, 1130.368 117.917 C 1127.416 114.096, 1125 110.752, 1125 110.485 C 1125 110.218, 1126.260 110, 1127.800 110 C 1129.340 110, 1131.140 109.460, 1131.800 108.800 C 1136.862 103.738, 1126.193 84.116, 1109.873 68.475 C 1075.700 35.721, 1025.464 24.361, 978.005 38.655 C 966.795 42.032, 953.227 48.446, 943.432 55.002 C 932.972 62.002, 915.588 79.436, 909.064 89.468 C 906.214 93.851, 903.438 97.973, 902.894 98.628 C 902.157 99.516, 900.205 98.782, 895.203 95.733 C 877.714 85.073, 853.375 75.402, 833 71.016 C 827.225 69.773, 822.347 68.621, 822.161 68.456 C 821.975 68.291, 822.987 66.441, 824.411 64.346 C 827.327 60.054, 827.809 54.601, 825.557 51.385 C 824.763 50.251, 821.468 48.137, 818.234 46.686 C 810.144 43.055, 800.869 42.326, 789.637 44.440 C 784.762 45.357, 780.582 45.915, 780.347 45.681 C 780.113 45.446, 781.064 43.105, 782.461 40.478 C 785.985 33.849, 785.858 28.704, 782.077 24.923 C 780.469 23.315, 778.107 21.994, 776.827 21.986 C 775.547 21.979, 773.600 21.796, 772.500 21.581 C 771.400 21.366, 769.600 21.376, 768.500 21.605 M 763.500 31.712 C 758.184 32.989, 747.798 37.737, 741.500 41.769 C 732.297 47.662, 720.828 59.398, 713.730 70.186 C 710.586 74.964, 707.487 79.199, 706.842 79.598 C 706.154 80.023, 704.767 79.192, 703.488 77.587 L 701.307 74.852 692.403 76.947 C 677.580 80.436, 665.210 84.977, 651.521 91.956 C 591.356 122.631, 551.260 177.598, 538.422 247 C 533.605 273.043, 533.193 307.816, 537.465 327.683 C 544.369 359.783, 559.470 387, 582.435 408.734 C 595.980 421.552, 608.249 429.923, 627.500 439.479 C 655.396 453.326, 683.093 461.489, 718.048 466.165 C 739.921 469.092, 779.457 469.363, 800.522 466.731 C 837.815 462.072, 866.312 453.928, 895.539 439.579 C 933.494 420.943, 957.927 397.413, 974.536 363.500 C 980.678 350.958, 983.829 341.787, 987.108 326.906 C 989.141 317.679, 989.399 313.838, 989.388 293 C 989.374 267.936, 988.146 257.251, 982.579 233.772 C 977.292 211.472, 967.239 186.752, 956.035 168.500 C 926.745 120.783, 876.298 87.399, 819.313 78.023 L 812.126 76.841 803.813 80.958 C 798.397 83.640, 793.932 85.149, 791 85.288 C 786.842 85.484, 786.500 85.315, 786.500 83.069 C 786.500 81.053, 788.231 79.602, 796.643 74.569 C 808.542 67.449, 817 60.607, 817 58.101 C 817 55.355, 812.323 53.737, 802.920 53.232 C 789.249 52.498, 774.489 57.063, 761.387 66.078 C 753.973 71.178, 750.526 68.785, 755.618 62.072 C 757.203 59.982, 761.711 54.049, 765.635 48.886 C 773.393 38.680, 776.417 33.484, 775.482 31.971 C 774.876 30.991, 767.195 30.825, 763.500 31.712 M 497.408 43.020 C 471.083 45.797, 444.936 57.348, 426.230 74.467 C 417.561 82.399, 406.634 96.967, 408.187 98.520 C 408.507 98.840, 412.478 98.155, 417.012 96.997 C 432.842 92.955, 436.090 95.684, 425.140 103.826 C 400.418 122.209, 384.472 153.695, 386.367 180.384 C 386.716 185.307, 387.247 189.580, 387.547 189.880 C 387.846 190.180, 391.612 186.729, 395.916 182.212 C 407.457 170.099, 409.404 170.901, 405.551 186.179 C 402.244 199.296, 401.406 210.475, 402.935 221.104 C 404.430 231.500, 409.004 245.502, 413.585 253.708 C 417.161 260.114, 426.363 270.934, 427.385 269.935 C 427.703 269.625, 428.634 265.860, 429.455 261.569 C 431.627 250.219, 434.623 247.725, 437.646 254.750 C 445.702 273.478, 448.153 277.387, 457.883 287.032 C 465.939 295.017, 469.042 297.335, 477 301.310 C 490.180 307.894, 503.588 311.151, 516 310.782 L 525.500 310.500 525.500 292.573 L 525.500 274.647 518.301 272.877 C 497.847 267.849, 476.776 252.827, 464.224 234.324 C 451.562 215.657, 445.410 192.627, 447.947 173.391 C 450.492 154.105, 458.216 138.560, 472.133 124.716 C 479.529 117.359, 482.471 115.208, 490.232 111.482 C 502.314 105.682, 510.334 103.689, 521.500 103.715 C 541.533 103.761, 560.530 112.172, 575.457 127.603 L 581.500 133.850 592.006 123.675 C 597.784 118.079, 604.984 111.409, 608.006 108.853 L 613.500 104.205 610.669 98.682 C 606.606 90.754, 595.550 77.491, 587.073 70.374 C 569.199 55.369, 549.424 46.933, 524 43.469 C 512.696 41.930, 508.426 41.857, 497.408 43.020 M 999.500 43.389 C 971.628 48.025, 947.734 60.198, 929.617 78.992 C 920.903 88.031, 911 101.844, 911 104.959 C 911 105.895, 913.138 108.183, 915.750 110.043 C 918.362 111.903, 925.264 118.055, 931.088 123.713 C 936.911 129.371, 941.965 134, 942.319 134 C 942.673 134, 945.898 131.065, 949.486 127.477 C 970.230 106.733, 998.604 98.646, 1024.839 105.999 C 1044.873 111.615, 1062.155 126.149, 1071.816 145.511 C 1077.208 156.317, 1079.012 163.435, 1079.691 176.581 C 1081.025 202.394, 1071.872 225.776, 1052.572 245.859 C 1039.970 258.972, 1024.299 268.276, 1007.774 272.453 L 998.653 274.758 998.759 292.629 L 998.865 310.500 1011.682 310.399 C 1023.576 310.305, 1025.293 310.037, 1035.500 306.679 C 1060.861 298.334, 1079.836 280.906, 1088.083 258.383 C 1092.359 246.702, 1095.061 247.522, 1097.718 261.307 C 1098.640 266.088, 1099.710 270, 1100.097 270 C 1100.483 270, 1103.022 267.568, 1105.738 264.596 C 1111.882 257.874, 1118.051 246.162, 1121.619 234.451 C 1124.083 226.361, 1124.351 223.961, 1124.408 209.500 C 1124.462 195.700, 1124.145 192.287, 1122.105 184.680 C 1119.613 175.390, 1119.971 173.221, 1123.794 174.435 C 1125.738 175.052, 1132.251 181.556, 1136.780 187.403 C 1138.016 188.999, 1139.248 190.085, 1139.518 189.815 C 1141.262 188.071, 1142.086 176.848, 1141.090 168.402 C 1138.243 144.260, 1123.815 119.070, 1104.517 104.545 C 1092.804 95.730, 1095.836 92.699, 1112.004 97.061 C 1116.451 98.261, 1120.384 98.950, 1120.742 98.591 C 1122.368 96.965, 1111.619 82.553, 1102.770 74.493 C 1086.424 59.605, 1065.692 49.284, 1042.500 44.489 C 1031.732 42.262, 1009.666 41.698, 999.500 43.389 M 511.820 113.070 C 488.457 116.237, 467.810 134.438, 459.530 159.167 C 455.911 169.973, 454.929 187.825, 457.379 198.237 C 463.884 225.870, 480.804 247.737, 504.500 259.133 C 513.373 263.400, 525.625 266.831, 526.899 265.405 C 527.343 264.907, 528.470 258.950, 529.403 252.167 C 533.918 219.337, 547.942 181.869, 565.187 156.564 C 576.589 139.833, 575.832 141.780, 572.591 137.531 C 571.050 135.510, 566.348 131.115, 562.144 127.764 C 546.972 115.674, 529.738 110.641, 511.820 113.070 M 992.500 113.468 C 976.709 116.912, 961.276 126.288, 951.887 138.143 L 948.831 142.001 953.420 148.105 C 974.973 176.778, 990.324 215.552, 996.333 256.500 L 997.654 265.500 1001.764 265.239 C 1004.024 265.095, 1009.078 263.894, 1012.995 262.569 C 1046.562 251.212, 1071.859 215.996, 1071.948 180.500 C 1072.054 138.126, 1032.491 104.745, 992.500 113.468 M 649.232 178.060 C 636.529 180.565, 621.234 194.561, 622.190 202.808 C 622.732 207.483, 625.670 206.711, 631.839 200.273 C 635.282 196.680, 639.851 193.216, 643.500 191.432 C 649.567 188.467, 653.878 188.078, 668 189.217 C 671.117 189.469, 671.533 189.214, 671.804 186.884 C 672.218 183.309, 667.520 179.492, 660.980 178.089 C 655.331 176.878, 655.233 176.877, 649.232 178.060 M 863.849 178.358 C 857.652 180.067, 854.170 182.473, 853.389 185.586 C 852.358 189.693, 854.066 190.472, 860.917 189.018 C 873.383 186.372, 882.308 189.349, 893.172 199.774 C 899.885 206.217, 903.105 207.409, 903.816 203.715 C 904.003 202.746, 903.181 199.939, 901.989 197.477 C 895.360 183.784, 877.195 174.678, 863.849 178.358 M 748.808 234.331 C 736.169 239.657, 726.411 249.742, 718.651 265.500 C 707.726 287.686, 702.993 317.037, 707.531 334.458 C 712.456 353.366, 726.346 365.342, 748.500 369.781 L 757.500 371.584 757.796 377.732 C 758.062 383.260, 757.861 384.011, 755.796 385.177 C 752.594 386.986, 740.745 386.657, 733.500 384.558 C 723.628 381.699, 714.524 376.333, 708.493 369.819 C 702.801 363.671, 700.938 359.662, 702.873 357.727 C 704.456 356.144, 704.278 352.044, 702.597 351.399 C 700.387 350.551, 693.495 354.576, 690.097 358.699 C 686.676 362.848, 686.237 365.122, 688.495 366.996 C 689.699 367.995, 690.471 367.922, 692.460 366.618 C 695.740 364.469, 695.675 364.443, 697.878 368.761 C 698.933 370.830, 702.093 374.854, 704.898 377.705 C 707.704 380.555, 710 383.565, 710 384.392 C 710 387.672, 715.423 402.921, 719.156 410.139 C 725.141 421.710, 732.371 429.096, 742.746 434.238 C 751.313 438.483, 751.390 438.500, 762.472 438.500 C 773.282 438.500, 773.807 438.396, 781.048 434.810 C 796.576 427.120, 808.147 411.034, 813.637 389.500 C 815.100 383.762, 816.220 381.692, 819.843 378.021 C 822.275 375.557, 825.311 371.883, 826.592 369.855 C 829.278 365.599, 830.604 364.551, 831.490 365.984 C 832.462 367.557, 836.993 367.183, 837.648 365.475 C 838.567 363.079, 833.489 356.371, 828.576 353.492 C 824.946 351.364, 823.721 351.079, 822.053 351.971 C 819.551 353.311, 819.458 354.744, 821.714 357.236 C 823.339 359.032, 823.306 359.360, 821.082 363.551 C 815.752 373.599, 802.591 382.007, 786.723 385.500 C 778.496 387.312, 773.240 386.973, 769.202 384.371 C 767.183 383.071, 766.940 382.210, 767.202 377.298 L 767.500 371.705 776.346 369.918 C 791.976 366.761, 804.853 358.977, 811.802 348.485 C 813.444 346.007, 815.790 340.272, 817.016 335.740 C 818.996 328.418, 819.186 325.884, 818.721 313 C 818.322 301.958, 817.588 296.160, 815.640 288.687 C 808.836 262.574, 796.254 243.681, 780.506 235.928 C 774.419 232.932, 772.592 232.522, 764.079 232.245 C 755.786 231.975, 753.736 232.255, 748.808 234.331 M 648.698 241.444 C 643.629 243.252, 637.610 247.511, 634.676 251.364 C 621.548 268.608, 622.107 295.479, 635.920 311.172 C 646.011 322.635, 661.481 323.801, 673.843 314.030 C 687.221 303.455, 691.764 278.271, 683.537 260.299 C 676.650 245.256, 661.300 236.949, 648.698 241.444 M 860.770 241.534 C 854.918 243.408, 846.334 251.532, 843.102 258.256 C 831.445 282.505, 840.896 313.553, 861.781 319.625 C 879.957 324.909, 896.631 311.008, 900.101 287.678 C 904.418 258.653, 883.596 234.224, 860.770 241.534 M 753.300 242.862 C 740.675 247.224, 731.672 257.476, 723.554 276.735 C 717.809 290.365, 715.610 301.599, 715.576 317.500 C 715.549 329.950, 715.810 332.161, 717.927 337.469 C 723.906 352.461, 741.395 361.965, 763 361.965 C 783.990 361.965, 799.678 353.452, 806.840 338.175 C 809.385 332.745, 809.497 331.809, 809.430 316.500 C 809.369 302.505, 809.031 299.275, 806.731 290.723 C 803.540 278.858, 796.520 263.706, 790.960 256.683 C 780.183 243.069, 766.856 238.178, 753.300 242.862 M 658.256 254.029 C 654.914 255.373, 652.008 260.843, 652.004 265.800 C 651.997 273.558, 656.437 279, 662.772 279 C 672.458 279, 678.192 269.743, 674.156 260.620 C 671.255 254.061, 664.816 251.392, 658.256 254.029 M 855.893 254.440 C 848.261 258.754, 847.179 269.112, 853.681 275.615 C 856.500 278.434, 857.801 279, 861.457 279 C 876.756 279, 878.037 254.782, 862.812 253.368 C 860.168 253.122, 857.492 253.537, 855.893 254.440 M 472 384.425 C 455.588 389.014, 448.344 399.397, 449.191 417.115 C 449.670 427.139, 451.187 430.245, 457.071 433.252 C 460.252 434.878, 465.308 434.986, 527 434.752 L 593.500 434.500 593.500 432.403 C 593.500 430.995, 591.007 428.301, 585.905 424.197 C 575.881 416.133, 562.504 401.980, 555.234 391.748 L 549.374 383.500 512.937 383.333 C 486.262 383.211, 475.294 383.504, 472 384.425 M 972.914 385.189 C 971.194 388.444, 963.627 398.363, 957.171 405.826 C 953.090 410.543, 935.497 426.649, 931.088 429.706 C 930.861 429.863, 931.193 431.128, 931.826 432.518 L 932.977 435.044 994.970 434.772 L 1056.962 434.500 1059.971 431.491 C 1063.696 427.766, 1065.501 419.377, 1064.566 410.139 C 1063.365 398.278, 1057.284 390.288, 1046 385.745 C 1040.776 383.642, 1038.837 383.515, 1007.318 383.205 L 974.135 382.878 972.914 385.189 M 739.104 406.013 C 733.514 408.023, 730 410.498, 730 412.422 C 730 414.241, 738.641 422.706, 743.262 425.413 C 749.627 429.143, 759.331 431.353, 765.964 430.581 C 775.733 429.446, 791 420.605, 791 416.083 C 791 412.044, 779.761 405.066, 773.184 405.022 C 768.351 404.990, 766.172 406.449, 766.726 409.347 C 767.442 413.095, 765.328 413.425, 761.232 410.207 C 752.761 403.550, 748.302 402.705, 739.104 406.013 M 913.050 440.998 C 888.152 455.591, 853.640 467.476, 819 473.386 C 797.642 477.030, 782.772 478.291, 761.500 478.261 C 704.815 478.181, 651.271 464.969, 609.695 440.803 C 601.701 436.156, 601.984 436.044, 595.525 446.408 C 585.062 463.195, 575.926 487.007, 572.424 506.616 C 570.270 518.680, 570.021 538.877, 571.907 548.500 C 576.360 571.220, 587.453 590.131, 604.316 603.750 L 612.055 610 623.133 610 C 640.264 610, 651.905 613.836, 665.029 623.808 C 674.575 631.060, 681.762 640.114, 688.290 653.110 C 690.713 657.933, 692.668 660.281, 696.262 662.683 C 706.558 669.563, 720.110 672.161, 725.011 668.192 C 727.990 665.780, 727.128 661.918, 721.848 654.011 C 719.654 650.725, 718.142 647.579, 718.489 647.018 C 720.503 643.759, 726.512 648.517, 731.725 657.500 C 734.370 662.059, 734.984 662.527, 738.676 662.801 C 746.112 663.353, 751.966 655.667, 750.413 647.390 C 750.028 645.336, 747.276 640.077, 744.297 635.703 C 738.872 627.734, 738.253 625, 741.876 625 C 744.115 625, 752.519 633.939, 754.834 638.784 C 757.120 643.568, 759.230 642.549, 760.931 635.840 C 762.672 628.972, 761.419 621.901, 756.957 613.419 C 749.772 599.760, 739.837 590.146, 717 574.754 C 690.216 556.702, 670.363 540.544, 658.513 527.154 C 655.424 523.664, 653.068 520.289, 653.277 519.654 C 653.956 517.589, 658.203 517.774, 661.215 520.001 C 662.833 521.197, 664.374 521.959, 664.639 521.694 C 664.904 521.429, 665.551 518.176, 666.076 514.464 C 667.666 503.238, 672.077 495.677, 675.209 498.809 C 675.974 499.574, 675.811 502.713, 674.641 509.735 C 673.739 515.154, 673 521.901, 673 524.729 C 673 529.781, 673.109 529.967, 679.250 535.390 C 688.123 543.225, 700.832 552.714, 720.946 566.523 C 739.796 579.463, 752.904 591.024, 759.140 600.206 C 761.304 603.393, 763.395 605.988, 763.787 605.972 C 764.179 605.957, 766.300 603.219, 768.500 599.887 C 774.167 591.304, 785.934 580.566, 800.216 570.945 C 824.092 554.861, 832.873 548.265, 847.250 535.615 C 852.609 530.899, 853 530.256, 853 526.164 C 853 523.749, 852.253 517.160, 851.341 511.522 C 849.540 500.396, 849.835 498, 853.004 498 C 855.678 498, 858.288 503.952, 860.033 514.029 C 860.745 518.138, 861.452 521.662, 861.606 521.859 C 861.759 522.057, 863.262 521.238, 864.944 520.040 C 868.078 517.808, 872.049 517.605, 872.719 519.641 C 873.267 521.307, 864.704 531.215, 854.058 541.232 C 843.300 551.356, 828.104 562.942, 809.015 575.576 C 793.168 586.063, 780.753 597.505, 773.911 607.927 C 768.660 615.926, 768.381 617.165, 770.130 624.744 C 770.916 628.149, 770.963 631.371, 770.282 635.321 C 769.744 638.444, 769.649 641, 770.070 641 C 770.492 641, 771.875 639.313, 773.143 637.250 C 776.699 631.468, 783.044 625, 785.159 625 C 788.722 625, 788.165 627.839, 783.221 634.879 C 777.857 642.517, 775.375 649.375, 776.440 653.618 C 776.813 655.103, 778.621 657.821, 780.459 659.659 C 783.148 662.348, 784.591 663, 787.853 663 C 791.678 663, 792.015 662.754, 793.841 658.628 C 796.289 653.093, 802.640 646, 805.148 646 C 808.487 646, 808.252 648.644, 804.441 653.949 C 801.997 657.351, 800.577 660.572, 800.253 663.449 C 799.610 669.154, 801.656 670.358, 811.088 669.825 C 816.647 669.511, 819.359 668.693, 825.707 665.417 C 833.441 661.425, 833.535 661.328, 838.143 652.682 C 847.815 634.533, 858.352 623.979, 874.317 616.450 C 884.446 611.674, 891.905 610, 903.060 610 C 912.190 610, 912.920 609.841, 916.852 606.992 C 919.136 605.338, 923.755 601.175, 927.117 597.742 C 958.559 565.634, 962.909 514.521, 938.550 463.397 C 933.381 452.548, 923.455 435.977, 922.154 436.023 C 921.794 436.036, 917.698 438.275, 913.050 440.998 M 520.717 443.744 L 461.933 444.016 462.436 448.758 C 462.713 451.366, 463.194 458, 463.505 463.500 C 465.382 496.636, 471.457 565.196, 475.060 593.901 C 479.428 628.703, 483.149 645.308, 489.588 658.731 C 493.284 666.436, 501.372 675.553, 505.410 676.567 C 506.786 676.912, 512.209 675.738, 518.630 673.705 C 524.619 671.809, 531.400 669.939, 533.701 669.550 C 536.002 669.162, 538.286 668.316, 538.777 667.672 C 539.268 667.027, 540.197 662.378, 540.841 657.341 C 543.948 633.044, 554.188 612.012, 570.935 595.531 C 574.271 592.249, 577 589.037, 577 588.394 C 577 587.752, 575.009 583.462, 572.576 578.863 C 555.330 546.263, 558.103 500.655, 580.024 456.367 C 583.243 449.864, 585.792 444.474, 585.688 444.389 C 584.777 443.639, 571.556 443.508, 520.717 443.744 M 943.750 443.810 C 941.688 443.981, 940 444.391, 940 444.720 C 940 445.050, 942.425 450.311, 945.388 456.410 C 956.775 479.849, 962.044 500.226, 962.768 523.630 C 963.482 546.688, 960.427 561.593, 951.418 579 L 947.018 587.500 953.355 593.537 C 971.783 611.096, 982.551 634.162, 984.797 660.888 L 985.500 669.259 995.500 672.200 C 1011.208 676.818, 1010.175 676.852, 1015.854 671.540 C 1028.987 659.256, 1035.066 637.752, 1041.449 581 C 1045.708 543.143, 1052.743 446.343, 1051.338 444.938 C 1050.549 444.149, 952.128 443.117, 943.750 443.810 M 521 472.594 C 519.075 473.428, 516.375 475.177, 515 476.482 C 512.673 478.689, 511.590 478.875, 499.327 479.177 C 486.877 479.482, 486.009 479.637, 483.482 482 C 475.140 489.804, 476.279 502.755, 485.796 508.313 C 488.487 509.885, 491.246 510.261, 500.984 510.388 C 511.719 510.527, 513.110 510.755, 515.205 512.723 C 518.680 515.987, 524.323 518, 530 518 C 546.031 518, 556.481 503.074, 551.928 486.679 C 550.572 481.798, 544.644 475.208, 539.500 472.866 C 534.610 470.639, 525.813 470.509, 521 472.594 M 525 480 C 525 480.550, 525.585 481, 526.300 481 C 528.573 481, 530.091 483.185, 528.854 484.676 C 528.014 485.689, 523.336 486, 508.966 486 L 490.178 486 487.500 489.182 C 484.251 493.043, 484.640 497.305, 488.555 500.750 C 491.003 502.904, 491.873 503, 508.997 503 C 527.934 503, 530.430 503.614, 526.017 507.187 C 523.018 509.616, 524.087 510.516, 529.873 510.431 C 538.820 510.301, 545.179 504.018, 545.294 495.194 C 545.379 488.688, 542.609 483.352, 537.902 480.950 C 533.910 478.914, 525 478.258, 525 480 M 575.860 602.750 C 567.756 611.056, 564.059 616.491, 558.467 628.322 C 552.105 641.781, 549.960 650.370, 549.297 665.032 C 548.136 690.698, 556.012 712.304, 573.128 730.413 L 580.755 738.483 585.628 736.737 C 588.307 735.776, 592.413 734.992, 594.750 734.995 C 598.547 734.999, 599 734.749, 599 732.648 C 599 729.770, 602.542 724.393, 606.246 721.650 C 610.040 718.839, 617.491 718.912, 622.399 721.808 C 624.442 723.013, 626.552 724, 627.088 724 C 627.623 724, 629.438 722.431, 631.122 720.514 C 637.156 713.642, 646.822 713.732, 655.006 720.737 C 658.966 724.127, 664.972 733.174, 664.991 735.779 C 664.996 736.483, 666.865 739.408, 669.144 742.279 C 673.977 748.369, 680.269 760.871, 682.105 768.031 C 682.810 770.785, 683.861 772.880, 684.439 772.687 C 686.026 772.158, 688.766 759.172, 690.597 743.500 C 692.951 723.353, 692.086 695.534, 688.651 680.873 C 681.663 651.054, 666.515 631.048, 644.260 622.244 C 638.089 619.803, 636.279 619.566, 623.500 619.535 C 610.876 619.503, 608.804 619.755, 602.423 622.090 C 598.531 623.514, 592.063 626.803, 588.050 629.399 C 580.896 634.027, 578 634.629, 578 631.489 C 578 628.744, 586.792 620.388, 593.263 616.983 C 596.693 615.178, 599.660 613.571, 599.855 613.412 C 600.203 613.129, 583.392 596, 582.766 596 C 582.590 596, 579.483 599.038, 575.860 602.750 M 932.750 604.332 C 928.487 608.789, 925 612.556, 925 612.703 C 925 612.851, 927.813 614.390, 931.250 616.123 C 938.478 619.768, 943.462 623.637, 946.117 627.664 C 950.731 634.662, 946.968 635.462, 937.872 629.415 C 926.981 622.174, 919.662 619.817, 906.275 619.237 C 893.100 618.666, 888.779 619.538, 877.226 625.098 C 868.325 629.382, 857.320 638.767, 851.815 646.769 C 832.567 674.745, 827.513 718.176, 838.128 764.386 C 839.342 769.674, 840.660 774, 841.057 774 C 841.453 774, 842.069 772.448, 842.425 770.551 C 843.238 766.217, 848.291 753.884, 851.147 749.262 C 852.335 747.339, 855.038 743.766, 857.154 741.322 C 859.269 738.878, 861.004 736.118, 861.009 735.189 C 861.027 731.990, 867.065 722.966, 871.183 719.983 C 880.031 713.573, 887.536 713.868, 894.400 720.898 L 898.263 724.854 902.105 722.312 C 907.030 719.052, 914.190 718.759, 919.081 721.616 C 923.138 723.985, 927 729.365, 927 732.648 C 927 734.786, 927.431 735.001, 931.750 735.006 C 934.362 735.010, 937.836 735.709, 939.468 736.560 C 941.100 737.411, 943.419 737.861, 944.620 737.559 C 949.788 736.262, 962.944 718.314, 968.658 704.767 C 974.623 690.622, 975.440 686.174, 975.414 668 C 975.392 652.883, 975.160 650.751, 972.645 642.562 C 969.049 630.855, 962.012 617.376, 954.840 608.461 C 949.318 601.597, 943.047 595.872, 941.317 596.114 C 940.868 596.177, 937.013 599.875, 932.750 604.332 M 761.349 651.772 C 760.166 652.723, 758.904 654.910, 758.545 656.633 C 757.651 660.927, 751.463 667.885, 746.556 670.114 C 744.325 671.127, 740.786 671.966, 738.691 671.978 C 735.915 671.994, 733.791 672.877, 730.857 675.235 C 727.317 678.080, 725.969 678.513, 719.666 678.831 C 714.163 679.109, 711.107 678.692, 706.500 677.034 C 696.884 673.574, 695.684 673.406, 696.336 675.612 C 698.138 681.708, 700.105 694.404, 700.664 703.547 C 701.274 713.504, 701.463 714.212, 704.120 716.447 C 708.349 720.006, 721.254 723.883, 732.513 724.978 C 745.381 726.228, 779.864 726.243, 791.635 725.003 C 802.313 723.878, 814.929 720.124, 820.250 716.489 C 823.684 714.144, 824.002 713.531, 824.018 709.214 C 824.040 703.616, 826.534 685.445, 828.056 679.791 C 828.648 677.595, 828.886 675.553, 828.587 675.253 C 828.287 674.954, 824.982 675.674, 821.243 676.854 C 809.804 680.464, 799.276 679.391, 794.595 674.138 C 793.188 672.558, 791.525 672, 788.230 672 C 783.004 672, 775.254 668.190, 772.276 664.155 C 771.198 662.695, 769.738 659.700, 769.031 657.500 C 767.804 653.677, 765.360 649.975, 764.095 650.022 C 763.768 650.034, 762.532 650.822, 761.349 651.772 M 528.481 679.951 C 519.524 682.301, 504.213 688.205, 498.702 691.435 C 484.363 699.838, 477.856 712.539, 482.363 723.327 C 486.602 733.471, 508.164 744.111, 539.500 751.521 C 551.933 754.461, 571.413 758, 575.163 758 C 577.938 758, 577.972 757.926, 577.738 752.434 C 577.505 746.991, 577.369 746.753, 571.633 741.763 C 568.406 738.956, 563.571 733.866, 560.888 730.452 C 556.356 724.686, 555.567 724.134, 549.744 722.672 C 541.394 720.574, 536.883 718.614, 533.121 715.448 C 527.178 710.448, 529.869 704.934, 540.367 700.600 C 543.637 699.251, 544.139 698.656, 543.615 696.752 C 543.274 695.513, 542.479 691.350, 541.849 687.500 C 540.123 676.962, 540.045 676.918, 528.481 679.951 M 984.667 679.667 C 984.300 680.033, 983.974 681.496, 983.942 682.917 C 983.911 684.337, 983.078 688.597, 982.091 692.382 L 980.297 699.264 983.357 700.882 C 988.196 703.442, 992 707.601, 992 710.334 C 992 711.905, 990.822 713.813, 988.806 715.509 C 985.399 718.377, 983.963 719.060, 974.360 722.384 C 968.949 724.257, 967.664 725.249, 963.544 730.730 C 960.972 734.151, 956.467 739.099, 953.533 741.725 C 948.559 746.176, 948.152 746.890, 947.527 752.250 C 946.869 757.891, 946.903 758, 949.347 758 C 952.989 758, 975.995 753.318, 987 750.337 C 999.936 746.832, 1009.002 743.497, 1018.500 738.747 C 1033.258 731.367, 1038 725.800, 1038 715.856 C 1038 708.916, 1035.110 703.184, 1028.711 697.430 C 1022.268 691.637, 1015.645 688.284, 1000.402 683.096 C 988.269 678.967, 985.886 678.448, 984.667 679.667 M 542 707.294 C 538.156 709.239, 538.958 711.233, 544.243 712.874 C 546.852 713.684, 549.220 714.113, 549.506 713.827 C 550.394 712.940, 547.044 705.999, 545.737 706.015 C 545.056 706.023, 543.375 706.599, 542 707.294 M 977.200 708.200 C 975.771 709.629, 975.598 713, 976.953 713 C 977.477 713, 979.052 712.478, 980.453 711.839 C 983.327 710.530, 983.787 708.516, 981.418 707.607 C 979.186 706.750, 978.562 706.838, 977.200 708.200 M 637.150 726.340 C 633.992 729.702, 632.815 734.601, 634.059 739.218 C 635.280 743.754, 634.722 745, 631.469 745 C 629.535 745, 628.639 744.033, 626.961 740.132 C 620.703 725.583, 606.769 724.009, 606.769 737.852 C 606.769 740.589, 607.567 744.918, 608.542 747.471 C 610.107 751.570, 610.142 752.287, 608.835 753.593 C 606.783 755.645, 604.622 754.538, 601.517 749.846 C 599.999 747.552, 597.361 745.213, 595.339 744.368 C 592.197 743.055, 591.549 743.065, 589.421 744.460 C 586.567 746.330, 585.543 749.775, 586.346 754.804 C 587.198 760.141, 599.174 784.024, 605.498 792.997 C 612.906 803.509, 623.728 813.501, 631.898 817.372 C 637.780 820.159, 639.481 820.499, 647.500 820.491 C 655.298 820.483, 657.168 820.128, 661.500 817.834 C 667.893 814.449, 671.238 810.869, 674.427 804 C 679.437 793.208, 677.236 774.083, 669.075 757.500 C 666.910 753.100, 663.617 747.700, 661.758 745.500 C 659.899 743.300, 657.781 740.019, 657.051 738.209 C 652.367 726.595, 642.461 720.687, 637.150 726.340 M 876.267 726.921 C 873.681 728.795, 871.170 731.973, 869.266 735.784 C 867.633 739.052, 864.213 744.645, 861.668 748.213 C 849.510 765.250, 844.325 790.589, 850.355 803.500 C 853.615 810.482, 857.415 814.653, 863.380 817.797 C 867.876 820.167, 869.598 820.490, 877.500 820.446 C 885.411 820.401, 887.287 820.023, 893 817.322 C 908.499 809.995, 921.482 794.303, 933.230 768.696 C 938.149 757.976, 939.056 755.144, 938.803 751.296 C 938.568 747.736, 937.925 746.273, 935.945 744.801 C 932.394 742.160, 928.768 743.680, 922.830 750.296 C 918.433 755.196, 918.060 755.402, 916.430 753.814 C 914.790 752.216, 914.812 751.866, 916.849 747.128 C 919.839 740.179, 919.720 733.629, 916.545 730.455 C 911.277 725.186, 903.907 728.918, 898.008 739.842 C 896.048 743.470, 894.940 744.500, 892.996 744.500 C 890.551 744.500, 890.507 744.364, 890.844 737.882 C 891.518 724.936, 885.380 720.320, 876.267 726.921 M 700.446 734.887 C 700.201 735.133, 699.984 737.171, 699.964 739.417 C 699.945 741.663, 699.102 748.225, 698.091 754 C 696.961 760.454, 696.608 764.885, 697.175 765.500 C 699.795 768.341, 825.132 768.271, 827.974 765.427 C 828.738 764.663, 828.629 762.356, 827.599 757.427 C 826.803 753.617, 825.834 747.228, 825.445 743.228 C 825.055 739.228, 824.234 735.636, 823.619 735.246 C 822.424 734.488, 701.198 734.136, 700.446 734.887 M 485 741.017 C 485 741.577, 485.943 746.389, 487.096 751.711 C 497.355 799.060, 527.694 836.262, 575.743 860.409 C 602.381 873.795, 621.012 879.765, 661.500 887.886 C 679.227 891.442, 684.500 892.844, 684.500 894 C 684.500 895.264, 682.377 895.485, 671 895.402 C 651.148 895.257, 624.121 889.552, 598.221 880.041 C 593.668 878.368, 589.533 877, 589.032 877 C 588.532 877, 587.864 879.138, 587.547 881.750 C 584.885 903.714, 583.667 908.460, 572.961 938.601 C 570.315 946.049, 569.852 948.530, 570.413 952.268 C 573.762 974.600, 622.966 990.042, 708.500 995.605 C 738.598 997.562, 801.563 997.007, 828 994.551 C 895.468 988.283, 937.193 975.263, 946.165 957.677 C 949.308 951.515, 948.369 944.073, 942.610 929.500 C 936.591 914.271, 933.361 901.838, 931.818 887.961 C 931.148 881.933, 930.344 877, 930.032 877 C 929.721 877, 923.399 879.045, 915.983 881.544 C 890.400 890.167, 868.282 894.833, 848.837 895.710 C 841.872 896.024, 835.408 895.987, 834.474 895.628 C 830.742 894.196, 835.420 892.136, 847.291 889.982 C 899.794 880.455, 934.550 867.981, 965 847.736 C 995.038 827.765, 1016.515 800.418, 1026.837 769 C 1030.216 758.712, 1034.373 742.040, 1033.721 741.388 C 1033.499 741.166, 1029.084 743.205, 1023.909 745.919 C 1008.378 754.064, 987.036 760.324, 953 766.716 L 943.500 768.500 937.307 780.293 C 923.896 805.831, 910.162 820.159, 892.500 827.038 C 887.769 828.881, 884.491 829.386, 877 829.427 C 868.690 829.473, 866.769 829.138, 861.664 826.756 C 848.177 820.461, 843.882 814.500, 836.508 791.840 L 831.274 775.757 811.887 776.128 C 784.762 776.648, 740.413 776.591, 715.198 776.004 L 693.896 775.508 689.112 790.004 C 681.229 813.888, 676.750 820.405, 664.151 826.320 C 658.138 829.143, 656.588 829.439, 648 829.410 C 637.232 829.373, 631.971 827.881, 622.500 822.179 C 610.058 814.689, 595.412 796.472, 585.908 776.663 C 582.511 769.585, 581.340 768, 579.505 768 C 571.741 768, 531.480 759.265, 516.500 754.330 C 506.992 751.197, 496.126 746.368, 490.270 742.671 C 485.591 739.716, 485 739.531, 485 741.017" stroke="none" fill="black" fill-rule="evenodd"/>
</svg>