<svg xmlns="http://www.w3.org/2000/svg" width="1536" height="1024" viewBox="0 0 1536 1024" version="1.1">
	<path d="M 482.242 27.104 C 465.758 29.021, 445.802 35.099, 429.980 43.021 C 401.633 57.214, 384.314 79.154, 396.145 85.884 C 397.708 86.773, 398.990 87.783, 398.994 88.128 C 398.997 88.474, 396.528 90.664, 393.508 92.994 C 384.636 99.839, 370.883 115.072, 365.587 123.921 C 359.159 134.659, 354.199 148.005, 353.387 156.750 C 352.254 168.933, 356.029 175, 364.742 175 C 368.405 175, 369.104 175.285, 368.608 176.579 C 366.719 181.501, 363.874 195.057, 363.042 203.100 C 361.403 218.944, 364.525 238.446, 370.573 250.142 C 375.181 259.052, 383.210 264.168, 389.269 262.056 C 391.231 261.372, 392.602 261.307, 392.796 261.889 C 394.231 266.193, 401.985 280.626, 405.536 285.603 C 411.718 294.266, 421.729 303.086, 430.239 307.368 C 439.283 311.919, 445.359 312.873, 450.316 310.520 C 453.778 308.878, 454.035 308.888, 456.711 310.778 C 461.727 314.319, 471.532 318.823, 478.080 320.592 C 483.962 322.182, 498.773 322.737, 509.500 321.770 C 511.597 321.581, 512.414 321.909, 512.214 322.858 C 509.352 336.450, 509.940 346.973, 514.012 355 C 517.543 361.962, 519.447 362.689, 529.318 360.840 C 530.713 360.579, 531.696 361.861, 533.536 366.339 C 537.138 375.109, 545.938 387.590, 554.430 395.975 C 558.593 400.086, 561.999 403.686, 561.997 403.975 C 561.996 404.264, 552.433 404.557, 540.747 404.627 C 515.064 404.780, 487.853 407.530, 476.243 411.146 C 474.175 411.789, 471.906 413.730, 470.026 416.462 C 467.722 419.811, 466.232 420.921, 463.307 421.470 C 451.544 423.677, 431.166 432.224, 422.356 438.645 C 398.550 455.997, 377.174 487.716, 365.696 522.723 C 363.137 530.528, 359.452 540.035, 357.508 543.850 C 350.921 556.775, 347.927 575.944, 350.843 586.515 C 352.616 592.941, 357.442 599.675, 361.909 601.953 C 364.115 603.079, 366.501 604, 367.210 604 C 367.920 604, 369.758 605.576, 371.295 607.502 C 376.452 613.966, 387.314 617.388, 395.499 615.128 C 398.705 614.243, 399.708 614.330, 401.133 615.621 C 403.504 617.766, 409.789 619.903, 413.884 619.956 C 422.599 620.069, 431.199 614.487, 435.557 605.888 C 437.287 602.474, 438.641 601, 440.049 601 C 443.202 601, 449.221 598.159, 452.343 595.197 C 453.907 593.714, 456.371 590.250, 457.820 587.500 C 460.127 583.118, 460.453 581.326, 460.456 572.999 C 460.458 564.092, 460.224 563.005, 456.718 555.622 L 452.978 547.747 457.197 543.124 C 465.851 533.637, 474.831 526.307, 479.348 525.043 L 483.756 523.808 488.240 528.293 C 491.517 531.570, 493.823 532.963, 496.802 533.467 C 501.305 534.227, 514.003 532.664, 521 530.487 C 527.972 528.317, 554.075 524.675, 555.124 525.724 C 555.674 526.274, 554.879 529.393, 553.125 533.568 C 542.696 558.403, 529.623 580.735, 516.547 596.053 C 511.119 602.413, 510.911 604.627, 515.123 611.192 L 518.247 616.059 515.735 621.780 C 509.101 636.891, 506.577 650.381, 507.287 666.927 C 507.902 681.251, 510.012 689.774, 516.128 702.650 C 518.258 707.132, 520 711.338, 520 711.996 C 520 712.655, 518.200 715.238, 516 717.737 C 511.157 723.239, 510.834 726.953, 514.510 734.849 C 515.879 737.791, 517 740.524, 517 740.923 C 517 741.321, 513.962 743.722, 510.250 746.259 L 503.500 750.870 493.915 750.298 C 472.336 749.010, 450.731 758.899, 442.884 773.657 C 441.839 775.621, 440.238 776.902, 438.357 777.279 C 431.368 778.676, 426 786.424, 426 795.115 C 426 799.887, 426.330 800.624, 430.059 804.171 C 433.953 807.875, 434.090 808.216, 433.440 812.552 C 432.819 816.695, 432.380 817.257, 428.190 819.286 C 421.573 822.490, 419.641 825.662, 419.164 834.103 L 418.766 841.143 423.383 845.442 C 429.409 851.054, 429.565 853.987, 424.025 857.484 C 417.587 861.548, 415.181 867.194, 416.517 875.103 C 417.282 879.630, 422.211 886, 424.949 886 C 426.613 886, 430 888.909, 430 890.337 C 430 890.711, 428.680 892.839, 427.067 895.067 C 425.453 897.294, 423.851 900.402, 423.506 901.974 C 422.559 906.284, 424.717 912.721, 428.485 916.830 C 431.701 920.337, 432.140 920.500, 438.366 920.500 C 444.337 920.500, 445.160 920.768, 448.191 923.693 C 450.011 925.449, 454.600 928.333, 458.388 930.101 C 464.253 932.840, 466.724 933.387, 475.020 933.787 C 491.498 934.580, 502.359 930.705, 512.661 920.355 C 521.571 911.403, 526.132 901.608, 530.519 882 C 532.426 873.475, 533.990 865.447, 533.994 864.159 C 533.997 862.871, 535.592 859.958, 537.537 857.686 C 539.482 855.413, 541.320 852.417, 541.620 851.027 C 542.605 846.476, 542.914 846, 544.889 846 C 549.506 846, 572.079 838.562, 583.992 833.116 C 598.902 826.299, 608.717 820.067, 617.535 811.819 C 623.351 806.378, 624.071 806, 628.627 805.994 C 637.088 805.985, 640.617 804.426, 645.144 798.698 C 647.404 795.839, 649.689 793.500, 650.221 793.500 C 651.433 793.500, 658 809.608, 658 812.582 C 658 817.491, 673.216 856.932, 684.873 882.239 C 688.739 890.633, 688.861 891.206, 687.955 896.739 C 685.813 909.816, 687.437 927.788, 691.999 941.496 C 696.467 954.924, 707.982 967.169, 717.572 968.692 C 720.492 969.156, 722.572 970.460, 725.679 973.775 L 729.857 978.234 736.701 977.847 C 744.980 977.379, 749.347 974.731, 752.099 968.509 C 753.776 964.718, 754.499 964.166, 759.935 962.520 L 765.923 960.707 768.791 963.776 C 775.514 970.973, 789.311 968.191, 794.174 958.659 C 796.061 954.961, 796.158 954.039, 795.086 950.030 C 793.898 945.590, 793.921 945.512, 797.193 942.744 C 799.012 941.205, 804.550 937.961, 809.500 935.534 L 818.500 931.123 821.693 934.203 C 828.109 940.390, 840.151 938.257, 845.839 929.926 C 847.798 927.055, 848.111 925.553, 847.767 920.650 L 847.358 914.800 857.063 906.396 C 862.401 901.774, 867.987 896.395, 869.476 894.443 C 870.964 892.491, 872.597 891.032, 873.104 891.201 C 873.611 891.370, 875.995 895.881, 878.402 901.226 C 894.936 937.940, 927.411 963.771, 968.204 972.657 C 979.939 975.213, 1007.158 975.190, 1019 972.615 C 1045.014 966.958, 1065.232 955.932, 1084.129 937.095 C 1109.085 912.218, 1120.985 883.422, 1120.996 847.881 C 1121.007 814.636, 1109.728 786.323, 1087.022 762.594 C 1070.293 745.111, 1052.481 734.418, 1028.500 727.461 C 1015.675 723.741, 1005.449 722.684, 988.154 723.291 C 966.378 724.055, 951.787 727.851, 932.669 737.725 C 909.186 749.854, 888.318 771.885, 877.001 796.498 C 872.765 805.710, 867 823.560, 867 827.463 C 867 831.051, 865.973 831.131, 860.450 827.971 C 850.075 822.035, 832.629 819.137, 817.773 820.881 C 810.680 821.713, 808.533 821.639, 806.311 820.486 C 804.808 819.706, 802.554 819.325, 801.304 819.639 C 798.239 820.408, 797.677 818.629, 795.577 801.500 C 793.160 781.777, 789.295 761.538, 786.973 756.442 C 785.888 754.059, 785 751.427, 785 750.593 C 785 749.759, 783.881 745.572, 782.513 741.288 C 781.145 737.005, 780.020 732.767, 780.013 731.871 C 780.006 730.975, 781.597 727.600, 783.548 724.371 C 792.916 708.871, 801.648 687.123, 805.498 669.704 C 807.211 661.954, 807.254 661.887, 812.774 658.204 C 821.809 652.177, 822.343 651.012, 820.928 640.430 C 819.562 630.207, 820.211 613.866, 822.518 600.407 C 824.473 588.998, 830.178 563.743, 831.033 562.706 C 831.394 562.269, 842.671 567.655, 856.094 574.675 C 899.134 597.183, 897.637 596.500, 903.922 596.500 C 908.612 596.500, 910.425 595.935, 914.842 593.101 L 920.138 589.703 930.819 592.919 C 957.841 601.055, 980.250 608.521, 980.477 609.465 C 980.615 610.034, 981.248 612.750, 981.884 615.500 C 983.575 622.808, 989.681 634.699, 994.334 639.747 C 1000.495 646.430, 1006.356 649.474, 1012.986 649.432 C 1016.224 649.412, 1019.843 648.685, 1021.754 647.671 C 1026.119 645.355, 1030.127 639.050, 1030.751 633.518 C 1031.031 631.033, 1031.409 629, 1031.591 629 C 1031.774 629, 1035.517 631.447, 1039.910 634.439 C 1048.468 640.266, 1052.990 641.986, 1059.782 641.994 C 1067.376 642.004, 1074.412 637.365, 1076.936 630.685 C 1078.452 626.672, 1078.251 618.962, 1076.500 614 C 1075.675 611.662, 1075 609.468, 1075 609.124 C 1075 608.781, 1078.282 608.500, 1082.294 608.500 C 1090.545 608.500, 1093.153 607.288, 1097.683 601.348 C 1100.126 598.146, 1100.495 596.782, 1100.463 591.078 C 1100.417 582.811, 1098.213 578.383, 1090.530 571.116 L 1084.852 565.747 1088.352 562.861 C 1097.496 555.324, 1095.118 541.889, 1083.302 534.330 C 1073.737 528.211, 1055.817 526.311, 1038.500 529.580 C 1022.690 532.564, 1024.577 532.834, 1013 525.934 C 1007.225 522.492, 994.289 515.654, 984.253 510.738 C 966.730 502.156, 965.932 501.636, 964.165 497.650 C 963.153 495.368, 961.689 492.999, 960.913 492.387 C 957.729 489.879, 929.362 476.430, 896.353 461.779 C 888.572 458.326, 882.047 455.132, 881.853 454.683 C 881.659 454.234, 885.573 452.186, 890.551 450.133 C 920.296 437.863, 941.119 421.304, 952.141 401.155 C 954.393 397.038, 956.300 394.652, 957.141 394.899 C 962.668 396.523, 964.036 396.199, 967.850 392.364 C 973.313 386.872, 976.177 378.696, 976.563 367.500 C 976.819 360.044, 977.137 358.549, 978.412 358.788 C 981.091 359.290, 985.671 356.210, 986.994 353.016 C 988.129 350.275, 988.056 340.973, 986.861 336 C 986.615 334.979, 987.139 334.600, 988.500 334.813 C 989.600 334.985, 995.450 335.148, 1001.500 335.174 C 1019.296 335.250, 1033.272 330.515, 1047.924 319.446 C 1054.500 314.478, 1055.619 313.961, 1057.721 314.919 C 1061.732 316.746, 1067.224 316.130, 1073.500 313.146 C 1090.495 305.068, 1106.303 284.903, 1114.379 261 L 1116.913 253.500 1121.788 253.827 C 1125.939 254.105, 1127.161 253.736, 1130.005 251.342 C 1134.163 247.844, 1139.174 237.148, 1141.644 226.500 C 1144.955 212.226, 1143.916 185.990, 1139.377 169.250 C 1138.841 167.274, 1139.139 167, 1141.828 167 C 1149.967 167, 1153.490 157.035, 1150.595 142.204 C 1147.545 126.577, 1139.170 110.269, 1126.940 96.139 C 1120.014 88.138, 1105.177 76.133, 1097.239 72.109 L 1092.978 69.948 1095.116 67.057 C 1104.025 55.008, 1076.281 36.757, 1038.795 30.007 C 1017.976 26.258, 990.575 27.878, 970.500 34.046 C 966.650 35.228, 958.432 38.660, 952.238 41.671 C 929.407 52.770, 909.111 71.369, 896.771 92.500 C 894.522 96.350, 892.081 100.494, 891.345 101.709 C 890.010 103.913, 889.985 103.905, 881.753 98.371 C 862.816 85.641, 833.074 73.327, 811.627 69.337 L 801.754 67.500 797.675 61.500 C 795.432 58.200, 791.100 53.107, 788.048 50.182 C 772.920 35.681, 752.014 33.609, 751.591 46.569 C 751.495 49.519, 751.094 50.399, 749.982 50.096 C 749.167 49.874, 744.962 48.637, 740.637 47.346 C 726.768 43.208, 711.027 44.819, 704.835 51.011 C 701.368 54.478, 701.002 60.168, 704 64 C 706.665 67.408, 706.504 68, 702.907 68 C 697.910 68, 680.224 71.880, 670.500 75.109 C 657.905 79.292, 641.232 87.523, 629.769 95.218 C 623.008 99.757, 619.768 101.407, 619.153 100.625 C 618.667 100.006, 616.875 96.546, 615.172 92.936 C 598.774 58.178, 563.957 33.827, 521.683 27.550 C 510.579 25.901, 494.175 25.716, 482.242 27.104 M 481.500 35.993 C 466.586 38.153, 446.130 44.439, 433.500 50.742 C 421.165 56.897, 405.470 69.257, 402.365 75.261 C 399.585 80.637, 401.593 81.087, 421.250 79.496 C 427.401 78.998, 431 79.063, 431 79.672 C 431 80.204, 427.620 82.124, 423.488 83.940 C 406.418 91.442, 387.938 106.604, 377.100 122 C 370.362 131.572, 367.669 136.890, 363.977 147.910 C 360.731 157.598, 360.265 162.612, 362.344 165.456 C 364.360 168.212, 367.324 166.995, 377.916 159.063 C 383.064 155.207, 387.628 152.270, 388.058 152.536 C 388.487 152.801, 386.613 157.247, 383.892 162.416 C 375.005 179.296, 371 194.748, 371 212.153 C 371 228.741, 375.901 246.001, 382.269 251.841 C 386.469 255.691, 388.160 254.464, 391.363 245.243 C 392.938 240.709, 394.605 237, 395.068 237 C 395.531 237, 396.200 238.688, 396.556 240.750 C 397.959 248.890, 401.079 259.930, 403.569 265.570 C 411.433 283.378, 427.645 299.506, 441.374 303.178 C 447.363 304.779, 448.419 303.819, 447.103 297.963 C 446.565 295.568, 446.354 293.236, 446.635 292.782 C 446.916 292.328, 450.048 294.615, 453.595 297.866 C 460.222 303.938, 470.434 309.944, 477.500 311.925 C 484.163 313.793, 496.173 315.046, 501.122 314.389 L 505.790 313.770 505.264 307.972 C 504.639 301.081, 506.801 295.778, 513.673 287.340 C 516.053 284.419, 518 281.806, 518 281.533 C 518 281.261, 516.043 281.306, 513.652 281.634 C 507.231 282.514, 499.242 279.878, 494.985 275.476 C 491.587 271.960, 491.361 271.887, 485.909 272.515 C 476.245 273.629, 468.344 268.656, 463.832 258.618 C 461.625 253.710, 461.081 245.674, 462.231 235.004 C 462.483 232.662, 462.146 232.469, 456.770 231.888 C 447.588 230.895, 441.549 225.060, 438.932 214.654 C 436.533 205.109, 441.422 189.399, 449.511 180.658 L 453.067 176.816 449.587 172.965 C 444.897 167.773, 443.551 162.508, 445.044 155.182 C 448.591 137.779, 465.649 121.947, 486.644 116.573 C 494.439 114.578, 511.428 114.541, 519.742 116.501 C 543.739 122.159, 564.488 141.305, 574.625 167.140 L 577.240 173.806 569.209 190.153 C 560.488 207.904, 553.802 225.092, 546.513 248.500 C 543.944 256.750, 541.333 264.834, 540.711 266.465 C 539.547 269.515, 527.416 284.553, 522.533 289 C 518.878 292.328, 514.592 298.694, 513.142 302.947 C 512.174 305.786, 512.228 306.656, 513.446 307.875 C 514.687 309.116, 515.376 309.148, 517.713 308.074 C 524.477 304.967, 529.955 303.118, 530.377 303.801 C 530.629 304.209, 529.086 307.202, 526.948 310.454 C 519.810 321.308, 516.738 334.605, 518.929 345.159 C 520.076 350.685, 522.941 354.773, 524.843 353.597 C 525.376 353.268, 527.523 350.074, 529.614 346.499 C 534.177 338.699, 536 338.149, 536 344.574 C 536 349.857, 539.968 362.456, 543.692 369 C 557.522 393.300, 587.283 415.826, 630 434.326 C 640.676 438.949, 673.166 451, 674.956 451 C 675.495 451, 677.699 453.363, 679.852 456.250 C 684.581 462.590, 700.056 477.676, 709 484.665 C 718.015 491.710, 732.477 501, 734.428 501 C 740.788 501, 777.479 476.579, 780.998 470.005 C 782.305 467.562, 782.758 467.452, 801.500 465.003 C 859.343 457.446, 903.859 440.542, 930.243 416.115 C 940.655 406.475, 949.520 391.972, 952.131 380.306 C 952.812 377.261, 953.867 375, 954.605 375 C 955.313 375, 956.877 377.700, 958.080 381 C 960.416 387.405, 962.057 388.369, 964.437 384.736 C 969.367 377.212, 970.134 360.156, 966.063 348.561 C 964.888 345.215, 964.356 342.244, 964.844 341.756 C 965.332 341.268, 968.283 343.093, 971.605 345.936 C 974.847 348.711, 977.950 350.838, 978.500 350.662 C 979.050 350.487, 979.635 348.288, 979.801 345.776 C 980.152 340.430, 977.147 332.260, 971.690 323.730 C 962.761 309.771, 961.512 304.714, 960.027 276.500 C 958.566 248.743, 957.319 237.696, 953.819 221.500 C 944.731 179.445, 927.028 147.509, 898.771 122.195 C 873.390 99.458, 836.326 81.427, 805 76.576 L 797.500 75.415 792.889 68.434 C 784.709 56.053, 771.495 46.035, 763.309 46.010 C 757.813 45.993, 758.049 47.471, 765.538 60 C 769.299 66.292, 770.619 70, 769.099 70 C 768.529 70, 764.932 67.975, 761.105 65.499 C 752.864 60.168, 741.931 55.640, 733.209 53.946 C 722.399 51.846, 710 54.298, 710 58.535 C 710 60.192, 717.208 65.071, 726.788 69.898 C 730.247 71.641, 732.808 73.502, 732.479 74.034 C 732.151 74.565, 726.792 75, 720.572 75 C 688.098 75, 651.240 88.315, 624.943 109.546 C 619.253 114.140, 616.863 115.536, 616.157 114.678 C 615.625 114.030, 613.387 109.314, 611.185 104.198 C 606.367 93.004, 602.260 86.059, 595.205 77.171 C 581.036 59.321, 558.907 45.610, 533.500 38.938 C 522.741 36.113, 519.742 35.753, 504.500 35.455 C 495.150 35.273, 484.800 35.515, 481.500 35.993 M 999.888 36.944 C 957.623 41.355, 921.310 65.369, 900.308 102.798 L 896.774 109.096 906.845 118.596 C 917.948 129.071, 926.408 139.110, 933.708 150.474 C 936.344 154.577, 938.950 157.948, 939.500 157.966 C 940.050 157.984, 941.701 155.861, 943.168 153.249 C 947.073 146.297, 956.617 135.318, 964.026 129.253 C 972.169 122.587, 986.128 115.577, 996.410 112.990 C 1024.089 106.026, 1053.469 117.987, 1064.754 140.814 C 1067.991 147.362, 1068.548 149.517, 1068.852 156.670 C 1069.271 166.546, 1067.093 172.224, 1061.008 177.114 L 1057.234 180.147 1060.524 185.036 C 1065.471 192.387, 1067.484 199.217, 1067.478 208.628 C 1067.473 215.932, 1067.119 217.448, 1063.986 223.586 C 1059.383 232.604, 1054.340 236.297, 1045.666 237 L 1039.500 237.500 1039.832 244.157 C 1040.493 257.436, 1035.059 270.123, 1026.194 275.995 C 1020.348 279.867, 1018.185 280.402, 1011.266 279.688 C 1005.759 279.120, 1005.674 279.152, 1001.552 283.393 C 998.228 286.813, 996.045 288.036, 990.669 289.492 C 984.393 291.190, 983.561 291.206, 978.222 289.721 C 975.075 288.846, 971.642 287.800, 970.593 287.398 C 968.793 286.707, 968.718 287.083, 969.255 294.083 C 970.174 306.073, 977.472 322.022, 983.322 324.825 C 987.496 326.826, 1000.461 327.818, 1009 326.791 C 1025.666 324.785, 1037.149 318.804, 1051.381 304.715 C 1056.817 299.334, 1061.507 295.173, 1061.803 295.470 C 1062.099 295.766, 1061.813 298.297, 1061.168 301.094 C 1060.522 303.892, 1060.272 306.630, 1060.611 307.180 C 1061.520 308.650, 1067.860 307.223, 1072.574 304.486 C 1091.936 293.249, 1107.992 265.406, 1111.080 237.714 C 1111.822 231.054, 1112.687 227.062, 1113.339 227.280 C 1113.920 227.473, 1115.684 231.202, 1117.258 235.566 C 1120.889 245.630, 1122.159 247.071, 1125.075 244.433 C 1133.032 237.237, 1137.819 211.475, 1135.095 190.500 C 1133.604 179.010, 1129.176 164.662, 1124.033 154.651 C 1117.777 142.474, 1118.437 142.186, 1130.151 151.981 C 1134.743 155.821, 1139.299 158.971, 1140.275 158.981 C 1144.900 159.031, 1144.800 149.448, 1140.028 135.417 C 1130.154 106.387, 1106.340 82.475, 1077.245 72.373 C 1072.985 70.895, 1069.054 69.287, 1068.508 68.801 C 1066.893 67.361, 1069.873 66.172, 1076.968 65.424 C 1088.465 64.212, 1090.344 62.500, 1085.250 57.880 C 1079.001 52.212, 1064.946 45.532, 1051 41.602 C 1036.387 37.483, 1014.143 35.456, 999.888 36.944 M 1003.500 119.649 C 986.053 123.282, 973.763 130.215, 961 143.621 C 953.039 151.984, 945 164.152, 945 167.839 C 945 169.059, 946.330 172.691, 947.955 175.910 C 958.093 195.995, 965.174 228.991, 967.572 267.318 L 968.248 278.136 972.127 280.703 C 982.422 287.516, 995.688 284.413, 1001.030 273.942 C 1002.136 271.774, 1003.258 270, 1003.524 270 C 1003.790 270, 1005.686 270.900, 1007.739 272 C 1023.067 280.216, 1038.028 259.720, 1032.558 238 C 1029.825 227.148, 1029.319 227.738, 1039 230.486 C 1044.002 231.906, 1044.881 231.904, 1048.703 230.459 C 1054.158 228.397, 1058.527 223.332, 1060.457 216.833 C 1062.340 210.494, 1062.379 207.007, 1060.641 200.500 C 1058.652 193.055, 1055.365 187.266, 1049.761 181.341 C 1044.429 175.703, 1044.455 175.597, 1051.406 174.623 C 1056.083 173.967, 1060.487 170.085, 1062.100 165.197 C 1064.807 156.994, 1059.629 142.534, 1050.833 133.738 C 1045.270 128.175, 1032.401 121.563, 1024.114 120.010 C 1018.840 119.021, 1007.468 118.822, 1003.500 119.649 M 488 124.576 C 467.628 129.926, 451.500 145.654, 451.500 160.169 C 451.500 167.071, 454.140 170.503, 460.728 172.162 C 463.096 172.758, 465.261 173.613, 465.538 174.061 C 465.815 174.509, 464.035 176.256, 461.584 177.942 C 447.825 187.409, 440.710 206.489, 446.598 218.131 C 448.520 221.932, 453.531 225.821, 457.454 226.557 C 459.461 226.934, 463.001 226.564, 466.110 225.653 C 469.003 224.804, 471.708 224.320, 472.121 224.575 C 472.534 224.830, 471.729 227.618, 470.331 230.770 C 468.630 234.604, 467.630 238.981, 467.309 244 C 466.875 250.788, 467.099 252.022, 469.665 256.999 C 474.473 266.325, 481.060 269.051, 489 265 C 491.156 263.900, 493.157 263, 493.447 263 C 493.736 263, 494.592 264.462, 495.349 266.250 C 497.094 270.374, 499.855 272.829, 504.684 274.551 C 509.714 276.345, 513.539 276.326, 519.771 274.475 C 525.494 272.776, 530.346 269.166, 532.497 265.006 C 533.280 263.491, 536.450 254.207, 539.541 244.376 C 547.784 218.157, 557.418 194.298, 565.629 179.771 L 569.162 173.521 563.865 163.011 C 559.371 154.092, 557.200 151.120, 549.534 143.388 C 542.104 135.894, 538.991 133.543, 532 130.148 C 527.325 127.878, 520.818 125.340, 517.540 124.510 C 510.113 122.628, 495.289 122.662, 488 124.576 M 686.500 173.222 C 681.776 174.898, 673.416 180.765, 670.734 184.287 C 667.336 188.751, 664 195.524, 664 197.960 C 664 201.298, 666.841 200.346, 672.610 195.073 C 682.384 186.141, 693.985 182.141, 704.489 184.083 C 710.495 185.193, 712 184.808, 712 182.163 C 712 174.809, 696.927 169.523, 686.500 173.222 M 884.415 188.421 C 881.023 189.898, 876.740 194.715, 877.304 196.419 C 877.500 197.014, 880.800 197.784, 884.637 198.131 C 895.247 199.090, 903.581 204.170, 910.107 213.655 C 913.881 219.140, 916.004 219.355, 915.990 214.250 C 915.980 210.158, 912.273 201.358, 908.448 196.342 C 905.540 192.530, 894.895 186.985, 890.590 187.039 C 888.891 187.061, 886.112 187.683, 884.415 188.421 M 686.132 236.049 C 679.156 237.466, 672.878 240.999, 667.500 246.535 C 656.347 258.016, 651 272.634, 651 291.643 C 651 300.492, 651.459 304.426, 653.040 309.118 C 654.162 312.449, 654.819 315.994, 654.501 316.997 C 654.047 318.426, 655.715 320.025, 662.228 324.404 C 672.855 331.548, 679.770 334, 689.294 334 C 704.528 334, 714.061 328.065, 720.358 314.660 C 727.711 299.006, 729.729 277.804, 725.238 263.380 C 719.044 243.484, 703.389 232.543, 686.132 236.049 M 679.288 244.986 C 668.757 250.296, 660.857 262.404, 657.583 278.254 C 654.003 295.583, 656.828 311.899, 664.658 319.121 C 668.096 322.290, 672.908 325.425, 673.472 324.861 C 673.698 324.635, 672.446 321.553, 670.691 318.010 C 667.691 311.956, 667.504 310.939, 667.570 301.035 C 667.631 291.779, 667.971 289.771, 670.370 284.500 C 680.814 261.549, 705.461 261.079, 713.999 283.668 C 717.134 291.962, 716.518 306.006, 712.647 314.460 C 711.175 317.674, 710.180 320.513, 710.434 320.768 C 711.378 321.711, 717.139 311.289, 719.152 305 C 720.639 300.353, 721.377 294.772, 721.741 285.423 C 722.192 273.823, 721.999 271.552, 720.030 265.315 C 717.319 256.724, 712.081 249.563, 705.560 245.532 C 701.442 242.986, 699.443 242.448, 693.078 242.177 C 686.233 241.886, 684.900 242.158, 679.288 244.986 M 877.479 253.749 C 874.718 254.733, 870.950 256.611, 869.107 257.924 C 865.106 260.773, 858.811 270.210, 856.147 277.354 C 853.911 283.348, 851 299.402, 851 305.735 C 851 312.288, 852.865 323.673, 855.140 331 C 858.643 342.285, 867.337 348, 881 348 C 889.246 348, 895.063 346.073, 901.411 341.239 C 916.351 329.864, 921.603 293.926, 911.577 271.676 C 904.999 257.078, 890.108 249.249, 877.479 253.749 M 876.391 260.432 C 870.029 263.201, 864.125 270.905, 860.318 281.403 C 858.722 285.805, 855.921 301.228, 856.593 301.917 C 857.081 302.416, 856.790 302.884, 860.577 295.500 C 864.974 286.927, 870.090 283.500, 878.493 283.500 C 884.028 283.500, 885.292 283.878, 888.657 286.543 C 901.880 297.016, 902.291 323.616, 889.466 338.857 C 887.020 341.765, 886.970 342, 888.802 342 C 891.814 342, 900.176 335.815, 903.113 331.414 C 911.134 319.395, 913.909 298.355, 909.509 282.907 C 906.556 272.538, 900.847 264.550, 893.790 260.912 C 889.418 258.659, 880.998 258.426, 876.391 260.432 M 789.487 263.733 C 770.670 270.487, 758.385 287.451, 750.549 317.500 C 742.994 346.471, 745.378 366.061, 758.098 379.510 C 763.481 385.202, 774.052 391.356, 780.534 392.572 C 786.215 393.638, 786.450 395.047, 781.985 401.281 C 779.784 404.355, 777.169 407.129, 776.175 407.444 C 771.466 408.939, 751.950 402.574, 740.642 395.857 C 732.155 390.814, 720.844 379.774, 715.178 371 C 711.340 365.057, 711.126 364.393, 712.681 363.250 C 713.617 362.563, 715.196 362, 716.191 362 C 719.709 362, 718.034 359.086, 713.872 357.965 C 706.720 356.040, 695.728 361.189, 691.872 368.271 C 690.227 371.291, 691.925 372.189, 695.059 369.958 C 696.664 368.815, 699.220 367.794, 700.739 367.690 L 703.500 367.500 704.194 382.772 C 705.916 420.692, 715.047 440.983, 734.777 450.734 C 742.139 454.373, 742.754 454.500, 753 454.500 C 763.280 454.500, 763.841 454.383, 771.367 450.663 C 779.963 446.415, 786.810 440.179, 794 430.050 C 804.135 415.772, 804.035 415.868, 811 413.761 C 818.434 411.512, 829.436 404.616, 832.750 400.128 C 837.022 394.343, 834.870 393.151, 829.178 398.149 C 821.768 404.654, 809.882 408.626, 794.776 409.643 C 786.317 410.212, 784.970 410.085, 784.424 408.663 C 784.040 407.662, 784.818 405.817, 786.435 403.895 C 787.886 402.171, 789.743 399.464, 790.562 397.880 C 791.890 395.312, 792.572 395, 796.866 395 C 804.077 395, 816.791 391.403, 823 387.605 C 837.956 378.458, 844.935 361.436, 844.976 334 C 845.026 300.759, 833.058 273.868, 814.415 265.333 C 807.032 261.952, 796.357 261.267, 789.487 263.733 M 793.500 270.880 C 784.634 273.221, 776.912 279.254, 771.199 288.306 C 763.453 300.576, 758.291 315.052, 755.440 332.500 C 752.423 350.968, 755.040 364.379, 763.499 373.787 C 774.892 386.459, 798.194 390.777, 814.361 383.212 C 830.406 375.704, 836.947 361.762, 836.981 335 C 837.012 310.717, 830.840 289.872, 820.360 278.869 C 814.229 272.432, 801.717 268.710, 793.500 270.880 M 693.455 280.455 C 691.527 282.382, 691 283.945, 691 287.732 C 691 293.753, 693.093 297, 696.975 297 C 701.200 297, 702.907 296.081, 704.537 292.928 C 707.985 286.260, 704.645 278, 698.500 278 C 697.075 278, 694.805 279.105, 693.455 280.455 M 874.589 296.077 C 867.516 304.482, 876.648 317.326, 884.076 309.419 C 889.015 304.162, 885.846 293, 879.415 293 C 878.144 293, 876.059 294.330, 874.589 296.077 M 715.130 408.344 C 712.419 411.610, 720.344 429.249, 727.933 436.838 C 739.809 448.714, 757.936 451.297, 771.193 443.004 C 775.693 440.188, 775.863 439.913, 775.340 436.284 C 774.510 430.531, 770.057 423.930, 764.822 420.693 C 760.590 418.077, 753.087 415.580, 752.180 416.486 C 751.974 416.693, 752.769 419.438, 753.947 422.587 C 757.001 430.750, 755.140 431.702, 750.492 424.353 C 742.366 411.505, 735.364 407.026, 723.372 407.010 C 718.616 407.003, 715.874 407.447, 715.130 408.344 M 519.630 413.021 C 514.201 413.508, 509.538 414.128, 509.267 414.399 C 508.996 414.670, 510.796 417.954, 513.267 421.696 C 519.074 430.491, 521.117 434.631, 524.771 445 C 530.173 460.328, 531.469 468.674, 531.450 488 C 531.437 501.199, 531.010 507.180, 529.711 512.336 C 528.764 516.096, 528.203 519.519, 528.464 519.942 C 528.725 520.365, 531.316 520.333, 534.220 519.870 C 541.109 518.773, 568.750 515.289, 576.750 514.510 C 587.583 513.454, 583.857 517.449, 569.830 521.930 C 565.193 523.411, 565.016 523.665, 561.025 534.500 C 552.963 556.388, 535.493 586.878, 523.680 599.678 C 519.643 604.052, 520.486 606.412, 528.849 614.151 C 540.933 625.334, 559.576 633.456, 580.500 636.655 C 588.697 637.908, 596.270 638.063, 622.500 637.513 C 657.135 636.788, 672.707 637.840, 689.039 642.010 C 705.257 646.151, 721.192 653.124, 727.122 658.674 C 731.214 662.505, 744.010 664.350, 762 663.704 C 780.976 663.023, 795.539 659.235, 808.021 651.736 C 812.867 648.824, 813.472 648.100, 813.258 645.472 C 813.124 643.837, 812.950 635.750, 812.869 627.500 C 812.702 610.296, 813.648 603.642, 821.114 569.513 C 827.373 540.900, 829.665 528.679, 831.526 514 C 832.328 507.675, 832.988 502.163, 832.992 501.750 C 832.996 501.337, 833.619 501, 834.375 501 C 835.131 501, 836.031 502.406, 836.375 504.125 C 837.504 509.770, 837.018 526.313, 835.423 536.500 C 834.562 542, 833.612 548.143, 833.311 550.150 L 832.763 553.800 855.132 565.112 C 867.434 571.333, 877.725 576.440, 878 576.462 C 878.275 576.483, 878.886 574.700, 879.359 572.500 C 883.303 554.129, 891.720 533.738, 901.136 519.742 C 907.881 509.717, 917.348 498.805, 924.386 492.944 C 929.463 488.716, 930.653 487.237, 929.712 486.321 C 927.245 483.920, 871.010 458.990, 868.114 459.013 C 867.226 459.020, 863.800 459.872, 860.500 460.907 C 853.336 463.153, 835.252 467.180, 821.760 469.534 C 812.402 471.166, 811.934 471.371, 809.836 474.765 C 806.207 480.637, 795.305 492.950, 787.685 499.783 C 776.513 509.800, 764.692 517.877, 751.212 524.704 C 733.368 533.741, 732.692 533.883, 725.309 530.156 C 709.366 522.108, 683.918 502.326, 669.241 486.570 C 660.083 476.740, 651.094 464.837, 645.311 454.884 L 640.818 447.151 632.659 443.931 C 619.316 438.664, 595.241 426.548, 584 419.444 L 573.500 412.808 551.500 412.472 C 539.400 412.287, 525.058 412.534, 519.630 413.021 M 488.164 416.487 C 484.130 417.230, 480.559 418.108, 480.229 418.437 C 479.900 418.767, 481.218 420.716, 483.158 422.768 C 493.116 433.300, 501.398 452.179, 504.529 471.477 C 507.116 487.430, 506.132 510.705, 502.427 521.208 C 500.640 526.271, 501.256 526.459, 512.463 524.259 L 521.427 522.500 523.179 516.731 C 528.780 498.287, 527.896 471.907, 520.943 450 C 518.095 441.029, 510.868 426.502, 506.266 420.500 C 501.813 414.691, 500.040 414.298, 488.164 416.487 M 471.500 427.696 C 450.448 432.577, 440.500 436.415, 429.044 444.078 C 414.138 454.049, 398.408 472.436, 387.191 493 C 381.717 503.038, 373.661 521.974, 371.452 530 C 370.468 533.575, 367.721 540.379, 365.347 545.119 C 360.835 554.132, 357.002 567.676, 357.031 574.500 C 357.058 580.562, 358.821 587.078, 361.563 591.250 C 364.832 596.223, 366.648 596.071, 367.524 590.750 C 368.395 585.462, 370.589 580, 371.843 580 C 372.363 580, 372.952 583.487, 373.152 587.750 C 373.778 601.098, 379.877 608.341, 390 607.759 L 394.500 607.500 394.268 601.500 C 394.028 595.304, 396.740 584.500, 398.536 584.500 C 399.066 584.500, 399.783 588.325, 400.128 593 C 400.850 602.773, 401.768 605.551, 405.386 608.917 C 408.969 612.250, 417.112 612.882, 422 610.207 C 426.173 607.924, 429.572 602.343, 430.480 596.283 C 431.248 591.162, 433.378 582.741, 434.942 578.641 C 435.890 576.157, 436.244 575.958, 437.644 577.120 C 438.964 578.215, 439.146 579.744, 438.652 585.586 C 438.321 589.508, 438.310 592.976, 438.628 593.294 C 439.589 594.256, 444.328 592.037, 447.232 589.266 C 455.875 581.021, 454.362 562.083, 444.016 549.020 C 440.053 544.016, 439.989 541.619, 443.841 542.465 C 446.463 543.041, 447.767 541.971, 460.708 528.626 C 473.152 515.794, 474.902 514.331, 476.228 515.657 C 477.554 516.983, 478.725 516.845, 486.611 514.436 C 491.500 512.943, 496.156 511.112, 496.959 510.366 C 499.419 508.080, 498.931 478.982, 496.237 467.310 C 492.703 452.004, 485.796 436.770, 479.207 429.750 C 476.680 427.058, 475.550 426.757, 471.500 427.696 M 650 452.055 C 650 453.582, 657.404 464.334, 664.317 472.844 C 679.261 491.243, 699.532 508.489, 723.179 522.924 L 731.858 528.222 742.514 523.132 C 760.997 514.303, 775.063 504.874, 787.352 493.078 C 794.652 486.070, 804 474.898, 804 473.180 C 804 472.530, 801.858 472.323, 798.250 472.624 C 787.606 473.512, 786.508 473.893, 782.444 478.112 C 777.406 483.341, 765.440 492.523, 756.479 498.033 C 748.736 502.795, 735.883 509, 733.763 509 C 731.851 509, 713.014 496.561, 704 489.346 C 692.867 480.435, 685.403 473.381, 678.252 465.011 L 671.853 457.523 661.677 454.281 C 650.236 450.638, 650 450.593, 650 452.055 M 931.900 493.164 C 916.032 504.576, 896.035 534.121, 888.692 557 C 885.766 566.118, 883.573 577.444, 884.345 579.456 C 885.023 581.224, 900.698 589.298, 901.363 588.222 C 901.618 587.809, 902.325 584.721, 902.935 581.360 C 905.628 566.506, 913.875 547.309, 924.210 531.833 C 930.807 521.953, 944.409 507.068, 951.035 502.476 C 953.216 500.965, 955 499.344, 955 498.875 C 955 497.861, 939.652 490, 937.672 490 C 936.918 490, 934.320 491.424, 931.900 493.164 M 945.959 516.987 C 935.966 526.980, 926.189 541.052, 919.870 554.536 C 914.799 565.358, 910.746 577.146, 911.751 578.151 C 912.171 578.571, 922.186 581.892, 934.007 585.531 C 945.828 589.170, 962.442 594.476, 970.927 597.323 L 986.354 602.500 988.461 610.548 C 992.266 625.084, 999.151 635.996, 1007.068 640.034 C 1013.941 643.541, 1020.854 641.727, 1022.892 635.881 C 1024.442 631.433, 1024.291 629.158, 1022 622.500 C 1019.522 615.297, 1019.524 615, 1022.050 615 C 1025.011 615, 1029.365 617.434, 1039.013 624.483 C 1043.694 627.904, 1048.885 631.406, 1050.547 632.266 C 1058.828 636.548, 1066.896 634.887, 1069.632 628.338 C 1072.924 620.460, 1069.283 611.955, 1057.818 600.741 C 1048.866 591.984, 1049.072 590.428, 1058.729 593.842 C 1061.903 594.964, 1068.462 597.289, 1073.304 599.009 C 1083.357 602.579, 1086.276 602.409, 1090.492 598.008 C 1092.972 595.419, 1093.213 594.572, 1092.773 589.986 C 1092.146 583.460, 1088.360 577.961, 1081 572.882 C 1076.197 569.568, 1073.022 568.119, 1061 563.758 C 1058.572 562.877, 1058.556 562.810, 1060.441 561.425 C 1061.732 560.478, 1065.011 560, 1070.223 560 C 1080.036 560, 1084.335 558.347, 1085.855 553.987 C 1088.229 547.175, 1080.507 539.285, 1069.156 536.928 C 1060.695 535.171, 1040.315 536.213, 1030.464 538.906 L 1022.428 541.104 1012.964 535.424 C 992.862 523.361, 961.449 508, 956.884 508 C 955.777 508, 951.093 511.853, 945.959 516.987 M 493 521.500 C 493 522.325, 493.450 523, 494 523 C 494.550 523, 495 522.325, 495 521.500 C 495 520.675, 494.550 520, 494 520 C 493.450 520, 493 520.675, 493 521.500 M 522.042 626.402 C 517.882 636.107, 514.879 651.358, 514.898 662.686 C 514.921 676.441, 517.296 686.097, 524.005 699.708 C 532.839 717.628, 546.641 732.428, 571.187 750.300 C 578.509 755.631, 591.025 765.612, 599 772.479 C 606.975 779.346, 613.773 784.973, 614.106 784.982 C 614.439 784.992, 614.999 781.737, 615.352 777.750 C 615.704 773.763, 616.241 769.375, 616.544 768 C 617.031 765.796, 615.502 764.099, 603.643 753.679 C 571.129 725.109, 545.045 694.609, 535.925 674.494 C 530.114 661.678, 528.345 645.578, 531.473 633.968 L 532.946 628.500 529.307 625.250 C 527.305 623.462, 525.276 622, 524.798 622 C 524.320 622, 523.080 623.981, 522.042 626.402 M 536.857 633.266 C 534.807 637.098, 534.568 653.670, 536.460 660.904 C 540.397 675.959, 552.367 694.262, 572.202 715.555 C 587.733 732.227, 616.016 759, 618.098 759 C 619.032 759, 625 746.527, 625 744.575 C 625 743.943, 620.837 739.802, 615.750 735.372 C 583.572 707.355, 556.099 676.559, 548.510 660 C 546.006 654.535, 545.475 651.970, 545.177 643.893 L 544.821 634.285 541.432 632.669 C 538.153 631.105, 538.004 631.125, 536.857 633.266 M 550.058 638.891 C 548.589 641.637, 550.518 652.494, 553.591 658.775 C 559.518 670.890, 581.202 696.295, 603.011 716.677 C 617.563 730.276, 626.531 738, 627.769 738 C 628.344 738, 631.389 734.133, 634.534 729.406 C 646.290 711.737, 665.680 694.199, 683.166 685.416 C 694.820 679.564, 704.283 677.034, 717.248 676.305 C 729.947 675.591, 729.954 675.695, 716.609 666.903 C 704.442 658.888, 689.185 651.593, 679.490 649.158 C 664.280 645.336, 657.546 644.894, 618.883 645.177 C 582.968 645.440, 581.117 645.361, 571.745 643.170 C 566.380 641.915, 559.520 640.039, 556.501 639 C 551.253 637.195, 550.969 637.190, 550.058 638.891 M 790.500 667.136 C 776.606 671.619, 757.514 673.105, 742.502 670.873 C 738.333 670.253, 734.661 670.006, 734.342 670.325 C 734.023 670.644, 735.391 672.807, 737.381 675.132 C 739.372 677.457, 741 680.390, 741 681.648 C 741 683.243, 742.592 685.130, 746.250 687.871 C 754.816 694.290, 765.559 705.978, 770.265 714 C 772.685 718.125, 775.078 721.500, 775.582 721.500 C 778.702 721.500, 798 675.115, 798 667.618 C 798 664.594, 798.315 664.614, 790.500 667.136 M 703 686.068 C 679.975 692.080, 656.527 710.257, 640.522 734.500 C 633.032 745.844, 625.526 761.323, 626.404 763.611 C 626.678 764.325, 628.837 765.887, 631.201 767.081 C 640.443 771.750, 654.257 780.463, 655.535 782.430 C 656.275 783.568, 658.080 787.875, 659.546 792 C 662.855 801.313, 663.689 802.245, 665.845 799.044 C 686.514 768.371, 731.745 746.993, 767.399 751.044 C 772.284 751.599, 776.527 751.806, 776.829 751.504 C 778.598 749.736, 767.763 723.940, 761.235 714.376 C 755.701 706.268, 743.968 695.193, 734.460 689.100 C 726.550 684.032, 726.450 684.001, 718.500 684.055 C 713.956 684.086, 707.260 684.956, 703 686.068 M 522.174 722.314 C 519.397 725.271, 519.449 727.274, 522.470 733.763 C 532.475 755.253, 554.865 776.213, 580.437 788.027 C 592.426 793.566, 609.372 797.805, 622.783 798.619 C 633.347 799.261, 633.631 799.222, 636.535 796.722 C 638.166 795.319, 639.212 793.882, 638.861 793.529 C 638.509 793.176, 635.519 793.588, 632.216 794.444 C 617.818 798.175, 614.667 796.759, 590 775.476 C 584.225 770.493, 573.425 761.872, 566 756.317 C 549.303 743.826, 538.010 733.892, 531.563 726.025 C 528.847 722.711, 526.113 720, 525.487 720 C 524.861 720, 523.370 721.042, 522.174 722.314 M 951.932 737.293 C 936.921 742.748, 921.990 751.692, 910.835 761.914 C 904.544 767.679, 904.124 768.354, 902.058 776.011 C 900.864 780.434, 900.025 785.909, 900.194 788.177 C 900.493 792.206, 900.616 792.333, 905.500 793.675 C 908.250 794.431, 915.755 796.682, 922.178 798.677 L 933.855 802.305 945.678 794.340 C 952.180 789.960, 962.330 783.785, 968.234 780.619 C 974.137 777.453, 979.203 774.480, 979.492 774.013 C 979.781 773.545, 980.694 769.189, 981.520 764.332 C 982.347 759.474, 983.777 752.231, 984.698 748.236 C 985.854 743.219, 986.051 740.651, 985.335 739.935 C 983.643 738.243, 974.041 736.010, 966 735.439 C 959.720 734.993, 957.431 735.295, 951.932 737.293 M 1012 736.087 C 999.899 737.639, 991.936 740.037, 991.038 742.401 C 989.792 745.677, 984.998 769.968, 985.016 772.910 C 985.029 774.991, 986.947 776.996, 994.766 783.107 C 1000.120 787.291, 1008.836 794.577, 1014.137 799.299 L 1023.773 807.884 1035.637 806.473 C 1042.161 805.697, 1052.360 805.048, 1058.301 805.031 L 1069.102 805 1070.570 801.487 C 1071.377 799.555, 1073.486 792.393, 1075.257 785.572 L 1078.476 773.170 1072.696 764.660 C 1064.555 752.676, 1060.068 748.563, 1049.564 743.460 C 1032.285 735.063, 1027.424 734.109, 1012 736.087 M 508.500 756.156 C 499.681 762.187, 497.498 764.523, 493.403 772.317 C 490.118 778.568, 489.651 780.377, 489.243 788.429 C 488.428 804.520, 493.483 817.546, 504.568 827.915 C 508.009 831.133, 513.451 835.057, 516.662 836.633 C 526.561 841.494, 542.057 840.510, 561.750 833.769 C 565.188 832.593, 568 831.352, 568 831.013 C 568 830.673, 565.777 829.596, 563.061 828.619 C 536.690 819.136, 516.398 789.666, 516.672 761.250 C 516.732 754.972, 516.398 752.008, 515.630 752.026 C 515.009 752.040, 511.800 753.899, 508.500 756.156 M 521.657 756.488 C 520.242 766.808, 526.246 787.188, 534.074 798.639 C 542.166 810.475, 554.909 820.003, 568.165 824.128 C 576.730 826.794, 580.150 826.508, 588.241 822.447 C 599.705 816.694, 613.187 806.851, 611.246 805.652 C 610.742 805.340, 606.825 804.362, 602.542 803.477 C 575.333 797.857, 546.079 779.964, 528.993 758.491 C 526.152 754.921, 523.478 752, 523.050 752 C 522.622 752, 521.995 754.020, 521.657 756.488 M 746.500 757.402 C 713.356 762.927, 683.527 781.129, 669.133 804.611 C 667.410 807.421, 666 810.540, 666 811.540 C 666 814.697, 670.346 827.002, 671.447 826.960 C 672.026 826.938, 674.525 824.192, 677 820.858 C 687.869 806.216, 707.898 791.794, 728.192 783.996 C 743.145 778.251, 762.927 775.288, 774.947 776.993 C 779.614 777.654, 782.707 777.693, 783.304 777.096 C 784.305 776.095, 781.475 762.454, 779.833 760.361 C 777.228 757.041, 758.590 755.387, 746.500 757.402 M 480.500 758.477 C 472.112 760.319, 465.440 763.017, 458.850 767.232 C 449.182 773.417, 445.939 782.318, 439.334 820.790 C 435.948 840.515, 435.603 844.237, 435.561 861.500 C 435.508 883.313, 436.550 888.966, 443.195 902.898 C 447.814 912.583, 453.998 919.362, 461.500 922.966 C 468.722 926.435, 484.055 926.997, 492.330 924.096 C 503.513 920.176, 512.118 911.765, 517.580 899.415 C 520.350 893.152, 526 870.900, 526 866.254 C 526 864.684, 525.539 862.939, 524.976 862.376 C 524.278 861.678, 525.739 859.565, 529.577 855.728 C 532.670 852.634, 535.008 849.518, 534.771 848.802 C 534.497 847.972, 531.772 847.298, 527.251 846.942 C 517.170 846.148, 506.791 840.872, 498.074 832.108 C 485.990 819.961, 481.455 807.733, 482.270 789.500 C 482.828 777.042, 484.684 770.962, 490.331 763.103 C 492.271 760.402, 493.590 757.924, 493.263 757.596 C 492.336 756.669, 487.081 757.031, 480.500 758.477 M 1078.038 763.300 C 1077.900 766.184, 1083.943 773.534, 1085.894 772.853 C 1086.449 772.659, 1084.918 770.250, 1082.490 767.500 C 1080.063 764.750, 1078.060 762.860, 1078.038 763.300 M 623.547 774.250 C 621.234 781.648, 622.487 788.044, 626.225 787.932 C 630.231 787.812, 641.348 784.540, 641.723 783.370 C 642.091 782.226, 627.329 773, 625.131 773 C 624.474 773, 623.761 773.563, 623.547 774.250 M 749.500 783.464 C 721.654 788.568, 691.710 807.457, 677.928 828.610 L 673.667 835.151 679.404 849.325 C 688.428 871.622, 694.420 884.500, 695.771 884.500 C 696.455 884.500, 701.267 881.231, 706.464 877.236 C 715.014 870.663, 716.303 869.223, 720.007 862.103 C 727.524 847.655, 739.859 835.624, 754.500 828.460 C 764.426 823.603, 776.495 820.675, 784.500 821.183 C 788.876 821.460, 789.530 821.251, 789.740 819.500 C 789.872 818.400, 788.972 810.075, 787.740 801 L 785.500 784.500 781 783.330 C 775.056 781.786, 758.266 781.857, 749.500 783.464 M 435.957 786.545 C 433.224 789.455, 432.400 798.500, 434.869 798.500 C 436.328 798.500, 440.211 785.248, 438.975 784.485 C 438.599 784.252, 437.241 785.179, 435.957 786.545 M 890.827 803.750 C 881.270 813.672, 875.190 823.325, 873.805 830.774 C 872.710 836.662, 872.769 837.060, 875.276 840.704 C 880.538 848.352, 882.691 859.367, 880.916 869.562 C 879.252 879.117, 880.484 881.431, 889.433 885.560 C 896.752 888.936, 906.259 892.320, 911.542 893.429 C 914.517 894.054, 914.745 893.812, 921.991 882.309 C 926.066 875.842, 932.237 866.789, 935.706 862.190 C 939.174 857.591, 941.789 853.468, 941.517 853.027 C 939.738 850.149, 932 813.116, 932 807.482 C 932 807.190, 930.763 806.479, 929.250 805.902 C 923.994 803.897, 900.490 797, 898.914 797 C 898.042 797, 894.403 800.038, 890.827 803.750 M 1057 809.647 C 1055.075 809.828, 1047.095 810.488, 1039.267 811.115 C 1031.335 811.750, 1024.633 812.752, 1024.130 813.378 C 1023.633 813.995, 1021.817 817.875, 1020.093 822 C 1018.370 826.125, 1013.666 836.227, 1009.640 844.448 L 1002.321 859.396 1013.107 878.448 C 1019.039 888.927, 1024.571 898.737, 1025.400 900.250 L 1026.907 903 1038.703 902.968 C 1045.192 902.951, 1055.222 902.305, 1060.992 901.533 C 1070.467 900.266, 1071.706 899.857, 1073.769 897.315 C 1077.079 893.237, 1088.395 869.860, 1091.632 860.413 L 1094.403 852.326 1091.673 846.031 C 1088.400 838.485, 1078.408 820.964, 1073.407 814.004 C 1069.519 808.592, 1069.197 808.506, 1057 809.647 M 427.642 828.250 C 425.196 832.170, 424.774 836.005, 426.498 838.638 C 428.613 841.866, 429.629 841, 430.456 835.262 C 430.834 832.643, 431.385 829.487, 431.680 828.250 C 432.065 826.637, 431.768 826, 430.631 826 C 429.760 826, 428.414 827.013, 427.642 828.250 M 813.729 828.974 C 806.991 830.197, 796.559 833.683, 790.586 836.707 C 783.318 840.387, 778.037 845.010, 772.524 852.519 C 769.878 856.123, 767.215 858.905, 766.607 858.703 C 765.998 858.501, 765.275 857.085, 765 855.558 C 764.507 852.818, 764.409 852.877, 757.681 859.951 C 750.851 867.133, 748.760 868.097, 748.200 864.324 C 747.505 859.639, 761.587 846.138, 778.505 835.271 C 782.591 832.647, 785.949 830.103, 785.967 829.618 C 786.025 828.071, 771.735 829.655, 765 831.944 C 749.547 837.193, 733.452 851.236, 726.299 865.709 C 722.756 872.878, 721.967 873.712, 709.730 883.210 C 702.628 888.722, 696.461 894.289, 695.941 895.656 C 694.398 899.714, 694.825 921.319, 696.605 929.303 C 698.316 936.971, 703.473 949, 705.051 949 C 705.573 949, 706 948.528, 706 947.952 C 706 946.030, 712.632 936.556, 717.094 932.104 C 723.580 925.633, 730.334 920.811, 741 915.037 C 749.356 910.513, 752.185 908.183, 764.500 895.686 C 784.286 875.608, 800.471 864.758, 820.500 858.146 C 839.353 851.922, 855.212 851.843, 867.455 857.911 C 870.753 859.545, 873.664 860.669, 873.924 860.409 C 874.792 859.542, 871.918 850.557, 869.389 846.231 C 865.802 840.095, 858.371 834.654, 849.293 831.517 C 843.023 829.350, 839.253 828.754, 830 828.466 C 823.675 828.269, 816.353 828.497, 813.729 828.974 M 476.146 845.254 C 473.366 848.034, 475.310 851.298, 480.506 852.575 C 486.277 853.994, 499.177 859.903, 506.589 864.523 C 512.683 868.321, 514.343 868.961, 515.535 867.971 C 517.898 866.010, 517.240 863.418, 513.558 860.185 C 504.113 851.893, 479.379 842.021, 476.146 845.254 M 1105.501 851.942 L 1098.502 854.550 1095.375 863.613 C 1091.465 874.946, 1085.477 887.796, 1080.492 895.550 L 1076.668 901.500 1076.918 917 C 1077.055 925.525, 1077.363 932.696, 1077.602 932.935 C 1078.356 933.690, 1085.954 925.758, 1090.950 919 C 1100.421 906.188, 1106.344 893.323, 1110.413 876.727 C 1113.115 865.706, 1114.777 850.554, 1113.368 849.798 C 1112.890 849.542, 1109.350 850.507, 1105.501 851.942 M 941.731 861.750 C 936.707 868.687, 924.776 886.744, 921.545 892.297 L 918.755 897.094 923.822 907.516 C 929.158 918.491, 937.743 932.552, 940.793 935.312 C 944.019 938.232, 965.093 942.162, 980.636 942.741 L 994.772 943.268 1000.499 936.258 C 1007.388 927.826, 1018.245 912.761, 1020.713 908.210 C 1022.449 905.011, 1022.440 904.816, 1020.416 901.210 C 1019.272 899.169, 1013.738 889.355, 1008.119 879.400 L 997.903 861.299 984.701 860.635 C 977.441 860.269, 965.875 859.305, 959 858.494 C 952.125 857.682, 946.201 857.013, 945.835 857.009 C 945.470 857.004, 943.623 859.138, 941.731 861.750 M 832.500 861.475 C 809.362 866.549, 791.682 877.230, 769.476 899.547 C 759.131 909.945, 753.492 914.777, 747.976 917.969 C 743.864 920.350, 737.520 924.016, 733.878 926.117 C 725.049 931.211, 713.733 943.278, 711.509 949.972 C 709.204 956.913, 710.290 958.535, 719.110 961.321 C 720.148 961.649, 721.951 960.353, 724.193 957.665 C 727.138 954.133, 727.598 952.921, 727.217 949.690 C 726.810 946.240, 727.183 945.481, 731.169 941.663 C 737.474 935.621, 746.395 933.350, 751.879 936.390 C 754.684 937.945, 757.076 943.613, 757.727 950.250 C 757.994 952.972, 758.697 955, 759.374 955 C 761.358 955, 764.933 952.031, 766.427 949.141 C 768.323 945.474, 776.700 941.059, 783.214 940.293 C 787.164 939.828, 790.206 938.538, 795.250 935.189 C 798.962 932.724, 802 930.168, 802 929.511 C 802 928.853, 800.538 927.571, 798.750 926.662 C 795.309 924.912, 780.471 921, 777.275 921 C 776.234 921, 774.509 920.352, 773.441 919.561 C 771.583 918.183, 771.734 917.881, 777 912.469 C 780.025 909.361, 785.087 905.041, 788.250 902.871 C 793.382 899.350, 794 898.553, 794 895.466 C 794 892.912, 794.923 890.985, 797.523 888.106 C 801.943 883.214, 806.537 881, 812.266 881 C 818.182 881, 821.156 883.472, 823.486 890.326 C 825.271 895.579, 825.276 895.990, 823.596 900.389 C 821.705 905.340, 818.657 908.023, 812.747 909.940 C 807.858 911.526, 803.675 910.531, 799.383 906.763 C 796.503 904.234, 795.540 903.889, 793.707 904.727 C 789.902 906.468, 781 913.981, 781 915.452 C 781 916.360, 783.039 917.279, 786.750 918.045 C 794.112 919.564, 802.719 922.735, 806.312 925.254 C 808.867 927.044, 809.455 927.098, 812.753 925.843 C 815.521 924.790, 816.583 923.690, 817.225 921.213 C 818.671 915.630, 830.513 909, 839.038 909 C 841.587 909, 851 902.808, 851 901.130 C 851 900.703, 848.862 899.711, 846.250 898.926 C 842.638 897.842, 840.921 896.602, 839.082 893.750 C 837.245 890.899, 836 890, 833.891 890 C 829.894 890, 829.452 888.335, 832.967 886.517 C 834.728 885.607, 836 884.153, 836 883.051 C 836 878.015, 845.901 871.066, 853.139 871.022 C 857.980 870.993, 861.045 873.655, 863.042 879.626 C 863.943 882.320, 865.291 884.500, 866.055 884.500 C 868.189 884.500, 871.965 876.953, 871.984 872.651 C 872.005 867.715, 867.883 863.637, 860.724 861.511 C 854.540 859.674, 840.790 859.657, 832.500 861.475 M 423.975 866.565 C 422.458 870.557, 422.818 874.556, 424.929 877.139 C 427.978 880.870, 429.216 878.562, 428.406 870.656 C 427.673 863.502, 425.798 861.771, 423.975 866.565 M 470.110 867.367 C 467.824 870.122, 469.226 872.419, 474.009 873.753 C 485.164 876.866, 495.021 880.529, 501.143 883.835 C 506.820 886.900, 508.020 887.228, 509.393 886.089 C 511.850 884.050, 511.348 882.442, 507.250 879.215 C 500.138 873.613, 486.060 867.881, 475.943 866.468 C 472.484 865.984, 471.078 866.201, 470.110 867.367 M 847.500 877.861 C 840.136 882.410, 839.402 886.555, 844.974 892.128 C 848.202 895.356, 851.591 895.780, 855.989 893.506 C 862.065 890.364, 863.507 885.174, 859.918 879.368 C 858.166 876.533, 857.257 876.001, 854.168 876.004 C 852.151 876.006, 849.150 876.841, 847.500 877.861 M 808.914 886.956 C 804.854 888.186, 801.414 890.796, 800.126 893.623 C 799.144 895.778, 799.254 896.751, 800.772 899.359 C 803.317 903.730, 807.205 905.473, 811.259 904.059 C 818.369 901.581, 820.748 896.280, 817.537 890.072 C 815.510 886.151, 813.712 885.502, 808.914 886.956 M 430.856 902.416 C 429.211 906.027, 432.509 912.386, 436.250 912.816 C 437.762 912.990, 439 912.663, 439 912.089 C 439 910.378, 433.652 900, 432.770 900 C 432.323 900, 431.462 901.087, 430.856 902.416 M 827.696 917.978 C 825.113 919.616, 823 921.574, 823 922.330 C 823 925.158, 827.544 930.498, 830.216 930.810 C 833.523 931.197, 838.575 928.663, 840.071 925.867 C 841.298 923.575, 840.659 918.499, 838.872 916.345 C 837.058 914.160, 832.716 914.794, 827.696 917.978 M 738.500 942.842 C 733.901 945.654, 732.737 947.525, 733.481 950.912 C 734.676 956.352, 737.617 959, 742.467 959 C 745.895 959, 747.457 958.375, 750.022 955.980 C 753.446 952.781, 753.663 950.348, 751.113 943.750 C 750.182 941.344, 749.515 941, 745.775 941.004 C 743.392 941.006, 740.172 941.819, 738.500 942.842 M 935.095 945.206 C 928.902 949.897, 928.866 949.808, 939 954.956 C 954.030 962.592, 973.322 967.149, 991.500 967.357 C 1004.687 967.508, 1017 966.344, 1017 964.946 C 1017 964.454, 1015.642 963.349, 1013.983 962.491 C 1012.324 961.633, 1007.153 958.021, 1002.492 954.465 L 994.018 948 985.759 947.980 C 973.789 947.952, 950.702 944.599, 942 941.625 C 941.175 941.343, 938.068 942.954, 935.095 945.206 M 777.325 947.612 C 775.578 948.473, 773.342 950.070, 772.355 951.160 C 770.627 953.069, 770.634 953.279, 772.530 956.821 C 774.849 961.151, 778.946 962.114, 783.980 959.511 C 788.422 957.214, 789.535 954.216, 787.635 949.668 C 786.382 946.670, 785.591 946.004, 783.301 946.023 C 781.760 946.035, 779.071 946.750, 777.325 947.612 M 728.460 960.065 C 727.347 961.866, 728.927 967.624, 731.066 969.560 C 733.697 971.941, 739.474 971.783, 742.884 969.237 C 746.871 966.261, 746.235 964.552, 741.003 964.180 C 738.163 963.979, 735.332 962.965, 733.320 961.430 C 729.712 958.679, 729.375 958.584, 728.460 960.065" stroke="none" fill="black" fill-rule="evenodd"/>
</svg>