<svg xmlns="http://www.w3.org/2000/svg" width="1536" height="1024" viewBox="0 0 1536 1024" version="1.1">
	<path d="M 312 12.626 C 310.075 12.867, 303.100 13.744, 296.500 14.574 C 271.805 17.681, 250.594 23.861, 228.623 34.351 C 207.205 44.577, 192.293 54.884, 175.639 70.973 C 148.259 97.425, 131.837 129.407, 124.276 171 C 122.988 178.086, 122.662 193.310, 122.313 262.500 C 122.083 308.150, 121.547 345.850, 121.120 346.277 C 120.694 346.705, 114.638 347.723, 107.662 348.539 C 85.333 351.152, 71.869 355.190, 68.578 360.263 C 66.168 363.978, 36.344 467.303, 31.451 488.892 C 28.265 502.946, 31.058 508.597, 44.296 514.883 C 53.612 519.306, 63.788 522.118, 79 524.473 C 84.775 525.368, 90.559 526.539, 91.854 527.075 L 94.207 528.052 90.303 532.287 C 79.016 544.532, 71.201 560.425, 67.906 577.831 C 66.089 587.430, 67.261 602.912, 70.456 611.513 C 71.883 615.356, 73.152 618.950, 73.276 619.500 C 73.408 620.088, 69.174 620.755, 63 621.120 C 40.943 622.422, 34.378 626.738, 19.656 649.616 C 11.596 662.140, 10.600 665.572, 10.547 681 C 10.503 693.540, 10.687 694.899, 13.128 700.105 C 14.726 703.512, 17.373 707.009, 19.878 709.022 L 24 712.335 24.002 799.917 C 24.003 899.735, 23.367 892.453, 32.484 896.969 C 37.078 899.245, 38.562 899.435, 51.484 899.410 C 67.535 899.378, 71.565 898.398, 75.882 893.481 C 79.353 889.528, 80.011 886.190, 80.890 868.073 L 81.500 855.500 136.250 855.241 C 171.414 855.075, 191 855.333, 191 855.960 C 191 856.498, 189.032 859.989, 186.627 863.719 C 173.909 883.439, 164.268 910.706, 161.933 933.566 C 160.478 947.799, 161.574 956.477, 166.008 965.854 C 175.075 985.025, 202.577 1000.271, 241.365 1007.629 C 268.382 1012.754, 231.601 1012.396, 765.500 1012.725 C 1206.406 1012.996, 1260.790 1012.863, 1271.500 1011.484 C 1283.024 1009.999, 1298.409 1006.540, 1300.500 1004.963 C 1301.050 1004.549, 1305.775 1002.757, 1311 1000.982 C 1316.225 999.207, 1325.703 995.335, 1332.061 992.377 C 1338.420 989.420, 1343.991 987, 1344.442 987 C 1344.893 987, 1350.857 983.800, 1357.694 979.889 C 1390.678 961.023, 1407.517 943.143, 1412.487 921.712 C 1413.302 918.198, 1414.270 910.726, 1414.638 905.108 C 1415.296 895.064, 1415.358 894.866, 1418.276 893.357 C 1432.348 886.081, 1452.579 872.637, 1464.245 862.812 C 1466.305 861.077, 1468.308 859.975, 1468.695 860.362 C 1470.012 861.679, 1470.248 896.726, 1469.074 916.653 C 1466.403 961.997, 1462.550 975.825, 1449.159 988.116 C 1442.069 994.624, 1423.664 1006.811, 1407 1016.031 L 1393.500 1023.500 1402.078 1023.786 C 1411.720 1024.108, 1408.281 1025.621, 1432.282 1010.505 C 1445.196 1002.372, 1456.930 993.079, 1461.324 987.504 C 1464.419 983.578, 1469.333 974.658, 1470.174 971.441 C 1470.614 969.761, 1472.050 969.195, 1478.373 968.212 C 1490.253 966.365, 1495.189 963.271, 1498.712 955.463 C 1500.415 951.689, 1500.508 937.849, 1500.674 665.500 C 1500.779 492.326, 1500.480 377.330, 1499.915 374 C 1499.402 370.975, 1497.817 366.115, 1496.393 363.200 L 1493.804 357.900 1498.792 352.627 C 1507.817 343.083, 1511.568 332.578, 1510.732 319.180 C 1510.278 311.912, 1509.643 309.619, 1506.099 302.467 C 1494.905 279.877, 1468.682 271.077, 1445.175 282.021 C 1437.139 285.762, 1427.354 295.381, 1423.708 303.124 C 1415.871 319.771, 1418.788 339.286, 1431.078 352.424 L 1436.962 358.715 1433.913 364.344 L 1430.864 369.974 1421.182 362.093 C 1399.609 344.533, 1372.064 329.785, 1344.500 321.036 C 1339 319.290, 1333.502 317.459, 1332.281 316.967 L 1330.063 316.071 1332.535 309.504 C 1338.103 294.711, 1339.335 272.356, 1335.512 255.500 C 1332.362 241.610, 1332.226 243, 1336.740 243 C 1344.899 243, 1349.027 236.924, 1349.775 223.817 C 1350.581 209.678, 1347.508 197.733, 1338.673 180.664 C 1328.915 161.811, 1312.832 145.497, 1295.250 136.618 C 1289.537 133.732, 1289.355 133.437, 1291.532 130.559 C 1293.544 127.898, 1293.367 123.114, 1291.120 119.429 C 1287.578 113.622, 1270.880 104.337, 1256.500 100.180 C 1242.105 96.019, 1237.840 95.499, 1218.500 95.547 C 1200.479 95.591, 1198.851 95.759, 1186.911 98.801 C 1152.417 107.590, 1127.133 124.640, 1107.677 152.228 C 1105.438 155.403, 1103.246 158, 1102.806 158 C 1102.366 158, 1099.192 155.926, 1095.753 153.391 C 1074.481 137.711, 1043.043 123.784, 1016.718 118.379 C 1007.961 116.581, 1007.928 116.563, 1004.853 111.771 C 997.952 101.016, 980.542 88.687, 970.321 87.316 C 965.441 86.662, 960.322 89.024, 958.982 92.548 C 958.469 93.897, 957.701 94.998, 957.275 94.996 C 956.849 94.993, 953.350 93.878, 949.500 92.517 C 941.927 89.839, 930.462 89.147, 924.069 90.980 C 917.187 92.954, 912.776 99.988, 914.390 106.416 C 914.725 107.753, 916.181 110.250, 917.624 111.965 C 919.068 113.681, 920.080 115.236, 919.874 115.421 C 919.668 115.606, 915 116.505, 909.500 117.417 C 898.611 119.224, 885.582 122.546, 874.307 126.390 C 868.953 128.215, 866.888 128.543, 866.229 127.671 C 865.743 127.027, 864.360 122.724, 863.155 118.110 C 855.360 88.246, 832.545 61.334, 803.196 47.381 C 781.097 36.876, 755.457 32.758, 734.937 36.419 C 722.109 38.708, 716.370 42.951, 717.159 49.562 C 717.461 52.089, 717.100 52.519, 714 53.318 C 687.060 60.265, 664.881 75.192, 652.086 94.988 C 641.967 110.644, 641.461 122.189, 650.706 126.499 C 652.793 127.473, 654.657 128.403, 654.849 128.567 C 655.041 128.731, 652.176 133.405, 648.481 138.955 C 629.693 167.176, 625.610 202.873, 639.572 216.836 C 643.666 220.929, 644.207 221.166, 648.712 220.843 L 653.500 220.500 653.175 227.500 C 652.222 248.032, 663.211 270.553, 677.623 277.604 C 682.805 280.139, 683.474 280.234, 688.313 279.117 C 691.894 278.290, 693.583 278.250, 693.828 278.984 C 694.867 282.102, 702.740 292.488, 706.813 296.114 C 712.874 301.511, 722.466 305.870, 730.015 306.659 C 733.307 307.003, 736 307.624, 736 308.038 C 736 308.452, 734.666 311.925, 733.036 315.756 C 731.406 319.587, 728.856 326.721, 727.369 331.610 C 724.967 339.511, 724.660 342.168, 724.603 355.500 C 724.547 368.873, 724.837 371.585, 727.282 380.500 C 732.994 401.331, 745.725 422.542, 762.169 438.625 C 777.878 453.989, 795.350 465.722, 819.389 477.053 C 825.746 480.049, 830.959 482.781, 830.973 483.124 C 831.019 484.194, 808.156 493.999, 793.814 499.060 C 779.136 504.240, 757.088 510.022, 742.500 512.516 C 731.129 514.460, 719 515.517, 719 514.563 C 719 514.162, 719.968 510.158, 721.150 505.667 C 723.980 494.918, 724.199 478.304, 721.634 469 C 719.233 460.287, 714.846 451.846, 708.715 444.142 C 705.088 439.583, 702.127 434.051, 698.279 424.639 C 695.324 417.413, 691.331 408.631, 689.404 405.125 L 685.901 398.751 687.039 391.244 C 688.908 378.915, 685.697 366.161, 677.818 354.617 C 674.559 349.842, 673.917 348.163, 674.410 345.700 C 676.238 336.560, 658.787 320.455, 643.144 316.844 C 640.196 316.163, 637.471 314.880, 636.964 313.934 C 634.046 308.479, 612.505 306.213, 598.132 309.847 C 587.067 312.645, 578.645 317.047, 572 323.503 C 565.544 329.777, 562.333 330.936, 562.812 326.821 C 563.261 322.974, 560.596 318.489, 556.969 316.987 C 553.918 315.723, 551.328 316.004, 542.307 318.578 L 540.114 319.204 539.739 250.352 C 539.386 185.530, 539.239 180.768, 537.224 169 C 534.493 153.054, 532.113 143.892, 527.470 131.457 C 506.424 75.098, 457.602 32.976, 396.507 18.468 C 377.871 14.042, 366.784 12.865, 340.500 12.518 C 326.750 12.337, 313.925 12.385, 312 12.626 M 317.500 20.577 C 288.231 23.383, 275.980 25.685, 257 31.943 C 235.337 39.086, 210.570 52.117, 195.500 64.302 C 187.679 70.625, 173.334 84.849, 167.545 92.020 C 151.512 111.882, 138.977 138.944, 134.099 164.227 C 130.385 183.478, 129.891 197.346, 130.202 273.500 L 130.500 346.500 141 346.500 L 151.500 346.500 151.754 305.500 C 151.984 268.373, 152.167 264.382, 153.695 263.250 C 155.014 262.273, 173.980 262, 240.536 262 C 321.762 262, 325.766 262.084, 327.345 263.829 C 328.857 265.500, 329 272.861, 329 349.129 C 329 412.717, 328.714 432.886, 327.800 433.800 C 326.902 434.698, 315.102 435, 280.859 435 C 253.303 435, 234.886 435.375, 234.536 435.943 C 233.838 437.071, 237.876 453.965, 239.269 455.750 C 240.654 457.525, 332.027 457.573, 333.800 455.800 C 334.460 455.140, 335 453.435, 335 452.010 C 335 447.689, 337.891 437.851, 341.032 431.484 L 344 425.467 344 345.389 C 344 269.080, 344.086 265.232, 345.829 263.655 C 347.499 262.144, 354.653 262, 428.129 262 C 489.384 262, 508.887 262.287, 509.800 263.200 C 510.686 264.086, 510.991 272.928, 510.967 296.950 L 510.934 329.500 508.217 333.420 C 506.723 335.576, 505.050 337.488, 504.500 337.670 C 503.847 337.886, 503.500 326.304, 503.500 304.250 L 503.500 270.500 428 270.500 L 352.500 270.500 352.500 340.500 C 352.500 402.118, 352.680 410.483, 354 410.359 C 354.825 410.281, 357.635 409.626, 360.244 408.903 C 363.870 407.898, 365.265 407.865, 366.160 408.760 C 367.055 409.655, 365.581 411.767, 359.906 417.716 C 349.091 429.055, 343.973 440.360, 342.575 456 C 342.144 460.826, 342.446 463.787, 343.747 467.500 C 346.158 474.376, 348.453 474.245, 352.500 467 C 354.598 463.243, 356.194 461.500, 357.536 461.500 C 359.925 461.500, 359.924 462.817, 357.526 476.191 C 355.922 485.136, 355.908 486.472, 357.353 493.554 C 358.213 497.773, 360.243 504.059, 361.863 507.521 C 365.277 514.816, 372.103 522, 375.621 522 C 377.805 522, 378 521.596, 378 517.065 C 378 510.662, 379.476 506.753, 381.731 507.187 C 382.967 507.425, 384.041 509.782, 385.521 515.509 C 388.019 525.177, 388.969 526.983, 394.866 533.288 C 401.702 540.596, 411.339 544.962, 416.392 543.041 C 418.803 542.124, 418.854 541.948, 417.467 539.290 C 415.559 535.630, 415.607 532.088, 417.577 531.332 C 418.607 530.937, 420.775 532.298, 423.827 535.256 C 431.665 542.852, 438.010 544.970, 447.208 543.061 C 453.960 541.659, 459.217 537.479, 462.584 530.835 C 464.332 527.385, 465.617 525.971, 466.799 526.194 C 469.214 526.652, 469.579 533.390, 467.445 538.123 L 465.747 541.887 469.417 546.887 C 478.802 559.672, 498.544 570.981, 521 576.435 C 528.939 578.364, 529.521 578.682, 529.817 581.256 C 530.027 583.077, 529.589 584.220, 528.527 584.628 C 524.661 586.111, 498.074 578.472, 489.389 573.382 L 484.893 570.747 470.196 585.166 C 462.113 593.096, 450.325 603.433, 444 608.136 C 422.433 624.172, 411.141 636.373, 403.867 651.500 C 386.242 688.153, 398.980 725.720, 436.007 746.286 C 444.160 750.815, 457.256 755.127, 471.500 757.974 C 477.595 759.192, 484.284 761.206, 486.500 762.490 C 500.625 770.673, 509.156 782.778, 514.581 802.331 C 518.722 817.260, 521.845 820.788, 532.960 823.095 C 545.869 825.775, 569.205 816.898, 586.006 802.915 C 590.269 799.367, 592 797.237, 592 795.536 C 592 792.845, 587.785 789, 584.834 789 C 582.117 789, 581.275 786.003, 583.529 784.355 C 586.477 782.199, 589.659 782.761, 593.476 786.113 C 596.392 788.673, 597.287 789.007, 598.511 787.991 C 599.330 787.311, 600 785.472, 600 783.903 C 600 780.605, 596.076 778, 591.109 778 C 584.534 778, 586.833 773.234, 593.862 772.292 C 596.138 771.986, 598 771.352, 598 770.881 C 598 770.410, 596.200 768.889, 594 767.500 C 591.800 766.111, 590 764.740, 590 764.452 C 590 764.165, 590.747 762.790, 591.660 761.397 C 593.566 758.487, 596.330 758.706, 600.966 762.133 C 608.808 767.931, 610.846 780.369, 605.750 791.326 C 600.769 802.037, 586.433 814.790, 570.274 822.885 C 558.306 828.881, 549.483 831.229, 538.500 831.340 C 527.046 831.456, 523.600 830.344, 517.038 824.415 C 511.925 819.796, 509.693 815.568, 506.977 805.354 C 502.713 789.319, 493.999 776.011, 484.367 770.825 C 481.690 769.383, 475.900 767.461, 471.500 766.554 L 463.500 764.903 460.063 769.202 C 445.447 787.480, 427.528 798.158, 405.364 801.798 L 394.678 803.553 392.557 811.566 C 389.899 821.613, 386.254 827.904, 381.128 831.297 C 369.539 838.966, 352.059 836.664, 342.929 826.267 C 335.833 818.185, 331.679 805.275, 331.660 791.250 C 331.653 786.163, 331.262 782, 330.792 782 C 326.190 782, 295.943 793.148, 274.500 802.748 C 263.554 807.649, 243.061 819.075, 235.082 824.726 C 209.477 842.863, 188.616 870.572, 178.074 900.448 C 172.392 916.550, 170.660 926.036, 170.576 941.500 C 170.505 954.620, 170.666 955.853, 173.135 961.120 C 184.225 984.771, 223.980 1000.273, 283 1003.960 C 306.272 1005.414, 1240.665 1005.394, 1260.813 1003.940 C 1275.583 1002.873, 1291.341 999.934, 1294.441 997.667 C 1297.186 995.660, 1298.116 989.499, 1298.696 969.500 C 1299.793 931.633, 1293.071 894.982, 1280.815 872 C 1272.309 856.050, 1258.036 840.599, 1239.969 827.783 C 1234.761 824.089, 1223.750 816.272, 1215.500 810.412 C 1207.250 804.552, 1194.425 794.986, 1187 789.154 C 1144.603 755.853, 1124.943 742.689, 1098.500 729.895 C 1045.201 704.109, 990.054 693.640, 917 695.438 C 901.325 695.824, 867.800 696.523, 842.500 696.991 C 786.386 698.029, 778.043 698.992, 737.733 709.080 C 708.624 716.365, 691.260 719.561, 665 722.467 C 618.466 727.617, 579.476 733.124, 577.820 734.780 C 577.380 735.220, 577.469 737.138, 578.018 739.040 C 579.676 744.788, 580.435 758.613, 579.137 759.416 C 578.511 759.802, 578 761.882, 578 764.039 C 578 771.732, 572.718 780.118, 569.745 777.145 C 569.024 776.424, 569.134 774.167, 570.102 769.802 C 575.027 747.596, 567.259 724.191, 549.103 706.538 C 544.164 701.734, 542.864 698.820, 545.057 697.465 C 547.303 696.077, 551.539 698.352, 557.670 704.238 L 564.051 710.366 568.570 705.933 C 574.658 699.960, 580.644 690.555, 584.649 680.671 C 587.690 673.164, 587.823 672.398, 586.288 671.250 C 585.369 670.563, 583.898 670, 583.019 670 C 576.110 670, 551.178 659.995, 543.329 654.072 C 538.422 650.369, 536.611 646.470, 539.317 645.432 C 540.118 645.124, 545.887 647.577, 552.137 650.881 C 578.703 664.928, 616.804 668.912, 647.277 660.829 L 655.054 658.766 662.277 661.133 C 672.215 664.390, 686.488 664.520, 690.677 661.392 C 692.597 659.959, 693.500 658.391, 693.500 656.493 C 693.500 654.134, 692.881 653.487, 689.502 652.317 C 684.656 650.639, 682.526 648.677, 683.317 646.616 C 683.793 645.376, 685.528 645.118, 692.243 645.288 C 701.441 645.522, 705.092 644.087, 707.227 639.401 C 708.217 637.229, 708.024 636.569, 705.723 634.269 C 703.675 632.220, 701.451 631.384, 695.792 630.533 C 689.129 629.530, 688.500 629.234, 688.500 627.099 C 688.500 625.050, 689.326 624.554, 695.209 623.073 C 706.121 620.326, 709.413 615.052, 702.750 610.989 C 700.073 609.357, 697.704 609.007, 689.309 609.004 C 682.936 609.001, 678.862 608.585, 678.433 607.892 C 678.057 607.283, 678.564 604.384, 679.561 601.451 C 681.019 597.162, 681.149 595.621, 680.221 593.586 C 677.439 587.480, 669.895 589.895, 661.351 599.627 L 655.756 606 650.098 606 C 632.970 606, 593.390 598.671, 592.263 595.290 C 592.069 594.708, 594.746 593.708, 598.294 593.039 C 603.268 592.100, 606.023 592.101, 610.797 593.040 C 617.232 594.306, 620.444 593.843, 619.755 591.749 C 619.508 590.998, 616.785 590.301, 612.922 590 C 606.900 589.531, 606.500 589.347, 606.500 587.038 C 606.500 584.975, 607.149 584.435, 610.500 583.715 C 646.705 575.926, 660.490 569.553, 667.684 557.276 C 669.099 554.861, 670.762 553.093, 671.379 553.346 C 671.995 553.600, 673.233 554.104, 674.129 554.465 C 676.315 555.345, 689.270 544.492, 695.900 536.226 C 706.219 523.361, 712.095 510.521, 714.729 495.088 C 716.281 485.993, 716.278 484.822, 714.678 476.683 C 712.531 465.755, 709.770 459.569, 702.618 449.661 C 695.724 440.110, 694.878 438.509, 689.072 424 C 681.134 404.166, 675.968 395.814, 664.565 384.382 C 648.835 368.611, 630.290 357.628, 610.870 352.582 C 595.194 348.508, 593.607 348.424, 591.553 351.560 C 589.946 354.013, 589.403 354.190, 585.248 353.621 C 578.219 352.657, 575.401 348.939, 580.291 347.079 C 581.551 346.600, 583.203 345.461, 583.961 344.547 C 585.163 343.099, 584.995 342.541, 582.654 340.199 C 580.182 337.727, 579.343 337.518, 572.148 337.578 C 566.860 337.622, 561.991 338.395, 557.108 339.965 C 546.989 343.219, 545.446 341.098, 552.018 332.969 C 553.143 331.577, 554.162 329.102, 554.282 327.469 C 554.490 324.637, 554.323 324.506, 550.667 324.621 C 545.708 324.778, 536.781 330.854, 532.481 337 C 528.749 342.333, 526.846 342.676, 525.543 338.250 C 525.017 336.462, 523.999 335, 523.281 335 C 521.550 335, 515.217 345.002, 512.544 351.956 C 510.483 357.319, 510.136 357.647, 501.878 362 C 490.123 368.198, 486.258 370.731, 480.769 375.837 L 476.039 380.237 480.120 384.869 C 488.708 394.614, 491.487 403.074, 486.342 403.808 C 484.681 404.044, 483.336 402.839, 480.508 398.579 C 475.781 391.457, 463.077 379.595, 456.568 376.226 C 441.004 368.171, 417.457 366.924, 398.487 373.152 C 394.919 374.323, 392 375.657, 392 376.115 C 392 376.574, 393.378 377.661, 395.062 378.532 C 399.608 380.883, 398.579 383.273, 392.589 384.277 C 389.898 384.728, 385.627 384.963, 383.098 384.799 L 378.500 384.500 378.188 380.148 C 377.802 374.783, 379.344 372.871, 387.289 368.857 C 397.609 363.643, 410.899 360.715, 424 360.770 C 438.784 360.832, 446.956 362.770, 458.856 369.035 C 464.043 371.766, 468.814 374, 469.457 374 C 470.100 374, 471.948 372.610, 473.563 370.912 C 477.544 366.726, 492.459 356.824, 498.375 354.439 C 502.668 352.708, 503.542 351.792, 506.535 345.886 C 509.931 339.188, 518.445 327.777, 521.803 325.426 C 522.810 324.720, 525.404 323.998, 527.567 323.821 L 531.500 323.500 531.497 254 C 531.494 192.261, 531.296 183.277, 529.721 173.543 C 520.928 119.211, 493.909 77.474, 449.373 49.432 C 426.699 35.155, 403.196 26.922, 372.357 22.454 C 362.116 20.970, 326.212 19.741, 317.500 20.577 M 307 43.682 C 298.337 44.661, 279.726 48.329, 271.509 50.677 C 261.222 53.615, 258.206 54.999, 255.786 57.890 C 254.844 59.017, 251.019 61.484, 247.286 63.373 C 239.939 67.092, 231.340 72.172, 226.337 75.750 C 222.454 78.527, 221 78.595, 221 76 C 221 74.900, 220.703 74, 220.339 74 C 218.551 74, 203.472 86.396, 195.457 94.454 C 171.502 118.539, 157.627 148.157, 153.053 184.974 C 151.540 197.146, 151.654 243.254, 153.200 244.800 C 155.079 246.679, 326.320 246.524, 327.882 244.642 C 328.706 243.649, 328.941 216.372, 328.755 143.392 L 328.500 43.500 319.500 43.393 C 314.550 43.334, 308.925 43.464, 307 43.682 M 345.035 44.934 C 343.448 47.900, 343.609 243.209, 345.200 244.800 C 346.938 246.538, 508.062 246.538, 509.800 244.800 C 511.331 243.269, 511.450 196.576, 509.957 183.541 C 507.678 163.643, 502.899 147.445, 494.013 129.500 C 470.714 82.450, 422.208 49.860, 366.789 44.023 C 351.536 42.416, 346.265 42.637, 345.035 44.934 M 735.530 45.172 C 726.627 46.870, 725.843 49.016, 733 52.095 C 735.750 53.278, 738 54.641, 738 55.123 C 738 55.605, 734.482 56, 730.182 56 C 720.793 56, 713.565 57.975, 708.647 61.883 C 706.646 63.473, 700.395 67.042, 694.755 69.814 C 683.668 75.264, 670.705 84.993, 664.593 92.452 C 655.369 103.709, 651.036 114.465, 654.380 117.808 C 656.313 119.742, 661.280 118.844, 673.228 114.401 C 680.660 111.637, 681.024 111.596, 682.728 113.324 C 684.426 115.045, 684.371 115.232, 681.397 117.810 C 679.690 119.290, 675.839 122.411, 672.838 124.747 C 661.039 133.931, 649.287 151.432, 643.791 168 C 640.988 176.452, 640.633 178.824, 640.570 189.500 C 640.510 199.810, 640.807 202.164, 642.677 206.213 C 644.231 209.576, 645.607 211.114, 647.483 211.585 C 650.882 212.438, 653.618 209.914, 658.684 201.248 C 660.783 197.658, 663.539 194.039, 664.810 193.206 C 666.883 191.847, 667.283 191.854, 668.711 193.282 C 670.165 194.736, 670.108 195.320, 668.056 200.091 C 663.955 209.625, 662.877 214.402, 662.325 225.500 C 661.718 237.719, 663.132 245.380, 667.636 254.269 C 672.083 263.044, 680.764 271, 685.891 271 C 688.658 271, 689.226 269.687, 689.702 262.188 C 690.171 254.806, 691.402 251.735, 693.710 252.190 C 695.832 252.608, 696.579 254.338, 697.946 262 C 701.484 281.835, 715.171 296.441, 731.442 297.747 C 741.161 298.528, 741.232 298.440, 745.514 280.269 C 751.082 256.643, 757.345 238.550, 765.665 222.057 C 773.318 206.885, 782.846 192.381, 785.940 191.192 C 787.983 190.407, 797.978 179.038, 797.991 177.483 C 797.996 176.923, 800.080 174.088, 802.623 171.181 C 806.801 166.405, 807.188 165.542, 806.657 162.199 C 806.333 160.164, 803.958 154.225, 801.378 149 C 791.325 128.636, 772.418 116, 752 116 C 738.516 116, 725.428 121.542, 715.747 131.352 C 712.075 135.072, 709.431 136.996, 708.486 136.633 C 704.873 135.246, 707.939 129.033, 716.161 121.082 C 733.640 104.180, 764.392 102.521, 785.977 117.317 C 799.049 126.277, 807.664 137.793, 812.936 153.354 C 814.616 158.314, 814.826 158.511, 818.719 158.802 C 822.231 159.064, 823.395 158.556, 827.630 154.915 C 830.308 152.612, 832.955 149.909, 833.511 148.908 C 834.525 147.085, 839.449 143.696, 854.250 134.637 C 857.581 132.598, 857.667 130.878, 854.936 120.980 C 848.860 98.967, 833.080 76.952, 814.187 64.129 C 791.513 48.741, 758.512 40.787, 735.530 45.172 M 306.500 51.660 C 273.116 56.140, 247.856 65.151, 224.061 81.067 C 212.556 88.762, 196.919 103.621, 188.452 114.903 C 179.756 126.489, 170.892 144.037, 166.681 158 C 161.383 175.566, 159.837 189.392, 160.196 216 L 160.500 238.500 240.500 238.500 L 320.500 238.500 320.500 145 L 320.500 51.500 315 51.379 C 311.975 51.312, 308.150 51.438, 306.500 51.660 M 352.517 52.102 C 352.224 52.871, 352.100 95.125, 352.242 146 L 352.500 238.500 428 238.500 L 503.500 238.500 503.822 224 C 504.421 197.047, 501.098 170.416, 494.775 151.500 C 478.578 103.041, 436.426 66.538, 382.868 54.590 C 368.149 51.306, 353.286 50.088, 352.517 52.102 M 242.333 90.870 C 237.841 92.433, 232.193 94.869, 229.782 96.282 C 214.010 105.525, 201.065 122.805, 195.953 141.439 C 193.103 151.826, 193.518 170.989, 196.810 181 C 203.113 200.172, 219.543 216.540, 239 223.034 C 247.873 225.996, 262.191 226.690, 271.865 224.629 C 287.161 221.370, 304.107 209.623, 309.862 198.290 C 314.502 189.153, 312.339 187.152, 298 187.314 C 288.139 187.426, 287.104 187.241, 281 184.280 C 277.425 182.546, 272.992 179.567, 271.148 177.661 L 267.796 174.194 270.398 170.365 C 273.220 166.212, 273.724 162.282, 271.750 159.830 C 271.063 158.977, 268.317 156.813, 265.650 155.022 C 251.721 145.671, 251.901 121.600, 266.042 102.443 C 274.197 91.396, 272.516 87.992, 258.921 88.013 C 252.274 88.024, 248.780 88.625, 242.333 90.870 M 244.980 97.344 C 234.990 100.871, 229.236 104.649, 220.459 113.443 C 214.559 119.355, 211.428 123.497, 208.702 129 C 196.064 154.506, 199.395 181.661, 217.519 200.873 C 228.243 212.241, 242.285 218.318, 258 218.392 C 274.010 218.468, 286.325 213.569, 297.407 202.717 C 301.508 198.700, 303.959 195.575, 303.417 195.056 C 302.912 194.573, 298.407 194.026, 293.405 193.839 C 285.185 193.533, 283.582 193.131, 276.763 189.668 C 269.235 185.845, 269.209 185.840, 265.882 187.561 C 259.335 190.947, 249.322 189.328, 244.610 184.121 C 243.063 182.413, 242.951 181.764, 243.984 180.519 C 245.640 178.524, 246.971 178.630, 250 181 C 251.553 182.215, 254.078 182.964, 256.668 182.978 C 264.041 183.017, 265.940 181.066, 262 177.500 C 259.172 174.940, 259.517 171.837, 263 168.500 C 266.567 165.083, 266.764 163.479, 263.812 161.899 C 262.609 161.255, 259.457 158.702, 256.809 156.225 C 252.967 152.631, 251.590 150.414, 249.997 145.255 C 245.627 131.106, 248.871 114.306, 258.593 100.748 C 260.467 98.134, 262 95.771, 262 95.498 C 262 94.103, 250.681 95.331, 244.980 97.344 M 967 98.476 C 967 99.838, 967.898 102.425, 968.996 104.226 C 971.141 107.743, 971.607 111.507, 970.021 112.487 C 968.820 113.229, 966.071 111.804, 960.507 107.557 C 954.223 102.760, 943.703 98.887, 935.500 98.349 C 918.853 97.258, 919.011 106.266, 935.804 115.694 C 940.833 118.517, 942.047 119.665, 941.804 121.366 C 941.551 123.141, 940.599 123.610, 936.148 124.153 C 928.364 125.103, 922.514 127.650, 919.047 131.600 C 913.457 137.966, 915.600 141.220, 925.900 142 C 932.117 142.471, 932.500 142.643, 932.500 144.970 C 932.500 148.142, 928.970 149.984, 923 149.929 C 916.299 149.867, 911.885 147.969, 909.212 144 C 906.544 140.038, 906.737 137.036, 910.069 130.643 C 911.182 128.507, 911.939 126.606, 911.751 126.418 C 910.918 125.585, 890.420 130.469, 879.500 134.103 C 832.658 149.688, 791.521 186.151, 771.046 230.233 C 764.275 244.813, 759.898 257.956, 753.976 281.500 C 749.365 299.833, 747.169 306.631, 743.154 315 C 736.361 329.161, 734.011 337.995, 733.306 352.023 C 732.010 377.808, 741.369 401.949, 761.919 425.826 C 777.973 444.479, 805.267 462.575, 835.933 474.896 C 842.771 477.644, 848.707 479.681, 849.123 479.424 C 849.540 479.166, 848.788 476.828, 847.453 474.228 C 844.202 467.898, 843.864 464.500, 846.487 464.500 C 847.827 464.500, 850.019 466.777, 853.224 471.500 C 859.864 481.282, 866.728 487.341, 876.332 491.897 C 887.729 497.304, 892.521 498.310, 908.219 498.595 C 922.377 498.852, 924 499.151, 924 501.502 C 924 504.920, 919.905 506, 906.937 506 C 891.789 506, 882.335 503.936, 870.500 498.046 C 862.245 493.937, 846.349 488, 843.604 488 C 842.748 488, 835.625 490.873, 827.774 494.385 C 790.271 511.162, 755.949 520.593, 721.817 523.503 L 714.134 524.158 709.882 531.315 C 703.936 541.324, 689.806 555.589, 678.117 563.384 C 672.828 566.911, 666.723 571.215, 664.551 572.947 C 659.181 577.232, 647.732 582.534, 638.302 585.104 C 627.571 588.029, 626.822 588.511, 627.192 592.251 C 627.567 596.046, 629.427 596.688, 642.790 597.640 L 652.080 598.301 658.482 591.706 C 663.562 586.474, 665.957 584.793, 670.076 583.570 C 680.381 580.510, 687.874 585.752, 688.412 596.398 L 688.619 600.500 696.060 601.061 C 704.193 601.674, 708.703 603.535, 711.899 607.599 C 713.609 609.773, 714.462 610.108, 716.737 609.502 C 719.617 608.734, 720.457 608.720, 736 609.174 C 743.349 609.389, 746.196 609.076, 748.573 607.792 C 752.939 605.433, 754.326 603.433, 753.600 600.542 C 752.887 597.701, 750.047 595.887, 745 595.048 C 742.096 594.565, 741.500 594.043, 741.500 591.983 C 741.500 589.711, 741.969 589.450, 747.008 588.908 C 761.446 587.354, 767.271 581.250, 759.693 575.613 C 757.422 573.923, 755.419 573.523, 749.193 573.513 C 741.788 573.500, 741.500 573.412, 741.500 571.150 C 741.500 569.255, 742.451 568.438, 746.406 566.937 C 751.551 564.984, 757 560.548, 757 558.313 C 757 557.591, 756.100 556.100, 755 555 C 752.780 552.780, 747.321 552.394, 740.501 553.975 C 735.390 555.160, 734.588 554.279, 737.127 550.268 C 741.480 543.393, 755.139 543.360, 761.700 550.209 C 765.424 554.096, 765.632 560.634, 762.151 564.340 L 759.801 566.840 763.809 569.493 C 768.740 572.755, 770.424 576.534, 769.727 582.767 C 769.270 586.847, 768.557 588.064, 764.556 591.592 C 760.611 595.069, 760.135 595.867, 761.387 596.906 C 763.868 598.965, 796.617 594.709, 810.601 590.510 C 814.843 589.236, 816.247 588.064, 821.076 581.769 C 824.142 577.771, 827.936 572.250, 829.505 569.500 C 831.075 566.750, 835.383 559.325, 839.077 553 C 842.772 546.675, 847.438 538.062, 849.447 533.860 C 851.455 529.659, 853.990 525.414, 855.080 524.427 C 856.933 522.750, 857.171 522.743, 858.736 524.307 C 860.210 525.782, 860.251 526.426, 859.078 529.740 C 853.757 544.771, 836.940 575.051, 826.782 587.892 C 813.016 605.292, 799.094 627.494, 800.849 629.249 C 801.432 629.832, 804.944 629.236, 810.143 627.672 C 814.739 626.289, 823.450 623.958, 829.500 622.492 C 835.550 621.025, 840.676 619.652, 840.890 619.439 C 841.105 619.227, 839.654 617.252, 837.666 615.052 C 833.517 610.459, 832.534 607.509, 833.286 601.902 C 834.715 591.247, 845.459 585.397, 867.148 583.465 L 874.796 582.784 874.256 574.908 C 873.380 562.123, 878.094 553.850, 887.935 550.901 C 896.362 548.377, 904.336 552.941, 912.460 564.942 C 918.103 573.276, 918.103 573.276, 933.170 569.457 C 960.922 562.422, 990.797 547.184, 1017.642 526.372 C 1029.242 517.379, 1032.668 515.479, 1034.517 517.014 C 1037.237 519.272, 1036.005 521.450, 1028.298 528 C 998.775 553.093, 967.995 569.418, 933.903 578.065 C 914.743 582.925, 915.925 583.205, 907.317 571.774 C 899.815 561.811, 896.273 559, 891.224 559 C 886.481 559, 882 565.336, 882 572.044 C 882 573.647, 882.970 577.913, 884.155 581.524 C 885.515 585.665, 885.960 588.440, 885.362 589.038 C 884.840 589.560, 880.607 590.442, 875.956 590.998 C 849.835 594.119, 845.263 595.495, 842.063 601.197 C 838.419 607.689, 846.882 614.411, 860.275 615.661 C 867.573 616.343, 870.128 617.982, 868.338 620.834 C 867.618 621.980, 865.296 622.687, 860.896 623.101 C 844.682 624.623, 837.423 630.121, 840.621 638.455 C 842.339 642.931, 853.914 645.605, 864.575 643.989 C 870.196 643.137, 872.524 643.124, 873.342 643.942 C 875.315 645.915, 872.662 648.391, 866.239 650.571 C 858.334 653.254, 856.823 654.565, 857.199 658.415 C 857.452 661.004, 858.300 661.896, 862.471 663.963 C 866.828 666.121, 868.742 666.420, 877.971 666.381 C 890.899 666.327, 900.559 664.273, 911.317 659.290 L 919.500 655.500 933.500 655.800 C 995.151 657.122, 1056.652 637.024, 1091.012 604.326 C 1095.949 599.628, 1101.622 593.558, 1103.618 590.839 C 1106.292 587.197, 1107.809 585.973, 1109.374 586.197 C 1115.171 587.024, 1109.291 598.382, 1096.550 610.971 C 1092.947 614.530, 1090 617.761, 1090 618.150 C 1090 618.540, 1092.588 619.371, 1095.750 619.997 C 1118.141 624.431, 1147.986 634.438, 1169.914 644.865 C 1173.442 646.543, 1176.726 647.669, 1177.212 647.369 C 1180.055 645.612, 1169.905 599.745, 1160.641 572.490 C 1147.617 534.175, 1127.925 496.581, 1111.028 477.774 L 1105.883 472.049 1101.913 474.555 C 1094.898 478.983, 1076.788 487.658, 1066.741 491.402 C 1053.989 496.155, 1037.022 500.488, 1023.262 502.506 C 1010.177 504.425, 1004.148 504.209, 1002.619 501.769 C 1000.662 498.646, 1003.979 496.874, 1014.659 495.338 C 1020.072 494.559, 1030.019 492.597, 1036.763 490.976 C 1090.002 478.188, 1127.530 451.980, 1146.268 414.500 C 1152.840 401.356, 1156.678 387.563, 1159.732 366.107 C 1160.591 360.074, 1162.755 357.722, 1165.416 359.930 C 1166.614 360.924, 1167 363.148, 1167 369.045 L 1167 376.844 1171.117 380.368 C 1178.306 386.522, 1190.002 389.163, 1200.545 387.012 C 1213.631 384.343, 1225.357 374.831, 1232.184 361.345 C 1235.032 355.719, 1236.081 354.500, 1238.075 354.500 C 1240.220 354.500, 1240.488 354.923, 1240.394 358.163 C 1240.335 360.177, 1239.521 364.169, 1238.584 367.034 C 1236.900 372.183, 1236.906 372.271, 1239.114 374.622 C 1245.479 381.397, 1263.328 373.519, 1274.495 359.006 C 1284.339 346.213, 1289 331.559, 1289 313.403 C 1289 304.585, 1289.261 302.837, 1290.656 302.302 C 1293.082 301.371, 1295.778 305.264, 1296.535 310.793 C 1298.481 324.994, 1301.648 330.058, 1307.640 328.554 C 1314.107 326.931, 1321.993 314.951, 1326.240 300.299 C 1328.168 293.644, 1328.493 290.226, 1328.450 277 C 1328.401 261.700, 1328.351 261.354, 1324.541 250.136 C 1322.217 243.294, 1318.505 235.162, 1315.213 229.701 C 1311.189 223.025, 1309.995 220.232, 1310.693 219.124 C 1312.561 216.163, 1314.267 216.861, 1320.282 223.046 C 1330.093 233.136, 1335.958 236.165, 1338.875 232.651 C 1340.973 230.122, 1341.933 221.595, 1340.929 214.400 C 1337.436 189.375, 1319.390 162.004, 1297 147.772 C 1289.748 143.163, 1278.513 138.297, 1271.380 136.677 C 1261.068 134.335, 1261.538 129, 1272.057 129 C 1283.758 129, 1286.331 125.388, 1278.480 119.986 C 1268.252 112.949, 1251.387 107.063, 1235.281 104.908 C 1223.935 103.390, 1203.152 104.346, 1191.872 106.903 C 1153.826 115.530, 1122.477 139.254, 1106.449 171.550 C 1101.652 181.216, 1099.746 182.808, 1096.971 179.465 C 1095.938 178.220, 1095.951 176.871, 1097.042 172.325 L 1098.387 166.720 1095.443 164.302 C 1088.540 158.632, 1073.643 149.464, 1062.325 143.922 C 1044.014 134.956, 1024.950 128.653, 1006.747 125.548 C 1003.604 125.012, 1002.648 124.225, 1000.866 120.704 C 995.859 110.808, 977.239 96, 969.804 96 C 967.487 96, 967 96.430, 967 98.476 M 404.701 100.250 C 403.776 100.938, 401.778 103.960, 400.260 106.967 C 397.958 111.526, 396.919 112.575, 394 113.284 C 384.580 115.572, 382.956 116.214, 381.981 118.035 C 380.640 120.541, 381.914 123.129, 387.185 128.608 L 391.137 132.715 389.889 138.759 C 388.784 144.109, 388.836 145.101, 390.343 147.401 C 392.491 150.678, 395.196 150.703, 401.212 147.500 C 403.795 146.125, 406.625 145, 407.500 145 C 408.375 145, 411.205 146.125, 413.788 147.500 C 419.746 150.672, 422.513 150.673, 424.591 147.502 C 426.026 145.312, 426.075 144.199, 424.992 138.459 L 423.757 131.914 428.379 127.358 C 436.385 119.465, 434.411 115.371, 421.683 113.472 C 417.043 112.779, 416.780 112.559, 414.549 107.514 C 413.275 104.633, 411.180 101.539, 409.894 100.638 C 407.086 98.672, 406.848 98.654, 404.701 100.250 M 404.030 113.430 C 402.040 118.072, 399.329 119.983, 394.685 120.015 C 393.483 120.024, 391.827 120.456, 391.004 120.977 C 389.772 121.755, 390.263 122.692, 393.782 126.278 L 398.057 130.634 396.931 135.886 C 396.312 138.775, 396.083 141.417, 396.424 141.758 C 396.765 142.098, 399.071 141.392, 401.549 140.189 C 407.082 137.500, 408.068 137.484, 413 140 C 418.379 142.744, 419.272 142.584, 418.579 139 C 418.261 137.350, 417.738 134.644, 417.418 132.987 C 416.924 130.430, 417.377 129.496, 420.418 126.803 C 425.260 122.517, 425.199 120.022, 420.250 119.930 C 414.587 119.824, 412.867 118.769, 410.585 114.003 C 409.438 111.608, 407.938 109.465, 407.250 109.241 C 406.527 109.005, 405.171 110.769, 404.030 113.430 M 241.709 152.624 C 241.319 153.014, 241 154.314, 241 155.512 C 241 157.992, 238.122 161, 235.748 161 C 234.871 161, 232.762 159.829, 231.062 158.399 C 225.485 153.706, 222.474 158.206, 227.786 163.295 C 231.409 166.766, 235.680 167.579, 240.253 165.668 C 244.357 163.953, 247.283 159.275, 246.810 155.184 C 246.506 152.551, 243.361 150.973, 241.709 152.624 M 456.242 175.994 C 451.404 184.683, 451.317 184.766, 445.893 185.930 C 443.002 186.550, 440.043 187.549, 439.318 188.151 C 436.973 190.098, 437.910 193.616, 442.018 198.283 C 445.948 202.748, 446.021 202.968, 445.382 208.407 C 444.343 217.251, 447.584 219.120, 456.473 214.801 L 461 212.601 465.527 214.801 C 474.612 219.215, 477.914 217.199, 476.289 208.231 L 475.259 202.551 479.130 197.961 C 485.209 190.751, 484.296 187.900, 475.287 185.968 C 470.557 184.954, 469.980 184.489, 466.855 179.190 C 464.235 174.746, 462.896 173.431, 460.742 173.183 C 458.529 172.928, 457.640 173.484, 456.242 175.994 M 1192.500 177.429 C 1168.374 184.218, 1148.368 200.657, 1138.867 221.500 C 1136.431 226.845, 1136.540 229.665, 1139.313 232.960 C 1142.833 237.143, 1149.431 250.448, 1152.971 260.500 C 1159.346 278.601, 1162.688 297.900, 1163.274 320 C 1163.484 327.893, 1163.656 328.522, 1165.682 328.811 C 1169.630 329.373, 1170.484 325.898, 1170.425 309.500 C 1170.329 282.709, 1163.626 257.133, 1150.823 234.710 L 1145.804 225.920 1149.152 220.210 C 1153.466 212.852, 1167.866 198.458, 1175.239 194.135 C 1178.395 192.284, 1184.907 189.415, 1189.709 187.760 C 1198.056 184.883, 1198.991 184.772, 1210.970 185.243 C 1221.226 185.647, 1224.715 186.202, 1230.197 188.303 C 1246.784 194.661, 1259.742 206.944, 1266.291 222.516 C 1268.089 226.791, 1269.407 228.591, 1270.908 228.820 C 1274.151 229.314, 1274.466 226.592, 1272.021 219.211 C 1266.118 201.394, 1251.223 186.472, 1232.500 179.619 C 1225.417 177.027, 1222.952 176.653, 1211 176.356 C 1201.522 176.121, 1196.010 176.441, 1192.500 177.429 M 457.825 186.210 C 456.088 189.356, 454.706 190.582, 452.358 191.062 C 445.534 192.455, 445.353 192.737, 448.918 196.415 C 451.792 199.381, 452.136 200.326, 451.909 204.633 C 451.626 209.993, 452.058 210.201, 457.553 207.345 C 460.416 205.856, 460.861 205.889, 464.748 207.871 C 467.063 209.052, 469.145 209.574, 469.467 209.053 C 469.784 208.541, 469.746 206.267, 469.384 204 C 468.787 200.269, 469.037 199.557, 472.023 196.476 L 475.322 193.073 472.596 192.036 C 471.096 191.466, 469.257 191, 468.507 191 C 466.964 191, 463.390 186.805, 462.474 183.918 C 461.550 181.007, 460.380 181.584, 457.825 186.210 M 815.396 218.418 C 806.397 221.235, 797.431 229.986, 798.178 235.224 C 798.676 238.711, 801.608 238.492, 806.121 234.628 C 813.797 228.058, 824.646 226.198, 832.661 230.078 C 838.333 232.824, 840.416 232.351, 840.814 228.229 C 841.619 219.895, 827.764 214.547, 815.396 218.418 M 1013.094 244.306 C 1008.569 245.892, 1005.398 250.103, 1006.820 252.639 C 1007.721 254.246, 1009.135 254.500, 1017.182 254.500 C 1024.998 254.500, 1027.225 254.877, 1031 256.837 C 1036.268 259.573, 1041.582 264.376, 1043.596 268.220 C 1044.379 269.717, 1045.971 271.449, 1047.132 272.071 C 1048.871 273.002, 1049.606 272.839, 1051.297 271.147 C 1053.163 269.282, 1053.235 268.742, 1052.085 265.259 C 1047.059 250.028, 1027.208 239.361, 1013.094 244.306 M 160.458 271.248 C 160.193 271.940, 160.093 289.381, 160.238 310.004 L 160.500 347.500 169.500 348.155 C 189.411 349.603, 205.589 353.773, 211.052 358.863 C 214.031 361.640, 216.171 368.479, 225.953 406.500 C 228.217 415.300, 230.497 423.517, 231.018 424.760 L 231.967 427.021 276.233 426.760 L 320.500 426.500 320.500 348.500 L 320.500 270.500 240.721 270.244 C 177.309 270.041, 160.843 270.246, 160.458 271.248 M 1459.764 286.137 C 1439.473 288.922, 1424.086 309.566, 1428.035 328.705 C 1430.557 340.921, 1436.973 349.450, 1447.377 354.416 C 1451.295 356.286, 1455.287 358.068, 1456.250 358.377 C 1458.403 359.066, 1458.516 361.327, 1456.481 363.016 C 1455.458 363.865, 1453.169 364.091, 1449.466 363.709 L 1443.969 363.141 1441.734 367.321 L 1439.500 371.500 1439.237 523.600 L 1438.975 675.700 1444.859 679.332 C 1451.707 683.559, 1460.430 691.858, 1464.987 698.482 C 1476.942 715.857, 1481.436 740.551, 1481.459 789 C 1481.473 819.239, 1480.241 834.326, 1476.959 844.101 C 1475.356 848.878, 1475.257 850.276, 1476.290 853.601 C 1478.279 860.008, 1477.785 919.731, 1475.580 939.500 C 1472.982 962.791, 1472.735 960.549, 1477.858 960.220 C 1482.816 959.901, 1486.601 958.203, 1489.502 954.997 C 1491.488 952.803, 1491.502 951.080, 1491.772 663.645 C 1492.015 403.888, 1491.885 374.080, 1490.486 370.372 C 1488.703 365.648, 1486.621 363.534, 1482.876 362.647 C 1481.433 362.305, 1479.219 361.188, 1477.955 360.165 L 1475.657 358.304 1481.275 355.732 C 1488.720 352.323, 1495.425 345.437, 1499.319 337.201 C 1502.122 331.272, 1502.481 329.521, 1502.440 322 C 1502.399 314.434, 1502.028 312.759, 1499.061 306.752 C 1491.648 291.746, 1476.561 283.832, 1459.764 286.137 M 405.914 290.589 C 405.136 291.518, 403.375 294.344, 402 296.867 C 399.699 301.090, 399.020 301.581, 393.481 303.026 C 390.171 303.890, 386.908 304.939, 386.231 305.357 C 383.785 306.869, 384.968 311.010, 389.137 315.533 L 393.274 320.021 392.633 326.282 C 392.137 331.124, 392.345 333.047, 393.552 334.771 C 395.614 337.715, 397.300 337.586, 403.654 334 L 408.970 331 414.789 334.050 C 419.536 336.538, 421.079 336.921, 423.167 336.126 C 426.682 334.790, 427.237 332.695, 425.891 325.853 L 424.737 319.988 429.369 315.037 C 431.916 312.314, 434 309.461, 434 308.698 C 434 306.267, 430.561 304.081, 424.608 302.729 C 418.964 301.447, 418.753 301.276, 415.664 295.458 C 412.223 288.978, 408.725 287.231, 405.914 290.589 M 775.034 290.459 C 773.141 292.739, 774.714 297.393, 779.036 302.304 C 782.762 306.536, 782.859 306.817, 781.143 308.371 C 778.532 310.734, 776.517 310.393, 772.563 306.921 C 768.735 303.560, 765.652 303.387, 765.233 306.510 C 764.800 309.731, 768.452 314.520, 773.091 316.815 C 777.312 318.903, 777.399 319.048, 777.128 323.462 C 776.881 327.483, 777.135 328.104, 779.462 329.165 C 782.757 330.666, 784.166 329.322, 785.926 323 C 788.855 312.480, 797.027 304.202, 805.418 303.256 C 811.574 302.562, 814.408 303.471, 818.982 307.603 C 824.138 312.260, 827 319.842, 827 328.838 C 827 337.966, 830.040 340.922, 833.693 335.346 C 835.059 333.261, 835.388 330.815, 835.230 323.922 C 834.961 312.210, 832.328 305.054, 826.025 298.897 C 816.267 289.367, 803.477 288.562, 791.668 296.734 C 787.154 299.857, 785.925 299.417, 781.684 293.157 C 778.705 288.760, 777.014 288.074, 775.034 290.459 M 881.329 292.874 C 861.317 300.308, 840.669 330.505, 833.584 362.697 C 831.709 371.215, 831.601 376.021, 833.123 383.201 C 835.963 396.596, 844.191 405.379, 860.576 412.502 C 868.009 415.733, 868.462 416.116, 869.684 420.201 C 870.391 422.565, 870.976 424.613, 870.985 424.750 C 870.993 424.887, 869.945 425, 868.657 425 C 864.955 425, 855.116 421.283, 849.818 417.883 C 845.859 415.343, 844.704 415.001, 843.488 416.010 C 839.827 419.048, 843.089 423.051, 853.500 428.295 C 858.351 430.739, 858.586 431.062, 861.392 439.157 C 866.553 454.045, 869.883 460.034, 876.924 467.091 C 885.722 475.910, 891.920 478.360, 904 477.793 C 910.485 477.488, 913.870 476.764, 918.281 474.738 C 924.841 471.725, 934.517 462.986, 938.959 456.063 C 942.115 451.146, 948.261 433.616, 949.500 426 C 949.903 423.525, 950.668 420.670, 951.202 419.656 C 952.127 417.895, 952.276 417.910, 954.496 419.997 C 957.591 422.903, 960.408 422.289, 960.829 418.616 C 961.100 416.251, 960.235 414.884, 955.886 410.801 C 949.786 405.073, 945.760 402.751, 942.693 403.189 C 939.879 403.592, 939.335 406.608, 941.620 409.133 C 944.103 411.876, 942.854 413.474, 934.540 418.191 C 921.506 425.586, 908.224 428.559, 891.747 427.771 C 884.337 427.416, 881.529 426.884, 880.061 425.555 C 877.946 423.641, 875.816 418.517, 876.748 417.585 C 877.070 417.263, 880.746 416.989, 884.917 416.976 C 894.092 416.946, 899.546 415.774, 906.616 412.312 C 921.134 405.203, 928.950 391.136, 932.046 366.545 C 933.550 354.591, 932.785 332.676, 930.577 324.500 C 926.696 310.126, 918.864 299.527, 908.307 294.362 C 900.807 290.692, 888.962 290.039, 881.329 292.874 M 250.008 298.490 C 249.282 299.366, 247.695 302.222, 246.483 304.838 C 244.314 309.521, 244.180 309.613, 237.890 310.782 C 227.739 312.668, 226.685 315.611, 233.539 322.938 L 238.077 327.790 237.402 334.378 C 236.922 339.067, 237.090 341.404, 237.986 342.483 C 239.847 344.726, 244.921 344.307, 249.820 341.506 L 254.139 339.037 259.036 341.518 C 268.585 346.357, 271.609 344.512, 270.537 334.501 L 269.840 327.989 273.920 323.354 C 278.070 318.639, 279.037 315.105, 276.706 313.171 C 275.994 312.580, 272.738 311.504, 269.471 310.779 C 263.604 309.477, 263.494 309.388, 260.457 303.480 C 257.836 298.381, 256.937 297.456, 254.356 297.199 C 252.502 297.014, 250.818 297.515, 250.008 298.490 M 406 302.737 C 403.773 306.952, 403.034 307.547, 399.235 308.185 C 392.695 309.283, 392.439 309.841, 396.547 314.048 C 400.103 317.690, 400.245 318.092, 399.627 322.756 C 399.270 325.445, 399.264 327.931, 399.613 328.280 C 399.962 328.629, 401.974 328.034, 404.084 326.957 C 408.940 324.480, 411.032 324.497, 415.355 327.047 C 417.263 328.173, 419.050 328.728, 419.327 328.281 C 419.603 327.833, 419.414 325.247, 418.907 322.533 C 418.003 317.695, 418.057 317.526, 421.678 313.818 C 423.709 311.738, 425.118 309.784, 424.809 309.476 C 424.500 309.167, 422.505 308.646, 420.374 308.318 C 415.587 307.582, 414.372 306.649, 411.907 301.817 C 410.836 299.718, 409.631 298.001, 409.230 298.003 C 408.828 298.004, 407.375 300.135, 406 302.737 M 884.268 300.894 C 877.480 303.416, 874.574 305.551, 867.403 313.282 C 853.172 328.623, 841 356.917, 841 374.654 C 841 386.522, 847.561 396.716, 858.913 402.485 C 877.812 412.090, 899.779 410.365, 911.437 398.362 C 925.811 383.562, 929.715 338.132, 918.514 316.027 C 911.596 302.376, 897.292 296.055, 884.268 300.894 M 250.284 310.850 C 247.620 315.136, 246.778 315.766, 243.052 316.266 C 240.732 316.577, 238.564 317.103, 238.232 317.434 C 237.901 317.766, 239.313 319.760, 241.370 321.866 C 244.984 325.568, 245.086 325.868, 244.426 330.848 C 243.812 335.471, 243.935 335.997, 245.621 335.968 C 246.655 335.951, 248.374 335.276, 249.441 334.468 C 251.874 332.628, 255.748 332.641, 259 334.500 C 263.550 337.101, 264.261 336.531, 263.487 330.902 C 262.808 325.968, 262.907 325.680, 266.563 321.936 C 270.659 317.741, 270.602 317.635, 263.500 316.244 C 259.999 315.559, 259.217 314.870, 257.231 310.730 C 255.983 308.129, 254.587 306, 254.130 306 C 253.673 306, 251.942 308.183, 250.284 310.850 M 597.945 318.344 C 587.111 321.552, 577.834 327.305, 579.403 329.843 C 579.719 330.355, 581.552 331.068, 583.475 331.429 C 585.936 331.891, 588.056 333.382, 590.633 336.466 C 593.964 340.450, 594.891 340.948, 600.897 341.969 C 618.964 345.042, 634.099 350.749, 647.866 359.680 C 656.714 365.419, 667 374.465, 667 376.508 C 667 377.177, 668.350 379.424, 670 381.500 C 671.650 383.576, 673 386.248, 673 387.438 C 673 392.116, 677.090 397.413, 679.057 395.283 C 680.154 394.095, 678.331 375.058, 676.680 370.447 C 672.424 358.567, 667.650 352.010, 658.441 345.397 C 655.883 343.560, 655.685 343.084, 656.878 341.647 C 657.630 340.741, 659.315 340, 660.622 340 C 663.949 340, 663.601 338.776, 659.125 334.732 C 650.156 326.629, 639.245 322.534, 629.373 323.566 C 622.209 324.315, 620.194 322.881, 624.037 319.769 C 627.531 316.940, 625.168 316.024, 614.500 316.069 C 608.193 316.096, 603.239 316.777, 597.945 318.344 M 991.882 322.323 C 979.686 326.874, 970.610 337.821, 967.758 351.420 C 966.480 357.511, 967.681 360.343, 971.310 359.798 C 973.523 359.466, 974.092 358.584, 976.484 351.778 C 978.314 346.572, 985.675 337.736, 990.080 335.459 C 999.985 330.337, 1010.774 331.902, 1019.074 339.666 C 1025.566 345.738, 1028 352.215, 1028 363.415 C 1028 369.680, 1028.381 372.071, 1029.530 373.025 C 1031.867 374.964, 1035.665 372.802, 1036.486 369.064 C 1037.136 366.102, 1037.341 366, 1042.612 366 C 1049.272 366, 1054.273 364.039, 1056.577 360.524 C 1058.184 358.071, 1058.190 357.762, 1056.664 356.236 C 1055.268 354.839, 1054.518 354.773, 1051.689 355.796 C 1047.112 357.451, 1040.512 357.322, 1039.040 355.548 C 1036.929 353.004, 1038.351 350.850, 1043.406 348.934 C 1051.568 345.841, 1055.958 340.358, 1052.800 337.200 C 1051.041 335.441, 1049.518 335.709, 1045.405 338.500 C 1040.433 341.874, 1035.664 341.830, 1033.297 338.388 C 1029.154 332.365, 1023.748 327.180, 1018.788 324.472 C 1014.266 322.003, 1012.196 321.540, 1004.500 321.279 C 998.684 321.082, 994.220 321.451, 991.882 322.323 M 1320.958 329.583 C 1313.292 337.463, 1306.733 339.674, 1300.566 336.458 C 1296.707 334.445, 1295.393 335.092, 1294.584 339.402 C 1294.217 341.361, 1291.830 347.135, 1289.281 352.232 C 1285.500 359.795, 1283.069 363.069, 1276.073 370.025 C 1264.555 381.478, 1256.747 385.484, 1245.922 385.493 C 1239.170 385.499, 1237.947 385.197, 1234.697 382.718 L 1231.050 379.936 1225.488 384.467 C 1222.428 386.959, 1218.030 389.953, 1215.713 391.122 C 1213.396 392.290, 1211.288 393.440, 1211.029 393.677 C 1209.814 394.790, 1214.065 395.971, 1219.337 395.985 C 1227.653 396.007, 1248.389 398.665, 1263 401.583 C 1290.753 407.125, 1315.864 415.168, 1336.255 425.046 C 1343.670 428.637, 1344.327 428.655, 1351.301 425.463 C 1365.552 418.938, 1384.158 418.342, 1395.730 424.039 C 1403.294 427.762, 1407.355 432.733, 1409.035 440.324 C 1411.269 450.418, 1405.998 463.669, 1395.599 474.100 L 1390.698 479.017 1393.046 494.758 C 1399.861 540.432, 1392.245 592.535, 1371.766 640.346 C 1366.143 653.474, 1366.124 653.342, 1373.799 654.493 C 1383.278 655.914, 1406.337 662.119, 1416.677 666.031 C 1422.630 668.283, 1428.287 670.375, 1429.250 670.679 C 1430.911 671.205, 1431 663.870, 1431 526.183 L 1431 381.133 1421.250 372.969 C 1402.860 357.571, 1379.460 343.479, 1358.500 335.180 C 1347.484 330.819, 1329.478 325, 1326.998 325 C 1326.128 325, 1323.410 327.062, 1320.958 329.583 M 111.500 356.035 C 95.208 357.481, 80.229 360.814, 78.009 363.489 C 74.915 367.217, 93.684 371.360, 120.989 372.976 C 146.419 374.481, 174.906 373.001, 191.500 369.312 C 209.429 365.327, 207.101 361.885, 183.798 357.923 C 169.734 355.532, 129.127 354.471, 111.500 356.035 M 204.674 373.123 C 201.057 375.226, 189.695 377.910, 177.217 379.610 C 167.984 380.867, 157.789 381.335, 140 381.318 C 112.261 381.291, 95.871 379.607, 81.743 375.331 C 76.927 373.873, 72.812 372.865, 72.598 373.090 C 72.189 373.523, 61.023 411.911, 52.992 440.500 C 41.429 481.660, 37.995 494.685, 37.998 497.382 C 38.009 511.498, 91.156 522.440, 151 520.647 C 196.898 519.272, 235.027 510.702, 239.824 500.684 C 241.006 498.215, 240.873 496.619, 238.733 487.684 C 233.266 464.860, 209.343 374.364, 208.353 372.762 C 207.731 371.756, 206.881 371.839, 204.674 373.123 M 1164.512 389.167 C 1164.244 389.900, 1163.906 391.625, 1163.762 393 C 1163.505 395.452, 1163.647 395.506, 1171.250 395.792 C 1175.513 395.953, 1178.977 395.728, 1178.950 395.292 C 1178.911 394.674, 1171.727 390.794, 1165.758 388.167 C 1165.342 387.984, 1164.781 388.434, 1164.512 389.167 M 648.939 391.061 C 647.636 392.364, 646.993 394.110, 647.189 395.811 C 647.518 398.656, 647.993 398.756, 654.792 397.412 C 656.916 396.992, 659.678 397.369, 662.574 398.475 C 667.589 400.390, 670 399.978, 670 397.206 C 670 390.740, 653.944 386.056, 648.939 391.061 M 1177.789 404.219 C 1170.248 404.659, 1163.022 405.421, 1161.732 405.912 C 1160.070 406.544, 1157.886 409.889, 1154.241 417.386 C 1145.648 435.061, 1135.089 448.856, 1121.429 460.256 C 1117.343 463.666, 1114 466.798, 1114 467.217 C 1114 467.637, 1117.037 471.606, 1120.750 476.038 C 1129.427 486.396, 1139.053 501.701, 1148.529 520.206 L 1156.060 534.911 1164.280 526.695 C 1180.988 509.994, 1203.488 498.887, 1225.540 496.455 C 1230.431 495.916, 1231.834 496.095, 1232.913 497.395 C 1234.505 499.313, 1232.845 502, 1230.068 502 C 1225.761 502, 1210.500 506.674, 1201 510.902 C 1188.146 516.623, 1176.626 524.287, 1168.573 532.474 C 1159.888 541.304, 1159.165 542.951, 1161.407 548.802 C 1171.881 576.143, 1180.311 606.081, 1184.514 630.868 C 1185.879 638.915, 1186.997 647.118, 1186.998 649.095 C 1187 653.013, 1188.407 654.706, 1194 657.520 C 1200.909 660.996, 1221.823 674.503, 1239.295 686.773 C 1249.082 693.647, 1261.907 702.169, 1267.795 705.711 C 1278.206 711.975, 1278.642 712.134, 1283.659 711.515 C 1288.150 710.961, 1289.603 711.276, 1294.898 713.949 C 1302.505 717.788, 1311.575 719.968, 1320 719.980 C 1328.629 719.992, 1333.448 718.533, 1337.723 714.615 C 1340.633 711.948, 1341.341 710.502, 1341.733 706.431 C 1342.316 700.362, 1340.802 694.401, 1337.535 689.901 C 1336.177 688.030, 1334.323 685.485, 1333.415 684.245 C 1331.388 681.477, 1332.766 679.278, 1336.823 678.809 C 1338.795 678.582, 1340.845 676.707, 1344.603 671.695 C 1358.875 652.663, 1371.136 624.084, 1379.008 591.500 C 1385.364 565.190, 1386.466 555.816, 1386.473 528 C 1386.480 502.839, 1385.452 493.329, 1381.357 480.690 C 1379.909 476.219, 1379.923 475.742, 1381.555 473.940 C 1382.520 472.873, 1384.105 472, 1385.077 472 C 1387.489 472, 1394.396 463.777, 1398.020 456.590 C 1403.729 445.268, 1401.520 436.577, 1391.659 431.561 C 1386.529 428.952, 1384.763 428.588, 1377.159 428.571 C 1367.010 428.550, 1357.174 431.200, 1346.862 436.736 C 1339.707 440.577, 1337 440.551, 1337 436.640 C 1337 434.489, 1335.628 433.639, 1324.778 429.069 C 1280.827 410.557, 1226.496 401.371, 1177.789 404.219 M 412 412.875 C 396.016 418.011, 383.121 434.077, 382.696 449.387 C 382.391 460.376, 386.479 460.988, 388.808 450.302 C 391.508 437.915, 398.994 428.098, 409.794 422.781 C 415.832 419.808, 417.305 419.500, 425.479 419.500 C 433.174 419.500, 435.341 419.894, 440.218 422.180 C 445.895 424.841, 454.417 431.969, 458.091 437.128 C 459.982 439.783, 459.981 439.879, 458.004 444.491 C 450.707 461.515, 449.891 485.247, 456.104 499.742 C 458.043 504.266, 460.409 505.991, 462.207 504.193 C 462.971 503.429, 462.768 500.682, 461.504 494.656 C 458.878 482.141, 459.731 463.406, 463.425 452.500 C 464.915 448.100, 466.554 444.072, 467.067 443.550 C 470.921 439.625, 461.327 425.269, 449.986 417.991 C 439.363 411.174, 423.811 409.080, 412 412.875 M 545.732 419.077 C 538.908 422.679, 532.138 435.052, 535.063 438.576 C 537.219 441.174, 539.880 440.223, 541.534 436.264 C 544.234 429.802, 550.101 425, 555.295 425 C 556.612 425, 558.505 424.100, 559.500 423 C 561.247 421.070, 561.247 420.930, 559.500 419 C 557.129 416.380, 550.775 416.415, 545.732 419.077 M 666.893 426.497 C 662.847 428.696, 660.792 432.726, 660.246 439.530 C 659.757 445.615, 659.831 445.845, 663.945 451.050 C 666.255 453.971, 669.025 458.089, 670.102 460.200 C 671.962 463.845, 671.971 464.072, 670.280 464.675 C 666.248 466.114, 666.092 466.882, 668.590 473.028 C 671.730 480.756, 671.723 483.775, 668.561 484.977 C 665.452 486.159, 664.405 488.204, 663.508 494.846 C 662.865 499.609, 662.444 500.334, 659.643 501.499 C 653.876 503.899, 652.754 503.755, 651.862 500.501 C 649.864 493.215, 641.237 493.051, 638.683 500.250 C 636.916 505.233, 630.970 497.673, 626.908 485.279 C 624.272 477.238, 623.684 473.811, 623.601 466 C 623.483 454.882, 625.309 449.990, 631 446.187 C 634.556 443.811, 637.924 443.661, 645.356 445.548 C 648.417 446.326, 649.956 445.046, 649.985 441.699 C 650.006 439.218, 644.277 437, 637.848 437 C 628.179 437, 621.015 442.281, 617.405 452.069 C 615.002 458.584, 615.216 472.556, 617.870 482.410 C 623.619 503.757, 630.484 510.853, 646.304 511.797 L 654.107 512.263 653.804 515.375 C 653.434 519.161, 650.658 520.701, 641.448 522.227 C 636.874 522.985, 633.126 522.985, 628.552 522.227 C 619.739 520.767, 616.543 519.112, 616.519 515.996 C 616.503 513.903, 616.023 513.500, 613.551 513.500 C 608.393 513.500, 601.292 525.208, 605.044 527.527 C 605.618 527.882, 606.738 527.633, 607.532 526.973 C 609.175 525.610, 608.916 525.072, 611.483 535.169 C 614.914 548.666, 624.638 559.173, 635.010 560.590 C 648.911 562.489, 659.233 551.617, 663.698 530.374 C 665.226 523.106, 665.731 522.142, 670.270 517.853 C 673.442 514.856, 675.061 512.553, 674.832 511.365 C 674.230 508.241, 671.121 508.658, 666.958 512.419 C 661.803 517.076, 659.520 517.191, 660.377 512.750 C 660.721 510.962, 661.727 509.050, 662.612 508.500 C 672.292 502.483, 677.437 495.929, 678.611 488.120 C 679.235 483.969, 678.238 476.186, 676.532 471.889 C 676.023 470.607, 676.738 470.164, 680.024 469.724 C 684.967 469.061, 687.651 466.874, 690.119 461.500 C 692.497 456.322, 692.468 451.725, 690.007 443.758 C 685.669 429.713, 675.268 421.945, 666.893 426.497 M 670.655 434.829 C 669.745 435.835, 669 437.880, 669 439.374 C 669 442.300, 672.933 447, 675.382 447 C 677.233 447, 681 442.306, 681 440 C 681 437.268, 677.087 433, 674.582 433 C 673.333 433, 671.565 433.823, 670.655 434.829 M 917.233 445.607 C 914.887 446.471, 910.472 449.457, 907.424 452.244 C 902.309 456.918, 901.755 457.184, 900.257 455.686 C 898.759 454.188, 898.771 453.910, 900.415 452.094 C 902.967 449.274, 901.529 447.678, 897.170 448.496 C 895.190 448.867, 892.383 449.785, 890.933 450.535 C 886.920 452.610, 881.840 458.876, 882.193 461.315 C 882.905 466.227, 896.511 471.692, 905.408 470.638 C 912.704 469.774, 922.124 464.801, 927.050 459.213 C 931.997 453.602, 935.518 447.118, 934.287 445.887 C 932.554 444.154, 921.668 443.975, 917.233 445.607 M 564.962 460.250 C 559.344 463.083, 554.548 470.044, 552.967 477.659 C 551.450 484.965, 552.576 489.383, 556.058 489.795 C 557.937 490.017, 559.088 491.252, 560.720 494.795 C 561.912 497.383, 564.956 501.525, 567.486 504 C 572.022 508.439, 572.178 508.500, 578.866 508.500 C 584.631 508.500, 586.285 508.077, 589.911 505.677 C 598.822 499.780, 601.136 485.813, 595.200 473.755 C 588.402 459.945, 576.292 454.537, 564.962 460.250 M 242.574 465.880 C 242.268 466.375, 243.606 473.596, 245.548 481.925 C 249.561 499.145, 249.449 502.276, 244.617 507.793 C 238.106 515.227, 216.520 522.374, 191 525.545 C 187.975 525.921, 185.148 526.437, 184.719 526.693 C 184.289 526.948, 186.103 529.709, 188.750 532.828 C 197.601 543.259, 203.812 553.246, 206.806 561.862 C 207.771 564.639, 208.367 565.131, 210.237 564.691 C 211.482 564.398, 216.008 563.607, 220.295 562.935 L 228.089 561.711 233.463 550.606 C 242.389 532.155, 247.641 527, 257.510 527 C 266.555 527, 271.856 532.174, 280.654 549.592 L 286.355 560.879 292.928 561.512 C 310.275 563.185, 319.056 566.021, 323.874 571.509 C 331.522 580.220, 327.615 591.963, 312.127 606.812 C 306.394 612.308, 304.586 614.666, 304.848 616.312 C 305.406 619.825, 306.667 620.674, 313.255 621.970 C 319.739 623.246, 323.547 624.870, 328.342 628.405 C 331.954 631.068, 351.768 657.210, 353.759 661.939 C 356.058 667.401, 356.835 676.535, 355.884 686.913 C 354.520 701.784, 350.465 708.049, 339.440 712.319 C 333.876 714.474, 333.473 714.854, 332.815 718.557 C 331.861 723.932, 331.811 771, 332.759 771 C 333.177 771, 334.324 767.416, 335.308 763.036 C 340.147 741.508, 351.677 730.007, 368.432 729.997 L 373.500 729.994 376.500 724.247 C 378.150 721.086, 379.950 718.622, 380.500 718.771 C 382.837 719.403, 379.736 735.288, 376.929 737.065 C 376.143 737.562, 372.575 737.986, 369 738.007 C 353.941 738.093, 346.922 746.511, 341.908 770.500 C 337.562 791.290, 340.906 816.500, 348.009 816.500 C 350.161 816.500, 350.776 815.685, 352.528 810.500 C 354.089 805.880, 355.009 804.500, 356.528 804.500 C 360.572 804.500, 359.549 814.166, 354.951 819.403 C 353.328 821.252, 352 823.031, 352 823.356 C 352 824.546, 357.982 827, 360.882 827 C 363.032 827, 364.441 826.190, 365.932 824.096 C 367.069 822.498, 368 820.523, 368 819.706 C 368 818.890, 368.848 817.174, 369.885 815.893 C 371.552 813.836, 371.970 813.730, 373.487 814.989 C 374.861 816.129, 375.076 817.369, 374.567 821.207 C 374.217 823.843, 374.308 826, 374.769 826 C 375.230 826, 377.003 824.538, 378.708 822.750 C 381.907 819.397, 384.265 813.585, 385.363 806.347 C 385.963 802.386, 385.827 802.096, 382.425 800.088 C 380.083 798.706, 378.978 797.384, 379.209 796.241 C 379.515 794.725, 380.609 794.542, 387.661 794.824 C 403.571 795.460, 420.377 790.891, 434 782.225 C 440.170 778.300, 453 765.751, 453 763.641 C 453 762.865, 450.281 761.283, 446.750 760.004 C 425.939 752.466, 409.508 740.133, 399.612 724.623 C 395.420 718.053, 391.544 709.754, 390.547 705.213 C 389.728 701.486, 387.477 699.430, 383.226 698.527 C 376.919 697.186, 371.198 690.256, 369.631 682.060 C 368.835 677.892, 370.742 667.459, 372.579 665.935 C 373.568 665.114, 374.501 665.285, 376.252 666.606 C 378.356 668.192, 378.556 668.992, 378.173 674.287 C 377.685 681.025, 379.305 687.005, 382.399 689.890 C 386.493 693.709, 386.942 693.089, 387.388 683 C 387.619 677.775, 388.526 670.435, 389.404 666.688 C 390.282 662.941, 391 659.709, 391 659.504 C 391 659.300, 389.762 658.977, 388.250 658.787 L 385.500 658.442 389.124 656.197 C 391.505 654.721, 393.875 651.818, 396.038 647.726 C 404.473 631.766, 414.928 619.894, 432.321 606.527 C 438.469 601.801, 447.260 594.912, 451.856 591.217 C 461.284 583.639, 476 568.573, 476 566.501 C 476 565.749, 473.971 563.472, 471.492 561.440 C 469.012 559.408, 465.345 555.513, 463.342 552.785 C 459.376 547.382, 459.386 547.384, 451 550.518 C 445.464 552.587, 435.204 552.084, 429.825 549.480 C 426.381 547.813, 425.931 547.805, 422.674 549.351 C 420.552 550.357, 416.666 551, 412.700 551 C 407.393 551, 405.132 550.439, 400.352 547.938 C 394.033 544.632, 387.091 538.450, 383.858 533.250 C 382.018 530.291, 381.393 530, 376.869 530 C 370.826 530, 367.759 528.483, 362.377 522.830 C 354.469 514.524, 350.325 504.483, 349.189 490.868 C 348.508 482.724, 348.462 482.613, 345.445 481.833 C 341.193 480.735, 338.271 477.272, 336.236 470.921 L 334.500 465.500 288.815 465.240 C 262.495 465.090, 242.895 465.362, 242.574 465.880 M 573 466.294 C 567.702 468.974, 566.705 477.472, 571.337 480.466 C 575.358 483.066, 578.408 483.253, 581.181 481.072 C 586.227 477.103, 585.554 469.372, 579.909 466.453 C 576.514 464.697, 576.172 464.690, 573 466.294 M 1353.177 497.287 C 1352.551 498.042, 1351.322 503.798, 1350.447 510.080 C 1347.591 530.589, 1339.685 562.027, 1331.026 587.314 C 1325.294 604.051, 1321.212 614.417, 1310.475 639.500 C 1298.305 667.933, 1296.493 675.651, 1302.184 674.820 C 1303.963 674.560, 1304.970 672.802, 1307.525 665.500 C 1309.256 660.550, 1314.068 649.075, 1318.218 640 C 1332.803 608.104, 1344.950 571.944, 1352.457 538.076 C 1358.205 512.145, 1359.463 496.889, 1355.908 496.216 C 1355.032 496.050, 1353.803 496.532, 1353.177 497.287 M 642.459 502.067 C 642.096 502.653, 642.050 503.384, 642.357 503.690 C 643.179 504.513, 646 503.229, 646 502.031 C 646 500.674, 643.303 500.701, 642.459 502.067 M 98.789 534.972 C 83.029 552.170, 75.606 569.591, 75.555 589.500 C 75.503 610.057, 84.790 628.362, 98.433 634.592 C 119.168 644.060, 160.218 643.920, 179.325 634.316 C 186.451 630.734, 193.264 623.070, 196.377 615.135 C 197.820 611.459, 199 608.078, 199 607.622 C 199 607.167, 196.939 604.501, 194.419 601.699 C 188.316 594.911, 185.659 589.534, 185.635 583.922 C 185.604 576.794, 188.496 572.789, 197.525 567.457 C 199.057 566.552, 199.139 565.950, 198.141 562.928 C 196.098 556.737, 188.328 544.703, 181.121 536.566 L 174.093 528.632 139.406 528.566 L 104.719 528.500 98.789 534.972 M 252.867 535.511 C 248.698 537.776, 240.913 550.511, 236.492 562.297 C 235.502 564.936, 233.799 567.572, 232.707 568.157 C 231.616 568.741, 225.947 569.822, 220.111 570.558 C 201.662 572.887, 194.647 576.032, 193.430 582.522 C 192.321 588.431, 198.264 596.138, 213.846 609 L 218.086 612.500 215.567 622.281 C 211.961 636.291, 211.424 643.632, 213.690 647.949 C 217.262 654.754, 223.201 654.023, 243.203 644.314 L 256.905 637.662 267.703 642.722 C 290.516 653.413, 298.671 653.602, 300.569 643.482 C 301.291 639.634, 299.864 628.683, 297.268 618.140 L 295.702 611.781 304.840 602.942 C 322.048 586.298, 324.145 578.717, 313.117 573.018 C 309.999 571.407, 296.846 569.083, 290.500 569.021 C 281.512 568.934, 281.528 568.948, 274.483 554.502 C 265.562 536.210, 260.220 531.516, 252.867 535.511 M 621.750 539.080 C 620.175 539.997, 620.144 540.377, 621.435 542.875 C 623.678 547.212, 630.503 552.816, 634.440 553.555 C 636.398 553.922, 639.562 553.930, 641.471 553.572 C 644.999 552.910, 651 548.652, 651 546.811 C 651 545.184, 644.350 539, 642.600 539 C 641.683 539, 641 539.828, 641 540.941 C 641 544.239, 639.133 544.277, 634.301 541.076 C 629.541 537.923, 624.981 537.198, 621.750 539.080 M 547.564 579.123 C 545.400 579.631, 542.095 581.215, 540.222 582.645 C 537.335 584.847, 537.024 585.453, 538.187 586.615 C 539.236 587.664, 540.373 587.753, 543.023 586.994 C 550.757 584.775, 565.369 586.534, 577 591.083 C 589.176 595.845, 590.636 595.559, 586.102 589.300 C 582.782 584.716, 576.699 581.751, 565.999 579.500 C 558.098 577.838, 553.454 577.743, 547.564 579.123 M 270.893 585.497 C 269.460 586.276, 267.547 588.042, 266.643 589.422 C 262.875 595.172, 266.418 598.178, 271.022 593.137 C 274.778 589.025, 278.095 589.028, 281.319 593.149 C 284.102 596.705, 287.014 596.516, 286.978 592.781 C 286.913 586.125, 277.544 581.882, 270.893 585.497 M 232.615 587.088 C 229.552 589.497, 226.639 594.607, 227.518 596.029 C 228.674 597.899, 231.163 596.969, 234.515 593.416 C 238.379 589.319, 241.010 589.415, 244.590 593.785 C 245.959 595.456, 247.253 596.117, 248.340 595.700 C 250.893 594.720, 250.315 591.161, 247.077 587.923 C 243.372 584.218, 236.750 583.836, 232.615 587.088 M 793 603.069 C 787.225 604.071, 777.963 604.916, 772.417 604.946 L 762.335 605 759.115 609.006 C 757.344 611.210, 754.007 613.981, 751.698 615.164 C 746.629 617.763, 735.546 618.712, 728.334 617.165 C 721.747 615.752, 717.237 617.148, 712.405 622.097 L 708.699 625.893 711.849 629.481 C 714.465 632.460, 715 633.900, 715 637.958 C 715 643.712, 712.088 647.894, 705.874 651.064 C 702.423 652.825, 702 653.447, 701.996 656.770 C 701.991 662.057, 698.994 666.334, 693.348 669.113 C 689.140 671.185, 687.179 671.483, 678.500 671.369 C 671.767 671.281, 666.274 670.584, 661.687 669.236 C 655.470 667.409, 654.464 667.359, 650.187 668.663 C 640.692 671.558, 625.798 673.158, 611.285 672.840 C 602.812 672.655, 596.702 672.928, 596.158 673.515 C 595.656 674.057, 594.453 676.975, 593.484 680 C 589.807 691.478, 581.305 705.563, 573.597 712.946 C 571.619 714.842, 570 716.964, 570 717.662 C 570 720.362, 573.437 726, 575.083 726 C 576.025 726, 583.479 724.901, 591.648 723.558 C 611.518 720.292, 624.402 718.593, 656.465 715.011 C 671.295 713.354, 684.183 711.759, 685.103 711.467 C 686.023 711.175, 688.023 709.038, 689.548 706.718 C 694.164 699.690, 721.800 672.912, 733.265 664.357 C 746.426 654.536, 762.309 645.341, 777.247 638.893 C 783.428 636.226, 788.658 633.471, 788.868 632.771 C 789.676 630.087, 796.935 616.142, 800.875 609.704 C 804.891 603.144, 805.784 600.872, 804.250 601.123 C 803.837 601.190, 798.775 602.066, 793 603.069 M 267.487 608.606 C 261.716 616.172, 252.982 616.441, 247.043 609.237 C 244.552 606.214, 243.668 605.719, 242.300 606.582 C 239.755 608.188, 239.744 609.319, 242.235 613.068 C 246.634 619.687, 256.887 622.745, 264.298 619.649 C 268.106 618.058, 274 611.689, 274 609.165 C 274 607.409, 272.218 605, 270.919 605 C 270.544 605, 269 606.623, 267.487 608.606 M 204.695 616.513 C 203.212 619.623, 203.188 620.135, 204.501 620.639 C 207.381 621.744, 209.145 620.188, 208.814 616.834 C 208.379 612.429, 206.705 612.299, 204.695 616.513 M 1068.500 632.022 C 1045.165 645.972, 1015.495 656.044, 981.500 661.555 C 975.173 662.581, 962.501 663.356, 947 663.665 L 922.500 664.154 914.175 667.671 C 898.234 674.403, 877.419 676.823, 864.465 673.449 C 853.186 670.511, 848.533 666.062, 848.512 658.193 C 848.498 652.816, 847.635 651, 845.091 651 C 842.829 651, 835.560 645.784, 833.552 642.720 C 832.716 641.444, 831.843 638.398, 831.612 635.950 L 831.192 631.500 827.472 631.809 C 825.426 631.979, 818.295 633.686, 811.626 635.603 C 778.552 645.109, 751.646 659.477, 726.500 681.060 C 716.557 689.595, 700 706.518, 700 708.147 C 700 709.576, 701.899 709.213, 727.013 702.976 C 778.112 690.288, 789.395 688.859, 841.500 688.485 C 862.950 688.331, 891.075 687.662, 904 686.999 C 962.388 684.002, 1014.174 689.967, 1060.442 705.020 C 1102.439 718.683, 1135.713 737.383, 1178.091 771.139 C 1195.350 784.886, 1218.312 802.010, 1237.575 815.500 C 1261.226 832.063, 1271.708 841.839, 1281.872 856.815 C 1293.776 874.355, 1301.741 898.567, 1305.617 929 C 1307.500 943.784, 1308.004 971.237, 1306.652 985.351 L 1305.804 994.202 1308.852 993.533 C 1313.075 992.605, 1331.508 984.350, 1343.403 978.060 C 1381.970 957.666, 1400.414 939.560, 1405.093 917.500 C 1406.670 910.068, 1406.645 881.506, 1405.051 867 C 1402.366 842.587, 1395.392 816.718, 1386.957 799.888 C 1371.564 769.175, 1348.510 750.358, 1305 732.993 C 1275.664 721.285, 1262.827 713.939, 1223 686.065 C 1188.628 662.009, 1149.826 643.201, 1114.724 633.581 C 1101.737 630.021, 1083.358 625.985, 1080.308 626.022 C 1079.313 626.034, 1074 628.734, 1068.500 632.022 M 49.951 630.434 C 44.078 632.056, 40.911 634.181, 36.699 639.328 C 31.235 646.004, 21 662.060, 21 663.954 C 21 666.637, 24.100 668.828, 29.541 669.991 C 36.295 671.435, 336.260 670.888, 340.423 669.425 C 347.544 666.922, 346.096 662.712, 332.113 645.253 C 323.229 634.161, 318.314 630.477, 311.500 629.799 L 308.500 629.500 308.456 638 C 308.388 651.116, 304.619 656.846, 295.053 658.376 C 289.558 659.254, 277.155 655.805, 266.390 650.406 L 257.281 645.837 247.390 650.852 C 236.020 656.618, 226.244 660.010, 221.085 659.978 C 215.694 659.945, 209.423 656.689, 207.316 652.829 C 205.866 650.171, 205.525 647.433, 205.624 639.250 L 205.748 629 201.750 629 C 198.290 629, 197.241 629.581, 193.947 633.323 C 186.572 641.702, 172.900 646.773, 151.500 649.067 C 123.262 652.095, 95.160 645.838, 83.410 633.908 L 78.575 629 66.538 629.089 C 59.917 629.139, 52.453 629.744, 49.951 630.434 M 1355.540 670.750 C 1351.936 676.112, 1348.049 681.675, 1346.902 683.111 L 1344.817 685.722 1346.814 689.635 C 1351.651 699.117, 1351.725 709.106, 1347.014 716.771 C 1343.182 723.007, 1332.259 728, 1322.451 728 C 1320.553 728, 1319 728.363, 1319 728.807 C 1319 729.251, 1322.144 731.012, 1325.987 732.719 C 1337.264 737.730, 1353.571 747.928, 1363.379 756.103 C 1392.735 780.573, 1408.943 817.807, 1413.965 872.314 C 1414.513 878.262, 1415.217 883.541, 1415.528 884.046 C 1416.983 886.400, 1449.881 864.881, 1459.717 855.143 C 1472.072 842.910, 1473.429 835.324, 1472.748 782.317 C 1472.357 751.860, 1472.028 746.076, 1470.117 736.130 C 1465.921 714.290, 1457.882 699.384, 1445.189 689.905 C 1433.206 680.957, 1413.483 672.588, 1391.284 667.031 C 1383.526 665.089, 1364.321 661.030, 1362.797 661.009 C 1362.410 661.004, 1359.145 665.388, 1355.540 670.750 M 18.389 675.430 C 18.039 676.340, 17.953 680.778, 18.197 685.292 C 18.926 698.809, 22.378 703.561, 33.587 706.481 C 38.673 707.805, 57.427 707.997, 179.960 707.980 C 267.911 707.968, 323.079 707.588, 327.392 706.964 C 341.766 704.886, 345.838 701.033, 348.007 687.454 C 348.988 681.317, 348.641 675, 347.324 675 C 347.040 675, 344.264 675.788, 341.154 676.750 C 335.874 678.384, 325.441 678.500, 183.500 678.500 C 26.543 678.500, 25.091 678.466, 20.262 674.732 C 19.410 674.073, 18.826 674.290, 18.389 675.430 M 31.743 751.500 C 31.429 771.300, 31.355 796.950, 31.578 808.500 C 31.802 820.050, 31.988 842.233, 31.992 857.795 L 32 886.091 34.455 888.545 C 36.841 890.932, 37.321 891, 51.844 891 C 70.965 891, 70.979 890.992, 72.078 878.420 C 72.507 873.514, 72.890 865.182, 72.929 859.905 C 72.988 851.938, 73.310 850.029, 74.829 848.655 C 76.488 847.153, 82.295 847, 137.591 847 L 198.524 847 207.279 838.002 C 212.094 833.053, 217.827 827.872, 220.017 826.489 C 222.208 825.106, 224 823.545, 224 823.019 C 224 822.422, 196.642 821.957, 151.176 821.781 L 78.352 821.500 74.332 818.839 C 66.862 813.894, 66.897 814.137, 67.217 769.601 C 67.492 731.279, 67.561 730.063, 69.605 727.322 C 70.762 725.770, 73.237 723.600, 75.105 722.500 C 78.429 720.542, 80.550 720.494, 176.500 720.231 L 274.500 719.962 278.977 722.231 C 287.212 726.404, 287.453 727.413, 287.821 759.250 C 287.997 774.513, 288.503 787, 288.945 787 C 289.387 787, 291.718 786.303, 294.124 785.450 C 296.531 784.598, 302.507 782.772, 307.405 781.392 C 312.303 780.011, 318.047 777.996, 320.170 776.913 L 324.030 774.944 323.765 745.474 L 323.500 716.003 177.907 715.752 L 32.315 715.500 31.743 751.500 M 80 728.741 C 77.625 729.934, 76.149 731.587, 75.408 733.880 C 74.710 736.038, 74.294 749.655, 74.256 771.573 C 74.205 801.560, 74.405 806.300, 75.849 809.165 C 76.788 811.030, 78.577 812.735, 80 813.122 C 81.375 813.495, 117.037 813.845, 159.250 813.900 C 205.982 813.961, 236 814.365, 236 814.933 C 236 815.446, 235.100 816.151, 234 816.500 C 231.658 817.243, 231.462 818.308, 233.374 819.895 C 235.704 821.829, 250.125 811.271, 252.102 806.182 C 252.755 804.501, 256.711 802.081, 266.501 797.373 L 280 790.882 280 761.997 L 280 733.112 277.587 730.306 L 275.174 727.500 179.337 727.241 C 89.563 726.998, 83.279 727.093, 80 728.741 M 846.500 732.891 C 837.229 735.305, 829.434 742.818, 826.930 751.754 C 826.240 754.215, 825.941 759.183, 826.221 763.535 C 827.028 776.118, 835.442 790.738, 851.751 807.899 C 858.449 814.947, 858.951 815.270, 862.355 814.717 C 868.072 813.789, 885.574 806.389, 894.233 801.239 C 904.831 794.935, 912.946 786.886, 916.993 778.666 C 919.949 772.661, 920.187 771.465, 919.859 764.280 C 919.541 757.334, 919.137 755.951, 916.308 752.103 C 908.077 740.912, 894.396 738.020, 881.221 744.685 C 876.336 747.157, 875.726 747.261, 874.887 745.763 C 869.722 736.532, 856.150 730.378, 846.500 732.891 M 845.684 741.449 C 840.759 743.205, 838.522 745.289, 836.025 750.448 C 830.034 762.824, 836.596 780.110, 854.828 799.980 L 861.691 807.460 871.096 803.720 C 888.953 796.618, 903.298 786.726, 908.912 777.643 C 913.876 769.610, 913.452 760.125, 907.872 754.368 C 900.339 746.595, 887.622 747.401, 878.316 756.240 C 876.565 757.904, 874.501 759.022, 873.729 758.726 C 872.958 758.430, 871.093 755.667, 869.586 752.586 C 866.689 746.665, 862.709 743.016, 857.101 741.138 C 852.778 739.691, 850.434 739.755, 845.684 741.449 M 171.609 750.181 C 166.297 751.661, 158.516 759.344, 157.105 764.500 C 154.926 772.466, 156.409 779.233, 161.590 784.968 C 166.784 790.717, 170.862 792.276, 179.556 791.837 C 185.748 791.524, 187.537 791.002, 191.187 788.439 C 207.883 776.717, 200.681 751.230, 180.182 749.493 C 177.607 749.275, 173.749 749.584, 171.609 750.181 M 172.383 757.865 C 164.753 761.420, 161.633 769.122, 164.865 776.427 C 167.251 781.821, 170.651 784.179, 176.807 784.708 C 192.181 786.028, 198.461 768.153, 185.915 758.786 C 182.170 755.990, 177.142 755.648, 172.383 757.865 M 1055.297 795.115 C 1046.921 796.639, 1040.937 801.313, 1037.055 809.364 C 1031.669 820.532, 1032.076 830.571, 1038.439 843.528 C 1043.183 853.190, 1049.916 861.741, 1061.939 873.372 C 1072.002 883.107, 1072.199 883.237, 1076.168 882.704 C 1081.519 881.987, 1102.658 871.465, 1111.832 864.953 C 1128.963 852.792, 1137.649 835.622, 1133.641 821.838 C 1131.461 814.337, 1127.349 809.055, 1120.923 805.500 C 1111.421 800.244, 1096.869 801.654, 1088.940 808.599 C 1087.584 809.787, 1086.754 809.302, 1082.577 804.875 C 1075.073 796.925, 1065.053 793.340, 1055.297 795.115 M 1054 803.533 C 1045.085 807.538, 1040.141 816.969, 1041.453 827.468 C 1042.216 833.577, 1046.510 843.161, 1051.733 850.414 C 1056.625 857.206, 1074.015 875, 1075.761 875 C 1077.615 875, 1095.880 865.778, 1102.827 861.334 C 1109.982 856.757, 1119.568 847.598, 1122.538 842.500 C 1128.428 832.389, 1127.915 822.238, 1121.183 815.697 C 1116.715 811.357, 1113.351 809.993, 1107.185 810.022 C 1101.064 810.051, 1095.138 812.825, 1090.092 818.025 C 1087.577 820.617, 1085.451 822.003, 1084.534 821.651 C 1083.717 821.338, 1082.075 819.010, 1080.885 816.478 C 1075.574 805.180, 1063.392 799.314, 1054 803.533 M 683.365 812.089 C 677.553 813.773, 670.649 819.272, 667.300 824.883 C 657.420 841.437, 662.197 860.289, 681.460 880.756 C 691.358 891.273, 709.339 904.963, 713.283 904.985 C 716.786 905.004, 723.019 901.847, 734.500 894.239 C 755.570 880.278, 767.306 866.295, 771.453 850.212 C 774.150 839.752, 771.131 828.292, 763.838 821.301 C 753.129 811.038, 735.451 810.927, 722.809 821.046 C 720.778 822.671, 718.820 824, 718.456 824 C 718.092 824, 715.568 821.999, 712.849 819.554 C 704.694 812.222, 693.065 809.278, 683.365 812.089 M 682.183 821.547 C 669.664 827.902, 666.782 843.218, 675.128 859.033 C 680.813 869.806, 694.364 883.809, 708.582 893.601 L 713.767 897.172 717.133 895.451 C 725.970 890.934, 741.305 879.738, 748.648 872.442 C 760.861 860.309, 766.527 847.528, 763.989 837.842 C 761.220 827.277, 754.082 821.607, 743.500 821.568 C 735.618 821.539, 727.987 825.518, 723.013 832.250 C 721.083 834.862, 718.749 837, 717.827 837 C 716.898 837, 714.443 834.445, 712.325 831.276 C 704.801 820.017, 692.817 816.148, 682.183 821.547 M 264.667 855.667 C 260.911 859.422, 271.562 869.638, 295.500 885.243 C 374.575 936.792, 509.783 972.711, 669 984.465 C 680.275 985.297, 692.650 986.219, 696.500 986.515 C 738.486 989.733, 839.530 991.712, 880 990.107 C 984.379 985.969, 1046.444 978.211, 1112.500 961.048 C 1162.757 947.989, 1214.905 924.540, 1238.804 904.255 C 1243.068 900.636, 1244.049 899.238, 1243.804 897.135 C 1243.308 892.863, 1240.548 893.485, 1231.766 899.847 C 1191.135 929.278, 1124.148 953.230, 1045.500 966.447 C 923.092 987.018, 736.051 987.020, 582 966.453 C 484.225 953.399, 397.331 929.225, 333.783 897.399 C 311.653 886.316, 290.313 873.076, 276.224 861.689 C 268.327 855.305, 266.158 854.175, 264.667 855.667 M 504.332 862.866 C 501.490 863.840, 497.566 865.856, 495.612 867.346 L 492.060 870.056 488.012 867.123 C 477.989 859.863, 465.303 861.196, 457.261 870.355 C 453.096 875.099, 451.637 880.058, 452.289 887.251 C 453.313 898.539, 460.900 909.748, 474.500 920.061 C 481.790 925.590, 491.092 931, 493.307 931 C 496.519 931, 508.963 922.028, 517.542 913.526 C 530.063 901.116, 534.879 888.920, 531.640 877.817 C 527.912 865.032, 516.402 858.730, 504.332 862.866 M 504.456 870.350 C 502.782 871.109, 499.306 874.153, 496.731 877.115 L 492.049 882.500 488.057 877.880 C 481.538 870.333, 474.566 868.214, 467.417 871.606 C 460.223 875.020, 457.782 885.515, 462.012 894.837 C 464.751 900.873, 475.729 911.913, 485.127 918.084 L 493.023 923.268 498.762 919.484 C 506.705 914.248, 518.361 902.194, 521.531 895.939 C 526.572 885.990, 525.539 876.601, 518.864 871.711 C 515.487 869.237, 508.389 868.566, 504.456 870.350 M 914.176 870.138 C 906.771 872.271, 899 883.759, 899 892.573 C 899 898.707, 902.831 908.307, 908.028 915.197 C 915.561 925.184, 933.971 940, 938.847 940 C 942.963 940, 956.986 930.839, 966.131 922.175 C 979.053 909.933, 983.775 899.195, 981.055 888.237 C 978.452 877.754, 969.925 871, 959.293 871 C 953.903 871, 946.257 873.780, 943.928 876.586 C 942.276 878.578, 941.228 878.371, 937.644 875.345 C 930.823 869.586, 922.501 867.740, 914.176 870.138 M 914.304 878.956 C 909.160 882.093, 907.498 885.519, 907.514 892.956 C 907.526 898.318, 908.067 900.485, 910.514 904.958 C 913.895 911.139, 925.468 923.013, 933.507 928.549 L 938.888 932.256 943.694 929.456 C 961.406 919.137, 973.963 904.296, 973.990 893.651 C 973.996 891.534, 973.249 888.219, 972.330 886.283 C 967.589 876.293, 951.772 876.641, 944.220 886.902 C 942.966 888.606, 941.365 890, 940.663 890 C 939.960 890, 937.956 887.973, 936.210 885.496 C 934.464 883.019, 931.565 880.096, 929.768 879 C 925.510 876.404, 918.523 876.384, 914.304 878.956" stroke="none" fill="black" fill-rule="evenodd"/>
</svg>