<?xml version="1.0" standalone="no"?>
<!DOCTYPE svg PUBLIC "-//W3C//DTD SVG 20010904//EN"
 "http://www.w3.org/TR/2001/REC-SVG-20010904/DTD/svg10.dtd">
<svg version="1.0" xmlns="http://www.w3.org/2000/svg"
 width="1536.000000pt" height="1024.000000pt" viewBox="0 0 1536.000000 1024.000000"
 preserveAspectRatio="xMidYMid meet">

<g transform="translate(0.000000,1024.000000) scale(0.100000,-0.100000)"
fill="#000000" stroke="none">
<path d="M8839 10004 c-304 -55 -579 -224 -762 -469 -59 -78 -166 -281 -188
-355 l-11 -38 -87 40 c-232 108 -466 161 -713 162 -87 1 -158 2 -158 4 0 2 6
15 14 30 52 104 2 219 -102 237 -49 8 -136 -14 -196 -49 -51 -30 -123 -107
-151 -162 -11 -21 -21 -41 -23 -43 -1 -3 -17 9 -35 26 -71 67 -186 109 -262
97 -156 -25 -209 -151 -114 -270 16 -20 28 -39 26 -40 -2 -2 -56 -22 -120 -44
-149 -51 -259 -102 -374 -173 -107 -67 -248 -175 -317 -244 l-49 -49 -121 121
c-248 250 -524 385 -848 415 -60 6 -139 8 -176 4 -411 -36 -804 -273 -1037
-623 -140 -212 -160 -355 -56 -398 20 -8 37 -16 39 -18 2 -1 -13 -30 -33 -64
-127 -216 -184 -508 -140 -715 30 -142 76 -194 162 -182 l43 6 0 -59 c0 -234
141 -529 289 -606 72 -37 147 -26 186 27 l16 23 17 -25 c77 -112 159 -185 282
-249 193 -101 431 -116 645 -43 l84 29 12 -51 c19 -83 83 -255 127 -342 113
-225 289 -424 520 -590 6 -4 -48 -104 -129 -236 -272 -442 -360 -599 -462
-828 -219 -490 -318 -961 -288 -1368 35 -488 195 -858 500 -1162 69 -69 167
-154 216 -189 161 -113 371 -207 555 -247 68 -15 126 -19 285 -19 207 1 259 8
404 60 24 8 46 13 48 11 2 -2 -87 -118 -199 -257 -316 -397 -328 -414 -328
-461 0 -36 6 -47 43 -83 113 -108 437 -228 767 -284 398 -68 941 -54 1049 27
25 18 64 70 286 377 824 1140 1529 2329 1998 3370 25 55 59 132 77 170 54 118
204 472 265 627 l58 147 54 26 c150 74 310 208 405 340 50 70 113 200 148 303
46 139 63 249 58 386 -5 137 -25 204 -84 281 -19 25 -34 51 -34 58 0 6 28 84
63 172 55 143 67 165 106 200 64 57 293 321 459 528 78 97 146 177 150 177 5
0 16 -25 26 -55 9 -31 39 -99 66 -153 143 -286 355 -458 660 -537 186 -48 488
-45 685 6 90 24 103 70 60 208 -126 399 -407 682 -750 757 -156 33 -416 15
-573 -40 -23 -8 -42 -11 -42 -6 0 5 34 54 75 109 l75 101 122 0 c223 0 396 39
581 131 231 115 419 302 539 535 81 157 161 449 144 520 -4 13 -18 32 -33 41
-40 26 -410 26 -532 0 -400 -86 -680 -287 -838 -601 -71 -140 -105 -260 -131
-454 l-7 -53 -210 -168 c-115 -93 -212 -167 -214 -165 -2 1 19 74 47 161 211
665 465 1643 447 1725 -4 15 -21 39 -39 53 -48 36 -246 128 -366 169 -120 40
-330 96 -364 96 -38 0 -86 -21 -97 -43 -7 -11 -91 -257 -189 -546 -329 -975
-525 -1450 -863 -2091 -33 -63 -61 -116 -63 -118 -1 -2 -17 4 -35 13 -73 38
-198 7 -263 -66 -110 -120 -128 -294 -51 -473 l36 -84 -137 -274 c-75 -150
-146 -286 -157 -302 -41 -58 -251 -132 -407 -143 l-85 -6 50 54 c297 319 449
761 415 1214 -5 72 -13 154 -16 183 l-7 52 54 0 c145 0 351 86 467 194 116
109 207 262 233 396 7 36 14 66 15 68 1 2 17 -4 34 -13 88 -46 176 45 225 233
30 118 15 323 -35 455 -12 32 -20 59 -18 60 1 1 21 11 43 22 47 24 64 61 64
146 3 207 -173 516 -375 661 -43 31 -44 32 -23 44 25 13 48 51 48 79 1 62 -75
161 -189 245 -239 177 -655 270 -961 214z m376 -79 c118 -17 181 -33 294 -74
181 -66 356 -194 391 -285 16 -42 -19 -52 -126 -36 -77 11 -88 11 -102 -4 -24
-24 -7 -44 56 -66 235 -83 457 -341 517 -600 25 -108 16 -180 -21 -180 -8 0
-32 9 -54 20 -77 39 -109 15 -66 -50 62 -95 105 -233 113 -365 8 -145 -26
-288 -82 -349 -32 -34 -52 -25 -94 44 -34 56 -54 69 -76 50 -11 -9 -15 -34
-15 -90 0 -225 -152 -471 -358 -578 -95 -50 -211 -82 -293 -82 -56 0 -59 1
-65 28 -4 15 -20 77 -36 137 -17 61 -33 120 -35 132 -4 19 4 26 60 51 80 37
150 100 185 167 20 39 26 65 26 120 1 39 -2 82 -6 97 -7 24 -5 28 26 38 43 14
109 85 127 136 20 58 15 169 -10 234 -11 30 -39 77 -60 104 l-39 49 29 40
c105 145 59 356 -116 528 -64 63 -159 123 -230 146 -27 8 -93 18 -146 20 -172
9 -301 -41 -432 -166 -87 -84 -153 -185 -184 -282 -10 -32 -20 -59 -23 -59 -3
0 -41 29 -85 64 -66 52 -248 178 -320 221 -15 9 -15 13 0 60 69 206 205 408
359 531 266 213 564 296 891 249z m2058 -210 c212 -58 501 -176 535 -218 15
-17 -5 -115 -99 -492 -130 -521 -399 -1422 -455 -1525 -69 -127 -69 -129 -52
-146 21 -22 44 -12 66 27 49 88 76 121 153 180 46 36 160 125 252 197 93 73
172 132 176 132 4 0 15 -6 25 -13 16 -12 7 -26 -96 -162 -112 -149 -318 -409
-408 -515 -125 -149 -281 -330 -288 -334 -5 -3 -8 5 -8 17 1 15 -6 23 -21 25
-26 4 -32 -6 -77 -130 -18 -51 -55 -148 -81 -214 l-47 -122 -41 24 c-66 38
-165 65 -237 65 -116 0 -193 -41 -235 -125 -28 -56 -31 -101 -11 -150 l14 -34
-56 -29 c-128 -65 -163 -224 -71 -319 l29 -30 -24 -14 c-14 -7 -38 -31 -53
-53 -39 -56 -40 -146 -3 -201 33 -48 96 -90 178 -117 112 -36 107 -23 62 -152
-159 -462 -470 -1178 -782 -1802 -420 -837 -998 -1780 -1665 -2710 -321 -449
-300 -424 -358 -440 -131 -37 -486 -46 -743 -20 -269 28 -555 99 -743 183 -96
43 -199 111 -199 130 0 10 84 123 186 252 102 129 197 251 212 270 14 19 40
51 57 70 16 20 52 64 78 99 l48 62 31 -26 c80 -67 219 -115 335 -115 190 0
380 92 657 320 144 118 179 131 336 128 108 -2 121 0 166 23 39 20 55 35 77
79 24 46 28 64 24 105 -3 28 -8 57 -11 65 -4 10 8 21 36 35 65 31 101 83 106
154 5 73 -8 116 -53 169 -19 22 -35 43 -35 47 0 4 10 21 22 38 34 47 31 127
-5 189 -32 56 -72 88 -153 124 -50 23 -77 28 -174 32 -85 3 -131 0 -176 -12
-34 -9 -64 -16 -67 -16 -4 0 81 132 186 293 106 160 210 320 232 353 39 61 39
61 119 84 126 36 271 92 417 161 102 48 143 62 174 61 22 -1 126 -4 230 -6
171 -3 199 -7 274 -30 134 -43 255 -31 324 32 48 43 70 135 47 196 -10 27 -9
28 57 41 84 17 155 108 156 200 1 51 -26 119 -57 144 -23 19 -20 29 12 36 41
9 102 63 123 109 61 134 -27 268 -210 321 -40 12 -202 45 -219 45 -3 0 12 19
35 43 55 57 73 96 73 159 0 92 -58 163 -154 189 -84 23 -222 -9 -378 -87 -37
-19 -70 -34 -73 -34 -4 0 7 24 23 53 64 111 346 653 577 1107 307 604 623
1218 644 1250 16 26 33 63 153 335 150 340 258 611 385 970 102 287 323 952
323 971 0 15 27 33 50 34 8 0 73 -16 143 -35z m-4438 -185 c60 -23 53 -90 -23
-215 -64 -103 -69 -121 -42 -135 19 -10 27 -6 63 32 l41 43 201 -1 c216 0 311
-14 481 -69 301 -98 630 -309 895 -574 150 -151 220 -238 331 -416 290 -462
448 -1015 417 -1454 -29 -418 -194 -759 -498 -1035 -348 -314 -905 -553 -1511
-648 -129 -20 -181 -23 -480 -23 -366 0 -434 6 -715 67 -367 79 -677 228 -903
433 -229 208 -403 542 -462 885 -41 239 -37 594 10 872 77 452 275 885 564
1233 204 246 521 452 841 546 105 31 107 31 145 14 43 -19 70 -15 70 11 0 9
-33 49 -74 88 -87 85 -113 128 -97 162 28 63 117 73 215 25 70 -34 109 -71
145 -139 20 -37 32 -47 51 -47 24 0 25 3 25 60 1 139 125 271 277 294 4 1 18
-3 33 -9z m2286 -320 c167 -52 310 -202 349 -368 20 -88 -8 -175 -74 -226 -20
-15 -36 -35 -36 -44 0 -10 20 -35 45 -56 79 -66 129 -198 106 -283 -21 -78
-57 -106 -165 -128 -32 -7 -32 -22 -1 -105 43 -115 -28 -249 -164 -306 -51
-21 -58 -18 -76 39 -27 81 -169 370 -237 482 -103 167 -255 362 -377 480 -47
45 -49 59 -21 141 43 124 144 254 247 318 118 73 279 95 404 56z m-4785 -105
c174 -31 365 -111 513 -216 87 -61 230 -195 276 -258 l32 -44 -65 -81 c-67
-83 -175 -244 -225 -336 l-27 -51 -58 73 c-132 166 -301 265 -493 289 -184 23
-344 -35 -485 -175 -125 -125 -188 -275 -187 -446 0 -139 59 -253 157 -302 22
-11 42 -21 44 -23 1 -1 -8 -24 -20 -51 -17 -39 -22 -68 -22 -144 -1 -84 3
-102 28 -158 47 -102 120 -152 223 -152 l41 0 11 -50 c16 -73 44 -122 97 -168
69 -61 140 -86 252 -86 l92 -1 0 -60 c0 -33 7 -107 15 -165 16 -123 19 -119
-85 -151 -365 -112 -735 45 -887 377 -16 36 -30 54 -43 54 -27 0 -37 -19 -43
-84 -11 -111 -59 -123 -151 -36 -66 62 -128 170 -162 285 -25 81 -27 104 -26
230 0 77 2 156 4 175 5 57 -25 52 -86 -14 -29 -31 -60 -56 -70 -56 -25 0 -54
73 -68 170 -22 154 19 371 102 546 50 103 148 235 205 274 50 34 59 51 40 76
-12 18 -19 16 -124 -35 -131 -63 -146 -63 -138 8 18 156 246 436 476 586 162
106 345 181 501 204 92 14 262 12 356 -4z m8949 -106 c10 -11 -16 -139 -51
-249 -178 -558 -669 -879 -1256 -823 l-68 6 0 42 c0 67 27 202 59 297 116 343
365 580 716 681 78 23 123 32 235 51 39 6 358 2 365 -5z m-8925 -614 c141 -37
286 -143 381 -278 l48 -69 -15 -37 c-159 -364 -237 -686 -251 -1029 -6 -154
-6 -154 -32 -164 -36 -14 -145 -1 -203 24 -91 39 -138 115 -138 224 0 67 -16
81 -69 65 -118 -35 -200 25 -224 162 -13 78 0 151 43 232 32 62 27 78 -29 89
-83 15 -139 78 -167 185 -18 73 -14 128 16 231 51 168 179 302 347 359 71 25
212 28 293 6z m8094 -795 c301 -77 535 -318 656 -677 26 -75 32 -105 23 -114
-6 -6 -62 -20 -124 -31 -94 -16 -143 -19 -279 -14 -226 7 -361 41 -520 133
-92 54 -253 217 -312 318 -54 92 -133 287 -125 307 3 8 52 28 108 46 91 27
146 39 264 56 59 9 236 -5 309 -24z m-2600 -621 l25 -12 -112 -218 c-62 -120
-115 -219 -118 -219 -17 0 -42 93 -47 168 -5 99 7 150 52 213 52 70 133 98
200 68z m870 -572 c116 -54 191 -136 223 -246 20 -69 19 -225 -3 -327 -24
-118 -87 -288 -141 -378 -77 -129 -264 -303 -367 -342 -16 -6 -18 -4 -12 12 4
10 24 64 43 119 19 55 43 106 54 114 53 38 -4 111 -117 150 -94 32 -152 66
-175 104 -53 87 20 176 144 177 46 0 162 -32 182 -51 26 -26 82 2 69 35 -10
26 -123 74 -205 87 -128 21 -179 61 -179 143 0 69 88 135 180 136 63 0 154
-25 219 -60 77 -42 111 -38 96 11 -13 41 -147 105 -256 123 -52 9 -84 47 -84
101 0 48 19 76 75 106 54 29 176 22 254 -14z m-1551 -814 c-37 -71 -124 -236
-194 -368 -113 -214 -131 -242 -165 -262 -41 -24 -173 -77 -215 -88 l-26 -6
-7 83 c-9 109 -37 247 -77 375 -18 57 -30 104 -28 106 2 2 42 30 89 62 47 32
106 76 131 97 l45 38 96 0 c114 0 212 17 328 58 47 16 86 30 88 31 1 0 -28
-56 -65 -126z m-749 -320 c39 -122 55 -218 59 -347 l2 -90 -45 -13 c-71 -21
-275 -60 -390 -75 -137 -17 -469 -17 -585 1 -127 19 -236 45 -340 81 -94 33
-245 107 -245 120 0 4 42 10 94 14 384 27 788 131 1166 301 63 28 140 66 170
83 30 18 60 32 67 32 7 0 28 -48 47 -107z m-2998 -52 c327 -162 692 -245 1169
-267 123 -5 154 -10 170 -24 37 -33 170 -109 254 -145 193 -82 400 -124 651
-132 213 -6 380 7 576 47 296 60 399 96 714 245 263 125 291 135 371 142 50 4
74 2 103 -12 84 -40 89 -143 9 -216 -34 -32 -105 -69 -131 -69 -11 0 -25 -7
-33 -16 -24 -29 2 -47 87 -61 135 -23 307 -64 357 -85 152 -65 155 -228 4
-269 -35 -10 -62 -8 -163 11 -67 13 -129 20 -138 17 -9 -4 -16 -17 -16 -31 0
-21 8 -26 81 -46 101 -27 167 -55 197 -83 78 -73 67 -187 -21 -228 -59 -26
-112 -24 -220 11 -108 34 -120 36 -137 15 -20 -24 10 -49 106 -85 92 -35 124
-66 124 -123 0 -109 -120 -147 -292 -91 -76 24 -98 27 -258 28 -96 1 -200 6
-230 10 -53 8 -60 6 -176 -48 -810 -371 -1536 -406 -2207 -106 -212 95 -392
218 -555 379 -51 50 -98 91 -106 91 -22 0 -38 -27 -31 -50 12 -36 185 -202
299 -285 l109 -80 -89 -7 c-282 -23 -568 -175 -746 -397 -71 -89 -83 -122 -48
-141 23 -12 16 -18 112 97 88 105 234 216 356 270 163 73 269 96 439 94 l122
-1 138 -59 c76 -32 185 -73 243 -91 122 -37 168 -66 270 -170 180 -183 293
-428 330 -712 l9 -73 -45 -108 c-51 -121 -57 -154 -32 -170 25 -17 38 0 93
125 43 97 55 115 121 177 183 175 464 237 652 145 99 -48 142 -145 88 -199
l-24 -24 -63 27 c-54 22 -79 26 -164 27 -81 0 -106 -4 -129 -18 -16 -11 -26
-25 -24 -35 3 -15 18 -17 103 -18 207 -1 352 -87 363 -217 5 -64 -19 -101 -78
-118 -35 -11 -43 -9 -99 19 -107 53 -259 68 -298 29 -30 -29 -9 -47 55 -47
170 0 299 -84 289 -188 -9 -87 -63 -115 -204 -106 -157 10 -211 -14 -423 -186
-199 -162 -348 -239 -499 -256 -128 -14 -282 37 -388 131 -28 25 -86 89 -129
143 -107 135 -144 172 -171 172 -12 0 -27 -9 -33 -20 -9 -17 -4 -27 28 -62 21
-24 73 -87 115 -140 l76 -97 -57 -21 c-157 -60 -236 -73 -437 -74 -219 -1
-293 11 -465 75 -350 131 -664 417 -838 764 -137 274 -190 544 -179 914 12
413 110 773 337 1236 108 219 167 325 341 610 75 121 148 241 163 268 15 26
28 47 30 47 2 0 57 -27 122 -59z m2514 -1827 c0 -7 -308 -477 -410 -626 -52
-75 -83 -109 -122 -135 -29 -19 -65 -46 -79 -60 l-27 -24 -17 93 c-20 110 -72
272 -116 360 -48 96 -135 223 -202 295 l-61 65 35 -6 c272 -45 625 -36 884 23
89 21 115 24 115 15z"/>
<path d="M7871 7967 c-45 -14 -114 -80 -109 -104 5 -25 46 -28 77 -6 93 69
225 53 324 -37 30 -28 61 -50 70 -50 25 0 38 25 28 52 -15 39 -107 115 -167
137 -61 23 -165 27 -223 8z"/>
<path d="M5633 7576 c-23 -7 -62 -25 -86 -39 -122 -72 -217 -256 -137 -265 22
-2 29 5 52 51 35 73 76 117 135 149 62 34 120 43 172 27 36 -11 44 -10 58 4
53 53 -91 107 -194 73z"/>
<path d="M7992 7362 c-229 -82 -319 -399 -186 -653 46 -87 102 -145 180 -184
52 -27 69 -30 149 -30 79 0 97 3 150 29 115 57 196 174 218 316 31 202 -81
430 -250 507 -77 36 -186 42 -261 15z m226 -82 c27 -12 71 -43 98 -71 54 -54
53 -61 -2 -24 -45 31 -88 39 -170 32 -196 -15 -312 -234 -244 -459 12 -40 28
-83 36 -95 22 -35 2 -27 -27 10 -113 142 -125 388 -24 520 37 48 104 94 158
108 47 12 119 3 175 -21z m-91 -214 c23 -20 28 -32 28 -71 0 -39 -5 -51 -28
-71 -39 -33 -81 -31 -118 5 -21 22 -29 39 -29 66 0 27 8 44 29 66 37 36 79 38
118 5z"/>
<path d="M6870 7273 c-219 -77 -340 -344 -340 -751 0 -388 112 -565 386 -613
36 -6 95 -9 129 -7 l62 5 12 -68 c16 -100 14 -114 -21 -155 -51 -58 -117 -84
-213 -84 -92 0 -163 24 -242 83 -68 50 -98 93 -98 142 0 35 -3 40 -25 43 -20
2 -34 -9 -72 -57 -27 -33 -48 -65 -48 -70 0 -19 33 -29 63 -19 18 7 32 7 36 1
59 -87 149 -153 253 -184 56 -17 87 -20 161 -17 108 5 173 32 241 102 l41 42
39 -22 c57 -32 144 -46 213 -33 160 30 296 158 353 332 8 25 17 37 28 36 41
-4 52 1 52 25 0 19 -12 31 -57 56 -66 35 -103 34 -103 -3 0 -13 5 -28 11 -34
16 -16 -14 -100 -61 -171 -41 -60 -99 -109 -172 -142 -87 -40 -234 -17 -271
42 -8 12 -18 43 -22 68 -3 25 -8 57 -11 71 -5 24 -1 28 47 44 127 41 247 123
298 204 48 75 64 149 59 265 -15 290 -196 668 -386 803 -107 77 -238 102 -342
66z m239 -98 c105 -53 193 -156 279 -331 126 -251 165 -501 100 -629 -35 -68
-105 -130 -191 -170 -91 -42 -166 -57 -281 -57 -216 -1 -337 87 -382 276 -25
106 -30 346 -10 476 29 191 96 341 181 405 90 69 205 81 304 30z"/>
<path d="M5705 6953 c-162 -67 -265 -231 -265 -418 0 -246 169 -447 388 -462
102 -7 167 9 242 59 113 75 172 190 173 338 3 202 -91 378 -245 460 -57 31
-72 34 -158 37 -72 2 -105 -1 -135 -14z m246 -80 c42 -20 134 -91 126 -99 -2
-2 -19 4 -38 13 -43 22 -155 29 -206 13 -67 -22 -136 -81 -173 -151 -34 -62
-35 -67 -35 -179 0 -108 2 -119 31 -180 17 -36 45 -80 61 -97 39 -41 30 -42
-30 -2 -122 81 -190 244 -167 399 21 136 111 257 217 293 61 21 153 17 214
-10z m-81 -220 c42 -38 48 -79 18 -122 -42 -63 -115 -63 -151 -2 -21 37 -22
65 0 101 32 55 87 64 133 23z"/>
</g>
</svg>
