<svg xmlns="http://www.w3.org/2000/svg" width="1536" height="1024" viewBox="0 0 1536 1024" version="1.1">
	<path d="M 966 43.035 C 933.336 45.453, 896.003 51.019, 871.500 57.124 C 821.840 69.498, 787.945 87.250, 778.903 105.619 L 776.500 110.500 776.219 168.750 C 776.065 200.788, 775.594 227, 775.172 227 C 774.218 227, 767 219.676, 767 218.708 C 767 218.319, 767.900 217.100, 769 216 C 770.100 214.900, 771 212.860, 771 211.467 C 771 206.888, 765.886 198.644, 758.737 191.698 C 732.192 165.906, 693.060 156.223, 657.276 166.593 C 648.806 169.047, 635.507 175.135, 629.500 179.307 C 619.186 186.470, 606.078 200.838, 601.499 210 C 598.348 216.305, 598.256 216.335, 592.387 213.023 C 583.881 208.222, 570.998 203.232, 559.833 200.412 C 554.150 198.977, 549.126 197.573, 548.668 197.292 C 548.210 197.011, 548.943 195.592, 550.296 194.140 C 555.974 188.046, 556.753 181.053, 552.236 176.726 C 544.141 168.971, 528.208 168.664, 505.325 175.824 C 503.579 176.370, 501.960 176.627, 501.728 176.394 C 501.495 176.162, 502.208 173.391, 503.313 170.236 C 505.738 163.306, 505.072 157.898, 501.372 154.469 C 497.659 151.028, 492.725 150.616, 483.533 152.980 C 463.334 158.175, 440.147 176.686, 426.462 198.541 L 422.053 205.583 411.001 208.821 C 390.964 214.693, 369.273 225.090, 352.500 236.861 C 343.345 243.287, 324.069 259.657, 323.301 261.659 C 322.735 263.133, 320 263.523, 320 262.129 C 320 260.224, 302.314 242.625, 294.650 236.903 C 284.112 229.036, 269.036 221.695, 256.477 218.315 C 247.274 215.838, 244.949 215.625, 226.500 215.569 C 208.010 215.513, 205.707 215.709, 196 218.175 C 169.951 224.792, 148.540 237.080, 131.502 255.191 C 117.735 269.825, 109.874 283.751, 109.168 294.757 C 108.716 301.793, 109.592 303.512, 114.726 305.658 L 117.952 307.007 115.010 311.645 C 110.784 318.308, 106.320 329.528, 103.849 339.693 C 96.524 369.826, 108.830 407.213, 122.842 397.398 C 124.100 396.517, 125.407 396.073, 125.745 396.412 C 126.084 396.751, 127.173 400.284, 128.165 404.264 C 131.948 419.442, 142.723 437.078, 153.938 446.448 C 169.231 459.225, 187.972 464.534, 193.466 457.646 L 195.500 455.096 200 457.119 C 209.963 461.598, 220.610 463.445, 236 463.363 C 248.719 463.296, 251.594 462.957, 259.408 460.602 C 264.308 459.125, 268.624 458.273, 269 458.708 C 269.376 459.144, 270.456 462.425, 271.399 466 C 276.440 485.107, 286.214 503.960, 299.033 519.304 C 303.538 524.697, 306.981 529.352, 306.684 529.650 C 306.386 529.947, 296.323 526.885, 284.322 522.845 L 262.500 515.500 257.739 506.024 C 252.626 495.845, 246.427 488.577, 239.217 484.308 C 235.533 482.126, 234.032 481.829, 228.484 482.182 C 223.018 482.530, 221.557 483.043, 218.903 485.546 C 217.180 487.171, 214.918 490.459, 213.876 492.854 C 212.381 496.290, 211.616 497.058, 210.241 496.498 C 202.120 493.193, 193.592 490.864, 189 490.698 L 183.500 490.500 183.500 494.486 L 183.500 498.472 188.929 499.254 C 191.915 499.684, 198.843 501.834, 204.324 504.033 C 209.805 506.232, 215.687 508.137, 217.395 508.266 L 220.500 508.500 220.666 502.600 C 220.852 496.035, 222.994 492.110, 227.212 490.606 C 233.873 488.232, 242.923 495.795, 249.128 508.921 C 251.358 513.639, 253.705 518.588, 254.342 519.917 C 255.307 521.931, 258.674 523.397, 274.500 528.698 C 293.280 534.988, 323.187 544, 325.280 544 C 325.874 544, 329.092 545.779, 332.430 547.952 C 351.191 560.169, 386.463 572.817, 411 576.125 C 420.976 577.470, 422.539 578.453, 421.026 582.431 C 418.818 588.238, 412.067 617.057, 409.882 630 C 406.796 648.282, 406.495 685.559, 409.322 699.464 C 418.884 746.495, 445.853 778.426, 486.053 790.313 C 497.683 793.752, 498.910 793.988, 510.390 794.996 C 535.048 797.160, 563.221 790.522, 582.337 778.043 C 608.289 761.101, 624.547 736.719, 630.500 705.814 C 632.387 696.019, 632.639 673.067, 630.996 660.770 C 627.230 632.593, 613.555 592.624, 598.463 565.684 C 595.439 560.285, 593.205 555.478, 593.499 555.002 C 593.793 554.526, 598.638 551.875, 604.267 549.109 C 624.139 539.345, 644.064 524.922, 658.500 509.852 C 663.893 504.222, 669.835 499.382, 676.732 495 C 695.204 483.266, 715.044 468.695, 715.478 466.544 C 716.778 460.098, 718.016 447.835, 717.458 446.931 C 717.098 446.350, 717.636 444.954, 718.652 443.829 C 720.326 441.977, 720.500 439.802, 720.500 420.686 L 720.500 399.587 726.960 395.073 L 733.420 390.558 765.460 389.358 C 804.238 387.906, 874.904 385.512, 938.500 383.496 C 964.350 382.677, 997.875 381.547, 1013 380.986 C 1059.329 379.267, 1101.113 377.981, 1131.500 377.339 C 1156.270 376.815, 1161.405 376.960, 1166.707 378.331 C 1172.493 379.828, 1188.219 387.116, 1192.306 390.195 C 1193.973 391.450, 1194.127 393.976, 1194.306 422.873 C 1194.413 440.098, 1194.177 454.390, 1193.783 454.634 C 1193.389 454.878, 1190.567 453.042, 1187.513 450.554 C 1179.118 443.716, 1172.044 440.514, 1162 439.007 C 1156.649 438.203, 1102.685 438.983, 1025.500 440.979 C 1004.600 441.519, 950.375 442.860, 905 443.960 C 859.625 445.059, 819.618 446.441, 816.097 447.032 L 809.693 448.106 805.990 444.490 C 803.953 442.501, 800.349 440.302, 797.982 439.603 C 794.009 438.429, 793.588 437.974, 792.494 433.665 C 788.843 419.286, 772.797 418.028, 755.886 430.796 C 752.824 433.108, 750.066 435, 749.758 435 C 749.450 435, 748.288 433.458, 747.176 431.574 C 744.757 427.474, 741.367 425.098, 736.307 423.956 C 731.652 422.907, 729.790 424.246, 730.199 428.349 C 730.435 430.712, 731.121 431.533, 733.357 432.126 C 739.138 433.660, 743 439.525, 743 446.768 C 743 453.326, 747 454.608, 749.430 448.829 C 752.052 442.593, 770.523 430, 777.049 430 C 778.550 430, 780.819 430.843, 782.091 431.873 C 785.588 434.704, 785.047 439.962, 780.596 446.425 C 778.618 449.297, 777 452.149, 777 452.764 C 777 455.233, 779.213 454.949, 783.622 451.916 C 792.766 445.625, 801 447.369, 801 455.599 C 801 461.001, 798.395 465.475, 791.747 471.491 C 787.723 475.133, 785.948 477.422, 786.345 478.457 C 787.084 480.382, 788.133 480.389, 792.654 478.500 C 800.866 475.069, 806 477.461, 806 484.719 C 806 492.459, 794.232 505.204, 775.500 517.752 C 769.011 522.098, 764.549 526.113, 759.507 532.140 C 738.680 557.036, 713.372 579.044, 681.840 599.680 C 668.147 608.641, 644.485 621.328, 642.622 620.707 C 642.037 620.512, 640.641 618.586, 639.520 616.426 C 637.978 613.454, 636.878 612.500, 634.991 612.500 C 631.638 612.500, 631.881 614.039, 637.898 630.846 C 646.376 654.526, 651.859 677.419, 652.066 690 C 652.184 697.144, 652.853 697.899, 662.168 701.402 C 691.597 712.473, 712.176 733.828, 720.903 762.355 C 723.914 772.197, 723.849 772.430, 717.073 776.042 C 705.254 782.341, 691.007 796.290, 683.921 808.500 C 678.276 818.225, 681.326 820.246, 688.072 811.250 C 693.428 804.108, 707.633 790.036, 713.705 785.859 C 718.868 782.307, 728.663 778.391, 737.500 776.345 C 747.768 773.969, 758.438 776.250, 765.675 782.368 C 768.713 784.936, 768.828 785.299, 768.326 790.776 C 768.037 793.924, 767.386 798.159, 766.879 800.188 C 765.826 804.399, 758.652 814, 756.560 814 C 755.793 814, 753.064 813.099, 750.496 811.998 L 745.825 809.996 748.327 807.024 C 753.323 801.086, 754.351 791.256, 750.430 786.922 C 746.650 782.745, 744.467 784.997, 746.081 791.409 C 747.089 795.409, 746.967 796.436, 745.007 800.486 C 743.791 802.998, 740.592 806.912, 737.898 809.183 C 731.971 814.181, 731.197 817.623, 736.250 816.513 C 743.311 814.963, 746.819 815.488, 751.516 818.798 C 754.014 820.559, 756.336 822, 756.676 822 C 757.016 822, 759.195 820.443, 761.518 818.539 C 766.961 814.078, 771.710 806.632, 773.253 800.137 C 773.924 797.312, 774.799 795, 775.198 795 C 776.698 795, 778.202 803.723, 777.689 809.441 C 777.044 816.619, 770.595 830.166, 763.141 840 C 755.892 849.563, 740.319 864.189, 730.817 870.356 C 719.356 877.794, 713.096 880.794, 704.154 883.132 C 694.878 885.558, 688.130 885.068, 679.895 881.372 C 676.317 879.767, 673.399 879.056, 672.091 879.471 C 669.282 880.363, 668.355 877.721, 667.509 866.417 C 666.841 857.498, 667.663 852.329, 672.148 837.255 C 673.137 833.930, 673.148 832.748, 672.198 831.798 C 670.292 829.892, 668.540 832.443, 665.223 841.954 C 663.602 846.604, 661.836 850.555, 661.299 850.734 C 660.762 850.913, 658.608 848.458, 656.513 845.280 C 651.253 837.299, 636.018 822.339, 627 816.300 C 618.615 810.684, 607.748 805, 599.489 801.910 C 593.682 799.737, 593.086 799.003, 595.500 797 C 597.337 795.475, 597.424 793.597, 595.722 792.184 C 594.783 791.405, 592.344 792.198, 586.523 795.177 C 566.584 805.382, 543.193 812.450, 520.776 815.044 C 513.368 815.901, 509.624 816.782, 508.666 817.892 C 507.904 818.777, 506.722 822.425, 506.041 826 C 502.606 844.014, 492.929 870.998, 483.868 887.829 L 478.845 897.157 484.298 902.873 C 490.940 909.837, 494.010 915.608, 494.672 922.378 C 495.386 929.682, 493.391 934.794, 488.500 938.193 C 486.300 939.722, 483.470 941.091, 482.212 941.236 C 480.056 941.485, 479.909 941.122, 479.666 934.940 C 479.354 927.022, 474.974 918.108, 470.632 916.555 C 466.208 914.973, 465.182 917.200, 468.256 921.712 C 473.691 929.692, 474.416 941.371, 469.668 944.482 C 467.472 945.921, 450.415 948.374, 448.941 947.463 C 448.514 947.200, 448.626 945.316, 449.189 943.277 C 450.593 938.193, 449.528 931.740, 446.307 925.823 C 443.484 920.635, 440.827 918.469, 438.422 919.392 C 436.366 920.181, 436.657 922.134, 439.622 927.440 C 442.936 933.369, 443.379 941.234, 440.635 945.429 L 438.770 948.280 429.635 947.718 C 417.692 946.983, 406.066 944.503, 398.515 941.080 C 380.970 933.124, 376.440 920.431, 382.671 896.681 C 385.051 887.607, 385.345 884.652, 385.375 869.500 C 385.424 844.104, 382.053 829.479, 368.781 797.500 C 360.365 777.222, 355.773 763.928, 353.324 752.748 C 350.791 741.184, 350.816 705.712, 353.366 692.051 C 356.555 674.971, 361.982 655.660, 364.282 653.205 C 367.573 649.694, 365.656 647.750, 357.402 646.226 C 326.359 640.497, 305.343 634.152, 278.500 622.404 C 259.133 613.928, 232.210 599.476, 220.955 591.513 C 218.455 589.745, 213.955 587.720, 210.955 587.013 C 202.343 584.984, 183.058 578.065, 176.715 574.728 C 161.691 566.823, 160.685 554.621, 174.991 553.811 C 179.242 553.570, 180.555 553.111, 180.809 551.775 C 181.048 550.518, 179.433 549.225, 174.841 547.001 C 167.103 543.253, 162.216 538.666, 161.415 534.401 C 160.042 527.080, 163.938 523.558, 173.130 523.811 C 180.700 524.020, 181.344 522.640, 176.587 516.410 C 172.851 511.517, 172.077 507.593, 174.102 503.809 C 175.015 502.104, 174.789 501.334, 172.789 499.335 C 168.188 494.733, 163.672 500.055, 164.113 509.561 C 164.357 514.840, 164.274 515.019, 160.217 517.958 C 154.804 521.879, 152.999 525.568, 153.004 532.700 C 153.008 538.619, 154.750 542.824, 159.212 547.678 C 161.089 549.720, 161.112 550.002, 159.582 552.178 C 156.802 556.135, 155.801 561.546, 157.015 566.057 C 158.838 572.826, 164.125 577.573, 176.451 583.508 C 185.493 587.862, 208.063 596, 211.094 596 C 211.515 596, 214.478 597.730, 217.679 599.845 C 227.289 606.193, 243.939 615.519, 259.668 623.363 C 286.361 636.677, 310.808 645.351, 339 651.513 C 345.875 653.015, 351.898 654.610, 352.384 655.056 C 352.888 655.519, 351.703 662.243, 349.631 670.684 C 344.491 691.627, 342.946 701.489, 342.296 717.500 C 341.353 740.747, 344.346 758.717, 353.006 781.794 C 355.337 788.006, 357.077 793.251, 356.872 793.450 C 356.218 794.087, 312.979 796.105, 312.068 795.542 C 311.586 795.244, 312.095 792.638, 313.199 789.750 C 316.765 780.423, 314.107 769.814, 306.541 763.170 C 304.573 761.442, 301.901 759.762, 300.603 759.436 C 298.413 758.887, 298.210 758.254, 297.794 750.672 C 297.282 741.339, 295.139 736.206, 289.333 730.399 C 284.059 725.126, 277.861 722.632, 269.500 722.421 L 262.500 722.245 263 719.372 C 263.275 717.793, 263.431 713.350, 263.346 709.500 C 262.982 692.953, 252.434 678.626, 236.789 673.430 C 229.727 671.084, 216.101 671.813, 210.230 674.851 C 205.469 677.315, 205.873 677.715, 204.032 668.734 C 200.892 653.423, 189.582 639.359, 174.333 631.802 C 166.036 627.691, 165.265 627.507, 154.886 627.151 C 146.062 626.849, 142.825 627.162, 137.248 628.856 C 124.577 632.705, 112.047 643.054, 106.281 654.432 C 101.099 664.658, 99.739 669.984, 99.533 680.851 L 99.338 691.202 91.419 691.431 C 77.689 691.829, 68.844 697.606, 62.225 710.500 C 58.360 718.030, 57.975 729.104, 61.241 738.831 L 63.702 746.163 61.286 747.081 C 59.957 747.587, 58.434 748, 57.902 748 C 57.369 748, 54.714 749.125, 52 750.500 C 35.298 758.964, 28.386 779.909, 36.425 797.697 C 37.965 801.106, 40.075 804.663, 41.113 805.602 C 42.151 806.541, 43 807.647, 43 808.060 C 43 808.472, 40.560 810.186, 37.578 811.869 C 23.801 819.644, 22.187 832.698, 33.895 841.651 C 54.401 857.333, 118.436 873.029, 206.500 883.958 C 227.303 886.539, 259.119 890.167, 294.500 893.991 C 310.880 895.762, 362.071 900, 367.073 900 L 371.712 900 371.606 912.250 C 371.512 923.106, 371.768 925.092, 373.852 929.702 C 380.230 943.804, 398.024 953.128, 424.061 956.009 C 435.932 957.323, 463.191 955.855, 470.500 953.507 C 473.250 952.624, 477.750 951.282, 480.500 950.525 C 491.129 947.598, 499.700 940.826, 502.040 933.503 C 503.558 928.757, 503.603 919.592, 502.128 915.785 C 501.550 914.292, 501.403 912.869, 501.803 912.622 C 502.202 912.375, 513.772 912.782, 527.514 913.525 C 554.462 914.984, 588.954 916.402, 636.500 918.008 C 831.969 924.612, 1023.860 922.084, 1208 910.480 C 1310.384 904.029, 1387.744 895.126, 1443.236 883.410 C 1469.755 877.811, 1485.334 871.649, 1489.783 865 C 1491.071 863.075, 1493.582 860.748, 1495.363 859.829 C 1499.844 857.515, 1506.752 849.776, 1509.334 844.176 C 1511.034 840.489, 1511.491 837.597, 1511.495 830.500 C 1511.500 822.387, 1511.208 820.972, 1508.532 816.141 C 1504.996 809.757, 1499.272 804.596, 1493.615 802.691 C 1489.935 801.451, 1489.530 800.998, 1489.780 798.402 C 1490.195 794.106, 1490.237 779.806, 1489.842 777.500 C 1489.576 775.942, 1490.130 775.428, 1492.353 775.174 C 1496.471 774.703, 1503.173 767.518, 1507.026 759.445 C 1511.150 750.804, 1512.014 741.998, 1509.563 733.569 C 1507.426 726.217, 1500.423 718.777, 1493.875 716.903 C 1487.559 715.094, 1487 714.404, 1487 708.415 C 1487 686.186, 1462.033 670.450, 1442.689 680.486 C 1440.574 681.584, 1439.799 681.638, 1439.446 680.714 C 1439.191 680.046, 1439.099 645.786, 1439.241 604.579 L 1439.500 529.658 1458.885 522.862 C 1469.547 519.124, 1479.110 515.306, 1480.135 514.378 C 1481.161 513.449, 1482 511.591, 1482 510.247 C 1482 507.111, 1475.108 490.055, 1460.443 456.901 C 1446.253 424.822, 1443.768 419.859, 1441.087 418.242 C 1439.028 417, 1439 416.457, 1439 377.779 L 1439 338.575 1441.750 336.382 L 1444.500 334.190 1444.500 317.508 L 1444.500 300.827 1441.833 298.533 C 1439.948 296.911, 1436.428 295.750, 1429.833 294.575 C 1424.700 293.661, 1400.700 289.092, 1376.500 284.423 C 1352.300 279.753, 1321.025 273.725, 1307 271.027 C 1292.975 268.329, 1261.025 262.438, 1236 257.936 C 1210.975 253.434, 1189.487 249.367, 1188.250 248.900 L 1186 248.050 1186 171.674 C 1186 115.955, 1185.684 94.379, 1184.830 91.899 C 1182.850 86.148, 1179.036 81.256, 1172.124 75.603 C 1152.532 59.578, 1125.398 51.290, 1070 44.409 C 1054.492 42.483, 985.734 41.575, 966 43.035 M 979.888 51.078 C 920.676 54.022, 870.809 63.425, 831.080 79.136 C 806.655 88.795, 791.992 98.826, 785.963 110 C 784.880 112.006, 784.553 125.151, 784.307 176.500 L 784.001 240.500 787.078 247.248 C 790.288 254.287, 793.964 269.751, 793.987 276.307 C 794.019 285.583, 789.960 293, 784.853 293 C 783.192 293, 783.064 293.489, 783.738 297.250 C 784.157 299.587, 784.412 306.675, 784.304 313 C 784.079 326.196, 781.822 336.448, 777.068 345.865 C 774.065 351.814, 774 352.251, 774 366.412 C 774 374.716, 774.415 381.138, 774.973 381.484 C 775.509 381.814, 807.346 380.953, 845.723 379.570 C 884.101 378.187, 922.700 376.806, 931.500 376.502 C 940.300 376.198, 964.375 375.299, 985 374.504 C 1052.582 371.901, 1101.953 370.604, 1135.500 370.552 C 1164.202 370.507, 1169.077 370.721, 1172.933 372.196 C 1175.371 373.129, 1177.786 373.632, 1178.300 373.314 C 1178.878 372.957, 1178.962 319.617, 1178.521 233.618 C 1177.911 114.798, 1177.595 94.167, 1176.359 92.218 C 1175.563 90.963, 1174.482 90.202, 1173.956 90.527 C 1173.372 90.888, 1173 107.644, 1173 133.559 C 1173 156.902, 1172.622 176, 1172.160 176 C 1171.229 176, 1170 135.560, 1170 104.916 L 1170 85.156 1165.750 81.500 C 1153.345 70.831, 1132.041 63.075, 1100 57.565 C 1062.136 51.054, 1022.949 48.937, 979.888 51.078 M 216.575 63.019 C 200.039 65.924, 188.871 73.621, 181.052 87.500 C 179.503 90.250, 177.648 94.975, 176.930 98 C 175.062 105.867, 174.986 105.920, 166.569 105.284 C 154.039 104.336, 141.478 109.515, 133.296 119 C 129.270 123.668, 127.411 127.474, 125.180 135.618 L 123.317 142.419 116.909 143.549 C 108.458 145.038, 105.926 146.170, 100.895 150.705 C 90.354 160.208, 88.896 176.677, 97.686 186.947 C 99.537 189.109, 103.627 192.143, 106.776 193.689 L 112.500 196.500 208.500 196.500 L 304.500 196.500 310.252 194.177 C 322.790 189.115, 331.710 178.199, 334.062 165.043 C 337.263 147.127, 325.707 126.800, 307.198 117.793 C 301.287 114.917, 299.443 114.515, 291.500 114.374 C 282.841 114.221, 282.490 114.126, 282.226 111.858 C 279.923 92.007, 262.489 70.920, 243.572 65.104 C 236.208 62.839, 223.279 61.841, 216.575 63.019 M 212 70.823 C 194.635 76.635, 185.714 86.755, 182.034 104.816 L 180.265 113.500 176.883 113.169 C 175.022 112.986, 169.225 112.761, 164 112.669 C 155.946 112.526, 153.804 112.843, 149.924 114.755 C 138.357 120.455, 132.132 129.433, 131.120 141.874 L 130.500 149.500 125.144 149.210 C 104.977 148.117, 91.648 166.207, 101.548 181.235 C 103.007 183.450, 106.144 186.096, 109.255 187.735 L 114.500 190.500 208 190.500 C 313.915 190.500, 307.346 190.990, 316.920 182.382 C 326.181 174.055, 329.617 162.879, 326.576 150.967 C 322.620 135.468, 311.004 124.193, 295.750 121.045 C 290.910 120.046, 289.116 120.115, 284.416 121.482 C 277.702 123.433, 276 122.544, 276 117.088 C 276 108.130, 270.306 94.222, 263.275 86.008 C 258.985 80.997, 249.954 74.757, 242.830 71.884 C 235.235 68.821, 219.591 68.282, 212 70.823 M 1349 88.691 C 1337.920 90.546, 1325.667 97.395, 1317.160 106.488 C 1310.379 113.737, 1306.599 120.351, 1304.008 129.500 L 1302.308 135.500 1297.894 135.180 C 1286.279 134.339, 1275.593 142.457, 1271.673 155.103 C 1271.353 156.133, 1269.091 157.119, 1265.338 157.863 C 1249.316 161.040, 1239.651 172.897, 1239.549 189.500 C 1239.509 196.094, 1239.957 198.475, 1242.101 203.046 C 1245.356 209.986, 1249.997 215.328, 1255.647 218.639 C 1265.016 224.130, 1262.780 224.004, 1351.514 224.018 C 1431.234 224.030, 1433.887 223.970, 1440.250 222.004 C 1447.453 219.780, 1457.220 213.201, 1461.341 207.798 C 1474.300 190.807, 1472.230 166.164, 1456.408 149.073 C 1446.749 138.641, 1435.736 133.779, 1422.514 134.109 L 1414.527 134.308 1412.011 126.904 C 1410.627 122.832, 1408.209 117.311, 1406.638 114.636 C 1399.941 103.231, 1385.389 92.718, 1371.897 89.537 C 1365.942 88.134, 1354.791 87.721, 1349 88.691 M 1343.798 96.931 C 1328.414 101.849, 1316.088 113.711, 1311.004 128.487 C 1309.902 131.691, 1309 135.988, 1309 138.034 C 1309 143.128, 1307.134 144.529, 1302.422 142.974 C 1297.581 141.377, 1289.506 142.236, 1286.176 144.702 C 1282.378 147.515, 1279.145 152.617, 1278.471 156.862 C 1277.517 162.860, 1276.811 163.489, 1270.891 163.610 C 1263.343 163.763, 1257.744 166.378, 1252.517 172.192 C 1247.578 177.685, 1246.014 181.895, 1246.006 189.712 C 1245.994 200.961, 1252.227 210.438, 1262.878 215.363 C 1267.483 217.492, 1267.809 217.500, 1351.500 217.500 L 1435.500 217.500 1442 214.413 C 1453.754 208.832, 1460.895 199.597, 1463.250 186.930 C 1464.113 182.292, 1463.990 179.992, 1462.580 174.378 C 1458.057 156.372, 1446.068 144.365, 1429.118 140.863 C 1423.640 139.732, 1422.041 139.787, 1416.251 141.305 C 1412.615 142.259, 1409.344 142.693, 1408.984 142.270 C 1408.623 141.846, 1407.822 138.634, 1407.203 135.131 C 1404.097 117.554, 1390.705 102.078, 1374.187 96.976 C 1365.813 94.390, 1351.810 94.369, 1343.798 96.931 M 1018.890 103.413 C 1002.921 109.543, 987.746 129.985, 975.956 161.250 C 974.141 166.063, 972.355 170, 971.986 170 C 971.618 170, 970.744 168.088, 970.045 165.750 C 968.019 158.980, 960.472 142.410, 955.936 134.776 C 949.773 124.401, 939.439 113.992, 931.256 109.914 C 925.109 106.851, 923.688 106.545, 915.500 106.524 C 907.138 106.502, 906.055 106.741, 900.229 109.900 C 875.976 123.052, 854.246 170.969, 843.044 236 C 842.523 239.025, 841.641 244.200, 841.085 247.500 C 837.647 267.890, 834 314.939, 834 338.911 C 834 349.240, 834.301 352.005, 835.536 353.030 C 836.733 354.023, 841.627 354.149, 857.746 353.600 C 869.117 353.213, 878.944 352.461, 879.584 351.931 C 880.359 351.287, 880.973 343.885, 881.426 329.733 C 882.982 281.073, 885.957 242.407, 890.099 217 C 897.053 174.339, 904.714 148.999, 912.896 141.594 C 915.684 139.071, 918.526 140.335, 921.510 145.427 C 935.428 169.176, 945.271 226.582, 948.100 300.500 C 948.962 323.018, 949.530 329.862, 950.641 331.118 C 951.900 332.542, 954.556 332.677, 972.786 332.243 C 984.179 331.971, 993.999 331.353, 994.608 330.870 C 995.302 330.320, 995.969 322.979, 996.392 311.245 C 997.388 283.618, 998.827 260.363, 1000.554 244 C 1006.927 183.612, 1020.710 134.275, 1030.676 136.172 C 1036.675 137.314, 1046.081 161.629, 1052.416 192.376 C 1059.858 228.492, 1064.981 283.953, 1064.995 328.559 C 1064.999 340.548, 1065.346 345.091, 1066.366 346.486 C 1067.637 348.224, 1069.225 348.336, 1089.116 348.102 C 1107.467 347.886, 1110.767 347.613, 1112.384 346.175 C 1114.150 344.605, 1114.227 343.313, 1113.611 325.500 C 1111.689 269.848, 1106.292 230.415, 1094.995 189.480 C 1085.163 153.858, 1069.784 123.703, 1055.378 111.798 C 1046.786 104.698, 1041.680 102.674, 1031.500 102.330 C 1025.555 102.130, 1021.275 102.497, 1018.890 103.413 M 1020 111.206 C 1005.566 116.979, 990.073 141.026, 979.543 174 C 974.037 191.241, 973.530 192.500, 972.089 192.500 C 971.259 192.500, 968.791 186.500, 965.509 176.500 C 959.421 157.955, 956.032 150.141, 949.087 138.644 C 938.918 121.809, 928.361 114, 915.770 114 C 903.953 114, 895.148 119.957, 885.473 134.498 C 867.461 161.568, 854.086 205.297, 847.087 260 C 843.462 288.328, 839.862 345.252, 841.635 346.204 C 842.111 346.460, 849.475 346.406, 858 346.084 L 873.500 345.500 874.197 322.500 C 875.482 280.062, 877.990 247.401, 882.052 220.202 C 892.742 148.625, 908.389 118.734, 925.167 137.843 C 929.247 142.490, 932.917 150.687, 937.327 165 C 947.527 198.109, 953.940 246.023, 955.799 303 L 956.500 324.500 972.272 324.776 C 984.377 324.987, 988.135 324.754, 988.437 323.776 C 988.654 323.074, 989.316 309.225, 989.910 293 C 991.694 244.248, 995.122 215.683, 1003.712 178 C 1011.246 144.949, 1020.186 128, 1030.084 128 C 1044.851 128, 1059.708 173.133, 1067.446 241.500 C 1070.136 265.267, 1071.073 279.233, 1071.990 309.264 C 1072.490 325.635, 1073.174 339.472, 1073.509 340.014 C 1073.868 340.596, 1080.720 341, 1090.218 341 L 1106.318 341 1105.666 318.750 C 1103.346 239.647, 1087.327 170.273, 1062.531 131.943 C 1050.160 112.818, 1034.751 105.305, 1020 111.206 M 485.275 161.518 C 464.897 167.090, 440.439 188.620, 428.998 211.060 C 425.197 218.514, 423.571 219.827, 421.008 217.508 C 418.593 215.321, 416.399 215.702, 403.300 220.578 C 361.165 236.263, 326.441 264.279, 305.371 299.587 C 285.506 332.875, 273.959 375.935, 274.020 416.494 C 274.098 469.084, 293.175 509.416, 330.525 535.961 C 351.796 551.078, 380.300 562.069, 412.231 567.466 C 475.989 578.242, 546.738 568.348, 600.738 541.105 C 644.691 518.931, 674.482 486.070, 685.939 447.125 C 690.072 433.074, 691.378 423.097, 691.320 406 C 691.138 351.826, 664.845 286.570, 628.822 250.884 C 604.754 227.041, 575.392 211.255, 545.392 206.028 C 539.469 204.996, 539.061 205.069, 531.892 208.458 C 522.781 212.764, 517.637 213.449, 517.202 210.413 C 516.962 208.736, 518.534 207.379, 525.202 203.505 C 534.303 198.218, 546 187.734, 546 184.865 C 546 179.159, 529.410 177.582, 515 181.917 C 506.095 184.596, 492.704 191.470, 486.523 196.535 C 482.289 200.004, 479.079 200.741, 478.306 198.419 C 478.108 197.825, 480.273 193.775, 483.117 189.419 C 490.876 177.535, 496.199 166.597, 495.823 163.313 C 495.428 159.868, 492.888 159.436, 485.275 161.518 M 676 172.032 C 653.961 174.639, 634.722 184.064, 620.432 199.253 C 613.542 206.577, 606.917 216.385, 606.643 219.666 C 606.557 220.699, 609.021 223.277, 612.835 226.145 C 616.319 228.764, 622.462 233.853, 626.485 237.454 C 630.508 241.054, 634.197 244, 634.684 244 C 635.171 244, 636.428 242.545, 637.479 240.767 C 642.789 231.777, 654.845 222.799, 665.932 219.578 C 682.312 214.819, 701.555 220.104, 715.565 233.210 C 730.088 246.796, 738.191 263.780, 740.562 285.607 C 741.986 298.713, 736.906 319.668, 729.195 332.500 C 723.774 341.519, 710.905 353.881, 702.500 358.141 C 697.347 360.754, 695.532 362.193, 695.621 363.595 C 695.979 369.207, 700.232 394.621, 700.932 395.326 C 701.975 396.376, 710.177 393.958, 716.588 390.709 C 733.686 382.045, 747.023 365.030, 751.054 346.738 C 753.247 336.786, 756.712 336.668, 758.906 346.471 C 759.582 349.493, 760.514 352.200, 760.977 352.486 C 762.327 353.320, 767.102 346.999, 770.030 340.500 C 774.435 330.723, 775.500 324.684, 775.499 309.500 C 775.499 295.881, 775.397 295.217, 771.784 285.098 C 769.741 279.377, 768.306 274.314, 768.594 273.848 C 769.710 272.042, 772.490 273.176, 777.552 277.500 C 780.449 279.975, 783.310 282, 783.909 282 C 787.058 282, 783.952 261.437, 779.176 250.658 C 773.235 237.249, 759.838 222.390, 748 216.081 C 741.298 212.509, 739.920 210.652, 742.244 208.327 C 743.533 207.039, 744.831 206.975, 750.823 207.905 C 754.706 208.507, 758.359 209, 758.942 209 C 761.335 209, 759.678 205.767, 754.320 199.979 C 740.159 184.683, 719.154 174.688, 695.666 172.069 C 685.253 170.908, 685.496 170.908, 676 172.032 M 1170.532 193.250 C 1169.559 205.646, 1170.312 249.955, 1171.500 250.251 C 1172.147 250.412, 1172.593 238.952, 1172.764 217.750 C 1172.921 198.192, 1172.655 185, 1172.103 185 C 1171.595 185, 1170.888 188.713, 1170.532 193.250 M 204.655 225.597 C 176.760 230.637, 148.314 247.314, 131.474 268.500 C 122.791 279.425, 115.227 296, 118.926 296 C 119.435 296, 123.573 294.200, 128.123 292 C 143.529 284.550, 147.075 287.330, 136.202 298.336 C 121.735 312.980, 112.984 331.755, 110.817 352.801 C 109.879 361.907, 109.963 364.691, 111.380 371.500 C 113.094 379.734, 116.733 388.342, 118.500 388.342 C 119.050 388.343, 120.926 385.903, 122.668 382.921 C 128.741 372.530, 129.540 371.500, 131.521 371.500 C 133.354 371.500, 133.546 372.422, 134.128 384 C 135.020 401.761, 140.563 417.292, 150.715 430.475 C 158.168 440.154, 173.854 450.551, 182.019 451.224 C 184.828 451.456, 185.454 451.116, 185.954 449.090 C 186.280 447.765, 187.686 445.830, 189.077 444.792 C 191.603 442.906, 191.616 442.908, 200.053 446.931 C 213.252 453.224, 219.303 454.505, 235.500 454.438 C 246.904 454.390, 251.022 453.955, 257.709 452.091 C 262.225 450.833, 266.386 449.239, 266.958 448.551 C 267.670 447.693, 267.684 444.807, 267.005 439.399 C 266.459 435.055, 265.897 429.700, 265.756 427.500 C 265.462 422.912, 266.403 423.060, 252.630 425.433 C 219.871 431.077, 187.125 414.079, 174.969 385.118 C 171.681 377.287, 169.004 364.616, 169.001 356.881 C 168.999 349.321, 171.831 335.375, 175.076 326.958 C 184.035 303.726, 204.695 285.062, 226.500 280.499 C 247.735 276.056, 269.711 283.166, 285.658 299.639 C 289.045 303.137, 292.075 306, 292.391 306 C 292.708 306, 294.162 303.637, 295.624 300.750 C 298.709 294.656, 306.803 282.395, 311.820 276.214 C 315.989 271.079, 315.846 270.633, 306.688 260.303 C 290.194 241.698, 269.855 229.937, 246.417 225.453 C 236.863 223.625, 215.156 223.700, 204.655 225.597 M 671.270 226.054 C 660.899 228.101, 649.245 235.745, 643.510 244.262 C 641.579 247.128, 640 249.738, 640 250.061 C 640 250.384, 642.520 253.540, 645.600 257.074 C 660.431 274.093, 677.696 306.092, 686.924 333.667 C 689.716 342.008, 692 349.491, 692 350.294 C 692 356.777, 701.936 352.317, 713.562 340.615 C 727.166 326.922, 733.312 311.395, 733.400 290.500 C 733.437 281.715, 732.980 277.995, 731.126 272.025 C 721.306 240.391, 696.226 221.129, 671.270 226.054 M 1186.558 257.775 C 1185.679 258.654, 1185.907 284.825, 1186.798 285.375 C 1187.237 285.647, 1196.800 287.454, 1208.048 289.392 C 1219.297 291.330, 1237.725 294.530, 1249 296.503 C 1260.275 298.476, 1276.025 301.208, 1284 302.575 C 1313.551 307.640, 1339.056 312.200, 1359 315.984 C 1384.489 320.821, 1429.479 328.803, 1433.500 329.202 L 1436.500 329.500 1436.783 317.583 C 1436.939 311.029, 1436.679 305.279, 1436.207 304.807 C 1435.734 304.334, 1430.431 303.090, 1424.423 302.042 C 1418.416 300.995, 1408.550 299.180, 1402.500 298.010 C 1367.497 291.237, 1324.089 282.797, 1315 280.998 C 1309.225 279.854, 1291 276.446, 1274.500 273.423 C 1235.704 266.316, 1190.968 258.046, 1188.808 257.581 C 1187.877 257.381, 1186.865 257.469, 1186.558 257.775 M 580.383 279.914 C 575.997 281.905, 573 285.291, 573 288.254 C 573 291.019, 575.677 291.449, 580.195 289.412 C 588.540 285.649, 598.968 287.888, 607.845 295.348 C 617.836 303.746, 620.605 295.297, 610.773 286.414 C 601.887 278.386, 589.555 275.748, 580.383 279.914 M 229 288.130 C 219.997 289.597, 208.246 295.860, 200.127 303.519 C 171.707 330.329, 169.104 375.119, 194.488 400.516 C 206.975 413.009, 222.393 419.060, 241.410 418.932 C 247.398 418.891, 254.142 418.180, 258 417.182 C 264.424 415.520, 264.508 415.453, 265.180 411.500 C 265.555 409.300, 266.341 401.425, 266.929 394 C 268.864 369.536, 275.342 343.642, 284.670 323.089 C 286.519 319.013, 287.792 314.920, 287.498 313.993 C 287.204 313.066, 283.752 309.096, 279.827 305.172 C 274.317 299.662, 270.617 297.018, 263.595 293.572 C 250.952 287.368, 242.162 285.985, 229 288.130 M 1186.510 292.823 C 1186.230 293.104, 1186 312.348, 1186 335.589 L 1186 377.845 1193.250 382.183 L 1200.500 386.521 1200.762 425.054 C 1200.979 457.021, 1200.782 463.916, 1199.607 465.523 C 1198.585 466.921, 1196.561 467.606, 1192.345 467.980 L 1186.500 468.500 1186.246 604.446 C 1186.107 679.217, 1186.332 740.701, 1186.746 741.078 C 1187.161 741.455, 1198.975 741.393, 1213 740.939 C 1227.025 740.486, 1264.372 739.378, 1295.994 738.477 C 1328.619 737.548, 1353.989 736.424, 1354.645 735.879 C 1355.282 735.351, 1357.084 732.360, 1358.651 729.232 C 1362.514 721.522, 1371.127 713.062, 1378.262 709.971 C 1381.399 708.612, 1383.974 707.275, 1383.984 707 C 1383.995 706.725, 1377.815 706.598, 1370.251 706.718 C 1225.721 709.013, 1213.833 709.106, 1212.443 707.953 C 1211.204 706.924, 1211 692.943, 1211 608.901 L 1211 511.046 1213.282 509.551 C 1215.302 508.228, 1217.406 508.222, 1231.532 509.504 C 1248.686 511.061, 1278.474 513.467, 1299.500 514.994 C 1320.109 516.492, 1388.992 521.889, 1394.500 522.438 C 1397.250 522.712, 1406.250 523.661, 1414.500 524.547 L 1429.500 526.158 1442 521.683 C 1448.875 519.221, 1456.188 516.675, 1458.250 516.026 C 1465.162 513.849, 1462.765 512.618, 1449.500 511.532 C 1445.650 511.216, 1424.275 509.179, 1402 507.005 C 1379.725 504.830, 1354.075 502.374, 1345 501.546 C 1328.889 500.076, 1284.977 495.950, 1266 494.123 C 1254.960 493.061, 1239.760 495.146, 1242.083 497.405 C 1242.313 497.628, 1248.350 498.333, 1255.500 498.973 C 1275.098 500.725, 1279.553 501.394, 1279 502.500 C 1277.757 504.985, 1224.871 500.636, 1221.250 497.751 C 1220.279 496.977, 1220 485.213, 1220 445.033 C 1220 396.195, 1220.102 393.218, 1221.829 391.655 C 1222.835 390.745, 1225.056 390, 1226.765 390 C 1231.665 390, 1306.848 399.880, 1417.500 415.064 C 1421.350 415.592, 1425.850 416.131, 1427.500 416.262 L 1430.500 416.500 1430.500 376.023 L 1430.500 335.546 1425.500 334.751 C 1422.750 334.313, 1413.075 332.631, 1404 331.012 C 1358.270 322.857, 1333.840 318.471, 1306.500 313.511 C 1290 310.518, 1259.625 305.143, 1239 301.566 C 1218.375 297.990, 1198.242 294.445, 1194.260 293.688 C 1190.279 292.932, 1186.791 292.542, 1186.510 292.823 M 383.011 316.211 C 375.165 319.223, 366.800 327.787, 364.463 335.200 C 362.510 341.394, 362.941 344, 365.915 344 C 367.202 344, 369.162 342.089, 371.526 338.527 C 378.047 328.703, 389.736 322.208, 398.596 323.486 C 405.799 324.524, 407.154 319.893, 400.784 316.009 C 396.531 313.417, 390.101 313.490, 383.011 316.211 M 495.300 344.804 C 484.407 348.689, 477.250 355.647, 470.925 368.500 C 464.786 380.974, 462.902 389.828, 462.303 409 C 461.896 422.021, 462.124 426.928, 463.384 432.271 C 468.377 453.446, 482.211 464.104, 506.500 465.490 L 513.500 465.889 513.803 470.411 C 514.228 476.733, 513.001 478.425, 506.988 479.813 C 499.703 481.495, 494.476 481.294, 485.410 478.985 C 472.267 475.638, 463.215 470.324, 457.871 462.819 L 455.772 459.871 458.033 457.465 C 459.907 455.470, 460.076 454.797, 459.024 453.529 C 457.310 451.463, 455.376 451.605, 451.354 454.090 C 447.312 456.588, 441.602 464.521, 442.383 466.555 C 443.106 468.440, 445.901 468.400, 448.029 466.474 C 449.568 465.081, 450.042 465.346, 453.443 469.495 C 456.497 473.222, 457.692 476.100, 460.067 485.435 C 465.729 507.695, 470.263 517.309, 479.467 526.572 C 486.499 533.649, 493.855 537.467, 503.719 539.159 C 509.639 540.174, 511.593 540.094, 517.556 538.597 C 525.585 536.580, 529.605 534.326, 536.329 528.071 C 545.661 519.389, 554.078 500.266, 557.048 481 C 558.204 473.497, 558.790 472.021, 562.048 468.414 C 564.078 466.166, 566.473 463.129, 567.370 461.664 C 568.266 460.199, 569.684 457.877, 570.520 456.504 C 571.832 454.350, 572.308 454.176, 573.995 455.229 C 575.428 456.124, 576.247 456.153, 577.060 455.340 C 579.424 452.976, 571.329 443, 567.046 443 C 564.263 443, 562.461 445.646, 563.989 447.487 C 565.678 449.522, 564.545 453.414, 560.708 458.757 C 553.354 468.997, 531.152 480.043, 523.765 477.137 C 521.187 476.123, 521.063 475.787, 521.600 471.280 C 522.438 464.251, 522.382 464.321, 528.684 462.501 C 541.451 458.816, 554.195 449.419, 558.881 440.233 C 562.486 433.168, 564.281 423.454, 563.582 414.794 C 562.375 399.830, 554.151 377.887, 545.217 365.794 C 539.564 358.142, 529.973 349.623, 523.378 346.397 C 515.822 342.700, 503.206 341.984, 495.300 344.804 M 592.005 347.744 C 589.192 348.736, 585.417 351.423, 581.918 354.922 C 575.172 361.668, 572 369.069, 572 378.062 C 572 383.569, 572.206 384.128, 574.565 385.025 C 577.940 386.308, 580.796 384.759, 581.577 381.221 C 584.901 366.161, 591.622 359, 602.433 359 C 611.073 359, 617.796 363.717, 622.562 373.122 C 624.642 377.227, 625.482 378, 627.862 378 C 629.421 378, 631.503 377.102, 632.502 375.997 C 634.111 374.220, 634.175 373.517, 633.068 369.747 C 627.839 351.937, 608.894 341.785, 592.005 347.744 M 498.308 352.880 C 489.504 356.153, 483.870 361.432, 479.021 370.952 C 471.131 386.442, 467.991 410.322, 471.460 428.452 C 475.020 447.061, 485.458 455.598, 506 456.702 C 527.263 457.845, 545.775 448.805, 552.399 434.045 C 558.284 420.932, 556.092 404.911, 545.436 383.157 C 540.735 373.559, 538.697 370.624, 532.190 364.077 C 527.859 359.719, 522.419 355.349, 519.736 354.073 C 513.084 350.910, 504.842 350.451, 498.308 352.880 M 763.216 361.756 C 761.410 362.968, 760.416 363.055, 758.470 362.168 C 756.143 361.108, 755.868 361.331, 753.393 366.274 C 751.954 369.148, 749.027 373.792, 746.888 376.592 C 744.750 379.393, 743 382.030, 743 382.453 C 743 383.441, 764.095 382.717, 765.750 381.671 C 767.131 380.799, 767.591 361.471, 766.250 360.670 C 765.837 360.424, 764.472 360.913, 763.216 361.756 M 401 381.885 C 387.198 386.374, 377.780 398.843, 376.311 414.573 C 375.763 420.439, 375.873 420.870, 378.317 422.472 C 381.216 424.371, 384.513 423.809, 385.873 421.182 C 386.352 420.257, 387.045 417.425, 387.413 414.888 C 389.187 402.646, 399.783 393.424, 411.160 394.219 C 418.503 394.732, 423.726 398.156, 428.740 405.743 C 432.667 411.685, 435.721 413.306, 438.555 410.954 C 444.016 406.422, 433.809 389.501, 422.195 383.834 C 417.184 381.389, 405.757 380.338, 401 381.885 M 1226.667 397.667 C 1226.300 398.033, 1226 419.408, 1226 445.167 C 1226 481.966, 1226.268 492, 1227.250 492.001 C 1227.938 492.001, 1234.492 490.806, 1241.815 489.346 L 1255.130 486.690 1280.265 488.845 C 1294.089 490.031, 1305.744 490.656, 1306.164 490.236 C 1307.898 488.502, 1276.800 404.541, 1273.842 402.969 C 1273.104 402.577, 1269.575 401.948, 1266 401.570 C 1262.425 401.193, 1253.306 400.010, 1245.736 398.942 C 1230.889 396.847, 1227.700 396.634, 1226.667 397.667 M 704.596 403.892 L 700.692 404.500 700.289 414 C 700.067 419.225, 698.787 428.957, 697.443 435.626 C 696.099 442.295, 695 448.277, 695 448.919 C 695 449.730, 697.220 449.998, 702.250 449.794 L 709.500 449.500 711.664 443 C 713.651 437.032, 713.782 435.129, 713.266 419.750 C 712.635 400.934, 713.494 402.506, 704.596 403.892 M 1283 405.145 C 1283 405.899, 1285.043 411.688, 1287.540 418.008 C 1293.553 433.226, 1309.294 475.674, 1312.197 484.500 C 1314.363 491.084, 1314.708 491.541, 1318 492.192 C 1325.207 493.617, 1365.367 497.032, 1366.089 496.281 C 1367.309 495.014, 1336.432 414.277, 1333.608 411.352 C 1332.999 410.720, 1323.275 409.013, 1312 407.558 C 1300.725 406.103, 1289.588 404.657, 1287.250 404.343 C 1284.038 403.912, 1283 404.108, 1283 405.145 M 1342.611 412.820 C 1342.252 413.401, 1345.618 423.016, 1350.089 434.188 C 1354.561 445.360, 1361.769 463.926, 1366.108 475.448 C 1370.446 486.969, 1374.353 496.753, 1374.791 497.191 C 1376.070 498.470, 1420.896 502.504, 1421.960 501.436 C 1423.183 500.208, 1392.533 422.263, 1389.649 419.267 C 1388.996 418.589, 1380.371 416.922, 1370.481 415.562 C 1360.592 414.203, 1350.422 412.792, 1347.882 412.427 C 1345.009 412.015, 1343.017 412.163, 1342.611 412.820 M 1398 420.332 C 1398 421.152, 1399.614 425.575, 1401.587 430.161 C 1407.750 444.492, 1423.088 483.060, 1426.569 492.983 C 1429.202 500.489, 1430.376 502.613, 1432.198 503.175 C 1434.114 503.766, 1467.730 507.021, 1471.750 507.005 C 1472.438 507.002, 1473 506.413, 1473 505.695 C 1473 502.673, 1440.966 428.997, 1438.287 425.858 C 1437.457 424.886, 1434.563 423.952, 1431.193 423.568 C 1422.980 422.632, 1403.971 420.020, 1400.750 419.384 C 1398.737 418.987, 1398 419.241, 1398 420.332 M 1117.500 446.058 C 1102.100 446.469, 1063.850 447.319, 1032.500 447.947 C 1001.150 448.576, 960.200 449.504, 941.500 450.010 C 922.800 450.516, 886.125 451.427, 860 452.035 C 833.875 452.642, 811.938 453.319, 811.250 453.538 C 810.563 453.758, 809.990 455.414, 809.978 457.219 C 809.966 459.023, 809.049 462.500, 807.940 464.945 L 805.923 469.389 808.987 471.787 C 814.629 476.202, 816.491 484.497, 813.465 491.737 C 809.681 500.794, 794.442 515.754, 779.329 525.248 C 775.363 527.739, 770.448 532.310, 765.579 538.036 L 758 546.946 758 640.914 C 758 692.596, 758.337 735.078, 758.750 735.318 C 759.163 735.558, 772.775 735.922, 789 736.127 L 818.500 736.500 819 609.014 C 819.490 483.981, 819.537 481.520, 821.434 481.155 C 826.131 480.251, 826 476.576, 826 609.723 C 826 722.441, 826.157 735.123, 827.562 735.662 C 828.422 735.992, 831.909 735.865, 835.312 735.381 L 841.500 734.500 841.754 607.778 L 842.008 481.055 839.181 479.594 C 836.086 477.993, 833.426 475.240, 834.214 474.453 C 834.729 473.937, 861.199 472.830, 916.500 471.009 C 947.646 469.984, 977.012 469.184, 1065.442 466.950 C 1089.060 466.353, 1109.148 465.456, 1110.082 464.956 C 1111.015 464.457, 1128.816 463.523, 1149.639 462.880 C 1170.463 462.238, 1187.694 461.546, 1187.932 461.341 C 1189.003 460.420, 1181.398 454.096, 1175.183 450.739 C 1168.087 446.906, 1159.018 444.903, 1150 445.176 C 1147.525 445.251, 1132.900 445.648, 1117.500 446.058 M 695.619 457.869 C 691.795 458.491, 691.659 458.667, 686.439 469.750 C 683.524 475.938, 681.484 481, 681.906 481 C 682.913 481, 702.837 467.380, 705.795 464.669 C 707.278 463.311, 707.986 461.669, 707.795 460.033 C 707.537 457.820, 706.995 457.483, 703.500 457.369 C 701.300 457.297, 697.753 457.522, 695.619 457.869 M 749.483 463.027 C 749.134 463.592, 749.888 466.180, 751.158 468.777 C 752.794 472.120, 753.577 475.765, 753.840 481.250 C 754.045 485.512, 754.637 489, 755.157 489 C 756.800 489, 759.001 482.251, 758.978 477.282 C 758.952 471.710, 756.048 464.631, 753.151 463.081 C 750.654 461.744, 750.279 461.739, 749.483 463.027 M 1134.625 469.954 L 1114.750 470.500 1114.931 605 C 1115.030 678.975, 1115.424 739.802, 1115.806 740.171 C 1116.188 740.540, 1130.450 740.990, 1147.500 741.171 L 1178.500 741.500 1178.500 605.500 L 1178.500 469.500 1166.500 469.454 C 1159.900 469.428, 1145.556 469.653, 1134.625 469.954 M 1059 474.541 C 1035.075 475.250, 998.625 476.374, 978 477.039 C 957.375 477.705, 920.025 478.756, 895 479.375 L 849.500 480.500 849.500 495 L 849.500 509.500 869 509.207 C 879.725 509.046, 917.975 508.254, 954 507.448 C 990.025 506.642, 1039.159 505.689, 1063.188 505.330 L 1106.875 504.677 1107.503 498.589 C 1107.848 495.240, 1107.988 488.225, 1107.815 483 C 1107.505 473.656, 1107.459 473.498, 1105 473.377 C 1103.625 473.309, 1082.925 473.833, 1059 474.541 M 485.500 505.549 C 483.300 506.373, 480.438 507.863, 479.140 508.861 C 476.830 510.636, 476.816 510.743, 478.481 513.962 C 479.416 515.771, 482.180 519.193, 484.623 521.567 C 498.002 534.571, 517.314 535.270, 530.199 523.217 C 532.840 520.747, 535 518.339, 535 517.866 C 535 516.161, 527.557 508.815, 523.983 506.991 C 520.325 505.125, 517.465 504.553, 513.250 504.844 C 511.451 504.969, 511 505.602, 511 508 C 511 509.650, 510.580 511, 510.066 511 C 509.553 511, 506.855 509.584, 504.072 507.854 C 498.100 504.142, 491.458 503.317, 485.500 505.549 M 1332.313 509.454 C 1332.693 510.610, 1357.684 512.650, 1358.723 511.610 C 1360.380 509.953, 1356.490 509.174, 1344.735 508.807 C 1336.131 508.538, 1332.081 508.749, 1332.313 509.454 M 1013.647 513.059 C 992.636 513.552, 981.417 514.183, 980.686 514.914 C 979.205 516.395, 979.021 791.450, 980.500 792.838 C 981.299 793.588, 1025.508 794.875, 1103.500 796.421 L 1107.500 796.500 1107.500 654.500 L 1107.500 512.500 1076.500 512.406 C 1059.450 512.354, 1031.166 512.648, 1013.647 513.059 M 894.500 515.207 C 870.850 515.698, 850.936 516.288, 850.246 516.520 C 849.248 516.854, 849.045 544.799, 849.246 653.720 L 849.500 790.500 875 791.140 C 889.025 791.492, 916.700 791.942, 936.500 792.140 L 972.500 792.500 972.500 653.500 L 972.500 514.500 955 514.407 C 945.375 514.357, 918.150 514.716, 894.500 515.207 M 1217.498 516.153 C 1217.215 516.894, 1217.100 559.125, 1217.242 610 L 1217.500 702.500 1246.500 702.214 C 1327.086 701.418, 1403.578 699.812, 1404.500 698.895 C 1405.151 698.248, 1405.500 668.671, 1405.500 614.200 L 1405.500 530.500 1399 529.750 C 1395.425 529.338, 1378.325 527.881, 1361 526.514 C 1343.675 525.146, 1315.550 522.906, 1298.500 521.536 C 1281.450 520.166, 1258.950 518.362, 1248.500 517.526 C 1238.050 516.690, 1226.915 515.736, 1223.756 515.406 C 1219.430 514.953, 1217.885 515.138, 1217.498 516.153 M 204.973 517.821 C 203.455 519.050, 202.890 520.272, 203.321 521.395 C 203.854 522.782, 205.052 523.044, 209.738 522.800 C 214.740 522.540, 215.540 522.219, 215.804 520.372 C 216.035 518.753, 215.437 518.084, 213.304 517.574 C 211.762 517.206, 209.775 516.691, 208.889 516.429 C 208.004 516.168, 206.241 516.794, 204.973 517.821 M 1016.857 528.749 C 999.360 528.983, 994.981 529.318, 994.001 530.498 C 992.419 532.404, 992.110 757.510, 993.687 759.087 C 994.309 759.709, 1012.663 760.464, 1041.514 761.053 C 1084.556 761.933, 1088.479 761.877, 1090.166 760.350 C 1091.924 758.758, 1092 753.987, 1092 644.545 C 1092 557.099, 1091.719 530.119, 1090.800 529.200 C 1089.603 528.003, 1077.914 527.931, 1016.857 528.749 M 1226.460 529.250 C 1226.198 529.938, 1226.099 566.275, 1226.242 610 L 1226.500 689.500 1309.467 689.175 C 1355.099 688.996, 1392.786 688.632, 1393.217 688.366 C 1393.648 688.100, 1394 655.047, 1394 614.916 L 1394 541.950 1391.600 541.038 C 1390.280 540.536, 1376.443 539.178, 1360.850 538.020 C 1345.258 536.862, 1308.930 534.134, 1280.122 531.957 C 1251.314 529.781, 1227.563 528, 1227.341 528 C 1227.119 528, 1226.723 528.563, 1226.460 529.250 M 1412.698 528.636 C 1412.314 529.019, 1412 567.704, 1412 614.602 C 1412 667.609, 1411.631 700.841, 1411.024 702.436 C 1410.089 704.895, 1410.326 705.128, 1416.705 708.020 C 1420.366 709.680, 1424.825 712.155, 1426.614 713.519 C 1428.403 714.884, 1430.122 716, 1430.433 716 C 1430.745 716, 1431 674.616, 1431 624.035 C 1431 519.734, 1432.049 530.730, 1422 529.719 C 1418.975 529.414, 1415.801 528.889, 1414.948 528.551 C 1414.094 528.214, 1413.082 528.252, 1412.698 528.636 M 896.402 530.951 C 873.843 531.377, 866.932 531.808, 865.652 532.872 C 864.134 534.133, 864 543.249, 864 645 C 864 733.681, 864.255 755.967, 865.278 756.816 C 866.127 757.520, 882.339 757.981, 913.528 758.188 L 960.500 758.500 960.754 645.608 C 960.940 563.015, 960.706 532.351, 959.882 531.358 C 958.666 529.893, 954.081 529.864, 896.402 530.951 M 1026.500 534.964 L 999.500 535.500 999.500 580 L 999.500 624.500 1005.931 625.114 C 1016.213 626.097, 1016 625.462, 1016 655.111 C 1016 684.989, 1016.251 684.384, 1003.500 685.233 L 999.500 685.500 999.237 719.276 C 999.024 746.577, 999.227 753.150, 1000.298 753.561 C 1001.027 753.840, 1020.495 754.166, 1043.561 754.285 L 1085.500 754.500 1085.500 644.500 L 1085.500 534.500 1069.500 534.464 C 1060.700 534.444, 1041.350 534.669, 1026.500 534.964 M 1231.960 536.603 C 1231.938 537.646, 1231.862 571.125, 1231.791 611 L 1231.661 683.500 1267.081 683.500 L 1302.500 683.500 1302.500 612.024 L 1302.500 540.548 1300 539.844 C 1298.625 539.456, 1286.025 538.406, 1272 537.509 C 1257.975 536.612, 1243.237 535.615, 1239.250 535.293 C 1232.601 534.755, 1231.997 534.864, 1231.960 536.603 M 900.949 536.976 C 885.246 537.339, 871.859 537.969, 871.199 538.377 C 870.279 538.946, 870 563.759, 870 645 C 870 703.235, 870.337 751.079, 870.750 751.319 C 871.163 751.560, 890.175 751.924, 913 752.128 L 954.500 752.500 954.500 719 L 954.500 685.500 949 684.969 C 942.057 684.299, 939.498 682.867, 938.105 678.872 C 937.431 676.939, 937 667.347, 937 654.301 C 937 626.916, 937.242 626.327, 949 625.082 L 954.500 624.500 954.500 580.500 L 954.500 536.500 942 536.408 C 935.125 536.358, 916.652 536.613, 900.949 536.976 M 1309.453 541.267 C 1309.194 541.945, 1309.099 574, 1309.241 612.500 L 1309.500 682.500 1313.615 682.801 C 1317.524 683.087, 1317.761 682.943, 1318.365 679.926 C 1318.714 678.179, 1319 646.417, 1319 609.344 C 1319 556.289, 1318.734 541.856, 1317.750 541.555 C 1313.565 540.276, 1309.881 540.148, 1309.453 541.267 M 1325.460 543.250 C 1325.197 543.938, 1325.099 575.550, 1325.241 613.500 L 1325.500 682.500 1356.500 682.500 L 1387.500 682.500 1387.500 614.500 L 1387.500 546.500 1378 545.749 C 1372.775 545.336, 1360.175 544.322, 1350 543.496 C 1327.597 541.678, 1326.066 541.663, 1325.460 543.250 M 742.469 563.097 C 721.862 584.146, 682.613 612.021, 656.645 624.048 C 651.358 626.496, 647.025 629.016, 647.016 629.647 C 647.007 630.278, 648.779 636.128, 650.953 642.647 C 653.127 649.166, 656.085 660.346, 657.527 667.491 C 658.968 674.635, 660.309 680.643, 660.507 680.840 C 660.705 681.038, 680.647 681.417, 704.823 681.683 C 740.759 682.078, 748.932 681.923, 749.618 680.833 C 750.523 679.393, 751.356 562.969, 750.488 559.250 C 750.198 558.013, 749.619 557, 749.200 557 C 748.780 557, 745.751 559.744, 742.469 563.097 M 582 558.911 C 578.998 560.696, 558.137 567.233, 543.500 570.976 C 514.835 578.307, 477.432 581.798, 447.689 579.920 C 438.884 579.364, 431.125 579.122, 430.446 579.382 C 428.987 579.942, 426.026 588.617, 422.556 602.500 C 412.601 642.323, 411.244 679.172, 418.688 707.495 C 424.640 730.138, 433.011 744.946, 448.152 759.621 C 467.966 778.823, 491.730 788, 521.641 788 C 554.891 788, 586.565 772.680, 605.332 747.519 C 629.242 715.466, 631.931 672.796, 613.527 617.500 C 607.442 599.217, 601.517 585.283, 593.115 569.500 C 587.245 558.474, 585.513 556.823, 582 558.911 M 944.655 632.829 C 943.231 634.402, 943 637.449, 943 654.638 C 943 677.795, 943.156 678.308, 950.036 677.818 L 954.500 677.500 954.770 655.626 C 954.959 640.334, 954.696 633.339, 953.897 632.376 C 952.248 630.389, 946.614 630.665, 944.655 632.829 M 999.667 631.667 C 998.398 632.936, 998.901 676.501, 1000.200 677.800 C 1000.860 678.460, 1002.795 679, 1004.500 679 C 1009.877 679, 1010 678.461, 1010 655 C 1010 639.533, 1009.659 633.059, 1008.800 632.200 C 1007.530 630.930, 1000.796 630.537, 999.667 631.667 M 137.890 637.319 C 134.254 638.634, 130.654 640.080, 129.890 640.534 C 121.948 645.247, 112.188 657.680, 109.507 666.500 C 106.977 674.822, 106.576 684.646, 108.467 692 C 112.023 705.831, 111.849 706.228, 103.854 702.524 C 93.730 697.833, 86.039 698.284, 76.881 704.105 C 73.112 706.500, 71.855 708.094, 70.050 712.770 C 66.696 721.458, 66.374 727.579, 68.842 735.706 C 69.997 739.509, 72.332 744.538, 74.030 746.883 C 78.412 752.932, 77.777 754.583, 71.220 754.179 C 62.471 753.640, 55.303 756.348, 49.383 762.427 C 38.281 773.830, 38.195 790.117, 49.166 803.395 L 52.385 807.290 66.942 806.626 C 74.949 806.260, 90.050 805.532, 100.500 805.008 C 110.950 804.483, 140.425 803.147, 166 802.039 C 191.575 800.931, 222.625 799.583, 235 799.043 C 247.375 798.504, 267.032 797.772, 278.683 797.417 C 298.626 796.810, 299.984 796.646, 301.885 794.622 C 306.812 789.378, 308.225 781.102, 305.399 774.039 C 303.486 769.257, 299.331 766.446, 292.738 765.472 C 290.118 765.086, 287.759 764.419, 287.494 763.991 C 287.230 763.563, 287.732 761.492, 288.611 759.388 C 290.669 754.463, 290.092 745.732, 287.360 740.447 C 286.089 737.990, 283.493 735.367, 280.483 733.500 C 276.275 730.889, 274.730 730.505, 268.574 730.539 C 263.191 730.569, 260.455 731.126, 257.131 732.870 C 250.908 736.135, 250.156 734.814, 253.106 725.806 C 257.950 711.022, 255.036 696.897, 245.290 687.913 C 239.041 682.153, 232.991 679.706, 225 679.706 C 216.963 679.706, 210.956 682.156, 204.577 688.036 C 200.674 691.634, 199.776 692.059, 198.434 690.945 C 197.229 689.945, 197.009 688.568, 197.493 685.053 C 198.297 679.204, 195.852 667.263, 192.410 660.226 C 188.290 651.805, 180.012 643.609, 171.257 639.282 C 164.397 635.892, 162.866 635.532, 154.112 635.245 C 145.977 634.978, 143.485 635.297, 137.890 637.319 M 1445.646 687.003 C 1438.576 690.533, 1438.883 689.459, 1439.244 709.407 C 1439.553 726.430, 1439.729 727.855, 1442.222 733.500 C 1443.743 736.942, 1445.226 742.697, 1445.701 747 C 1446.443 753.711, 1446.739 754.464, 1448.515 754.162 C 1449.607 753.976, 1453.875 753.787, 1458 753.743 C 1467.558 753.640, 1473 755.951, 1480.869 763.456 C 1484.094 766.532, 1487.604 769, 1488.755 769 C 1491.152 769, 1497.972 761.686, 1500.455 756.453 C 1504.897 747.092, 1504.645 738.220, 1499.728 730.925 C 1495.743 725.011, 1491.393 722.797, 1484.500 723.173 C 1478.623 723.493, 1478.505 723.449, 1478.754 721 C 1480.281 705.989, 1480.263 705.482, 1478.006 700.235 C 1475.320 693.993, 1468.654 687.553, 1463.355 686.081 C 1457.481 684.451, 1449.978 684.841, 1445.646 687.003 M 661.453 689.077 C 660.415 690.756, 662.111 691.920, 670.738 695.451 L 678.672 698.699 714.586 699.100 L 750.500 699.500 750.500 694 L 750.500 688.500 706.315 688.240 C 675.062 688.055, 661.932 688.300, 661.453 689.077 M 691 705.724 C 691 706.295, 692.688 708.043, 694.750 709.608 C 701.354 714.620, 707.152 720.323, 712.709 727.274 L 718.124 734.049 734.312 733.774 L 750.500 733.500 750.781 720.581 C 750.936 713.476, 750.708 707.308, 750.275 706.875 C 749.019 705.619, 691 704.492, 691 705.724 M 1389.994 713.359 C 1372.500 718.441, 1360 735.012, 1360 753.120 C 1360 760.981, 1358.303 761.691, 1352.676 756.183 C 1346.832 750.463, 1339.982 747.570, 1332.376 747.610 C 1316.704 747.693, 1304.775 760.505, 1304.581 777.460 C 1304.536 781.332, 1304.885 785.733, 1305.356 787.241 C 1306.039 789.427, 1305.860 790.117, 1304.470 790.650 C 1303.512 791.017, 1302.002 790.801, 1301.114 790.170 C 1295.666 786.293, 1291.251 784.743, 1285.540 784.705 C 1272.058 784.614, 1262.874 794.439, 1264.363 807.362 C 1264.688 810.188, 1265.077 813.612, 1265.227 814.970 C 1265.476 817.220, 1265.059 817.505, 1260.564 818.164 C 1254.688 819.025, 1251.130 821.407, 1248.752 826.071 C 1246.463 830.559, 1246.537 835.171, 1248.972 839.945 C 1252.925 847.694, 1252.520 847.596, 1283.680 848.355 C 1339.186 849.707, 1422.076 852.054, 1447 852.978 C 1461.025 853.498, 1476.682 853.941, 1481.793 853.962 L 1491.086 854 1496.046 849.360 C 1500.070 845.596, 1501.391 843.474, 1503.048 838.110 C 1505.318 830.763, 1505.020 825.986, 1501.909 819.847 C 1498.194 812.516, 1488.362 807.178, 1481.208 808.608 C 1476.865 809.477, 1476.384 807.547, 1479.512 801.800 C 1485.442 790.906, 1483.633 777.538, 1475.071 768.976 C 1465.838 759.743, 1452.488 758.532, 1442.030 765.979 C 1436.489 769.924, 1434.271 768.318, 1436.507 761.981 C 1439.455 753.625, 1437.782 740.423, 1432.671 731.702 C 1429.156 725.704, 1420.920 718.310, 1414.458 715.352 C 1407.823 712.314, 1396.708 711.409, 1389.994 713.359 M 722 740.638 C 722 740.994, 723.555 745.217, 725.456 750.024 C 727.356 754.830, 729.437 760.849, 730.079 763.398 C 730.721 765.948, 731.534 768.212, 731.885 768.429 C 732.237 768.646, 736.569 768.289, 741.512 767.635 L 750.500 766.445 750.781 754.203 C 750.994 744.929, 750.751 741.865, 749.781 741.564 C 747.415 740.832, 722 739.985, 722 740.638 M 758.750 742.549 C 758.337 742.981, 758 748.857, 758 755.608 L 758 767.883 764.172 771.172 C 773.839 776.325, 781.110 784.647, 784.357 794.274 C 784.904 795.894, 786.417 796.025, 801.728 795.774 L 818.500 795.500 818.768 770.068 C 818.915 756.080, 818.690 744.303, 818.268 743.898 C 817.208 742.880, 759.680 741.577, 758.750 742.549 M 828.342 742.997 C 826.503 743.739, 826.087 744.952, 825.532 751.184 C 825.174 755.208, 825.021 766.375, 825.191 776 L 825.500 793.500 828.932 793.222 C 832.932 792.897, 835.097 791.416, 834.364 789.505 C 834.079 788.763, 834.340 787.234, 834.943 786.107 C 835.807 784.492, 836.671 784.184, 839.020 784.654 L 842 785.250 842 763.625 L 842 742 836.250 742.063 C 833.087 742.098, 829.529 742.519, 828.342 742.997 M 1350.150 743.950 C 1350.580 745.239, 1351.951 745.471, 1352.075 744.275 C 1352.116 743.876, 1351.610 743.370, 1350.950 743.150 C 1350.290 742.930, 1349.930 743.290, 1350.150 743.950 M 1247.617 746.080 C 1215.231 747.074, 1188.112 748.127, 1187.351 748.419 C 1186.211 748.856, 1186.015 753.824, 1186.234 776.725 L 1186.500 804.500 1193 804.390 C 1200.871 804.258, 1255.339 799.995, 1255.863 799.470 C 1256.068 799.266, 1257.645 796.280, 1259.368 792.835 C 1262.950 785.671, 1269.612 779.929, 1276.612 777.969 C 1280.418 776.903, 1291.039 776.977, 1294.893 778.096 C 1295.917 778.393, 1296.615 776.605, 1297.533 771.338 C 1299.076 762.473, 1302.874 755.327, 1309.172 749.436 C 1311.827 746.952, 1314 744.713, 1314 744.460 C 1314 744.207, 1312.313 744.061, 1310.250 744.136 C 1308.188 744.211, 1280.003 745.085, 1247.617 746.080 M 1114.940 748.736 C 1114.501 754.315, 1115.308 802.699, 1115.849 803.244 C 1116.255 803.653, 1130.638 804.288, 1147.810 804.656 L 1179.032 805.323 1178.766 776.912 L 1178.500 748.500 1146.750 748.236 C 1129.287 748.091, 1114.973 748.316, 1114.940 748.736 M 844 797.806 C 842.625 797.993, 837.900 799.105, 833.500 800.276 C 827.218 801.949, 821.420 802.524, 806.502 802.953 L 787.504 803.500 786.816 809.027 C 783.582 834.997, 755.458 868.449, 723.200 884.695 C 710.580 891.050, 700.859 893.422, 690.011 892.794 C 675.144 891.934, 666.629 885.273, 659.987 869.310 C 656.132 860.046, 652.485 854.178, 644.158 843.844 C 631.315 827.905, 614.830 816.577, 593.562 809.076 L 584.625 805.924 576.562 809.386 C 560.550 816.263, 545.168 820.385, 524.591 823.314 L 515.681 824.582 511.920 839.041 C 507.668 855.391, 501.468 872.126, 494.593 885.814 L 489.923 895.114 493.139 899.307 C 494.908 901.613, 496.693 903.895, 497.106 904.378 C 498.631 906.163, 607.392 910.721, 703 913.005 C 753.864 914.221, 933.391 914.220, 982 913.005 C 1047.029 911.378, 1114.903 909.033, 1141.161 907.504 C 1208.887 903.561, 1220.567 902.752, 1221.417 901.941 C 1222.653 900.761, 1222.945 900.844, 1195.445 894.527 C 1150.629 884.232, 1119.031 874.971, 1094.001 864.794 C 1075.715 857.359, 1064.843 849.011, 1063.395 841.294 C 1062.373 835.842, 1065.381 829.536, 1071.199 824.937 C 1075.950 821.181, 1094.600 811.308, 1103.826 807.664 C 1106.304 806.685, 1107.978 805.431, 1107.744 804.728 C 1107.319 803.448, 1104.638 803.369, 935 799.619 C 895.125 798.738, 858.900 797.893, 854.500 797.741 C 850.100 797.590, 845.375 797.619, 844 797.806 M 331.500 802.645 C 303.449 804.238, 282.767 805.231, 251 806.509 C 172.593 809.664, 110.472 812.378, 71.500 814.353 C 43.438 815.774, 42.128 816.057, 36.583 821.889 C 26.356 832.648, 43.991 843.886, 90 855.931 C 102.706 859.258, 141.096 867.078, 156.581 869.495 C 205.689 877.159, 259.216 883.496, 329.500 889.968 C 347.650 891.639, 365.082 893.274, 368.238 893.600 C 375.130 894.313, 375.224 894.169, 376.914 880.266 C 379.308 860.576, 373.924 831.985, 363.041 806.596 L 361.071 802 348.786 802.180 C 342.028 802.279, 334.250 802.488, 331.500 802.645 M 1222 810.279 C 1204.255 811.966, 1192.642 812.339, 1155.500 812.412 L 1110.500 812.500 1103.576 815.271 C 1082.483 823.711, 1070.018 832.613, 1070.004 839.247 C 1069.997 842.385, 1076.899 848.725, 1084.780 852.820 C 1109.101 865.457, 1155.642 879.086, 1234 896.515 C 1252.922 900.724, 1251.157 900.726, 1298 896.460 C 1363.430 890.502, 1426.276 881.126, 1459 872.441 C 1468.561 869.904, 1482 864.355, 1482 862.945 C 1482 862.528, 1477.838 861.920, 1472.750 861.593 C 1461.938 860.900, 1382.271 858.401, 1327 857.023 C 1247.378 855.037, 1250.497 855.413, 1244.450 847.083 C 1239.700 840.541, 1238.405 835.239, 1239.912 828.504 C 1241.619 820.873, 1244.600 817, 1251.328 813.670 C 1256.042 811.336, 1256.879 810.560, 1255.924 809.408 C 1254.404 807.577, 1248.959 807.716, 1222 810.279 M 450.131 901.342 C 448.626 903.156, 449.687 903.989, 452.868 903.490 C 454.316 903.264, 457.637 902.808, 460.250 902.478 C 462.863 902.148, 465 901.455, 465 900.939 C 465 899.420, 451.420 899.789, 450.131 901.342" stroke="none" fill="black" fill-rule="evenodd"/>
</svg>