<svg xmlns="http://www.w3.org/2000/svg" width="1024" height="688" viewBox="0 0 1024 688" version="1.1">
	<path d="M 181.660 5.990 C 155.179 10.751, 133.056 26.226, 121.164 48.306 C 119.329 51.713, 117.712 54.617, 117.570 54.761 C 117.428 54.904, 115.329 54.320, 112.906 53.463 C 106.806 51.306, 94.668 50.555, 87.537 51.892 C 73.513 54.523, 61.478 63.222, 55.741 74.873 C 52.959 80.524, 52.471 82.645, 52.295 89.851 L 52.091 98.246 44.896 100.669 C 31.387 105.218, 20.938 114.286, 14.771 126.814 C 11.771 132.908, 11.500 134.246, 11.500 142.979 C 11.500 151.352, 11.846 153.249, 14.369 158.712 C 17.556 165.610, 25.950 174.403, 32.575 177.783 C 40.673 181.915, 47.699 183.276, 58.460 182.797 C 66.621 182.434, 69.666 181.842, 74.319 179.712 L 80.077 177.075 81.158 179.788 C 87.123 194.750, 90.053 199.023, 104.860 214.355 C 121.104 231.175, 126.427 239.396, 129.641 252.624 C 131.859 261.755, 131.820 281.340, 129.557 294.500 C 126.588 311.769, 118.234 346, 116.988 346 C 116.598 346, 116.003 343.677, 115.667 340.837 C 113.874 325.694, 104.284 308.103, 93.324 299.850 C 84.833 293.455, 77.373 290.751, 68 290.669 C 61.724 290.614, 59.646 291.045, 55.267 293.310 C 44.892 298.676, 38 311.680, 38 325.888 L 38 332.565 31.091 332.175 C 22.659 331.699, 18.590 332.947, 13.009 337.724 C 6.706 343.119, 4.019 349.631, 4.022 359.500 C 4.025 366.397, 4.437 368.312, 7.013 373.391 C 8.656 376.631, 10 379.443, 10 379.641 C 10 379.838, 9.167 380, 8.149 380 C 4.206 380, 0 382.170, -0 384.205 C -0 385.778, 0.380 386.028, 1.750 385.357 C 2.712 384.886, 6.966 384.484, 11.202 384.465 C 15.438 384.445, 19.215 384.118, 19.596 383.737 C 19.977 383.357, 18.379 381.193, 16.046 378.929 C 8.421 371.529, 5.607 360.351, 8.920 350.619 C 10.573 345.765, 16.477 339.122, 20.718 337.347 C 24.982 335.562, 33.193 335.636, 37.654 337.500 C 39.629 338.325, 41.634 339, 42.111 339 C 42.588 339, 42.695 335.013, 42.349 330.140 C 41.818 322.648, 42.065 320.138, 43.949 313.890 C 45.841 307.616, 46.977 305.721, 51.469 301.346 C 55.857 297.071, 57.719 295.993, 62.380 295.025 C 73.559 292.704, 85.164 297.112, 95.684 307.674 C 106.920 318.955, 112.936 336.179, 112.978 357.191 C 112.990 363.071, 113.419 368.141, 113.931 368.458 C 114.443 368.774, 116.491 367.928, 118.482 366.577 C 123.652 363.068, 131.991 361.509, 137.783 362.967 C 149.477 365.912, 154.963 375.833, 154.988 394.083 C 154.995 398.804, 155.290 402.956, 155.644 403.311 C 155.998 403.665, 157.811 402.617, 159.672 400.983 C 165.367 395.983, 170.289 394, 177.010 394 C 190.069 394, 199.972 404.199, 197.080 414.672 C 196.527 416.674, 196.303 418.681, 196.581 419.131 C 196.859 419.581, 199.059 419.680, 201.468 419.349 C 210.515 418.109, 218.406 424.722, 219.850 434.753 L 220.534 439.500 225.017 439.552 C 227.483 439.581, 230.891 439.938, 232.590 440.346 C 236.343 441.248, 242.615 447.483, 243.535 451.227 L 244.205 453.953 213.853 453.333 C 185.384 452.752, 154.359 453.735, 132.489 455.911 C 128.095 456.349, 124.316 456.551, 124.091 456.361 C 123.866 456.170, 126.228 453.345, 129.341 450.082 C 135.214 443.924, 136.419 440.423, 133.498 437.999 C 131.218 436.106, 122.350 437.235, 115.750 440.257 C 112.587 441.705, 110 442.717, 110 442.506 C 110 442.295, 112.457 437.258, 115.460 431.311 C 122.018 418.326, 123.132 413.335, 120.087 410.579 C 118.266 408.931, 117.502 408.833, 114.200 409.822 C 106.600 412.099, 94.844 422.308, 90.138 430.718 C 88.171 434.233, 88.149 431.207, 90.049 418.473 C 93.253 397.009, 92.410 388.848, 86.922 388.202 C 79.166 387.291, 70.461 404.102, 67.848 425.041 C 67.165 430.519, 66.357 434.983, 66.053 434.962 C 65.749 434.941, 63.345 430.422, 60.712 424.920 C 54.569 412.083, 47.899 404.695, 42.887 405.178 C 35.929 405.848, 35.496 414.594, 41.539 432.397 C 43.406 437.898, 44.765 442.568, 44.559 442.774 C 44.352 442.981, 42.405 441.973, 40.232 440.535 C 34.889 436.999, 29.561 436.183, 26.994 438.506 C 23.977 441.235, 25.968 446.831, 33.338 456.343 C 36.919 460.964, 36.411 461.477, 27.328 462.407 C 20.483 463.109, 4.695 465.695, 1.750 466.598 C 0.788 466.893, 0 467.836, 0 468.692 C 0 469.918, 0.692 470.110, 3.250 469.591 C 5.038 469.228, 13.925 467.813, 23 466.446 C 32.075 465.079, 40.072 463.755, 40.772 463.503 C 41.612 463.201, 39.831 459.807, 35.522 453.494 C 29.015 443.964, 28.063 441.697, 30.053 440.467 C 32.148 439.173, 41.974 445.112, 46.754 450.563 C 50.769 455.141, 54 457.355, 54 455.528 C 54 455.269, 52.027 450.207, 49.615 444.278 C 43.432 429.078, 41 420.633, 41 414.363 C 41 406.593, 43.006 406.184, 49.024 412.728 C 54.412 418.587, 60.943 431.171, 64.824 443.167 C 66.306 447.750, 67.965 451.500, 68.510 451.500 C 69.087 451.500, 69.779 445.455, 70.169 437 C 71.137 415.995, 75.735 400.449, 83.045 393.465 C 86.101 390.546, 86.171 390.531, 87.641 392.500 C 89.453 394.928, 88.956 402.550, 85.398 426.928 C 81.912 450.812, 82.282 453.616, 87.438 442.354 C 92.785 430.675, 103.450 418.387, 111.595 414.522 C 121.292 409.921, 120.035 416.464, 106.493 441.088 C 102.922 447.581, 100 453.142, 100 453.446 C 100 455.012, 102.750 453.563, 106.713 449.910 C 111.901 445.128, 119.554 441.426, 126.250 440.459 C 130.463 439.850, 131 439.984, 130.999 441.636 C 130.999 442.661, 127.859 446.875, 124.023 451 C 120.187 455.125, 117.037 459.078, 117.024 459.784 C 117.006 460.731, 118.251 460.921, 121.750 460.508 C 139.319 458.432, 151.907 457.802, 185.836 457.301 C 222.224 456.764, 263.726 458.039, 270.777 459.910 C 273.115 460.530, 273.655 461.401, 274.594 466.066 C 277.232 479.176, 283.739 485.799, 302.373 494.343 C 313.376 499.388, 316.078 500.228, 322.778 500.681 C 327.025 500.969, 332.719 501.833, 335.432 502.602 C 344.442 505.156, 352.891 503.748, 361.085 498.325 C 363.905 496.459, 365.292 496.080, 366.668 496.801 C 370.582 498.851, 388.955 505.033, 397.509 507.178 C 405.040 509.066, 409.261 509.438, 423.500 509.466 C 438.287 509.496, 441.541 509.202, 448.500 507.210 C 460.791 503.691, 475.326 496.121, 485.222 488.083 C 490.019 484.188, 494.208 481, 494.532 481 C 495.851 481, 505.927 488.581, 505.962 489.600 C 506.057 492.345, 475.172 516.269, 465.090 521.259 C 459.126 524.211, 457.873 524.447, 447.090 524.648 C 433.037 524.911, 423.590 527.559, 411.500 534.626 C 389.674 547.385, 378.654 568.399, 384.523 586.071 C 387.605 595.347, 398.535 605, 405.959 605 C 408.009 605, 410.869 606.428, 414.749 609.390 C 422.506 615.310, 429.203 617.378, 438.654 616.772 C 445.087 616.359, 446.665 616.614, 450.775 618.732 C 455.115 620.969, 456.355 621.131, 466 620.723 C 483.688 619.973, 495.826 613.713, 517.687 594.068 C 528.804 584.077, 541.622 574.188, 567.025 556 C 588.366 540.721, 600.847 530.129, 610.673 518.958 L 619.871 508.500 628.685 507.845 C 642.747 506.799, 660.889 501.157, 672.794 494.126 C 675.706 492.407, 678.438 491, 678.866 491 C 679.295 491, 682.185 492.376, 685.289 494.057 C 688.925 496.026, 693.168 497.367, 697.216 497.826 L 703.500 498.539 703.256 502.477 C 703.121 504.644, 702.109 509.024, 701.006 512.212 C 694.414 531.259, 704.568 547.013, 725.042 549.504 C 741.646 551.524, 759.438 541.712, 765.049 527.441 C 768.636 518.317, 768.465 504.444, 764.620 492.713 C 763.036 487.881, 761.960 483.707, 762.228 483.438 C 762.497 483.170, 764.777 483.833, 767.295 484.912 C 776.742 488.961, 787.974 489.842, 799.617 487.445 C 802.420 486.868, 802.813 487.090, 803.519 489.652 C 803.951 491.218, 804.361 499.025, 804.430 507 C 804.537 519.455, 804.853 522.152, 806.665 526.122 C 809.812 533.018, 815.172 538.346, 822.238 541.603 C 827.937 544.229, 829.492 544.489, 839.521 544.494 C 849.934 544.500, 850.905 544.321, 857.127 541.258 C 864.979 537.393, 872.864 529.946, 876.131 523.312 C 878.255 518.998, 878.497 517.179, 878.468 505.750 C 878.431 491.340, 877.849 492.131, 887.047 494.104 C 890.517 494.848, 892.522 494.878, 893.204 494.196 C 894.581 492.819, 892.822 487.747, 888.451 480.488 C 886.534 477.305, 885.170 474.497, 885.419 474.248 C 885.668 473.999, 888.311 474.911, 891.292 476.276 C 896.706 478.755, 903.195 484.394, 908.236 491 L 910.906 494.500 910.953 491.696 C 911.009 488.352, 907.587 475.978, 902.048 459.500 C 899.830 452.900, 898.011 447.163, 898.007 446.750 C 897.985 444.473, 901.901 446.708, 906.916 451.834 C 913.619 458.684, 920.017 470.774, 922.858 481.959 C 923.899 486.061, 925.187 489.562, 925.720 489.740 C 926.294 489.931, 926.937 484.574, 927.297 476.607 C 928.021 460.593, 930.795 447.687, 935.153 440.055 C 937.967 435.128, 938.374 434.791, 939.558 436.410 C 941.626 439.238, 942.303 449.783, 941.789 471.156 C 941.526 482.070, 941.660 491, 942.086 491 C 942.512 491, 944.778 487.400, 947.123 483 C 952.315 473.254, 962.835 460.038, 970.113 454.117 C 978.203 447.534, 989 442.923, 989 446.050 C 989 447.685, 986.540 452.080, 977.074 467.350 C 965.506 486.012, 961.782 493.182, 963.019 494.419 C 963.655 495.055, 965.130 494.316, 967.248 492.298 C 972.448 487.345, 982.609 481.287, 989.310 479.144 C 996.810 476.747, 1002.411 475.744, 1003.306 476.639 C 1003.671 477.004, 999.208 482.231, 993.388 488.255 C 987.474 494.376, 983.187 499.587, 983.668 500.068 C 984.141 500.541, 989.377 501.864, 995.302 503.008 C 1001.228 504.151, 1009.943 506.208, 1014.671 507.577 C 1019.398 508.947, 1023.486 509.847, 1023.756 509.577 C 1026.056 507.278, 1014.449 502.959, 998 499.994 C 994.425 499.350, 990.852 498.619, 990.061 498.370 C 989.096 498.067, 991.587 494.884, 997.624 488.709 C 1009.295 476.769, 1009.570 476.392, 1008 474.500 C 1005.084 470.986, 990.905 473.726, 979.115 480.082 C 975.053 482.271, 971.563 483.896, 971.359 483.693 C 971.155 483.489, 975.197 476.612, 980.340 468.411 C 991.662 450.355, 993 447.831, 993 444.518 C 993 436.724, 976.690 442.879, 963.555 455.630 C 957.045 461.950, 949.864 471.010, 947.834 475.464 C 945.613 480.339, 944.707 478.226, 945.383 469.750 C 946.175 459.825, 944.616 439.059, 942.794 435.256 C 938.534 426.367, 930.016 437.438, 926.450 456.500 C 925.523 461.450, 924.585 466.512, 924.364 467.750 C 923.736 471.264, 922.642 470.460, 919.603 464.250 C 915.554 455.978, 910.611 449.619, 905.064 445.547 C 899.991 441.823, 894.680 440.091, 893.616 441.813 C 893.271 442.371, 895.691 450.924, 898.994 460.820 C 906.088 482.074, 906.319 483.626, 901.750 479.353 C 897.180 475.079, 892.288 472.349, 886.674 470.937 C 882.669 469.931, 881.607 469.964, 880.437 471.134 C 879.224 472.348, 879.525 473.238, 882.596 477.522 C 886.956 483.604, 890.334 489.999, 889.583 490.750 C 889.278 491.056, 886.040 490.675, 882.389 489.903 L 875.750 488.500 868.496 468.948 C 858.546 442.127, 854.922 435.624, 847.008 430.386 C 843.064 427.777, 843 427.637, 843 421.683 C 843 406.962, 854.277 398.033, 867.270 402.466 C 873.339 404.536, 874.340 403.912, 873.402 398.647 C 871.405 387.447, 874.685 377.414, 882.101 372.042 C 887.858 367.871, 892.265 366.678, 899.891 367.226 C 908.144 367.818, 913.760 370.589, 920.090 377.191 C 922.726 379.941, 925.297 381.935, 925.802 381.622 C 926.307 381.310, 927.005 378.977, 927.354 376.437 C 928.718 366.482, 935.116 357.092, 943.471 352.782 C 953.028 347.852, 967.068 349.787, 975.481 357.192 C 982.142 363.055, 984.978 369.485, 984.990 378.750 C 984.996 382.756, 985.434 386, 985.969 386 C 986.502 386, 988.821 385.019, 991.122 383.820 C 1000.196 379.090, 1011.915 380.722, 1017.911 387.552 C 1023.735 394.185, 1024.321 403.073, 1019.542 412.285 C 1016.738 417.689, 1017.154 419.398, 1021.135 418.835 C 1023.486 418.502, 1023.502 418.413, 1023.777 403.630 C 1024.048 389.107, 1023.997 388.684, 1021.555 385.484 C 1017.863 380.643, 1009.856 376.990, 1003.054 377.044 C 999.999 377.068, 995.829 377.684, 993.786 378.414 C 989.432 379.968, 989 379.707, 989 375.511 C 989 366.088, 979.724 353.279, 969.813 349.015 C 951.339 341.068, 931.845 349.897, 925.467 369.101 C 924.572 371.795, 923.597 374, 923.302 374 C 923.006 374, 921.152 372.585, 919.183 370.856 C 914.056 366.354, 907.528 363.771, 899.900 363.225 C 890.412 362.546, 883.975 364.894, 877.458 371.411 C 871.521 377.349, 869 383.506, 869 392.072 L 869 397.788 861.081 398.148 C 854.212 398.460, 852.594 398.906, 848.885 401.513 C 843.439 405.341, 839.997 411.943, 839.270 419.957 C 838.806 425.078, 838.445 425.998, 837.106 425.468 C 836.223 425.118, 831.900 424.156, 827.500 423.330 C 823.100 422.505, 818.878 421.230, 818.118 420.497 C 817.344 419.750, 815.920 413.739, 814.881 406.832 C 812.718 392.453, 809.180 380.254, 804.402 370.695 C 802.531 366.952, 801 363.702, 801 363.471 C 801 363.241, 806.062 358.834, 812.250 353.679 C 818.438 348.523, 832.500 336.534, 843.500 327.035 C 884.721 291.442, 909.444 275.641, 929.857 271.843 C 938.052 270.318, 951.395 271.282, 958.146 273.887 C 968.029 277.701, 979.907 286.302, 1008 309.988 C 1025.349 324.615, 1024.001 323.698, 1023.996 320.872 C 1023.993 319.084, 1021.232 316.162, 1012.776 309 C 970.845 273.483, 959.681 267, 940.450 267 C 915.712 267, 888.858 282.619, 839.089 325.952 C 831.163 332.854, 822.951 339.998, 820.839 341.828 C 816.591 345.510, 816.054 344.795, 818.872 339.210 C 823.442 330.150, 825.786 314.070, 824.111 303.273 C 822.275 291.448, 819.732 285.890, 805.527 262.672 C 795.071 245.581, 792.910 225.917, 800.447 216.464 L 802.743 213.584 807.825 218.152 C 815.318 224.890, 823.054 227.524, 835 227.406 C 840.225 227.355, 847.620 226.555, 851.434 225.628 C 855.248 224.702, 861.701 223.662, 865.775 223.317 C 873.945 222.627, 875.065 221.659, 873.252 216.857 C 871.339 211.790, 873.859 212.626, 880.136 219.141 C 885.855 225.077, 886.285 225.331, 887.590 223.546 C 889.626 220.762, 890.253 216.097, 889.844 206.788 C 889.547 200.013, 888.895 197.261, 886.275 191.712 C 882.229 183.145, 873.733 174.107, 866.180 170.336 C 863.056 168.776, 860.302 167.377, 860.060 167.227 C 859.819 167.077, 860.632 166.246, 861.867 165.380 C 868.553 160.697, 858.591 155.886, 842.206 155.884 C 827.350 155.883, 817.680 159.429, 808.181 168.360 C 802.682 173.531, 797.002 183.325, 797.001 187.639 C 797 190.163, 795.168 192.335, 788.834 197.322 C 778.198 205.697, 772 219.708, 772 235.375 C 772 247.444, 774.362 255.753, 782.979 274 C 791.189 291.385, 793 297.195, 793 306.144 C 793 315.824, 790.048 323.083, 783.411 329.719 C 777.644 335.487, 776.142 335.941, 772.154 333.127 C 767.438 329.798, 757.617 325.247, 749.965 322.844 C 743.565 320.834, 740.431 320.501, 728 320.506 C 710.498 320.514, 702.660 322.331, 685.085 330.454 C 669.789 337.523, 664.445 339.182, 658.160 338.808 L 652.973 338.500 652.781 325 C 652.619 313.611, 652.816 311.560, 654.044 311.884 C 654.845 312.095, 658.886 312.485, 663.025 312.750 C 678.918 313.766, 693.625 307.416, 707.547 293.526 C 722.216 278.890, 729.755 261.951, 730.701 241.500 C 731.313 228.260, 729.686 220.090, 724.228 209 C 719.003 198.384, 708.010 187.331, 697.903 182.531 C 674.298 171.321, 648.602 175.241, 625.919 193.512 L 619.338 198.813 613.486 193.820 C 601.672 183.738, 586.585 175.001, 574.646 171.326 C 569.374 169.703, 568.565 169.077, 566.501 165.012 C 563.288 158.687, 556.636 151.446, 551.151 148.303 C 548.593 146.836, 544.362 143.283, 541.749 140.407 C 539.136 137.531, 535.057 134.238, 532.683 133.089 C 527.556 130.607, 519.230 130.237, 518.379 132.454 C 518.072 133.254, 519.505 136.636, 521.562 139.969 C 523.620 143.303, 525.054 146.279, 524.750 146.583 C 524.446 146.887, 521.821 146.430, 518.917 145.568 C 508.429 142.453, 493.272 144.282, 487.349 149.376 C 483.736 152.484, 484.614 154.144, 491.932 158.045 C 495.270 159.823, 498 161.653, 498 162.111 C 498 162.569, 495.412 163.655, 492.250 164.524 C 468.924 170.935, 457.669 175.990, 443.680 186.335 C 439.467 189.451, 435.677 192, 435.260 192 C 434.842 192, 433.260 190.446, 431.745 188.547 C 427.817 183.625, 417.035 176.213, 410.422 173.888 C 397.600 169.382, 385.179 170.415, 371.128 177.158 C 341.594 191.330, 329.606 229.425, 344.514 261.728 C 352.109 278.186, 366.559 291.503, 381.750 296.046 C 385.657 297.214, 386 297.588, 386 300.683 C 386 302.561, 384.400 307.227, 382.381 311.236 C 377.326 321.274, 375.969 325.326, 374.601 334.469 L 373.409 342.439 369.095 343.687 C 366.723 344.374, 364.198 345.421, 363.485 346.012 C 362.499 346.831, 359.590 344.926, 351.344 338.065 C 297.363 293.146, 264.614 273.947, 242.090 274.017 C 222.975 274.077, 202.521 284.703, 178.883 306.856 C 174.143 311.298, 169.981 314.647, 169.633 314.299 C 168.406 313.072, 169.019 292.121, 170.512 284.250 C 174.639 262.497, 185.878 241.726, 199.549 230.590 C 208.144 223.588, 214.591 220.387, 231.016 214.962 C 239.429 212.184, 248.715 208.774, 251.650 207.386 C 264.885 201.124, 275.021 190.453, 282.229 175.189 C 284.387 170.618, 286.906 166.639, 287.827 166.347 C 294.313 164.289, 304.336 158.426, 307.311 154.949 L 310.731 150.954 315.791 154.360 C 325.316 160.769, 338.457 161.684, 349.352 156.697 L 354.925 154.145 359.212 156.323 C 362.957 158.224, 365.084 158.494, 376 158.454 C 386.470 158.415, 389.404 158.049, 394.066 156.201 C 407.482 150.882, 419.731 139.426, 424.175 128.042 C 427.226 120.228, 427.248 107.582, 424.224 100 C 419.805 88.921, 410.220 79.909, 395.500 72.994 C 382.914 67.081, 372.914 65.546, 358 67.237 L 351.500 67.974 348.216 61.046 C 341.787 47.479, 327.145 36.514, 311.269 33.375 C 298.158 30.783, 280.531 33.252, 271.226 38.983 C 269.425 40.093, 267.549 41, 267.057 41 C 266.566 41, 265.133 39.312, 263.874 37.250 C 256.561 25.268, 241.404 13.866, 226.139 8.864 C 217.338 5.980, 215.196 5.680, 201.500 5.412 C 193.250 5.251, 184.322 5.511, 181.660 5.990 M 187.906 10.034 C 159.510 13.353, 136.758 28.371, 124.671 51.773 C 122.050 56.848, 119.759 61, 119.580 61 C 119.401 61, 117.060 59.991, 114.377 58.758 C 110.155 56.817, 107.822 56.515, 97 56.508 C 85.044 56.500, 84.217 56.636, 78 59.626 C 68.905 63.999, 63.662 68.911, 59.875 76.602 C 57.086 82.267, 56.687 84.060, 56.821 90.310 C 56.906 94.264, 57.093 98.578, 57.238 99.896 C 57.477 102.080, 56.950 102.405, 51.263 103.580 C 29.178 108.144, 12.351 129.758, 15.981 148.899 C 17.931 159.184, 25.549 169.162, 35.229 174.112 C 48.748 181.026, 68.690 179.859, 80.157 171.484 C 86.869 166.582, 87.207 166.541, 92.583 169.957 C 107.511 179.446, 125.579 179.153, 137.500 169.229 C 141.187 166.160, 145.990 159.113, 145.996 156.763 C 145.998 155.808, 144.313 153.475, 142.250 151.577 C 139.280 148.846, 138.755 147.870, 139.726 146.888 C 140.702 145.901, 141.324 145.983, 142.763 147.285 C 147.240 151.337, 154.248 153.424, 163.500 153.463 C 176.465 153.516, 182.770 149.886, 185.440 140.831 C 187.140 135.069, 189.158 134.887, 192.280 140.215 C 195.695 146.042, 204.477 154.175, 211.083 157.629 C 215.863 160.129, 217.571 160.464, 225.605 160.481 C 233.636 160.498, 235.436 160.154, 240.855 157.566 L 247 154.632 252.750 157.359 C 273.976 167.426, 297.477 163.322, 306.972 147.891 C 308.627 145.201, 310.399 143, 310.909 143 C 311.419 143, 312.791 144.543, 313.956 146.429 C 317.381 151.970, 324.656 155, 334.537 155 C 341.609 155, 343.481 154.600, 348.767 151.959 L 354.853 148.917 358.594 150.923 C 367.641 155.771, 380.678 155.986, 392.640 151.484 C 403.837 147.269, 413.180 139.273, 418.328 129.500 C 421.229 123.990, 421.488 122.724, 421.494 114 C 421.502 102.123, 419.376 97.206, 410.401 88.339 C 396.338 74.446, 373.480 67.859, 355.541 72.531 C 352.308 73.373, 349.343 73.711, 348.952 73.281 C 348.561 72.852, 347.713 70.845, 347.067 68.822 C 345.229 63.068, 338.798 53.838, 333.428 49.248 C 323.337 40.622, 313.210 37, 299.184 37 C 288.890 37, 280.447 39.068, 272.338 43.575 C 268.948 45.459, 265.729 47, 265.183 47 C 264.637 47, 262.742 44.434, 260.972 41.297 C 251.940 25.293, 233.625 13.703, 212.279 10.486 C 201.769 8.902, 198.162 8.835, 187.906 10.034 M 872.333 42.500 C 865.158 44.060, 863.211 44.977, 856.675 49.880 C 850.175 54.756, 844.584 63.366, 842.392 71.878 L 840.613 78.784 832.936 78.258 C 816.846 77.155, 806.145 83.998, 801.598 98.298 C 801.134 99.756, 800.368 99.972, 797.540 99.442 C 792.207 98.441, 784.733 100.681, 780.062 104.679 C 774.930 109.072, 773 112.725, 773 118.049 C 773 126.290, 777.837 132.105, 787.536 135.526 C 800.439 140.077, 958.389 140.352, 976.799 135.856 C 985.362 133.765, 991.587 129.546, 994.589 123.800 C 999.889 113.656, 988.865 102.566, 972 101.075 L 965.500 100.500 963.718 94.870 C 961.514 87.910, 956.599 82.633, 949.067 79.141 C 944.466 77.008, 941.956 76.547, 934.602 76.481 L 925.703 76.402 924.316 70.984 C 920.608 56.493, 906.765 44.658, 890.387 41.976 C 882.923 40.753, 879.972 40.839, 872.333 42.500 M 875.260 46.108 C 859.386 48.752, 847.018 61.877, 845.356 77.841 L 844.696 84.182 841.598 83.549 C 834.120 82.019, 825.717 81.819, 821.266 83.065 C 814.883 84.853, 807.614 91.957, 805.985 98 C 805.318 100.475, 804.594 103.109, 804.377 103.854 C 804.125 104.719, 803.355 104.943, 802.242 104.473 C 801.284 104.069, 798.250 103.543, 795.500 103.304 C 785.727 102.454, 777 109.692, 777 118.648 C 777 122.345, 777.565 123.565, 780.758 126.758 C 786.732 132.732, 788.973 133.108, 825 134.181 C 862.439 135.296, 959.020 134.548, 969.751 133.060 C 988.143 130.510, 996.710 121.434, 989.007 112.661 C 984.741 107.802, 977.383 104.914, 968.694 104.687 L 961.554 104.500 960.807 100.118 C 959.663 93.411, 956.826 88.815, 951.670 85.319 C 945.209 80.936, 937.368 79.407, 929.130 80.922 C 925.627 81.567, 922.679 81.960, 922.579 81.797 C 922.479 81.634, 921.884 78.922, 921.256 75.772 C 919.740 68.163, 917.606 63.890, 912.466 58.173 C 903.808 48.543, 889.157 43.792, 875.260 46.108 M 525 135.908 C 525 136.482, 525.907 138.425, 527.017 140.226 C 529.045 143.519, 533 155.007, 533 157.605 C 533 159.897, 530.352 159.187, 528.530 156.406 C 527.595 154.979, 524.281 152.617, 521.165 151.157 C 516.499 148.970, 514.090 148.504, 507.500 148.517 C 499.684 148.532, 492 150.276, 492 152.035 C 492 152.520, 494.137 154.143, 496.750 155.643 C 504.774 160.251, 510.065 164.085, 509.550 164.919 C 509.280 165.356, 506.550 165.973, 503.485 166.289 C 496.463 167.014, 490.231 170.004, 485.147 175.089 C 481.209 179.026, 476.692 186.692, 477.519 188.031 C 477.757 188.416, 480.100 187.714, 482.726 186.472 C 488.544 183.718, 498.217 181.485, 500.512 182.366 C 501.970 182.926, 501.788 183.478, 499.153 186.479 C 495.072 191.127, 492.295 201.828, 494.772 203.359 C 495.197 203.622, 498.189 202.058, 501.422 199.885 C 507.083 196.080, 509.141 195.452, 509.158 197.525 C 509.162 198.061, 505.732 201.162, 501.535 204.417 C 494.351 209.988, 493.805 210.234, 492.202 208.632 C 490.303 206.734, 489.886 198.269, 491.369 191.750 C 492.458 186.964, 491.300 186.885, 482.642 191.154 C 479.056 192.922, 475.532 194.035, 474.623 193.685 C 471.642 192.542, 473.209 183.919, 477.564 177.501 C 478.958 175.447, 479.862 173.528, 479.572 173.238 C 478.891 172.558, 471.141 175.474, 463.500 179.286 C 439.979 191.019, 416.273 216.069, 404.093 242.061 C 397.285 256.588, 392.974 274.222, 391.131 295.078 C 390.303 304.445, 389.736 306.569, 386.179 313.643 C 381.175 323.596, 378.789 331.643, 379.191 337.210 L 379.500 341.500 384.500 341.735 C 398.190 342.379, 417.537 347.461, 422.134 351.621 C 425.092 354.298, 423.198 355.142, 419.018 353.009 C 408.025 347.401, 380.793 342.771, 379.446 346.281 C 378.770 348.042, 381.516 359.711, 383.036 361.543 C 383.795 362.458, 385.345 362.411, 389.761 361.336 C 396.777 359.629, 416.429 359.362, 420.389 360.920 C 423.100 361.986, 423.263 363.500, 420.667 363.500 C 418.694 363.500, 419.359 368.204, 421.500 369.391 C 422.600 370.001, 423.692 370.617, 423.927 370.760 C 424.162 370.904, 423.546 371.611, 422.560 372.333 C 420.890 373.554, 420.875 373.858, 422.353 376.716 C 426.189 384.135, 435.048 389.956, 442.500 389.956 C 446.454 389.956, 454.192 387.116, 455.352 385.239 C 455.682 384.706, 455.421 381.743, 454.773 378.653 C 453.625 373.183, 453.451 372.966, 448.060 370.329 C 437.393 365.110, 427.028 351.753, 427.009 343.200 C 427.004 340.836, 427.691 337.565, 428.535 335.932 C 430.302 332.515, 430.163 332.414, 422.637 331.689 C 401.398 329.642, 394.941 292.567, 412.449 273.188 C 421.997 262.619, 438.301 264.123, 445.393 276.228 C 448.734 281.930, 451.013 291.061, 450.942 298.460 C 450.893 303.593, 450.184 307.210, 446.916 319 C 446.657 319.935, 447.065 320.372, 448 320.161 C 460.112 317.425, 472.786 317.919, 483.131 321.530 C 489.265 323.671, 497.595 329.609, 500.059 333.596 C 503.397 338.997, 501.265 339.583, 496.788 334.496 C 483.741 319.675, 451.857 317.100, 437.869 329.737 C 433.551 333.638, 433.057 335, 435.961 335 C 437.040 335, 441.673 335.875, 446.257 336.943 C 450.842 338.012, 461.163 339.377, 469.193 339.977 C 486.460 341.266, 491.569 342.542, 494.343 346.258 C 496.287 348.862, 496.304 349.139, 494.718 352.464 C 493.806 354.379, 491.133 357.363, 488.779 359.097 C 483.154 363.240, 469.787 369.621, 463.500 371.165 C 460.750 371.840, 458.130 372.697, 457.677 373.069 C 456.476 374.057, 458.667 381.307, 461.102 384.403 C 462.254 385.868, 465.515 388.280, 468.349 389.764 C 472.987 392.193, 474.551 392.463, 484.052 392.481 C 494.240 392.499, 494.864 392.371, 502.160 388.765 C 509.747 385.016, 518.707 376.953, 517.485 374.975 C 517.153 374.439, 514.434 374, 511.441 374 C 501.611 374, 505.577 371.457, 516.500 370.757 C 519.947 370.535, 520.698 370.051, 521.930 367.250 C 523.931 362.705, 526.252 362.938, 525.828 367.641 L 525.500 371.282 534.500 373.650 C 546.950 376.925, 556.939 382.053, 564.244 388.919 C 571.889 396.105, 570.407 397.698, 562.410 390.891 C 555.237 384.787, 543.084 378.782, 533.110 376.415 C 525.962 374.719, 525.676 374.722, 524.360 376.522 C 523.612 377.545, 523 378.946, 523 379.634 C 523 380.323, 521.605 385.074, 519.900 390.193 C 511.190 416.341, 499.478 428.866, 482.834 429.830 C 466.569 430.772, 457.896 423.591, 450.548 403.097 L 447.466 394.500 441.483 393.913 C 438.192 393.590, 433.642 392.371, 431.372 391.205 C 426.708 388.809, 419.253 380.855, 418.369 377.333 C 417.584 374.206, 415.613 374.405, 408.571 378.323 C 401.206 382.420, 399.790 384.342, 402.522 386.530 C 408.786 391.547, 422.560 399.900, 430.425 403.452 C 435.416 405.705, 440.024 407.879, 440.665 408.281 C 441.306 408.684, 442.806 412.030, 443.997 415.717 C 449.450 432.598, 459.850 442.234, 475.821 445.204 C 488.200 447.506, 504.227 442.833, 514.268 433.995 C 516.814 431.754, 521.187 426.772, 523.986 422.924 C 528.697 416.447, 531 415.014, 531 418.559 C 531 420.469, 532.063 420.409, 549.009 417.535 C 583.546 411.679, 604.856 402.295, 621.585 385.579 C 634.536 372.637, 639.951 361.819, 640.895 347 C 641.228 341.775, 641.944 337.500, 642.487 337.500 C 643.029 337.500, 644.070 338.746, 644.800 340.270 C 645.531 341.793, 646.496 342.812, 646.945 342.534 C 648.561 341.535, 649.130 326.973, 648.001 315.514 C 646.593 301.218, 647.022 299.423, 650.784 303.863 C 656.398 310.489, 673.203 310.124, 687.500 303.065 C 700.096 296.847, 712.077 284.412, 718.977 270.395 C 726.687 254.733, 728.533 234.347, 723.584 219.500 C 712.334 185.747, 676.002 171.320, 643.389 187.654 C 633.581 192.566, 624.068 199.917, 618.330 207.016 C 615.674 210.303, 613.148 212.994, 612.719 212.996 C 610.652 213.006, 611.051 209.622, 613.495 206.417 L 616.212 202.855 613.856 200.284 C 606.157 191.883, 586.961 180.330, 572.790 175.569 C 565.556 173.138, 565.476 173.072, 562.325 166.929 C 559.406 161.236, 552.619 153, 550.847 153 C 550.436 153, 549.965 155.480, 549.800 158.512 C 549.635 161.543, 549.062 164.130, 548.526 164.262 C 547.990 164.393, 546.816 161.800, 545.916 158.500 C 543.581 149.926, 542.532 147.675, 538.997 143.649 C 534.397 138.410, 525 133.213, 525 135.908 M 186.094 149.158 C 181.534 154.619, 174.167 157.978, 166.719 157.990 C 162.689 157.997, 160.774 158.425, 160.399 159.402 C 159.094 162.804, 166.280 202.631, 168.984 206.982 C 170.113 208.800, 172.471 206.722, 184.455 193.349 C 192.829 184.003, 198.875 174.750, 202.936 165.066 L 205.214 159.631 202.357 157.633 C 200.786 156.534, 197.250 153.260, 194.500 150.357 L 189.500 145.079 186.094 149.158 M 148.936 161.187 C 147.743 163.559, 146.108 166.250, 145.303 167.167 C 144.050 168.595, 144.009 170.480, 145.019 180.277 C 146.455 194.198, 146.009 227.393, 144.365 229.036 C 143.520 229.881, 142.516 229.193, 140.421 226.335 C 138.876 224.226, 132.583 217.325, 126.436 211 C 114.772 198.998, 112.779 196.097, 109.942 187 L 108.227 181.500 101.038 178.754 C 97.085 177.244, 92.883 175.331, 91.702 174.504 C 89.085 172.671, 86.597 172.576, 85.202 174.257 C 83.863 175.869, 86.737 184.263, 91.241 191.898 C 93.034 194.936, 100.800 203.983, 108.500 212.004 C 123.429 227.553, 128.700 235.144, 132.041 245.903 C 138.648 267.180, 136.910 287.518, 124.195 337.739 C 120.959 350.520, 118.503 361.169, 118.737 361.404 C 118.971 361.638, 120.814 361.119, 122.832 360.249 C 128.315 357.887, 138.556 358.151, 143.643 360.785 C 152.401 365.322, 157.693 374.788, 158.716 387.750 C 159.031 391.738, 159.561 394.998, 159.894 394.996 C 160.227 394.994, 162.714 393.869, 165.419 392.496 C 169.335 390.509, 171.834 390, 177.669 390 C 181.701 390, 185 389.579, 185 389.065 C 185 385.500, 180.986 370.763, 175.091 352.690 C 166.004 324.828, 164.611 317.894, 164.713 301 C 164.779 290.002, 165.258 285.726, 167.295 277.926 C 172.533 257.873, 180.895 242.719, 193.511 230.421 C 202.546 221.612, 211.816 216.663, 229.949 210.965 C 251.133 204.308, 262.877 197.407, 270.297 187.257 C 275.114 180.667, 281.246 168.830, 280.291 167.967 C 279.856 167.574, 275.414 167.005, 270.420 166.702 L 261.340 166.152 256.595 173.405 C 246.971 188.117, 232.124 196.098, 209.915 198.499 C 201.852 199.371, 201.248 198.069, 206.042 190.164 C 210.737 182.422, 216 170.015, 216 166.686 C 216 165.208, 215.304 164.033, 214.250 163.730 C 213.287 163.453, 211.756 162.920, 210.847 162.544 C 209.526 161.998, 208.263 163.764, 204.552 171.341 C 198.763 183.164, 192.510 191.506, 179.112 205.278 C 170.333 214.304, 168.409 215.838, 167.284 214.712 C 165.123 212.552, 159.063 186.708, 157.150 171.500 C 155.529 158.607, 155.221 157.475, 153.247 157.187 C 151.587 156.945, 150.616 157.846, 148.936 161.187 M 241.985 161.948 C 238.730 163.669, 230.361 165.635, 223.698 166.244 C 221.216 166.471, 220.634 167.244, 218.611 173 C 217.355 176.575, 214.903 182.300, 213.163 185.721 C 211.424 189.143, 210 192.406, 210 192.971 C 210 195.994, 225.995 192.188, 236.379 186.694 C 239.613 184.983, 244.305 181.540, 246.806 179.042 C 251.967 173.887, 257.203 166.137, 256.401 164.839 C 255.654 163.630, 248.358 159.990, 246.790 160.044 C 246.080 160.069, 243.918 160.925, 241.985 161.948 M 830.870 161.060 C 815.692 164.652, 803.756 175.712, 800.953 188.783 C 799.986 193.292, 799.230 194.434, 795.523 196.984 C 786.501 203.191, 779.229 214.170, 776.878 225.132 C 775.309 232.448, 776.302 246.145, 778.968 253.976 C 780.181 257.537, 782.979 264.062, 785.187 268.476 C 795.478 289.053, 798.810 301.376, 797.035 312.286 C 795.631 320.910, 792.631 326.591, 786.109 332.972 L 780.182 338.772 783.841 342.346 C 785.853 344.311, 789.750 348.837, 792.500 352.402 C 795.250 355.968, 798.005 358.911, 798.623 358.942 C 800.174 359.022, 806.834 351.573, 810.854 345.264 C 816.422 336.526, 819.302 326.904, 819.788 315.424 C 820.465 299.420, 817.722 290.703, 806.246 272.393 C 795.508 255.259, 791.695 245.078, 791.679 233.500 C 791.667 224.519, 794.093 217.278, 798.947 211.811 L 802.774 207.500 808.386 212.806 C 811.473 215.724, 816.136 219.069, 818.749 220.239 C 825.855 223.420, 837.909 223.740, 851.641 221.113 C 857.715 219.951, 864.105 219, 865.842 219 C 869.893 219, 869.939 217.139, 866 212.653 C 862.159 208.278, 862.216 206.995, 866.250 207.022 C 870.787 207.053, 876.877 210.101, 880.946 214.378 C 882.842 216.370, 884.808 218, 885.315 218 C 885.843 218, 886.060 214.038, 885.821 208.750 C 885.461 200.766, 884.948 198.580, 882.079 192.778 C 876.119 180.731, 863.590 171.346, 852.113 170.331 C 849.026 170.058, 845.887 169.641, 845.137 169.405 C 842.767 168.659, 845.811 166.116, 850.825 164.654 C 853.337 163.921, 855.546 162.861, 855.734 162.298 C 856.454 160.138, 838.537 159.246, 830.870 161.060 M 134 176.889 C 131.525 178.303, 125.900 180.177, 121.500 181.053 C 113.999 182.546, 113.516 182.797, 113.754 185.073 C 114.317 190.448, 119.790 198.321, 130.397 209.014 C 136.391 215.056, 141.453 220, 141.647 220 C 142.309 220, 141.899 189.520, 141.147 182.748 C 140.734 179.034, 139.969 175.618, 139.448 175.157 C 138.915 174.685, 136.532 175.443, 134 176.889 M 381 177.830 C 372.101 180.797, 367.406 183.652, 360.113 190.532 C 352.358 197.848, 347.178 206.619, 344.483 217 C 341.959 226.721, 342.820 245.135, 346.225 254.242 C 352.021 269.745, 362.780 282.366, 375.415 288.485 C 385.223 293.235, 386.209 293.279, 387.123 289 C 387.534 287.075, 388.007 283.962, 388.174 282.083 C 388.462 278.849, 388.238 278.580, 383.989 277.081 C 376.876 274.572, 373.823 272.564, 368.423 266.847 C 351.087 248.492, 352.104 217.802, 370.422 206.529 C 374.582 203.969, 376.284 203.518, 381.422 203.619 C 389.912 203.786, 395.898 206.713, 403.692 214.507 C 407.263 218.078, 410.332 221, 410.512 221 C 410.692 221, 413.068 217.963, 415.793 214.250 C 418.517 210.537, 423.364 204.844, 426.564 201.598 L 432.382 195.695 425.563 189.235 C 415.703 179.893, 408.293 176.646, 396 176.280 C 388.857 176.067, 385.135 176.452, 381 177.830 M 373.500 209.164 C 369.681 211.271, 365.799 215.527, 363.160 220.500 C 360.754 225.035, 360.507 226.524, 360.504 236.500 C 360.500 246.760, 360.711 247.946, 363.638 254.123 C 365.364 257.766, 368.450 262.599, 370.496 264.864 C 374.400 269.186, 385.976 275.607, 388.273 274.725 C 389.020 274.439, 390.173 271.169, 390.872 267.355 C 392.685 257.472, 396.499 246.859, 402.104 236.106 C 404.797 230.940, 407 226.075, 407 225.296 C 407 222.758, 396.641 212.780, 391.500 210.366 C 386.053 207.810, 377.046 207.208, 373.500 209.164 M 667.855 211.971 C 661.987 213.745, 652.950 219.450, 647.290 224.955 C 641.164 230.912, 632 243.638, 632 246.188 C 632 246.969, 633.616 249.158, 635.591 251.054 C 642.471 257.658, 647.650 271.368, 648.196 284.425 C 648.537 292.573, 650.147 293.500, 663.956 293.500 C 673.821 293.500, 674.927 293.291, 681.140 290.252 C 698.103 281.952, 709.082 262.669, 707.743 243.527 C 706.374 223.958, 694.210 210.914, 677.500 211.096 C 673.650 211.138, 669.310 211.532, 667.855 211.971 M 669 215.937 C 659 218.998, 644.495 231.068, 638.565 241.264 L 635.793 246.029 639.362 249.978 C 645.993 257.319, 650.316 268.292, 651.564 280.950 C 651.994 285.315, 652.833 288.446, 653.783 289.233 C 654.755 290.040, 658.443 290.499, 663.929 290.498 C 671.724 290.497, 673.215 290.169, 679.516 287.067 C 688.439 282.674, 694.882 276.041, 699.706 266.282 C 703.406 258.796, 703.500 258.333, 703.500 247.553 C 703.500 238.137, 703.160 235.760, 701.201 231.500 C 698.349 225.300, 692.764 219.349, 687.500 216.903 C 683.343 214.971, 673.786 214.472, 669 215.937 M 427.248 235.521 C 422.156 238.100, 416 244.201, 416 246.669 C 416 248.717, 418.035 249.275, 419.813 247.714 C 425.821 242.438, 437.447 240.325, 443 243.500 C 449.249 247.072, 451.353 242.665, 446.168 236.862 C 443.789 234.199, 442.470 233.626, 437.918 233.277 C 433.506 232.939, 431.525 233.356, 427.248 235.521 M 542.304 236.956 C 538.666 239.174, 535.529 243.428, 536.442 244.905 C 536.818 245.515, 540.321 245.668, 545.500 245.303 C 556.153 244.551, 561.375 246.350, 568.729 253.305 C 572.927 257.275, 574.087 257.936, 574.584 256.641 C 574.925 255.752, 574.720 253.637, 574.129 251.940 C 569.862 239.699, 551.773 231.182, 542.304 236.956 M 419.842 273.021 C 409.260 278.611, 403.127 295.275, 406.017 310.588 C 407.325 317.521, 410.904 323.391, 416.234 327.340 C 419.998 330.130, 420.584 328.949, 417.610 324.567 C 412.645 317.250, 412.126 305.403, 416.411 297.200 C 418.017 294.126, 422.455 289.781, 425.684 288.122 C 433.475 284.120, 443.596 291.821, 445.404 303.126 C 445.745 305.257, 446.523 307, 447.134 307 C 449.164 307, 447.664 290.167, 445.129 284.500 C 439.793 272.570, 429.522 267.907, 419.842 273.021 M 539.994 273.874 C 523.917 279.149, 513.748 298.819, 516.834 318.671 C 518.860 331.704, 524.300 340.162, 533.088 343.943 C 540.321 347.054, 545.771 347.499, 552.539 345.532 C 563.172 342.441, 569.405 336.796, 574.705 325.458 C 577.221 320.077, 577.491 318.435, 577.495 308.500 C 577.500 298.528, 577.236 296.928, 574.669 291.374 C 569.517 280.224, 560.643 273.963, 549.178 273.387 C 545.505 273.203, 541.372 273.422, 539.994 273.874 M 229.418 279.416 C 215.445 282.610, 196.088 295.343, 176.250 314.391 C 172.124 318.353, 171.010 320.081, 171.048 322.466 C 171.135 327.965, 183.848 368, 185.508 368 C 186.078 368, 187.412 366.391, 188.471 364.424 C 191.217 359.324, 200.979 350.628, 207.330 347.624 C 215.037 343.978, 225.220 342.454, 232.082 343.919 C 246.215 346.937, 252.879 353.585, 257.628 369.404 C 258.471 372.213, 258.717 372.312, 265.074 372.404 C 270.480 372.483, 272.389 372.990, 275.816 375.259 C 280.751 378.525, 284.638 384.071, 287.040 391.274 C 288.161 394.633, 289.269 396.376, 290.142 396.152 C 290.889 395.961, 294.272 395.814, 297.659 395.827 C 309.101 395.869, 320.616 403.986, 324.621 414.833 C 325.569 417.400, 326.717 419.996, 327.171 420.601 C 327.626 421.207, 331.711 421.977, 336.249 422.312 C 346.246 423.051, 353.757 424.961, 365 429.624 C 384.521 437.721, 387.040 438.440, 396 438.471 C 403.522 438.497, 405.277 438.132, 411.255 435.300 C 424.739 428.913, 439.357 417.442, 438.801 413.684 C 438.576 412.163, 436.090 410.601, 429 407.527 C 419.128 403.247, 411.104 398.528, 402.408 391.888 C 399.607 389.750, 396.834 388, 396.245 388 C 395.656 388, 392.444 391.038, 389.106 394.750 C 384.487 399.888, 383.034 401.010, 383.019 399.450 C 383.009 398.322, 385.311 394.532, 388.136 391.027 C 391.507 386.842, 392.967 384.255, 392.386 383.492 C 391.899 382.853, 389.082 379.106, 386.127 375.165 C 383.172 371.224, 380.342 368, 379.837 368 C 378.274 368, 370.729 372.076, 365.790 375.589 C 362.588 377.867, 360.853 378.572, 360.371 377.792 C 359.500 376.382, 364.616 371.902, 371.791 367.793 L 377.083 364.763 372.853 361.131 C 330.763 324.992, 294.868 297.961, 275.500 287.819 C 259.424 279.401, 242.768 276.364, 229.418 279.416 M 536.220 280.578 C 529.967 283.694, 526.644 287.448, 522.695 295.858 C 520.251 301.065, 519.621 303.918, 519.219 311.608 C 518.910 317.512, 519.098 321, 519.724 321 C 520.273 321, 520.984 318.781, 521.305 316.068 C 522.361 307.153, 527.670 299.706, 535.218 296.553 C 545.358 292.317, 556.404 298.066, 560.573 309.748 C 561.310 311.812, 561.928 316.425, 561.946 320 C 561.986 327.639, 558.849 335.470, 553.895 340.098 C 550.360 343.400, 551.999 344.086, 557.109 341.443 C 575.819 331.768, 580.783 303.052, 566.636 286.328 C 562.422 281.345, 554.735 278, 547.500 278 C 542.941 278, 540.081 278.653, 536.220 280.578 M 421.655 295.829 C 419.458 298.256, 419.550 303.283, 421.829 305.345 C 426.122 309.230, 433 306.111, 433 300.277 C 433 294.998, 425.181 291.932, 421.655 295.829 M 535 302.716 C 528.839 304.927, 527.064 312.154, 531.573 316.664 C 533.718 318.808, 534.760 319.140, 537.823 318.649 C 542.155 317.956, 545 314.902, 545 310.945 C 545 306.119, 539.084 301.251, 535 302.716 M 445 311.500 C 445 312.325, 445.450 313, 446 313 C 446.550 313, 447 312.325, 447 311.500 C 447 310.675, 446.550 310, 446 310 C 445.450 310, 445 310.675, 445 311.500 M 717.061 325.032 C 708.028 326.278, 698.226 329.420, 686 334.990 C 671.717 341.497, 666.717 343.076, 658.368 343.721 L 651.235 344.271 650.044 348.248 C 649.362 350.523, 648.096 352.424, 647.085 352.688 C 645.965 352.981, 644.672 355.229, 643.554 358.825 C 640.411 368.932, 634.981 377.888, 626.668 386.669 C 611.632 402.554, 593.768 411.982, 566.253 418.555 C 555.761 421.061, 537.077 423.997, 531.576 424.004 C 529.036 424.007, 527.770 424.953, 524.310 429.433 C 514.423 442.235, 499.374 450, 484.451 450 C 481.871 450, 480 450.464, 480 451.104 C 480 453.660, 487.470 466.128, 492.142 471.370 C 494.920 474.486, 500.144 479.142, 503.752 481.717 L 510.311 486.398 515.155 481.129 C 521.962 473.727, 525.096 468.918, 533.684 452.701 C 543.964 433.289, 552.278 421.818, 554.897 423.436 C 555.493 423.805, 553.898 426.867, 551.069 430.784 C 548.401 434.478, 542.722 444.250, 538.449 452.500 C 534.176 460.750, 528.473 470.722, 525.777 474.659 C 515.485 489.693, 482.558 517.855, 466.239 525.583 C 461.275 527.934, 458.677 528.403, 447 529.059 C 432.046 529.900, 428.504 530.715, 419 535.506 C 403.195 543.473, 392.508 554.403, 388.846 566.346 C 384.538 580.397, 389.595 593.286, 401.840 599.460 C 406.987 602.055, 407.913 601.131, 407.270 594.039 C 406.194 582.171, 412.067 568.634, 422.397 559.174 C 428.159 553.896, 436 550.250, 436 552.848 C 436 553.315, 434.206 554.505, 432.013 555.494 C 426.927 557.787, 417.966 567.155, 414.736 573.554 C 406.465 589.939, 409.693 603.405, 423.441 609.867 C 429.245 612.595, 440.337 613.881, 441.523 611.963 C 441.964 611.249, 442.374 606.802, 442.433 602.082 C 442.523 594.852, 442.980 592.596, 445.337 587.762 C 449.444 579.336, 459.389 570.056, 461.765 572.432 C 462.103 572.770, 461.281 573.800, 459.940 574.721 C 448.920 582.284, 442.037 600.073, 446.687 608.966 C 449.731 614.786, 453.975 616.513, 465 616.419 C 480.438 616.287, 491.858 610.852, 509.628 595.178 C 526.372 580.410, 533.448 574.815, 554.395 559.784 C 588.614 535.230, 599.607 526.027, 609.684 513.500 C 624.688 494.847, 632.611 477.743, 636.365 455.897 C 637.898 446.979, 639.543 447.190, 639.335 456.278 C 639.099 466.609, 635.848 477.790, 629.246 490.979 C 626.086 497.293, 623.328 502.870, 623.119 503.373 C 622.572 504.685, 633.929 503.308, 643.933 500.851 C 664.302 495.847, 676.109 488.631, 697.229 468.280 C 710.204 455.777, 722.106 445.798, 725.324 444.725 C 725.929 444.524, 725.265 440.619, 723.659 434.945 C 720.788 424.797, 720.019 413.507, 722.250 414.249 C 722.938 414.478, 723.834 417.315, 724.242 420.554 C 725.264 428.673, 729.238 440.068, 734.161 449 C 739.859 459.339, 753.874 473.244, 763.748 478.355 C 780.347 486.947, 797.806 486.442, 810.851 476.993 C 816.914 472.601, 817.484 475.333, 811.614 480.648 L 806.884 484.930 807.881 492.215 C 808.429 496.222, 808.622 503.122, 808.310 507.550 C 807.590 517.753, 809.515 524.905, 814.571 530.811 C 818.248 535.108, 824.464 539, 827.647 539 C 829.077 539, 828.931 538.527, 826.797 536.250 C 822.864 532.053, 819.891 525.341, 819.261 519.238 C 818.801 514.785, 818.961 513.820, 820.096 514.199 C 820.888 514.463, 821.792 516.713, 822.171 519.365 C 823.196 526.527, 827.860 533.970, 833.535 537.500 C 837.513 539.974, 839.335 540.476, 843.929 540.363 C 849.611 540.222, 859 536.921, 859 535.063 C 859 534.509, 856.747 533.086, 853.993 531.902 C 846.477 528.669, 839.086 518.924, 839.022 512.167 C 838.988 508.592, 841.196 510.089, 842.726 514.677 C 844.338 519.514, 850.045 526.455, 854.158 528.581 C 858.978 531.074, 864.497 530.819, 867.558 527.961 C 873.946 521.998, 876.668 509.267, 873.996 497.854 C 872.308 490.648, 856.592 448.727, 853.862 444.148 C 850.725 438.888, 846.028 434.094, 842 432.041 C 838.056 430.030, 827.284 427.195, 822 426.777 C 818.509 426.501, 818.500 426.510, 818.500 430.724 C 818.500 433.048, 818.066 434.993, 817.535 435.047 C 815.909 435.214, 813.380 426.104, 811.553 413.500 C 806.811 380.770, 798.807 363.560, 780.009 345.672 C 762.729 329.227, 740.204 321.842, 717.061 325.032 M 432.007 339.793 C 430.009 341.411, 429.897 341.968, 430.867 345.480 C 432.515 351.450, 437.888 358.669, 444.302 363.531 C 453.514 370.514, 457.778 370.424, 473.908 362.902 C 483.514 358.423, 491 352.753, 491 349.956 C 491 346.408, 486.996 345.054, 473.430 344.017 C 456.982 342.759, 453.301 342.255, 443.500 339.920 C 433.796 337.608, 434.693 337.618, 432.007 339.793 M 368.582 346.868 C 366.978 347.216, 365.500 347.995, 365.299 348.600 C 364.942 349.673, 375.735 359.600, 376.463 358.868 C 376.969 358.359, 374.685 348.786, 373.691 347.250 C 373.246 346.563, 372.571 346.053, 372.191 346.118 C 371.811 346.183, 370.187 346.521, 368.582 346.868 M 216 348.371 C 205.040 351.566, 196.427 358.244, 190.339 368.265 L 186.701 374.254 187.851 380.492 C 188.483 383.923, 189 387.878, 189 389.281 C 189 391.066, 190.211 392.791, 193.030 395.024 C 198.166 399.091, 200.288 403.099, 200.963 410 L 201.500 415.500 206 416.052 C 214.704 417.121, 220.805 422.433, 223.323 431.133 C 224.564 435.424, 224.676 435.511, 229.737 436.134 C 238.409 437.201, 244.441 442.182, 247.385 450.707 L 248.695 454.500 258.097 455.135 C 263.269 455.484, 269.026 455.934, 270.890 456.135 C 274.543 456.528, 274.431 456.644, 277.976 448.838 C 281.057 442.055, 287.256 435.525, 294.846 431.068 C 301.443 427.194, 313.175 423, 317.414 423 C 318.626 423, 320.351 422.438, 321.247 421.750 C 325.024 418.852, 317.568 407.260, 308.890 402.537 C 303.388 399.542, 294.799 398.578, 288.728 400.275 C 286.799 400.814, 285.832 400.662, 285.547 399.775 C 285.321 399.074, 284.408 395.878, 283.518 392.673 C 282.409 388.681, 280.648 385.488, 277.925 382.534 C 273.031 377.225, 269.386 375.627, 263.792 376.336 C 253.513 377.639, 254.577 378.104, 253.871 372 C 253.072 365.104, 251.742 361.724, 247.928 356.909 C 241.710 349.059, 227.071 345.144, 216 348.371 M 528.500 356.048 C 521.074 357.212, 508.120 360.997, 507.362 362.223 C 506.219 364.073, 507.921 364.029, 515.122 362.019 C 532.501 357.169, 551.811 357.506, 567.115 362.925 C 576.077 366.098, 580.008 365.575, 573.221 362.113 C 562.666 356.728, 542.019 353.928, 528.500 356.048 M 392 364.179 C 389.525 364.728, 387.124 365.535, 386.665 365.973 C 385.500 367.085, 388.075 371.706, 392.815 377.011 L 396.826 381.500 399.663 379.721 C 401.223 378.743, 405.564 376.361, 409.308 374.429 C 416.020 370.966, 416.111 370.864, 415.808 367.208 L 415.500 363.500 406 363.340 C 400.775 363.252, 394.475 363.630, 392 364.179 M 513.500 386.637 C 509.259 390.137, 502.388 393.541, 495.549 395.529 C 484.234 398.818, 468.034 396.138, 461.366 389.874 L 459.207 387.846 455.616 390.173 C 453.641 391.453, 452.019 393.264, 452.012 394.198 C 451.992 396.994, 457.902 412.310, 460.039 415 C 461.982 417.446, 462.049 417.457, 463.151 415.500 C 465.882 410.651, 474.808 403.223, 480.091 401.403 C 487.609 398.814, 498.329 399.012, 504.190 401.850 C 506.633 403.033, 509.132 404, 509.743 404 C 511.127 404, 517.222 388.440, 516.805 385.970 C 516.529 384.333, 516.215 384.396, 513.500 386.637 M 481.969 404.476 C 476.722 406.163, 470.090 411.500, 466.972 416.545 C 465.121 419.540, 465.001 420.296, 466.151 421.683 C 469.583 425.821, 481.660 427.365, 490.384 424.781 C 495.484 423.270, 507 412.494, 507 409.233 C 507 404.277, 491.658 401.361, 481.969 404.476 M 435 425.190 C 429.458 430.250, 418.665 437.357, 412.535 439.985 C 399.590 445.534, 389.616 444.631, 369.256 436.067 C 351.665 428.668, 343.734 426.749, 330.500 426.692 C 323.241 426.660, 317.289 427.220, 313 428.339 C 292.507 433.682, 279.035 447.135, 279.010 462.282 C 278.993 472.141, 283.048 478.613, 293.408 485.261 L 298.315 488.411 299.780 486.205 C 301.443 483.701, 305.128 483.357, 311.500 485.114 C 317.374 486.732, 331.077 493.749, 334.250 496.763 C 336.618 499.011, 337.871 499.373, 343.250 499.361 C 351.160 499.344, 357.249 496.718, 363.983 490.419 C 369.211 485.529, 371.328 485.149, 368.988 489.522 C 368.160 491.069, 367.999 492.389, 368.570 492.945 C 370.081 494.415, 392.836 501.693, 401.477 503.470 C 433.912 510.142, 461.883 502.649, 487.873 480.328 L 491.246 477.431 485.958 470.466 C 483.049 466.635, 479.234 460.415, 477.481 456.644 C 474.357 449.926, 474.176 449.749, 468.475 447.824 C 465.275 446.744, 460.768 444.560, 458.458 442.971 C 452.528 438.891, 445.526 430.797, 443.351 425.507 C 442.333 423.032, 441.050 421.024, 440.500 421.045 C 439.950 421.065, 437.475 422.931, 435 425.190 M 0.198 428 L 0.283 434 3.583 434 C 5.397 434, 7.170 433.534, 7.522 432.965 C 8.020 432.159, 1.376 422, 0.351 422 C 0.220 422, 0.151 424.700, 0.198 428 M 312.396 441.250 C 302.683 447.786, 297.193 458.897, 298.314 469.752 C 298.932 475.741, 301.558 480.842, 303.186 479.214 C 303.852 478.548, 303.779 477.456, 302.968 475.940 C 302.298 474.688, 301.750 470.894, 301.750 467.509 C 301.750 457.243, 307.089 447.718, 316.077 441.951 C 318.785 440.213, 321 438.613, 321 438.396 C 321 436.999, 316.491 438.495, 312.396 441.250 M 720.172 453.250 C 712.712 458.878, 684 486.387, 684 487.907 C 684 488.410, 686.138 489.866, 688.750 491.143 C 696.006 494.689, 703.927 494.392, 711.774 490.279 C 721.006 485.439, 720.667 488.438, 711.250 494.904 C 708.846 496.555, 708 497.890, 708 500.030 C 708 501.622, 706.881 506.428, 705.513 510.712 C 701.099 524.531, 702.973 534.070, 711.283 540.090 C 717.185 544.365, 718.554 543.744, 714.612 538.579 C 711.257 534.184, 708.233 525.049, 709.471 523.047 C 710.674 521.100, 712 521.984, 712.022 524.750 C 712.073 531.168, 719.874 541.481, 726.617 544.045 C 730.361 545.468, 736.137 545.204, 741.885 543.348 C 746.798 541.761, 748.679 540, 745.460 540 C 742.698 540, 736.378 536.194, 733.278 532.664 C 729.445 528.299, 726.262 520.338, 727.753 518.847 C 728.499 518.101, 729.447 519.224, 730.960 522.644 C 736.145 534.369, 748.312 540.475, 755.393 534.905 C 760.200 531.124, 764 520.525, 764 510.898 C 764 504.827, 761.108 493.349, 757.532 485.229 C 755.082 479.664, 753.109 476.915, 749.127 473.516 C 742.299 467.687, 735.527 459.764, 731.807 453.250 C 730.158 450.363, 728.432 448, 727.970 448 C 727.509 448, 724 450.363, 720.172 453.250 M 284.168 462.968 C 284.565 469.994, 286.347 473.924, 290.252 476.387 C 292.881 478.045, 293.548 476.212, 291.218 473.732 C 288.205 470.525, 286 464.736, 286 460.032 C 286 457.738, 285.520 456, 284.887 456 C 284.139 456, 283.903 458.282, 284.168 462.968 M 330.462 463.275 C 325.516 468.221, 322.377 476.865, 323.450 482.584 C 324.270 486.956, 326 487.022, 326 482.682 C 326 476.751, 328.843 469.460, 332.995 464.743 C 335.198 462.240, 337 459.925, 337 459.597 C 337 457.925, 334.285 459.452, 330.462 463.275 M 219.093 475.101 C 195.076 478.767, 171.868 496.058, 160.944 518.424 C 155.075 530.441, 153.038 539.074, 153.024 552 C 153 574.771, 161.540 593.828, 179.308 610.647 C 189.158 619.970, 201.271 626.828, 213.726 630.132 C 224.496 632.989, 241.515 632.986, 252.300 630.125 C 278.149 623.269, 298.339 602.413, 306.152 574.500 C 309.085 564.017, 309.330 543.895, 306.645 534 C 302.336 518.127, 291.261 500.956, 279.222 491.483 C 262.518 478.340, 239.304 472.015, 219.093 475.101 M 212.563 480.989 C 208.747 482.017, 201.772 484.764, 197.063 487.094 C 190.029 490.573, 186.794 493.041, 178.943 500.915 C 170.754 509.128, 168.725 511.860, 164.769 520 C 154.228 541.688, 154.304 562.754, 165.002 584.624 C 168.729 592.245, 171.705 596.623, 177.038 602.334 C 184.220 610.024, 193.636 617.698, 194.648 616.685 C 194.953 616.381, 194.083 614.639, 192.715 612.816 C 189.099 607.994, 186.510 602.471, 183.888 593.988 C 180.876 584.241, 180.627 565.239, 183.371 554.500 C 185.885 544.657, 194.834 526.858, 201.699 518.046 C 216.778 498.689, 239.126 487.047, 259.045 488.172 C 262.870 488.389, 266 488.269, 266 487.906 C 266 486.804, 256.307 482.997, 248.265 480.940 C 238.224 478.372, 222.196 478.394, 212.563 480.989 M 305 488.845 C 305 491.619, 313.028 495.537, 320.832 496.572 C 330.121 497.804, 326.443 494.109, 314.181 489.890 C 308.283 487.861, 305 487.487, 305 488.845 M 240.296 494.423 C 221.824 500.406, 205.041 515.662, 194.571 535.991 C 187.097 550.503, 185.500 557.194, 185.500 574 C 185.500 586.530, 185.812 589.403, 187.797 595.147 C 192.989 610.170, 203.131 621.770, 214.270 625.426 C 219.113 627.015, 234 628.845, 234 627.851 C 234 627.610, 231.363 624.701, 228.139 621.386 C 206.698 599.339, 215.296 553.596, 245.575 528.621 C 258.317 518.111, 274.690 512.187, 287.113 513.592 C 290.351 513.959, 293 513.923, 293 513.513 C 293 513.103, 291.460 510.683, 289.577 508.134 C 280.299 495.575, 273.022 491.970, 257.093 492.045 C 249.861 492.078, 245.727 492.664, 240.296 494.423 M 95.974 500.783 C 82.109 515.041, 70.691 544.487, 67.972 573 C 66.875 584.510, 66.438 587.040, 65.742 585.917 C 65.600 585.688, 63.753 580.258, 61.638 573.851 C 54.274 551.541, 43.910 532.988, 32.994 522.576 C 24.643 514.610, 20.238 513.181, 17.396 517.518 C 14.464 521.993, 17.390 532.685, 34.177 578.855 C 39.648 593.900, 43.903 606.430, 43.633 606.700 C 43.364 606.969, 40.230 604.110, 36.669 600.345 C 18.115 580.728, 0.931 581.613, 13.323 601.546 C 15.701 605.371, 21.776 614.287, 26.823 621.360 C 31.870 628.433, 36 634.669, 36 635.217 C 36 635.782, 35.242 635.893, 34.250 635.472 C 27.038 632.415, 23.616 631.622, 17.404 631.565 C 5.006 631.451, 3.373 636.072, 13.794 641.780 C 17.256 643.677, 22.509 647.440, 25.467 650.144 C 31.047 655.244, 33.732 655.241, 30.099 650.139 C 27.769 646.867, 23.537 643.516, 16.750 639.571 C 10.039 635.670, 10.626 634.647, 19.250 635.214 C 24.715 635.573, 27.992 636.447, 32.560 638.764 C 35.893 640.454, 39.210 642.549, 39.932 643.418 C 40.654 644.288, 41.640 645, 42.122 645 C 45.389 645, 39.053 632.645, 26.496 614.532 C 21.170 606.850, 15.718 598.403, 14.379 595.761 C 12.237 591.534, 12.137 590.885, 13.548 590.343 C 19.250 588.155, 37.003 603.430, 46.016 618.278 C 57.128 636.587, 54.449 624.338, 36.439 574.500 C 21.443 533, 18.142 521.267, 20.971 519.518 C 23.909 517.702, 33.923 527.182, 41.595 539.041 C 51.604 554.513, 60.905 578.938, 65.570 602 C 66.960 608.875, 68.309 615.513, 68.568 616.750 C 68.827 617.987, 69.436 619, 69.923 619 C 70.410 619, 71.020 606.962, 71.278 592.250 C 71.632 572.115, 72.167 563.645, 73.442 558 C 78.140 537.209, 88.140 514.730, 97.224 504.538 C 102.003 499.176, 105 497.563, 105 500.353 C 105 501.097, 102.568 516.284, 99.595 534.103 C 93.778 568.971, 91.449 587.345, 90.369 606.886 C 89.808 617.033, 89.927 619.191, 91.028 618.824 C 91.787 618.571, 93.126 614.871, 94.105 610.320 C 97.694 593.637, 107.830 572.584, 118.812 559 C 125.699 550.483, 134.061 542.661, 135.133 543.733 C 136.621 545.221, 134.979 550.467, 125.030 576 C 112.681 607.694, 106.887 626.287, 108.773 628.173 C 109.304 628.704, 111.250 626.504, 113.536 622.786 C 118.863 614.122, 132.083 601.200, 139.304 597.601 C 146.582 593.972, 148.092 594.851, 145.634 601.288 C 144.079 605.361, 141.629 609.660, 128.136 632 C 125.312 636.675, 123.001 640.837, 123.001 641.250 C 122.999 642.738, 125.224 641.942, 129.726 638.845 C 132.248 637.109, 136.497 634.859, 139.167 633.845 C 143.877 632.055, 153 631.294, 153 632.691 C 153 633.071, 149.110 637.059, 144.356 641.553 C 132.385 652.869, 134.178 654.548, 146.705 643.751 C 158.707 633.406, 159.294 632.527, 156 629.822 C 153.925 628.119, 152.545 627.857, 147.887 628.278 C 144.799 628.557, 140.117 629.739, 137.482 630.905 C 134.847 632.071, 132.500 632.833, 132.267 632.600 C 132.033 632.367, 134.515 627.974, 137.781 622.838 C 144.827 611.758, 148.310 605.055, 150.060 599.201 C 151.229 595.294, 151.169 594.725, 149.410 592.966 C 147.719 591.275, 146.975 591.168, 143.524 592.121 C 138.036 593.636, 130.533 598.637, 122.495 606.137 C 114.260 613.820, 114.256 613.907, 123.183 591 C 132.734 566.490, 138.778 549.793, 139.471 546 C 140.364 541.122, 138.412 538.617, 134.461 539.570 C 127.345 541.287, 106.295 567.642, 99.401 583.467 C 97.836 587.060, 96.260 590, 95.900 590 C 94.620 590, 99.150 556.491, 104.147 529 C 107.881 508.459, 108.752 498.611, 107.020 496.524 C 104.693 493.720, 101.734 494.861, 95.974 500.783 M 272.124 518.518 C 238.279 527.995, 213.955 567.732, 221.431 601.336 C 224.143 613.524, 232.964 624.447, 241.908 626.692 C 248.777 628.416, 267.191 620.918, 277.825 612.067 C 297.566 595.636, 308.060 566.907, 303.634 541.412 C 301.393 528.507, 298.440 521.280, 294.589 519.281 C 290.314 517.062, 278.731 516.668, 272.124 518.518 M 958.116 539.671 C 947.234 550.904, 937.552 572.425, 933.328 594.767 C 932.368 599.845, 931.339 603.997, 931.041 603.994 C 930.744 603.990, 929.242 599.631, 927.704 594.307 C 922.689 576.942, 914.510 560.746, 906.928 553.163 C 900.263 546.499, 894.982 546.592, 895.015 553.372 C 895.033 556.948, 897.706 572.019, 901.413 589.440 C 902.810 596.007, 903.677 601.632, 903.340 601.940 C 903.002 602.248, 902.536 601.970, 902.304 601.323 C 902.072 600.675, 899.571 596.854, 896.746 592.832 C 886.025 577.567, 871.734 566.424, 863.846 567.179 C 860.812 567.470, 860.475 567.827, 860.227 571 C 860.004 573.858, 861.440 576.976, 868.052 588 C 877.529 603.800, 887.165 622.501, 886.283 623.383 C 885.944 623.723, 883.757 624, 881.423 624 C 877.371 624, 877.078 623.793, 874.960 619.418 C 869.272 607.668, 857.011 598.846, 839.377 593.817 C 827.766 590.505, 810.514 590.691, 799.722 594.244 C 780.375 600.614, 763.997 615.240, 761.214 628.631 C 760.547 631.844, 759.940 632.445, 756.263 633.530 C 746.512 636.409, 739.046 642.777, 736.858 650.080 C 735.848 653.450, 735.923 654.616, 737.342 657.590 C 740.340 663.879, 750.251 666.168, 774.467 666.165 C 792.805 666.163, 802.871 664.427, 806.988 660.557 C 809.414 658.276, 809.905 658.214, 821.329 658.740 C 832.415 659.252, 833.212 659.427, 834.010 661.525 C 835.263 664.821, 839.961 667.759, 847.146 669.739 C 852.483 671.210, 857.902 671.491, 881 671.495 C 911.962 671.501, 917.104 670.681, 923.628 664.702 C 930.323 658.567, 929.291 649.762, 920.787 640.457 C 914.800 633.906, 909.169 630.413, 899.058 626.977 L 891.617 624.447 884.535 610.474 C 880.641 602.788, 874.202 591.153, 870.227 584.618 C 866.252 578.083, 863 572.372, 863 571.927 C 863 567.834, 873.840 573.045, 881.965 581.045 C 892.208 591.130, 902.089 605.873, 907.600 619.292 C 909.115 622.982, 910.725 626, 911.177 626 C 912.708 626, 912.012 621.179, 907.542 600.811 C 900.755 569.892, 897.937 553.671, 899.147 552.500 C 899.846 551.824, 901.925 553.406, 905.570 557.389 C 914.914 567.601, 924.038 589.760, 929.085 614.500 C 932.570 631.587, 933.214 631.251, 934.844 611.500 C 936.714 588.840, 943.927 565.938, 953.998 550.681 C 961.483 539.341, 968 534.212, 968 539.661 C 968 540.510, 964.867 555.446, 961.037 572.852 C 951.624 615.635, 949.823 625.223, 950.981 626.381 C 951.586 626.986, 952.091 626.816, 952.362 625.917 C 954.561 618.638, 958.700 607.568, 960.745 603.500 C 970.583 583.928, 987.684 566.629, 998.031 565.784 C 1004.077 565.289, 1003.290 568.439, 991.693 591.125 C 982.620 608.874, 975.772 624.192, 973.532 631.750 C 972.496 635.245, 975.074 634.534, 978.357 630.419 C 981.920 625.954, 992.090 618.359, 997.833 615.875 C 1002.513 613.850, 1007 613.408, 1007 614.972 C 1007 615.506, 1003.129 620.205, 998.398 625.414 C 988.835 635.941, 983.393 642.949, 984.663 643.099 C 985.124 643.153, 989.325 643.265, 994 643.349 C 998.675 643.432, 1003.288 643.886, 1004.250 644.357 C 1005.538 644.988, 1006 644.799, 1006 643.642 C 1006 641.260, 1002.737 640, 996.566 640 C 993.505 640, 991 639.645, 991 639.212 C 991 638.778, 995.288 633.742, 1000.529 628.021 C 1009.912 617.778, 1011.829 614.603, 1010.587 611.365 C 1009.077 607.431, 994.419 612.245, 985.250 619.685 C 982.241 622.126, 981 622.683, 981 621.590 C 981 620.741, 986.153 609.972, 992.451 597.659 C 1004.626 573.858, 1006.956 567.655, 1005.057 564.106 C 1003.404 561.018, 996.833 561.282, 989.948 564.713 C 983.496 567.928, 970.901 580.056, 965.504 588.250 C 961.565 594.231, 959.584 595.613, 960.489 591.750 C 967.994 559.687, 971.056 544.056, 970.796 539.125 C 970.513 533.749, 970.372 533.485, 967.616 533.171 C 965.176 532.892, 963.711 533.895, 958.116 539.671 M 635.232 567.458 C 631.100 570.935, 626.990 580.800, 625.138 591.684 C 624.266 596.808, 623.316 600.983, 623.027 600.961 C 622.737 600.940, 621.440 598.742, 620.144 596.078 C 615.053 585.611, 605.183 575.587, 600.602 576.233 C 595.377 576.969, 596.521 584.655, 605.002 605.796 C 607.751 612.648, 610 618.832, 610 619.539 C 610 620.273, 607.321 619.026, 603.737 616.623 C 596.656 611.874, 587.761 608.707, 582.835 609.181 C 577.059 609.736, 578.053 612.218, 588.422 623.123 C 593.690 628.663, 598 633.602, 598 634.098 C 598 634.594, 595.779 635, 593.065 635 C 590.351 635, 586.863 635.539, 585.315 636.197 C 582.788 637.272, 583.523 637.462, 592.500 638.062 C 598 638.429, 602.836 638.539, 603.246 638.308 C 604.816 637.422, 600.454 631.346, 591.902 622.506 C 587.014 617.453, 583.258 613.075, 583.557 612.777 C 584.553 611.781, 592.072 614.008, 598.260 617.131 C 601.627 618.831, 607.016 622.856, 610.235 626.075 C 619.292 635.132, 619.151 634.287, 605.600 598.274 C 601.039 586.151, 599.892 580, 602.193 580 C 602.850 580, 605.745 582.435, 608.628 585.411 C 615.035 592.026, 622.237 606.271, 624.600 617 C 627.265 629.108, 628.315 628.048, 627.569 614 C 627.182 606.709, 627.342 598.469, 627.953 594.225 C 629.721 581.943, 634.408 570.954, 638.197 570.207 C 639.466 569.957, 639.784 573.673, 640.379 595.683 C 641.252 627.983, 641.849 630.946, 645.533 621.250 C 650.352 608.567, 662.161 593.061, 674.688 582.968 C 686.248 573.654, 697.387 569.190, 695.286 574.712 C 694.912 575.695, 692.364 580.325, 689.623 585 C 675.614 608.894, 665.718 629.052, 667.247 630.580 C 667.559 630.893, 671.119 627.811, 675.157 623.733 C 683.121 615.690, 692.355 609.925, 702.165 606.872 C 708.191 604.996, 714 604.409, 714 605.676 C 714 606.047, 708.222 612.235, 701.160 619.426 C 694.098 626.617, 687.797 633.485, 687.157 634.689 C 685.699 637.435, 686.989 638.335, 690.481 637.007 C 691.938 636.453, 696.926 636, 701.565 636 C 709.425 636, 710 636.141, 710 638.067 C 710 639.745, 710.425 640.007, 712.250 639.460 C 715.932 638.356, 717.372 636.553, 715.687 635.156 C 713.517 633.354, 703.133 631.753, 698.312 632.476 C 695.941 632.832, 694 632.779, 694 632.360 C 694 631.941, 699.400 626.136, 706 619.460 C 718.412 606.905, 719.976 604.128, 715.870 601.931 C 711.263 599.465, 693.565 605.034, 683.416 612.144 C 680.309 614.320, 677.565 615.899, 677.318 615.652 C 676.667 615, 681.762 605.247, 689.858 591.645 C 698.548 577.046, 700.781 571.646, 699.009 569.511 C 695.086 564.784, 678.725 573.307, 664.592 587.440 C 657.754 594.278, 646 610.350, 646 612.861 C 646 613.488, 645.621 614, 645.158 614 C 644.695 614, 644.038 604.048, 643.698 591.885 C 643.206 574.287, 642.761 569.284, 641.517 567.385 C 639.560 564.399, 638.858 564.407, 635.232 567.458 M 810 595.690 C 791.895 598.713, 773.344 610.699, 766.648 623.700 C 765.742 625.461, 765 627.823, 765 628.950 C 765 630.859, 765.600 631.001, 773.750 631.012 C 788.023 631.031, 797.969 634.641, 804.378 642.128 C 806.354 644.437, 808.254 647.839, 808.602 649.690 C 808.949 651.540, 810.051 653.492, 811.051 654.027 C 812.050 654.562, 817.377 655, 822.887 655 L 832.906 655 834.841 650.628 C 839.137 640.915, 850.316 632.057, 864.047 627.484 C 868.410 626.031, 872.194 624.495, 872.456 624.071 C 873.431 622.493, 866.328 612.454, 861.407 608.456 C 849.671 598.919, 825.945 593.027, 810 595.690 M 362.938 623.820 C 360.428 625.414, 356.930 628.900, 355.164 631.567 C 352.006 636.334, 348 647.307, 348 651.189 C 348 653.996, 346.901 653.247, 341.851 647 C 336.226 640.041, 327.866 634.813, 323 635.213 C 319.802 635.475, 319.513 635.759, 319.650 638.500 C 319.732 640.150, 322.095 645.458, 324.900 650.296 C 330.261 659.541, 331.216 662.680, 328.330 661.573 C 321.152 658.819, 313.191 658.860, 310.865 661.663 C 309.373 663.461, 310.466 664.634, 315.905 667.069 C 320.150 668.969, 322.556 667.989, 319.039 665.792 C 317.917 665.092, 317 664.119, 317 663.629 C 317 662.107, 325.683 663.633, 330.088 665.929 C 337.360 669.719, 337.297 667.563, 329.700 652.800 C 325.981 645.574, 323.305 639.295, 323.752 638.848 C 325.219 637.381, 332.888 642.097, 337.834 647.508 C 342.424 652.531, 344.487 655.890, 346.934 662.325 C 348.329 665.995, 349.995 664.842, 350.017 660.191 C 350.065 650.083, 354.662 636.733, 360.310 630.300 C 363.503 626.663, 368.343 623.676, 369.373 624.707 C 370.756 626.090, 369.851 634.213, 366.808 647.719 C 365.046 655.540, 363.884 662.217, 364.224 662.557 C 364.565 662.898, 367.691 660.295, 371.172 656.772 C 379.360 648.485, 392 642.095, 392 646.243 C 392 646.926, 389.248 651.464, 385.884 656.326 C 377.310 668.719, 379.622 669.597, 388.794 657.431 C 396.093 647.751, 397.334 644.352, 394.447 641.956 C 392.250 640.133, 383.785 642.935, 376.307 647.963 C 373.124 650.102, 370.332 651.665, 370.102 651.436 C 369.873 651.206, 370.714 645.676, 371.972 639.147 C 373.654 630.410, 374.006 626.512, 373.302 624.387 C 371.983 620.405, 368.605 620.220, 362.938 623.820 M 868.345 629.904 C 850.821 634.919, 837 647.001, 837 657.305 C 837 664.066, 844.043 666.711, 866.232 668.282 C 877.893 669.107, 885.657 669.101, 896.232 668.257 C 912.514 666.957, 916.705 665.960, 920.969 662.373 C 926.510 657.710, 924.627 648.598, 916.592 641.191 C 903.937 629.527, 885.080 625.115, 868.345 629.904 M 765.951 635.023 C 749.318 637.585, 738.167 646.560, 740.427 655.566 C 741.246 658.827, 745.176 660.501, 755.333 661.914 C 769.858 663.934, 795.562 662.757, 801.756 659.788 C 810.510 655.593, 803.987 642.117, 790.832 637.220 C 784.389 634.822, 773.501 633.860, 765.951 635.023" stroke="none" fill="black" fill-rule="evenodd"/>
</svg>