<svg xmlns="http://www.w3.org/2000/svg" width="1536" height="1024" viewBox="0 0 1536 1024" version="1.1">
	<path d="M 1235.383 26.888 C 1224.627 29.666, 1212.464 40.132, 1205.170 52.885 C 1199.652 62.532, 1194.607 77.830, 1192.502 91.300 C 1190.311 105.320, 1190.654 130.087, 1193.072 132.503 C 1193.937 133.367, 1195.352 133.802, 1196.215 133.471 C 1197.079 133.139, 1200.636 128.510, 1204.120 123.184 C 1212.901 109.761, 1226.446 96.414, 1241.652 86.202 C 1260.698 73.410, 1268 63.497, 1268 50.430 C 1268 41.072, 1263.165 33.229, 1254.708 28.871 C 1250.497 26.701, 1240.197 25.644, 1235.383 26.888 M 1235.324 35.387 C 1217.850 41.070, 1203.930 63.922, 1199.543 94.128 C 1197.845 105.823, 1197.507 117.354, 1198.877 116.833 C 1199.360 116.650, 1202.521 112.817, 1205.902 108.315 C 1213.768 97.845, 1222.230 90.128, 1236.831 80.112 C 1254.967 67.671, 1260 61.328, 1260 50.913 C 1260 46.746, 1259.416 44.419, 1257.737 41.898 C 1253.528 35.579, 1243.602 32.695, 1235.324 35.387 M 1125.500 58.431 C 1119.934 60.465, 1112.814 68.421, 1110.699 74.968 C 1108.047 83.180, 1108.419 96.042, 1111.601 106.198 C 1116.238 120.995, 1125.124 135.349, 1134.032 142.429 C 1143.769 150.169, 1146.067 147.103, 1149.721 121.500 C 1150.035 119.300, 1151.356 115.070, 1152.658 112.099 C 1164.431 85.221, 1155.913 59.200, 1134.756 57.413 C 1131.553 57.142, 1127.938 57.539, 1125.500 58.431 M 1128.001 66.123 C 1122.249 68.417, 1118.966 73.200, 1116.970 82.193 C 1113.875 96.145, 1122.093 119.062, 1135.908 135 C 1138.443 137.924, 1139.109 138.253, 1139.956 137 C 1140.513 136.175, 1140.976 134.582, 1140.985 133.460 C 1141.022 128.473, 1144.154 119.394, 1146.578 117.246 C 1148.799 115.277, 1149.042 114.453, 1148.499 110.746 C 1148.126 108.198, 1148.495 103.901, 1149.424 100 C 1151.388 91.747, 1151.396 86.697, 1149.457 80.167 C 1146.165 69.081, 1136.480 62.742, 1128.001 66.123 M 209 84.990 C 186.071 88.026, 165.019 100.832, 157.525 116.302 C 155.364 120.764, 154.343 121.945, 153.107 121.416 C 132.841 112.735, 106.914 117.246, 92.136 132.024 C 84.619 139.541, 80.985 146.875, 80.151 156.210 L 79.500 163.500 74 164.106 C 51.452 166.589, 29.699 179.744, 21.994 195.555 C 18.712 202.290, 18.600 212.682, 21.745 218.643 C 29.761 233.834, 56.851 241.959, 88.510 238.667 L 96.521 237.834 98.853 242.667 C 108.222 262.083, 125.812 280.813, 140.145 286.637 C 146.449 289.199, 149 289.089, 145.190 286.420 C 142.275 284.379, 142.416 283.166, 145.500 283.755 C 149.860 284.589, 148.205 282.610, 141.746 279.267 C 128.488 272.404, 118.390 262.009, 108.183 244.719 C 105.332 239.890, 103 235.733, 103 235.483 C 103 234.758, 110.262 231.921, 111.263 232.254 C 111.761 232.420, 114.268 235.670, 116.834 239.475 C 119.400 243.280, 122.062 246.568, 122.749 246.780 C 125.714 247.696, 124.973 243.674, 121.026 237.424 C 118.730 233.789, 116.998 230.676, 117.176 230.506 C 117.354 230.337, 120.875 230.844, 125 231.634 C 129.125 232.424, 134.218 232.785, 136.318 232.436 C 139.655 231.881, 140.206 232.072, 140.697 233.948 C 142.233 239.823, 148.331 250.243, 153.498 255.825 C 156.674 259.255, 159.019 262.314, 158.710 262.623 C 157.802 263.532, 147.670 260.246, 141.704 257.107 C 137.707 255.005, 135.891 254.509, 135.096 255.304 C 133.114 257.286, 133.938 258.861, 138.656 262.107 C 144.515 266.139, 150.556 268.421, 159.575 270.011 C 166.934 271.308, 171 270.478, 171 267.679 C 171 266.991, 166.500 261.308, 161 255.050 C 155.500 248.792, 151 243.056, 151 242.304 C 151 239.459, 154.106 239.845, 158.261 243.207 C 163.030 247.065, 173.127 253, 174.923 253 C 176.800 253, 178.868 246.845, 179.499 239.381 C 181.078 220.696, 180.527 222.283, 186.406 219.501 L 191.667 217.012 197.084 219.881 C 203.369 223.210, 212.759 225.820, 222 226.806 L 228.500 227.500 230.342 240.759 L 232.185 254.017 227.062 259.622 C 220.272 267.052, 216.632 272.461, 212.337 281.506 C 210.379 285.628, 208.490 288.996, 208.139 288.991 C 207.462 288.982, 201.680 280.194, 197.947 273.500 C 194.546 267.401, 193.025 260.388, 193.012 250.750 C 193 242.002, 191.706 239.122, 190.541 245.250 C 190.201 247.037, 189.429 250.421, 188.826 252.769 C 187.064 259.629, 188.305 268.833, 192.104 277.074 C 195.548 284.546, 208.260 302.500, 210.107 302.500 C 210.676 302.500, 212.602 298.619, 214.386 293.876 C 218.852 282.005, 224.921 271.764, 232.654 263.054 C 238.499 256.471, 239.123 255.367, 238.561 252.597 C 236.934 244.568, 234.900 228.702, 235.349 227.532 C 235.960 225.942, 244.110 224.990, 244.503 226.463 C 244.656 227.033, 245.577 231.209, 246.552 235.741 C 247.639 240.799, 249.058 244.648, 250.227 245.705 C 252.035 247.342, 252.354 247.309, 256.617 245.047 C 262.964 241.680, 270.235 233.283, 274.399 224.510 C 276.360 220.380, 278.140 217, 278.356 217 C 278.572 217, 280.845 218.172, 283.408 219.605 C 288.895 222.671, 288.914 222.420, 282.239 235.203 C 276.799 245.622, 270.427 253.557, 263.101 259.036 C 250.229 268.662, 243.346 276.443, 237.941 287.481 C 231.848 299.924, 228.914 312.137, 228.280 327.694 C 227.985 334.950, 228.028 341.630, 228.376 342.538 C 228.881 343.854, 230.572 342.729, 236.725 336.983 C 246.615 327.747, 252.403 323.323, 269.514 311.918 C 285.658 301.158, 290.534 296.913, 296.747 288.206 C 301.598 281.408, 303.198 275.107, 301.078 271.146 C 299.383 267.978, 298 268.535, 298 272.386 C 298 277.092, 291.363 286.719, 283.547 293.349 C 280.102 296.272, 270.746 302.991, 262.756 308.280 C 254.765 313.569, 245.496 320.170, 242.158 322.948 C 238.819 325.727, 235.811 328, 235.472 328 C 234.652 328, 235.834 318.090, 237.619 310 C 242.149 289.470, 250.036 277.586, 269 262.715 C 276.102 257.147, 283.567 246.687, 288.469 235.437 C 290.611 230.522, 292.845 225.968, 293.432 225.319 C 294.250 224.414, 296.186 224.538, 301.693 225.845 C 305.650 226.785, 309.138 227.805, 309.446 228.113 C 310.115 228.782, 307.181 237.370, 303.675 245 C 298.083 257.171, 300.811 262.374, 307.284 251.884 C 310.917 245.997, 311.144 245.820, 312.955 247.459 C 314.740 249.075, 314.898 249.058, 315.920 247.149 C 317.401 244.382, 317.278 242.965, 315.373 240.859 C 313.867 239.196, 313.886 238.628, 315.623 233.280 C 317.466 227.605, 317.573 227.495, 321.500 227.232 C 323.700 227.085, 328.245 226.249, 331.600 225.374 L 337.700 223.784 342.600 227.537 C 345.295 229.601, 350.313 232.555, 353.750 234.103 C 357.188 235.650, 360 237.433, 360 238.064 C 360 239.461, 355.106 245.946, 349.579 251.875 C 341.813 260.206, 322.508 270.959, 319.986 268.360 C 319.526 267.887, 319.526 265.479, 319.985 263.009 C 321.299 255.936, 319.484 254.819, 316.073 260.601 C 313.329 265.251, 312.181 275.075, 314.186 276.739 C 316.189 278.402, 324.349 276.127, 334.645 271.035 C 344.103 266.358, 355.236 256.535, 363.167 245.869 L 368.297 238.971 373.398 239.566 C 376.204 239.893, 378.976 240.303, 379.558 240.476 C 382.956 241.485, 398.782 238.732, 405.385 235.983 L 412.677 232.948 419.088 234.459 C 422.615 235.290, 427.188 235.977, 429.250 235.985 C 431.313 235.993, 433 236.298, 433 236.662 C 433 237.025, 430.373 240.738, 427.162 244.912 C 409.950 267.285, 395.933 295.147, 389.953 318.873 C 387.076 330.288, 387.292 345.663, 390.437 353.312 C 395.468 365.545, 400.787 370.233, 417.182 376.883 C 429.200 381.757, 434.473 385.336, 439.785 392.222 C 444.936 398.898, 447.474 404.595, 453.498 423 C 456.109 430.975, 460.083 441.071, 462.330 445.436 C 466.605 453.739, 475.692 464.410, 481.591 468.056 C 485.818 470.669, 485.909 472.381, 481.909 474.038 C 472.302 478.017, 454.188 492.480, 445.143 503.392 C 440.453 509.050, 436.873 511.995, 427.593 517.829 C 403.692 532.854, 387.498 538.366, 373.870 536.116 C 360.274 533.870, 353.052 530.011, 347.529 522.042 L 344.701 517.962 350.604 512.620 C 361.991 502.316, 366.558 486.613, 362.418 472 C 361.561 468.975, 360.016 463.381, 358.983 459.570 C 357.951 455.758, 356.408 452.248, 355.553 451.770 C 353.449 450.592, 353.634 446.404, 356.022 441.141 C 358.385 435.933, 358.537 432.691, 356.498 430.999 C 354.161 429.059, 345.005 430.274, 338.694 433.361 C 332.668 436.310, 323.382 444.820, 321.033 449.547 C 320.226 451.171, 319.442 452.685, 319.289 452.911 C 319.137 453.136, 318.083 452.480, 316.948 451.453 C 314.317 449.072, 312.590 450.046, 308.338 456.307 C 303.021 464.135, 300.582 472.998, 300.576 484.500 C 300.572 493.684, 300.829 495.031, 303.725 501 C 307.062 507.878, 312.507 513.915, 318.515 517.395 C 321.664 519.219, 322.533 520.614, 325.039 527.853 C 328.868 538.914, 332.105 544.249, 339.467 551.634 C 345.966 558.152, 356.818 564.374, 367.008 567.421 C 377.955 570.696, 399.007 570.193, 408.398 566.433 C 410.526 565.580, 410.584 564.959, 407.343 577.808 L 405.500 585.117 399.500 584.447 C 396.200 584.079, 393.050 583.447, 392.500 583.044 C 388.995 580.473, 337.267 573.050, 308 570.918 C 287.991 569.460, 285.397 568.938, 285.908 566.470 C 286.132 565.387, 286.330 560.900, 286.349 556.500 C 286.388 547.051, 285.092 544.012, 278.584 538.283 C 273.210 533.553, 265.918 531, 257.778 531 C 252.485 531, 251.864 530.796, 252.457 529.252 C 257.484 516.150, 254.619 499.263, 246.099 491.782 C 240.595 486.950, 236.500 485.674, 228.604 486.333 L 221.707 486.908 222.327 478.204 C 223.878 456.435, 229.296 420.716, 233.122 407.044 C 241.411 377.417, 257.446 354.076, 286.098 329.928 C 298.401 319.558, 303.777 313.977, 310.232 304.871 C 314.103 299.411, 314.481 299.165, 322.861 296.648 C 340.384 291.387, 354.820 282.625, 365.604 270.707 C 370.873 264.883, 376 257.287, 376 255.304 C 376 252.098, 372.006 254.790, 361.144 265.320 C 353.826 272.414, 346.771 278.213, 342.247 280.856 C 336.575 284.168, 321.498 289.879, 311.329 292.567 C 310.685 292.737, 308.375 295.492, 306.196 298.688 C 300.328 307.295, 290.975 317.073, 281.634 324.366 C 270.607 332.977, 252.593 351.981, 245.744 362.228 C 235.576 377.441, 227.448 395.883, 224.542 410.333 C 218.466 440.542, 213.743 479.375, 212.314 510.882 C 211.805 522.080, 211.934 524.190, 213.103 523.811 C 215 523.194, 216.693 517.361, 218.274 506 C 219.507 497.136, 219.785 496.409, 222.416 495.139 C 227.644 492.616, 232.492 492.575, 237.529 495.014 C 242.798 497.565, 245.305 501.021, 247.676 509 C 249.191 514.096, 249.190 514.965, 247.662 520.831 C 246.755 524.312, 244.225 530.707, 242.039 535.042 C 239.854 539.376, 238.444 543.156, 238.907 543.442 C 239.369 543.728, 242.617 542.775, 246.124 541.325 C 255.539 537.430, 264.029 537.495, 270.529 541.513 C 277.096 545.572, 279.498 549.872, 279.459 557.500 C 279.443 560.800, 278.854 564.537, 278.150 565.805 L 276.871 568.110 253.185 567.305 C 219.178 566.149, 145.901 566.469, 122.500 567.876 C 99.751 569.243, 71.778 571.976, 45.500 575.398 C 25.217 578.039, 25.956 578.205, 23.856 570.531 C 21.762 562.876, 25.332 554.648, 32.595 550.392 C 38.393 546.994, 45.754 546.338, 54.222 548.465 C 57.919 549.393, 61.363 549.894, 61.875 549.577 C 62.390 549.259, 61.410 545.756, 59.687 541.751 C 55.693 532.466, 55.338 522.816, 58.752 516.345 C 65.145 504.226, 80.944 501.993, 95.181 511.195 C 98.507 513.345, 101.490 514.843, 101.809 514.524 C 102.128 514.206, 101.851 511.342, 101.194 508.162 C 98.653 495.860, 100.220 484.603, 105.838 474.783 C 109.791 467.873, 112.224 465.677, 119.510 462.443 C 124.630 460.170, 126.480 459.853, 132.249 460.258 C 140.250 460.821, 145.410 463.737, 149.965 470.269 C 156.366 479.449, 155.435 478.848, 158.656 475.872 C 164.231 470.721, 168.305 469.757, 171.853 472.750 C 173.853 474.437, 173.876 474.735, 172.480 481 C 168.664 498.140, 167.941 501.967, 167.362 508.110 C 166.726 514.859, 167.938 517.874, 169.841 514.278 C 172.909 508.480, 182.930 467.889, 189.413 435 C 196.367 399.723, 198.293 384.471, 198.318 364.500 C 198.358 332.134, 191.505 311.892, 174.561 294.334 C 166.978 286.475, 163.827 285.223, 163.174 289.808 C 162.934 291.491, 164.572 293.923, 169.367 299.006 C 189.133 319.960, 195.394 349.303, 189.421 393 C 185.830 419.275, 182.775 435.527, 177.577 456 L 175.419 464.500 171.675 464.168 C 169.616 463.985, 165.470 464.610, 162.463 465.556 L 156.995 467.275 152.962 462.694 C 150.684 460.106, 146.442 456.891, 143.214 455.306 C 130.422 449.024, 116.073 452.753, 104.201 465.444 C 96.946 473.200, 93.943 480.240, 93.301 491 C 92.680 501.401, 93.012 500.969, 86.862 499.374 C 75.662 496.469, 66.270 498.370, 58.639 505.086 C 51.738 511.161, 49.477 516.695, 49.687 527 C 49.782 531.675, 50.004 536.400, 50.180 537.500 C 50.470 539.310, 49.776 539.559, 42.874 540.120 C 24.263 541.633, 12.894 555.833, 17.166 572.230 C 18.682 578.049, 18.670 578.191, 16.607 579.036 C 15.448 579.511, 11.238 580.413, 7.250 581.040 L 0 582.181 0 586.109 C 0 589.659, 0.217 589.992, 2.250 589.558 C 15.974 586.633, 45.667 582.444, 73 579.579 C 153.047 571.188, 262.017 572.357, 350.678 582.560 C 358.280 583.435, 373.178 584.957, 383.784 585.943 C 394.391 586.929, 403.335 588.002, 403.660 588.327 C 403.985 588.652, 403.461 593.999, 402.496 600.209 C 401.531 606.419, 400.196 622.525, 399.529 636 C 398.487 657.058, 398.012 661.247, 396.147 665.816 C 391.489 677.228, 382.700 688.983, 364.909 707.595 C 347.117 726.209, 341.087 735.381, 338.443 747.856 C 336.535 756.856, 336.656 762.005, 339.002 771.792 C 342.628 786.916, 354.282 806.081, 365.668 815.640 C 387.389 833.878, 417.226 843.423, 441.892 840.023 C 451.610 838.683, 460.072 835.814, 464.869 832.232 C 469.274 828.943, 473.547 819.705, 475.634 808.961 C 476.538 804.308, 477.796 799.935, 478.431 799.244 C 479.087 798.528, 484.300 797.542, 490.542 796.953 C 502.313 795.841, 555.262 793.125, 555.862 793.602 C 556.061 793.761, 555.659 797.685, 554.969 802.324 C 551.373 826.493, 557.690 837.429, 579 843.926 C 584.225 845.520, 590.075 847.037, 592 847.299 C 593.925 847.561, 599.325 848.552, 604 849.502 C 611.011 850.927, 615.566 851.120, 630 850.605 C 639.625 850.261, 649.075 849.872, 651 849.740 L 654.500 849.500 655.093 855 C 655.795 861.510, 658.039 866.216, 662.354 870.228 C 669.115 876.514, 683.961 882.104, 703.264 885.631 C 716.482 888.047, 749.980 888.044, 763 885.627 C 793.123 880.035, 810.813 870.754, 814.056 858.839 C 815.685 852.855, 814.641 840.574, 811.519 829 C 805.763 807.659, 803.169 797.343, 802.843 794.500 L 802.500 791.500 808.955 791.500 C 815.016 791.500, 815.446 791.652, 816 794 C 816.325 795.375, 817.245 796.500, 818.045 796.500 C 820.478 796.500, 820.275 790.862, 817.551 782.745 C 814.634 774.058, 814.315 768.424, 816.557 765.223 C 820.174 760.058, 825.851 763.598, 829.861 773.519 C 832.403 779.811, 832.980 780.530, 835.707 780.803 C 838.069 781.040, 839.304 780.427, 841.342 778.006 C 844.171 774.643, 846.991 766.474, 847.015 761.568 C 847.039 756.755, 850.649 743.627, 853.489 738.022 C 856.528 732.025, 862.219 725.455, 866.125 723.435 C 869.826 721.521, 876.007 721.616, 878.883 723.631 C 881.536 725.489, 884 730.718, 884 734.490 C 884 739.544, 878.300 749.382, 870.132 758.423 C 858.881 770.876, 854.267 781.487, 858.554 785.045 C 859.858 786.127, 861.283 785.731, 867.386 782.592 C 872.575 779.922, 875.644 778.942, 878.081 779.174 C 883.320 779.674, 883.031 782.511, 877.043 789.354 C 869.588 797.873, 870.717 802.699, 878.556 795.817 C 882.141 792.669, 882.290 792.636, 891.841 792.834 C 922.321 793.468, 994.664 797.331, 995.714 798.380 C 995.995 798.661, 995.724 801.765, 995.112 805.277 C 994.500 808.790, 994 813.133, 994 814.928 C 994 819.868, 991.119 828.750, 988.547 831.740 C 986.332 834.315, 986.178 834.347, 983.700 832.723 C 976.634 828.093, 968.236 830.060, 962.810 837.615 C 960.412 840.954, 958.633 842.270, 955.208 843.237 C 949.603 844.820, 949.353 846.172, 954.470 847.235 C 959.529 848.286, 963.120 846.842, 966.513 842.393 C 969.176 838.903, 973.697 836, 976.470 836 C 977.333 836, 979.892 837.169, 982.156 838.598 C 987.199 841.782, 989.494 841.062, 993.961 834.896 C 997.472 830.048, 999.388 823.889, 1001.084 812 C 1003.890 792.328, 1009.918 782.048, 1020.142 779.497 C 1024.329 778.452, 1028.849 781.405, 1031.200 786.719 C 1033.466 791.841, 1033.203 798.586, 1030.366 808.139 C 1028.551 814.250, 1029.535 817.594, 1033.435 818.573 C 1038.727 819.901, 1044.837 814.119, 1065.738 788 C 1097.764 747.980, 1124.350 726.688, 1150.717 719.944 C 1165.376 716.195, 1175.930 717.666, 1182.661 724.397 C 1187.953 729.690, 1189.042 734.354, 1186.373 740.304 C 1181.944 750.182, 1175.599 754.364, 1153.500 761.971 C 1125.148 771.732, 1103.858 784.129, 1087.399 800.461 C 1078.299 809.491, 1075.512 813.286, 1076.359 815.492 C 1077.433 818.292, 1080.543 817.026, 1085.892 811.610 C 1090.693 806.747, 1091.572 806.256, 1094.858 806.591 C 1096.861 806.796, 1103.225 807.431, 1109 808.002 C 1114.775 808.574, 1122.425 809.485, 1126 810.027 C 1129.575 810.570, 1137 811.658, 1142.500 812.446 C 1194.556 819.903, 1232.283 831.716, 1243.422 844.045 C 1247.688 848.768, 1247.931 851.740, 1244.395 855.943 C 1237.102 864.609, 1217.603 870.724, 1174 878.018 C 1148.464 882.290, 1137.914 886.015, 1135.194 891.719 C 1131.930 898.565, 1136.987 902.721, 1153.883 907.076 C 1177.684 913.212, 1186 917.571, 1186 923.911 C 1186 934.860, 1150.430 945.895, 1086 954.933 C 985.156 969.080, 792.924 972.723, 609 963.973 C 497.471 958.667, 421.406 950.738, 379 939.999 C 358.827 934.891, 350 930.445, 350 925.394 C 350 921.033, 356.884 917.820, 376.559 912.997 C 394.595 908.576, 399.331 905.207, 395.574 899.472 C 391.884 893.841, 378.662 890.522, 348 887.529 C 319.435 884.741, 312.564 883.930, 300.500 881.919 C 283.442 879.075, 270.760 875.531, 261.331 870.971 C 248.456 864.746, 246.194 860.112, 252.579 853.044 C 258.232 846.786, 269.330 841.420, 285.760 836.998 C 290.304 835.776, 294.222 834.449, 294.469 834.051 C 295.256 832.777, 291.955 829, 290.055 829 C 286.309 829, 270.230 834.196, 262.263 837.982 C 232.752 852.004, 235.903 871.501, 269.451 882.452 C 286.215 887.925, 306.616 891.174, 351.278 895.484 C 367.088 897.010, 382.686 899.570, 385.041 901.025 C 387.258 902.396, 385.236 903.730, 378.496 905.345 C 366.086 908.317, 356.757 911.104, 352.462 913.123 C 346.494 915.928, 341.999 921.156, 342.004 925.285 C 342.021 940.346, 371.824 949.898, 450 959.899 C 481.112 963.879, 564.006 970.159, 610 972.021 C 623.475 972.566, 644.175 973.449, 656 973.984 C 700.586 975.999, 789.285 977.245, 841 976.582 C 888.777 975.970, 959.780 973.824, 976 972.501 C 979.575 972.209, 993.300 971.289, 1006.500 970.455 C 1080.707 965.768, 1153.859 953.482, 1177.500 941.736 C 1192.865 934.102, 1197.807 923.867, 1190.387 915.048 C 1186.535 910.470, 1175.026 905.382, 1159.500 901.393 C 1140.195 896.433, 1138.957 895.593, 1145.800 892.102 C 1149.548 890.190, 1155.863 888.707, 1173.500 885.597 C 1178.450 884.724, 1190.073 882.637, 1199.328 880.959 C 1239.789 873.621, 1258.249 861.406, 1252.985 845.453 C 1247.030 827.411, 1196.454 810.580, 1124 802.529 C 1116.575 801.704, 1108.112 800.762, 1105.193 800.435 C 1102.274 800.109, 1100.025 799.425, 1100.195 798.915 C 1100.365 798.405, 1104.103 795.288, 1108.502 791.989 C 1119.145 784.005, 1137.235 775.249, 1155 769.479 C 1172.138 763.914, 1180.182 759.734, 1186.911 752.898 C 1199.291 740.322, 1197.316 723.130, 1182.493 714.443 C 1179.834 712.885, 1175.236 711.522, 1170.124 710.777 C 1162.770 709.705, 1161.050 709.801, 1152.244 711.771 C 1139.614 714.597, 1123.529 722.501, 1109.819 732.618 C 1096.640 742.342, 1075.257 763.928, 1062.766 780.115 C 1057.412 787.053, 1052.444 793.216, 1051.727 793.812 C 1050.907 794.492, 1048.594 794.633, 1045.505 794.191 L 1040.588 793.488 1039.163 787.648 C 1038.150 783.496, 1036.692 780.712, 1034.119 778.014 C 1024.659 768.096, 1010.656 771.196, 1002.201 785.082 C 1000.352 788.119, 998.236 790.434, 997.388 790.351 C 993.477 789.965, 926.223 786.848, 908.129 786.214 L 887.759 785.500 887.523 781.572 C 887.352 778.726, 886.542 777.003, 884.587 775.322 C 881.426 772.603, 877.842 772.398, 871.440 774.572 C 868.894 775.436, 866.562 775.895, 866.257 775.591 C 865.490 774.824, 869.282 769.618, 877.350 760.360 C 889.146 746.823, 893.119 735.837, 889.574 726.553 C 886.329 718.058, 878.330 713.449, 869.644 715.072 C 855.543 717.706, 845.450 732.073, 841.495 755.141 C 839.477 766.908, 837.988 772.014, 836.592 771.950 C 835.991 771.922, 834.244 769.247, 832.709 766.006 C 828.538 757.200, 822.543 754.116, 816.085 757.456 C 810.682 760.250, 808.706 768.675, 811.059 778.882 C 811.615 781.292, 811.851 783.482, 811.584 783.749 C 811.317 784.016, 809.062 784.464, 806.573 784.745 C 800.811 785.394, 800.958 785.787, 798.115 762 C 796.900 751.825, 794.351 732.402, 792.452 718.838 C 790.554 705.274, 789 693.048, 789 691.670 C 789 689.842, 790.015 688.551, 792.750 686.903 C 803.800 680.242, 820.747 664.879, 831.172 652.071 L 834.777 647.641 840.639 652.870 C 846.288 657.909, 849.510 659.662, 880.133 674.350 C 891.098 679.610, 901.820 688.778, 909.309 699.300 C 914.646 706.797, 916.613 710.635, 921.458 723 C 929.243 742.870, 935.646 752.106, 945.155 757.181 C 949.090 759.281, 950.775 759.498, 963 759.480 C 975.921 759.460, 976.957 759.302, 987.160 755.787 C 993.023 753.768, 1000.898 750.561, 1004.660 748.661 C 1027.548 737.102, 1050.137 716.645, 1057.517 700.791 C 1060.770 693.803, 1060.964 682.520, 1057.962 674.903 C 1054.532 666.202, 1047.747 656.837, 1038.074 647.454 C 1032.720 642.260, 1023.474 631.361, 1016.059 621.500 C 1009.028 612.150, 999.172 600.450, 994.156 595.500 C 989.141 590.550, 985.029 586.092, 985.018 585.594 C 984.998 584.571, 1006.551 585.267, 1044.500 587.514 C 1067.850 588.897, 1075.521 589.544, 1116 593.544 C 1147.800 596.686, 1189.005 602.404, 1238.472 610.540 C 1243.407 611.352, 1247.986 612.575, 1248.648 613.258 C 1250.997 615.682, 1262.008 638.848, 1266.861 651.578 C 1274.344 671.203, 1281.895 697.438, 1280.471 698.862 C 1280.260 699.073, 1277.408 696.828, 1274.134 693.873 C 1266.544 687.023, 1259.040 682.509, 1250.038 679.379 C 1241.752 676.497, 1233.394 676.403, 1231.657 679.172 C 1230.221 681.462, 1231.612 683.896, 1239.558 693 C 1247.556 702.164, 1255.336 713.699, 1261.138 724.993 C 1265.378 733.249, 1267.879 735.521, 1270.185 733.215 C 1272.791 730.609, 1259.423 706.598, 1247.621 692.686 C 1244.529 689.042, 1242 685.561, 1242 684.951 C 1242 683.236, 1247.543 684.737, 1255.944 688.727 C 1261.766 691.491, 1265.390 694.249, 1272.573 701.381 C 1280.193 708.946, 1282.418 711.901, 1285.629 718.723 C 1287.758 723.245, 1289.838 726.958, 1290.250 726.973 C 1292.785 727.065, 1287.691 695.420, 1282.031 675.913 C 1275.932 654.893, 1265.767 630.130, 1256.973 614.871 C 1252.318 606.794, 1251.189 604, 1252.581 604 C 1254.263 604, 1264.257 611.662, 1269.469 616.947 C 1275.764 623.331, 1276.992 623.919, 1278.996 621.505 C 1279.995 620.301, 1279.924 619.532, 1278.629 617.557 C 1277.745 616.208, 1277.355 614.900, 1277.761 614.649 C 1278.168 614.399, 1282.325 614.798, 1287 615.536 C 1291.675 616.274, 1297.045 617.017, 1298.934 617.189 C 1301.781 617.447, 1302.514 618.013, 1303.218 620.500 C 1304.137 623.746, 1308.956 659.059, 1308.983 662.750 C 1309.004 665.539, 1307.358 665.704, 1306.500 663 C 1305.623 660.238, 1304.450 660.498, 1303.102 663.754 C 1302.141 666.074, 1302.418 667.861, 1304.860 675.085 C 1308.552 686.009, 1311.533 699.418, 1313.496 713.938 C 1314.980 724.914, 1315.464 726.870, 1316.449 725.884 C 1317.425 724.908, 1315.014 656.733, 1313.588 645 C 1310.087 616.185, 1305.606 595.789, 1297.566 572.076 C 1295.063 564.693, 1293.218 558.449, 1293.465 558.201 C 1293.713 557.954, 1295.283 558.902, 1296.955 560.309 C 1303.360 565.698, 1311.143 575.803, 1317.460 586.931 C 1331.575 611.795, 1341 653.107, 1341 690.107 C 1341 696.648, 1341.388 702, 1341.863 702 C 1342.337 702, 1343.268 696.263, 1343.931 689.250 C 1345.060 677.301, 1345.792 672.421, 1349.664 651 C 1355.500 618.720, 1368.119 585.997, 1381.916 567.363 C 1387.818 559.391, 1395.573 551.240, 1396.435 552.102 C 1396.695 552.361, 1394.437 560.162, 1391.417 569.438 C 1386.080 585.832, 1380.707 604.855, 1378.830 614 C 1373.409 640.416, 1369.723 667.409, 1367.496 697 C 1365.781 719.789, 1365.745 721, 1366.792 721 C 1367.228 721, 1368.367 716.045, 1369.324 709.989 C 1371.701 694.938, 1375.110 682.337, 1379.938 670.755 C 1382.974 663.471, 1383.992 659.684, 1383.968 655.755 C 1383.938 650.825, 1383.841 650.624, 1382.400 652.500 C 1381.555 653.600, 1380.478 655.171, 1380.007 655.992 C 1377.840 659.765, 1378.009 654.916, 1380.537 640.813 C 1382.047 632.391, 1383.466 625.289, 1383.692 625.032 C 1383.918 624.774, 1386.892 624.286, 1390.301 623.947 C 1397.644 623.217, 1402 624.390, 1402 627.098 C 1402 628.144, 1402.450 629, 1403 629 C 1403.550 629, 1404 628.610, 1404 628.133 C 1404 627.657, 1407.954 623.269, 1412.788 618.383 C 1421.309 609.769, 1433.852 600.451, 1435.973 601.158 C 1436.546 601.349, 1435.149 604.654, 1432.867 608.503 C 1425.978 620.124, 1411.532 650.702, 1406.648 664 C 1398.933 685.007, 1392.508 708.027, 1389.553 725.250 C 1388.526 731.232, 1390.509 729.586, 1392.363 722.918 C 1394.360 715.737, 1398.716 706.823, 1404.297 698.500 C 1409.748 690.370, 1423.144 677.254, 1430.631 672.716 C 1437.128 668.778, 1449.887 663.554, 1450.794 664.461 C 1451.091 664.758, 1449.986 666.688, 1448.337 668.750 C 1434.397 686.193, 1410.597 726.921, 1412.523 730.038 C 1412.823 730.522, 1415.415 729.133, 1418.284 726.951 C 1430.906 717.352, 1448.426 715.439, 1457.073 722.715 C 1461.736 726.638, 1465.863 723.492, 1462.595 718.505 C 1458.462 712.197, 1442.008 708.887, 1432.039 712.358 C 1429.586 713.212, 1427.388 713.722, 1427.157 713.490 C 1426.925 713.258, 1428.328 710.466, 1430.275 707.284 C 1432.222 704.103, 1435.449 698.800, 1437.446 695.500 C 1439.443 692.200, 1445.560 683.436, 1451.039 676.024 C 1456.517 668.612, 1461 661.840, 1461 660.974 C 1461 656.524, 1454.931 655.818, 1444.915 659.105 C 1434.096 662.655, 1425.272 668.063, 1413.750 678.208 C 1410.037 681.477, 1407 683.696, 1407 683.139 C 1407 679.765, 1419.822 647.751, 1426.480 634.500 L 1430.500 626.500 1471 626.517 C 1507.784 626.533, 1526.364 627.452, 1534.250 629.648 C 1535.673 630.044, 1536 629.489, 1536 626.686 C 1536 623.440, 1535.739 623.172, 1531.557 622.119 C 1529.114 621.503, 1526.076 620.993, 1524.807 620.985 C 1519.967 620.953, 1519.791 619.765, 1523.546 612.438 C 1528.627 602.522, 1529.883 594.166, 1527.574 585.636 C 1523.254 569.674, 1510.753 560, 1494.449 560 C 1491.635 560, 1489.097 559.764, 1488.808 559.475 C 1488.519 559.186, 1489.150 555.923, 1490.211 552.225 C 1492.804 543.177, 1492.060 531.001, 1488.426 523.042 C 1482.053 509.084, 1467.599 500.846, 1452.347 502.479 C 1448.865 502.852, 1445.676 503.234, 1445.258 503.329 C 1444.841 503.423, 1444.233 500.350, 1443.906 496.500 C 1442.761 482.992, 1438.842 475.196, 1429.254 467.357 C 1419.795 459.623, 1405.234 456.348, 1391.598 458.889 C 1385.451 460.034, 1373.459 465.257, 1367.180 469.523 C 1365.176 470.886, 1363.148 472, 1362.674 472 C 1362.200 472, 1362.123 469.743, 1362.502 466.984 C 1363.799 457.557, 1359.136 444.366, 1351.904 437 C 1344.958 429.927, 1339.187 427.539, 1328.979 427.518 C 1321.311 427.502, 1319.775 427.836, 1313.637 430.858 C 1309.885 432.705, 1306.482 433.830, 1306.073 433.358 C 1305.665 432.886, 1304.533 430.335, 1303.559 427.689 C 1301 420.737, 1296.291 415.151, 1290 411.602 C 1285.276 408.938, 1283.512 408.504, 1277.500 408.530 C 1266.479 408.576, 1258.341 414.223, 1252.536 425.849 C 1250.530 429.867, 1249.447 431.061, 1248.183 430.646 C 1247.257 430.342, 1243.800 429.124, 1240.500 427.940 C 1229.130 423.859, 1215.392 427.663, 1206.129 437.457 C 1196.547 447.588, 1192.731 458.670, 1192.593 476.761 C 1192.534 484.522, 1192.133 488.864, 1191.500 488.591 C 1177.359 482.493, 1177.764 482.593, 1167 482.546 C 1157.190 482.503, 1156.149 482.695, 1151.152 485.462 C 1140.549 491.335, 1133 503.677, 1133 515.138 C 1133 518.929, 1132.833 519.180, 1130.750 518.522 C 1120.012 515.125, 1117.532 514.786, 1112.181 515.984 C 1108.536 516.800, 1105.544 518.321, 1102.920 520.691 C 1096.499 526.492, 1094.613 530.454, 1094.023 539.385 L 1093.500 547.300 1084.500 547.425 C 1077.301 547.524, 1074.550 548.012, 1070.753 549.863 C 1061.220 554.507, 1055.123 565.328, 1056.440 575.262 L 1057.111 580.315 1041.805 579.624 C 1033.387 579.243, 1019.525 578.512, 1011 577.999 C 1002.475 577.486, 990.250 577.051, 983.833 577.033 L 972.165 577 964.516 572.478 C 960.309 569.991, 953.185 566.109, 948.684 563.852 C 936.741 557.864, 928.252 552.019, 921.837 545.370 C 915.957 539.275, 903.611 520.016, 904.814 518.814 C 905.191 518.437, 909.312 516.524, 913.972 514.563 C 918.631 512.602, 926.193 508.699, 930.777 505.888 L 939.110 500.778 945.819 507.255 C 968.132 528.796, 996.667 536.844, 1020.399 528.290 C 1034.967 523.038, 1046.136 512.652, 1056.255 494.942 C 1060.401 487.685, 1066.707 482.686, 1079.215 476.741 C 1097.837 467.889, 1110.069 458.704, 1121.487 445 C 1137.914 425.284, 1150.333 400.167, 1156.840 373.500 C 1161.595 354.013, 1162.067 327.848, 1158.048 306.500 L 1156.166 296.500 1159.685 285.500 C 1166.033 265.660, 1174.526 249.218, 1180.289 245.612 C 1181.505 244.851, 1186.167 243.998, 1190.649 243.716 C 1200.964 243.067, 1208.951 239.654, 1215.314 233.176 C 1221.592 226.784, 1224.248 220.417, 1224.791 210.460 C 1225.354 200.122, 1223.787 192.795, 1218.963 183.206 C 1209.304 164.007, 1192.263 152.956, 1174.624 154.454 C 1154.370 156.173, 1127.983 174.916, 1111.744 199.118 C 1108.860 203.416, 1106.033 206.948, 1105.462 206.966 C 1104.891 206.985, 1102.532 204.122, 1100.219 200.604 C 1097.907 197.087, 1092.716 190.224, 1088.685 185.354 C 1064.428 156.052, 1036.821 141.815, 1007.095 143.277 C 995.668 143.839, 988.903 145.371, 977.277 150.026 C 962.356 156, 950.855 163.884, 933.685 179.907 C 927.737 185.458, 922.077 190, 921.109 190 C 920.141 190, 918.258 188.829, 916.924 187.398 C 913.785 184.029, 898.335 172.514, 889.969 167.309 C 862.649 150.311, 830.319 141, 798.622 141 C 791.680 141, 786 140.637, 786 140.194 C 786 139.751, 787.120 137.871, 788.488 136.016 C 793.339 129.441, 792.597 120.394, 786.966 117.483 C 779.068 113.398, 764.313 118.409, 755.555 128.150 L 751 133.216 750.994 124.358 C 750.991 119.486, 750.504 113.755, 749.912 111.622 C 746.510 99.368, 734.121 100.248, 726.207 113.306 C 721.683 120.770, 720.045 129.428, 721.057 140.530 C 721.502 145.412, 721.650 149.758, 721.385 150.186 C 721.120 150.614, 719.137 149.795, 716.977 148.366 C 709.706 143.554, 707.080 148.559, 713.970 154.096 C 716.154 155.851, 717.738 157.615, 717.490 158.016 C 717.242 158.418, 713.093 160.424, 708.270 162.474 C 682.141 173.581, 657.372 192.973, 640.218 215.750 C 637.215 219.738, 634.547 223, 634.289 223 C 634.031 223, 631.273 220.723, 628.160 217.940 C 613.540 204.869, 589.996 191.572, 572.500 186.506 C 562.032 183.475, 546.289 181.043, 537 181.022 C 518.959 180.983, 496.165 187.442, 478.773 197.522 C 470.384 202.384, 469 202.801, 469 200.467 C 469 197.314, 463.943 189.123, 459.020 184.302 C 449.071 174.560, 430.471 166.345, 413.028 163.988 C 403.153 162.654, 403 162.588, 403 159.622 C 403 147.239, 390.256 132.139, 372.661 123.674 C 350.435 112.981, 314.809 108.834, 296.264 114.782 L 290.028 116.782 287.979 113.466 C 286.852 111.643, 283.311 107.726, 280.110 104.762 C 264.197 90.030, 234.114 81.665, 209 84.990 M 210.500 92.940 C 186.446 96.010, 166.642 109.261, 161.291 125.865 C 160.340 128.816, 159.029 131.435, 158.378 131.685 C 157.727 131.935, 155.436 131.243, 153.287 130.146 C 145.912 126.384, 137.208 124.728, 128 125.336 C 100.986 127.119, 84.074 144.812, 88.415 166.750 L 89.256 171 84.378 171.035 C 70.937 171.131, 54.269 176.015, 43.757 182.937 C 35.465 188.397, 33.060 190.804, 30.027 196.681 C 26.700 203.128, 26.381 210.599, 29.224 215.500 C 33.916 223.591, 46.261 229.104, 64.294 231.161 C 81.906 233.171, 97.863 230.465, 109.410 223.512 L 115.299 219.966 119.899 222.208 C 123.482 223.954, 126.270 224.454, 132.500 224.467 C 142.436 224.487, 148.525 221.970, 154.773 215.262 C 159.019 210.702, 159.179 210.631, 162.305 211.896 C 172.071 215.849, 179.671 215.391, 187.306 210.390 L 191.112 207.897 196.051 210.936 C 205.824 216.950, 212.046 218.461, 227 218.452 C 237.141 218.446, 241.980 217.994, 246.448 216.636 C 254.660 214.141, 263.307 209.621, 268.029 205.355 C 272.517 201.300, 271.377 200.990, 281.500 209.014 C 294.043 218.956, 316.054 222.351, 333.258 216.997 L 339.207 215.145 344.484 219.443 C 355.732 228.606, 368.601 232.433, 386.151 231.836 C 396.494 231.484, 398.137 231.154, 404.688 228.106 C 411.157 225.096, 412.207 224.878, 415.188 225.932 C 420.372 227.765, 433.902 228.400, 438.881 227.045 C 442.235 226.132, 445.515 223.710, 452.881 216.710 C 458.171 211.681, 462.646 206.750, 462.824 205.752 C 463.420 202.410, 458.924 195.145, 452.683 189.365 C 441.944 179.419, 424.174 172.520, 406 171.240 L 395.500 170.500 395.804 165.432 C 396.757 149.535, 381.971 134.405, 357.398 126.133 C 344.289 121.720, 336.214 120.546, 319.500 120.624 C 305.511 120.690, 302.746 120.980, 297.500 122.934 C 287.706 126.582, 286.436 126.622, 284.429 123.350 C 279.283 114.964, 276.965 112.244, 271.500 108.181 C 268.200 105.727, 262.800 102.449, 259.500 100.896 C 246.022 94.552, 224.827 91.111, 210.500 92.940 M 735.028 113.970 C 727.212 122.337, 725.275 139.274, 730.367 154.738 C 731.859 159.268, 733.041 163.318, 732.995 163.738 C 732.949 164.157, 731.645 164.367, 730.098 164.205 C 723.794 163.544, 696.679 176.571, 681.088 187.751 C 669.712 195.908, 654.396 210.747, 646.648 221.118 C 641.982 227.364, 641.005 229.345, 641.228 232.118 C 641.489 235.359, 641.362 235.494, 638.199 235.347 C 635.745 235.233, 633.566 233.945, 629.699 230.320 C 622.464 223.537, 606.562 211.784, 598.235 207.065 C 569.674 190.881, 538.563 186.020, 510.500 193.357 C 489.575 198.828, 465.545 213.877, 448.490 232.191 C 417.413 265.563, 394.416 313.066, 396.267 340.065 C 397.215 353.889, 402.108 360.867, 414.990 366.765 C 434.094 375.511, 436.925 377.142, 442.252 382.470 C 449.479 389.697, 453.933 398.472, 460.558 418.541 C 466.781 437.392, 468.942 442.075, 475.314 450.515 C 481.086 458.160, 486.895 462.423, 501.936 470.049 C 517.103 477.739, 522.443 482.558, 532.561 497.687 C 544.488 515.521, 552.379 522.089, 566.103 525.605 C 581.411 529.527, 597.197 523.673, 613.358 508.081 C 622.476 499.285, 633.353 483.508, 638.006 472.332 C 643.095 460.106, 643.116 460.317, 635.167 443.959 C 627.987 429.184, 621.613 410.666, 618.144 394.500 C 612.116 366.418, 612.820 333.440, 620.004 307.252 L 622.053 299.786 618.372 293.143 C 601.549 262.782, 579.962 243.301, 553.287 234.408 C 543.656 231.197, 526.863 230.102, 515.459 231.942 C 496.311 235.031, 472.669 246.545, 454.500 261.629 C 447.429 267.500, 446 268.436, 446 267.197 C 446 265.408, 452.234 258.420, 459.822 251.704 C 477.869 235.729, 495.826 226.962, 517.715 223.440 C 534.291 220.773, 554.183 224.017, 569.815 231.936 C 591.937 243.144, 610.517 262.210, 622.245 285.739 C 627.943 297.169, 628.062 298.084, 625.743 312.500 C 617.784 361.972, 623.365 402.917, 643.538 443.061 C 652.489 460.874, 668.991 480.491, 684.003 491.167 C 698.647 501.580, 719.816 511.073, 738.283 515.508 C 750.845 518.525, 779.182 522.244, 783.473 521.439 C 786.107 520.945, 787.360 521.459, 791.064 524.555 C 808.364 539.014, 823.163 544.776, 838.591 543.057 C 853.923 541.348, 862.036 536.504, 875.530 521 C 884.596 510.583, 887.804 508.312, 887.187 512.750 C 887.015 513.987, 887.258 515, 887.728 515 C 892.139 515, 922 502.804, 922 501.002 C 922 500.658, 916.038 499.847, 908.750 499.201 C 897.435 498.197, 890.828 497.093, 873.859 493.373 C 871.420 492.838, 870.927 493.347, 867.417 500.026 C 862.640 509.117, 855.187 517.339, 848.592 520.794 C 844.302 523.041, 842.240 523.460, 835.500 523.451 C 825.076 523.437, 819.846 520.955, 810.432 511.557 C 799.735 500.877, 793.506 487.300, 784.595 455.245 C 781.538 444.246, 779.454 439, 778.143 439 C 777.615 439, 774.631 441.079, 771.512 443.620 C 764.589 449.259, 762.965 448.470, 766.577 441.222 C 771.068 432.210, 781.660 425.614, 790.713 426.194 C 796.723 426.578, 797.114 428.740, 791.524 430.675 C 785.001 432.933, 785.029 433.462, 792.039 440.590 C 815.327 464.266, 848.662 480.465, 892 489.165 C 902.241 491.221, 906.346 491.475, 929.500 491.481 C 957.566 491.488, 967.014 490.375, 989 484.473 C 1038.552 471.170, 1081.019 440.726, 1108.230 399 C 1124.762 373.650, 1133.587 351.803, 1145.999 305.500 C 1147.769 298.900, 1150.448 289.118, 1151.953 283.762 C 1153.459 278.406, 1154.460 273.793, 1154.179 273.512 C 1153.897 273.230, 1151.154 272.990, 1148.083 272.978 C 1142.632 272.957, 1136.804 270.979, 1132.502 267.691 C 1129.099 265.091, 1131.784 264.512, 1137.780 266.553 C 1141.111 267.687, 1146.184 268.500, 1149.925 268.500 L 1156.350 268.500 1159.214 262.717 C 1160.788 259.536, 1161.846 256.559, 1161.563 256.102 C 1161.280 255.644, 1159.300 255.035, 1157.163 254.749 C 1153.365 254.239, 1147.464 251.203, 1148.418 250.249 C 1148.682 249.985, 1150.338 250.271, 1152.098 250.884 C 1153.858 251.498, 1157.385 252, 1159.936 252 C 1164.333 252, 1164.765 251.742, 1168.287 247.026 C 1170.329 244.290, 1172 241.702, 1172 241.274 C 1172 240.847, 1169.981 239.426, 1167.514 238.117 C 1165.046 236.808, 1160.967 233.534, 1158.449 230.842 C 1153.118 225.143, 1147.171 213.429, 1148.787 211.813 C 1149.511 211.089, 1150.580 211.953, 1152.283 214.635 C 1156.090 220.632, 1164.890 228.339, 1171.500 231.464 C 1176.277 233.722, 1179.340 234.397, 1186.525 234.775 C 1197.780 235.366, 1203.663 233.206, 1210.393 226.010 C 1216.004 220.012, 1217.397 215.200, 1216.721 204.154 C 1216.291 197.134, 1215.617 194.609, 1212.479 188.259 C 1207.897 178.990, 1198.796 169.515, 1190.641 165.525 C 1185.343 162.933, 1184.271 162.764, 1176.091 163.231 C 1166.299 163.789, 1159.525 166.280, 1150.850 172.512 C 1148.180 174.431, 1145.542 176, 1144.988 176 C 1144.434 176, 1139.308 180.613, 1133.595 186.250 C 1120.987 198.693, 1112.820 210.797, 1102.561 232.243 C 1098.547 240.634, 1094.943 248.625, 1094.551 250 C 1094.159 251.375, 1092.115 256.325, 1090.010 261 C 1087.904 265.675, 1084.992 273.325, 1083.539 278 C 1082.085 282.675, 1079.781 289.471, 1078.417 293.103 C 1075.356 301.255, 1075.827 302.870, 1083.665 311.088 C 1086.774 314.348, 1089.064 317.270, 1088.752 317.581 C 1087.709 318.625, 1081.546 314.830, 1076.778 310.207 L 1072.055 305.629 1068.443 313.565 C 1064.192 322.904, 1059.466 330.922, 1052.690 340.292 C 1047.883 346.939, 1047.801 347.175, 1048.845 351.287 C 1050.211 356.667, 1049.011 357.859, 1046.139 353.975 L 1043.893 350.936 1038.235 355.978 C 1032.421 361.160, 1029.655 363.165, 1019.801 369.339 C 1014.965 372.369, 1013.923 373.561, 1012.924 377.205 C 1011.318 383.060, 1011.569 394.438, 1013.437 400.500 C 1015.427 406.955, 1015.471 408.636, 1013.610 407.092 C 1011.775 405.568, 1008.228 395.659, 1007.492 390 C 1007.170 387.525, 1007.321 383.354, 1007.828 380.731 C 1008.334 378.109, 1008.468 375.802, 1008.124 375.606 C 1007.781 375.410, 1005.025 376.071, 1002 377.075 C 996.271 378.977, 990.212 380.439, 983.641 381.505 C 979.202 382.226, 975.857 385.384, 972.525 392 C 969.467 398.073, 966.750 409.238, 966.623 416.250 C 966.566 419.413, 966.230 422, 965.876 422 C 964.686 422, 964.027 417.550, 964.014 409.407 C 963.999 400.806, 966.114 392.788, 970.095 386.346 C 971.268 384.448, 972.064 382.784, 971.864 382.650 C 971.664 382.515, 966.032 381.345, 959.350 380.049 L 947.200 377.694 942.850 379.948 C 932.388 385.370, 922.022 397.908, 918.338 409.597 C 916.530 415.332, 915 416.654, 915 412.481 C 915 408.973, 919.440 396.621, 922.100 392.730 C 925.688 387.481, 933.221 380.035, 937.250 377.754 C 939.313 376.587, 941 375.363, 941 375.035 C 941 374.707, 937.033 372.089, 932.184 369.219 C 922.625 363.560, 918.682 362.855, 909.028 365.079 C 897.858 367.653, 882.601 378.121, 876.500 387.395 C 873.858 391.411, 872 393.093, 872 391.467 C 872 389.302, 878.114 379.703, 882.336 375.238 C 889.793 367.354, 898.990 362.223, 909.169 360.270 C 913.751 359.390, 917.678 358.529, 917.896 358.356 C 918.247 358.077, 914.789 353.920, 907.574 345.948 C 902.929 340.815, 888.054 338.672, 875.896 341.384 C 866.830 343.406, 859.170 346.878, 852.250 352.102 C 845.453 357.232, 845.523 355.496, 852.385 348.743 C 863.975 337.337, 880.040 332.850, 896.752 336.352 C 900.191 337.072, 903.211 337.456, 903.462 337.204 C 903.714 336.952, 903.292 335.532, 902.524 334.047 C 900.645 330.412, 896 313.729, 896 310.613 C 896 306.828, 897.950 306.408, 899.272 309.909 C 900.563 313.330, 902 314.001, 902 311.182 C 902 306.709, 905.366 298.600, 908.806 294.784 C 921.354 280.867, 940.399 286.251, 950.097 306.457 C 955.620 317.964, 956.743 327.117, 954.368 341.250 L 953.738 345 957.369 345 C 959.930 345, 961 345.442, 961 346.500 C 961 347.381, 960.087 348, 958.787 348 C 956.118 348, 941.673 355.048, 937.544 358.365 L 934.588 360.740 939.544 363.870 C 945.865 367.861, 958.259 371.838, 968.307 373.098 C 974.438 373.866, 978.116 373.741, 985.171 372.524 C 995.068 370.816, 998 369.668, 998 367.502 C 998 362.543, 989.222 346.162, 982.995 339.500 C 980.653 336.994, 979.847 334.606, 978.098 325 C 976.947 318.675, 975.496 310.800, 974.874 307.500 C 967.308 267.352, 948.521 230.325, 922.583 204.443 C 893.750 175.672, 858.083 156.928, 821.001 151.059 C 801.965 148.047, 777.645 148.980, 772.089 152.937 C 768.618 155.408, 768 155.486, 768 153.450 C 768 150.636, 771.094 145.848, 777.052 139.444 C 785.502 130.361, 786.501 124.751, 779.769 124.191 C 769.339 123.324, 755.019 135.684, 749.154 150.614 C 744.869 161.524, 742.811 154.241, 743.613 131 C 744.140 115.701, 743.387 111.891, 739.699 111.181 C 738.713 110.991, 736.673 112.209, 735.028 113.970 M 1290.557 116.462 C 1268.281 122.355, 1245.489 138.963, 1234.740 157.133 C 1230.697 163.967, 1230.130 167.033, 1232.539 169.032 C 1233.800 170.079, 1235.687 169.922, 1242.990 168.164 C 1262.574 163.450, 1273.907 164.262, 1298.500 172.142 C 1309.994 175.824, 1312.659 176.317, 1321.500 176.399 C 1330.530 176.482, 1332.054 176.219, 1337.214 173.689 C 1344.395 170.169, 1350.522 163.350, 1352.505 156.672 C 1354.474 150.042, 1354.394 147.488, 1351.977 139.661 C 1348.427 128.169, 1338.056 119.073, 1324.465 115.533 C 1315.585 113.220, 1301.334 113.610, 1290.557 116.462 M 1299 122.618 C 1294.199 123.513, 1280.460 128.260, 1275.500 130.739 C 1272.750 132.113, 1267.501 135.218, 1263.834 137.639 C 1253.791 144.272, 1238.523 161.163, 1242.750 160.965 C 1243.162 160.946, 1246.425 160.286, 1250 159.500 C 1258.360 157.661, 1275.670 157.636, 1284 159.451 C 1287.575 160.229, 1294.775 162.270, 1300 163.985 C 1314.257 168.664, 1323.094 169.723, 1330.289 167.616 C 1334.257 166.455, 1337.268 164.732, 1339.859 162.141 C 1351.026 150.974, 1345.487 133.802, 1328.092 125.662 C 1322.480 123.036, 1320.399 122.625, 1311.585 122.404 C 1306.038 122.265, 1300.375 122.361, 1299 122.618 M 999.065 152.089 C 980.177 155.794, 959.704 166.995, 942.402 183.091 C 938.950 186.303, 934.860 189.213, 933.313 189.558 C 927.585 190.836, 926.991 191.186, 926.374 193.647 C 925.937 195.388, 926.398 197.046, 927.871 199.040 C 929.042 200.623, 930 203.046, 930 204.424 C 930 207.074, 932.461 209, 935.848 209 C 937.032 209, 939.052 210.708, 940.875 213.250 C 949.010 224.595, 956.343 234, 957.055 234 C 957.489 234, 958.392 232.313, 959.061 230.250 C 963.384 216.920, 974.923 200.255, 985.228 192.457 C 1007.567 175.552, 1033.018 175.075, 1057.004 191.112 C 1065.146 196.557, 1070.286 201, 1068.441 201 C 1067.963 201, 1064.181 199.246, 1060.036 197.103 C 1030.855 182.010, 1004.575 184.384, 985.036 203.879 C 976.935 211.961, 971.034 221.062, 966.555 232.381 C 962.171 243.458, 962.184 244.858, 966.754 254.773 C 973.623 269.674, 981.406 295.386, 983.471 310 C 983.821 312.475, 985.018 318.657, 986.132 323.737 C 987.833 331.492, 988.795 333.738, 992.125 337.737 C 996.339 342.796, 1005 359.053, 1005 361.902 C 1005 365.105, 1006.998 366.028, 1010.639 364.506 C 1017.815 361.508, 1028.894 353.363, 1037.215 344.969 C 1052.894 329.151, 1062.997 311.132, 1077.009 274 C 1087.646 245.810, 1092.295 234.350, 1096.429 226.130 L 1101.141 216.760 1095.727 208.630 C 1083.487 190.248, 1068.732 174.633, 1054.809 165.330 C 1038.029 154.118, 1015.729 148.821, 999.065 152.089 M 1174.299 179.960 C 1165.243 185.481, 1165.809 199.728, 1175.479 209.654 C 1180.401 214.705, 1185.165 216.981, 1190.849 216.994 C 1194.936 217.004, 1200.095 213.868, 1201.770 210.355 C 1203.764 206.175, 1202.684 204.860, 1200.030 208.235 C 1197.570 211.362, 1194.039 212.344, 1190.319 210.935 C 1180.161 207.086, 1174.388 190.424, 1180.457 182.468 C 1181.808 180.696, 1182.633 178.966, 1182.290 178.623 C 1181.088 177.421, 1177.470 178.026, 1174.299 179.960 M 1263.500 207.424 C 1251.770 209.736, 1248.500 211.151, 1248.500 213.914 C 1248.500 215.919, 1249.846 217, 1256.587 220.410 C 1271.474 227.939, 1279.111 235.121, 1290.714 252.500 C 1301.222 268.239, 1309.854 274.289, 1322 274.426 C 1327.402 274.488, 1329.306 274.026, 1333.272 271.695 C 1344.563 265.058, 1347.907 251.214, 1341.566 237.363 C 1336.130 225.489, 1319.592 213.597, 1302 208.912 C 1292.140 206.286, 1273.023 205.547, 1263.500 207.424 M 266 215.994 C 263.525 217.635, 259.336 219.757, 256.691 220.708 C 254.046 221.659, 251.436 222.975, 250.891 223.632 C 249.830 224.910, 252.363 236.684, 254.079 238.451 C 256.324 240.763, 272 220.049, 272 214.771 C 272 212.367, 271.231 212.524, 266 215.994 M 1265.250 213.659 C 1263.463 213.916, 1262.005 214.436, 1262.011 214.813 C 1262.017 215.191, 1264.803 217.075, 1268.203 219 C 1277.274 224.137, 1287.261 234.021, 1294.552 245.079 C 1302.496 257.127, 1309.308 263.452, 1316.631 265.581 C 1323.010 267.436, 1326.866 266.825, 1331.060 263.296 C 1335.216 259.799, 1337 255.929, 1337 250.409 C 1337 236.413, 1320.629 221.771, 1298.442 215.923 C 1290.632 213.865, 1272.443 212.624, 1265.250 213.659 M 155.749 224.622 C 149.028 229.891, 149.120 230.946, 156.734 235.926 C 159.355 237.641, 163.653 240.458, 166.285 242.187 C 172.812 246.476, 173.500 245.574, 173.500 232.736 L 173.500 222.571 169.146 221.820 C 166.751 221.407, 164.051 220.854, 163.146 220.591 C 162.185 220.313, 159.107 221.990, 155.749 224.622 M 906.152 232.695 C 902.339 234.574, 898.965 240.365, 900.683 242.083 C 901.433 242.833, 902.992 242.810, 905.985 242.004 C 911.116 240.622, 916.639 241.432, 923.874 244.627 C 930.336 247.480, 930 247.456, 930 245.059 C 930 243.991, 930.491 242.815, 931.091 242.444 C 932.913 241.318, 925.068 234.211, 920.155 232.537 C 914.399 230.576, 910.361 230.621, 906.152 232.695 M 938.590 253.627 C 937.809 255.662, 939.935 258.465, 941.257 257.143 C 942.305 256.095, 941.335 252, 940.040 252 C 939.586 252, 938.933 252.732, 938.590 253.627 M 719.500 257.907 C 714.221 260.365, 706.770 268.214, 703.513 274.749 C 699.793 282.211, 697.723 292.650, 699.308 295.957 C 699.978 297.356, 700.971 298.487, 701.513 298.471 C 702.056 298.456, 704.433 294.527, 706.796 289.741 C 713.998 275.152, 722.943 267.742, 736 265.547 C 741.387 264.642, 742.500 264.123, 742.500 262.517 C 742.500 261.430, 741.009 259.575, 739.102 258.290 C 734.730 255.343, 725.396 255.161, 719.500 257.907 M 915.476 298.155 C 910.545 302.485, 907.828 308.273, 907.230 315.721 C 906.953 319.174, 907.027 322, 907.394 322 C 907.761 322, 909.443 320.426, 911.131 318.503 C 914.811 314.312, 916.372 314.836, 915.505 319.971 C 914.983 323.058, 915.300 324.237, 917.263 326.519 C 919.178 328.746, 920.186 329.170, 922.300 328.640 C 925.850 327.749, 927.371 324.605, 927.441 318.016 C 927.485 313.890, 927.884 312.457, 929.050 312.231 C 931.803 311.697, 937.215 316.356, 940.398 322 C 943.329 327.197, 943.496 328.064, 943.422 337.750 C 943.378 343.387, 943.520 348, 943.737 348 C 946.323 348, 948.049 345.167, 949.536 338.483 C 951.063 331.620, 951.075 330.371, 949.674 324.168 C 945.443 305.432, 936.287 295, 924.075 295 C 919.885 295, 918.484 295.514, 915.476 298.155 M 738.500 318.425 C 720.995 325.703, 714.430 348.365, 723.107 371.557 C 724.187 374.443, 726.396 378.760, 728.017 381.152 C 729.638 383.543, 730.972 385.994, 730.982 386.598 C 730.992 387.202, 729.197 388.509, 726.994 389.503 C 718.847 393.176, 719.503 395.645, 728.016 393.350 C 736.628 391.029, 753.525 392.001, 762.943 395.359 C 770.593 398.087, 773.581 397.741, 770.042 394.538 C 768.045 392.730, 768.049 392.709, 771.020 389.324 C 775.549 384.166, 778.861 376.849, 780.200 369.041 C 783.453 350.069, 773.665 326.387, 759.759 319.583 C 751.824 315.701, 745.837 315.375, 738.500 318.425 M 1150.613 319.187 C 1131.051 388.170, 1106.809 426.752, 1063 458.623 C 1035.143 478.890, 992.998 495.186, 959.736 498.552 C 956.016 498.928, 952.706 499.666, 952.381 500.192 C 951.076 502.304, 961.687 510.962, 971.619 515.890 C 988.805 524.416, 1004.071 525.726, 1019.274 519.978 C 1029.854 515.978, 1040.404 505.822, 1048.181 492.152 C 1052.388 484.755, 1061.348 475.846, 1067 473.440 C 1092.455 462.602, 1106.682 451.708, 1121.122 432 C 1135.545 412.316, 1147.415 384.408, 1151.482 360.619 C 1153.231 350.390, 1153.606 319.492, 1151.993 318.496 C 1151.439 318.153, 1150.818 318.464, 1150.613 319.187 M 741.625 325.469 C 727.096 330.648, 721.630 353.407, 730.344 372.440 C 733.254 378.796, 738.568 385, 741.104 385 C 742.147 385, 743 384.853, 743 384.672 C 743 384.492, 741.811 381.455, 740.357 377.922 C 737.239 370.346, 736.784 358.845, 739.359 352.683 C 741.042 348.655, 743 347.791, 743 351.077 C 743 353.201, 748.026 359, 749.867 359 C 752.197 359, 756.096 354.319, 756.646 350.862 C 757.093 348.054, 756.716 346.535, 754.995 344.207 C 753.768 342.548, 753.033 340.755, 753.361 340.224 C 754.519 338.351, 760.049 338.040, 764.619 339.592 C 767.133 340.445, 769.439 340.895, 769.743 340.590 C 770.628 339.705, 764.881 332.011, 761.288 329.271 C 754.779 324.305, 748.367 323.066, 741.625 325.469 M 1268.804 418.041 C 1262.810 421.206, 1257.124 430.252, 1255.466 439.261 C 1255.085 441.330, 1254.372 443.270, 1253.881 443.573 C 1253.390 443.877, 1251.079 442.581, 1248.744 440.695 C 1243.195 436.210, 1241.004 435.129, 1235.264 434.046 C 1217.931 430.775, 1202.716 446.089, 1200.058 469.480 C 1199.052 478.332, 1200.058 489.979, 1202.598 498.883 C 1204.797 506.595, 1203.403 507.165, 1196.365 501.434 C 1193.152 498.816, 1187.192 495.093, 1183.120 493.159 C 1176.611 490.068, 1174.738 489.636, 1167.608 489.579 C 1160.951 489.526, 1158.695 489.936, 1155 491.870 C 1146.684 496.224, 1143.413 500.651, 1141.028 510.785 C 1139.528 517.155, 1140.279 523.294, 1143.556 531.475 C 1146.986 540.038, 1145.278 540.874, 1138.725 533.839 C 1126.004 520.181, 1110.289 519.157, 1103.282 531.530 C 1100.572 536.314, 1100.191 546.127, 1102.500 551.654 C 1104.219 555.769, 1104.448 559, 1103.021 559 C 1102.483 559, 1098.545 557.826, 1094.271 556.391 C 1085.378 553.405, 1079.749 553.557, 1073.070 556.965 C 1064.868 561.149, 1060.877 572.578, 1065.273 579.292 C 1066.864 581.723, 1067.642 582, 1072.864 582 C 1076.064 582, 1082.241 582.429, 1086.591 582.952 C 1090.941 583.476, 1100.350 584.408, 1107.500 585.022 C 1134.851 587.374, 1167.280 591.595, 1207.201 598 C 1231.189 601.848, 1235.606 602.820, 1237.057 604.569 C 1238.224 605.974, 1243.111 606.556, 1244.243 605.424 C 1244.560 605.107, 1244.072 603.540, 1243.160 601.943 C 1241.062 598.272, 1242.434 595.628, 1246.656 595.201 C 1249.851 594.878, 1258.403 598.913, 1264.653 603.691 C 1267.945 606.208, 1269.982 606.712, 1284.276 608.538 C 1296.227 610.065, 1300.339 610.280, 1300.678 609.398 C 1301.325 607.711, 1294.439 581.532, 1289.818 568.110 C 1284.006 551.229, 1285.303 546.003, 1294.168 550.587 C 1304.533 555.947, 1321.987 577.273, 1326.548 590.151 C 1327.260 592.159, 1328.975 596.209, 1330.360 599.151 C 1331.745 602.093, 1333.751 606.570, 1334.817 609.099 C 1336.539 613.187, 1337.185 613.770, 1340.627 614.338 C 1346.697 615.341, 1350.660 615.114, 1351.836 613.698 C 1352.430 612.982, 1354.334 608.369, 1356.066 603.448 C 1365.085 577.827, 1384.048 550.027, 1397.300 542.997 C 1406.875 537.917, 1407.172 542.090, 1398.971 566.531 C 1390.684 591.234, 1384.453 615.544, 1386.142 616.588 C 1386.593 616.867, 1390.690 617.358, 1395.246 617.679 L 1403.529 618.264 1410.515 611.322 C 1422.623 599.290, 1439.430 589.901, 1443.876 592.687 C 1446.641 594.419, 1446.280 597.775, 1442.685 603.754 C 1438.933 609.995, 1434.796 617.947, 1435.230 618.088 C 1435.378 618.136, 1452.375 618.318, 1473 618.493 C 1506.761 618.778, 1510.685 618.645, 1512.358 617.155 C 1516.067 613.851, 1521.964 599.728, 1521.989 594.088 C 1522.031 584.807, 1513.784 572.626, 1505.222 569.322 C 1498.564 566.753, 1487.963 566.970, 1481.641 569.805 C 1478.969 571.003, 1476.387 571.739, 1475.903 571.440 C 1475.419 571.141, 1476.306 568.332, 1477.873 565.198 C 1482.831 555.282, 1484.429 549.158, 1484.450 540 C 1484.466 532.468, 1484.137 530.898, 1481.554 526.212 C 1473.109 510.884, 1457.916 506.171, 1441.588 513.812 C 1434.700 517.036, 1432.315 517.135, 1433.540 514.149 C 1434.882 510.879, 1436.930 501.433, 1436.964 498.355 C 1436.984 496.626, 1436.058 492.160, 1434.906 488.431 C 1433.171 482.815, 1431.829 480.669, 1427.080 475.920 C 1422.331 471.171, 1420.185 469.829, 1414.569 468.094 C 1402.752 464.444, 1387.954 465.821, 1376.338 471.650 C 1373.499 473.075, 1367.283 477.849, 1362.526 482.259 C 1357.682 486.749, 1353.513 489.886, 1353.050 489.389 C 1352.595 488.900, 1353.092 484.450, 1354.154 479.500 C 1358.040 461.385, 1353.424 445.942, 1341.831 438.269 C 1338.356 435.970, 1336.336 435.440, 1329.920 435.149 C 1323.145 434.840, 1321.537 435.125, 1316.847 437.463 C 1313.906 438.930, 1309.381 442.203, 1306.791 444.737 C 1302.084 449.342, 1302.081 449.343, 1301.177 446.922 C 1300.680 445.590, 1299.947 442.288, 1299.550 439.584 C 1298.045 429.344, 1291.549 419.680, 1284.324 416.933 C 1280.302 415.404, 1272.780 415.941, 1268.804 418.041 M 341 440.577 C 335.655 443.610, 328.725 450.139, 325.721 454.972 C 324.534 456.881, 322.641 461.121, 321.514 464.394 C 320.387 467.667, 318.953 470.516, 318.327 470.724 C 317.701 470.933, 316.642 469.393, 315.974 467.302 C 315.305 465.211, 314.401 463.111, 313.964 462.635 C 311.864 460.348, 307.995 474.503, 308.006 484.434 C 308.018 495.621, 313.419 505.592, 322.412 511.029 C 328.035 514.429, 328.405 514.901, 329.995 520.706 C 335.482 540.752, 351.203 555.775, 371.766 560.624 C 380.682 562.726, 395.888 561.985, 405.500 558.980 C 413.992 556.324, 414.488 555.942, 417.724 549.563 C 420.253 544.578, 420.309 544.538, 421.369 547 C 421.960 548.375, 422.856 549.790, 423.359 550.144 C 424.559 550.988, 423.933 553.489, 419.516 565.500 C 415.597 576.157, 410.491 598.321, 408.919 611.500 C 408.394 615.900, 407.539 631.371, 407.019 645.880 C 406.499 660.389, 405.807 672.526, 405.482 672.851 C 405.157 673.176, 404.490 672.793, 404 672 C 402.890 670.205, 402.882 670.214, 399.226 677.500 C 394.583 686.754, 387.921 695.153, 373.086 710.455 C 357.607 726.422, 353.197 732.083, 348.960 741.428 C 344.500 751.263, 344.074 759.930, 347.482 771.500 C 350.674 782.337, 355.947 792.417, 361.758 798.793 C 365.776 803.201, 366.126 803.379, 367.274 801.589 C 371.161 795.532, 377.061 789.360, 380.907 787.328 C 386.719 784.258, 394.889 784.150, 399.632 787.082 C 405.997 791.015, 402.119 793.680, 394.098 790.884 C 387.282 788.508, 377.542 793.807, 372.307 802.738 L 369.617 807.330 374.161 811.415 C 379.732 816.424, 393.016 824.051, 396.620 824.310 C 399.047 824.484, 399.542 823.825, 402.481 816.500 C 404.781 810.769, 406.940 807.286, 410.096 804.220 C 415.403 799.063, 423.173 795, 427.728 795 C 431.550 795, 437.547 797.280, 440.320 799.788 C 445.536 804.505, 447.921 815.844, 445.569 824.747 C 444.739 827.889, 444.557 830.226, 445.116 830.571 C 447.498 832.044, 457.973 827.901, 461.372 824.142 C 462.402 823.004, 464.097 819.490, 465.138 816.333 L 467.031 810.595 464.563 807.126 C 461.659 803.044, 462.106 801.645, 466.037 802.508 C 468.714 803.096, 468.920 802.905, 469.474 799.317 C 471.056 789.072, 474.511 777.643, 478.486 769.500 C 482.265 761.759, 484.274 759.132, 492.845 750.716 C 498.325 745.334, 504.655 738.540, 506.910 735.616 C 513.392 727.215, 520.540 714.704, 523.508 706.568 L 526.235 699.089 522.262 692.794 C 514.664 680.758, 508.478 663.684, 505.533 646.619 C 503.745 636.262, 503.618 633, 505 633 C 505.550 633, 506 633.728, 506 634.618 C 506 635.508, 507.885 641.920, 510.189 648.868 C 517.396 670.597, 530.820 694.696, 543.027 707.817 C 552.473 717.970, 582.625 727.146, 611.500 728.654 C 623.584 729.286, 646.679 727.628, 648.360 726.008 C 648.835 725.551, 644.475 711.130, 638.634 693.840 C 632.812 676.603, 626.693 657.325, 625.036 651 C 620.252 632.734, 617.495 611, 619.961 611 C 620.490 611, 621.407 612.913, 621.999 615.250 C 626.158 631.679, 635.803 661.641, 649.923 702 C 660.030 730.887, 666.421 760.604, 667.666 784.500 C 668.270 796.087, 667.439 806.799, 663.810 834.194 C 661.691 850.196, 661.669 851.110, 663.294 856.264 C 665.413 862.985, 667.551 864.999, 677.404 869.551 C 685.207 873.156, 707.044 878.581, 709.681 877.569 C 710.493 877.257, 711 875.392, 711 872.713 C 711 862.166, 717.117 850.575, 724.520 847.096 C 729.497 844.756, 732.711 844.514, 738.277 846.060 C 742.875 847.337, 748.797 852.343, 749.628 855.655 C 750.445 858.908, 752.293 858.110, 753.102 854.155 C 754.544 847.106, 761.874 839.775, 768.883 838.373 C 773.022 837.546, 779.833 840.173, 783.517 844.018 C 787.215 847.878, 788.588 847.779, 789.984 843.550 C 791.365 839.363, 796.738 834.436, 800.926 833.516 C 802.617 833.145, 804 832.630, 804 832.371 C 804 832.113, 802.027 824.386, 799.617 815.201 C 794.015 793.857, 792.696 785.922, 787.034 739.500 C 778.845 672.348, 772.323 638.987, 762.986 616.500 C 754.414 595.854, 746.110 583.132, 731.817 568.750 C 725.941 562.837, 721.605 558, 722.182 558 C 724.612 558, 738.053 567.996, 745 574.971 C 765.157 595.207, 777.143 622.579, 784.422 665 C 786.676 678.136, 786.901 679, 788.059 679 C 789.948 679, 799.211 672.190, 807.275 664.874 C 829.333 644.859, 847.609 616.180, 858.048 585.197 C 860.494 577.938, 862.834 572, 863.247 572 C 864.565 572, 864.034 580.206, 862.115 589.500 C 859.632 601.524, 853.377 617.183, 845.937 630 L 839.842 640.500 845.671 645.831 C 851.263 650.945, 864.829 658.392, 880.508 664.957 C 894.994 671.021, 909.171 683.585, 918.699 698.801 C 921.214 702.817, 925.893 712.464, 929.098 720.239 C 933.974 732.065, 941.057 745, 942.657 745 C 942.885 745, 943.897 743.087, 944.905 740.750 C 949.002 731.259, 958.498 721.156, 973.644 710.174 L 980.788 704.994 978.894 698.908 C 974.624 685.186, 978.519 673.312, 988.781 668.773 C 993.978 666.474, 997.877 666.794, 1004.656 670.076 C 1009.612 672.475, 1010.213 672.208, 1011.925 666.847 C 1014.630 658.375, 1022.419 654.599, 1031.239 657.483 C 1033.979 658.379, 1036.472 658.861, 1036.780 658.553 C 1037.088 658.245, 1033.235 653.946, 1028.217 649 C 1023.200 644.053, 1015.898 635.498, 1011.991 629.988 C 1008.085 624.478, 1002.740 617.388, 1000.115 614.233 L 995.341 608.497 988.421 608.258 C 979.866 607.963, 973.252 609.399, 965.649 613.203 C 959.058 616.501, 957.504 616.228, 961.079 612.401 C 966.136 606.988, 971.696 604.657, 980.677 604.186 C 985.276 603.945, 989.258 603.391, 989.528 602.955 C 990.229 601.821, 975.926 589.773, 966.435 583.502 C 961.999 580.572, 952.549 575.138, 945.435 571.427 C 930.705 563.743, 922.328 558.100, 916.360 551.842 C 911.290 546.525, 903.893 535.712, 899.860 527.723 C 896.868 521.796, 896.836 521.771, 893.177 522.375 C 884.232 523.853, 882.634 524.816, 875.910 532.785 C 869.339 540.573, 869.318 540.617, 868.728 548.048 C 868.042 556.708, 866.023 566, 864.828 566 C 864.373 566, 864 561.350, 864 555.667 C 864 549.983, 863.741 545.074, 863.424 544.757 C 863.107 544.440, 860.392 545.305, 857.392 546.678 C 837.234 555.906, 814.573 552.460, 794.324 537.086 L 785.419 530.325 768.459 528.686 C 717.779 523.790, 680.267 506.257, 654.665 475.500 C 651.918 472.200, 649.290 469.500, 648.824 469.500 C 648.359 469.500, 645.953 474, 643.477 479.500 C 637.301 493.222, 631.300 501.749, 619.525 513.536 C 611.651 521.419, 607.759 524.472, 601.386 527.766 C 587.820 534.778, 575.110 536.638, 562.716 533.426 C 548.506 529.744, 538.806 521.728, 526.639 503.611 C 517.711 490.318, 511.564 484.246, 502.521 479.786 L 495.902 476.523 485.701 481.719 C 468.416 490.523, 452.260 505.313, 440.334 523.250 C 437.866 526.962, 435.560 530, 435.211 530 C 434.861 530, 433.652 528.842, 432.524 527.427 L 430.472 524.854 424.486 528.384 C 406.195 539.170, 396.337 542.807, 383 543.691 C 374.193 544.274, 365.520 542.764, 358.473 539.420 C 352.412 536.544, 341.171 525.829, 338.251 520.145 C 335.617 515.017, 335.579 514.741, 337.360 513.645 C 347.055 507.680, 351.860 501.685, 354.669 492.052 C 356.409 486.084, 356.085 476.487, 353.885 468.834 C 352.329 463.421, 352.360 463.456, 350.541 464.966 C 349.276 466.016, 348.857 465.758, 347.936 463.359 C 346.813 460.435, 347.190 445.905, 348.522 440.750 C 349.456 437.137, 347.156 437.084, 341 440.577 M 798.746 477.624 C 798.456 478.106, 798.956 480.300, 799.859 482.500 C 806.204 497.967, 818.172 512.046, 827.831 515.405 C 836.436 518.398, 848.862 515.672, 849.843 510.576 C 851.296 503.031, 839.752 488, 832.504 488 C 831.223 488, 831.039 488.688, 831.566 491.500 C 831.927 493.425, 831.835 494.969, 831.361 494.930 C 830.888 494.892, 828.475 492.099, 826 488.725 C 820.469 481.184, 814.818 477.996, 805.683 477.263 C 802.158 476.980, 799.036 477.142, 798.746 477.624 M 271.713 608.315 C 266.216 616.705, 268.769 629.200, 277.558 636.916 C 283.388 642.035, 287.382 643.603, 290.719 642.082 L 293.491 640.819 290.824 638.660 C 289.358 637.472, 286.552 635.375, 284.591 634 C 276.916 628.621, 273.905 620.931, 276.342 612.937 C 276.913 611.064, 276.620 609.753, 275.255 608.067 L 273.387 605.760 271.713 608.315 M 298.542 608.576 C 296.895 611.090, 296.937 611.207, 301.043 615.663 C 307.606 622.783, 316 643.590, 316 652.738 C 316 655.110, 315.921 655.088, 311.820 651.578 C 306.760 647.246, 305 647.043, 305 650.789 C 305 654.645, 317.292 668.243, 320.379 667.803 C 322.378 667.517, 322.495 666.954, 322.406 658 C 322.221 639.331, 312.810 614.985, 303.107 608.076 L 300.218 606.019 298.542 608.576 M 983.500 620.856 C 976.139 623.554, 970.761 626.492, 968.500 629.051 L 966.500 631.314 968.500 630.727 C 977.148 628.190, 995.217 621.306, 995.343 620.500 C 995.618 618.750, 988.679 618.959, 983.500 620.856 M 1339 621.426 C 1339 623.588, 1342.977 643.310, 1343.523 643.856 C 1344.359 644.693, 1344.683 643.718, 1347.226 632.710 C 1349.598 622.441, 1349.632 621.873, 1347.925 620.960 C 1345.083 619.439, 1339 619.757, 1339 621.426 M 1120.891 631.379 C 1112.384 633.668, 1104.533 641.072, 1099.023 652 C 1092.685 664.571, 1088.011 682.619, 1088.003 694.550 C 1088 699.112, 1089.203 702, 1091.104 702 C 1091.491 702, 1096.464 697.359, 1102.154 691.686 C 1109.609 684.254, 1115.295 679.666, 1122.500 675.268 C 1138.056 665.774, 1144 658.290, 1144 648.199 C 1144 642.541, 1143.055 639.940, 1139.625 636.155 C 1135.145 631.211, 1128.146 629.427, 1120.891 631.379 M 1117.946 639.847 C 1112.625 643.254, 1108.137 648.700, 1104.105 656.642 C 1099.716 665.288, 1093.513 688, 1095.541 688 C 1095.934 688, 1099.249 685.178, 1102.906 681.728 C 1106.562 678.278, 1114.203 672.583, 1119.884 669.072 C 1130.819 662.314, 1135.202 657.677, 1137.013 650.953 C 1138.235 646.414, 1137.628 644.477, 1133.659 640.250 C 1129.591 635.917, 1124.295 635.781, 1117.946 639.847 M 130.535 659.374 C 127.470 662.439, 123.358 670.577, 122.462 675.349 C 122.077 677.405, 121.477 678.941, 121.131 678.761 C 115.507 675.858, 114.901 675.699, 113.765 676.835 C 112.857 677.743, 113.840 679.288, 118.016 683.517 C 121.004 686.542, 123.897 688.868, 124.444 688.685 C 124.992 688.503, 126.018 685.498, 126.724 682.008 C 128.331 674.067, 132.531 664.677, 134.224 665.241 C 135.828 665.776, 138.859 675.381, 138.939 680.185 C 138.973 682.212, 139.468 685.102, 140.041 686.608 C 141.017 689.174, 141.188 689.240, 142.764 687.665 C 144.962 685.467, 144.831 673.359, 142.541 667.014 C 140.810 662.218, 136.499 657, 134.267 657 C 133.520 657, 131.841 658.068, 130.535 659.374 M 1020.828 662.531 C 1015.226 665.573, 1013.608 673.461, 1016.652 682.885 C 1018.531 688.704, 1018.867 688.806, 1028.500 686.480 C 1031.800 685.683, 1037.313 685.024, 1040.750 685.016 C 1046.369 685.002, 1047 684.794, 1047 682.960 C 1047 677.338, 1037.263 665.346, 1030.282 662.371 C 1026.258 660.657, 1024.216 660.691, 1020.828 662.531 M 1043 668.483 C 1043 668.841, 1044.081 670.566, 1045.403 672.317 C 1046.724 674.068, 1048.370 677.413, 1049.061 679.750 C 1050.244 683.755, 1052 685.530, 1052 682.721 C 1052 680.616, 1045.600 668.642, 1044.250 668.222 C 1043.563 668.008, 1043 668.126, 1043 668.483 M 988.509 675.171 C 985.077 677.871, 982.051 684.353, 982.022 689.068 C 981.992 693.946, 984.549 702.156, 987.112 705.415 C 988.276 706.895, 989.064 708.220, 988.864 708.361 C 988.664 708.502, 983.980 711.591, 978.456 715.226 C 963.360 725.158, 950.113 740.067, 950.022 747.227 C 950.010 748.177, 951.143 749.703, 952.540 750.618 C 954.658 752.006, 956.783 752.187, 965.290 751.709 C 978.908 750.943, 985.225 749.157, 999.520 742.034 C 1022.006 730.828, 1041.269 714.142, 1049.068 699.113 C 1051.275 694.861, 1051.287 694.683, 1049.481 693.363 C 1044.387 689.638, 1021.869 693.433, 1004.608 700.927 C 1001.918 702.095, 999.505 702.839, 999.247 702.580 C 998.182 701.515, 1006.446 692.968, 1009.665 691.804 C 1012.948 690.617, 1013.102 690.356, 1012.485 687.024 C 1012.126 685.086, 1010.900 681.984, 1009.761 680.132 C 1005.728 673.571, 994.018 670.838, 988.509 675.171 M 239.703 677.376 C 232.540 680.056, 228.327 683.632, 225.482 689.447 C 223.183 694.147, 222.831 695.954, 223.189 701.248 C 223.722 709.150, 226.157 714.250, 232.245 720.212 C 237.882 725.733, 245.411 729.534, 260.504 734.479 C 276.122 739.594, 282.955 743.545, 306.860 761.281 C 313.882 766.491, 316.028 766.972, 319 764 C 322.909 760.091, 320.651 747.940, 312.897 731.154 C 301.886 707.321, 283.524 687.648, 265.044 679.883 C 256.589 676.331, 245.445 675.229, 239.703 677.376 M 162.881 683.007 C 160.977 684.119, 158.432 689.765, 159.399 690.732 C 160.416 691.750, 167.350 684.375, 166.567 683.108 C 165.744 681.777, 165.019 681.757, 162.881 683.007 M 242.759 684.370 C 236.702 686.617, 233.951 688.895, 231.938 693.328 C 228.353 701.224, 230.394 708.467, 238.235 715.665 C 243.934 720.898, 246.043 721.976, 259.550 726.563 C 278.524 733.007, 291.011 740.007, 304.779 751.920 C 309.332 755.859, 313.521 758.796, 314.087 758.446 C 315.508 757.568, 314.456 753.333, 309.840 741.351 C 305.349 729.694, 295.376 713.924, 286.138 703.873 C 272.513 689.047, 253.361 680.437, 242.759 684.370 M 65.200 708.200 C 63.414 709.986, 63.547 710.648, 69.418 729.293 C 78.109 756.897, 81.659 770.654, 87.406 799 C 91.933 821.328, 96.885 857.448, 95.596 858.737 C 94.862 859.472, 95.097 859.775, 90.666 852.368 C 80.781 835.842, 65.297 818.970, 53.358 811.717 C 44.725 806.473, 34.575 802.835, 29.595 803.200 C 26.023 803.462, 25.461 803.832, 25.198 806.097 C 24.971 808.058, 26.414 810.511, 31.081 816.097 C 34.483 820.169, 37.720 823.500, 38.274 823.500 C 38.828 823.500, 39.763 822.737, 40.352 821.804 C 41.203 820.454, 40.767 819.293, 38.211 816.113 C 36.445 813.915, 35 811.866, 35 811.559 C 35 809.225, 45.210 813.905, 54.500 820.496 C 78.143 837.272, 99.980 875.935, 103.498 907.250 C 103.853 910.413, 104.562 913, 105.072 913 C 106.383 913, 106.227 904.546, 104.491 881.500 C 100.061 822.678, 91.514 776.888, 76.415 731.087 C 73.983 723.709, 72.267 717.409, 72.602 717.087 C 73.558 716.165, 81.472 725.589, 88.483 736 C 107.640 764.443, 120.750 804.997, 125.499 850.500 C 127.030 865.172, 128.946 898.320, 128.982 910.750 C 128.992 914.238, 129.442 917, 130 917 C 130.573 917, 131 913.959, 131 909.878 C 131 894.984, 136.564 867.140, 143.622 846.713 C 147.236 836.254, 155.290 819.991, 161.770 810.070 C 166.696 802.527, 182.276 786.956, 182.743 789.108 C 182.935 789.993, 181.677 794.268, 179.947 798.608 C 167.863 828.933, 161.641 850.892, 154.901 887 C 151.568 904.855, 148.899 928, 150.173 928 C 150.607 928, 151.234 926.763, 151.566 925.250 C 154.221 913.155, 156.635 905.692, 160.160 898.676 C 170.045 879.001, 182.268 864.307, 196.172 855.384 C 203.185 850.884, 213.691 846.357, 214.724 847.391 C 214.994 847.661, 211.838 852.521, 207.711 858.191 C 193.964 877.076, 180.032 902.560, 174.507 918.925 C 170.519 930.738, 171.048 931.430, 178.250 923.827 C 185.937 915.712, 190.411 912.761, 199.947 909.518 C 207.306 907.015, 216.471 906.120, 215.833 907.966 C 215.650 908.497, 212.800 911.100, 209.500 913.750 C 202.315 919.520, 194 930.146, 194 933.558 C 194 937.949, 197.504 936.492, 202.471 930.038 C 206.618 924.648, 213.272 918.496, 223.377 910.707 C 229.515 905.976, 227.997 902.733, 218.734 900.790 C 211.920 899.361, 200.966 901.473, 191.922 905.960 C 188.665 907.576, 186 908.461, 186 907.927 C 186 903.827, 203.876 873.905, 216.426 857 C 221.121 850.675, 224.971 844.503, 224.981 843.285 C 225.043 835.962, 208.988 839.396, 192.282 850.280 C 184.509 855.344, 172.616 867.007, 167.200 874.877 C 164.606 878.648, 163.399 879.745, 163.162 878.549 C 162.270 874.054, 174.343 831.301, 183.085 808 C 191.711 785.007, 192.568 782.117, 191.327 780.207 C 189.630 777.593, 185.712 778.442, 179.264 782.821 C 168.353 790.230, 157.867 802.982, 148.690 820 C 143.525 829.578, 135.441 849.134, 134.439 854.473 C 133.560 859.161, 132 858.978, 132 854.186 C 132 845.566, 126.885 812.275, 123.829 801 C 112.508 759.242, 94.175 725.012, 75.634 711.013 C 70.163 706.883, 67.291 706.109, 65.200 708.200 M 527.469 718.200 C 520.281 732.744, 511.795 744.035, 498.160 757.195 C 490.763 764.335, 488.409 767.388, 485.006 774.256 C 482.726 778.857, 480.603 784.539, 480.289 786.883 L 479.717 791.144 483.109 790.599 C 489.429 789.583, 511.404 788.024, 534.500 786.954 C 549.789 786.246, 557.871 785.488, 558.606 784.694 C 560.188 782.987, 565.756 762.863, 567.099 754 C 568.838 742.530, 566.981 728.007, 563.775 727.995 C 561.273 727.986, 543.390 719.344, 537.274 715.188 L 531.048 710.958 527.469 718.200 M 750.344 728.041 C 746.075 728.886, 740.037 731.655, 736.500 734.390 C 733.602 736.631, 735.916 736.350, 744.729 733.390 C 751.399 731.151, 753.704 730.848, 761 731.251 C 765.675 731.510, 770.349 732.081, 771.386 732.520 C 772.782 733.111, 773.155 732.952, 772.820 731.909 C 772.205 729.993, 763.413 727.073, 758.500 727.153 C 756.300 727.190, 752.630 727.589, 750.344 728.041 M 440.405 732.168 C 444.761 738.386, 459.096 747, 465.089 747 C 468.324 747, 467.213 745.148, 462.750 743.101 C 460.413 742.029, 454.514 738.643, 449.642 735.576 C 440.057 729.543, 438.046 728.801, 440.405 732.168 M 574.750 746.250 C 574.229 761.021, 573.648 763.877, 565.434 792 C 563.224 799.567, 562.643 803.637, 562.579 812 C 562.504 821.927, 562.654 822.726, 565.313 826.644 C 569.227 832.411, 577.420 836.528, 591.124 839.615 C 597.256 840.997, 602.579 841.761, 602.954 841.313 C 603.328 840.866, 604.202 837.603, 604.895 834.063 C 607.372 821.413, 613.502 813.766, 622.312 812.337 C 626.499 811.657, 633.525 815.204, 636.744 819.622 L 638.671 822.268 640.765 818.884 C 644.206 813.326, 648.610 809.790, 653.704 808.498 C 659.245 807.093, 659.699 806.060, 659.862 794.500 C 660.041 781.730, 655.722 748.379, 652.702 739.218 C 651.486 735.530, 651.436 735.502, 646.488 735.768 C 643.745 735.916, 631.375 736.128, 619 736.240 C 598.933 736.421, 595.428 736.202, 586.591 734.221 C 581.141 733, 576.360 732, 575.967 732 C 575.574 732, 575.026 738.413, 574.750 746.250 M 430 744.965 C 430 745.496, 431.388 747.512, 433.086 749.445 C 437.333 754.282, 447.039 758.851, 454.750 759.643 C 462.805 760.470, 463.086 758.724, 455.250 756.537 C 446.794 754.176, 442.123 751.950, 436.806 747.750 C 432.054 743.996, 430 743.156, 430 744.965 M 767.817 750.716 C 762.124 753.672, 751.522 756, 743.750 756 C 737.240 756, 736.114 757.515, 741.750 758.693 C 747.623 759.920, 756.130 759.450, 761.732 757.589 C 767.616 755.635, 775.362 750.395, 774.479 748.966 C 773.714 747.729, 773.421 747.806, 767.817 750.716 M 261.558 768.427 C 253.735 771.343, 249.175 776.279, 248.304 782.773 C 247.447 789.157, 248.766 793.736, 252.723 798.115 C 258.545 804.559, 263.488 806.851, 276.170 808.986 C 285.439 810.546, 288.926 811.653, 295.021 814.968 C 302.640 819.113, 312.749 828.670, 319.116 837.750 C 324.195 844.994, 326.669 842.281, 322.727 833.790 C 319.622 827.103, 315.349 821.795, 308.161 815.700 C 300.287 809.023, 292.231 805.364, 280.434 803.106 C 265.381 800.226, 259.831 797.384, 256.405 790.800 C 253.320 784.870, 255.860 778.834, 262.719 775.800 C 271.403 771.959, 282.538 774.904, 297.496 784.997 C 306.700 791.208, 308.950 790.695, 304.009 783.513 C 296.117 772.042, 273.460 763.990, 261.558 768.427 M 1384.116 783.521 C 1377.281 791.305, 1366.551 818.395, 1362.141 839 C 1361.023 844.225, 1359.563 853.538, 1358.897 859.695 C 1357.688 870.867, 1356.449 875.076, 1355.275 872 C 1353.776 868.073, 1343.904 849.721, 1341.095 845.637 C 1332.586 833.271, 1317.474 820.569, 1312.026 821.205 C 1307.548 821.728, 1308.217 826.058, 1316.828 852.273 C 1321.205 865.598, 1325.997 881, 1327.478 886.500 C 1328.958 892, 1330.386 897.288, 1330.652 898.250 C 1331.387 900.913, 1330.288 900.407, 1324.674 895.496 C 1321.843 893.019, 1315.460 888.934, 1310.491 886.417 C 1302.596 882.420, 1300.419 881.771, 1293.250 881.280 C 1284.506 880.680, 1282 881.535, 1282 885.117 C 1282 886.146, 1285.841 891.139, 1290.536 896.212 C 1299.864 906.292, 1310.385 921.226, 1314.515 930.250 C 1316.413 934.396, 1317.693 936, 1319.105 936 C 1322.265 936, 1322.411 933.346, 1319.606 926.878 C 1315.912 918.360, 1309.579 908.889, 1300.016 897.579 C 1295.498 892.237, 1291.992 887.675, 1292.225 887.442 C 1293.130 886.536, 1304.639 890.221, 1310.419 893.267 C 1319.850 898.237, 1331.690 910.615, 1336.816 920.866 C 1339.117 925.467, 1341 929.854, 1341 930.616 C 1341 931.377, 1341.506 932, 1342.125 932 C 1342.861 932, 1343.025 930.878, 1342.597 928.750 C 1342.238 926.962, 1341.039 920.325, 1339.932 914 C 1337.784 901.721, 1334.806 889.509, 1329.448 871 C 1326.037 859.219, 1317.620 833.813, 1316.559 832.096 C 1316.234 831.569, 1316.404 830.868, 1316.937 830.539 C 1318.456 829.600, 1332.681 844.445, 1337.706 852.213 C 1348.660 869.145, 1356.815 892.413, 1359.101 913.255 C 1359.810 919.715, 1360.752 925, 1361.195 925 C 1361.638 925, 1362 918.286, 1362 910.080 C 1362 862.009, 1368.770 825.490, 1382.731 798.250 C 1384.211 795.362, 1385.777 793, 1386.211 793 C 1387.462 793, 1387.127 824.044, 1385.558 853.500 C 1383.143 898.869, 1382.628 919, 1383.884 919 C 1384.498 919, 1385 917.448, 1385 915.551 C 1385 909.576, 1388.872 891.732, 1392.072 882.967 C 1401.530 857.051, 1417.327 831.479, 1430.707 820.427 C 1440.056 812.703, 1451 805.776, 1451 807.582 C 1451 807.924, 1448.269 812.699, 1444.932 818.193 C 1428.781 844.777, 1414.514 878.112, 1405.640 910 C 1401.340 925.453, 1400.462 930, 1401.778 930 C 1402.764 930, 1405.359 921.077, 1406.508 913.729 C 1406.833 911.654, 1408.338 908.504, 1409.852 906.729 C 1411.367 904.953, 1414.682 900.547, 1417.219 896.938 C 1419.757 893.329, 1425.735 886.682, 1430.505 882.167 C 1437.285 875.749, 1441.175 872.994, 1448.338 869.534 C 1458.424 864.662, 1463 863.195, 1463 864.833 C 1463 865.410, 1462.543 866.164, 1461.985 866.509 C 1460.745 867.276, 1448.450 883.568, 1440.841 894.527 C 1430.868 908.891, 1418.902 931.235, 1420.387 932.720 C 1420.676 933.010, 1423.039 931.375, 1425.637 929.088 C 1431.724 923.730, 1441.219 919.223, 1448.084 918.434 C 1452.329 917.945, 1454.766 918.287, 1459.354 920.016 C 1464.613 921.997, 1465.363 922.066, 1466.740 920.688 C 1470.039 917.390, 1465.467 913.523, 1456.241 911.808 C 1451.264 910.882, 1449.110 910.980, 1443.501 912.389 C 1439.789 913.322, 1436.589 913.922, 1436.390 913.723 C 1435.524 912.857, 1453.235 887.523, 1463.462 875 C 1471.751 864.850, 1473 862.927, 1473 860.313 C 1473 850.659, 1445.724 859.658, 1428.866 874.873 C 1425.592 877.828, 1422.699 880.032, 1422.437 879.770 C 1420.888 878.222, 1440.802 837.319, 1452.949 817.098 C 1457.377 809.727, 1461 803.180, 1461 802.548 C 1461 798.834, 1455.584 798.004, 1448.770 800.673 C 1429.834 808.090, 1408.047 831.869, 1395.997 858.269 C 1394.074 862.483, 1392.138 865.947, 1391.694 865.966 C 1391.251 865.985, 1391.251 858.688, 1391.694 849.750 C 1392.138 840.813, 1392.500 822.101, 1392.500 808.168 C 1392.500 784.247, 1392.392 782.758, 1390.559 781.418 C 1387.873 779.456, 1387.609 779.542, 1384.116 783.521 M 420.219 803.065 C 417.864 804.261, 414.429 807.099, 412.585 809.370 C 408.315 814.631, 402.590 825.994, 403.673 827.059 C 405.779 829.129, 420.990 832.264, 429.482 832.379 L 438.465 832.500 439.894 828.500 C 441.810 823.137, 441.742 813.270, 439.764 809.500 C 435.598 801.560, 428.063 799.079, 420.219 803.065 M 1039.109 803.250 C 1037.238 808.250, 1036.906 810, 1037.829 810 C 1039.341 810, 1045.111 802.989, 1044.463 801.940 C 1043.358 800.152, 1039.956 800.984, 1039.109 803.250 M 649.457 815.839 C 644.065 819.170, 641.861 824.266, 640.577 836.368 L 639.955 842.236 646.598 841.813 C 651.320 841.512, 653.599 840.901, 654.477 839.701 C 655.733 837.982, 657.273 827.152, 657.419 819 C 657.493 814.914, 657.270 814.475, 655 814.229 C 653.625 814.081, 651.131 814.805, 649.457 815.839 M 619.500 818.959 C 614.541 821.024, 608 832.140, 608 838.502 C 608 842.343, 610.830 843.088, 624.242 842.781 L 636.500 842.500 636.357 835.919 C 636.073 822.918, 628.440 815.237, 619.500 818.959 M 855.750 820.197 C 850.938 820.772, 847 821.637, 847 822.121 C 847 822.604, 850.735 823, 855.300 823 C 876.261 823, 902.297 826.268, 910.602 829.942 C 917.109 832.820, 916.473 834.952, 907.803 839.328 C 903.105 841.699, 901.887 844.727, 905.855 844.169 C 909.125 843.710, 917.141 840.182, 919.250 838.274 C 920.216 837.400, 921 835.269, 921 833.519 C 921 830.062, 918.621 827.305, 913.334 824.635 C 905.316 820.585, 873.225 818.112, 855.750 820.197 M 1103.500 822.642 C 1097.648 823.530, 1090.390 826.286, 1082 830.807 C 1077.325 833.326, 1072.487 835.305, 1071.250 835.205 C 1068.761 835.003, 1068.314 836.850, 1070.061 840.114 C 1071.378 842.575, 1072.509 842.296, 1085.068 836.411 C 1097.335 830.663, 1108.672 828.210, 1114.940 829.948 C 1120.211 831.410, 1126.015 836.781, 1125.965 840.150 C 1125.870 846.400, 1119.773 851.242, 1109.134 853.514 C 1095.003 856.533, 1091.563 857.824, 1088.079 861.419 C 1085.951 863.614, 1084.958 865.448, 1085.347 866.462 C 1085.882 867.857, 1086.569 867.746, 1090.865 865.568 C 1093.640 864.162, 1100.057 862.364, 1105.636 861.430 C 1122.586 858.591, 1131.619 852.025, 1132.685 841.768 C 1133.393 834.960, 1129.876 829.188, 1122.887 825.692 C 1117.286 822.890, 1109.718 821.699, 1103.500 822.642 M 530.923 833.923 C 525.678 839.168, 527.510 846.062, 535.452 850.970 C 541.520 854.721, 556.171 859.057, 569.500 861.049 C 583.471 863.136, 601 863.665, 601 862 C 601 861.450, 599.538 861, 597.750 861 C 592.389 860.999, 571.278 857.236, 559 854.092 C 546.353 850.854, 537.139 847.139, 534.023 844.023 C 531.436 841.436, 531.425 836.831, 534 834.500 C 535.100 833.505, 536 832.310, 536 831.845 C 536 830.157, 533.781 831.065, 530.923 833.923 M 469.616 832.717 C 468.761 833.572, 470.984 836, 472.622 836 C 473.380 836, 474 835.658, 474 835.241 C 474 834.131, 470.320 832.013, 469.616 832.717 M 45.638 834.777 C 45.373 835.205, 46.723 838.017, 48.636 841.027 C 54.859 850.817, 61.138 862.904, 66.119 874.682 C 68.803 881.031, 71 886.435, 71 886.692 C 71 886.949, 69.650 886.862, 68 886.500 C 63.029 885.408, 64.277 888.645, 72.362 897.808 C 78.741 905.037, 80.167 907.397, 83.346 915.982 C 85.356 921.408, 87 926.557, 87 927.424 C 87 928.291, 87.450 929, 88 929 C 88.550 929, 89 928.572, 89 928.049 C 89 922.888, 80.109 892.041, 75.071 879.722 C 67.270 860.646, 56.910 840.820, 52.376 836.285 C 50.131 834.041, 46.584 833.247, 45.638 834.777 M 347.563 836.898 C 346.657 838.364, 354.186 843.552, 360.821 846.034 C 372.456 850.388, 382.103 852.114, 398.056 852.700 C 414.413 853.301, 429 852.459, 429 850.915 C 429 850.412, 427 850, 424.556 850 C 415.981 850, 386.407 846.852, 377.213 844.961 C 369.494 843.374, 357.286 839.619, 349.851 836.545 C 348.944 836.170, 347.915 836.329, 347.563 836.898 M 796.447 840.652 C 795.095 842.110, 793.489 844.972, 792.878 847.012 C 791.730 850.845, 791.993 865.327, 793.234 866.567 C 794.419 867.753, 799.558 865.052, 803.119 861.372 C 806.351 858.032, 806.497 857.554, 806.441 850.555 C 806.348 839, 801.985 834.676, 796.447 840.652 M 766.271 845.924 C 761.167 848.289, 758.666 852.082, 755.815 861.779 C 754.638 865.783, 753.251 868.917, 752.732 868.744 C 752.214 868.571, 751.194 866.698, 750.467 864.580 C 748.792 859.710, 742.660 853.373, 738.196 851.900 C 730.625 849.401, 722.925 852.824, 719.207 860.340 C 716.526 865.759, 714.273 876.673, 715.568 877.968 C 717.071 879.471, 737.694 880.246, 745.500 879.093 C 749.350 878.524, 755.875 877.844, 760 877.583 C 767.027 877.137, 782.789 873.253, 787.238 870.873 C 788.865 870.002, 789.116 869.147, 788.621 866.155 C 787.059 856.697, 783.964 850.488, 779 846.853 C 775.122 844.014, 771.036 843.716, 766.271 845.924 M 993.358 858.230 C 992.382 859.809, 997.595 863.670, 1004 866.112 C 1016.285 870.795, 1031.136 872.025, 1046.091 869.598 C 1056.610 867.890, 1067 862.991, 1067 859.738 C 1067 859.214, 1066.213 859.112, 1065.250 859.510 C 1064.287 859.909, 1060.125 861.186, 1056 862.348 C 1049.694 864.125, 1045.873 864.453, 1032 864.408 C 1014.844 864.352, 1007.844 863.237, 998.379 859.049 C 995.369 857.718, 993.830 857.467, 993.358 858.230 M 477.393 861.088 C 468.727 862.538, 456.522 866.839, 452.208 869.964 C 446.813 873.872, 445.002 879.170, 447.446 883.895 C 450.850 890.478, 463.459 895.868, 486.115 900.424 C 505.965 904.416, 512.949 905.083, 541.250 905.691 C 570.406 906.316, 576.373 905.226, 555.250 903.134 C 506.683 898.324, 472.521 891.860, 458.783 884.881 C 447.638 879.220, 454.041 872.789, 476.554 867.035 C 494.747 862.384, 496 861.993, 496 860.960 C 496 859.810, 484.559 859.889, 477.393 861.088 M 857 861.840 C 857 862.302, 858.837 863.286, 861.082 864.027 C 863.328 864.768, 867.040 867.055, 869.332 869.109 C 872.842 872.253, 873.327 873.132, 872.403 874.671 C 870.793 877.354, 860.061 880.871, 849.359 882.223 C 836.107 883.896, 837.514 885.385, 851.750 884.753 C 868.908 883.990, 878 880.266, 878 874 C 878 870.402, 874.658 867.519, 866.407 864 C 859.211 860.931, 857 860.423, 857 861.840 M 916.495 865.008 C 915.252 867.019, 917.331 867.997, 930.599 871.644 C 943.319 875.140, 951.783 878.612, 955.294 881.774 C 962.162 887.960, 946.475 894.399, 916 897.903 C 898.645 899.899, 875.097 900.165, 847 898.685 C 831.875 897.888, 819.312 897.408, 819.083 897.618 C 818.253 898.380, 819.639 898.851, 827.461 900.463 C 850.567 905.227, 894.632 907.223, 918.275 904.576 C 942.407 901.875, 958.109 896.965, 962.454 890.762 C 966.674 884.737, 962.366 877.232, 952.019 872.589 C 940.930 867.613, 917.920 862.702, 916.495 865.008 M 33.250 873.106 C 31.118 875.313, 31.842 877.603, 36.264 882.642 C 50.081 898.383, 57.455 909.213, 63.990 923.358 C 67.951 931.931, 70.120 934.280, 72.177 932.223 C 73.552 930.848, 71.202 923.794, 65.938 913.503 C 61.453 904.732, 55.230 895.664, 47.183 886.174 C 44.233 882.694, 42.028 879.639, 42.283 879.384 C 42.538 879.129, 46.190 880.288, 50.399 881.960 C 54.608 883.632, 58.265 885, 58.526 885 C 59.798 885, 58.780 880.111, 57.213 878.693 C 51.975 873.953, 36.024 870.234, 33.250 873.106 M 666.624 892.800 C 665.643 894.387, 668.099 895.741, 676.022 897.979 C 684.402 900.346, 705 901.971, 705 900.265 C 705 899.696, 702.413 898.908, 699.250 898.514 C 693.778 897.832, 673.903 893.806, 669.363 892.460 C 668.187 892.111, 666.955 892.264, 666.624 892.800 M 787 894.181 C 785.075 894.719, 780.458 896.056, 776.739 897.152 C 773.021 898.249, 767.509 899.402, 764.489 899.713 C 754.797 900.714, 758.637 902.033, 769.250 901.349 C 779.100 900.714, 786.911 898.572, 788.449 896.083 C 788.817 895.487, 789.991 895, 791.059 895 C 792.127 895, 793 894.550, 793 894 C 793 892.820, 791.739 892.858, 787 894.181 M 594.840 908.022 C 587.733 911.776, 585.136 917.894, 588.570 922.796 C 592.038 927.748, 606.140 932.403, 626 935.153 C 640.353 937.140, 693.483 936.859, 712.222 934.698 C 720.318 933.764, 727.631 933, 728.472 933 C 729.312 933, 730 932.553, 730 932.008 C 730 931.370, 725.256 931.232, 716.750 931.621 C 692.505 932.730, 635.962 930.023, 618 926.893 C 593.784 922.673, 588.359 918.341, 598.185 911.068 C 604.875 906.115, 602.516 903.967, 594.840 908.022 M 105 920 C 105 921.650, 105.450 923, 106 923 C 106.550 923, 107 921.650, 107 920 C 107 918.350, 106.550 917, 106 917 C 105.450 917, 105 918.350, 105 920 M 1048.310 920.685 C 1038.006 925.435, 1019.267 928.694, 982 932.216 C 964.501 933.869, 886.943 933.855, 862 932.194 C 842.505 930.895, 836.491 930.352, 799.500 926.546 C 786.850 925.244, 776.313 924.364, 776.083 924.590 C 775.273 925.388, 776.584 925.839, 784.378 927.446 C 844.410 939.823, 924.909 944.754, 979.500 939.397 C 1007.185 936.681, 1021.337 933.997, 1037.607 928.376 C 1046.484 925.309, 1055.442 920.046, 1054 918.744 C 1053.725 918.495, 1051.165 919.369, 1048.310 920.685 M 1382 926.500 C 1382 927.325, 1382.450 928, 1383 928 C 1383.550 928, 1384 927.325, 1384 926.500 C 1384 925.675, 1383.550 925, 1383 925 C 1382.450 925, 1382 925.675, 1382 926.500" stroke="none" fill="black" fill-rule="evenodd"/>
</svg>