<svg xmlns="http://www.w3.org/2000/svg" width="2000" height="1342" viewBox="0 0 2000 1342" version="1.1">
	<path d="M 765.667 0.667 C 765.300 1.033, 765 3.651, 765 6.483 C 765 17.870, 760.588 33.754, 753.468 48 C 742.997 68.950, 725.862 86.154, 704.453 97.212 C 686.700 106.381, 670.838 109.989, 648.250 109.996 C 633.198 110.001, 631.636 110.678, 630.490 117.694 C 626.386 142.815, 623.001 154.277, 615.213 169.415 C 609.106 181.288, 600.632 192.558, 589.586 203.502 C 568.708 224.186, 548 235.874, 519.626 242.990 C 503.412 247.057, 489.762 248.386, 471.274 247.700 C 453.815 247.051, 441.503 244.868, 427.301 239.902 C 417.800 236.581, 400.620 228.452, 399.017 226.521 C 398.316 225.676, 402.546 219.867, 413.659 206.416 C 422.254 196.012, 429.785 187.584, 430.393 187.687 C 431.002 187.790, 436 188.847, 441.500 190.036 C 455.211 192.998, 472.419 192.422, 485.500 188.562 C 497.227 185.102, 510.749 178.438, 519.500 171.805 C 525.931 166.931, 526.524 166.171, 526.798 162.448 C 527.024 159.375, 526.598 157.946, 525.035 156.532 C 521.545 153.373, 518.043 154.224, 509.289 160.358 C 493.636 171.326, 478.493 176.300, 461 176.217 C 448.014 176.156, 438.176 173.754, 425 167.428 C 412.395 161.376, 402.515 153.670, 395.340 144.297 C 387.420 133.950, 384.505 131, 382.205 131 C 381.133 131, 376.261 133.990, 371.378 137.644 C 353.134 151.297, 336.307 156.968, 314 156.980 C 286.474 156.995, 262.815 146.519, 243.407 125.724 C 232.048 113.552, 232.061 114.764, 243.153 103.209 C 254.140 91.762, 259.559 83.932, 267.521 68 C 274.118 54.801, 274.939 49.989, 271.125 46.900 C 267.965 44.342, 263.814 44.489, 261.297 47.250 C 260.168 48.487, 257.206 53.775, 254.714 59 C 239.818 90.238, 216.249 111.456, 183.775 122.862 C 170.869 127.395, 159.345 129.323, 145 129.351 C 124.159 129.391, 107.571 124.965, 84.825 113.296 C 70.902 106.153, 70.613 106.262, 63 121.530 C 49.941 147.718, 30.926 166.614, 8.500 175.688 L 0.500 178.925 0.224 193.961 L -0.052 208.996 7.724 220.749 C 34.125 260.652, 82.507 331.244, 85.003 333.502 C 87.532 335.791, 92.558 335.871, 94.772 333.657 C 95.889 332.539, 96.683 329.399, 97.153 324.240 C 97.541 319.983, 97.890 276.364, 97.929 227.309 C 97.968 178.254, 98.371 137.889, 98.824 137.609 C 99.277 137.329, 102.410 137.960, 105.787 139.011 C 119.065 143.143, 128.867 144.424, 147.500 144.459 C 164.176 144.491, 166.328 144.280, 176.761 141.591 C 182.954 139.994, 188.303 138.970, 188.647 139.314 C 188.991 139.658, 189.491 190.915, 189.757 253.220 C 190.147 344.331, 190.503 367.137, 191.573 369.756 C 192.988 373.219, 196.998 375.453, 200.057 374.482 C 201.529 374.015, 222.711 351.872, 265.090 306.500 C 274.714 296.195, 279.715 289.380, 281.340 284.351 C 282.687 280.184, 298.082 199.346, 301.260 179.750 L 302.355 173 309.511 173 C 313.447 173, 316.861 173.194, 317.098 173.431 C 317.335 173.669, 316.321 184.581, 314.844 197.681 C 313.367 210.782, 311.831 226.575, 311.431 232.778 C 310.727 243.693, 310.778 244.135, 313.026 246.528 C 314.374 247.963, 316.471 249, 318.024 249 C 321.007 249, 327.555 244.653, 330.816 240.506 C 331.989 239.016, 344.589 225.355, 358.817 210.149 C 373.045 194.942, 387.068 179.800, 389.980 176.500 C 392.892 173.200, 395.602 170.133, 396.003 169.685 C 396.626 168.987, 414 179.438, 414 180.511 C 414 180.723, 411.831 183.507, 409.179 186.698 C 406.528 189.889, 397.889 200.600, 389.981 210.500 C 382.074 220.400, 369.485 235.925, 362.007 245 C 347.850 262.180, 294.934 327.273, 257.952 373 C 211.581 430.335, 194.721 451.665, 192.741 455.500 C 190.726 459.401, 190.681 460.706, 190.908 508 C 191.036 534.675, 191.508 595.425, 191.956 643 C 192.404 690.575, 192.454 729.846, 192.066 730.269 C 191.678 730.693, 189.384 730.341, 186.968 729.489 C 184.551 728.636, 179.396 727.670, 175.511 727.341 C 168.849 726.778, 163.566 727.662, 150.356 731.547 C 148.494 732.095, 147.776 731.280, 144.885 725.339 C 137.594 710.351, 123.189 700.247, 105.462 697.683 L 96.500 696.387 96.823 563.823 C 97.045 473.063, 96.814 430.035, 96.093 427.379 C 95.513 425.246, 90.827 416.075, 85.679 407 C 65.742 371.856, 3.520 263.717, 1.096 260 C 0.435 258.986, 0.099 263.554, 0.059 274.091 L 0 289.682 12.098 310.591 C 29.103 339.980, 76.863 423.675, 79.326 428.402 C 81.341 432.267, 81.371 433.484, 81.125 500.863 C 80.987 538.555, 80.679 569.710, 80.440 570.097 C 80.201 570.483, 76.371 568.366, 71.928 565.392 C 53.529 553.077, 29.166 544.423, 7.125 542.375 L 0 541.713 0 549.727 L 0 557.742 6.250 558.432 C 22.137 560.185, 36.855 564.449, 50.500 571.251 C 64.444 578.202, 77.993 589.420, 80.079 595.739 C 80.944 598.361, 81.053 612.485, 80.502 650.670 L 79.761 702.072 76.930 703.536 C 75.373 704.341, 73.914 705, 73.687 705 C 73.460 705, 71.877 702.188, 70.168 698.750 C 65.223 688.802, 55.985 677.808, 48.248 672.665 C 35.806 664.394, 24.722 661.040, 9.750 661.016 L 0 661 -0 669.339 L -0 677.678 6.103 676.754 C 28.081 673.428, 51.410 689.708, 59.508 714.023 C 64.273 728.333, 68.435 730.389, 77.489 722.908 C 87.156 714.919, 96.260 712.192, 106.771 714.135 C 121.071 716.778, 129.573 725.161, 133.913 740.895 C 137.324 753.261, 139.896 754.325, 152.222 748.472 C 162.421 743.628, 170.193 742.283, 179.126 743.815 C 195 746.537, 207.254 757.347, 211.553 772.421 C 213.199 778.195, 213.168 783.764, 211.418 796.500 C 211.045 799.208, 211.348 801.146, 212.354 802.500 C 213.716 804.333, 215.003 804.500, 227.721 804.500 L 241.602 804.500 249.251 808.280 C 264.726 815.927, 275.539 830.868, 276.699 846.207 C 277.286 853.961, 275.180 866.054, 272.658 869.411 C 271.631 870.779, 261.400 870.965, 182 871.059 C 132.775 871.117, 91.938 871.128, 91.250 871.082 C 89.433 870.963, 89.725 867.963, 91.902 864.393 C 93.553 861.686, 96.610 860.161, 115.648 852.551 C 151.752 838.118, 168.376 830.933, 170.750 828.735 C 174.798 824.986, 172.835 819.995, 167.316 820.003 C 166.317 820.004, 158.300 822.952, 149.500 826.554 C 109.159 843.064, 101.828 846, 100.945 846 C 99.060 846, 100.163 842.862, 109.605 821.367 C 125.046 786.214, 125.553 784.437, 120.865 781.928 C 115.694 779.160, 112.883 784.219, 90.555 836.461 C 83.042 854.039, 76.414 869.002, 75.825 869.711 C 74.650 871.127, 53.491 871.620, 52.667 870.250 C 52.419 869.837, 50.325 860.500, 48.014 849.500 C 45.703 838.500, 40.901 816.675, 37.344 801 C 33.787 785.325, 29.947 768.225, 28.811 763 C 27.676 757.775, 26.298 752.938, 25.751 752.250 C 25.203 751.563, 23.226 751, 21.356 751 C 14.392 751, 14.663 754.769, 24.625 796.378 C 27.110 806.761, 28.774 815.590, 28.322 815.999 C 27.870 816.407, 21.425 812.541, 14 807.406 L 0.500 798.070 0.198 804.198 C -0.008 808.385, 0.328 810.757, 1.261 811.690 C 2.012 812.440, 9.323 817.655, 17.509 823.277 L 32.392 833.500 34.015 840 C 36.715 850.806, 40.456 869.880, 39.963 870.319 C 39.334 870.877, 18.433 871.979, 8.250 871.991 L 0 872 0 879.500 L 0 887 208.941 887 C 323.859 887, 418.115 887.377, 418.400 887.838 C 419.132 889.023, 414.503 923.436, 411.923 935.988 C 409.560 947.485, 403.918 964.713, 400.908 969.623 C 399.495 971.928, 398.014 972.906, 395.247 973.358 C 389.222 974.343, 379.833 979.420, 375.316 984.134 C 367.390 992.405, 364.674 1000.201, 363.519 1018 C 362.620 1031.850, 361.476 1036.857, 357.938 1042.436 C 354.303 1048.169, 354.177 1051.879, 357.514 1055.013 C 362.987 1060.154, 380.387 1058.235, 396 1050.768 C 417.002 1040.724, 430.041 1017.452, 426.209 996.848 L 425.092 990.840 429.966 984.638 C 436.519 976.299, 443.394 964.499, 447.452 954.627 C 450.886 946.271, 456.248 930.012, 457.470 924.250 C 457.849 922.463, 458.499 921, 458.916 921 C 459.332 921, 462.686 930.058, 466.370 941.129 C 470.054 952.199, 476.269 969.387, 480.182 979.324 C 488.975 1001.652, 491.872 1011.914, 492.654 1023.500 C 493.689 1038.836, 489.999 1058.174, 480.996 1084.585 C 471.923 1111.205, 464 1144.697, 464 1156.432 C 464 1166.401, 466.141 1171.958, 472.717 1179.061 C 484.976 1192.303, 509.706 1203.165, 537.526 1207.527 C 551.245 1209.678, 576.079 1209.140, 586 1206.477 C 601.212 1202.393, 610.808 1194.686, 613.026 1184.773 C 614.089 1180.025, 613.949 1177.066, 611.990 1162.926 C 608.552 1138.112, 610.163 1123.242, 618.113 1106.418 C 621.286 1099.700, 635.281 1080, 636.879 1080 C 638.262 1080, 640.301 1105.179, 641.906 1142.081 C 642.828 1163.288, 644.037 1168.293, 649.652 1174.158 C 653.578 1178.257, 663.249 1182.067, 675.426 1184.310 C 684.656 1186.010, 690.830 1186.361, 712.500 1186.420 C 737.437 1186.487, 738.963 1186.379, 749.830 1183.782 C 763.675 1180.472, 770.455 1177.466, 776.374 1172.009 C 781.976 1166.846, 783.434 1162.711, 782.707 1154.046 C 782.122 1147.065, 781.322 1144.599, 774.416 1128.500 C 766.526 1110.105, 764 1096.620, 764 1072.899 C 764 1063.191, 764.361 1058.947, 765.250 1058.216 C 765.938 1057.650, 773.250 1056.240, 781.500 1055.083 C 798.043 1052.763, 818.058 1048.492, 833.649 1043.954 C 839.231 1042.329, 844.465 1041, 845.281 1041 C 846.897 1041, 847.474 1042.899, 851.366 1061 C 858.245 1092.993, 860.718 1125.206, 858.736 1157 C 856.927 1186.012, 857.105 1193.641, 859.707 1198.568 C 862.435 1203.734, 868.903 1209.601, 874.528 1212.012 C 886.836 1217.288, 903.918 1220.873, 921.500 1221.870 C 948.700 1223.412, 967.103 1220.771, 983.908 1212.913 C 994.809 1207.816, 1000.629 1202.993, 1003.614 1196.581 C 1007.854 1187.477, 1006.670 1179.318, 998.402 1160.671 C 991.986 1146.200, 987.991 1131.792, 990.112 1130.769 C 990.419 1130.621, 992.929 1133.200, 995.690 1136.500 C 1010.501 1154.201, 1030.282 1166.876, 1048.853 1170.564 C 1067.222 1174.212, 1079.280 1168.199, 1087.119 1151.482 C 1089.187 1147.072, 1091.863 1139.872, 1093.066 1135.482 C 1095.641 1126.084, 1098.368 1119.671, 1103.765 1110.327 C 1120.082 1082.074, 1125.234 1066.723, 1125.357 1046 C 1125.489 1023.768, 1120.896 1007.971, 1105.410 977.400 C 1085.623 938.340, 1080.971 925.597, 1080.659 909.603 L 1080.500 901.500 1540.129 901.249 L 1999.758 900.998 2000.486 886.439 C 2000.886 878.432, 2000.941 871.607, 2000.607 871.274 C 2000.273 870.940, 2000 873.897, 2000 877.845 L 2000 885.023 1960.250 884.761 L 1920.500 884.500 1920.783 864.014 L 1921.065 843.528 1923.889 840.514 C 1928.535 835.554, 1948.056 809.404, 1957.344 795.699 C 1971.124 775.363, 1972.928 770.637, 1967.932 767.964 C 1966.615 767.259, 1965.394 767.254, 1964.094 767.950 C 1963.046 768.511, 1957.134 776.289, 1950.957 785.235 C 1938.809 802.827, 1923.402 823.634, 1921.782 824.635 C 1920.065 825.696, 1919.298 823.145, 1918.615 814.094 C 1917.015 792.908, 1911.995 768.268, 1908.435 764.129 C 1906.317 761.667, 1906.190 761.646, 1903.630 763.323 C 1900.397 765.441, 1900.346 767.002, 1902.999 782.684 C 1906.365 802.576, 1909.847 841.374, 1908.347 842.265 C 1907.881 842.541, 1901.397 837.532, 1893.937 831.133 C 1868.787 809.562, 1855.789 798.786, 1852.964 797.164 C 1850.335 795.656, 1850.019 795.673, 1848.077 797.431 C 1846.934 798.464, 1846 800.265, 1846 801.432 C 1846 804.888, 1858.681 816.405, 1904.472 854.535 L 1909.317 858.570 1908.409 871.535 L 1907.500 884.500 1808.531 884.500 L 1709.563 884.500 1707.586 879.500 C 1706.077 875.682, 1705.597 872.006, 1705.555 863.948 C 1705.501 853.656, 1705.596 853.203, 1709.385 845.536 C 1719.354 825.364, 1739.836 814.462, 1761.250 817.928 C 1776.325 820.368, 1777.349 820.376, 1779.432 818.075 C 1781.276 816.038, 1781.278 815.784, 1779.516 808.070 C 1776.538 795.029, 1778.385 785.638, 1785.619 777.041 C 1792.210 769.208, 1803.792 765.149, 1814.176 767.032 C 1817.607 767.654, 1821.649 768.802, 1823.158 769.582 C 1826.993 771.565, 1830.651 771.349, 1833 769 C 1834.532 767.468, 1835.003 765.653, 1835.015 761.250 C 1835.048 748.249, 1841.367 732.295, 1850.083 723.206 C 1860.747 712.083, 1872.565 706.812, 1887 706.737 C 1900.993 706.664, 1911.463 710.597, 1923.464 720.434 C 1927.376 723.641, 1931.238 726, 1932.576 726 C 1935.036 726, 1937.695 722.972, 1942.236 715 C 1946.179 708.076, 1956.853 698.437, 1964.688 694.727 C 1971.365 691.564, 1971.780 691.500, 1985.657 691.500 L 1999.813 691.500 2000.530 676.207 C 2000.924 667.795, 2000.966 660.633, 2000.623 660.290 C 2000.280 659.947, 2000 663.060, 2000 667.207 L 2000 674.748 1985.750 675.250 C 1975.029 675.627, 1969.860 676.278, 1964.877 677.877 C 1957.090 680.375, 1945.458 687.763, 1938.716 694.491 C 1936.085 697.117, 1933.784 699.093, 1933.603 698.883 C 1933.422 698.672, 1932.970 677.440, 1932.599 651.700 L 1931.924 604.901 1937.666 599.295 C 1951.117 586.163, 1970.577 576.338, 1995.650 570.022 L 1999.800 568.977 2000.509 556.676 C 2000.900 549.911, 2000.997 543.503, 2000.725 542.438 C 2000.454 541.372, 2000.180 543.267, 2000.116 546.650 L 2000 552.799 1992.250 554.520 C 1975.134 558.320, 1957.948 565.608, 1942.982 575.414 C 1937.527 578.988, 1932.858 581.579, 1932.606 581.171 C 1932.354 580.764, 1932.002 550.971, 1931.824 514.965 L 1931.500 449.500 1936.601 441.500 C 1939.407 437.100, 1950.614 418.425, 1961.507 400 C 1972.399 381.575, 1985.527 359.583, 1990.680 351.129 L 2000.050 335.758 1999.775 320.129 L 1999.500 304.500 1990.442 320 C 1985.460 328.525, 1967.704 358.450, 1950.984 386.500 C 1934.264 414.550, 1919.724 439.201, 1918.673 441.279 C 1917.622 443.358, 1916.417 448.197, 1915.996 452.033 C 1915.140 459.835, 1916.470 647.338, 1917.583 675.643 C 1917.975 685.621, 1918.034 694.470, 1917.712 695.307 C 1917.208 696.622, 1916.071 696.488, 1909.314 694.313 C 1893.302 689.159, 1873.808 690.244, 1858.890 697.120 C 1855.086 698.874, 1851.766 700.099, 1851.511 699.844 C 1851.256 699.589, 1851.464 676.007, 1851.974 647.440 C 1853.706 550.284, 1854.371 398.926, 1853.086 394.239 C 1852.233 391.131, 1847.656 384.772, 1836.170 370.739 C 1816.980 347.293, 1765.854 284.510, 1756.985 273.500 C 1753.441 269.100, 1738.580 250.875, 1723.962 233 C 1686.332 186.988, 1673.654 171.013, 1674.274 170.393 C 1674.571 170.096, 1678.568 171.650, 1683.157 173.846 C 1687.746 176.042, 1696.048 179.225, 1701.606 180.918 L 1711.712 183.997 1718.668 191.749 C 1741.329 217.004, 1786.989 269.298, 1820.743 308.653 C 1830.722 320.288, 1839.912 330.525, 1841.165 331.403 C 1844.224 333.545, 1848.262 333.418, 1851.139 331.089 L 1853.500 329.177 1853.767 217.088 L 1854.034 105 1865.267 99.376 C 1871.445 96.283, 1879.552 91.783, 1883.281 89.376 C 1887.011 86.969, 1890.386 85.014, 1890.781 85.031 C 1891.177 85.048, 1893.061 87.133, 1894.970 89.665 C 1896.878 92.196, 1902.149 97.663, 1906.684 101.814 C 1911.219 105.964, 1915.302 110.517, 1915.757 111.930 C 1916.212 113.344, 1916.217 163.775, 1915.769 224 C 1915.320 284.225, 1915.076 340.553, 1915.227 349.172 C 1915.489 364.200, 1915.600 364.951, 1917.924 367.422 C 1920.555 370.220, 1924.580 370.792, 1927.255 368.750 C 1928.697 367.649, 1945.341 341.834, 1977.557 290.728 C 1983.026 282.053, 1990.324 270.603, 1993.776 265.282 L 2000.051 255.609 1999.776 241.054 L 1999.500 226.500 1970.938 271.500 C 1955.229 296.250, 1940.188 319.988, 1937.514 324.250 C 1934.839 328.512, 1932.242 332, 1931.742 332 C 1930.709 332, 1931.116 184.550, 1932.152 183.515 C 1932.510 183.156, 1938.503 184.686, 1945.470 186.913 C 1962.229 192.270, 1973.997 194.339, 1988.212 194.427 L 1999.925 194.500 2000.261 202 C 2000.446 206.125, 2000.686 202.525, 2000.795 194 L 2000.993 178.500 1987.246 178.475 C 1979.491 178.461, 1971.103 177.881, 1968 177.143 C 1960.056 175.255, 1942.247 169.241, 1937 166.675 L 1932.500 164.475 1932.230 142.737 C 1932.082 130.782, 1932.238 121, 1932.576 121 C 1932.915 121, 1936.466 122.554, 1940.467 124.452 C 1951.364 129.624, 1966.990 133.897, 1980.994 135.537 C 1987.866 136.342, 1994.953 137, 1996.744 137 L 2000 137 2000 129.150 L 2000 121.300 1989.250 120.691 C 1976.666 119.979, 1961.838 116.557, 1950.379 111.721 C 1933.800 104.725, 1914.742 89.681, 1904.904 75.826 C 1895.245 62.222, 1893.955 62.018, 1880.757 72.003 C 1859.205 88.309, 1836.030 95.999, 1808.500 95.981 C 1789.057 95.968, 1770.011 90.300, 1750.898 78.839 C 1740.894 72.841, 1736.203 71.797, 1733.116 74.884 C 1730.031 77.969, 1730.311 82.978, 1733.750 86.211 C 1740.930 92.960, 1764.509 104.263, 1780.694 108.714 C 1789.568 111.155, 1792.164 111.415, 1808 111.456 C 1817.625 111.480, 1828.313 111.104, 1831.750 110.621 L 1838 109.742 1838 128.871 C 1838 141.479, 1837.645 148, 1836.957 148 C 1835.907 148, 1829.321 143.307, 1821 136.630 C 1814.205 131.178, 1812.194 131.594, 1803.034 140.345 C 1793.535 149.420, 1785.454 154.971, 1773.623 160.547 C 1760.818 166.581, 1754.526 168.074, 1739.215 168.711 C 1712.680 169.814, 1691.345 163.310, 1670.690 147.820 C 1664.339 143.058, 1660.721 141, 1658.700 141 C 1656.525 141, 1653.583 142.927, 1646.865 148.750 C 1627.098 165.887, 1606.899 174.266, 1582 175.658 C 1562.088 176.770, 1537.665 169.975, 1521 158.686 C 1506.988 149.193, 1494.673 134.829, 1487.403 119.500 C 1483.428 111.116, 1479 97.030, 1479 92.766 C 1479 91.745, 1477.849 89.758, 1476.443 88.352 C 1473.395 85.304, 1471.987 85.420, 1457.663 89.899 C 1444.913 93.887, 1430.391 95.319, 1416.677 93.941 C 1370.036 89.254, 1334.231 57.168, 1325.419 12.162 C 1324.594 7.948, 1323.704 3.488, 1323.441 2.250 C 1322.995 0.156, 1322.435 0, 1315.352 0 L 1307.742 0 1308.425 6.932 C 1309.987 22.789, 1318.181 44.541, 1328.087 59.128 C 1339.701 76.231, 1359.764 92.412, 1379.432 100.540 C 1398.143 108.273, 1404.598 109.467, 1427.500 109.436 C 1444.757 109.413, 1448.529 109.119, 1455 107.299 C 1459.125 106.138, 1463.106 105.034, 1463.846 104.844 C 1464.756 104.612, 1466.221 107.577, 1468.372 114 C 1479.574 147.459, 1506.852 174.426, 1540.500 185.305 C 1557.969 190.953, 1570.072 192.442, 1586.665 190.986 C 1606.905 189.210, 1623.198 183.839, 1640.140 173.359 C 1644.905 170.412, 1649.186 168.002, 1649.652 168.005 C 1650.118 168.008, 1658.600 177.996, 1668.500 190.200 C 1678.400 202.405, 1695.186 222.990, 1705.802 235.945 C 1727.453 262.366, 1786.984 335.477, 1817.750 373.430 L 1838 398.410 1837.994 456.455 C 1837.986 549.326, 1836.188 655.226, 1834.594 656.828 C 1833.867 657.558, 1828.276 659.214, 1822.169 660.508 C 1805.478 664.043, 1795.238 667.458, 1783.294 673.475 C 1763.145 683.626, 1744.569 700.295, 1731.458 719.990 C 1727.787 725.504, 1724.365 730.274, 1723.854 730.590 C 1723.343 730.906, 1721.211 729.617, 1719.117 727.724 C 1706.844 716.636, 1684.064 704.435, 1665.500 699.006 L 1656.500 696.374 1656.500 683.479 L 1656.500 670.585 1666 669.385 C 1695.009 665.720, 1716.854 655.316, 1734.703 636.662 C 1755.768 614.647, 1766.686 585.928, 1768.601 547.500 C 1771.040 498.557, 1754.268 425.615, 1729.858 379 C 1711.298 343.557, 1688.024 321.764, 1663.142 316.530 C 1625.320 308.574, 1592.277 330.417, 1566.327 380.531 C 1552.564 407.110, 1541.531 441.514, 1533.629 482.500 C 1528.296 510.160, 1526.529 541.400, 1529.104 562.500 C 1534.401 605.892, 1557.344 640.842, 1591.500 657.548 C 1603.992 663.658, 1613.663 666.556, 1629.500 668.935 L 1640.500 670.588 1640.500 682.044 L 1640.500 693.500 1624 694.113 C 1586.851 695.492, 1558.913 707.010, 1532.761 731.726 C 1526.079 738.041, 1522.294 740.943, 1521.256 740.545 C 1509.476 736.024, 1489.435 733.975, 1476.089 735.927 C 1442.807 740.793, 1412.905 763.750, 1399.400 794.805 C 1397.652 798.823, 1395.965 802.368, 1395.651 802.683 C 1395.336 802.997, 1387.523 803.366, 1378.289 803.502 C 1354.692 803.850, 1341.522 807.397, 1322.500 818.531 C 1298.253 832.722, 1280.140 855.335, 1270.657 883.250 C 1270.097 884.900, 1264.766 885, 1177.590 885 C 1126.731 885, 1084.933 884.662, 1084.707 884.250 C 1083.914 882.806, 1099.946 845.755, 1104.647 838.164 C 1109.849 829.768, 1119.452 819.120, 1124.810 815.808 C 1126.689 814.647, 1135.713 811.753, 1144.863 809.377 C 1154.013 807.001, 1168.025 803.192, 1176 800.912 C 1188.698 797.283, 1191.805 796.760, 1201 796.702 C 1211.048 796.639, 1211.995 796.824, 1223 800.999 C 1233.693 805.056, 1235.202 805.367, 1244.500 805.431 C 1253.151 805.491, 1255.092 805.184, 1258.892 803.157 C 1269.822 797.327, 1276.955 787.132, 1279.179 774.159 C 1280.498 766.469, 1279.815 758.487, 1275.999 737.024 C 1274.877 730.712, 1274.155 725.039, 1274.394 724.416 C 1274.656 723.733, 1279.121 723.011, 1285.664 722.593 C 1313.857 720.795, 1336.293 714.824, 1361.098 702.515 C 1410.736 677.883, 1449.223 628.967, 1461.818 574.500 C 1466.186 555.612, 1467.268 543.915, 1466.720 521.500 C 1466.191 499.807, 1465.082 491.259, 1460.378 472.582 C 1454.064 447.514, 1439.547 416.058, 1422.060 389.554 C 1404.982 363.670, 1403.150 359.843, 1400.020 343.500 C 1397.237 328.971, 1392.920 322.554, 1384.162 319.930 C 1372.439 316.418, 1361.661 323.972, 1355.759 339.837 C 1352.776 347.853, 1352.592 348, 1345.483 348 C 1324.283 348, 1310.412 363.127, 1317.991 377.982 C 1320.344 382.595, 1322.758 384.474, 1338 393.554 C 1351.434 401.557, 1357.764 407.500, 1365.512 419.388 C 1380.822 442.876, 1387.659 467.438, 1386.699 495.500 C 1386.122 512.338, 1384.045 520.942, 1376.959 535.835 C 1372.981 544.196, 1370.652 547.607, 1364.771 553.686 C 1356.291 562.452, 1349.452 566.312, 1339.727 567.823 C 1331.058 569.169, 1325.125 567.730, 1318.108 562.579 C 1310.650 557.105, 1305.147 548.679, 1295.639 528.182 C 1286.259 507.961, 1277.062 491.566, 1267.728 478.428 C 1260.419 468.139, 1244.543 451.206, 1234.549 443.040 C 1219.716 430.921, 1197.525 418.391, 1179.921 412.196 C 1164.119 406.635, 1138.794 402.028, 1123.789 401.985 C 1120.880 401.976, 1117.861 401.565, 1117.079 401.070 C 1115.346 399.973, 1116.671 397.689, 1123.505 389.995 C 1126.963 386.100, 1128 384.147, 1128 381.523 C 1128 377.575, 1125.160 375, 1120.806 375 C 1114.552 375, 1102.045 378.664, 1093.259 383.071 C 1088.142 385.637, 1083.778 387.450, 1083.562 387.100 C 1083.345 386.750, 1083.992 382.433, 1084.999 377.506 C 1086.941 368.002, 1086.622 365.939, 1082.906 363.950 C 1081.423 363.156, 1079.993 363.155, 1077.722 363.947 C 1072.404 365.801, 1060.863 375.407, 1053.131 384.415 C 1049.077 389.137, 1045.252 392.999, 1044.631 392.999 C 1044.009 392.998, 1042.709 390.306, 1041.743 387.017 C 1039.679 379.994, 1036.769 377.377, 1032.733 378.911 C 1027.583 380.869, 1022.478 390.146, 1017.548 406.500 C 1016.055 411.450, 1014.309 416.007, 1013.667 416.626 C 1013.025 417.246, 1008.378 419.548, 1003.340 421.742 C 982.279 430.915, 962.272 444.866, 942.401 464.233 L 929.302 477.001 920.129 471.471 C 904.740 462.194, 885.834 454.714, 870 451.640 C 844.676 446.723, 822.966 449.713, 800.962 461.149 C 788.228 467.767, 780.002 474.092, 768.982 485.735 C 748.475 507.404, 733.603 536.046, 724.537 571.330 C 722.723 578.387, 720.848 584.547, 720.370 585.019 C 719.891 585.492, 709.825 586.588, 698 587.454 C 674.081 589.207, 657.015 591.760, 640.402 596.070 C 595.430 607.737, 553.760 631.930, 521.442 665.137 C 499.132 688.061, 486.228 707.009, 469.779 741 C 460.352 760.481, 461.594 759.642, 453.369 752.081 C 442.090 741.713, 430.117 734.410, 418 730.507 C 414.975 729.533, 411.938 728.290, 411.250 727.745 C 410.270 726.969, 410 710.897, 410 653.437 C 410 609.976, 410.374 579.887, 410.918 579.550 C 411.424 579.238, 415.809 578.290, 420.664 577.443 C 458.101 570.915, 492.024 545.657, 512.376 509.157 C 526.121 484.507, 532.186 459.774, 532.154 428.500 C 532.117 392.510, 524.722 362.797, 506.518 325.500 C 495.475 302.874, 481.521 281.211, 469.641 268.250 C 467.498 265.913, 465.915 263.999, 466.123 263.999 C 498.346 263.894, 514.405 261.803, 535.059 255.021 C 560.780 246.575, 580.276 234.509, 600.531 214.500 C 622.662 192.639, 635.887 168.602, 642.895 137.500 L 645.599 125.500 650.550 125.806 C 668.998 126.946, 698.616 119.155, 717.259 108.259 C 732.737 99.213, 749.858 83.267, 759.462 68.952 C 771.744 50.647, 781 23.545, 781 5.890 L 781 0 773.667 0 C 769.633 0, 766.033 0.300, 765.667 0.667 M 1246.177 113.626 C 1240.894 116.320, 1238 121.446, 1238 128.110 C 1238 138.260, 1244.743 149.365, 1253.948 154.375 C 1260.215 157.786, 1264.820 157.505, 1269.050 153.452 C 1277.356 145.494, 1274.352 124.010, 1263.760 115.627 C 1259.063 111.909, 1251.282 111.024, 1246.177 113.626 M 1141.734 117.088 C 1131.749 119.441, 1124.104 126.394, 1121.444 135.543 C 1116.192 153.611, 1131.743 170.103, 1163.320 179.951 C 1168.369 181.526, 1178.350 184.637, 1185.500 186.864 C 1192.650 189.092, 1202.550 192.893, 1207.500 195.311 C 1218.111 200.494, 1237.680 213.434, 1247.356 221.667 C 1257.713 230.478, 1258.233 230.733, 1261.500 228.592 C 1265.461 225.997, 1264.565 222.777, 1255.487 206.977 C 1246.841 191.931, 1242.385 185.118, 1233.588 173.500 C 1203.699 134.026, 1166.587 111.233, 1141.734 117.088 M 1249.655 123.829 C 1246.099 127.758, 1248.951 137.115, 1255.440 142.813 C 1260.725 147.454, 1262.422 146.805, 1262.822 139.991 C 1263.247 132.737, 1261.648 127.723, 1257.905 124.574 C 1254.294 121.535, 1251.924 121.321, 1249.655 123.829 M 216 125.222 C 214.075 126.353, 210.808 128.349, 208.741 129.659 L 204.982 132.040 205.241 182.770 L 205.500 233.500 214.500 233.285 C 219.450 233.167, 227.065 232.350, 231.422 231.470 C 243.680 228.994, 262.690 221.079, 274.500 213.536 L 279.500 210.342 283.435 190.656 C 285.835 178.656, 287.006 170.649, 286.435 170.147 C 285.921 169.694, 282.575 168.292, 279 167.031 C 270.513 164.038, 258.021 157.754, 250.500 152.693 C 243.381 147.904, 229.248 134.435, 224.327 127.750 C 222.403 125.138, 220.530 123.037, 220.165 123.083 C 219.799 123.128, 217.925 124.091, 216 125.222 M 1012.219 124.005 C 1006.089 125.296, 998.130 129.909, 994.750 134.131 C 986.292 144.695, 990.873 160.163, 1004.206 166.056 C 1011.293 169.189, 1026.573 169.762, 1045.202 167.594 C 1052.738 166.717, 1065.606 166, 1073.797 166 C 1086.955 166, 1088.883 165.787, 1090.345 164.171 C 1093.210 161.005, 1092.326 158.432, 1086.750 153.699 C 1074.063 142.931, 1051.920 130.468, 1037.792 126.144 C 1029.861 123.717, 1018.215 122.742, 1012.219 124.005 M 1140.328 128.938 C 1133.593 131.996, 1130.164 139.183, 1132.068 146.252 C 1134.657 155.868, 1146.253 163.001, 1172.205 170.944 C 1200.263 179.530, 1215.801 186.267, 1230.981 196.428 C 1235.569 199.498, 1239.513 201.820, 1239.747 201.587 C 1240.418 200.916, 1230.420 186.399, 1222.166 176.059 C 1194.192 141.017, 1158.715 120.590, 1140.328 128.938 M 76.682 130.250 C 75.931 131.488, 73.430 135.756, 71.123 139.735 C 58.870 160.870, 37.279 180.625, 17.218 189.057 C 12.712 190.951, 9.020 193.033, 9.013 193.684 C 9.006 194.335, 15.412 204.280, 23.250 215.782 C 31.088 227.285, 47.175 250.925, 59 268.315 C 70.825 285.706, 80.838 299.949, 81.250 299.967 C 81.662 299.985, 82 261.840, 82 215.200 C 82 130.529, 81.908 128, 78.823 128 C 78.396 128, 77.432 129.012, 76.682 130.250 M 1013.500 134.872 C 1011.850 135.308, 1009.065 136.413, 1007.311 137.327 C 998.272 142.036, 999.051 152.419, 1008.731 156.265 C 1015.280 158.867, 1022.034 159.157, 1038.765 157.556 C 1047.710 156.700, 1058.173 156, 1062.015 156 C 1066.941 156, 1068.997 155.632, 1068.991 154.750 C 1068.982 153.473, 1061.843 148.605, 1052 143.165 C 1040.117 136.597, 1021.850 132.662, 1013.500 134.872 M 374.500 154.660 C 366.912 160.046, 352.409 166.678, 342.433 169.322 L 333.500 171.689 331.346 190.095 C 330.161 200.218, 328.945 210.637, 328.643 213.250 C 328.341 215.863, 328.489 218, 328.972 218 C 330.607 218, 385 159.419, 385 157.657 C 385 156.461, 381.006 150.989, 380.182 151.055 C 379.807 151.085, 377.250 152.707, 374.500 154.660 M 1805.870 158.825 C 1789.448 172.883, 1765.200 183.224, 1745.216 184.693 C 1740.659 185.028, 1736.694 185.687, 1736.403 186.157 C 1735.760 187.198, 1742.464 195.164, 1783 241.521 C 1800.325 261.334, 1819.415 283.251, 1825.421 290.225 C 1831.428 297.200, 1836.715 302.676, 1837.171 302.394 C 1837.627 302.112, 1838 271.865, 1838 235.178 L 1838 168.473 1826.891 160.737 C 1820.781 156.481, 1815.044 153.034, 1814.141 153.075 C 1813.238 153.116, 1809.517 155.703, 1805.870 158.825 M 0.405 194.500 C 0.406 203.300, 0.559 206.766, 0.745 202.203 C 0.930 197.639, 0.929 190.439, 0.742 186.203 C 0.555 181.966, 0.404 185.700, 0.405 194.500 M 1295.479 182.396 C 1289.446 184.283, 1286.210 186.788, 1283.209 191.892 C 1280.728 196.112, 1280.500 197.385, 1280.500 207 C 1280.500 215.338, 1280.981 218.941, 1282.836 224.500 C 1288.024 240.049, 1301.308 262.394, 1316.817 281.659 C 1329.110 296.930, 1332.610 299.298, 1336.514 294.985 C 1338.289 293.023, 1338.212 292.575, 1333.620 278.171 C 1327.643 259.420, 1326.338 251.680, 1325.498 230 C 1324.508 204.417, 1322.231 195.385, 1314.933 188.086 C 1309.091 182.245, 1302.305 180.260, 1295.479 182.396 M 1074.862 190.562 C 1062.593 192.782, 1056.163 195.624, 1050.353 201.391 C 1044.629 207.073, 1042.372 212.836, 1043.504 218.875 C 1045.069 227.215, 1051.310 231.443, 1065.117 233.518 C 1078.369 235.509, 1078.989 236.688, 1068.491 239.930 C 1057.083 243.454, 1050.560 248.096, 1046.746 255.405 C 1043.882 260.893, 1043.801 269.262, 1046.565 273.994 C 1051.092 281.746, 1062.682 286.186, 1072.636 283.983 C 1075.311 283.390, 1083.184 280.248, 1090.131 276.998 C 1104.263 270.389, 1122.214 264.128, 1135 261.348 C 1141.875 259.853, 1147.801 259.503, 1166 259.518 C 1185.681 259.533, 1189.878 259.827, 1199.500 261.860 C 1226.366 267.537, 1258.899 281.273, 1284.500 297.750 C 1293.603 303.608, 1313.752 319.336, 1326.932 330.871 C 1332.670 335.892, 1337.932 340, 1338.626 340 C 1339.320 340, 1341.134 338.929, 1342.656 337.619 L 1345.424 335.239 1342.857 331.360 C 1332.617 315.887, 1301.888 284.410, 1279.500 266.461 C 1238.435 233.538, 1206.587 215.780, 1163.146 201.583 C 1129.163 190.476, 1097.307 186.499, 1074.862 190.562 M 1294.490 195.310 C 1289.879 199.921, 1289.183 205.333, 1291.847 215.867 C 1292.971 220.310, 1295.408 227.445, 1297.263 231.722 C 1302.334 243.414, 1317.047 266.286, 1318.538 264.796 C 1318.777 264.556, 1318.279 260.792, 1317.431 256.430 C 1316.583 252.069, 1315.493 239.950, 1315.008 229.500 C 1313.971 207.113, 1312.610 201.375, 1307.013 195.778 C 1302.178 190.943, 1298.976 190.824, 1294.490 195.310 M 1073.500 201.888 C 1064.467 204.133, 1059.583 206.519, 1056.488 210.196 C 1051.200 216.481, 1054.515 220.818, 1065.627 222.155 C 1078.978 223.763, 1085.255 227.515, 1086.602 234.691 C 1088.033 242.319, 1084.571 245.837, 1070.981 250.568 C 1066.503 252.127, 1061.329 254.751, 1059.400 256.443 C 1052.562 262.437, 1054.118 270.234, 1062.718 273.072 C 1067.313 274.589, 1072.578 273.211, 1086.462 266.860 C 1100.342 260.510, 1119.963 253.772, 1133.219 250.803 C 1142.248 248.780, 1146.178 248.500, 1165.500 248.500 C 1184.561 248.500, 1189.036 248.811, 1199 250.825 C 1220.355 255.143, 1251.268 266.509, 1270.781 277.219 C 1274.806 279.428, 1278.321 281.012, 1278.593 280.740 C 1279.230 280.103, 1268.748 271.027, 1258.500 263.341 C 1215.215 230.879, 1169.536 210.627, 1120.120 201.989 C 1105.371 199.411, 1083.652 199.364, 1073.500 201.888 M 270 234.008 C 256.316 241.532, 234.614 247.425, 216.138 248.636 C 210.523 249.004, 205.686 249.699, 205.389 250.179 C 204.613 251.435, 206.168 345, 206.964 345 C 207.610 345, 239.274 311.633, 253.939 295.500 C 267.205 280.905, 266.751 282.025, 273.007 248.500 C 274.649 239.700, 275.994 232.387, 275.996 232.250 C 276.008 231.467, 273.039 232.338, 270 234.008 M 994.500 233.159 C 984.060 234.331, 969.305 238.274, 961.620 241.946 C 946.823 249.017, 938.773 262.017, 941.932 273.747 C 945.352 286.449, 958.103 290.928, 972.107 284.345 C 977.298 281.905, 981.799 278.294, 993.107 267.501 C 1002.020 258.994, 1010.927 251.552, 1016.500 247.957 C 1030.073 239.202, 1030.987 237.987, 1027 234 C 1025.219 232.219, 1023.768 232.014, 1013.750 232.131 C 1007.563 232.203, 998.900 232.666, 994.500 233.159 M 383.718 244.750 C 377.953 249.554, 368.592 260.660, 335.404 302.067 C 306.103 338.625, 301.237 346.235, 295.163 365 C 278.983 414.985, 280.706 460.291, 300.276 499.500 C 315.277 529.554, 337.104 549.421, 365.500 558.865 C 375.189 562.088, 389.740 564.698, 392.377 563.686 C 393.842 563.123, 393.999 558.561, 393.993 516.781 C 393.987 474.429, 393.839 470.281, 392.243 467.924 C 391.285 466.507, 382.175 456.229, 372 445.082 C 361.825 433.936, 352.907 423.701, 352.181 422.338 C 349.603 417.492, 355.732 412.284, 360.407 415.347 C 361.677 416.179, 369.404 423.867, 377.578 432.430 C 385.751 440.994, 392.790 448, 393.219 448 C 393.649 448, 394 428.925, 394 405.611 C 394 365.905, 394.117 363.077, 395.844 360.944 C 398.266 357.953, 403.647 357.845, 405.992 360.742 C 407.471 362.568, 407.752 367.337, 408.336 400.572 C 408.701 421.337, 409 450.179, 409 464.664 C 409 479.149, 409.299 491, 409.664 491 C 410.029 491, 417.944 483.125, 427.253 473.500 C 441.121 459.161, 444.676 456, 446.934 456 C 450.123 456, 453 458.727, 453 461.750 C 453 463.068, 445.875 471.674, 433.750 485 C 423.162 496.637, 413.262 507.990, 411.750 510.229 L 409 514.301 409 536.085 C 409 548.067, 409.439 559.024, 409.975 560.435 C 411.214 563.694, 412.979 563.701, 425.598 560.500 C 469.367 549.397, 504.805 508.453, 514.196 458.137 C 515.895 449.032, 516.369 442.692, 516.377 429 C 516.396 393.278, 509.261 365.237, 490.925 328.969 C 478.112 303.627, 465.103 285.168, 449.361 269.995 L 439.500 260.490 428.862 257.177 C 423.011 255.354, 411.761 250.970, 403.862 247.435 C 395.963 243.899, 389.211 241.005, 388.859 241.003 C 388.506 241.001, 386.193 242.688, 383.718 244.750 M 991.500 244.447 C 966.539 247.872, 952 257, 952 269.246 C 952 273.255, 954.238 275.698, 958.737 276.597 C 964.281 277.706, 971.486 273.381, 984.082 261.384 C 990.367 255.398, 997.194 249.051, 999.255 247.281 C 1001.315 245.510, 1003 243.822, 1003 243.531 C 1003 242.884, 1002.737 242.905, 991.500 244.447 M 1181.500 278.409 C 1174.359 280.179, 1168.908 283.253, 1164.748 287.857 C 1157.452 295.933, 1157.274 306.686, 1164.305 314.694 C 1171.873 323.314, 1182.417 324.455, 1200.723 318.636 C 1217.413 313.330, 1222.999 312.612, 1240.947 313.466 C 1266.186 314.666, 1266.160 314.667, 1267.280 312.905 C 1269.340 309.666, 1267.167 306.169, 1259.937 301.092 C 1244.713 290.400, 1223.759 281.703, 1205.619 278.546 C 1195.210 276.734, 1188.415 276.696, 1181.500 278.409 M 1181.536 289.467 C 1172.226 291.966, 1167.138 300.912, 1171.772 306.633 C 1176.234 312.141, 1183.719 312.380, 1200.795 307.558 C 1211.539 304.524, 1223.669 302.551, 1236.500 301.750 L 1240.500 301.500 1236.500 299.373 C 1225.786 293.675, 1203.386 287.940, 1192.343 288.067 C 1189.129 288.105, 1184.266 288.735, 1181.536 289.467 M 1633.972 332.877 C 1613.306 339.491, 1595.300 358.063, 1579.603 388.955 C 1559.206 429.097, 1543.993 493.009, 1544.007 538.500 C 1544.019 575.564, 1553.392 603.386, 1572.868 624.168 C 1588.837 641.208, 1612.798 652.530, 1634.500 653.290 L 1640.500 653.500 1640.774 637.945 L 1641.049 622.391 1614.982 596.445 C 1600.570 582.101, 1588.644 569.425, 1588.310 568.095 C 1587.474 564.768, 1589.139 562.556, 1592.754 562.194 C 1596.286 561.840, 1599.938 564.938, 1624.215 588.888 C 1632.308 596.872, 1639.283 603.051, 1639.715 602.620 C 1640.610 601.725, 1641.375 525.686, 1640.522 522.255 C 1640.216 521.021, 1631.576 510.671, 1621.323 499.255 C 1593.477 468.251, 1592.409 466.655, 1596.829 462.655 C 1600.855 459.011, 1602.391 460.268, 1627.500 487.758 C 1634.100 494.984, 1639.797 500.582, 1640.161 500.198 C 1640.524 499.814, 1641.148 476.841, 1641.547 449.147 C 1642.266 399.274, 1642.294 398.770, 1644.465 396.246 C 1646.189 394.242, 1647.222 393.839, 1649.300 394.360 C 1654.027 395.547, 1654.339 397.467, 1654.813 428.291 C 1655.130 448.951, 1655.572 456.979, 1656.378 456.718 C 1656.995 456.518, 1662.770 449.900, 1669.211 442.010 C 1675.653 434.121, 1681.503 427.298, 1682.211 426.848 C 1685.757 424.599, 1691 427.431, 1691 431.596 C 1691 433.510, 1683.359 443.690, 1665.273 465.872 L 1656 477.245 1656 520.122 C 1656 543.705, 1656.338 562.993, 1656.750 562.985 C 1657.162 562.977, 1665.150 554.837, 1674.500 544.895 C 1692.600 525.650, 1708.131 511, 1710.435 511 C 1714.959 511, 1717.745 514.682, 1715.919 518.250 C 1715.285 519.487, 1707.057 528.381, 1697.634 538.013 C 1688.210 547.645, 1674.982 561.453, 1668.237 568.699 L 1655.975 581.873 1656.237 617.686 L 1656.500 653.500 1659.848 653.821 C 1663.907 654.209, 1677.121 651.682, 1686 648.818 C 1722.554 637.030, 1746.441 605.070, 1752.060 560.432 C 1753.609 548.127, 1752.740 513.235, 1750.530 499 C 1746.630 473.878, 1737.378 437.881, 1729.367 416.666 C 1711.362 368.980, 1688.441 340.347, 1662.068 332.596 C 1654.784 330.455, 1641.111 330.592, 1633.972 332.877 M 1373.799 338.827 C 1372.490 340.382, 1369.894 345.600, 1368.030 350.422 C 1365.865 356.022, 1363.790 359.746, 1362.287 360.731 C 1360.947 361.609, 1355.782 362.681, 1350.291 363.220 C 1339.350 364.294, 1334.164 365.749, 1332.656 368.166 C 1331.116 370.634, 1332.656 371.982, 1345.202 379.144 C 1352.497 383.309, 1359.041 388.040, 1364.183 392.868 C 1385.607 412.984, 1400.966 448.364, 1402.658 481.500 C 1402.995 488.100, 1403.663 494, 1404.143 494.612 C 1404.623 495.223, 1407.340 495.999, 1410.181 496.335 C 1419.873 497.483, 1419.259 501.545, 1409.017 504.022 L 1402.724 505.545 1400.385 517.022 C 1399.099 523.335, 1398.036 528.867, 1398.023 529.315 C 1398.010 529.763, 1401.731 531.853, 1406.290 533.959 C 1410.850 536.066, 1415.220 538.560, 1416.002 539.503 C 1417.251 541.008, 1417.185 541.395, 1415.462 542.683 C 1412.983 544.536, 1405.929 543.757, 1399.254 540.893 C 1394.671 538.927, 1394.453 538.919, 1393.184 540.677 C 1390.716 544.096, 1383 558.338, 1383 559.475 C 1383 561.731, 1389.216 570.333, 1396.108 577.614 C 1403.233 585.142, 1404.078 587.244, 1400.209 587.815 C 1395.031 588.578, 1384.477 580.587, 1379.500 572.135 C 1376.294 566.690, 1375.047 566.034, 1372.874 568.652 C 1372.119 569.561, 1369.195 572.009, 1366.374 574.093 C 1361.341 577.811, 1361.233 578.001, 1360.556 584.317 C 1359.651 592.770, 1361.279 601.487, 1365.696 611.837 C 1368.927 619.407, 1369.110 620.319, 1367.687 621.741 C 1366.264 623.164, 1365.885 623.155, 1363.571 621.639 C 1358.010 617.995, 1351.848 603.435, 1350.487 590.719 C 1350.089 587.008, 1349.439 583.771, 1349.042 583.526 C 1348.645 583.281, 1344.986 583.624, 1340.910 584.290 L 1333.500 585.500 1330.311 591.782 C 1326.546 599.198, 1324.275 608.908, 1323.246 621.988 C 1322.623 629.917, 1322.209 631.532, 1320.731 631.815 C 1319.490 632.053, 1318.507 631.065, 1317.437 628.502 C 1313.791 619.776, 1314.778 602.507, 1319.604 590.578 C 1320.922 587.320, 1321.989 584.170, 1321.976 583.578 C 1321.963 582.985, 1319.645 581.485, 1316.823 580.245 L 1311.694 577.989 1307.438 580.483 C 1299.981 584.854, 1290.373 596.397, 1285.368 607 C 1282.902 612.225, 1280.330 617.625, 1279.654 619 C 1278.965 620.399, 1277.559 621.500, 1276.462 621.500 C 1271.945 621.500, 1274.687 607.182, 1281.809 593.572 C 1285.630 586.271, 1294.276 576.131, 1299.122 573.269 C 1300.705 572.334, 1302 571.186, 1302 570.718 C 1302 570.250, 1299.877 567.407, 1297.282 564.402 C 1291.975 558.255, 1292.342 558.302, 1280 562.185 C 1270.212 565.264, 1260.075 571.999, 1252.141 580.695 C 1247.256 586.048, 1244.734 588.112, 1243.604 587.678 C 1239.154 585.971, 1243.953 576.165, 1253.864 566.711 C 1261.847 559.096, 1268.031 555.377, 1277.767 552.336 C 1282.314 550.916, 1286.270 549.372, 1286.559 548.905 C 1287.312 547.686, 1267.261 506.911, 1261.527 498 C 1242.943 469.121, 1221.786 449.884, 1192.500 435.235 C 1166.702 422.331, 1144.112 417.495, 1110.695 417.723 L 1091.890 417.852 1090.774 415.402 C 1089.818 413.306, 1090.186 411.922, 1093.325 405.806 C 1095.341 401.875, 1096.806 398.473, 1096.579 398.245 C 1095.825 397.491, 1085.592 404.627, 1079.205 410.361 C 1070.019 418.609, 1068.424 419.514, 1065.459 418.163 C 1063.343 417.199, 1063.002 416.377, 1063.016 412.271 C 1063.024 409.647, 1063.665 404.804, 1064.441 401.508 C 1065.216 398.213, 1065.661 395.328, 1065.431 395.098 C 1064.501 394.168, 1060.439 399.021, 1054.212 408.500 C 1046.388 420.409, 1044.203 423, 1041.981 423 C 1039.428 423, 1036.963 419.667, 1035.618 414.396 C 1034.950 411.777, 1033.958 409.486, 1033.412 409.304 C 1032.867 409.122, 1031.187 412.762, 1029.680 417.391 C 1028.172 422.021, 1026.082 426.897, 1025.035 428.228 C 1023.943 429.617, 1018.103 432.852, 1011.316 435.827 C 990.174 445.097, 970.459 458.848, 953 476.504 L 943.500 486.111 946.091 488.306 C 947.516 489.513, 952.566 493.523, 957.314 497.218 C 966.099 504.056, 968.394 507.553, 966.296 510.905 C 964.910 513.120, 958.945 513.422, 954.366 511.509 C 952.260 510.628, 942.760 504.720, 933.255 498.379 C 897.375 474.441, 874.442 465.728, 847 465.607 C 834.032 465.550, 824.896 467.646, 812.148 473.601 C 799.645 479.442, 792.244 484.901, 781.284 496.364 C 757.854 520.873, 741.337 557.818, 736.071 597.500 C 733.582 616.257, 732.938 629.741, 733.989 641.126 C 736.910 672.771, 744.040 696.347, 756.065 714.119 C 769.441 733.887, 785.296 742.325, 821.535 748.961 C 846.260 753.489, 853.451 755.638, 867.500 762.696 C 877.415 767.677, 884.564 772.698, 900 785.522 C 916.901 799.563, 921.434 802.436, 931.793 805.672 C 942.745 809.093, 950.736 808.660, 960.228 804.130 C 971.491 798.754, 978.952 788.115, 982.728 772.043 C 985.217 761.446, 985.164 734.150, 982.620 716.338 C 980.536 701.754, 980.863 698.475, 984.570 696.786 C 988.676 694.915, 990.636 697.934, 993.495 710.531 C 998.023 730.485, 999.272 742.058, 998.727 758.987 C 997.944 783.323, 993.198 796.063, 980.096 809 C 967.475 821.461, 956.125 825.430, 939.210 823.295 C 923.096 821.261, 909.830 814.733, 893.022 800.566 C 871.442 782.378, 857.898 774.122, 843 770.075 C 838.875 768.954, 828.300 766.688, 819.500 765.039 C 799.945 761.374, 791.953 759.188, 781.064 754.527 C 759.658 745.365, 745.686 731.600, 734.070 708.230 C 722.387 684.725, 715.024 642.500, 717.820 615.038 C 718.451 608.834, 718.755 603.412, 718.493 602.989 C 717.909 602.044, 705.328 602.659, 685.625 604.597 C 619.331 611.116, 561.568 640.977, 520.298 690.064 C 505.651 707.485, 490.559 733.060, 481.684 755.500 C 469.367 786.642, 463.711 828.673, 467.016 864.500 C 470.201 899.021, 476.683 924.195, 494.680 971.936 C 505.865 1001.607, 507.972 1009.520, 508.696 1024.583 C 509.575 1042.873, 506.896 1057.019, 496.448 1089.273 C 487.098 1118.135, 480 1147.235, 480 1156.701 C 480 1165.439, 483.441 1170.006, 494.877 1176.444 C 501.884 1180.390, 502.788 1180.244, 505.651 1174.708 C 508.005 1170.156, 515.152 1162.851, 518.718 1161.352 C 526.967 1157.885, 534.830 1160.638, 540.410 1168.946 L 543.361 1173.341 544.903 1170.921 C 552.482 1159.018, 564.202 1157.053, 573.075 1166.197 C 575.259 1168.447, 577.164 1170.111, 577.310 1169.894 C 577.455 1169.677, 578.850 1167.595, 580.411 1165.268 C 582.304 1162.443, 584.920 1160.240, 588.277 1158.645 L 593.307 1156.254 593.569 1142.877 C 594.040 1118.860, 601.004 1099.813, 616.925 1079 C 621.342 1073.225, 629.141 1063.027, 634.255 1056.338 C 648.721 1037.416, 657.904 1017.792, 662.238 996.538 C 663.917 988.305, 664.274 982.904, 664.220 966.500 C 664.149 944.947, 664.586 943, 669.500 943 C 675.804 943, 678.493 955.814, 677.684 982 C 677.104 1000.793, 676.274 1005.483, 670.382 1023.284 C 668.418 1029.215, 667.026 1034.627, 667.289 1035.309 C 667.783 1036.597, 683.658 1039.284, 701 1041.017 C 713.651 1042.280, 752.195 1042.256, 765.144 1040.977 C 791.962 1038.327, 840.213 1027.215, 841.697 1023.348 C 841.965 1022.648, 840.811 1015.420, 839.131 1007.287 C 834.592 985.309, 833.008 974.439, 833.004 965.218 C 832.999 954.952, 834.763 950, 838.426 950 C 842.176 950, 843.695 953.227, 845.486 965 C 847.773 980.035, 852.285 1000.048, 857.989 1020.462 C 873.590 1076.289, 877.852 1115.771, 874.087 1169.561 C 872.328 1194.693, 872.714 1195.485, 888.941 1200.126 C 897.016 1202.435, 897.911 1202.447, 898.656 1200.250 C 900.708 1194.191, 904.558 1187.031, 907.304 1184.165 C 911.727 1179.549, 915.099 1177.999, 920.700 1178.007 C 926.201 1178.014, 929.900 1180.038, 934.647 1185.638 L 937.794 1189.350 940.023 1184.168 C 945.376 1171.724, 957.550 1167.952, 967.683 1175.598 C 969.434 1176.919, 971.081 1178, 971.344 1178 C 971.607 1178, 972.831 1175.914, 974.065 1173.365 C 975.300 1170.815, 977.587 1168.003, 979.148 1167.115 C 980.710 1166.227, 981.990 1165.112, 981.994 1164.638 C 981.997 1164.164, 980.435 1159.597, 978.521 1154.489 C 973.099 1140.013, 972.742 1133.996, 973.279 1066.358 C 973.774 1004.137, 974.147 997.422, 979.018 963 C 982.944 935.258, 984.738 929.536, 989.304 930.189 C 993.768 930.827, 994.433 934.801, 993.095 952.834 C 992.425 961.860, 991.617 971.439, 991.299 974.122 C 990.965 976.943, 991.122 979, 991.672 979 C 993.347 979, 1012.216 962.548, 1021.060 953.377 C 1042.923 930.703, 1059.978 902.274, 1075.877 862 C 1083.417 842.902, 1090.300 829.595, 1097.070 821.030 C 1099.214 818.318, 1100.622 815.885, 1100.199 815.623 C 1099.776 815.362, 1094.721 814.632, 1088.965 814.002 C 1069.260 811.844, 1050.478 806.536, 1036.518 799.179 C 1028.026 794.705, 1025.700 791.434, 1028.033 787.250 C 1028.877 785.737, 1030.476 784.368, 1031.586 784.206 C 1032.697 784.045, 1038.838 785.958, 1045.232 788.459 C 1051.627 790.959, 1061.728 794.236, 1067.679 795.741 C 1077.846 798.312, 1079.799 798.475, 1100 798.436 C 1124.467 798.389, 1128.717 797.715, 1159.122 789.052 C 1168.756 786.307, 1179.466 783.402, 1182.921 782.595 C 1186.376 781.789, 1189.439 780.894, 1189.727 780.606 C 1190.015 780.318, 1188.821 778.879, 1187.073 777.408 C 1184.992 775.657, 1184 774.004, 1184.198 772.617 C 1184.460 770.778, 1185.158 770.504, 1189.514 770.530 C 1193.676 770.555, 1197.298 771.885, 1210.826 778.355 C 1219.789 782.642, 1229.641 787.016, 1232.718 788.075 C 1247.218 793.064, 1259.454 787.825, 1262.984 775.118 C 1264.504 769.645, 1264.196 760.718, 1262.060 748.308 C 1261 742.152, 1259.816 733.905, 1259.429 729.981 C 1258.798 723.573, 1258.469 722.749, 1256.200 721.886 C 1254.811 721.358, 1253.292 721.308, 1252.826 721.774 C 1252.015 722.585, 1252.576 729.571, 1255.063 749.624 C 1258.815 779.889, 1242.516 784.768, 1218.496 760.571 C 1207.313 749.304, 1197.858 735.248, 1186.873 713.555 C 1181.418 702.783, 1177.952 697.017, 1176.928 697.011 C 1176.064 697.005, 1173.589 698.337, 1171.428 699.972 C 1165.315 704.598, 1159.973 703.697, 1160.022 698.050 C 1160.052 694.643, 1161.871 692.567, 1172.555 683.751 C 1177.536 679.642, 1183.087 674.416, 1184.891 672.137 C 1188.451 667.643, 1192.156 666.054, 1194.513 668.011 C 1196.767 669.881, 1196.300 675.279, 1193.532 679.358 L 1191.063 682.995 1193.282 684.448 C 1204.213 691.606, 1233.062 701.444, 1252 704.473 C 1264.474 706.468, 1290.171 706.456, 1303.683 704.450 C 1349.565 697.637, 1394.980 668.176, 1421.049 628.315 C 1453.570 578.587, 1460.043 514.896, 1438.516 456.445 C 1432.666 440.561, 1418.956 413.655, 1409.072 398.659 C 1392.409 373.379, 1389.265 366.703, 1385.454 348.500 C 1384.533 344.100, 1383.143 339.488, 1382.366 338.250 C 1380.406 335.127, 1376.703 335.376, 1373.799 338.827 M 266.405 387.782 C 262.559 392.577, 250.254 407.750, 239.061 421.500 C 227.868 435.250, 215.963 450.100, 212.605 454.500 L 206.500 462.500 206.879 549.223 C 207.088 596.921, 207.538 638.546, 207.879 641.723 L 208.500 647.500 224.500 647.169 C 250.603 646.630, 270.557 651.034, 292.065 662.082 C 316.702 674.737, 337.391 695.433, 349.696 719.733 C 352.277 724.830, 354.904 729, 355.534 729 C 356.164 729, 360.240 728.067, 364.590 726.927 C 369.455 725.652, 376.734 724.709, 383.500 724.477 L 394.500 724.100 394.750 717.800 C 394.888 714.335, 394.663 681.810, 394.250 645.523 L 393.500 579.546 383.307 578.349 C 369.114 576.683, 359.312 573.810, 346.448 567.547 C 308.665 549.149, 281.298 511.951, 272.107 466.500 C 266.853 440.514, 267.006 417.027, 272.619 388.201 C 273.508 383.636, 274.046 379.713, 273.816 379.483 C 273.586 379.253, 270.251 382.987, 266.405 387.782 M 826.808 498.547 C 813.184 501.851, 798.067 511.146, 785.795 523.765 C 762.718 547.495, 748.278 585.101, 746.345 626.500 C 745.391 646.915, 748.477 668.003, 752.236 666.757 C 753.152 666.453, 753.809 660.574, 754.621 645.419 C 755.946 620.716, 756.367 617.092, 759.658 602.117 C 771.277 549.249, 800.144 514.258, 835.859 509.750 C 856.152 507.188, 876.274 515.120, 900.473 535.219 C 915.634 547.812, 927.919 562.386, 942.538 585.120 C 952.919 601.265, 956.128 603.787, 959.580 598.518 C 961.124 596.162, 961.058 595.721, 958.271 589.768 C 951.556 575.427, 936.580 554.098, 923.356 540.040 C 904.334 519.820, 880.120 503.993, 860.590 499.016 C 851.242 496.633, 835.594 496.416, 826.808 498.547 M 1123.079 527.643 C 1111.134 531.825, 1099 544.810, 1099 553.411 C 1099 555.662, 1102.145 559, 1104.266 559 C 1104.718 559, 1109.101 555.197, 1114.005 550.549 C 1120.808 544.102, 1123.940 541.841, 1127.211 541.014 C 1137.216 538.485, 1138.477 537.704, 1138.804 533.829 C 1139.049 530.913, 1138.597 529.828, 1136.419 528.115 C 1133.268 525.636, 1129.221 525.493, 1123.079 527.643 M 0.349 550 C 0.349 554.675, 0.522 556.587, 0.732 554.250 C 0.943 551.913, 0.943 548.087, 0.732 545.750 C 0.522 543.413, 0.349 545.325, 0.349 550 M 1134.718 574.070 C 1128.855 575.484, 1125.578 577.537, 1121.148 582.569 C 1112.309 592.610, 1110.223 606.658, 1115.461 620.865 L 1118.176 628.230 1114.533 631.233 C 1111.801 633.485, 1110.966 634.869, 1111.195 636.767 C 1111.733 641.232, 1113.940 641.537, 1121.555 638.200 C 1133.802 632.833, 1146.615 632.026, 1162.208 635.640 C 1165.897 636.495, 1169.497 637, 1170.208 636.762 C 1171.046 636.481, 1171.552 634.249, 1171.647 630.414 C 1171.728 627.161, 1172.117 620.661, 1172.511 615.969 C 1174.041 597.760, 1166.223 583.020, 1151.546 576.440 C 1145.351 573.663, 1139.703 572.868, 1134.718 574.070 M 1134.500 585.164 C 1130.934 587.132, 1126.866 591.408, 1124.669 595.500 C 1121.765 600.908, 1121.710 613.610, 1124.564 619.500 C 1126.176 622.826, 1127.067 623.554, 1129.847 623.820 C 1135.690 624.380, 1136.099 623.762, 1133.822 617.810 C 1129.900 607.558, 1132.805 595.747, 1140.966 588.762 C 1143.184 586.862, 1145 585.014, 1145 584.654 C 1145 583.572, 1136.650 583.978, 1134.500 585.164 M 0.355 669.500 C 0.352 674.450, 0.521 676.601, 0.731 674.280 C 0.940 671.959, 0.943 667.909, 0.736 665.280 C 0.530 662.651, 0.358 664.550, 0.355 669.500 M 217.750 662.917 C 213.488 663.292, 209.492 664.108, 208.871 664.729 C 208.056 665.544, 207.863 676.159, 208.178 702.829 L 208.616 739.799 213.867 745.544 C 222.527 755.020, 227.322 766.437, 228.610 780.646 C 228.985 784.787, 229.789 788.306, 230.396 788.466 C 231.003 788.626, 235.325 789.251, 240 789.856 C 246.671 790.719, 250.460 791.923, 257.608 795.451 C 275.399 804.232, 287.289 819.730, 291.101 839.109 C 292.221 844.802, 291.842 860.302, 290.401 867.757 L 289.771 871.015 355.135 870.757 L 420.500 870.500 421.267 867 C 421.689 865.075, 423.360 856.750, 424.980 848.500 C 428.885 828.620, 436.680 804.651, 444.713 787.825 L 451.242 774.149 449.128 771.180 C 444.371 764.499, 431.938 754.171, 423.255 749.686 C 402.596 739.016, 380.548 737.424, 359.732 745.099 C 347.016 749.787, 345.292 749.224, 341.058 739 C 326.643 704.187, 302.684 680.990, 269 669.234 C 254.002 664, 233.768 661.506, 217.750 662.917 M 1825 675.673 C 1801.650 679.838, 1778.184 691.849, 1761.898 707.973 C 1753.144 716.640, 1747.838 723.645, 1737.928 739.616 C 1730.892 750.955, 1728.937 753, 1725.130 753 C 1724.026 753, 1718.508 748.899, 1712.815 743.846 C 1693.623 726.813, 1679.654 719.081, 1658 713.506 C 1629.821 706.251, 1601.332 708.985, 1575.360 721.435 C 1561.575 728.044, 1553.891 733.209, 1544.319 742.302 C 1534.167 751.945, 1527.851 760.582, 1521.871 773 C 1512.564 792.325, 1514.796 789.983, 1501.381 794.504 C 1494.846 796.706, 1487.038 799.856, 1484.030 801.504 C 1477.711 804.964, 1466.549 815.122, 1461.488 822.016 C 1456.243 829.162, 1450.249 841.800, 1448.472 849.463 C 1446.537 857.807, 1446.381 875.007, 1448.191 880.500 L 1449.509 884.500 1510.840 884.758 C 1550.626 884.925, 1572.054 884.671, 1571.836 884.034 C 1571.253 882.332, 1549.706 866.798, 1545 864.687 C 1542.525 863.576, 1533.975 860.272, 1526 857.345 C 1509.108 851.143, 1506.776 849.224, 1511 845 C 1513.869 842.131, 1516.307 842.449, 1530.994 847.610 C 1538.209 850.146, 1544.321 852.012, 1544.576 851.757 C 1544.831 851.503, 1543.193 843.782, 1540.936 834.600 C 1537.069 818.870, 1536.925 817.764, 1538.439 815.453 C 1540.497 812.312, 1544.450 812.211, 1546.390 815.250 C 1547.179 816.487, 1549.910 825.551, 1552.458 835.392 C 1555.007 845.232, 1557.694 854.724, 1558.430 856.486 C 1559.247 858.442, 1564.306 863.543, 1571.429 869.594 C 1589.413 884.871, 1589.611 885, 1595.090 885 C 1597.725 885, 1600.142 884.580, 1600.459 884.066 C 1601.338 882.645, 1596.536 861.625, 1592.416 848.856 C 1587.176 832.615, 1580.144 818.870, 1566.268 797.748 C 1559.778 787.869, 1558.901 784.706, 1562.095 782.705 C 1565.624 780.494, 1568.727 782.783, 1575.046 792.254 C 1578.439 797.339, 1581.518 801.617, 1581.887 801.760 C 1582.256 801.903, 1584.046 792.903, 1585.865 781.760 C 1587.683 770.617, 1589.818 760.487, 1590.608 759.250 C 1592.168 756.809, 1595.868 756.268, 1597.800 758.200 C 1599.588 759.988, 1599.275 766.096, 1596.496 783.667 C 1595.118 792.375, 1593.718 803.325, 1593.383 808 C 1592.779 816.425, 1592.820 816.624, 1597.982 830.500 C 1600.847 838.200, 1605.060 851.811, 1607.345 860.747 C 1609.630 869.683, 1611.734 876.995, 1612.020 876.997 C 1612.306 876.999, 1617.354 866.987, 1623.239 854.750 C 1633.881 832.619, 1633.946 832.439, 1635.405 821 C 1636.212 814.675, 1637.189 804.182, 1637.576 797.681 C 1638.227 786.753, 1638.458 785.746, 1640.640 784.316 C 1642.788 782.909, 1643.238 782.926, 1645.644 784.502 L 1648.288 786.235 1647.747 802.617 C 1647.449 811.628, 1647.588 819, 1648.055 819 C 1648.522 819, 1651.738 817.047, 1655.202 814.660 C 1665.615 807.485, 1678.651 800, 1680.734 800 C 1681.810 800, 1683.488 800.882, 1684.464 801.960 C 1687.013 804.777, 1685.729 808.511, 1681.231 811.357 C 1647.957 832.412, 1645.494 834.655, 1637.716 850.990 C 1628.125 871.130, 1622.985 883.168, 1623.572 884.116 C 1624.169 885.082, 1691.297 885.369, 1692.257 884.410 C 1692.582 884.085, 1692.207 882.003, 1691.424 879.784 C 1689.490 874.302, 1689.550 856.146, 1691.528 848.552 C 1694.045 838.889, 1699.751 829.276, 1707.569 821.523 C 1720.627 808.574, 1732.861 803.106, 1750.972 802.123 L 1762.444 801.500 1762.707 795.162 C 1763.231 782.555, 1767.222 773.593, 1776.399 764.416 C 1786.381 754.434, 1796.225 750.674, 1811 751.198 L 1819.500 751.500 1821.330 745.500 C 1824.887 733.837, 1828.032 726.430, 1832.015 720.336 L 1836.044 714.173 1835.772 694.836 L 1835.500 675.500 1831.500 675.364 C 1829.300 675.288, 1826.375 675.428, 1825 675.673 M 1203.713 718.621 C 1202.254 720.080, 1217.530 743.163, 1225.310 751.255 C 1231.293 757.477, 1241.375 764.504, 1242.936 763.540 C 1245.537 761.932, 1243.069 749.572, 1238.452 741.089 C 1233.426 731.854, 1220.474 721.895, 1210.500 719.596 C 1208.850 719.216, 1206.792 718.696, 1205.928 718.442 C 1205.063 718.187, 1204.066 718.267, 1203.713 718.621 M 1470 753.068 C 1456.657 756.552, 1443.556 763.703, 1433.728 772.866 C 1423.691 782.223, 1413.758 798.408, 1410.630 810.500 C 1408.772 817.685, 1405.153 821.510, 1401.093 820.578 C 1394.819 819.139, 1370.854 818.749, 1363.323 819.964 C 1337.660 824.104, 1313.613 839.497, 1298.837 861.243 C 1293.684 868.828, 1286.786 883.186, 1287.806 884.206 C 1288.250 884.650, 1320.988 884.898, 1360.557 884.757 L 1432.500 884.500 1432 880.500 C 1430.789 870.814, 1431.752 852.497, 1433.891 844.500 C 1441.114 817.505, 1461.036 793.964, 1485.333 783.712 C 1489.275 782.049, 1494.525 780.173, 1497 779.542 C 1501.447 778.410, 1501.561 778.273, 1506.676 767.948 C 1509.523 762.202, 1511.886 756.749, 1511.926 755.830 C 1512.127 751.277, 1483.965 749.422, 1470 753.068 M 448.744 820.250 C 448.475 821.487, 446.874 827.225, 445.187 833 C 440.916 847.611, 438.430 861.428, 434.940 889.942 C 430.003 930.272, 427.117 945.863, 421.474 962.673 C 420.071 966.852, 419.075 970.725, 419.261 971.282 C 419.631 972.394, 426.041 961.923, 430.757 952.500 C 435.569 942.886, 440.983 924.626, 448.102 894 C 450.132 885.268, 450.318 881.812, 450.405 851.251 C 450.492 820.929, 450.117 813.933, 448.744 820.250 M 0.343 879.500 C 0.346 883.900, 0.522 885.576, 0.733 883.224 C 0.945 880.872, 0.942 877.272, 0.727 875.224 C 0.512 873.176, 0.339 875.100, 0.343 879.500 M 1996.906 914.427 C 1996.416 914.918, 1944.746 924.909, 1893.286 934.463 C 1862.047 940.263, 1807.426 949.454, 1747.500 958.993 C 1724.319 962.683, 1677.970 969.586, 1643.500 974.482 C 1464.423 999.917, 1381.488 1017.652, 1308.185 1046.187 C 1302.511 1048.396, 1297.612 1049.946, 1297.298 1049.632 C 1296.984 1049.318, 1297.689 1046.826, 1298.864 1044.095 C 1301.539 1037.875, 1301.643 1030.567, 1299.114 1026.420 C 1293.707 1017.552, 1279.591 1018.100, 1261.236 1027.890 C 1257.241 1030.021, 1253.767 1031.431, 1253.515 1031.025 C 1253.264 1030.618, 1253.488 1028.784, 1254.015 1026.949 C 1256.010 1019.993, 1257.064 1003.506, 1256 995.905 C 1254.430 984.685, 1252.419 979.612, 1247.938 975.563 C 1242.728 970.856, 1237.489 970.670, 1230.737 974.952 C 1221.160 981.025, 1211.579 999.286, 1206.446 1021.250 C 1205.449 1025.513, 1204.305 1029, 1203.902 1029 C 1203.500 1029, 1201.528 1026.763, 1199.521 1024.028 C 1197.514 1021.294, 1193.763 1017.198, 1191.186 1014.926 C 1178.875 1004.072, 1168.563 1003.777, 1162.510 1014.105 C 1159.829 1018.678, 1160.025 1029.939, 1162.951 1039.500 C 1166.209 1050.146, 1166.496 1049.499, 1158.500 1049.509 C 1150.234 1049.520, 1145.034 1052.089, 1142.913 1057.210 C 1138.382 1068.148, 1146.724 1080.799, 1167.500 1094.495 C 1184.267 1105.549, 1187.155 1106.757, 1202.253 1109.039 C 1209.539 1110.140, 1220.857 1111.506, 1227.405 1112.075 C 1242.720 1113.405, 1256.675 1116.295, 1262.816 1119.407 C 1269.210 1122.647, 1276.732 1130.372, 1278.172 1135.178 C 1281.634 1146.735, 1267.442 1160.463, 1235 1176.941 C 1170.766 1209.568, 1028.787 1251.004, 870 1283.468 C 855.425 1286.448, 840.125 1289.607, 836 1290.488 C 829.016 1291.980, 799.318 1297.596, 748.096 1307.109 C 693.652 1317.221, 624.940 1332.625, 604 1339.414 L 596.500 1341.845 628 1341.614 C 656.657 1341.404, 660.312 1341.183, 668.500 1339.171 C 680.740 1336.163, 727.094 1326.736, 745.500 1323.512 C 816.786 1311.023, 930.053 1287.399, 990 1272.517 C 1148.654 1233.131, 1247.969 1196.512, 1281.239 1165.134 C 1290.295 1156.593, 1294.421 1148.429, 1294.390 1139.111 C 1294.361 1130.494, 1291.742 1124.678, 1284.448 1117.031 C 1281.346 1113.779, 1279.072 1110.693, 1279.393 1110.173 C 1279.715 1109.652, 1281.616 1108.919, 1283.617 1108.544 C 1288.489 1107.630, 1297.625 1103.523, 1301.700 1100.415 C 1305.962 1097.164, 1308 1093.134, 1308 1087.954 C 1308 1082.303, 1305.104 1078.586, 1297.845 1074.922 C 1293.810 1072.885, 1291.973 1071.393, 1292.186 1070.325 C 1292.847 1067.001, 1338.237 1050.702, 1377.576 1039.664 C 1434.861 1023.590, 1502.511 1010.742, 1618 994.002 C 1673.824 985.910, 1738.684 976.301, 1749.500 974.519 C 1754.450 973.704, 1767.275 971.679, 1778 970.018 C 1801.763 966.339, 1800.631 966.528, 1847.500 958.438 C 1892.655 950.644, 1909.864 947.456, 1961.250 937.369 L 2000 929.762 2000 921.881 C 2000 915.980, 1999.665 914, 1998.667 914 C 1997.933 914, 1997.141 914.192, 1996.906 914.427 M 1061.251 928.209 C 1051.326 945.796, 1026.079 973.309, 1006 988.419 C 989.646 1000.727, 990 1000.299, 990 1007.702 L 990 1014.029 1000.750 1024.781 C 1014.364 1038.397, 1017.494 1043.775, 1017.467 1053.500 C 1017.453 1058.299, 1016.873 1061.600, 1015.622 1064 C 1014.619 1065.925, 1008.668 1072.522, 1002.399 1078.660 C 991.752 1089.084, 991.002 1090.074, 991.024 1093.660 C 991.037 1095.772, 992.148 1100.177, 993.493 1103.449 C 996.144 1109.899, 1003.915 1122, 1005.405 1122 C 1005.911 1122, 1008.409 1120.663, 1010.955 1119.029 C 1019.991 1113.231, 1029.156 1111.478, 1034.901 1114.449 C 1039.242 1116.694, 1043.834 1122.550, 1044.529 1126.729 C 1045.598 1133.160, 1045.635 1133.188, 1049.567 1130.519 C 1057.426 1125.186, 1064.997 1125.918, 1070.860 1132.579 C 1073.043 1135.058, 1075.032 1136.730, 1075.281 1136.293 C 1075.530 1135.857, 1076.530 1133.025, 1077.504 1130 C 1080.833 1119.656, 1084.904 1110.189, 1088.321 1104.844 C 1093.469 1096.791, 1102.407 1078.456, 1105.307 1070 C 1111.121 1053.050, 1110.772 1034.203, 1104.284 1014.636 C 1102.286 1008.610, 1095.143 992.577, 1088.246 978.636 C 1074.179 950.205, 1070.616 941.800, 1068.091 931.101 C 1067.119 926.980, 1065.854 923.451, 1065.281 923.260 C 1064.709 923.070, 1062.895 925.296, 1061.251 928.209 M 174.381 936.893 C 171.696 939.035, 166.095 944.547, 161.933 949.143 C 128.084 986.523, 103.407 1031.998, 90.682 1080.445 C 89.390 1085.364, 87.920 1089.510, 87.416 1089.657 C 86.912 1089.804, 83.270 1085.104, 79.323 1079.212 C 68.109 1062.474, 55.893 1047.798, 39.548 1031.431 C 22.148 1014.008, 14.662 1008, 10.350 1008 C 5.431 1008, 4.155 1009.813, 1.955 1019.926 C 0.002 1028.910, -0.078 1031.917, 0.256 1083.926 L 0.607 1138.500 3.301 1150.500 C 4.783 1157.100, 7.360 1167.399, 9.027 1173.387 C 10.695 1179.375, 11.828 1184.506, 11.545 1184.788 C 11.262 1185.071, 8.661 1183.097, 5.765 1180.401 L 0.500 1175.500 0.211 1184.860 C -0.121 1195.605, -1.892 1192.540, 16.284 1212.666 C 21.665 1218.625, 28.820 1227.550, 32.183 1232.500 C 40.645 1244.956, 43.661 1248, 47.541 1248 C 51.478 1248, 54 1245.332, 54 1241.167 C 54 1239.111, 50.358 1230.856, 43.667 1217.746 C 26.662 1184.427, 17.350 1152.505, 13.051 1112.789 C 10.713 1091.192, 12.881 1034.809, 16.176 1031.500 C 17.551 1030.120, 41.029 1054.455, 52.415 1069.063 C 89.011 1116.011, 110.649 1166.865, 121.042 1230.353 C 124.378 1250.733, 124.935 1252.871, 127.449 1254.958 C 129.774 1256.887, 134.602 1256.670, 136.967 1254.530 C 138.063 1253.538, 140.357 1249.075, 142.063 1244.613 C 155.675 1209.024, 175.517 1178.311, 201.927 1151.952 C 216.218 1137.689, 226.676 1129.066, 242.500 1118.499 C 255.691 1109.690, 279.177 1096.773, 280.170 1097.780 C 280.559 1098.176, 279.334 1105.990, 277.446 1115.145 C 270.752 1147.613, 262.300 1172.651, 248.973 1199.500 C 238.864 1219.865, 230.925 1232.930, 217.716 1250.939 C 208.094 1264.056, 205 1269.244, 205 1272.257 C 205 1274.725, 209.413 1279, 211.960 1279 C 213.222 1279, 218.955 1274.256, 226.868 1266.664 C 247.154 1247.201, 261.248 1237.294, 285.500 1225.450 C 302.700 1217.050, 315.807 1212.298, 335 1207.506 C 354.008 1202.759, 360.927 1201.527, 362.082 1202.682 C 363.354 1203.954, 359.637 1212.279, 351.240 1226.964 C 338.359 1249.493, 329.570 1261.480, 314.607 1276.927 C 306.843 1284.942, 298.955 1293.412, 297.078 1295.750 C 295.201 1298.088, 293.291 1300, 292.833 1300 C 292.375 1300, 291.996 1294.263, 291.990 1287.250 C 291.979 1273.003, 289.742 1250.256, 288.040 1247.075 C 286.316 1243.853, 282.441 1241.725, 279.815 1242.559 C 274.121 1244.366, 254.212 1266.521, 243.229 1283.272 C 235.028 1295.779, 224.280 1316.959, 220.277 1328.500 C 215.048 1343.575, 214.637 1342, 223.803 1342 L 231.741 1342 234.477 1334.250 C 238.084 1324.038, 248.411 1303.837, 256.031 1292.089 C 262.573 1282.003, 273.585 1268, 274.974 1268 C 276.355 1268, 277.325 1284.642, 276.642 1296.597 C 276.032 1307.282, 272.508 1336.632, 271.401 1340.250 C 270.922 1341.814, 271.703 1342, 278.749 1342 L 286.632 1342 289.566 1335.750 C 296.182 1321.656, 307.703 1306.124, 322.573 1291.250 C 330.409 1283.412, 337.310 1277, 337.910 1277 C 340.883 1277, 336.551 1300.556, 329.429 1323.114 C 326.947 1330.979, 325.047 1338.333, 325.208 1339.457 C 325.466 1341.265, 326.306 1341.527, 332.500 1341.738 L 339.500 1341.976 344 1335.894 C 355.941 1319.754, 380.308 1300.195, 400.507 1290.535 C 414.406 1283.889, 431 1278.386, 431 1280.423 C 431 1281.850, 416.578 1306.339, 410.162 1315.807 C 398.226 1333.420, 395.914 1337.349, 396.218 1339.500 C 396.471 1341.293, 397.377 1341.530, 404.961 1341.794 C 412.356 1342.051, 413.995 1341.780, 417.961 1339.648 C 420.458 1338.305, 426.100 1336.034, 430.500 1334.599 C 438.777 1331.900, 457.595 1328.632, 459.188 1329.616 C 459.686 1329.924, 458.047 1332.570, 455.547 1335.497 C 453.046 1338.424, 451 1341.085, 451 1341.409 C 451 1341.734, 455.458 1342, 460.907 1342 L 470.813 1342 476.411 1333.750 C 482.863 1324.241, 483.487 1320.743, 479.414 1316.924 C 476.899 1314.566, 476.418 1314.503, 461.664 1314.624 C 450.532 1314.716, 444.107 1315.281, 437.500 1316.751 C 432.550 1317.853, 428.336 1318.608, 428.136 1318.430 C 427.936 1318.252, 430.786 1312.858, 434.469 1306.444 C 445.134 1287.869, 452 1273.207, 452 1269.007 C 452 1260.921, 444.953 1259.671, 426.500 1264.484 C 404.835 1270.135, 381.743 1281.504, 362.828 1295.831 C 356.779 1300.413, 351.603 1303.936, 351.325 1303.659 C 351.048 1303.382, 351.518 1299.790, 352.368 1295.677 C 355.028 1282.817, 356.550 1262.507, 355.226 1257.556 C 354.074 1253.249, 354.085 1253.219, 360.665 1242.370 C 372.081 1223.549, 383 1198.726, 383 1191.595 C 383 1184.186, 377.133 1183.213, 355.180 1186.982 C 324.673 1192.219, 291.831 1203.525, 266.570 1217.485 C 261.108 1220.504, 256.418 1222.752, 256.148 1222.481 C 255.877 1222.211, 258.864 1215.354, 262.785 1207.245 C 276.147 1179.608, 285.183 1153.252, 291.839 1122.500 C 295.762 1104.377, 297.212 1093.919, 296.818 1086.602 C 296.546 1081.564, 296.110 1080.413, 293.827 1078.714 L 291.154 1076.725 283.829 1079.112 C 267.879 1084.311, 240.029 1100.044, 220.301 1115 C 204.238 1127.177, 205.190 1126.523, 204.520 1125.853 C 204.203 1125.537, 204.732 1119.478, 205.695 1112.389 C 208.221 1093.797, 208.203 1037.562, 205.666 1017 C 202.591 992.085, 196.163 960.413, 190.852 944 C 186.999 932.095, 182.713 930.246, 174.381 936.893 M 170.500 963.244 C 137.694 998.917, 111.998 1051.144, 101.954 1102.568 L 99.792 1113.637 103.300 1120.603 C 111.555 1136.995, 124.437 1170.442, 127.053 1182.278 C 128.540 1189.002, 130.372 1189.318, 130.786 1182.922 C 131.480 1172.205, 136.257 1132.830, 139.025 1115 C 144.519 1079.621, 152.015 1043.647, 157.103 1028.240 C 159.441 1021.158, 162.172 1018.744, 164.834 1021.405 C 166.902 1023.474, 166.643 1030.052, 164.010 1042.272 C 155.169 1083.313, 148.562 1123.884, 144.106 1164.500 C 140.249 1199.646, 139.653 1207.010, 140.665 1206.955 C 141.124 1206.930, 144.714 1201.642, 148.643 1195.205 C 157.683 1180.391, 167.234 1166.957, 176.788 1155.617 C 185.271 1145.548, 184.870 1146.717, 188.513 1121.427 C 194.305 1081.208, 193.393 1034.662, 185.947 990.500 C 183.466 975.781, 179.121 957.193, 178 956.500 C 177.545 956.219, 174.170 959.254, 170.500 963.244 M 1995.500 964.248 C 1975.447 968.476, 1851.459 989.195, 1811.500 994.995 C 1796.650 997.151, 1764.475 1001.874, 1740 1005.491 C 1715.525 1009.108, 1669.230 1015.878, 1637.123 1020.535 C 1566.771 1030.739, 1553.002 1032.884, 1524.500 1038.082 C 1448.542 1051.932, 1408.547 1062.286, 1377.575 1076.115 C 1352.813 1087.172, 1343.074 1097.160, 1343.022 1111.554 C 1342.978 1123.580, 1350.356 1133.050, 1369.407 1145.418 C 1385.439 1155.827, 1388.781 1160.444, 1385.417 1167.534 C 1382.870 1172.902, 1374.200 1179.314, 1360.500 1185.964 C 1340.170 1195.832, 1312.536 1204.720, 1220.500 1230.994 C 1187.500 1240.415, 1141.150 1253.679, 1117.500 1260.470 C 1093.850 1267.261, 1047.275 1280.548, 1014 1289.997 C 874.289 1329.671, 842.319 1338.863, 839 1340.310 C 835.743 1341.731, 837.350 1341.843, 862.123 1341.918 L 888.746 1342 913.123 1335.064 C 926.530 1331.249, 949.650 1324.692, 964.500 1320.493 C 1062.796 1292.698, 1272.496 1232.803, 1290.500 1227.380 C 1335.891 1213.706, 1363.893 1203.266, 1379.204 1194.307 C 1388.273 1189.001, 1395.494 1181.774, 1399.153 1174.340 C 1401.926 1168.709, 1402.218 1167.299, 1401.769 1161.705 C 1400.884 1150.690, 1395.639 1143.939, 1379.352 1132.852 C 1355.375 1116.532, 1352.974 1109.489, 1367.985 1099.510 C 1396.065 1080.842, 1468.186 1061.930, 1568 1047.059 C 1583.125 1044.806, 1605.400 1041.414, 1617.500 1039.522 C 1629.600 1037.630, 1661.775 1032.901, 1689 1029.012 C 1730.705 1023.056, 1783.762 1015.118, 1850 1004.925 C 1904.507 996.537, 1998.235 980.098, 1999.656 978.678 C 1999.894 978.440, 1999.956 974.906, 1999.794 970.825 L 1999.500 963.404 1995.500 964.248 M 1232.574 992.889 C 1225.161 1004.039, 1219.796 1020.924, 1216.502 1043.470 C 1214.581 1056.614, 1213.441 1059.389, 1209.792 1059.812 C 1205.423 1060.317, 1203.500 1058.534, 1198.971 1049.784 C 1193.268 1038.764, 1188.087 1031.215, 1183.197 1026.797 C 1177.981 1022.084, 1175.333 1020.652, 1174.458 1022.068 C 1172.463 1025.295, 1178.102 1042.976, 1185.474 1056.609 C 1191.621 1067.980, 1191.405 1073, 1184.767 1073 C 1183.208 1073, 1179.811 1071.931, 1177.217 1070.624 C 1174.623 1069.317, 1169.222 1067.071, 1165.215 1065.633 C 1159.126 1063.447, 1157.839 1063.257, 1157.372 1064.473 C 1156.550 1066.614, 1160.345 1071.382, 1166.809 1076.331 C 1172.513 1080.698, 1189.776 1091.822, 1194.814 1094.377 C 1198.176 1096.082, 1239.342 1099.541, 1254.500 1099.392 C 1262.222 1099.316, 1267.778 1098.666, 1273.144 1097.210 C 1284.189 1094.213, 1292.427 1090.738, 1292.775 1088.928 C 1293.444 1085.455, 1288.359 1084.500, 1269.183 1084.500 C 1252.502 1084.500, 1250.774 1084.337, 1249.843 1082.678 C 1248.008 1079.410, 1249.875 1076.251, 1257.739 1069.319 C 1278.811 1050.743, 1286.967 1041.209, 1286.991 1035.122 C 1286.999 1032.889, 1286.745 1032.785, 1282.811 1033.414 C 1274.185 1034.794, 1258.277 1045.427, 1249.163 1055.906 C 1244.634 1061.114, 1243.372 1062, 1240.488 1062 C 1236.814 1062, 1233.992 1059.181, 1234.010 1055.527 C 1234.015 1054.412, 1235.841 1046.300, 1238.068 1037.500 C 1243.068 1017.742, 1244.352 1001.163, 1241.613 991.740 C 1240.611 988.293, 1239.387 986, 1238.549 986 C 1237.781 986, 1235.093 989.100, 1232.574 992.889 M 396.821 989.395 C 390.281 991.156, 385.600 995.074, 382.523 1001.363 C 380.301 1005.904, 379.751 1008.828, 378.992 1020.121 C 378.497 1027.480, 377.784 1035.212, 377.407 1037.304 C 376.723 1041.094, 376.732 1041.106, 379.610 1040.421 C 385.611 1038.994, 393.285 1034.631, 398.843 1029.484 C 409.076 1020.011, 413.039 1007.524, 409.584 995.641 C 408.304 991.239, 407.339 989.699, 405.395 988.960 C 402.400 987.822, 402.725 987.805, 396.821 989.395 M 1948 1017.483 C 1929.172 1020.703, 1883.501 1029.861, 1845.058 1038.125 C 1827.216 1041.961, 1799.316 1047.772, 1783.058 1051.039 C 1766.801 1054.306, 1751.028 1057.647, 1748.006 1058.463 C 1740.268 1060.554, 1737.730 1064.495, 1742.250 1067.401 C 1744.192 1068.649, 1745.731 1068.661, 1753.500 1067.489 C 1770.544 1064.916, 1845.185 1049.695, 1935.500 1030.375 C 1952.951 1026.642, 1964.794 1023.385, 1966.750 1021.781 C 1968.869 1020.042, 1968.184 1017.020, 1965.435 1015.975 C 1964.024 1015.439, 1962.562 1015.039, 1962.185 1015.088 C 1961.808 1015.136, 1955.425 1016.214, 1948 1017.483 M 989 1052.441 C 989 1060.934, 989.393 1068.125, 989.873 1068.422 C 991.143 1069.206, 1000.794 1058.670, 1001.544 1055.681 C 1001.894 1054.286, 1001.878 1052.191, 1001.508 1051.025 C 1000.677 1048.408, 991.287 1037, 989.964 1037 C 989.387 1037, 989 1043.203, 989 1052.441 M 1995.500 1040.083 C 1993.850 1040.585, 1982.150 1043.288, 1969.500 1046.090 C 1956.850 1048.893, 1944.588 1052.018, 1942.250 1053.036 C 1937.888 1054.936, 1936.670 1057.552, 1939.620 1058.685 C 1943.324 1060.106, 1983.144 1054.680, 1996.250 1050.968 C 1999.995 1049.907, 2000 1049.899, 2000 1044.453 C 2000 1041.454, 1999.662 1039.039, 1999.250 1039.086 C 1998.838 1039.133, 1997.150 1039.582, 1995.500 1040.083 M 654.645 1056.225 L 650.984 1061.541 652.457 1071.520 C 654.139 1082.915, 656.618 1114.279, 657.874 1140.038 C 659.001 1163.144, 659.596 1164.358, 671.317 1167.410 C 678.073 1169.170, 704.513 1172.401, 706.359 1171.692 C 707.188 1171.374, 707.916 1168.861, 708.252 1165.159 C 709.974 1146.166, 726.851 1137.028, 739.575 1148.200 L 742.978 1151.188 743.989 1148.529 C 744.545 1147.066, 745 1145.552, 745 1145.163 C 745 1143.273, 751.457 1136.964, 754.528 1135.854 C 756.437 1135.163, 758 1133.956, 758 1133.170 C 758 1132.385, 756.912 1128.726, 755.582 1125.040 C 750.883 1112.013, 748.909 1099.562, 748.182 1078.375 L 747.500 1058.500 724 1057.874 C 711.075 1057.530, 696.450 1056.726, 691.500 1056.088 C 681.633 1054.815, 664.997 1052.291, 660.903 1051.445 C 658.653 1050.980, 657.819 1051.617, 654.645 1056.225 M 1873.218 1058.268 C 1871.037 1060.590, 1865.550 1078.076, 1862.006 1094 C 1858.081 1111.633, 1855.883 1130.332, 1855.364 1150.500 C 1855.081 1161.500, 1854.661 1171.090, 1854.432 1171.812 C 1854.169 1172.639, 1851.028 1170.491, 1845.933 1166.002 C 1823.135 1145.912, 1798.604 1131.041, 1770.664 1120.374 C 1760.117 1116.347, 1758.651 1116.258, 1755.455 1119.455 C 1753.257 1121.652, 1753 1122.748, 1753 1129.916 C 1753 1148.139, 1759.460 1184.033, 1766.866 1206.956 C 1768.546 1212.157, 1769.720 1216.613, 1769.474 1216.859 C 1769.228 1217.105, 1763.283 1215.901, 1756.264 1214.183 C 1738.270 1209.780, 1728.012 1208.571, 1708.324 1208.533 C 1692.414 1208.502, 1690.940 1208.655, 1688.324 1210.599 C 1683.579 1214.126, 1684.024 1217.460, 1691.017 1230.774 C 1694.399 1237.213, 1700.054 1246.888, 1703.583 1252.275 C 1707.112 1257.662, 1710 1262.244, 1710 1262.458 C 1710 1262.671, 1704.487 1265.897, 1697.750 1269.625 C 1681.153 1278.810, 1649.696 1297.755, 1611.380 1321.643 L 1579.530 1341.500 1593.705 1341.777 L 1607.880 1342.054 1632.190 1326.899 C 1658.363 1310.582, 1701.199 1284.735, 1712.393 1278.505 L 1719.286 1274.668 1727.070 1283.084 C 1733.563 1290.104, 1734.760 1291.915, 1734.289 1294 C 1733.407 1297.900, 1733.228 1298, 1727.117 1298 C 1708.930 1298, 1675.775 1308.321, 1666.750 1316.793 C 1664.887 1318.542, 1664 1320.382, 1664 1322.500 C 1664 1326.127, 1665.854 1328.074, 1677.235 1336.399 L 1684.970 1342.057 1698.650 1341.778 L 1712.330 1341.500 1700.418 1333.445 C 1693.866 1329.014, 1688.368 1324.672, 1688.199 1323.795 C 1687.967 1322.588, 1690.150 1321.466, 1697.196 1319.171 C 1709.728 1315.090, 1715.495 1314.015, 1728.648 1313.306 L 1739.796 1312.705 1741.493 1316.102 C 1742.426 1317.971, 1746.174 1324.563, 1749.821 1330.750 L 1756.451 1342 1766.106 1342 L 1775.762 1342 1768.343 1330.897 C 1761.149 1320.130, 1755 1309.130, 1755 1307.029 C 1755 1303.140, 1784.586 1310.790, 1808 1320.732 C 1817.580 1324.799, 1840.230 1337.298, 1844.100 1340.652 C 1845.383 1341.764, 1850.170 1341.985, 1868.276 1341.769 L 1890.853 1341.500 1886.017 1335 C 1881.003 1328.262, 1863.822 1294.867, 1857.720 1280 C 1853.557 1269.856, 1849.952 1258.618, 1846.522 1245.087 C 1843.626 1233.660, 1843.556 1232.998, 1845.250 1233.006 C 1847.082 1233.015, 1865.534 1248.678, 1872.555 1256.184 C 1891.179 1276.093, 1908.005 1304.900, 1916.984 1332.250 L 1920.185 1342 1928.093 1342 C 1932.442 1342, 1936 1341.586, 1936 1341.080 C 1936 1337.694, 1925.853 1310.367, 1920.827 1300.217 C 1911.410 1281.201, 1895.307 1257.545, 1882.898 1244.500 C 1879.273 1240.688, 1878.974 1239.851, 1876.552 1226.710 C 1867.703 1178.702, 1868.318 1136.912, 1878.541 1091.624 C 1879.915 1085.540, 1881.382 1080.218, 1881.802 1079.798 C 1882.785 1078.815, 1896.390 1096.220, 1903.530 1107.593 C 1928.368 1147.155, 1942.002 1192.319, 1946.972 1251.500 C 1949.238 1278.488, 1947.923 1325.018, 1944.477 1339.788 C 1943.946 1342.061, 1944.004 1342.074, 1953.214 1341.788 L 1962.486 1341.500 1963.295 1336 C 1968.976 1297.414, 1981.877 1257.555, 1996.429 1233.629 L 2000 1227.758 1999.973 1214.129 L 1999.946 1200.500 1997.055 1203.987 C 1989.593 1212.989, 1973.205 1243.489, 1967.368 1259.239 C 1965.791 1263.496, 1964.227 1266.983, 1963.893 1266.989 C 1963.560 1266.995, 1963.001 1262.838, 1962.651 1257.750 C 1962.302 1252.662, 1961.032 1239.361, 1959.830 1228.191 C 1957.684 1208.244, 1957.678 1207.753, 1959.475 1200.691 C 1964.716 1180.097, 1977.625 1152.080, 1991.977 1130.150 L 2000.060 1117.799 1999.780 1105.837 L 1999.500 1093.874 1993.500 1101.492 C 1977.882 1121.322, 1959.554 1152.944, 1953.357 1170.750 C 1952.353 1173.638, 1951.299 1176, 1951.015 1176 C 1950.731 1176, 1948.116 1168.912, 1945.203 1160.250 C 1932.847 1123.513, 1910.714 1085.387, 1888.601 1062.750 C 1883.070 1057.089, 1881.470 1056, 1878.678 1056 C 1876.511 1056, 1874.605 1056.792, 1873.218 1058.268 M 1615 1073.558 C 1570.043 1078.483, 1528.830 1088.606, 1503.500 1100.945 C 1490.335 1107.358, 1483.400 1112.755, 1479.270 1119.802 C 1474.431 1128.059, 1476.257 1138.168, 1483.898 1145.427 C 1485.593 1147.038, 1493.155 1152.438, 1500.702 1157.427 C 1517.158 1168.308, 1520.213 1171.709, 1520.773 1179.765 C 1521.141 1185.072, 1520.874 1185.955, 1517.206 1191.597 C 1512.208 1199.284, 1506.231 1203.963, 1485.261 1216.604 C 1466.897 1227.675, 1463.972 1230.756, 1472.820 1229.708 C 1475.584 1229.380, 1482.932 1227.029, 1489.148 1224.483 C 1515.928 1213.515, 1532.016 1197.042, 1531.990 1180.616 C 1531.970 1168.221, 1525.343 1159.700, 1506.721 1148.124 C 1482.048 1132.787, 1481.277 1125.829, 1502.830 1113.035 C 1517.986 1104.038, 1539.813 1097.804, 1594 1086.997 C 1629.327 1079.951, 1646.338 1075.521, 1645.682 1073.540 C 1645.168 1071.984, 1629.275 1071.994, 1615 1073.558 M 1807 1083.627 C 1782.063 1090.280, 1771.150 1092.494, 1726.500 1099.964 C 1679.668 1107.799, 1666.631 1110.544, 1649.615 1116.157 C 1625.631 1124.067, 1610.264 1134.620, 1606.595 1145.698 C 1605.278 1149.676, 1605.132 1151.377, 1605.972 1152.948 C 1607.650 1156.083, 1609.609 1155.428, 1612.911 1150.630 C 1617.077 1144.574, 1625.367 1137.348, 1631.960 1134.023 C 1648.346 1125.762, 1678.477 1118.664, 1740.500 1108.454 C 1780.411 1101.885, 1799.099 1097.658, 1818.185 1090.884 C 1828.437 1087.246, 1830.858 1085.178, 1829.180 1081.496 C 1827.697 1078.241, 1826.901 1078.317, 1807 1083.627 M 1022.822 1122.944 C 1019.284 1124.060, 1013 1128.901, 1013 1130.511 C 1013 1132.060, 1023.480 1141.811, 1027.799 1144.281 C 1030.865 1146.034, 1030.936 1146.027, 1032.401 1143.781 C 1034.494 1140.573, 1036.090 1132.701, 1035.374 1129.120 C 1034.301 1123.755, 1028.812 1121.055, 1022.822 1122.944 M 50.200 1126.200 C 48.082 1128.318, 48.891 1133.187, 53.905 1148.513 C 62.692 1175.368, 74.564 1216.383, 78.504 1233.500 C 86.030 1266.193, 93.558 1308.948, 96.508 1335.750 L 97.196 1342 102.598 1342 L 108 1342 107.988 1338.750 C 107.956 1329.884, 98.930 1273.874, 93.364 1248 C 81.775 1194.133, 60.768 1128.044, 54.467 1125.626 C 52.183 1124.749, 51.568 1124.832, 50.200 1126.200 M 1056.500 1137.567 C 1050.652 1140.597, 1042.389 1150.723, 1044.248 1152.581 C 1045.667 1154, 1056.699 1155.908, 1060.231 1155.345 C 1065.459 1154.512, 1066.316 1153.049, 1065.796 1145.854 C 1065.443 1140.977, 1064.877 1139.319, 1063.065 1137.851 C 1060.306 1135.617, 1060.265 1135.616, 1056.500 1137.567 M 1769.018 1139.750 C 1769.051 1144.710, 1771.952 1163.265, 1774.607 1175.500 C 1782.920 1213.811, 1797.246 1244.699, 1820.093 1273.570 C 1827.490 1282.918, 1849.706 1305.628, 1850.589 1304.745 C 1850.925 1304.408, 1848.734 1298.365, 1845.719 1291.316 C 1834.770 1265.715, 1827.005 1236.204, 1827.001 1220.184 C 1827 1212.033, 1828.091 1210, 1832.470 1210 C 1837.174 1210, 1840.050 1211.247, 1850.222 1217.695 C 1855.075 1220.772, 1859.210 1223.111, 1859.411 1222.894 C 1859.975 1222.288, 1857.107 1203.942, 1855.841 1200.060 C 1853.445 1192.712, 1827.115 1168.531, 1808 1156.125 C 1798.668 1150.068, 1773.102 1137, 1770.584 1137 C 1769.518 1137, 1769.006 1137.900, 1769.018 1139.750 M 756.764 1145.971 C 752.649 1149.208, 750.152 1164.354, 753.520 1165.646 C 754.357 1165.967, 757.619 1164.940, 760.770 1163.365 C 765.953 1160.774, 766.527 1160.166, 766.784 1157 C 767.113 1152.933, 763.324 1144.652, 760.933 1144.212 C 760.071 1144.054, 758.195 1144.845, 756.764 1145.971 M 722.017 1155.829 C 718.132 1159.714, 715.446 1169.921, 717.908 1171.443 C 719.136 1172.202, 738.225 1170.175, 739.220 1169.180 C 740.546 1167.854, 736.980 1159.134, 733.820 1155.974 C 729.912 1152.065, 725.831 1152.015, 722.017 1155.829 M 589.088 1169.616 C 586.654 1172.710, 585.133 1177.533, 584.315 1184.750 C 583.783 1189.445, 583.920 1189.998, 585.610 1189.984 C 588.630 1189.957, 595.395 1185.662, 596.659 1182.969 C 597.749 1180.648, 596.884 1170.239, 595.402 1167.842 C 594.356 1166.150, 591.093 1167.066, 589.088 1169.616 M 522.500 1170.167 C 518.926 1172.143, 515.847 1175.419, 513.790 1179.431 C 511.841 1183.234, 511.835 1183.406, 513.612 1184.706 C 515.961 1186.423, 528.574 1190.208, 532.500 1190.374 C 535.484 1190.499, 535.499 1190.473, 535.228 1185.500 C 534.569 1173.364, 528.952 1166.598, 522.500 1170.167 M 1430.655 1170.829 C 1428.269 1173.465, 1428.487 1174.147, 1433.750 1180.540 C 1438.061 1185.777, 1438.500 1186.788, 1438.500 1191.483 C 1438.500 1206.321, 1422.497 1217.615, 1376.949 1234.920 C 1365.095 1239.423, 1354.084 1244.156, 1352.478 1245.436 C 1349.865 1247.519, 1349.710 1247.946, 1351.001 1249.501 C 1353.785 1252.856, 1369.429 1249.681, 1390.500 1241.485 C 1423.181 1228.772, 1440.289 1217.223, 1447.165 1203.231 C 1452.488 1192.399, 1448.921 1178.820, 1438.790 1171.345 C 1434.966 1168.524, 1432.862 1168.390, 1430.655 1170.829 M 555.457 1173.476 C 551.987 1177.156, 547.381 1188.944, 548.388 1191.568 C 548.860 1192.800, 550.964 1193.016, 560.231 1192.783 L 571.500 1192.500 571.379 1187.471 C 571.301 1184.219, 570.330 1180.610, 568.630 1177.257 C 564.480 1169.068, 560.652 1167.969, 555.457 1173.476 M 217.595 1174.104 C 213.857 1177.044, 199.706 1198.794, 190.574 1215.636 C 176.754 1241.122, 165.463 1267.231, 154.692 1298.607 C 149.949 1312.424, 142 1339.223, 142 1341.398 C 142 1341.784, 144.541 1341.965, 147.648 1341.800 L 153.295 1341.500 155.694 1333 C 169.699 1283.378, 190.514 1235.308, 216.316 1193 C 226.086 1176.980, 226.321 1176.468, 225.020 1174.037 C 223.621 1171.424, 220.972 1171.448, 217.595 1174.104 M 983.224 1175.230 C 980.314 1178.737, 978.968 1194.841, 981.516 1195.677 C 982.074 1195.860, 984.212 1194.625, 986.266 1192.932 C 989.492 1190.273, 990 1189.286, 989.998 1185.677 C 989.997 1181.401, 987.371 1174.891, 985.400 1174.276 C 984.795 1174.088, 983.816 1174.517, 983.224 1175.230 M 951.693 1182.787 C 948.708 1186.085, 946.048 1193.635, 945.773 1199.592 L 945.500 1205.500 950.522 1205.242 C 953.285 1205.100, 958.685 1204.200, 962.522 1203.242 C 970.690 1201.203, 971.250 1200.095, 967.983 1192.438 C 963.787 1182.604, 956.022 1178.003, 951.693 1182.787 M 914.741 1189.750 C 911.302 1193.341, 907.495 1201.895, 908.769 1203.169 C 910.043 1204.443, 922.974 1206.191, 928.279 1205.806 C 932.071 1205.531, 932.466 1205.261, 932.169 1203.145 C 931.613 1199.185, 928.194 1192.104, 925.574 1189.483 C 922.225 1186.134, 918.106 1186.236, 914.741 1189.750 M 1705.470 1224.049 C 1704.583 1225.483, 1715.303 1242.966, 1724.953 1255.824 C 1730.185 1262.796, 1739.199 1273.264, 1744.983 1279.086 L 1755.500 1289.671 1766.491 1291.918 C 1789.193 1296.559, 1818.992 1307.470, 1835 1317.004 C 1842.945 1321.735, 1846.996 1324, 1847.517 1324 C 1847.768 1324, 1843.357 1319.782, 1837.715 1314.627 C 1823.587 1301.717, 1812.508 1289.829, 1803.672 1278.099 C 1796.948 1269.172, 1792.794 1262.590, 1781.888 1243.574 C 1778.582 1237.810, 1778.271 1237.568, 1770.495 1234.720 C 1758.519 1230.335, 1741.673 1226.294, 1730.471 1225.121 C 1715.736 1223.578, 1706.018 1223.161, 1705.470 1224.049 M 0.050 1250.500 L 0.010 1258.500 8.570 1269.500 C 24.668 1290.189, 35.211 1307.064, 47.150 1331.250 L 52.456 1342 58.228 1342 C 61.403 1342, 64 1341.735, 64 1341.412 C 64 1339.886, 56.493 1324.032, 50.496 1312.892 C 38.718 1291.015, 19.564 1263.513, 5.651 1248.500 L 0.090 1242.500 0.050 1250.500 M 1629.238 1268.052 C 1620.844 1271.840, 1608.694 1276.830, 1602.238 1279.141 C 1567.245 1291.669, 1554.079 1296.844, 1540.500 1303.407 C 1524.623 1311.081, 1503.590 1324.585, 1491.004 1335.186 L 1483.508 1341.500 1491.306 1341.793 C 1498.626 1342.068, 1499.330 1341.907, 1502.802 1339.164 C 1511.661 1332.166, 1532.590 1319.340, 1545.500 1313 C 1553.200 1309.218, 1567.600 1303.166, 1577.500 1299.551 C 1587.400 1295.936, 1599.325 1291.580, 1604 1289.871 C 1623.303 1282.812, 1645.452 1270.761, 1648.053 1265.901 C 1649.447 1263.296, 1648.594 1260.975, 1646.281 1261.083 C 1645.302 1261.128, 1637.632 1264.264, 1629.238 1268.052 M 1248 1282.649 C 1218.646 1287.602, 1139.903 1306.859, 1099.500 1318.965 C 1082.991 1323.911, 1046.075 1336.690, 1039 1339.908 C 1035.586 1341.461, 1035.861 1341.507, 1050.266 1341.777 C 1058.387 1341.929, 1065.817 1341.633, 1066.777 1341.119 C 1069.854 1339.473, 1110.518 1327.177, 1136.414 1320.063 C 1150.211 1316.273, 1178.499 1309.078, 1199.276 1304.074 C 1237.737 1294.811, 1253.986 1290.211, 1257.524 1287.584 C 1259.105 1286.410, 1259.280 1285.756, 1258.399 1284.309 C 1257.288 1282.485, 1253.015 1281.803, 1248 1282.649 M 1428 1287.676 C 1427.175 1287.984, 1421.325 1291.080, 1415 1294.556 C 1390.721 1307.896, 1357.157 1321.123, 1317.277 1333.067 C 1302.613 1337.458, 1290.402 1341.265, 1290.141 1341.526 C 1289.880 1341.787, 1298.120 1342, 1308.451 1342 L 1327.236 1342 1342.368 1336.916 C 1374.348 1326.173, 1408.995 1310.812, 1425 1300.280 C 1433.785 1294.500, 1435.268 1292.918, 1434.827 1289.805 C 1434.493 1287.451, 1431.279 1286.449, 1428 1287.676 M 1995.172 1330.575 C 1992.878 1335.842, 1991 1340.567, 1991 1341.075 C 1991 1341.584, 1993.025 1342, 1995.500 1342 L 2000 1342 2000 1331.500 C 2000 1325.725, 1999.853 1321, 1999.672 1321 C 1999.492 1321, 1997.467 1325.309, 1995.172 1330.575" stroke="none" fill="black" fill-rule="evenodd"/>
</svg>