<svg xmlns="http://www.w3.org/2000/svg" width="1024" height="688" viewBox="0 0 1024 688" version="1.1">
	<path d="M 138.500 11.478 C 130.587 12.945, 122.799 15.832, 117.259 19.352 C 112.893 22.126, 110.484 24.657, 107.491 29.617 L 105.341 33.180 94.920 33.340 C 85.686 33.482, 83.843 33.822, 78.729 36.334 C 71.847 39.713, 68 44.680, 68 50.187 C 68 53.714, 67.803 53.941, 64.250 54.515 C 44.935 57.634, 32.980 64.379, 27.588 75.199 C 26.105 78.175, 25 82.095, 25 84.381 C 25 89.760, 28.328 96.285, 32.533 99.149 C 34.432 100.442, 35.989 101.816, 35.993 102.203 C 35.997 102.590, 33.990 103.796, 31.533 104.882 C 25.269 107.653, 17.441 115.278, 15.416 120.581 C 11.881 129.837, 15.782 139.521, 25.251 144.995 C 32.284 149.061, 39.503 151.112, 51.441 152.434 L 61.382 153.536 62.210 156.732 C 63.308 160.967, 68.220 164.562, 75.499 166.458 C 86.123 169.225, 96.308 167.992, 106.290 162.731 C 109.693 160.937, 112.427 160.054, 112.923 160.590 C 113.387 161.090, 117.189 167.356, 121.372 174.513 C 130.230 189.670, 136.113 203.468, 139.701 217.500 C 144.758 237.275, 143.799 275.961, 137.380 311.185 C 135.945 319.058, 134.338 326.038, 133.808 326.696 C 133.135 327.531, 132.095 327.606, 130.357 326.946 C 128.989 326.426, 125.601 326, 122.828 326 C 118.637 326, 117.889 325.733, 118.394 324.415 C 119.912 320.459, 120.063 312.255, 118.698 307.852 C 115.523 297.611, 107.508 291.635, 97.078 291.733 C 90.135 291.799, 85.474 293.673, 80.034 298.588 C 76.651 301.645, 75.673 302.095, 74.939 300.935 C 74.439 300.146, 74.024 298.923, 74.015 298.217 C 73.983 295.507, 68.970 287.181, 65.578 284.203 C 62.144 281.187, 53.882 278, 49.500 278 C 48.325 278, 44.989 278.705, 42.087 279.567 C 30.918 282.884, 23.370 294.158, 24.222 306.250 C 24.445 309.413, 24.443 312, 24.218 312 C 23.992 312, 21.402 311.301, 18.462 310.446 C 14.295 309.235, 12.249 309.125, 9.188 309.949 C 3.704 311.426, -0 314.574, 0 317.760 L 0 320.374 2.750 317.809 C 6.610 314.209, 9.308 313, 13.484 313 C 17.434 313, 22.228 315.071, 25.763 318.304 C 28.996 321.261, 30.504 319.476, 29.086 314.370 C 25.452 301.284, 30.220 288.531, 40.491 283.865 C 48.247 280.342, 59.337 282.296, 64.701 288.131 C 67.730 291.426, 70.695 298.517, 71.545 304.500 C 71.935 307.250, 72.438 309.819, 72.661 310.209 C 72.885 310.599, 76.093 307.838, 79.792 304.073 C 86.495 297.249, 90.744 295.011, 97 295.011 C 111.546 295.011, 119.943 309.922, 113.954 325.117 C 112.829 327.972, 112.272 330.672, 112.717 331.117 C 113.163 331.563, 115.321 331.288, 117.513 330.507 C 122.373 328.777, 123.483 328.729, 128.219 330.044 C 135.811 332.153, 141.930 340.215, 141.978 348.174 C 141.990 350.194, 141.473 354.130, 140.829 356.920 C 140.185 359.709, 139.941 362.275, 140.287 362.620 C 140.633 362.966, 142.397 362, 144.208 360.473 C 148.714 356.673, 153.089 355, 158.518 355 C 171.514 355, 179.430 368.620, 174.493 382.487 C 173.712 384.679, 173.428 386.828, 173.861 387.261 C 174.295 387.695, 177.233 386.867, 180.390 385.422 C 185.353 383.150, 187.169 382.844, 193.815 383.163 C 202.886 383.598, 209.797 386.505, 213.243 391.336 C 215.082 393.914, 215.509 395.870, 215.548 401.895 L 215.596 409.289 222.645 409.395 C 233.681 409.560, 234.562 411.165, 229.753 422.351 L 227.667 427.202 223.583 426.373 C 216.850 425.007, 208.690 425.601, 203.663 427.825 C 194.548 431.857, 184.720 443.076, 176.483 458.853 C 174.372 462.897, 168.090 473.022, 162.524 481.353 L 152.404 496.500 143.952 497.195 C 139.303 497.577, 134.037 498.160, 132.250 498.490 C 130.463 498.820, 129 498.867, 129 498.593 C 129 498.320, 131.068 495.137, 133.596 491.521 C 138.621 484.333, 138.739 482, 134.077 482 C 130.051 482, 119.409 485.960, 114.557 489.263 C 112.388 490.739, 110.410 491.743, 110.160 491.493 C 109.911 491.244, 111.565 486.193, 113.835 480.270 C 118.870 467.137, 119.274 464.618, 116.413 464.205 C 113.200 463.741, 102.442 472.440, 96.104 480.628 C 93.022 484.609, 90.162 487.897, 89.750 487.933 C 89.338 487.970, 89 486.856, 89 485.458 C 89 475.732, 82.097 456.193, 77.860 453.925 C 73.191 451.426, 71.324 455.720, 70.325 471.250 C 69.980 476.613, 69.413 481, 69.065 481 C 68.716 481, 67.581 479.537, 66.541 477.750 C 61.325 468.781, 53.279 461.912, 49.631 463.312 C 48.606 463.705, 48 465.095, 48 467.052 C 48 469.846, 51.068 483.407, 52.608 487.421 C 53.497 489.739, 51.331 489.354, 47.641 486.540 C 43.745 483.568, 34.685 479.440, 30.337 478.656 C 26.591 477.980, 24.505 479.864, 25.506 483.018 C 25.875 484.180, 28.162 488.031, 30.588 491.575 C 33.015 495.120, 35 498.397, 35 498.858 C 35 499.319, 30.275 499.985, 24.500 500.338 C 18.726 500.692, 10.851 501.501, 7 502.137 C 1.164 503.101, 0 503.613, 0 505.214 C 0 506.564, 0.520 506.988, 1.750 506.642 C 6.644 505.263, 18.657 503.938, 28.132 503.731 C 37.204 503.534, 39.061 503.766, 40.783 505.315 C 42.006 506.415, 43.047 506.734, 43.424 506.124 C 43.766 505.570, 40.627 500.139, 36.449 494.055 C 30.301 485.103, 29.160 482.876, 30.461 482.377 C 33.265 481.300, 44.863 487.906, 52.015 494.653 C 55.764 498.189, 59.091 500.662, 59.409 500.148 C 59.726 499.634, 58.450 494.522, 56.572 488.788 C 52.524 476.432, 50.853 468.209, 52.219 467.365 C 54.806 465.766, 64.461 478.643, 68.911 489.626 C 70.370 493.229, 71.965 496.024, 72.455 495.838 C 72.945 495.652, 73.429 488.525, 73.531 480 C 73.729 463.458, 74.474 458, 76.536 458 C 79.890 458, 84.820 474.002, 85.701 487.750 C 86.078 493.627, 86.707 497, 87.427 497 C 88.051 497, 90.797 493.576, 93.530 489.392 C 98.199 482.244, 110.856 469, 113.019 469 C 114.695 469, 114.118 471.076, 108.574 485 C 105.618 492.425, 103.561 498.885, 104.004 499.354 C 104.447 499.824, 107.214 498.395, 110.154 496.177 C 118.897 489.583, 133 483.738, 133 486.709 C 133 487.098, 130.257 490.956, 126.905 495.280 C 123.553 499.605, 121.075 503.408, 121.399 503.732 C 121.722 504.056, 123.678 503.818, 125.744 503.204 C 131.221 501.575, 147.449 499.575, 149.329 500.296 C 150.806 500.863, 150.809 501.275, 149.362 505.207 C 147.377 510.601, 147.103 523.287, 148.862 528.313 C 149.596 530.410, 152.065 534.081, 154.348 536.471 C 156.632 538.861, 159.671 542.325, 161.101 544.168 C 162.532 546.012, 166.132 548.851, 169.101 550.478 C 174.070 553.201, 175.427 553.460, 186.145 553.743 C 196.148 554.007, 198.613 553.742, 203.620 551.869 C 218.446 546.322, 228.809 528.490, 231.585 503.750 C 231.940 500.587, 232.612 498, 233.078 498 C 233.544 498, 236.171 498.885, 238.914 499.966 C 241.658 501.048, 246.962 502.447, 250.701 503.076 C 254.441 503.705, 258.079 504.388, 258.786 504.593 C 259.662 504.846, 258.012 508.883, 253.621 517.233 C 243.288 536.879, 240.765 549.084, 244.668 560.539 C 247.559 569.023, 259.342 578.735, 269.495 581.003 C 274.510 582.123, 276.783 581.808, 292.348 577.842 C 297.222 576.599, 304.499 569.946, 307.441 564.040 C 310.494 557.911, 311.729 552.437, 312.940 539.656 C 313.502 533.725, 314.222 528.450, 314.540 527.936 C 314.858 527.421, 317.697 527, 320.849 527 C 328.432 527, 336.829 524.724, 344.908 520.479 L 351.500 517.016 365.500 518.041 C 394.709 520.181, 411.953 523.271, 435 530.494 C 455.553 536.937, 472.614 541.360, 494.500 545.921 C 549.678 557.419, 636 569.143, 636 565.138 C 636 564.664, 632.513 563.968, 628.250 563.593 C 612.012 562.162, 544.719 552.065, 518 547.051 C 484.168 540.702, 459.662 534.776, 437.020 527.467 C 415.806 520.620, 396.677 517.031, 370.581 515.001 C 363.476 514.448, 357.437 513.771, 357.161 513.495 C 356.886 513.219, 360.012 509.507, 364.108 505.247 C 368.205 500.986, 372.894 495.799, 374.528 493.719 L 377.500 489.939 385.058 491.879 C 400.131 495.750, 421.349 496.874, 431.685 494.350 C 433.535 493.898, 434.695 495.091, 439.271 502.158 C 452.827 523.096, 465.122 530.018, 488.697 529.987 C 499.296 529.973, 509.760 528.109, 527.495 523.079 C 533.542 521.363, 540.759 519.693, 543.533 519.367 L 548.576 518.774 552.297 524.803 C 556.648 531.851, 564.420 539.166, 571.220 542.612 C 579.707 546.912, 586.364 548.056, 600.047 547.563 C 613.126 547.093, 618.720 545.756, 625 541.603 C 626.925 540.330, 630.604 538.099, 633.176 536.645 C 640.880 532.291, 647.163 523.086, 648.611 514.032 C 648.969 511.790, 649.575 509.762, 649.958 509.526 C 650.340 509.290, 655.251 508.366, 660.872 507.472 C 666.493 506.578, 679.959 503.847, 690.796 501.403 C 740.677 490.153, 763.809 486.091, 799.500 482.316 C 824.001 479.724, 893.325 479.716, 917 482.302 C 947.633 485.649, 976.884 490.697, 1009.457 498.260 C 1022.180 501.213, 1023.483 501.721, 1024.194 504 C 1024.804 505.957, 1024.867 505.767, 1024.486 503.125 C 1024.219 501.269, 1024 499.401, 1024 498.975 C 1024 498.548, 1021.750 497.660, 1019 497 C 1016.250 496.340, 1014 495.597, 1014 495.347 C 1014 495.098, 1015.125 493.238, 1016.500 491.215 C 1021.918 483.242, 1018.358 477, 1008.393 477 L 1003.056 477 1005.528 472.351 C 1008.569 466.632, 1008.632 464.073, 1005.822 460.500 C 1003.686 457.785, 1003.490 457.743, 995.812 458.335 L 987.980 458.939 989.490 456.019 C 991.705 451.737, 991.478 445.326, 989.066 444.035 C 985.905 442.344, 981.593 442.843, 976.644 445.474 L 971.991 447.949 972.604 441.224 C 973.146 435.285, 972.963 434.179, 971.036 431.750 C 966.613 426.174, 958.160 428.819, 951.379 437.902 C 947.905 442.555, 946.014 443.534, 945.990 440.691 C 945.968 437.956, 940.971 429.027, 938.589 427.466 C 932.072 423.196, 927.344 429.742, 926.305 444.472 L 925.708 452.933 920.299 447.991 C 907.556 436.344, 898.810 440.594, 903.975 455.925 C 905.144 459.395, 905.948 462.386, 905.762 462.572 C 905.576 462.758, 903.641 462.275, 901.462 461.499 C 896.215 459.630, 891.944 459.650, 889.223 461.557 C 885.574 464.112, 886.417 467.335, 892.012 472.230 L 897.025 476.614 859.262 476.438 L 821.500 476.261 821.198 472.769 C 820.857 468.834, 824.210 463.977, 828.963 461.519 C 833.418 459.215, 840.927 458.739, 847 460.376 C 850.025 461.192, 852.867 461.501, 853.316 461.063 C 853.766 460.625, 853.205 458.744, 852.070 456.884 C 849.502 452.671, 849.431 447.446, 851.886 443.420 C 857.018 435.003, 873.512 434.113, 882.256 441.781 C 884.811 444.022, 885.410 442.684, 884.128 437.595 C 880.729 424.094, 885.022 414.400, 895.251 412.481 C 899.501 411.683, 907.323 414.867, 909.052 418.097 C 909.612 419.144, 910.644 420, 911.344 420 C 912.276 420, 912.606 417.788, 912.573 411.750 C 912.537 405.041, 912.971 402.596, 914.897 398.660 C 920.764 386.671, 934.658 383.725, 943.523 392.590 C 945.453 394.519, 947.412 395.863, 947.877 395.576 C 948.342 395.289, 948.959 392.096, 949.249 388.481 C 949.893 380.466, 953.061 373.885, 958.328 369.622 C 961.671 366.917, 963.041 366.492, 969.323 366.214 C 975.106 365.958, 977.109 366.278, 979.634 367.863 C 985.592 371.602, 990 379.590, 990 386.649 C 990 390.479, 991.742 391.047, 994.417 388.091 C 998.949 383.084, 1007.950 382.680, 1011.401 387.329 C 1013.131 389.660, 1013.500 391.594, 1013.500 398.329 C 1013.500 405.944, 1013.636 406.477, 1015.500 406.169 C 1016.600 405.986, 1018.962 405.600, 1020.750 405.309 C 1023.128 404.923, 1024 404.257, 1024 402.827 C 1024 401.224, 1023.415 400.929, 1020.750 401.186 L 1017.500 401.500 1016.928 394.846 C 1016.260 387.082, 1014.214 383.405, 1009.454 381.416 C 1004.902 379.514, 1002.145 379.632, 997.656 381.920 L 993.890 383.841 992.928 381.170 C 988.129 367.847, 980.920 361.981, 969.384 362.010 C 964.086 362.023, 955.815 366.065, 952.683 370.171 C 949.275 374.639, 946.049 381.861, 946.022 385.083 C 945.990 388.901, 945.326 389.041, 940.379 386.276 C 927.549 379.105, 911.007 389.839, 909.293 406.447 C 908.978 409.501, 908.388 412, 907.982 412 C 907.576 412, 905.629 411.325, 903.654 410.500 C 891.471 405.410, 879.663 414.327, 879.483 428.752 C 879.441 432.191, 879.084 435.023, 878.691 435.046 C 878.298 435.069, 876.294 434.620, 874.238 434.049 C 865.316 431.571, 857.261 433.476, 851.253 439.484 C 846.751 443.986, 845.998 446.626, 847.121 453.984 C 847.498 456.458, 847.470 456.467, 840.338 456.149 C 827.730 455.585, 819.011 461.494, 818.024 471.270 C 817.384 477.605, 817.777 477.453, 798.102 479.004 C 770.402 481.187, 742.544 486.012, 697.154 496.489 C 667.809 503.262, 651.138 506.471, 650.194 505.527 C 649.655 504.988, 645.123 490.301, 645.039 488.820 C 645.017 488.445, 649.923 488.399, 655.941 488.716 C 662.758 489.076, 669.810 488.821, 674.650 488.040 C 690.025 485.560, 710.355 476.936, 732.364 463.557 L 740.228 458.776 747.364 460.891 C 755.725 463.369, 764.708 463.599, 771.591 461.511 C 774.291 460.692, 777.490 460.017, 778.701 460.011 C 787.859 459.966, 803.843 451.816, 812.239 442.911 C 824.147 430.281, 823.512 408.748, 810.860 396.095 C 808.618 393.853, 803.805 390.552, 800.164 388.759 C 794.056 385.752, 792.651 385.473, 781.979 385.151 C 764.158 384.613, 753.045 387.185, 723 398.799 C 711.902 403.090, 696.204 407.537, 695.311 406.644 C 695.019 406.352, 697.036 402.739, 699.794 398.615 C 703.949 392.403, 707.515 384.721, 711.271 373.892 C 711.598 372.948, 713.481 372.019, 715.823 371.644 C 720.979 370.820, 729.728 364.187, 735.141 357 C 740.696 349.624, 747.508 335.304, 750.126 325.500 C 751.678 319.687, 752.286 314.357, 752.349 306 C 752.442 293.633, 751.027 286.933, 746.386 277.774 L 743.948 272.963 747.316 270.976 C 751.849 268.301, 753.206 265.013, 753.768 255.341 C 754.771 238.051, 748.694 222.581, 735.851 209.732 L 728.086 201.965 729.913 197.703 C 732.592 191.454, 734 183.858, 734 175.661 C 734 160.936, 728.735 148.765, 717.973 138.613 C 707.259 128.507, 696.073 124.033, 681.460 124.012 C 674.453 124.002, 670.508 124.667, 660.250 127.592 C 658.191 128.179, 658 127.901, 658 124.327 C 658 118.724, 655.323 109.231, 652.268 104 C 646.290 93.765, 632.556 83.943, 619.448 80.528 C 610.686 78.246, 598.647 78.508, 593.299 81.097 C 590.916 82.251, 588.508 84.051, 587.948 85.097 C 586.456 87.886, 584.779 87.467, 579.359 82.954 C 572.776 77.472, 562.241 72.426, 552.050 69.873 C 544.814 68.061, 541.653 67.830, 530.050 68.266 C 518.855 68.688, 515.196 69.233, 509 71.405 C 496.145 75.911, 488.699 82.347, 487.058 90.372 L 486.442 93.382 470.471 93.510 C 451.782 93.659, 443.610 95.408, 430.222 102.126 C 416.242 109.142, 409.046 118.956, 411.893 127.124 C 412.502 128.870, 413 130.424, 413 130.578 C 413 130.732, 410.413 131.604, 407.250 132.515 C 399.356 134.789, 386.545 140.888, 378.881 146.021 C 375.372 148.371, 368.377 154.468, 363.337 159.569 C 351.709 171.339, 345.747 182.299, 345.223 192.873 C 344.844 200.505, 347.114 205.489, 351.469 206.582 C 354.567 207.359, 354.697 209.073, 351.848 211.595 C 347.138 215.764, 338.257 227.962, 334.722 235.117 C 324.177 256.458, 324.422 280.410, 335.301 291.869 C 339.119 295.891, 343.649 298, 348.468 298 C 352.507 298, 352.621 298.437, 350.421 305.500 C 349.564 308.250, 348.556 313.425, 348.181 317 L 347.500 323.500 336.422 324.143 C 330.329 324.497, 322.679 325.332, 319.422 325.997 C 311.608 327.595, 296.582 332.407, 289.316 335.639 C 284.195 337.917, 282.604 338.160, 276 337.676 C 254.521 336.099, 235.266 325.385, 228.255 311.109 C 225.754 306.017, 225.500 304.486, 225.505 294.500 C 225.509 284.224, 225.719 283.056, 228.692 276.750 C 230.449 273.025, 232.518 270, 233.312 270 C 234.102 270, 236.701 270.689, 239.087 271.531 C 262.442 279.771, 294.213 265.519, 306.138 241.453 C 310.753 232.140, 312.103 225.160, 309.677 223.147 C 308.307 222.010, 308.353 221.516, 310.105 218.546 C 314.339 211.370, 313.432 199.753, 308.178 193.873 C 304.580 189.847, 297.570 188.028, 283 187.340 C 261.394 186.321, 245.830 192.073, 231.576 206.347 C 222.620 215.315, 218.875 221.422, 216.395 231.103 C 214.649 237.918, 214.938 247.575, 217.025 252.156 C 218.038 254.379, 217.582 255.496, 212.663 262.845 C 204.916 274.420, 200.897 285.875, 200.246 298.235 C 199.945 303.957, 200.230 310.554, 200.937 314.235 C 202.847 324.179, 209.081 335.988, 216.663 344.026 C 226.310 354.252, 234.423 359.111, 252.185 365.300 C 253.636 365.806, 253.253 366.969, 249.417 373.694 C 246.968 377.987, 242.880 386.900, 240.333 393.500 C 234.875 407.641, 234.149 408.685, 230.954 406.976 C 229.701 406.305, 226.682 405.630, 224.246 405.477 L 219.816 405.198 219.658 399.776 C 219.381 390.282, 212.124 382.596, 201.111 380.132 C 198.697 379.592, 196.147 378.554, 195.444 377.825 C 193.851 376.173, 185.549 346.395, 182.965 333.067 C 175.874 296.484, 179.983 249.548, 192.575 223.296 C 197.233 213.586, 205.783 203.118, 216.768 193.676 C 227.718 184.265, 232.397 178.358, 238.153 166.684 C 241.802 159.283, 242.821 157.947, 244.500 158.365 C 245.600 158.638, 248.525 159.385, 251 160.025 C 260.545 162.492, 275.806 159.436, 283.590 153.499 L 287.061 150.851 291.781 153.148 C 294.771 154.603, 298.913 155.584, 303.087 155.826 C 310.977 156.283, 316.108 154.119, 320.889 148.318 L 323.972 144.578 328.501 145.789 C 335.175 147.574, 344.799 147.275, 349.500 145.137 C 355.235 142.528, 356.378 140.778, 355.679 135.677 L 355.091 131.381 360.795 130.197 C 373.008 127.660, 384.683 120.107, 388.135 112.509 C 394.098 99.383, 384.362 85.845, 366.152 81.939 C 361.520 80.946, 361.202 80.672, 360.631 77.193 C 360.297 75.162, 359.134 72.051, 358.045 70.280 C 351.653 59.881, 329.873 53.379, 304.031 54.155 L 292.562 54.500 291.807 50 C 290.468 42.017, 282.787 37.019, 271.839 37.006 C 267.305 37, 267.119 36.878, 264.995 32.490 C 256.383 14.699, 224.450 9.580, 196.592 21.525 L 188.685 24.916 184.748 20.859 C 175.685 11.521, 157.819 7.897, 138.500 11.478 M 134.324 16.944 C 121.341 20.433, 114.439 25.265, 110.477 33.639 C 108.220 38.411, 107.543 39.107, 105.675 38.579 C 94.516 35.426, 82.099 37.666, 75.795 43.970 C 71.547 48.217, 71.042 51.042, 74 54 C 75.100 55.100, 76 56.397, 76 56.883 C 76 57.368, 72.513 58.089, 68.250 58.485 C 63.987 58.881, 57.103 60.274, 52.952 61.582 C 31.064 68.476, 22.588 84.644, 35.203 95.441 C 39.257 98.912, 43.185 100.164, 54.371 101.554 C 61.055 102.384, 59.148 103.471, 48.662 104.807 C 34.180 106.654, 24.064 112.524, 19.900 121.500 C 17.520 126.629, 17.543 128.425, 20.056 133.616 C 24.134 142.040, 35.676 146.890, 54 147.879 L 65.500 148.500 65.825 152.487 C 66.222 157.369, 67.358 158.828, 72.500 161.064 C 78.829 163.815, 85.668 164.304, 93.877 162.593 C 99.824 161.353, 110 156.945, 110 155.608 C 110 155.439, 107.303 149.621, 104.007 142.678 C 100.188 134.635, 97.104 129.459, 95.507 128.413 C 91.484 125.777, 92.558 125.034, 99.461 125.679 C 107.367 126.417, 113.502 124.859, 118.316 120.891 C 120.270 119.281, 122.137 116.652, 122.499 115.003 C 123.418 110.820, 124.592 110.479, 128.050 113.389 C 131.724 116.480, 136.247 117.415, 144.377 116.762 C 151.301 116.206, 160.302 112.436, 163.932 108.572 C 165.205 107.218, 167.035 103.722, 167.999 100.805 C 169.935 94.945, 169.626 95.040, 178.841 97.482 C 186.147 99.418, 192.835 98.888, 198.674 95.911 C 203.484 93.459, 204.183 93.502, 206.924 96.419 C 208.174 97.750, 211.515 99.867, 214.348 101.123 C 221.087 104.112, 234.706 104.389, 239.840 101.642 C 244.460 99.171, 246 100.049, 246 105.153 C 246 119.723, 261.334 127.692, 273.493 119.440 L 277.053 117.024 280.762 119.012 C 284.926 121.244, 294.670 121.736, 298.316 119.899 C 299.517 119.294, 301.625 117.499, 303 115.911 C 305.456 113.073, 305.571 113.048, 309.557 114.440 C 316.583 116.894, 324.849 117.304, 332.932 115.599 C 340.424 114.019, 341.700 114.059, 340.599 115.840 C 338.471 119.283, 319.234 121.362, 311.095 119.027 C 308.063 118.158, 307.349 118.365, 304.378 120.973 C 298.683 125.974, 290.692 127.230, 282.426 124.424 C 278.024 122.929, 277.532 122.955, 272.956 124.924 C 270.301 126.066, 267.220 127, 266.110 127 C 264.168 127, 257.522 134.925, 249.184 147.180 C 244.942 153.415, 245.093 154.678, 250.250 156.072 C 260.495 158.840, 276.452 155.313, 282.570 148.927 C 285.454 145.917, 288.362 145.159, 289.564 147.104 C 290.880 149.233, 298.546 151.956, 303.282 151.978 C 311.342 152.015, 317.456 148.222, 319.951 141.638 C 321.110 138.580, 321.112 138.580, 328.500 141.390 C 334.029 143.494, 343.645 143.424, 348 141.248 C 352.788 138.857, 352.558 136.287, 347.237 132.714 C 344.893 131.139, 343.191 129.501, 343.455 129.073 C 343.719 128.645, 346.987 128.034, 350.718 127.714 C 364.834 126.504, 379.201 119.420, 383.734 111.435 C 386.574 106.431, 386.577 102.462, 383.745 97.826 C 379.660 91.141, 373.108 87.429, 362 85.507 L 355.500 84.382 355.829 79.362 C 356.109 75.093, 355.753 73.860, 353.449 71.122 C 345.427 61.588, 320.868 56.325, 296.608 58.941 C 284.253 60.273, 282.514 59.705, 285.871 55.436 C 288.733 51.798, 288.552 49.398, 285.158 46.004 C 281.316 42.162, 274.838 40.477, 269.016 41.806 C 263.909 42.972, 263 42.684, 263 39.901 C 263 36.303, 259.012 30.021, 254.783 26.958 C 240.972 16.953, 214.534 17.159, 194.139 27.430 C 190.240 29.393, 186.856 31, 186.620 31 C 186.384 31, 185.019 29.002, 183.587 26.559 C 181.513 23.019, 179.622 21.446, 174.267 18.809 C 167.825 15.636, 167.013 15.490, 154.525 15.258 C 144.235 15.066, 139.993 15.420, 134.324 16.944 M 840.528 38 C 820.626 41.593, 805.962 55.263, 804.059 72 C 803.587 76.147, 803.072 77.407, 801.967 77.123 C 801.160 76.916, 797.350 76.534, 793.500 76.274 C 777.203 75.176, 764.083 86.069, 764.022 100.750 L 764 106 760.038 106 C 754.336 106, 745.519 109.595, 742.542 113.133 C 739.278 117.012, 739.166 121.868, 742.274 124.788 C 745.803 128.103, 755.707 129.817, 777.897 130.955 C 803.486 132.266, 884.106 132.285, 914.201 130.986 C 949.950 129.444, 962.250 127.214, 969.240 121.007 C 973.281 117.420, 973.496 116.949, 973.431 111.863 C 973.348 105.362, 971.305 101.193, 965.381 95.436 C 958.969 89.205, 951.758 86.738, 941.200 87.165 L 932.900 87.500 930.506 81.613 C 929.189 78.375, 926.849 74.397, 925.306 72.772 C 919.073 66.208, 908.370 63.454, 900.183 66.308 C 896.237 67.683, 895.816 67.670, 895.298 66.156 C 889.271 48.565, 874.834 38.553, 854.013 37.524 C 849.331 37.292, 843.263 37.507, 840.528 38 M 840.500 42.039 C 820.007 46.240, 808.071 58.813, 808.022 76.250 C 808.010 80.513, 807.824 84, 807.609 84 C 807.394 84, 805.257 83.110, 802.859 82.022 C 799.960 80.706, 796.300 80.037, 791.929 80.022 C 783.863 79.995, 776.173 83.515, 771.550 89.349 C 768.688 92.961, 768.502 93.717, 768.536 101.599 L 768.571 110 762.652 110 C 751.937 110, 744 114.012, 744 119.427 C 744 125.288, 752.971 126.619, 801.957 128.026 C 839.426 129.103, 917.976 127.913, 936.722 125.985 C 963.420 123.240, 971.007 119.545, 969.716 109.918 C 968.626 101.794, 960.891 94.478, 950.066 91.331 C 945.491 90.001, 943.682 89.934, 939.046 90.925 C 928.828 93.108, 928.667 93.068, 928.329 88.240 C 927.308 73.662, 911.807 64.821, 898.141 71.022 C 895.743 72.110, 893.420 73, 892.979 73 C 892.537 73, 891.857 71.088, 891.467 68.750 C 890.469 62.766, 886.752 55.867, 882.527 52.158 C 872.448 43.309, 854.908 39.086, 840.500 42.039 M 522.536 73.049 C 505.455 75.720, 492 83.674, 492 91.099 C 492 94.064, 492.220 94.261, 502.646 100.633 C 506.306 102.869, 503.145 103.003, 494.897 100.962 C 481.958 97.760, 463.941 97.287, 451.695 99.828 C 431.946 103.926, 416 114.432, 416 123.345 C 416 126.792, 419.726 129.171, 426.078 129.781 C 430.518 130.208, 432.946 131.387, 431.782 132.551 C 431.552 132.781, 427.794 133.442, 423.432 134.020 C 402.238 136.826, 382.410 146.734, 367.183 162.126 C 356.032 173.398, 349.988 184.571, 349.765 194.320 C 349.673 198.381, 350.074 199.641, 351.937 201.150 C 355.016 203.643, 360.905 203.506, 366.451 200.811 C 372.821 197.717, 373.380 199.498, 367.566 204.367 C 351.167 218.102, 343.503 227.202, 337.867 239.633 C 333.414 249.453, 331.755 258.043, 332.193 269 C 332.523 277.234, 332.968 279.222, 335.536 283.916 C 338.998 290.245, 342.925 292.994, 348.500 292.990 C 353.421 292.986, 357.060 290.702, 363.164 283.785 C 365.729 280.878, 368.165 278.836, 368.577 279.246 C 369.543 280.209, 368.078 283.018, 362.528 290.840 C 349.608 309.050, 349.023 338.104, 361.205 356.496 C 366.848 365.015, 377.364 369.607, 381.251 365.250 C 382.169 364.221, 383.078 360.616, 383.457 356.500 C 384.808 341.846, 386.422 340.915, 387.461 354.192 C 389.177 376.122, 397.035 392.712, 412.224 406.469 C 423.055 416.280, 442.859 424.525, 449.514 421.995 C 454.244 420.197, 454.671 416.940, 451.250 408.775 C 449.573 404.774, 447.680 399.475, 447.041 397 C 446.403 394.525, 445.652 391.712, 445.373 390.750 C 444.322 387.128, 447.863 389.058, 449.043 392.750 C 453.120 405.514, 463.084 416.764, 475.555 422.686 C 482.435 425.954, 488.758 427.504, 505.500 430.029 C 509.900 430.693, 514.808 431.469, 516.407 431.754 L 519.313 432.273 518.673 426.143 C 518.320 422.771, 517.353 418.387, 516.523 416.400 C 514.861 412.423, 515.369 410.232, 517.536 412.030 C 519.443 413.613, 522.087 420.923, 523.394 428.231 L 524.502 434.425 531.917 438.220 C 535.995 440.308, 540.802 443.137, 542.599 444.508 C 545.662 446.844, 546.617 447, 557.861 447 C 564.458 447, 573.375 447.471, 577.678 448.046 C 586.875 449.275, 601.762 453.328, 607.119 456.061 L 610.895 457.987 612.435 455.789 C 614.193 453.279, 616.538 446.265, 617.462 440.750 C 617.808 438.687, 618.520 437, 619.045 437 C 620.756 437, 620.060 447.821, 618.001 453.239 C 616.901 456.133, 616.001 458.613, 616.001 458.750 C 615.997 460.568, 628.112 455.058, 635.963 449.672 C 642.370 445.278, 652.001 435.362, 656.969 428.046 C 661.480 421.402, 667.157 409.839, 669.972 401.558 C 670.895 398.840, 672.180 396.440, 672.826 396.225 C 674.684 395.605, 674.224 400.218, 671.604 408.467 C 670.287 412.616, 669.556 416.225, 669.980 416.487 C 670.403 416.749, 672.847 416.249, 675.411 415.376 C 688.638 410.869, 704.340 387.579, 708.847 365.779 C 710.612 357.246, 712.222 356.198, 713 363.078 C 713.423 366.820, 713.806 367.446, 715.492 367.151 C 725.177 365.452, 739.631 345.772, 745.009 326.961 C 747.987 316.547, 748.700 300.576, 746.588 291.613 C 744.452 282.550, 739.106 272.563, 732.453 265.212 C 727.606 259.855, 726.752 258, 729.133 258 C 729.573 258, 732.213 260.025, 735 262.500 C 744.517 270.952, 749.440 267.906, 749.348 253.620 C 749.250 238.396, 743.871 224.858, 733.719 214.286 C 730.399 210.829, 727.046 208, 726.268 208 C 725.490 208, 722.523 210.554, 719.676 213.676 C 714.688 219.145, 701.066 229, 698.494 229 C 695.935 229, 695.160 231.400, 696.072 236.500 C 696.564 239.250, 697.376 248.595, 697.878 257.266 L 698.790 273.032 703.073 280.120 C 705.428 284.019, 708.063 288.625, 708.928 290.355 C 710.409 293.318, 710.863 293.517, 716.750 293.798 C 721.411 294.020, 723 294.465, 723 295.548 C 723 296.641, 721.643 297, 717.510 297 L 712.019 297 712.638 307.750 C 712.978 313.663, 713.536 318.782, 713.878 319.127 C 714.220 319.472, 716.857 320.519, 719.738 321.454 C 722.619 322.388, 725.233 323.569, 725.547 324.076 C 726.958 326.359, 724.580 326.615, 719.467 324.731 C 716.210 323.531, 713.578 323.061, 713.101 323.593 C 712.654 324.092, 711.112 328.325, 709.675 333 C 706.060 344.763, 700.949 353.005, 691 363.119 C 679.443 374.869, 664.527 384.240, 649.064 389.467 C 645.525 390.663, 642.306 392.285, 641.911 393.071 C 641.516 393.857, 639.807 397.466, 638.112 401.092 C 630.428 417.530, 613.194 427.258, 591.500 427.404 C 570.296 427.547, 555.152 420.023, 544.550 404.076 C 539.766 396.879, 538.620 396, 534.025 396 C 528.876 396, 508.147 390.197, 499.265 386.269 C 476.452 376.179, 462.112 361.692, 455.941 342.500 C 454.091 336.747, 453.664 333.006, 453.545 321.500 C 453.430 310.393, 453.028 306.673, 451.600 303.500 C 446.281 291.683, 444.774 285.523, 444.136 273 L 443.500 260.500 433.500 259.860 C 417.714 258.849, 406.017 253.799, 395.801 243.584 C 377.033 224.816, 374.560 193.152, 390.055 169.999 C 401.413 153.027, 421.736 143.818, 441 146.913 C 459.342 149.860, 475.575 165.023, 480.172 183.500 C 480.856 186.250, 481.515 188.656, 481.637 188.846 C 481.760 189.037, 483.804 187.859, 486.180 186.229 C 493.359 181.305, 502.788 176.973, 510.766 174.932 C 521.186 172.267, 537.594 172.318, 549 175.051 C 559.373 177.536, 574.761 184.839, 585.500 192.374 L 593.500 197.987 595.716 195.478 C 599.063 191.686, 600.472 185.515, 600.389 175 C 600.332 167.802, 599.797 164.182, 598.181 160.060 C 595.954 154.380, 596.150 152.117, 598.581 155.442 C 600.594 158.194, 604 167.632, 604 170.456 C 604 177.159, 605.962 177.407, 616.634 172.056 C 626.501 167.108, 636.727 158.721, 642.685 150.690 C 655.573 133.317, 656.380 116.516, 645.017 102.140 C 632.523 86.334, 601.965 77.944, 592.255 87.654 C 590.219 89.690, 589.940 90.683, 590.489 93.934 C 590.895 96.339, 590.728 98.050, 590.044 98.473 C 589.427 98.854, 585.784 95.934, 581.724 91.804 C 573.313 83.250, 564.099 77.967, 552.354 74.963 C 543.013 72.574, 530.647 71.780, 522.536 73.049 M 197.500 101.090 C 194.750 102.092, 190.839 102.932, 188.809 102.956 C 186.779 102.980, 184.896 103.359, 184.624 103.799 C 183.689 105.312, 189.652 125.490, 191.120 125.779 C 191.899 125.932, 197.218 121.642, 202.940 116.246 L 213.344 106.435 208.170 102.717 C 205.324 100.673, 202.884 99.060, 202.748 99.134 C 202.611 99.207, 200.250 100.088, 197.500 101.090 M 171.499 104.658 C 170.632 106.731, 169.260 109.161, 168.448 110.058 C 167.139 111.504, 167.250 112.317, 169.438 117.263 C 177.154 134.712, 178.564 158.931, 173.098 180.165 C 170.301 191.032, 163.082 209.031, 161.236 209.740 C 158.981 210.605, 155.814 206.223, 149.499 193.500 C 141.482 177.346, 141 174.697, 141 146.758 C 141 122.972, 140.997 122.934, 138.750 122.085 C 137.512 121.617, 136.232 121.391, 135.904 121.581 C 135.577 121.771, 134.994 127.006, 134.609 133.214 C 133.607 149.349, 131.911 158.403, 129.815 158.801 C 127.472 159.247, 117.158 148.429, 110.303 138.337 C 96.726 118.351, 105.343 139.687, 122.190 167.775 C 138.862 195.569, 145.831 215.721, 147.601 241.256 C 148.732 257.557, 145.400 293.014, 140.436 317.531 L 137.903 330.038 140.902 334.269 C 144.369 339.161, 146.508 346.708, 145.647 351.014 C 144.953 354.485, 145.111 354.522, 151.401 352.379 C 161.315 349.001, 172.229 353.317, 176.945 362.482 C 178.945 366.369, 179.500 368.918, 179.500 374.223 C 179.500 377.950, 179.590 381, 179.701 381 C 179.811 381, 182.174 380.513, 184.951 379.917 C 188.149 379.231, 190 378.312, 190 377.409 C 190 376.625, 188.012 369.118, 185.582 360.728 C 176.155 328.179, 173.306 302.477, 176.023 274.500 C 179.139 242.418, 186.209 221.358, 199.268 205.263 C 202.084 201.791, 208.625 195.278, 213.802 190.790 C 225.222 180.889, 228.906 176.054, 236.883 160.500 C 240.268 153.900, 246.387 144, 250.479 138.500 C 254.572 133, 257.939 128.226, 257.960 127.892 C 258.027 126.863, 247.870 121.962, 246.906 122.558 C 245.185 123.622, 234.286 138.544, 225.767 151.500 C 221.065 158.650, 214.514 167.264, 211.209 170.643 C 203.570 178.450, 194.426 185.377, 192.657 184.698 C 189.404 183.450, 188.883 158.767, 191.905 149.058 C 194.054 142.151, 195.878 139.538, 208 126 C 220.623 111.902, 222.673 109.038, 220.930 107.935 C 220.143 107.438, 219.099 107.024, 218.608 107.015 C 218.117 107.007, 212.374 112.187, 205.845 118.527 C 192.913 131.085, 189.738 133.246, 187.626 130.927 C 186.911 130.142, 184.877 123.875, 183.106 117 C 179.789 104.123, 179.060 102.682, 175.287 101.552 C 173.419 100.992, 172.827 101.478, 171.499 104.658 M 237 107 C 235.625 107.440, 233.076 107.845, 231.336 107.900 C 228.703 107.983, 227.338 109.048, 223.197 114.250 C 220.461 117.688, 214.581 124.550, 210.132 129.500 C 205.682 134.450, 202.032 139.270, 202.021 140.211 C 201.982 143.409, 216.724 146.254, 223.673 144.390 C 224.868 144.069, 227.771 141.038, 230.124 137.654 C 232.477 134.269, 236.764 128.554, 239.650 124.953 L 244.898 118.405 243.287 113.453 C 242.401 110.729, 241.538 107.938, 241.370 107.250 C 241.029 105.864, 240.620 105.841, 237 107 M 158.729 117.180 C 156.655 118.301, 152.830 119.761, 150.229 120.424 L 145.500 121.631 145.500 135.565 L 145.500 149.500 149.962 151.750 C 155.479 154.532, 162.008 154.634, 167.750 152.027 C 171.743 150.214, 172 149.850, 172 146.007 C 172 137.239, 166.102 116.078, 163.467 115.393 C 162.935 115.255, 160.803 116.059, 158.729 117.180 M 122.272 123.005 C 119.396 125.660, 115.689 128.129, 114.033 128.493 C 112.378 128.856, 110.760 129.579, 110.439 130.099 C 109.236 132.044, 126.556 153.852, 128.081 152.311 C 129.181 151.199, 131 136.012, 131 127.931 C 131 122.888, 130.583 120.937, 129.250 119.745 C 127.635 118.300, 127.097 118.552, 122.272 123.005 M 673.580 129.107 C 670.324 129.582, 664.924 131.253, 661.580 132.820 C 656.383 135.255, 655.298 136.238, 654.106 139.585 C 652.335 144.562, 647.147 152.725, 642.453 157.921 L 638.808 161.955 641.654 163.136 C 643.219 163.785, 646.975 165.398, 650 166.722 C 655.050 168.931, 655.582 168.991, 656.500 167.453 C 663.667 155.454, 671.673 150.137, 682.712 150.044 C 690.709 149.977, 698.106 153.211, 703.387 159.086 C 709.102 165.442, 711.432 172.157, 711.337 182 C 711.215 194.719, 705.853 204.877, 695.504 211.998 L 691.186 214.968 692.611 219.702 C 693.394 222.305, 694.383 224.783, 694.808 225.208 C 696.138 226.538, 708.059 218.772, 714.450 212.411 C 725.216 201.694, 729.512 189.957, 728.835 173.107 C 728.489 164.495, 728.056 162.651, 724.739 155.667 C 717.989 141.453, 704.170 131.316, 688.444 129.043 C 684.625 128.491, 681.050 128.086, 680.500 128.142 C 679.950 128.198, 676.836 128.632, 673.580 129.107 M 196.948 147.326 C 194.652 151.101, 193.778 157.961, 194.186 168.989 C 194.433 175.677, 194.827 177.540, 196.043 177.772 C 198.400 178.222, 209.218 167.864, 216.436 158.247 C 219.989 153.513, 222.701 149.325, 222.464 148.941 C 222.226 148.557, 220.106 148.459, 217.752 148.724 C 214.803 149.057, 211.192 148.442, 206.135 146.746 L 198.797 144.285 196.948 147.326 M 424.108 152.082 C 407.056 155.430, 391.295 170.938, 386.453 189.131 C 384.653 195.893, 384.605 210.938, 386.363 217.500 C 392.352 239.865, 412.400 255.114, 436.198 255.406 C 440.432 255.458, 444.346 255.050, 444.897 254.500 C 445.447 253.950, 446.193 251.653, 446.553 249.395 L 447.209 245.291 440.855 244.754 C 429.041 243.758, 416.626 237.404, 410.259 229.096 C 400.949 216.950, 402.452 196.427, 413.431 185.764 C 418.616 180.729, 423.435 178.661, 431.075 178.195 C 439.693 177.669, 446.213 180.382, 452.509 187.113 C 456.989 191.903, 462.998 202.830, 462.999 206.191 C 463.001 209.752, 464.842 208.643, 470.817 201.483 C 477.770 193.152, 478.100 191.702, 475.177 182.339 C 468.451 160.793, 446.370 147.710, 424.108 152.082 M 678 155.152 C 672.011 156.251, 666.219 160.476, 662.536 166.432 L 659.525 171.303 662.460 173.401 C 671.956 180.193, 680.476 190.504, 685.727 201.562 C 689.952 210.460, 689.695 210.209, 692.908 208.547 C 696.488 206.696, 701.387 201.112, 704.160 195.722 C 707.202 189.808, 707.840 178.045, 705.501 171.003 C 701.691 159.531, 690.206 152.911, 678 155.152 M 145 162.918 C 145 168.999, 145.656 173.055, 147.582 178.883 C 150.309 187.133, 157.973 202.158, 159.759 202.753 C 161.074 203.191, 166.107 190.298, 169.030 179 C 171.727 168.577, 172.285 155.295, 170 155.891 C 159.975 158.505, 157.662 158.458, 147.250 155.423 C 145.047 154.780, 145 154.937, 145 162.918 M 626.500 170.941 C 622.650 173.531, 616.362 176.994, 612.526 178.635 L 605.552 181.619 602.910 189.406 C 601.262 194.264, 599.140 198.322, 597.268 200.194 L 594.267 203.194 584.604 196.597 C 562.898 181.777, 545.119 176.043, 524.657 177.264 C 506.333 178.357, 490.849 185.932, 477.307 200.428 C 460.417 218.509, 449.608 243.159, 448.294 266.592 C 447.626 278.517, 449.218 287.041, 454.525 299.953 C 457.854 308.052, 458 308.934, 458.012 320.953 C 458.019 328.750, 458.577 335.579, 459.485 338.992 C 464.490 357.799, 479.786 373.382, 502.685 383.003 C 511.143 386.556, 527.034 390.762, 533.605 391.185 L 538.489 391.500 538.180 388.349 C 537.772 384.199, 539.683 383.126, 541.128 386.694 C 551.299 411.810, 566.613 423, 590.816 423 C 614.911 423, 631.766 411.199, 637.590 390.250 C 639.378 383.819, 640.419 382.823, 642.451 385.602 C 643.502 387.040, 644.485 386.844, 652.061 383.692 C 670.146 376.166, 684.316 366.052, 694.180 353.631 C 698.731 347.900, 698.491 347.285, 690.060 343.033 C 685.644 340.806, 672.216 336, 670.410 336 C 670.202 336, 668.194 338.909, 665.949 342.464 C 659.704 352.352, 651.342 357.689, 640.221 358.886 L 634.511 359.500 630.987 369.500 C 626.407 382.500, 623.736 387.569, 618.765 392.692 C 609.978 401.748, 595.494 404.198, 583.500 398.657 C 570.816 392.797, 562.848 380.067, 558.520 358.750 C 558.213 357.238, 557.347 356, 556.595 356 C 554.385 356, 543.748 363.531, 538.088 369.103 C 534.013 373.113, 532.594 373.985, 531.677 373.038 C 530.765 372.095, 531.881 370.546, 536.634 366.160 C 540.007 363.047, 545.336 358.925, 548.475 357 C 558.775 350.683, 558.636 350.860, 556.635 346.643 C 555.158 343.530, 554.423 343, 551.584 343 C 541.986 343, 519.001 349.148, 512.380 353.487 C 509.581 355.320, 506.684 355.468, 507.232 353.750 C 508.486 349.817, 529.004 342.693, 545 340.638 L 554.500 339.418 555.035 335.459 C 555.329 333.281, 555.904 330.960, 556.313 330.300 C 559.295 325.484, 522.966 323.271, 508 327.357 C 502.026 328.988, 499.369 328.081, 503.143 325.698 C 511.428 320.469, 545.895 321.091, 564.676 326.809 C 571.338 328.837, 573.524 331.696, 567.557 330.577 C 565.523 330.195, 563.212 329.635, 562.424 329.332 C 561.468 328.965, 560.491 329.975, 559.495 332.359 C 556.742 338.947, 557.055 339.390, 565.250 340.487 C 571.245 341.289, 571.455 343, 565.559 343 C 563.116 343, 560.847 343.439, 560.515 343.975 C 559.363 345.840, 567.889 353.677, 574.104 356.466 C 590.616 363.876, 612.851 358.573, 620.078 345.500 C 624.892 336.794, 624.664 336.131, 616 333.609 C 606.181 330.751, 598.729 326.609, 592.846 320.739 C 586.934 314.841, 584.914 309.306, 587.329 305.621 C 589.437 302.403, 599.439 297.560, 609.500 294.885 C 620.820 291.876, 640.419 291.125, 646.548 293.465 C 651.891 295.506, 653 297.278, 653 303.775 C 653 313.337, 642.872 327.886, 632.717 332.910 C 629.071 334.714, 628.336 335.690, 626.457 341.227 C 625.287 344.677, 623.993 348.257, 623.583 349.182 C 622.575 351.458, 627.563 353.996, 634.437 354.706 C 644.708 355.766, 655.226 350.691, 661.250 341.771 C 664.671 336.705, 664.734 335, 661.500 335 C 659.944 335, 659 334.433, 659 333.500 C 659 332.504, 659.996 332, 661.965 332 C 665.402 332, 667.291 329.351, 666.812 325.201 C 666.550 322.933, 666.072 322.544, 663.825 322.776 C 659.707 323.201, 659.501 321.235, 663.489 319.569 C 666.674 318.238, 666.989 317.779, 666.418 315.289 C 664.024 304.842, 656.457 295.017, 647.381 290.573 C 634.403 284.218, 612.639 283.763, 597.750 289.536 C 596.788 289.909, 596 289.771, 596 289.230 C 596 286.218, 612.897 282.022, 625.083 282.008 C 628.704 282.003, 631.915 281.752, 632.218 281.449 C 632.521 281.146, 631.860 278.558, 630.748 275.699 C 627.973 268.561, 627.742 252.672, 630.306 245.322 C 635.546 230.303, 649.384 223.135, 661.662 229.079 C 674.185 235.141, 681.477 252.514, 678.959 270.286 C 677.404 281.260, 671.313 290.622, 663.377 294.238 C 662.070 294.834, 661.011 295.586, 661.025 295.911 C 661.077 297.157, 668.149 306.110, 668.807 305.762 C 676.132 301.888, 685.085 298.406, 691.926 296.769 C 696.642 295.641, 701.524 294.336, 702.775 293.869 L 705.051 293.020 702.911 288.760 C 701.734 286.417, 699.766 283.150, 698.537 281.500 C 694.980 276.722, 694.124 272.566, 693.019 254.688 C 689.974 205.411, 674.365 179.307, 641.098 167.862 C 638.122 166.838, 635.195 166.052, 634.593 166.115 C 633.992 166.179, 630.350 168.350, 626.500 170.941 M 427.500 182.935 C 420.048 184.749, 414.289 189.815, 410.941 197.500 C 403.122 215.451, 413.744 234.204, 434.749 239.530 C 438.186 240.402, 442.819 240.977, 445.045 240.808 L 449.092 240.500 452.490 232.184 C 454.359 227.609, 457.014 221.945, 458.391 219.595 C 460.857 215.387, 460.872 215.236, 459.361 209.412 C 455.867 195.947, 448.159 186.313, 438.612 183.477 C 433.233 181.880, 432.068 181.823, 427.500 182.935 M 263 193.571 C 248.599 197.340, 233.521 207.839, 226.483 219 C 220.605 228.322, 218.165 243.672, 221.350 251.294 C 223.266 255.880, 232.773 264.173, 238.578 266.322 C 263.408 275.513, 296.683 258.693, 304.952 232.770 C 306.525 227.840, 305.821 226.935, 301.372 228.163 C 295.833 229.692, 295.091 227.825, 299.751 224.080 C 301.907 222.347, 304.645 219.196, 305.836 217.078 C 308.544 212.260, 308.733 203.973, 306.248 199 C 304.707 195.915, 303.729 195.300, 298 193.818 C 289.756 191.685, 270.720 191.551, 263 193.571 M 639.339 193.879 C 635.462 196.311, 634.197 199.626, 636.331 201.760 C 637.657 203.085, 638.500 203.120, 642.458 202.012 C 648.305 200.375, 655.885 201.246, 661.048 204.147 C 664.183 205.909, 665.279 206.121, 666.246 205.154 C 667.920 203.480, 665.687 199.654, 660.677 195.614 C 657.334 192.919, 655.950 192.491, 649.677 192.214 C 643.877 191.957, 641.894 192.276, 639.339 193.879 M 518.251 211.029 C 512.242 214.475, 508.067 220.081, 507.311 225.720 C 506.921 228.626, 507.226 229.943, 508.542 231.035 C 510.096 232.324, 510.414 232.264, 511.395 230.493 C 513.484 226.724, 520.296 220.802, 524.728 218.902 C 527.200 217.843, 531.477 217, 534.383 217 C 542.375 217, 544.542 213.521, 538.750 209.989 C 533.551 206.819, 524.820 207.262, 518.251 211.029 M 646 232.121 C 642.221 233.623, 638.115 237.932, 635.157 243.500 C 632.706 248.111, 632.500 249.433, 632.500 260.500 C 632.500 271.300, 632.750 273, 635 277.500 C 636.529 280.558, 638.598 283.021, 640.326 283.841 C 644.098 285.631, 644.562 284.861, 642.625 280.021 C 640.177 273.902, 640.474 263.454, 643.250 258.020 C 646.023 252.593, 649.424 250.021, 654.776 249.303 C 660.156 248.582, 663.145 249.410, 667.065 252.708 C 671.249 256.229, 673.951 262.302, 673.978 268.250 C 673.991 271.104, 674.451 273, 675.131 273 C 675.929 273, 676.127 269.970, 675.805 262.720 C 675.303 251.442, 673.008 244.679, 667.451 238.108 C 662.357 232.083, 652.802 229.416, 646 232.121 M 816.500 240.481 C 815.950 240.670, 814.251 241.101, 812.725 241.438 C 805.913 242.942, 799.215 252.684, 795.480 266.520 C 792.953 275.879, 792.428 291.259, 794.376 298.841 C 795.272 302.329, 795.774 305.557, 795.491 306.014 C 795.208 306.472, 793.685 307.130, 792.106 307.477 C 787.944 308.391, 781.518 314.299, 778.978 319.546 C 777.192 323.235, 776.853 325.385, 777.170 331.001 C 777.662 339.710, 781.076 345.112, 788.500 348.929 C 792.959 351.222, 794.613 351.491, 803.791 351.421 C 812.786 351.351, 814.004 351.540, 813.456 352.921 C 810.825 359.554, 812.599 363.510, 818.500 364.166 C 821.445 364.494, 821.511 364.627, 822.129 371.500 C 822.851 379.536, 824.532 384.119, 828.474 388.794 C 835.685 397.345, 848.090 398.385, 856.356 391.129 C 859.397 388.460, 862.265 381.867, 862.937 376 C 863.391 372.038, 863.956 370.586, 864.958 370.808 C 865.723 370.978, 868.840 371.765, 871.885 372.558 C 892.078 377.818, 919.846 367.651, 928.519 351.823 C 934.419 341.056, 931.389 329.728, 920.631 322.334 C 913.001 317.088, 906.392 315.504, 892.500 315.589 C 882.192 315.652, 879.447 316.035, 873.026 318.307 C 868.322 319.973, 865.202 320.602, 864.606 320.006 C 862.530 317.930, 877.685 307, 882.638 307 C 883.575 307, 885.167 307.746, 886.175 308.659 C 887.684 310.024, 888.461 310.111, 890.567 309.151 C 892.668 308.194, 893.070 307.406, 892.813 304.743 C 892.542 301.933, 892.088 301.460, 889.415 301.199 C 887.537 301.016, 885.826 301.505, 885.042 302.449 C 884.334 303.302, 883.023 304.004, 882.128 304.010 C 879.403 304.026, 870.584 308.549, 866.803 311.868 C 864.841 313.591, 862.733 315, 862.118 315 C 855.334 315, 879.614 298.213, 904 286.043 C 925.486 275.321, 939.893 271.605, 957.496 272.244 C 972.643 272.794, 975.048 273.607, 1001.700 287.193 C 1013.360 293.137, 1023.179 298, 1023.520 298 C 1023.860 298, 1023.995 297.055, 1023.820 295.900 C 1023.373 292.968, 984.142 273.067, 972.746 269.992 C 963.473 267.490, 950.323 267.076, 940.088 268.964 C 919.941 272.680, 892.204 286.087, 868.250 303.687 C 864.263 306.617, 861 308.674, 861.001 308.257 C 861.001 307.841, 861.901 305.133, 863.001 302.239 C 864.100 299.346, 865 295.840, 865 294.449 C 865 293.057, 865.945 290.641, 867.099 289.079 C 868.765 286.827, 868.977 285.826, 868.127 284.238 C 866.590 281.365, 864.077 280.720, 861.359 282.500 C 858.621 284.295, 858.303 287.572, 860.619 290.132 C 862.795 292.535, 861.799 298.890, 858.213 305.500 C 856.099 309.396, 854.888 310.570, 852.727 310.819 C 849.976 311.135, 849.960 311.104, 850.727 306.819 C 852.008 299.659, 851.424 282.978, 849.634 275.600 C 845.159 257.163, 833.233 242.858, 820.500 240.656 C 818.850 240.370, 817.050 240.291, 816.500 240.481 M 531.909 246.554 C 529.384 247.331, 525.200 249.832, 522.612 252.111 C 504.834 267.759, 508.626 301.176, 529.374 311.690 C 543.448 318.822, 560.931 313.372, 568.334 299.545 C 570.215 296.032, 570.497 293.921, 570.477 283.500 C 570.448 268.101, 568.367 262.207, 560.006 253.846 C 551.758 245.598, 542.669 243.239, 531.909 246.554 M 810.898 247.273 C 806.650 250.115, 801.684 259.231, 799.334 268.500 C 796.716 278.823, 796.934 295.755, 799.777 302.905 C 802.138 308.845, 801.964 309.989, 798.691 310.022 C 795.533 310.054, 788.862 313.342, 786.298 316.132 C 777.950 325.212, 779.966 339.916, 790.236 344.861 C 796.788 348.016, 801.901 348.445, 810.405 346.553 C 816.753 345.141, 818.304 344.381, 820.159 341.777 L 822.365 338.679 818.432 339.388 C 804.619 341.877, 797.744 341.338, 793.063 337.400 C 787.431 332.660, 788.123 323.726, 794.420 319.885 C 801.459 315.593, 812.279 318.403, 823.312 327.390 C 826.477 329.968, 829.501 331.808, 830.033 331.480 C 831.856 330.353, 830.997 328.235, 827.696 325.718 C 812.413 314.061, 805.143 299.418, 806.291 282.606 C 807.316 267.607, 814.974 258.178, 823.949 260.867 C 829.014 262.384, 835.201 269.249, 837.825 276.262 C 842.180 287.900, 842.411 307.856, 838.358 322.250 C 838.087 323.212, 838.297 324, 838.824 324 C 839.352 324, 840.081 322.813, 840.445 321.363 C 840.809 319.913, 842.201 317.292, 843.539 315.538 C 847.983 309.712, 849.100 290.722, 845.807 277 C 840.390 254.431, 822.707 239.373, 810.898 247.273 M 533.173 250.209 C 531.342 250.828, 527.691 253.270, 525.058 255.637 C 515.886 263.885, 512.793 277.375, 516.942 291.037 C 519.805 300.461, 526.823 307.979, 535.034 310.417 C 540.372 312.003, 544 312.440, 544 311.497 C 544 311.221, 542.226 309.392, 540.058 307.434 C 534.827 302.708, 532.472 296.411, 532.602 287.500 C 532.762 276.629, 537.680 267.948, 545.315 265.064 C 549.925 263.322, 557.131 263.783, 560.863 266.058 C 562.712 267.185, 564.451 267.882, 564.727 267.606 C 565.340 266.993, 561.447 260.366, 558.588 257.155 C 552.867 250.730, 541.126 247.521, 533.173 250.209 M 646.807 257.750 C 641.424 264.017, 646.834 271.960, 653.507 267.587 C 655.436 266.323, 656 265.099, 656 262.177 C 656 260.100, 655.460 257.860, 654.800 257.200 C 653.032 255.432, 648.532 255.741, 646.807 257.750 M 217.169 263.750 C 212.274 271.401, 208.298 280.062, 206.489 287.017 C 204.439 294.895, 204.189 307.553, 205.937 315 C 210.741 335.468, 228.874 353.508, 250.759 359.593 L 256.681 361.239 265.841 352.158 C 270.878 347.163, 275 342.835, 275 342.538 C 275 342.242, 273.762 341.992, 272.250 341.983 C 270.738 341.973, 266.350 341.130, 262.500 340.108 C 237.256 333.411, 224.087 321.229, 220.697 301.441 C 219.234 292.898, 220.951 282.862, 225.473 273.524 L 228.875 266.500 225.235 262.750 C 223.232 260.688, 221.282 259, 220.901 259 C 220.520 259, 218.841 261.137, 217.169 263.750 M 816.364 265.458 C 813.571 267.414, 810.188 275.538, 809.420 282.133 C 808.096 293.497, 813.011 307.452, 821.405 316.160 C 827.602 322.589, 832.910 326.499, 833.952 325.404 C 835.655 323.614, 838.182 307.565, 838.167 298.627 C 838.150 288.048, 836.933 281.848, 833.415 274.411 C 829.083 265.255, 821.979 261.524, 816.364 265.458 M 540.520 273.158 C 538.543 275.508, 538.019 276.980, 538.474 278.908 C 539.897 284.939, 547.137 286.954, 551.545 282.545 C 554.545 279.546, 554.677 276.130, 551.927 272.635 C 548.892 268.776, 544.020 269, 540.520 273.158 M 624 296.639 C 616.952 297.532, 603.338 301.306, 597.250 304.053 C 588.919 307.814, 588.755 310.212, 596.325 317.545 C 607.261 328.136, 624.251 333.098, 632.380 328.074 C 640.561 323.018, 649 310.025, 649 302.486 C 649 298.559, 645.161 296.820, 635.757 296.487 C 631.216 296.327, 625.925 296.395, 624 296.639 M 696.704 298.539 C 689.099 300.052, 681.395 302.753, 674.005 306.498 C 669.298 308.883, 669.081 309.169, 669.653 312.254 C 670.585 317.281, 671.625 317.759, 680 317.015 C 684.125 316.648, 691.995 316.680, 697.488 317.086 C 702.982 317.491, 707.880 317.574, 708.373 317.269 C 709.452 316.603, 708.455 303.327, 707.048 299.627 C 705.925 296.674, 706.030 296.685, 696.704 298.539 M 849.302 316.012 C 848.094 316.499, 846.371 318.316, 845.474 320.051 C 841.118 328.475, 852.248 335.247, 858.411 327.923 C 861.760 323.944, 861.679 321.525, 858.077 317.923 C 855.064 314.910, 853.100 314.482, 849.302 316.012 M 884.248 319.958 C 874.069 321.555, 866.214 325.033, 862.470 329.602 L 859.027 333.803 867.764 331.322 C 878.857 328.171, 893.272 327.784, 899.754 330.462 C 912.371 335.676, 912.059 347.929, 899.112 355.690 C 889.858 361.237, 875.733 362.681, 865.592 359.117 C 860.219 357.228, 849.582 350.611, 847.087 347.605 C 846.355 346.722, 845.360 346, 844.878 346 C 843.655 346, 843.775 349.743, 845.022 350.514 C 847.729 352.187, 852.310 363.735, 852.765 370.032 C 853.199 376.024, 853.014 376.830, 850.530 379.782 C 848.523 382.167, 846.997 383, 844.634 383 C 836.613 383, 831.659 373.235, 833.843 361.731 C 834.341 359.109, 834.468 356.792, 834.124 356.583 C 833.781 356.374, 831.925 357.523, 830 359.136 C 826.556 362.021, 826.500 362.190, 826.500 369.784 C 826.500 376.403, 826.891 378.166, 829.254 382.185 C 833.170 388.846, 837.279 391.500, 843.677 391.500 C 853.379 391.500, 859 384.147, 859 371.455 C 859 367.538, 859.263 364.071, 859.584 363.750 C 859.905 363.429, 861.592 364.006, 863.334 365.032 C 867.719 367.617, 877.417 370, 883.550 370 C 890.126 370, 902.335 366.877, 909.037 363.481 C 915.498 360.207, 923.831 352.580, 925.643 348.282 C 930.287 337.268, 923.031 325.759, 908.775 321.526 C 902.454 319.649, 890.923 318.912, 884.248 319.958 M 672.211 321.250 C 671.014 322.698, 670.317 331.085, 671.266 332.621 C 671.620 333.193, 674.454 334.231, 677.565 334.927 C 680.675 335.623, 686.753 338.004, 691.072 340.218 C 695.390 342.432, 699.556 344.001, 700.330 343.704 C 701.740 343.162, 706.351 331.347, 707.529 325.255 C 708.081 322.400, 707.839 321.889, 705.513 321.005 C 701.526 319.489, 673.497 319.695, 672.211 321.250 M 794.923 323.923 C 791.252 327.594, 791.234 330.111, 794.851 334.160 C 797.340 336.945, 798.479 337.407, 803.812 337.793 C 810.174 338.253, 823.462 335.680, 824.650 333.758 C 825.491 332.397, 818.718 326.667, 812.554 323.523 C 805.414 319.881, 798.815 320.031, 794.923 323.923 M 330.182 329.076 C 318.383 330.215, 301.216 335.242, 289.218 341.071 C 278.067 346.489, 267.537 355.338, 259.783 365.807 C 253.792 373.896, 246.613 388.840, 240.475 406 C 230.802 433.043, 230.833 432.999, 222.559 431.014 C 205.768 426.986, 193.867 435.700, 179.559 462.500 C 176.916 467.450, 171.759 475.775, 168.099 481 C 159.264 493.612, 156.571 498.369, 154.082 505.757 C 150.297 516.992, 151.759 527.825, 157.773 533.105 C 160.621 535.606, 161.733 536, 164.350 535.433 C 170.121 534.184, 177.063 527.717, 181.075 519.853 C 182.493 517.073, 183.489 516.089, 184.182 516.782 C 186.997 519.597, 178.074 533.067, 170.765 537.036 C 164.540 540.416, 164.376 540.653, 166.589 543.100 C 171.210 548.209, 181.664 550.599, 188.320 548.068 C 192.312 546.551, 198.072 539.941, 201.235 533.250 C 202.859 529.813, 204.596 527, 205.094 527 C 208.127 527, 203.437 539.155, 198.028 545.315 C 194.812 548.979, 194.807 549, 197.200 549 C 201.010 549, 209.543 544.248, 213.400 539.979 C 220.244 532.404, 225.186 519.361, 227.063 503.921 L 228.151 494.971 222.576 489.698 C 217.531 484.928, 215.703 482, 217.768 482 C 218.191 482, 220.769 483.845, 223.497 486.099 C 234.341 495.060, 246.735 499.240, 262.500 499.252 C 271.678 499.260, 274.847 498.824, 281.631 496.625 C 305.079 489.022, 324.638 466.634, 333.048 437.773 C 334.213 433.773, 335.369 429.862, 335.616 429.083 C 335.933 428.083, 336.378 427.978, 337.128 428.728 C 338.484 430.084, 336.105 442.019, 332.647 451.207 L 330.174 457.776 333.337 460.788 C 338.506 465.709, 353.460 474.914, 363.822 479.553 C 376.208 485.098, 387.969 488.474, 400.315 490.028 C 410.736 491.340, 429.470 490.930, 431.043 489.357 C 431.634 488.766, 429.511 484.319, 425.362 477.457 C 413.987 458.640, 412.790 456.577, 411.921 454.293 C 407.878 443.659, 425.710 467.911, 436.083 487.154 C 447.274 507.914, 454.103 515.830, 465.320 521.043 C 479.231 527.508, 491.961 527.241, 520.839 519.880 C 531.475 517.169, 542.725 514.695, 545.839 514.382 L 551.500 513.814 554.389 519.438 C 558.391 527.230, 566.471 535.122, 574.486 539.068 C 579.759 541.664, 582.730 542.431, 588.886 542.787 C 598.611 543.350, 602.314 541.724, 605.057 535.684 C 608.326 528.482, 607.115 522.003, 601.367 515.958 C 597.511 511.901, 597.241 511, 599.884 511 C 602.536 511, 608.663 518.124, 609.928 522.679 C 611.691 529.030, 611.245 532.484, 607.528 541.250 C 606.528 543.608, 608.520 543.526, 615.478 540.922 C 626.123 536.940, 630.938 530.353, 630.978 519.718 C 631.003 513.163, 629.530 508.955, 625.563 504.250 C 623.043 501.262, 622.982 501, 624.808 501 C 627.384 501, 632.450 506.804, 634.017 511.551 C 634.757 513.795, 635.058 518.199, 634.773 522.637 C 634.513 526.687, 634.607 530, 634.981 530 C 636.026 530, 641.470 521.927, 643.072 518 C 645.207 512.768, 644.734 501.624, 642.087 494.775 C 634.440 474.987, 610.691 458.581, 582.222 453.419 C 564.266 450.164, 530.692 451.887, 512.189 457.015 C 508.249 458.107, 504.570 459, 504.013 459 C 501.795 459, 503.187 456.823, 506.250 455.501 C 508.923 454.348, 525.512 450.217, 534.750 448.404 C 538.391 447.689, 537.381 446.221, 531.047 443.024 C 523.353 439.140, 510.392 435.407, 499.850 434.039 C 483.224 431.882, 473.483 428.461, 463.873 421.407 C 461.141 419.401, 458.815 417.927, 458.703 418.130 C 458.591 418.334, 457.811 419.843, 456.970 421.486 C 454.091 427.102, 446.512 428.513, 435.932 425.404 C 414.124 418.994, 393.309 398.115, 386.398 375.717 C 385.020 371.251, 384.259 370.075, 383.057 370.552 C 375.651 373.492, 368.370 371.202, 361.291 363.707 C 355.151 357.206, 351.246 349.055, 349.031 338.113 C 346.832 327.251, 347.209 327.432, 330.182 329.076 M 834.304 332.827 C 824.778 340.754, 814.973 354.882, 816.406 358.617 C 817.225 360.749, 820.011 360.262, 825.718 356.989 C 831.310 353.781, 843.580 342.022, 845.945 337.603 C 847.315 335.042, 847.217 334.750, 843.842 331.376 L 840.302 327.835 834.304 332.827 M 871.312 333.477 C 865.419 335.124, 851.258 340.518, 849 341.975 C 846.853 343.361, 848.528 345.624, 855.083 350.193 C 862.881 355.629, 869.796 358, 877.856 358 C 890.151 358, 901.199 352.844, 904.719 345.463 C 906.892 340.906, 905.656 337.288, 900.995 334.562 C 896.448 331.904, 879.196 331.273, 871.312 333.477 M 86.748 350.427 C 84.684 351.163, 81.460 352.937, 79.583 354.369 C 75.406 357.555, 70.264 367.527, 69.386 374.146 C 69.029 376.840, 68.292 379.319, 67.750 379.655 C 67.207 379.990, 65.031 378.238, 62.915 375.762 C 60.798 373.285, 57.521 370.526, 55.632 369.630 C 51.737 367.781, 45.801 367.501, 42.945 369.030 C 38.111 371.617, 36.574 381.460, 39.612 390.376 C 40.499 392.979, 40.972 395.361, 40.664 395.670 C 40.355 395.979, 38.662 395.729, 36.902 395.116 C 26.903 391.630, 17.607 396.319, 14.949 406.188 C 13.539 411.424, 15.810 419.288, 20.509 425.444 C 22.429 427.959, 24 430.238, 24 430.509 C 24 430.779, 22.506 431, 20.679 431 C 18.853 431, 14.918 432.238, 11.934 433.750 C 0.420 439.588, -3.713 455.184, 4.458 461.965 C 6.826 463.930, 7.356 462.589, 5.574 459.143 C 2.037 452.302, 5.136 441.924, 12.091 437.321 C 14.960 435.422, 17.663 434.656, 22.720 434.309 C 32.981 433.604, 32.999 433.577, 27.230 427.713 C 15.751 416.044, 15.083 402.788, 25.749 398.332 C 30.505 396.345, 37.946 397.823, 44.145 401.986 C 46.497 403.565, 48.729 404.667, 49.106 404.435 C 49.483 404.202, 48.020 400.521, 45.856 396.256 C 37.927 380.629, 40.692 368.698, 51.607 371.437 C 55.398 372.389, 62.445 379.603, 66.222 386.399 C 68.025 389.643, 69.950 392.343, 70.500 392.399 C 71.075 392.457, 71.590 389.154, 71.712 384.636 C 72.257 364.456, 81.293 352.113, 94.707 353.226 C 104.097 354.004, 108.982 360.777, 108.994 373.032 C 108.997 376.075, 108.357 381.025, 107.571 384.032 C 105.809 390.772, 106.897 392.408, 110.743 388.803 C 114.860 384.946, 121.417 382, 125.888 382 C 131.227 382, 134.451 385.783, 133.488 390.918 C 132.724 394.986, 129.228 402.071, 125.579 406.944 C 123.219 410.096, 122.232 413, 123.521 413 C 123.808 413, 125.754 411.868, 127.844 410.484 C 132.525 407.387, 141.254 405.450, 146.282 406.393 C 150.996 407.277, 156.530 412.047, 157.996 416.488 C 159.538 421.159, 158.360 426.264, 154.373 432.188 C 152.520 434.943, 151.208 437.528, 151.459 437.934 C 151.710 438.340, 154.336 438.471, 157.294 438.226 C 165.870 437.514, 170.933 440.936, 171.944 448.124 C 172.532 452.305, 173.798 453.267, 175.391 450.742 C 176.851 448.428, 173.413 440.430, 169.875 437.911 C 168.242 436.748, 165.116 435.557, 162.929 435.264 C 160.741 434.970, 158.752 434.407, 158.508 434.013 C 158.264 433.619, 158.950 431.559, 160.032 429.436 C 163.756 422.133, 162.082 412.771, 156.161 407.789 C 151.503 403.869, 146.718 402.646, 138.889 403.374 L 132.089 404.006 134.535 398.753 C 137.938 391.443, 137.808 385.936, 134.134 381.823 C 131.642 379.035, 130.628 378.617, 126.384 378.631 C 123.640 378.640, 119.472 379.553, 116.872 380.714 L 112.243 382.780 112.345 373.640 C 112.429 366.050, 112.076 363.801, 110.267 360.376 C 107.552 355.237, 103.066 351.390, 98.219 350.044 C 93.435 348.715, 91.349 348.785, 86.748 350.427 M 839.092 352.829 C 838.553 353.835, 837.585 357.547, 836.940 361.079 C 835.051 371.418, 838.455 380, 844.443 380 C 851.853 380, 851.782 366.766, 844.308 354.750 C 841.705 350.566, 840.533 350.135, 839.092 352.829 M 614.519 357.559 C 611.779 359.451, 609.056 361, 608.469 361 C 605.800 361, 605.090 363.300, 607.007 365.736 C 609.615 369.052, 612.997 378.370, 613.014 382.288 C 613.031 386.438, 613.998 390, 615.106 390 C 617.040 390, 623.331 378.650, 626.545 369.365 C 628.422 363.939, 629.968 359.372, 629.979 359.214 C 629.991 359.057, 627.862 357.952, 625.250 356.758 C 622.638 355.564, 620.275 354.481, 620 354.352 C 619.725 354.223, 617.258 355.666, 614.519 357.559 M 563 358.101 C 563 359.348, 563.746 363.026, 564.657 366.274 L 566.314 372.180 570.907 371.340 C 583.566 369.025, 595.427 371.982, 603.849 379.554 C 606.568 381.999, 609.101 384, 609.476 384 C 611.266 384, 607.810 373.334, 604.244 367.853 L 601.871 364.207 590.186 363.841 C 578.006 363.459, 578.276 363.537, 563.750 356.212 C 563.337 356.004, 563 356.854, 563 358.101 M 571.750 375.689 C 568.151 376.630, 570.476 382.210, 577.170 388.697 C 583.110 394.454, 589.023 396.951, 596.782 396.978 C 602.802 396.999, 610.031 394.984, 609.972 393.301 C 609.957 392.860, 608.709 390.870, 607.199 388.877 C 600.315 379.789, 590.953 374.967, 580.500 375.126 C 576.650 375.184, 572.712 375.438, 571.750 375.689 M 765.500 390.382 C 754.928 392.122, 748.999 393.913, 730.757 400.874 C 714.490 407.082, 702.876 410.480, 694.056 411.611 C 690.138 412.113, 687.399 413.235, 684.283 415.614 C 679.823 419.018, 674.529 420.985, 669.797 420.994 C 666.986 421, 666.431 421.579, 660.715 430.470 C 653.515 441.671, 640.360 453.344, 628 459.501 C 624.975 461.008, 622.346 462.378, 622.159 462.545 C 621.971 462.712, 626.414 467.345, 632.033 472.839 L 642.248 482.829 650.732 484.033 C 665.459 486.123, 681.766 483.245, 699.881 475.357 C 705.684 472.830, 711.347 470.210, 712.466 469.534 C 713.585 468.858, 719.112 465.714, 724.750 462.547 C 730.388 459.380, 735 456.459, 735 456.057 C 735 455.655, 733.196 453.429, 730.990 451.111 C 726.633 446.530, 721.518 437.416, 722.844 436.596 C 723.297 436.316, 725.887 438.880, 728.600 442.294 C 737.389 453.356, 746.966 458, 760.985 458 C 775.556 458, 784 450.891, 784 438.622 C 784 429.342, 779.487 422.809, 771.044 419.866 C 767.131 418.501, 767.133 417, 771.050 417 C 776.710 417, 782.862 421.760, 786.559 429 C 789.076 433.929, 788.925 443.204, 786.230 449.250 C 784.138 453.942, 784.137 454, 786.096 454 C 789.189 454, 795.483 450.403, 798.350 446.996 C 801.187 443.625, 804.003 435.428, 803.994 430.568 C 803.979 422.019, 799.208 413.379, 792.254 409.303 C 789.236 407.534, 788.190 406.410, 788.901 405.699 C 790.515 404.085, 797.677 407.804, 801.458 412.222 C 806.362 417.951, 808.411 425.512, 807.571 434.781 C 806.947 441.668, 807.029 442.221, 808.501 441 C 811.639 438.395, 815.177 430.969, 815.932 425.401 C 817.954 410.504, 810.061 397.161, 796.147 391.953 C 788.994 389.276, 776.205 388.620, 765.500 390.382 M 932.435 431.458 C 929.817 435.454, 928.531 446.658, 929.720 455.123 C 930.289 459.180, 930.410 462.878, 929.988 463.340 C 929.565 463.802, 927.846 462.183, 926.167 459.742 C 921.364 452.762, 912.339 445, 909.026 445 C 907.480 445, 905.976 445.620, 905.686 446.377 C 904.772 448.758, 906.963 456.136, 910.688 463.226 C 912.662 466.983, 914.009 470.324, 913.682 470.651 C 913.355 470.978, 911 469.863, 908.448 468.173 C 905.897 466.483, 901.357 464.552, 898.360 463.881 C 893.594 462.815, 892.705 462.867, 891.277 464.295 C 889.766 465.805, 889.928 466.196, 893.437 469.505 C 900.474 476.142, 905.595 477.964, 921.840 479.613 C 941.804 481.640, 966.107 485.436, 986.500 489.713 C 1010.357 494.716, 1008.766 494.569, 1011.476 492.023 C 1012.776 490.802, 1014.385 488.485, 1015.051 486.876 C 1017.580 480.772, 1011.029 478.281, 1000.658 481.403 C 995.002 483.105, 993.766 481.918, 997.289 478.169 C 1003.174 471.905, 1005.568 464.968, 1002.800 462.200 C 1000.835 460.235, 994.271 460.828, 987.351 463.597 C 983.781 465.025, 980.634 465.967, 980.357 465.691 C 980.081 465.414, 981.479 462.741, 983.465 459.751 C 987.773 453.262, 989.134 447.372, 986.553 446.382 C 983.133 445.070, 976.802 448.068, 971.234 453.636 C 968.228 456.642, 965.534 458.868, 965.249 458.582 C 964.963 458.296, 965.678 455.011, 966.839 451.281 C 969.765 441.875, 970.303 437.926, 969.091 434.740 C 966.403 427.669, 954.368 435.509, 949.534 447.480 C 948.206 450.769, 946.692 453.603, 946.170 453.777 C 945.648 453.951, 944.695 451.068, 944.051 447.371 C 942.667 439.424, 940.701 434.375, 937.778 431.264 C 935.090 428.403, 934.422 428.427, 932.435 431.458 M 325.042 467.177 C 317.605 477.628, 313.339 482.502, 307.133 487.637 C 298.136 495.082, 286.567 500.668, 276 502.671 C 271.325 503.557, 266.985 504.412, 266.355 504.569 C 264.851 504.947, 253.677 525.945, 250.637 534.108 C 245.859 546.937, 246.365 557.347, 252.104 564.310 C 255.613 568.566, 258.857 569.070, 263.414 566.066 C 267.164 563.594, 271.775 556.717, 272.588 552.385 C 272.959 550.407, 273.819 549, 274.657 549 C 276.603 549, 275.501 554.956, 272.413 561.120 C 270.222 565.492, 264.932 571, 262.923 571 C 260.389 571, 262.490 573.979, 266.020 575.391 C 278.501 580.385, 288.827 573.771, 292.279 558.573 C 292.987 555.454, 294.002 552.941, 294.533 552.990 C 296.290 553.150, 295.181 563.994, 292.934 568.637 C 291.744 571.094, 291.035 573.369, 291.358 573.692 C 292.202 574.535, 298.517 569.507, 301.368 565.721 C 302.703 563.950, 304.527 560.313, 305.423 557.640 C 307.100 552.634, 310.212 528.151, 309.348 526.754 C 309.081 526.323, 307.207 525.278, 305.182 524.434 C 299.967 522.258, 296.844 520.061, 297.487 519.021 C 297.790 518.530, 300.112 519.047, 302.647 520.168 C 309.098 523.022, 320.681 523.635, 329.397 521.584 C 338.221 519.507, 346.111 515.278, 354.790 507.972 C 361.104 502.657, 372.001 490.748, 372 489.163 C 371.999 488.798, 367.240 486.287, 361.423 483.581 C 351.493 478.963, 340.212 472.146, 331.793 465.677 L 328.119 462.853 325.042 467.177 M 884.365 497.492 C 884.050 498.313, 884.270 501.800, 884.855 505.242 C 887.844 522.836, 891.033 564.033, 889.400 563.959 C 888.905 563.937, 886.589 559.977, 884.254 555.159 C 877.017 540.229, 863.115 525.912, 852.874 522.844 C 846.129 520.823, 846.051 522.521, 852.352 534.268 C 861.385 551.108, 868.743 569.378, 872.582 584.500 C 873.420 587.800, 874.337 591.288, 874.620 592.250 C 875.500 595.241, 873.629 594.140, 870.630 589.901 C 864.278 580.927, 845.683 568.917, 842.722 571.878 C 842.100 572.500, 844.441 577.239, 849.290 585.172 C 853.434 591.953, 858.310 600.538, 860.127 604.250 C 861.943 607.962, 864.038 611, 864.782 611 C 865.725 611, 865.923 610.318, 865.437 608.750 C 864.310 605.117, 859.150 595.127, 853.782 586.188 C 851.037 581.616, 849.046 577.621, 849.357 577.309 C 850.402 576.265, 859.673 582.976, 865.184 588.767 C 868.185 591.920, 872.334 597.538, 874.406 601.250 C 880.485 612.145, 881.423 609.873, 877.953 592.657 C 874.998 577.999, 868.884 560.733, 860.399 543.089 C 856.323 534.613, 853.174 527.492, 853.401 527.265 C 854.270 526.397, 859.991 530.138, 865.555 535.213 C 876.658 545.340, 885.075 561.283, 889.861 581.250 C 891.278 587.163, 892.789 592, 893.219 592 C 895.382 592, 893.299 544.747, 889.980 518.541 C 888.938 510.313, 888.332 503.338, 888.632 503.041 C 889.600 502.084, 893.899 508.278, 898.012 516.552 C 905.510 531.637, 909 550.222, 909 575.072 C 909 583.833, 909.398 591, 909.885 591 C 910.372 591, 911.300 587.372, 911.949 582.937 C 913.730 570.753, 919.534 548.132, 923.543 537.745 C 928.171 525.756, 935.365 513, 937.498 513 C 939.302 513, 935.155 541.013, 927.955 577.462 C 924.727 593.806, 924.585 595, 925.866 595 C 926.342 595, 927.750 592.188, 928.995 588.750 C 934.631 573.187, 944.572 557.507, 955.193 547.430 C 962.122 540.855, 973.168 533.835, 974.496 535.162 C 974.833 535.500, 972.408 539.891, 969.106 544.919 C 959.174 560.046, 945.796 586.825, 943.464 596.250 C 942.326 600.847, 944.620 599.407, 948.086 593.350 C 952.221 586.122, 962.572 575.142, 969.729 570.392 C 975.461 566.587, 984.847 562.513, 985.765 563.432 C 986.050 563.716, 984.636 565.959, 982.624 568.414 C 974.283 578.593, 956.715 609.048, 958.280 610.614 C 958.703 611.037, 961.401 609.099, 964.275 606.307 C 974.001 596.859, 985.800 590.197, 995.750 588.534 C 1000.262 587.781, 1001.562 589.094, 998.126 590.933 C 995.215 592.490, 973.915 616.054, 974.526 617.041 C 974.824 617.524, 977.865 617.658, 981.284 617.340 C 984.709 617.022, 989.282 617.256, 991.470 617.861 C 996.002 619.116, 998.445 617.844, 995.022 616.012 C 993.815 615.366, 990.392 614.586, 987.414 614.279 C 984.193 613.947, 982 613.236, 982 612.525 C 982 611.867, 987.422 606.022, 994.048 599.535 C 1001.514 592.227, 1005.969 587.124, 1005.762 586.120 C 1005.495 584.830, 1004.323 584.548, 1000.011 584.736 C 992.411 585.067, 982.960 588.461, 975.261 593.624 C 971.649 596.046, 968.497 597.830, 968.255 597.589 C 967.183 596.516, 979.497 577.645, 987.877 567.518 C 990.145 564.778, 992 561.680, 992 560.632 C 992 555.639, 971.343 563.630, 961.250 572.527 C 958.362 575.072, 956 576.629, 956 575.986 C 956 572.737, 971.006 547.266, 980.616 534.203 C 985.004 528.239, 975.488 529.129, 964.682 535.693 C 953.818 542.292, 944.897 552.036, 934.262 568.917 C 933.078 570.796, 933.655 565.909, 936.496 550 C 940.190 529.312, 942.489 510.718, 941.630 508.479 C 939.864 503.877, 933.069 510.466, 926.486 523.164 C 922.145 531.539, 914.045 553.676, 914.015 557.250 C 914.007 558.212, 913.550 559, 913 559 C 912.450 559, 912 557.954, 912 556.676 C 912 551.727, 908.701 535.147, 906.295 528 C 902.644 517.156, 896.585 505.969, 891.477 500.637 C 886.772 495.727, 885.293 495.073, 884.365 497.492 M 772.544 502.754 C 769.067 508.008, 765.414 517.376, 763.967 524.750 C 763.292 528.188, 762.417 531, 762.022 531 C 761.627 531, 760.448 529.099, 759.402 526.776 C 755.264 517.588, 746.201 508.941, 742.283 510.445 C 740.538 511.114, 740.966 517.902, 743.543 530.432 C 744.327 534.245, 744.750 537.584, 744.483 537.851 C 744.215 538.118, 741.994 536.899, 739.547 535.141 C 733.309 530.661, 727.142 528.048, 722.750 528.022 C 718.501 527.997, 717.944 529.458, 720.635 533.566 C 721.535 534.939, 722.043 536.290, 721.766 536.568 C 721.488 536.846, 717.714 535.865, 713.380 534.388 C 707.293 532.313, 703.452 531.679, 696.500 531.601 C 687.618 531.501, 682 532.342, 682 533.771 C 682 534.174, 687.288 534.503, 693.750 534.502 C 707.522 534.500, 717.358 537.100, 724.660 542.674 C 727.057 544.503, 729.238 546, 729.509 546 C 730.780 546, 729.693 542.999, 726.507 537.715 C 723.816 533.254, 723.339 531.807, 724.418 531.393 C 726.726 530.507, 736.118 535.569, 742.160 540.955 C 747.661 545.857, 750.742 547.376, 749.705 544.673 C 749.195 543.346, 745.682 525.754, 744.543 518.828 C 743.729 513.880, 745.186 513.339, 749.014 517.168 C 753.476 521.630, 756.684 527.001, 759.863 535.331 C 761.368 539.274, 763.027 542.401, 763.549 542.281 C 764.072 542.160, 764.843 539.054, 765.262 535.378 C 766.599 523.661, 772.628 505, 775.078 505 C 776.841 505, 777.130 507.670, 777.083 523.512 C 777.055 532.580, 777.424 540, 777.903 540 C 778.381 540, 780.675 536.797, 783 532.883 C 789.363 522.173, 806.442 505.109, 808.620 507.286 C 809.274 507.940, 805.490 515.434, 797.240 529.824 C 792.510 538.074, 791.047 541.447, 791.850 542.250 C 792.654 543.054, 793.434 542.929, 794.726 541.793 C 798.765 538.241, 809.834 534.167, 811.344 535.677 C 811.663 535.996, 810.344 538.184, 808.414 540.540 C 804.033 545.886, 805.437 547.242, 810.141 542.209 C 815.990 535.951, 816.410 535.199, 815 533.500 C 813.371 531.537, 810.706 531.649, 804.011 533.960 C 800.992 535.002, 798.375 535.708, 798.196 535.529 C 798.017 535.350, 801.026 529.421, 804.884 522.352 C 812.847 507.757, 814.049 504.340, 811.552 503.382 C 807.048 501.653, 791.278 514.388, 784.475 525.248 C 782.839 527.860, 781.147 529.997, 780.716 529.998 C 780.284 529.999, 780.212 527.862, 780.555 525.250 C 781.322 519.413, 779.506 502.315, 777.917 500.400 C 776.150 498.271, 775.250 498.665, 772.544 502.754 M 386.434 540.250 C 382.925 544.407, 378.330 554.085, 377.482 559.106 C 377.120 561.248, 376.450 563, 375.994 563 C 375.537 563, 374.202 561.445, 373.027 559.544 C 370.239 555.033, 361.432 547.146, 358.306 546.362 C 353.743 545.217, 353.457 547.246, 356.847 556.723 C 358.581 561.571, 360 566.076, 360 566.734 C 360 567.556, 358.624 567.339, 355.592 566.040 C 348.823 563.138, 342.680 562.475, 341.026 564.468 C 339.834 565.906, 340.387 566.833, 345.552 572.053 C 348.789 575.324, 351.789 578, 352.219 578 C 353.843 578, 352.868 576.132, 348.877 571.597 C 346.609 569.021, 344.957 566.709, 345.207 566.460 C 346.205 565.462, 355.933 569.169, 359.949 572.078 C 362.300 573.781, 364.588 574.798, 365.031 574.338 C 365.474 573.877, 364.102 568.447, 361.980 562.271 C 359.859 556.095, 358.491 550.815, 358.939 550.537 C 360.802 549.386, 368.938 558.261, 372.651 565.493 C 374.768 569.617, 376.997 572.993, 377.605 572.996 C 378.234 572.998, 378.965 570.278, 379.301 566.684 C 380.251 556.504, 387.449 539.923, 390.183 541.613 C 391.329 542.321, 390.690 565.089, 389.393 569.750 C 388.930 571.414, 389.188 572, 390.383 572 C 391.273 572, 392 571.586, 392 571.081 C 392 570.575, 394.210 567.743, 396.911 564.788 C 401.843 559.391, 411.179 553.374, 412.935 554.460 C 413.453 554.780, 411.403 559.082, 408.379 564.021 C 405.356 568.960, 403.159 573.448, 403.496 573.993 C 403.870 574.598, 405.663 574.192, 408.096 572.951 C 412.614 570.646, 422.474 568.557, 424.097 569.560 C 424.762 569.971, 423.918 571.521, 421.889 573.615 C 419.712 575.860, 418.939 577.339, 419.598 577.998 C 420.943 579.343, 429.470 570.668, 428.721 568.716 C 427.924 566.639, 422.774 565.905, 416.866 567.025 C 414.039 567.561, 411.327 568, 410.838 568 C 410.349 568, 411.794 564.637, 414.050 560.527 C 416.306 556.417, 417.866 552.592, 417.517 552.027 C 415.590 548.910, 404.093 553.083, 398.563 558.907 C 396.948 560.608, 395.260 562, 394.813 562 C 394.366 562, 394 557.245, 394 551.434 C 394 536.740, 391.953 533.713, 386.434 540.250 M 93.449 550.945 C 85.082 553.924, 81.819 555.997, 74.635 562.902 C 59.576 577.377, 50.068 596.882, 47.777 618 C 47.151 623.775, 46.579 628.603, 46.508 628.728 C 46.436 628.853, 44.025 626.748, 41.150 624.049 C 35.387 618.638, 27.383 614.217, 25.949 615.651 C 25.414 616.186, 27.734 621.934, 31.664 629.803 C 35.303 637.090, 38.006 643.327, 37.671 643.663 C 37.335 643.998, 34.767 643.286, 31.964 642.080 C 26.747 639.835, 19.500 639.545, 19.500 641.581 C 19.500 643.045, 32.897 657.436, 33.603 656.731 C 34.345 655.989, 32.395 652.373, 28.735 647.704 C 27.098 645.616, 26.001 643.666, 26.296 643.370 C 27.272 642.394, 36.442 647.046, 39.637 650.138 C 41.510 651.950, 43.034 652.753, 43.419 652.131 C 44.162 650.928, 38.698 636.307, 34.104 627.205 C 32.381 623.792, 31.461 621, 32.060 621 C 33.922 621, 45.071 632.270, 47.854 636.966 C 49.309 639.422, 51.473 643.697, 52.663 646.466 C 53.852 649.235, 55.376 651.500, 56.048 651.500 C 56.721 651.500, 57.857 649.250, 58.571 646.500 C 62.313 632.102, 67.998 621.799, 77.243 612.664 C 81.048 608.904, 84.395 606.062, 84.681 606.347 C 84.966 606.633, 83.422 611.509, 81.249 617.183 C 77.808 626.170, 73.418 640.693, 71.576 649.189 C 70.508 654.113, 72.769 653.078, 77.469 646.491 C 82.225 639.826, 89.222 633.870, 96.710 630.113 C 101.182 627.869, 103 627.492, 103 628.809 C 103 629.254, 99.400 635.442, 95.001 642.559 C 90.601 649.677, 87.001 656.080, 87.001 656.788 C 87 657.536, 87.943 657.964, 89.250 657.809 C 90.487 657.663, 96.225 658.208, 102 659.021 C 108.564 659.946, 119.810 660.474, 132 660.430 C 161.320 660.325, 176.884 656.914, 185.305 648.747 L 189.500 644.679 211.500 644.560 C 236.173 644.427, 240.706 643.515, 245.604 637.694 C 247.916 634.946, 248.171 633.943, 247.703 629.411 C 246.715 619.842, 240.251 610.672, 230.804 605.438 C 225.868 602.704, 224.762 602.500, 214.863 602.500 C 204.360 602.500, 204.125 602.552, 196.089 606.655 L 187.950 610.810 186.419 608.655 C 185.577 607.470, 182.709 603.125, 180.046 599 C 166.273 577.665, 138.500 555.491, 119.284 550.486 C 111.602 548.485, 99.767 548.695, 93.449 550.945 M 95 554.875 C 80.606 559.500, 68.345 572.317, 58.772 592.745 C 51.476 608.314, 48.733 630.635, 53.070 639.137 C 54.208 641.368, 55.412 642.922, 55.744 642.589 C 56.077 642.257, 57.555 638.885, 59.029 635.095 C 64.256 621.661, 76.274 606.962, 86.152 601.923 C 91.510 599.189, 92.006 601.065, 88.013 608.974 C 84.425 616.082, 78 634.687, 78 637.969 C 78 639.936, 78.590 639.652, 83.250 635.440 C 91.366 628.105, 106.265 621.920, 107.578 625.342 C 107.911 626.212, 104.968 632.098, 100.577 639.341 C 96.410 646.215, 93 652.269, 93 652.795 C 93 655.166, 120.279 657.436, 139 656.622 C 172.776 655.154, 186.694 648.385, 187.815 632.882 C 188.813 619.079, 180.134 602.337, 162.547 584.139 C 137.978 558.718, 114.583 548.582, 95 554.875 M 567.666 574.711 C 560.123 580.078, 550.923 594.783, 547.798 606.467 C 547.131 608.960, 546.246 611, 545.831 611 C 545.416 611, 544.584 609.087, 543.982 606.750 C 541.871 598.552, 540.734 595.452, 537.770 589.806 C 534.349 583.288, 531.701 580.517, 529.648 581.305 C 527.419 582.160, 526.674 595.676, 527.989 611.371 C 528.626 618.969, 528.975 625.358, 528.765 625.568 C 528.555 625.779, 525.259 622.898, 521.441 619.166 C 514.881 612.755, 507.054 607.939, 500.759 606.440 C 495.949 605.295, 496.194 608.297, 501.840 619.649 C 504.678 625.355, 507 630.427, 507 630.920 C 507 631.413, 503.962 630.260, 500.250 628.358 C 492.113 624.188, 481 621.925, 478.569 623.942 C 477.162 625.111, 477.880 626.203, 484.771 633.382 C 489.058 637.847, 492.989 641.646, 493.508 641.825 C 496.085 642.714, 494.536 639.566, 489.436 633.555 C 486.325 629.888, 483.962 626.704, 484.186 626.481 C 484.835 625.831, 494.168 628.520, 498 630.461 C 499.925 631.435, 503.897 634.021, 506.827 636.207 C 509.756 638.392, 512.441 639.892, 512.793 639.540 C 513.720 638.614, 510.481 629.836, 505.495 619.757 C 503.115 614.948, 501.529 610.791, 501.969 610.519 C 503.156 609.786, 512.298 614.956, 517.428 619.262 C 519.892 621.331, 524.280 626.608, 527.177 630.989 C 530.075 635.370, 532.755 638.627, 533.134 638.227 C 533.513 637.827, 533.207 632.100, 532.455 625.500 C 530.930 612.121, 530.531 586, 531.852 586 C 533.116 586, 538.640 598.609, 540.396 605.500 C 541.237 608.800, 542.464 615.888, 543.123 621.250 C 544.382 631.503, 545.513 633.510, 546.502 627.250 C 548.573 614.144, 551.574 604.037, 556.031 595.151 C 560.607 586.028, 568.089 576.756, 569.631 578.298 C 569.998 578.665, 567.311 590.768, 563.660 605.193 C 559.810 620.402, 557.393 631.793, 557.906 632.306 C 558.419 632.819, 560.400 630.105, 562.621 625.845 C 568.039 615.455, 580.384 603.176, 590.088 598.525 C 594.056 596.624, 597.664 595.292, 598.107 595.566 C 598.551 595.840, 596.374 599.988, 593.269 604.782 C 582.786 620.975, 575.119 634.495, 575.944 635.333 C 576.396 635.791, 578.956 634.485, 581.633 632.432 C 584.310 630.378, 588.975 627.592, 592 626.240 C 597.861 623.622, 609 621.984, 609 623.741 C 609 624.301, 606.992 626.405, 604.537 628.416 C 598.543 633.328, 592.453 640.863, 593.594 641.957 C 595 643.305, 615.345 623.341, 614.584 621.359 C 613.557 618.681, 598.092 619.969, 590.596 623.357 C 587.349 624.825, 584.542 625.875, 584.358 625.691 C 584.174 625.507, 588.297 618.639, 593.519 610.428 C 598.742 602.218, 602.895 594.825, 602.749 594 C 602.053 590.076, 591.657 593.012, 581.499 600.001 C 578.988 601.728, 574.249 605.903, 570.967 609.277 C 567.685 612.652, 565 615.055, 565 614.617 C 565 614.178, 567.059 605.558, 569.576 595.461 C 575.415 572.037, 575.170 569.372, 567.666 574.711 M 753.500 576.099 C 741.931 577.578, 734.389 581.595, 725.661 590.930 C 721.228 595.670, 714 608.876, 714 612.234 C 714 614.057, 711.969 615.998, 710.050 616.010 C 706.858 616.030, 697.859 621.052, 693.192 625.418 C 684.743 633.320, 679.887 646.126, 683.339 651.395 C 687.080 657.103, 706.879 660.673, 729.485 659.714 C 748.274 658.916, 755.637 656.339, 758.533 649.545 L 759.792 646.590 784.146 646.526 C 804.112 646.473, 809.798 646.137, 815.706 644.660 C 828.364 641.497, 833.467 636.465, 833.467 627.144 C 833.467 618.323, 828.952 610.037, 819.132 600.834 C 800.478 583.352, 774.209 573.452, 753.500 576.099 M 750.270 580.054 C 743.203 581.449, 737.749 584.412, 731.356 590.330 C 725.263 595.972, 718.570 606.701, 717.843 611.993 C 717.514 614.385, 717.784 614.518, 724.448 615.260 C 737.541 616.719, 748.673 624.280, 754.885 635.935 L 758.034 641.844 764.767 642.602 C 774.793 643.731, 801.574 643.412, 809 642.075 C 818.770 640.316, 824.446 638.219, 827.106 635.384 C 830.728 631.525, 830.467 622.377, 826.529 615.192 C 814.502 593.251, 775.188 575.136, 750.270 580.054 M 208.501 606.071 C 205.752 606.530, 200.577 608.401, 197.001 610.229 C 190.735 613.432, 190.510 613.678, 190.776 617.026 C 190.927 618.937, 191.247 624.720, 191.487 629.878 C 191.726 635.035, 192.127 639.460, 192.376 639.710 C 192.626 639.960, 197.410 640.562, 203.007 641.048 C 216.580 642.227, 232.926 640.715, 239 637.719 C 243.048 635.723, 243.532 635.109, 243.819 631.611 C 244.048 628.815, 243.265 625.949, 241.034 621.417 C 235.018 609.197, 223.191 603.618, 208.501 606.071 M 713.791 619.081 C 710.650 619.541, 706.218 620.868, 703.941 622.030 C 694.323 626.937, 686 638.136, 686 646.171 C 686 649.376, 686.465 650.189, 689.069 651.536 C 694.472 654.330, 706.964 656.153, 721.500 656.269 C 743.550 656.444, 755 653.336, 755 647.174 C 755 639.743, 745.286 626.737, 736.318 622.162 C 733.043 620.492, 721.913 617.724, 720.066 618.122 C 719.755 618.189, 716.931 618.621, 713.791 619.081 M 312.468 627.052 C 312.073 627.691, 311.517 633.116, 311.233 639.107 C 310.949 645.098, 310.440 650, 310.102 650 C 309.765 650, 308.878 648.621, 308.132 646.936 C 304.730 639.251, 287.548 625.052, 284.879 627.721 C 284.289 628.311, 285.379 631.812, 287.792 637.082 C 292.650 647.689, 295.555 655.779, 294.782 656.551 C 294.454 656.879, 292.721 656.390, 290.931 655.464 C 286.298 653.069, 276.801 652.330, 275.214 654.242 C 274.193 655.472, 275.161 656.917, 280.960 662.820 C 284.795 666.724, 288.194 669.496, 288.513 668.980 C 289.339 667.642, 287.712 665.027, 283.582 661.054 C 279.421 657.051, 279.137 655.983, 282.250 656.044 C 285.994 656.117, 291.622 658.532, 295.850 661.881 C 298.051 663.624, 300.109 664.632, 300.425 664.121 C 301.072 663.075, 294.846 644.578, 291.911 638.825 C 287.940 631.043, 290.189 631.029, 297.950 638.790 C 302.035 642.875, 304.981 647.145, 307.957 653.294 C 310.278 658.088, 312.586 661.756, 313.088 661.446 C 313.590 661.136, 314 654.635, 314 647 C 314 639.193, 314.421 632.858, 314.962 632.524 C 317.227 631.124, 321.183 643.024, 322.517 655.250 C 322.862 658.413, 323.478 661, 323.887 661 C 324.295 661, 325.392 659.402, 326.323 657.448 C 329.519 650.747, 341.878 639.348, 343.340 641.754 C 343.590 642.164, 342.063 646.775, 339.948 652 C 334.772 664.783, 334.810 667.281, 340.115 663.137 C 345.350 659.049, 355.021 655.277, 357.051 656.532 C 357.583 656.860, 356.747 658.990, 355.175 661.312 C 351.058 667.394, 350.871 667.803, 351.913 668.446 C 353.256 669.276, 362.209 657.327, 361.812 655.235 C 361.288 652.467, 355.018 652.509, 348.044 655.326 C 344.313 656.833, 342.002 657.334, 342.005 656.634 C 342.007 656.010, 343.373 651.995, 345.039 647.710 C 346.706 643.426, 347.771 639.439, 347.407 638.850 C 345.521 635.797, 332.559 642.445, 328.591 648.501 C 327.691 649.876, 326.573 651, 326.107 651 C 325.641 651, 324.748 648.413, 324.122 645.250 C 323.495 642.087, 321.524 636.581, 319.740 633.013 C 316.619 626.769, 313.980 624.606, 312.468 627.052 M 873.244 641.929 C 864.181 646.143, 857 654.203, 857 660.164 C 857 666.558, 866.972 670, 885.500 670 C 900.460 670, 908.353 668.220, 912.250 663.969 C 915.829 660.064, 915.719 657.297, 911.750 651.386 C 909.375 647.848, 906.905 645.731, 902.576 643.522 C 897.395 640.879, 895.451 640.466, 887.076 640.225 C 879.238 640, 876.728 640.309, 873.244 641.929 M 876.703 644.376 C 863.773 649.214, 856.770 660.228, 864.330 663.836 C 874.006 668.452, 903.440 667.410, 909.250 662.246 C 913.499 658.468, 909.363 650.738, 900.761 646.379 C 894.412 643.161, 882.582 642.177, 876.703 644.376" stroke="none" fill="black" fill-rule="evenodd"/>
</svg>