<svg xmlns="http://www.w3.org/2000/svg" width="1024" height="688" viewBox="0 0 1024 688" version="1.1">
	<path d="M 327.500 14.446 C 326.950 14.654, 325.271 15.096, 323.768 15.427 C 320.355 16.179, 314.399 21.328, 312.343 25.304 C 311.487 26.958, 310.763 30.928, 310.733 34.128 C 310.573 51.117, 329.797 60.019, 342.521 48.848 C 352.328 40.236, 350.321 22.718, 338.849 16.792 C 335.222 14.919, 329.416 13.719, 327.500 14.446 M 322.207 19.669 C 312.572 24.417, 311.306 40.822, 320.077 47.245 C 332.027 55.996, 348.917 44.546, 345.080 30.297 C 342.263 19.834, 331.767 14.957, 322.207 19.669 M 940.086 30.760 C 938.163 32.683, 936.013 37.461, 932.998 46.510 C 925.451 69.168, 912.211 92.373, 896.204 111 C 881.091 128.586, 840.965 167.422, 814.500 190.078 C 790.758 210.402, 755.653 235.655, 743.491 241.158 C 736.528 244.308, 724.524 244.332, 717.626 241.209 C 713.495 239.339, 712.943 238.774, 713.999 237.502 C 714.684 236.676, 715.651 236, 716.147 236 C 718.205 236, 730.083 227.633, 733.893 223.500 C 739.750 217.146, 739.054 214, 731.789 214 L 727.979 214 745.741 196.250 C 755.511 186.488, 770.703 171.019, 779.502 161.876 C 800.053 140.520, 810.925 133.219, 827.770 129.460 C 836.868 127.430, 839 126.404, 839 124.057 C 839 117.180, 817.809 119.817, 800.503 128.849 C 790.299 134.174, 780.577 141.778, 762 158.962 C 742.765 176.754, 733.553 184.354, 722.500 191.547 C 713.271 197.553, 704.039 202.382, 703.915 201.267 C 703.868 200.845, 703.903 198.091, 703.992 195.147 C 704.191 188.588, 701.533 185, 696.474 185 C 693.234 185, 691.643 185.945, 681.022 194.181 C 674.150 199.510, 667.013 202.480, 657.388 204.018 C 645.260 205.955, 638.070 204.140, 602.113 190.065 C 555.729 171.909, 542.469 168.425, 515.500 167.308 C 456.723 164.873, 394.606 192.668, 314.500 257.249 C 303.051 266.479, 289.320 267.451, 268.500 260.505 C 233.906 248.964, 179.977 215.359, 144.500 183.235 C 124.363 165.001, 110.778 150.425, 78.363 112.270 C 72.148 104.956, 67.744 101.823, 63.503 101.703 C 39.010 101.009, 67.246 191.652, 115.773 269.500 C 146.124 318.190, 174.680 349.413, 215.023 378.017 C 222.933 383.625, 224.981 385.551, 224.407 386.845 C 215.764 406.322, 216.022 423.546, 225.222 441.376 C 231.031 452.635, 245.328 467.064, 255.884 472.322 C 262.187 475.461, 264.252 476, 269.984 476 C 278.935 476, 283.405 472.945, 287.366 464.119 L 290.129 457.963 294.314 460.566 C 301.634 465.118, 315.133 471.103, 327 475.059 C 337.847 478.674, 356.311 483, 360.897 483 C 362.488 483, 363.665 484.510, 365.879 489.393 C 369.374 497.103, 375.516 503.376, 383 506.882 C 393.498 511.800, 410.300 510.678, 419.483 504.447 C 422.096 502.674, 424.439 502, 427.993 502 C 449.099 502, 483.989 493.142, 515.500 479.783 C 564.050 459.200, 581.467 455.029, 619 454.994 C 672.089 454.945, 727.548 432.854, 780.158 390.798 C 839.738 343.171, 885.065 284.610, 915.555 215.870 C 943.330 153.251, 958.710 89.972, 955.005 53.552 C 953.613 39.869, 951.738 33.799, 947.907 30.575 C 944.074 27.350, 943.482 27.364, 940.086 30.760 M 943.282 35.261 C 942.763 35.942, 940.646 41.450, 938.578 47.500 C 933.677 61.839, 924.717 80.498, 917.391 91.621 C 911.026 101.287, 898.043 117.759, 893.102 122.437 C 888.919 126.398, 889.195 127.452, 893.800 125.102 C 898.420 122.745, 906.648 121.148, 910.931 121.777 C 912.666 122.031, 915.355 123.509, 916.906 125.060 C 921.620 129.774, 922.157 137.309, 919.007 154.575 C 916.584 167.862, 910.355 192.045, 909.010 193.390 C 906.841 195.559, 907.047 192.690, 909.874 181.371 C 919.127 144.323, 920.002 130.668, 913.399 126.342 C 907.729 122.627, 893.597 127.041, 881.500 136.305 C 874.040 142.017, 849.317 165.572, 850.008 166.309 C 850.288 166.606, 853.213 166.216, 856.508 165.441 C 871.748 161.856, 883.750 165.007, 889.258 174.039 C 892.733 179.735, 894.049 189.471, 892.829 200.441 C 891.997 207.912, 887.363 229.970, 886.429 230.905 C 884.774 232.560, 885.038 228.071, 887.349 215.260 C 891.983 189.568, 890.805 178.426, 882.699 171.309 C 876.570 165.928, 864.330 165.626, 849.994 170.502 C 842.517 173.045, 839.182 175.178, 830.467 182.989 C 827.699 185.470, 823.714 188.990, 821.612 190.812 C 819.510 192.633, 817.955 194.288, 818.156 194.490 C 818.358 194.691, 821.667 194.176, 825.511 193.346 C 840.670 190.071, 856.514 193.564, 862.582 201.519 C 868.647 209.470, 870.892 221.779, 869.065 237.064 C 867.898 246.827, 862.555 268.791, 860.947 270.433 C 858.919 272.505, 859.057 269.804, 861.449 260.597 C 869.421 229.915, 868.154 210.488, 857.573 201.198 C 851.182 195.587, 840.827 193.826, 827.213 196.035 C 815.869 197.876, 810.717 200.579, 791.973 214.520 C 782.106 221.859, 773.040 228.559, 771.826 229.409 C 768.117 232.007, 770.297 232.132, 779.600 229.855 C 785.798 228.338, 791.840 227.651, 799.500 227.591 C 809.824 227.510, 810.904 227.696, 817.068 230.615 C 832.644 237.990, 839.598 251.968, 839.398 275.500 C 839.262 291.450, 834.763 315, 831.852 315 C 831.309 315, 831.109 314.212, 831.407 313.250 C 833.022 308.030, 835.141 295.445, 836.164 284.982 C 838.246 263.712, 834.780 249.615, 825.087 239.933 C 813.800 228.658, 799.441 227.370, 770.584 235.045 C 761.084 237.572, 758.231 238.880, 748.584 245.129 C 729.819 257.285, 726.613 258.976, 719.531 260.458 C 714.358 261.540, 711.381 261.638, 707.113 260.864 C 696.379 258.917, 690.481 253.789, 681.969 239 C 676.252 229.067, 668.320 221.422, 658.439 216.321 C 649.901 211.912, 636.455 207.212, 635.400 208.267 C 635.044 208.622, 636.655 211.070, 638.979 213.707 C 646.464 222.197, 649.924 230.965, 653.071 249.424 C 656.064 266.975, 659.915 274.522, 668.424 279.508 C 679.652 286.088, 691.807 285.074, 722.132 275.026 C 749.773 265.866, 755.365 264.696, 769.280 265.160 C 779.366 265.496, 781.177 265.853, 787.201 268.691 C 803.246 276.252, 811 290.634, 811 312.836 C 811 325.807, 806.849 345.183, 804.561 342.894 C 804.260 342.593, 804.949 338.106, 806.093 332.923 C 807.771 325.320, 808.101 320.990, 807.799 310.500 C 807.446 298.219, 807.238 297.096, 804.041 290.199 C 797.004 275.017, 784.788 267.702, 766.607 267.782 C 755.250 267.831, 748.848 269.308, 722.500 277.956 C 700.463 285.189, 688.774 287.612, 681.100 286.538 C 662.957 283.999, 653.812 273.839, 650.464 252.500 C 648.246 238.363, 646.301 231.383, 642.685 224.578 C 638.827 217.318, 631.134 208.739, 625.617 205.545 C 621.067 202.910, 591.126 191, 589.052 191 C 588.334 191, 590.840 194.290, 594.623 198.311 C 606.147 210.562, 611.491 221.365, 615.681 240.883 C 622.355 271.972, 625.297 279.317, 635.211 289.642 C 649.007 304.008, 666.457 307.823, 696 302.929 C 725.541 298.036, 738.097 298.406, 750.683 304.541 C 762.748 310.423, 767.942 318.981, 767.978 333.040 C 768.016 347.926, 763 361.405, 752.363 375 C 746.939 381.932, 732.353 394.686, 731.184 393.518 C 730.870 393.203, 734.923 388.796, 740.192 383.723 C 750.768 373.540, 754.588 368.380, 759.475 357.675 C 768.518 337.863, 767.228 321.785, 755.768 311.481 C 748.695 305.122, 740.931 302.869, 726.204 302.902 C 719.991 302.915, 713.466 303.161, 711.704 303.446 C 709.942 303.732, 702.650 304.922, 695.500 306.089 C 679.066 308.773, 662.711 308.391, 653.500 305.107 C 634.168 298.216, 621.834 282.472, 616.447 257.809 C 615.088 251.589, 613.039 242.293, 611.893 237.151 C 608.630 222.503, 601.769 209.785, 591.651 199.626 C 587.168 195.125, 581.025 189.834, 578 187.869 C 572.806 184.496, 561.428 180, 558.083 180 C 557.207 180, 559.356 182.885, 563.111 186.750 C 576.964 201.011, 584.177 213.589, 589.062 232 C 590.480 237.344, 591.340 245.394, 592.054 260 C 593.365 286.836, 595.562 298.520, 601.619 310.880 C 609.262 326.476, 622.654 338.172, 639.600 344.052 C 642.845 345.178, 652.475 347.830, 661 349.946 C 679.710 354.589, 685.932 356.864, 693.763 361.925 C 703.730 368.367, 708.007 375.670, 707.990 386.218 C 707.975 396.082, 701.266 407.869, 691.069 415.945 C 684.362 421.257, 685.183 418.663, 692.785 410.523 C 701.956 400.703, 705 394.657, 705 386.264 C 705 377.205, 701.779 371.475, 692.886 364.717 C 687.422 360.564, 678.906 357.478, 659.066 352.462 C 630.832 345.324, 621.053 340.412, 609.094 327.361 C 596.599 313.725, 591.477 298.651, 589.944 271 C 588.485 244.696, 587.286 235.650, 583.923 225.597 C 578.427 209.163, 568.036 193.963, 555.220 183.608 C 547.116 177.060, 544.084 175.676, 534 173.921 C 520.877 171.636, 481 172.431, 481 174.977 C 481 175.427, 484.038 176.315, 487.750 176.950 C 521.274 182.690, 545.542 200.451, 560.482 230.182 C 567.510 244.166, 572.644 260.318, 579.022 288.500 C 584.432 312.408, 587.183 321.357, 592.243 331.500 C 599.171 345.389, 610.236 357.500, 622.774 364.919 C 626.474 367.108, 635.450 371.219, 642.722 374.056 C 659.974 380.784, 665.650 384.239, 669.373 390.275 C 673.093 396.305, 673.460 404.158, 670.344 411.054 C 665.619 421.510, 650.165 431.921, 631.949 436.921 C 623.182 439.327, 596.427 444, 591.421 444 C 583.971 444, 588.709 442.297, 602.250 440.108 C 631.274 435.416, 647.779 429.875, 658.551 421.210 C 669.206 412.639, 672.601 399.804, 666.531 391.045 C 662.977 385.916, 656.775 382.238, 643.500 377.386 C 624.391 370.403, 614.124 364.147, 603.989 353.313 C 590.365 338.747, 583.864 323.826, 575.969 289 C 565.724 243.804, 558.201 225.999, 542.079 208.782 C 529.718 195.582, 516.793 187.741, 499 182.645 C 490.440 180.194, 476.017 178.008, 468.373 178.003 C 462.311 177.999, 427.992 188.957, 428.003 190.893 C 428.005 191.227, 434.643 191.536, 442.753 191.579 C 459.596 191.669, 470.163 193.380, 484.298 198.305 C 511.289 207.709, 532.992 227.984, 545.540 255.518 C 554.127 274.361, 560.300 303.834, 556.965 310.066 C 555.847 312.154, 552.935 312.571, 550.094 311.050 C 547.572 309.701, 539.206 297.225, 532.959 285.500 C 520.299 261.735, 510.583 248.807, 497.533 238.367 C 468.659 215.264, 425.861 208.763, 383.734 221.079 C 360.806 227.782, 355.833 230.916, 309.767 267.699 C 265.310 303.197, 257.582 310.290, 248.186 324.220 C 243.060 331.821, 239.689 334.923, 238.553 333.085 C 238.240 332.579, 240.911 327.458, 244.489 321.704 C 252.098 309.467, 261.663 299.840, 283.927 282.010 L 298.274 270.520 288.126 269.329 C 278.596 268.209, 261.922 264.099, 257.663 261.819 C 254.794 260.284, 232.046 257.069, 218.973 256.350 C 200.391 255.330, 187.199 258.551, 178.459 266.245 C 169.555 274.083, 166.663 285.827, 170.894 296.964 C 178.092 315.906, 204.322 336.553, 226.699 340.892 C 231.261 341.776, 234.995 342.837, 234.997 343.250 C 234.999 343.663, 232.832 344, 230.182 344 C 217.640 344, 198.523 334.271, 184.133 320.565 C 167.304 304.535, 161.869 287.585, 168.991 273.335 C 174.920 261.469, 188.098 254.631, 207.546 253.330 C 215.402 252.805, 233.893 254.156, 239.250 255.648 C 243.379 256.797, 240.470 254.170, 234.250 251.134 C 230.537 249.321, 222.550 244.984, 216.500 241.496 C 203.862 234.210, 194.220 231.286, 179.721 230.343 C 157.919 228.925, 145.435 237.194, 144.243 253.841 C 143.686 261.627, 145.404 269.345, 150.445 281.710 C 154.244 291.028, 153.503 293.898, 149.392 285.787 C 141.563 270.341, 139.136 254.877, 142.956 244.782 C 148.109 231.165, 163.865 224.929, 185.397 227.985 C 190.190 228.666, 194.296 229.037, 194.522 228.811 C 194.749 228.585, 189.211 224.392, 182.217 219.495 C 168.419 209.833, 156.796 204.684, 141.792 201.590 C 131.402 199.447, 127.234 199.586, 122.020 202.250 C 110.807 207.979, 110.185 226.944, 120.426 250.839 C 124.442 260.208, 124.384 260, 122.954 260 C 121.278 260, 114.203 244.219, 112.010 235.590 C 105.601 210.371, 114.464 195.351, 134.545 197.398 C 139.956 197.949, 151.351 200.660, 156.386 202.594 C 160.008 203.985, 157.491 201.254, 147.500 192.951 C 133.138 181.016, 106.665 154.051, 91.083 135.486 C 74.577 115.818, 66.117 107, 63.754 107 C 59.796 107, 58.863 117.684, 61.559 132.140 C 68.415 168.906, 96.368 230.807, 127.464 278.086 C 155.648 320.938, 179.597 346.308, 217.622 373.590 C 222.505 377.093, 226.834 379.969, 227.242 379.980 C 227.650 379.991, 230.448 375.085, 233.461 369.078 C 238.542 358.947, 240.468 356.134, 241.569 357.236 C 242.316 357.983, 238.500 368.033, 232.729 380.521 C 224.505 398.313, 223.500 401.904, 223.500 413.500 C 223.500 429.203, 228.137 440.294, 240.222 453.495 C 246.551 460.409, 250.969 463, 256.426 463 C 261.245 463, 262.546 459.945, 260.965 452.333 C 258.878 442.277, 252.182 428, 249.553 428 C 247.631 428, 242.895 423.979, 243.556 422.909 C 243.881 422.383, 245.068 422.635, 246.288 423.489 C 249.206 425.533, 251.690 425.389, 254.727 423 C 256.126 421.900, 257.997 420.998, 258.885 420.996 C 259.773 420.993, 263.650 419.878, 267.500 418.517 C 279.876 414.142, 287.216 415.577, 306.695 426.184 C 329.516 438.611, 333.211 439.529, 359.311 439.246 C 382.828 438.992, 384.963 439.493, 390.857 446.642 C 394.588 451.169, 393.954 452.981, 389.848 449.526 C 388.197 448.137, 386.303 447, 385.639 447 C 383.465 447, 374.260 457.378, 371.466 462.981 C 368.169 469.590, 367.154 478.908, 369.009 485.534 C 370.732 491.687, 377.619 499.174, 384.797 502.700 C 389.504 505.011, 391.810 505.500, 398 505.500 C 406.713 505.500, 413.490 503.779, 417.561 500.533 C 420.092 498.515, 420.273 498.034, 419.052 496.563 C 417.844 495.107, 416.314 494.979, 407.333 495.581 C 395.365 496.382, 389.445 494.838, 386.013 490.018 C 377.589 478.188, 394.363 457.294, 419 448.928 C 426.693 446.316, 439.471 445.271, 444.081 446.879 C 447.204 447.967, 447.509 447.819, 453.077 442.508 C 458.239 437.584, 462.365 435, 465.065 435 C 467.282 435, 465.698 437.114, 462.107 438.945 C 456.608 441.751, 449.800 449.846, 450.497 452.750 C 451.185 455.613, 450.481 455.582, 446.929 452.594 C 443.171 449.432, 437.707 448.605, 429.875 450.013 C 417.005 452.326, 401.036 460.640, 393.943 468.718 C 386.293 477.431, 385.199 486.286, 391.304 490.083 C 394.136 491.845, 395.963 492.039, 407.340 491.786 L 420.180 491.500 422.378 494.250 C 424.314 496.673, 425.255 497, 430.294 497 C 438.979 497, 454.984 494.345, 470 490.413 C 484.138 486.711, 497.585 481.807, 532.500 467.619 C 562.972 455.237, 580.372 451.015, 601 451 C 639.367 450.973, 668.380 445.793, 699.018 433.500 C 766.718 406.338, 838.444 340.930, 885.046 263.860 C 912.765 218.018, 938.440 149.660, 947.153 98.500 C 950.200 80.613, 950.439 50.620, 947.611 41.223 C 945.575 34.459, 944.755 33.330, 943.282 35.261 M 701.500 53.441 C 696.590 55.228, 691.256 61.121, 690.395 65.708 C 688.001 78.471, 695.505 88, 707.951 88 C 713.909 88, 717.728 86.300, 721.295 82.061 C 733.273 67.827, 718.936 47.097, 701.500 53.441 M 699.898 58.270 C 690.918 64.269, 690.969 76.733, 700 82.819 C 706.391 87.127, 716.872 84.519, 720.715 77.666 C 722.430 74.606, 722.285 66.452, 720.451 62.906 C 716.946 56.128, 706.598 53.794, 699.898 58.270 M 295.218 68.610 C 282.389 75.142, 285.640 94.394, 299.802 95.755 C 308.741 96.614, 315.300 90.807, 315.430 81.918 C 315.582 71.562, 304.172 64.050, 295.218 68.610 M 298 70.706 C 295.216 71.724, 292.065 75.274, 290.951 78.647 C 288.606 85.754, 294.100 92.988, 301.850 92.996 C 304.329 92.999, 306.084 92.116, 308.600 89.600 C 311.431 86.769, 312 85.467, 312 81.823 C 312 76.571, 309.918 73.282, 305.401 71.394 C 301.902 69.932, 300.479 69.800, 298 70.706 M 572.349 74.880 C 570.066 75.943, 567.141 78.251, 565.849 80.007 C 564.557 81.763, 561.700 84.104, 559.500 85.208 C 551.389 89.279, 545 97.586, 545 104.059 C 545 114.218, 556.728 123.072, 572.320 124.684 C 576.440 125.110, 579.780 126.167, 582.340 127.854 C 587.828 131.471, 595.047 131.407, 598.746 127.709 C 601.278 125.177, 601.359 124.803, 600.252 120.766 C 599.109 116.600, 599.157 116.436, 602.291 113.777 C 605.943 110.678, 607.534 110.344, 608.363 112.503 C 609.301 114.949, 618.135 120, 621.473 120 C 628.963 120, 631.468 112.917, 626.545 105.662 L 624.091 102.045 626.533 97.772 C 629.532 92.528, 629.824 86.056, 627.171 83.655 C 626.132 82.715, 623.670 82, 621.470 82 C 618.050 82, 616.913 82.704, 611.733 88.031 L 605.867 94.063 601.941 90.953 C 598.597 88.305, 598.170 87.551, 599.067 85.875 C 600.852 82.539, 599.774 77.902, 596.678 75.599 C 592.581 72.551, 578.256 72.127, 572.349 74.880 M 416.302 76.384 C 413.444 77.746, 410.519 79.808, 409.802 80.967 C 409.086 82.126, 406.193 84.381, 403.373 85.977 C 397.552 89.271, 392.537 94.842, 390.884 99.851 C 387.484 110.153, 400.379 122, 414.993 122 C 418.590 122, 420.901 122.672, 423.595 124.500 C 428.151 127.592, 434.858 127.919, 437.345 125.171 C 439.274 123.040, 439.518 118.918, 437.815 117.215 C 436.903 116.303, 437.534 115.234, 440.565 112.557 C 442.729 110.646, 444.834 109.065, 445.241 109.042 C 445.649 109.019, 448.046 110.575, 450.568 112.500 C 455.431 116.212, 461.697 117.275, 463.797 114.744 C 465.942 112.160, 466.190 108.202, 464.438 104.510 C 462.815 101.090, 462.809 100.623, 464.351 97.391 C 467.788 90.183, 465.505 85, 458.894 85 C 455.263 85, 452.449 86.500, 447.500 91.075 L 444.500 93.849 440.633 90.577 C 437.261 87.723, 436.909 87.038, 437.883 85.218 C 439.628 81.958, 439.215 79.551, 436.468 76.970 C 432.615 73.350, 423.246 73.078, 416.302 76.384 M 574.060 77.699 C 568.455 80.633, 569.181 81.680, 577.211 82.244 C 581.220 82.526, 586.669 83.514, 589.321 84.442 C 593.079 85.756, 594.456 85.866, 595.571 84.941 C 597.609 83.250, 597.338 80.616, 594.898 78.408 C 591.839 75.639, 578.839 75.197, 574.060 77.699 M 420.942 77.948 C 417.290 79.056, 414 80.931, 414 81.904 C 414 82.362, 417.262 83.027, 421.250 83.381 C 435.544 84.650, 434.500 84.757, 434.500 82.030 C 434.500 77.852, 427.853 75.851, 420.942 77.948 M 566.718 86.092 C 561.022 87.433, 557.817 89.391, 553.309 94.281 C 548.414 99.591, 547.329 103.457, 549.364 108.329 C 550.913 112.036, 558.655 118.426, 562.904 119.505 C 568.858 121.017, 574 115.651, 574 107.927 C 574 104.209, 574.175 103.900, 575.607 105.089 C 577.665 106.797, 577.032 115.202, 574.646 117.839 C 571.958 120.809, 572.689 121.306, 578.918 120.741 C 586.013 120.098, 594.937 115.660, 602.115 109.207 C 608.304 103.643, 608.382 101.529, 602.599 96.198 C 592.798 87.163, 578.850 83.235, 566.718 86.092 M 617.500 86.838 C 615.850 87.844, 613.205 90.537, 611.623 92.821 C 609.035 96.556, 608.868 97.267, 609.957 99.896 C 610.861 102.078, 610.884 103.348, 610.049 104.909 C 608.632 107.555, 609.867 110.036, 614.263 113.381 C 623.886 120.703, 629.886 115.245, 622.644 105.757 L 619.289 101.361 622.091 98.225 C 626.917 92.823, 626.939 84.993, 622.128 85.004 C 621.232 85.006, 619.150 85.831, 617.500 86.838 M 409.994 86.875 C 397.183 91.075, 390.458 102.216, 396.018 110.025 C 403.546 120.597, 417 118.333, 417 106.494 C 417 100.313, 419.385 100.909, 419.799 107.193 C 420.041 110.861, 419.611 112.309, 417.549 114.759 C 416.147 116.425, 415 118.124, 415 118.534 C 415 120.242, 425.498 117.852, 431.090 114.871 C 436.555 111.959, 446 103.103, 446 100.892 C 446 98.874, 437.416 91.622, 432.203 89.235 C 426.255 86.512, 414.809 85.296, 409.994 86.875 M 452.150 91.484 C 448.409 94.863, 448.168 95.419, 448.214 100.554 C 448.258 105.490, 448.594 106.314, 451.650 108.998 C 455.214 112.127, 459.168 113.632, 460.943 112.535 C 462.713 111.441, 462.125 106.429, 459.894 103.592 L 457.787 100.914 460.474 97.038 C 464.044 91.886, 463.615 88.608, 459.317 88.192 C 456.823 87.950, 455.273 88.662, 452.150 91.484 M 558.468 99.035 C 556.674 101.018, 556.682 101.127, 558.813 103.258 L 561 105.444 563.187 103.258 C 565.318 101.127, 565.326 101.018, 563.532 99.035 C 562.519 97.916, 561.380 97, 561 97 C 560.620 97, 559.481 97.916, 558.468 99.035 M 401.362 99.500 C 400.486 101.781, 401.711 104, 403.846 104 C 406.733 104, 408.565 101.386, 407 99.500 C 406.315 98.675, 404.896 98, 403.846 98 C 402.796 98, 401.678 98.675, 401.362 99.500 M 728.750 100.080 C 727.787 100.641, 726.285 102.482, 725.411 104.171 C 723.198 108.451, 724.287 113.223, 728.235 116.544 C 734.631 121.926, 744 117.455, 744 109.021 C 744 103.168, 740.095 98.991, 734.661 99.030 C 732.372 99.047, 729.712 99.519, 728.750 100.080 M 328.378 103.414 C 324.178 105.273, 322 108.648, 322 113.299 C 322 121.886, 332.118 126.138, 338.923 120.411 C 341.559 118.193, 342 117.146, 342 113.098 C 342 109.246, 341.493 107.892, 339.250 105.758 C 335.733 102.413, 332.309 101.675, 328.378 103.414 M 729.073 104.635 C 726.351 108.095, 726.456 110.547, 729.455 113.545 C 732.453 116.544, 734.905 116.649, 738.365 113.927 C 741.559 111.415, 741.969 106.187, 739.171 103.655 C 736.320 101.075, 731.506 101.542, 729.073 104.635 M 326.557 108.223 C 322.882 113.469, 326.092 120, 332.345 120 C 336.587 120, 339 117.399, 339 112.826 C 339 108.376, 336.469 106, 331.728 106 C 329.126 106, 327.677 106.623, 326.557 108.223 M 429.250 119.584 C 425.699 121.137, 425.124 122.450, 427.582 123.393 C 432.078 125.118, 436.903 122.796, 435.643 119.513 C 434.944 117.690, 433.546 117.706, 429.250 119.584 M 589.500 121.312 C 583.154 123.994, 583.364 123.798, 585.060 125.461 C 586.492 126.866, 589.486 127.452, 593.715 127.156 C 596.671 126.948, 598.425 123.662, 597 121 C 595.732 118.630, 595.860 118.625, 589.500 121.312 M 700.912 121.280 C 696.463 124.278, 694.814 127.599, 695.387 132.407 C 696.044 137.933, 700.401 142.065, 706.265 142.726 C 710.330 143.185, 711.135 142.903, 714.448 139.867 C 718.632 136.033, 720.016 130.276, 717.775 126.030 C 716.023 122.712, 710.334 119, 707 119 C 705.513 119, 702.773 120.026, 700.912 121.280 M 702.888 123.500 C 697.464 126.448, 696.857 134.169, 701.747 138.016 C 708.721 143.502, 718.333 136.045, 714.917 127.799 C 713.758 125.002, 709.468 121.958, 706.800 122.040 C 706.085 122.062, 704.325 122.719, 702.888 123.500 M 818 125.587 C 802.518 129.683, 788.312 139.224, 764.247 161.689 C 739.849 184.464, 723.550 196.750, 708.769 203.509 C 702.142 206.539, 701.520 207.234, 702.983 209.969 C 704.639 213.063, 709.358 215, 715.239 215 C 720.479 215, 720.741 214.856, 729.538 207.125 C 739.047 198.769, 755.132 182.472, 773.959 162.117 C 793.121 141.401, 809.130 130.198, 824.250 126.926 C 827.413 126.242, 830 125.303, 830 124.841 C 830 123.583, 824.213 123.943, 818 125.587 M 307.923 139.923 C 305.759 142.087, 305 143.795, 305 146.500 C 305 154.924, 315.520 159.242, 321.313 153.195 C 330.065 144.060, 316.867 130.979, 307.923 139.923 M 310 142 C 305.910 146.090, 308.954 153, 314.845 153 C 318.439 153, 321 150.223, 321 146.326 C 321 140.565, 314.135 137.865, 310 142 M 687.625 195.559 C 677.634 203.601, 665.662 209, 657.818 209 C 653.319 209, 654.487 210.536, 662.250 214.827 C 671.790 220.100, 678.083 226.708, 686.008 239.772 C 693.418 251.986, 698.238 256.077, 707.482 257.996 C 711.967 258.927, 714.065 258.843, 719.217 257.523 C 725.623 255.882, 735.117 251.149, 735.737 249.288 C 735.949 248.654, 732.852 248.086, 727.721 247.816 C 720.493 247.437, 718.490 246.900, 712.930 243.849 C 703.743 238.807, 703.989 236.955, 714.558 231.590 C 722.534 227.542, 731 221.586, 731 220.023 C 731 219.578, 725.938 219.279, 719.750 219.357 C 710.520 219.474, 707.872 219.166, 705 217.642 C 697.995 213.924, 696.830 210.158, 699.135 198.682 C 700.023 194.258, 699.997 192.701, 699.013 191.515 C 696.935 189.012, 694.832 189.758, 687.625 195.559 M 421.622 195.102 C 415.470 196, 403.481 201.852, 385.500 212.733 C 371.765 221.045, 371.762 221.509, 385.470 217.537 C 412.284 209.766, 446.692 210.472, 470 219.269 C 498.176 229.904, 515.504 246.598, 533.943 280.873 C 537.309 287.128, 542.005 295.228, 544.379 298.873 C 554.174 313.908, 557.002 311.744, 553.536 291.868 C 543.882 236.505, 508.977 201.577, 456.766 195.030 C 447.220 193.833, 430.074 193.868, 421.622 195.102 M 242.881 196.503 C 241.441 197.286, 239.487 199.561, 238.538 201.560 C 236.318 206.239, 237.169 211.038, 240.972 215.294 C 243.538 218.166, 244.409 218.500, 249.337 218.500 C 253.766 218.500, 255.336 218.033, 257.390 216.103 C 262.014 211.759, 262.798 206.401, 259.723 200.165 C 257.361 195.377, 248.500 193.450, 242.881 196.503 M 242.589 201.077 C 239.622 204.603, 239.374 206.889, 241.510 211.020 C 245.075 217.913, 253.970 217.826, 257.571 210.863 C 260.765 204.686, 256.526 198, 249.415 198 C 245.911 198, 244.730 198.533, 242.589 201.077 M 962.770 228.966 C 954.215 235.695, 958.586 249.169, 969.399 249.403 C 973.050 249.482, 974.426 248.965, 976.921 246.575 C 984.630 239.190, 980.008 227, 969.500 227 C 966.808 227, 964.361 227.715, 962.770 228.966 M 963.455 232.455 C 960.293 235.616, 960.260 240.028, 963.370 243.644 C 970.438 251.860, 982.637 241.165, 975.927 232.635 C 973.087 229.024, 966.973 228.936, 963.455 232.455 M 399.500 235.656 C 385.974 237.262, 365.783 242.717, 354.750 247.746 C 350.488 249.689, 347 251.666, 347 252.139 C 347 253.476, 348.748 253.168, 352.790 251.120 C 354.830 250.086, 361.607 247.594, 367.850 245.582 C 400.419 235.085, 433.079 235.615, 456.423 247.020 C 481.932 259.482, 503.910 289.181, 503.979 311.281 C 504.016 323.224, 500.473 321.533, 488.727 304 C 475.989 284.987, 456.430 267.861, 439 260.459 C 414.142 249.903, 383.614 249.599, 352.500 259.596 C 336.172 264.842, 316.104 276.046, 308.068 284.402 C 302.351 290.347, 305.319 289.533, 314.275 282.700 C 333.864 267.754, 356.785 258.940, 383.952 255.908 C 402.417 253.848, 423.402 256.737, 438.417 263.409 C 455.770 271.119, 474.352 287.738, 487.257 307.088 C 495.702 319.752, 499.811 323.242, 503.777 321.119 C 508.632 318.521, 508.431 306.994, 503.304 294.026 C 493.397 268.964, 472.639 248.927, 447.745 240.394 C 435.110 236.063, 413.742 233.965, 399.500 235.656 M 52.421 248.427 C 49.216 249.814, 46.765 253.878, 45.489 259.919 C 45.092 261.800, 43.375 266.525, 41.673 270.419 C 37.346 280.326, 37.371 288.170, 41.772 300.660 C 43.548 305.698, 45 311.656, 45 313.900 C 45 319.191, 42.137 326.613, 37.119 334.329 C 29.918 345.402, 27.655 351.518, 27.185 361.177 C 26.665 371.853, 27.953 376.057, 34.895 386.344 C 43.760 399.482, 43.932 404.863, 36.077 423.318 C 26.598 445.590, 27.015 460.045, 37.615 476.717 C 44.917 488.199, 46.095 491.535, 47.030 503.365 C 48.191 518.052, 49.409 521.839, 56.141 531.680 C 57.713 533.979, 59 536.091, 59 536.372 C 59 536.653, 55.923 536.626, 52.163 536.310 C 41.132 535.386, 33.667 539.120, 29.880 547.459 C 26.599 554.680, 27.764 562.476, 33.367 570.802 L 36.669 575.709 30.084 575.671 C 19.384 575.609, 13.012 580.687, 13.004 589.282 C 12.996 597.442, 18.146 603.657, 26.834 605.969 C 30.072 606.831, 31.019 607.509, 30.579 608.654 C 28.169 614.934, 28.865 620.498, 32.619 624.960 L 35.159 627.978 27.801 631.331 C 15.752 636.822, 11.913 643.670, 17.750 649.259 C 22.868 654.161, 28.252 655.855, 60 662.554 C 66.875 664.005, 79.414 667.394, 87.863 670.085 C 110.555 677.312, 117.196 678.335, 137.500 677.734 C 150.233 677.357, 159.269 676.420, 173.500 674.001 C 190.327 671.141, 193.929 670.835, 205 671.326 C 211.875 671.631, 223.777 673.032, 231.449 674.440 C 254.825 678.730, 263.957 679.215, 288.638 677.475 C 302.222 676.517, 314.570 676.189, 321.250 676.609 C 328.277 677.051, 332 676.934, 332 676.273 C 332 675.717, 330.313 674.983, 328.250 674.642 C 322.553 673.700, 297.295 673.909, 280.752 675.034 C 263.616 676.200, 251.326 675.299, 231 671.388 C 222.476 669.748, 212.524 668.613, 204 668.308 C 191.993 667.880, 188.509 668.176, 172.500 670.986 C 151.006 674.759, 126.695 676.032, 114.304 674.033 C 110.054 673.347, 98.074 670.150, 87.680 666.927 C 77.287 663.704, 60.959 659.471, 51.395 657.521 C 32.991 653.767, 24.805 651.208, 20.583 647.887 C 15.976 644.263, 17.989 639.560, 25.850 635.576 C 31.006 632.963, 55.951 624.999, 65.500 622.917 C 71.554 621.597, 96.301 620.975, 97.445 622.115 C 97.785 622.453, 93.774 626.963, 88.531 632.138 C 79.899 640.659, 79 641.895, 79 645.250 C 79 648.099, 79.578 649.333, 81.504 650.595 C 84.734 652.711, 89.516 651.592, 103.830 645.371 C 109.511 642.902, 115.116 641.021, 116.286 641.191 C 117.672 641.392, 120.724 644.810, 125.044 651 C 131.576 660.358, 136.566 665, 140.092 665 C 141.080 665, 143.136 663.927, 144.661 662.615 C 147.292 660.352, 147.425 659.822, 147.265 652.307 C 147.172 647.949, 146.647 642.385, 146.098 639.942 C 145.549 637.499, 145.415 635.206, 145.800 634.846 C 146.859 633.857, 166.742 631.590, 173 631.745 C 209.980 632.661, 209.314 632.720, 237.916 626.040 C 261.313 620.577, 274.150 619.984, 306.500 622.873 C 313.650 623.511, 324.675 624.474, 331 625.012 C 338.221 625.625, 348.268 627.456, 358 629.930 C 376.080 634.527, 391.629 637, 402.452 637 C 409.169 637, 410.105 637.217, 409.818 638.708 C 409.618 639.747, 407.769 640.913, 405.096 641.687 C 391.167 645.720, 396.531 654.116, 412 652.494 C 415.575 652.119, 425.925 651.705, 435 651.572 C 449.532 651.361, 452.216 651.055, 457.500 649.007 C 462.104 647.223, 464.896 646.777, 469.500 647.090 C 472.800 647.314, 480.675 647.482, 487 647.463 C 501.606 647.420, 504.730 646.107, 505.192 639.821 C 505.463 636.134, 505.859 635.530, 508.500 634.771 C 515.252 632.832, 534.320 632.692, 546.920 634.489 C 562.705 636.740, 568.600 636.213, 584.115 631.165 C 604.093 624.664, 614.998 623.754, 632.296 627.143 C 636.925 628.050, 638.366 628.804, 639.451 630.889 C 642.745 637.217, 649.283 640.494, 660.816 641.597 C 664.492 641.948, 669.423 643.062, 671.774 644.072 C 683.984 649.319, 706.278 649.318, 724 644.070 C 732.364 641.594, 736.433 640.947, 744 640.890 C 758.312 640.783, 763.215 639.574, 768.743 634.789 L 773.431 630.732 782.655 631.282 C 794.977 632.017, 796.990 633.089, 799.539 640.274 C 802.447 648.471, 804.430 650.104, 812.239 650.731 C 819.637 651.325, 824.641 650.014, 829.010 646.338 C 832.809 643.142, 835.029 643.627, 836.491 647.971 C 838.726 654.612, 847.359 657.056, 859.500 654.483 C 868.286 652.621, 868 652.602, 868 655.066 C 868 661.276, 875.005 665.028, 887.954 665.753 C 899.144 666.379, 903.956 665.035, 908.192 660.101 C 911.045 656.777, 912.257 656.151, 917 655.554 C 929.173 654.021, 932.345 651.483, 936.068 640.296 C 937.307 636.572, 939.507 632.339, 940.957 630.889 C 945.648 626.198, 956.599 625.235, 962.603 628.984 C 964.402 630.108, 965.093 629.996, 967.596 628.179 C 976.299 621.857, 992.248 624.221, 997.169 632.562 C 998.585 634.962, 999.923 636, 1001.599 636 C 1008.136 636, 1010.468 645.746, 1005.025 650.325 C 999.783 654.737, 996.039 655.365, 980.562 654.430 C 959.087 653.134, 949 653.962, 949 657.021 C 949 657.732, 950.257 657.824, 952.750 657.295 C 954.813 656.858, 961.450 656.716, 967.500 656.979 C 991.677 658.032, 999.133 657.661, 1003.834 655.170 C 1009.501 652.168, 1012.442 646.183, 1010.934 640.723 C 1009.892 636.950, 1005.916 633.013, 1003.115 632.982 C 1001.228 632.961, 995.618 626.523, 994.548 623.150 C 993.160 618.779, 994.933 614.095, 1000.161 608.323 C 1008.942 598.626, 1011.067 590.153, 1006.978 581.141 C 1004.309 575.260, 1004.476 572.898, 1008 566.654 C 1012.430 558.804, 1012.181 553.159, 1006.971 543.325 C 1003.047 535.919, 1002.959 535.534, 1003.587 528.605 C 1004.368 519.988, 1002.560 514.430, 998.659 513.451 C 989.774 511.221, 985.023 527.919, 990.013 543.839 C 992.617 552.145, 992.544 553.346, 988.988 560.863 C 986.378 566.380, 985.771 567.055, 984.423 565.936 C 981.176 563.242, 980 559.164, 980 550.606 C 980 542.964, 979.778 541.958, 977.777 540.557 C 973.096 537.278, 968 539.585, 964.914 546.383 C 961.685 553.493, 962.334 558.229, 968.110 569.687 C 973.690 580.756, 974.040 584.260, 970.056 589.179 L 968.175 591.500 963.838 588.419 C 960.878 586.316, 959.596 584.728, 959.802 583.419 C 961.112 575.087, 961.085 572.139, 959.666 568.743 C 957.918 564.560, 952.896 561.009, 948.719 561.004 C 947.189 561.002, 945.715 560.422, 945.444 559.715 C 944.409 557.017, 948.106 542.232, 951.582 535.168 C 957.510 523.121, 973.095 508.320, 983.772 504.595 C 985.822 503.880, 991.100 502.975, 995.500 502.583 C 999.900 502.192, 1005.400 501.031, 1007.723 500.004 C 1014.819 496.866, 1018.158 488.527, 1014.443 483.223 C 1013.169 481.403, 1011.929 481, 1007.610 481 C 1004.708 481, 1002.062 480.729, 1001.731 480.397 C 1000.759 479.426, 1002.773 475.110, 1007.557 467.915 C 1014.546 457.402, 1015.228 448.381, 1009.445 442.948 C 1004.457 438.262, 995.963 440.504, 991.804 447.605 C 990.871 449.197, 988.910 455.225, 987.445 461 C 983.539 476.402, 976.355 489.945, 972.727 488.746 C 971.948 488.488, 971.393 485.720, 971.206 481.164 C 970.946 474.820, 970.628 473.803, 968.463 472.384 C 962.935 468.762, 956.928 473.647, 954.655 483.614 C 952.923 491.207, 950.710 495, 948.012 495 C 940.218 495, 944.741 473.994, 956.234 456.812 C 962.358 447.655, 967.306 442.963, 980.568 433.734 C 994.754 423.861, 1000.518 415.830, 1006.480 397.632 C 1010.904 384.126, 1012.334 375.445, 1011.066 369.787 C 1008.646 358.981, 997.051 358.023, 992.149 368.223 C 991.018 370.575, 989.410 377.105, 988.575 382.733 C 986.973 393.537, 984.835 398.969, 980.648 402.877 C 977.539 405.778, 975.485 405.173, 974.673 401.117 C 973.394 394.719, 967.184 391.930, 963.437 396.070 C 962.014 397.642, 961.418 400.348, 960.959 407.320 C 960.286 417.552, 959.672 419.570, 956.761 421.128 C 955.146 421.992, 954.343 421.786, 952.628 420.065 C 950.782 418.211, 950.514 416.842, 950.608 409.714 C 950.759 398.172, 953.147 390.104, 959.791 378.695 C 970.017 361.133, 970.994 359.916, 978.500 355.382 C 986.976 350.263, 991.948 344.882, 996.219 336.206 C 1001.780 324.911, 1000.236 314.260, 992.648 311.557 C 986.255 309.280, 981.936 313.995, 979.437 325.980 C 977.798 333.842, 975.847 337.596, 972.919 338.526 C 969.045 339.755, 968.723 338.395, 969.469 323.931 C 970.048 312.680, 969.884 309.113, 968.581 304.630 C 964.453 290.432, 951.846 292.453, 948.521 307.847 C 948.124 309.688, 947.475 316.088, 947.081 322.068 C 946.523 330.514, 945.953 333.394, 944.527 334.971 C 941.992 337.771, 938.862 337.510, 935.726 334.236 C 932.377 330.740, 930.409 325.174, 929.039 315.323 C 927.433 303.776, 926.226 300.217, 922.562 296.220 C 918.472 291.757, 913.489 291.253, 909.597 294.909 C 906.120 298.175, 905.582 303.186, 907.817 311.500 C 916.714 344.596, 916.952 345.139, 926.818 354.722 L 935.283 362.945 934.719 368.722 C 934.409 371.900, 932.978 377.346, 931.539 380.824 C 930.101 384.303, 927.928 391.018, 926.712 395.748 C 925.495 400.477, 924.014 404.506, 923.419 404.700 C 921.661 405.276, 917.189 401.178, 914.421 396.455 C 911.435 391.360, 909.088 379.627, 909.029 369.500 C 908.977 360.482, 907.624 355.781, 903.842 351.473 C 899.949 347.039, 896.290 346.873, 891.766 350.925 C 888.510 353.841, 888.501 353.876, 888.822 362.175 C 889.612 382.611, 889.697 381.472, 887.358 381.805 C 884.568 382.203, 881.504 377.933, 879.913 371.429 C 878.307 364.863, 876.584 361.604, 873.385 359.088 C 870.268 356.636, 867.929 356.468, 864.145 358.425 C 854.249 363.542, 859.479 387.156, 872.446 395.911 C 874.676 397.416, 879.141 399.701, 882.368 400.988 C 890.051 404.052, 893.079 406.723, 898.654 415.356 C 901.191 419.285, 906.401 425.415, 910.230 428.978 C 918.343 436.527, 921.026 441.197, 921.734 448.999 C 922.269 454.900, 919.821 466, 917.985 466 C 917.457 466, 915.896 464.211, 914.516 462.025 C 911.051 456.537, 907.859 454.616, 903.548 455.425 C 899.035 456.272, 896 460.150, 896 465.070 C 896 470.362, 897.117 472.802, 902.343 478.925 C 906.705 484.035, 909.964 492.632, 908.461 495.064 C 907.918 495.942, 897.801 488.651, 891.128 482.572 C 889.273 480.882, 886.690 477.250, 885.387 474.500 C 882.536 468.479, 882.266 459.497, 884.500 445 C 887.230 427.289, 885.698 416.050, 880.151 413.081 C 876.485 411.119, 871.554 411.781, 868.924 414.589 C 866.636 417.032, 866.500 417.853, 866.500 429.221 C 866.500 439.803, 866.278 441.401, 864.676 442.383 C 863.118 443.337, 862.109 442.698, 857.758 438 C 850.732 430.414, 847.395 422.733, 846.027 411 C 844.082 394.315, 841.638 388.480, 835.340 385.491 C 832.312 384.054, 831.081 383.959, 827.892 384.914 C 819.896 387.310, 818.928 394.591, 824.490 410.510 C 828.439 421.814, 828.949 427.831, 826.171 430.345 C 822.493 433.674, 818.752 431.642, 813.533 423.484 C 807.970 414.788, 801.892 413.017, 796.414 418.495 C 791.554 423.355, 794.250 434.379, 802.013 441.393 C 807.673 446.507, 812.805 448.798, 823.338 450.917 C 828.477 451.951, 834.596 453.774, 836.936 454.967 C 842.549 457.831, 849.665 465.047, 852.045 470.291 C 856.405 479.894, 853.346 490.333, 846.171 490.333 C 841.994 490.333, 839.283 487.691, 837.582 481.964 C 833.734 469.006, 826.498 463.676, 817.728 467.340 C 811.173 470.079, 810.146 474.443, 812.590 489.162 C 813.115 492.320, 812.852 493.051, 810.682 494.473 C 806.690 497.088, 797.905 494.867, 793.652 490.168 C 791.559 487.856, 791.365 484.666, 792.502 471.346 C 793.270 462.350, 793.239 462.148, 790.687 459.596 C 785.216 454.125, 775.313 457.613, 773.035 465.814 C 772.472 467.841, 772.009 471.836, 772.006 474.691 C 771.996 483.270, 769.358 482.840, 764.024 473.388 C 758.464 463.536, 749.784 461.016, 743.400 467.400 C 740.816 469.984, 740 471.648, 740 474.335 C 740 480.401, 741.813 483.207, 752.133 493.109 C 761.304 501.908, 762.121 502.995, 761.824 506.008 C 761.212 512.220, 756.273 512.509, 749.118 506.751 C 746.896 504.963, 743.437 502.173, 741.432 500.550 C 736.555 496.603, 731.661 496.530, 728.370 500.356 C 725.342 503.877, 725.372 507.252, 728.479 512.554 C 731.352 517.457, 736.933 521.421, 747.492 526.062 C 751.622 527.877, 755 529.717, 755 530.151 C 755 530.586, 753.625 532.892, 751.945 535.276 C 750.078 537.925, 748.615 541.532, 748.183 544.553 L 747.476 549.497 742.764 549.699 C 737.659 549.918, 734.804 551.068, 731.155 554.375 C 727.204 557.955, 725.845 561.673, 726.111 568.174 L 726.356 574.187 721.144 575.951 C 713.263 578.619, 708.385 584.211, 706.561 592.668 L 705.877 595.836 698.627 595.288 C 692.567 594.830, 690.568 595.098, 686.451 596.919 C 680.498 599.552, 677.427 602.287, 674.908 607.200 C 673.091 610.742, 672.879 610.854, 669.914 609.820 C 668.211 609.227, 664.026 608.965, 660.614 609.239 C 651.059 610.006, 644.629 613.943, 640.830 621.353 C 639.116 624.696, 638.501 625.133, 636.177 624.657 C 616.774 620.687, 603.544 621.515, 583.816 627.935 C 568.287 632.989, 561.564 633.690, 548.761 631.594 C 536.404 629.572, 520.077 629.554, 510.400 631.552 L 502.884 633.105 499.637 630.255 C 497.852 628.687, 494.953 626.809, 493.196 626.081 C 491.438 625.353, 490 624.371, 490 623.898 C 490 622.531, 494.696 621.720, 498.492 622.432 C 503.115 623.300, 509.557 621.471, 511.463 618.749 C 512.309 617.542, 513 614.888, 513 612.850 C 513 607.924, 509.436 605, 503.430 605 C 497.430 605, 494.950 606.159, 488.555 611.950 C 482.514 617.421, 479.416 618.222, 476.551 615.056 C 474.859 613.186, 474.919 612.954, 478.146 608.896 C 484.153 601.343, 486.653 599.424, 492.660 597.754 C 495.882 596.859, 500.089 595.076, 502.009 593.793 C 509.645 588.691, 511.030 579.097, 504.919 573.636 C 502.090 571.109, 501.141 570.828, 496.818 571.243 C 490.140 571.885, 485.366 575.821, 481.304 584.033 C 476.368 594.012, 472.443 596.230, 468.031 591.533 C 466.475 589.877, 465.557 587.444, 465.239 584.137 C 464.794 579.501, 465.002 578.952, 468.759 574.855 C 477.837 564.956, 479.630 560.053, 476.434 553.872 C 474.818 550.747, 469.827 548, 465.767 548 C 461.693 548, 456.654 551.513, 454.275 556.013 C 452.240 559.861, 452 561.709, 452 573.546 C 452 584.916, 451.740 587.099, 450.156 589.056 C 446.321 593.791, 443.374 589.535, 441.935 577.185 C 440.973 568.931, 438.337 563.743, 433.953 561.476 C 430.308 559.591, 426.670 559.602, 422.980 561.510 C 419.282 563.423, 418 565.829, 418 570.858 C 418 576.110, 421.735 580.551, 428.771 583.662 C 434.744 586.304, 436.278 588.777, 437.474 597.689 C 437.894 600.814, 439.390 604.792, 441.235 607.689 C 443.030 610.508, 444.340 613.949, 444.399 616 C 444.494 619.302, 444.330 619.485, 441.500 619.226 C 439.850 619.076, 436.251 619.376, 433.503 619.894 C 425.894 621.326, 424.188 618.581, 427.605 610.402 C 431.200 601.798, 426.637 592, 419.035 592 C 414.252 592, 411.222 594.298, 410.429 598.529 C 410.070 600.438, 409.400 602, 408.940 602 C 407.258 602, 403.204 595.317, 400.463 588.026 C 397.253 579.486, 392.091 573.299, 387.432 572.409 C 385.034 571.951, 383.669 572.407, 381.182 574.500 C 374.292 580.298, 378.138 589.991, 390.848 598.857 C 394.283 601.253, 397.817 604.318, 398.702 605.667 C 400.262 608.049, 400.202 608.209, 396.655 611.133 C 393.648 613.611, 393 614.803, 393 617.850 C 393 625.091, 398.242 629, 407.950 629 C 414.407 629, 414.557 629.092, 412.965 632.066 C 412.106 633.670, 410.833 634, 405.504 634 C 393.678 634, 378.630 631.842, 363.217 627.934 C 354.812 625.804, 345.757 623.771, 343.096 623.418 C 336.040 622.482, 335.265 621.750, 337.850 618.463 C 339.321 616.594, 340 614.320, 340 611.265 C 340 607.520, 339.451 606.251, 336.600 603.400 C 333.614 600.414, 332.573 600, 328.050 600 C 321.896 600, 318.092 601.786, 311.793 607.632 C 306.611 612.440, 302.338 613.326, 298.223 610.443 C 294.300 607.696, 295.434 605.326, 303.015 600.422 C 310.946 595.291, 313.154 592.547, 313.293 587.647 C 313.431 582.765, 310.761 579.282, 305.869 577.965 C 301.811 576.872, 299 577.376, 291.591 580.525 C 289.864 581.259, 289.747 581.012, 290.364 577.918 C 290.739 576.038, 293.096 571.413, 295.603 567.641 C 302.176 557.750, 302.688 551.395, 297.314 546.415 C 294.233 543.559, 287.701 543.120, 284.251 545.537 C 281.703 547.321, 279.582 554.159, 280.363 558.067 C 281.472 563.610, 279.312 567.714, 273.048 571.968 C 263.478 578.466, 260.379 584.191, 261.602 593.111 C 262.102 596.758, 261.851 597.825, 260.127 599.385 C 258.079 601.238, 258.009 601.221, 255.142 598.152 C 251.989 594.777, 248.286 593, 244.404 593 C 243.047 593, 241.691 592.358, 241.390 591.573 C 240.602 589.521, 244.151 582.048, 249.418 574.667 C 258.052 562.568, 259.984 554.767, 255.976 548.192 C 252.386 542.304, 240.226 539.063, 232.601 541.962 C 231.209 542.491, 229.868 542.595, 229.619 542.193 C 229.371 541.791, 231.203 536.746, 233.691 530.981 C 240.513 515.171, 243 507.250, 243 501.328 C 243 496.653, 242.576 495.536, 239.510 492.143 C 232.870 484.793, 214.859 482.138, 205.828 487.178 C 200.261 490.285, 198.341 494.481, 197.042 506.375 C 196.449 511.807, 195.723 516.639, 195.429 517.114 C 195.136 517.589, 193.907 517.333, 192.698 516.545 C 188.090 513.542, 176.770 512.931, 167 515.158 C 165.202 515.568, 165.304 514.283, 168.120 501 C 171.280 486.094, 169.268 479.865, 159.624 474.706 C 156.123 472.833, 153.914 472.500, 145 472.500 C 135.326 472.500, 134.030 472.736, 128.532 475.500 C 118.104 480.742, 115.937 488.935, 119.633 509.140 C 120.531 514.050, 120.988 518.346, 120.647 518.686 C 120.307 519.027, 119.042 518.052, 117.836 516.519 C 116.631 514.987, 113.250 512.674, 110.322 511.379 C 103.942 508.557, 103.823 507.844, 107.512 494.507 C 110.759 482.771, 110.660 477.463, 107 467 C 102.573 454.343, 102.819 448.315, 108.174 438.304 C 118.568 418.868, 119.060 417.678, 119.666 410.449 C 120.405 401.625, 118.989 394.892, 114.219 384.558 C 110.953 377.482, 110.504 375.586, 110.535 369 C 110.565 362.683, 111.102 360.317, 113.937 354 C 122.147 335.707, 122.025 324.762, 113.516 316.253 C 109.711 312.447, 108.765 312, 104.532 312 C 100.509 312, 99.304 312.496, 96.490 315.310 C 92.433 319.367, 90.597 325.615, 91.451 332.451 C 92.329 339.485, 90.537 346.730, 85.150 357.921 C 80.791 366.976, 80.537 367.965, 80.519 376 C 80.502 383.683, 80.909 385.526, 84.750 395.175 C 88.484 404.553, 89 406.804, 89 413.707 C 89 420.431, 88.351 423.439, 84.504 434.533 C 79.187 449.866, 78.701 457.123, 82.104 470.333 C 84.571 479.911, 84.235 486.971, 80.833 497 C 79.107 502.090, 78.638 505.732, 78.672 513.786 C 78.720 525.382, 77.971 526.132, 74.020 518.441 C 71.728 513.979, 71.537 512.672, 71.910 504.017 C 72.136 498.783, 72.350 490.197, 72.387 484.938 C 72.453 475.482, 72.399 475.265, 67.608 465.438 C 60.139 450.118, 60.140 441.962, 67.611 423.433 C 74.432 406.518, 74.356 395.642, 67.294 377.882 C 64.054 369.735, 63.568 367.447, 63.602 360.500 C 63.637 353.335, 64.136 351.267, 68.383 340.681 C 76.495 320.460, 76.599 313.695, 69.028 298.840 C 63.788 288.557, 63.440 286.028, 65.927 276.287 C 68.483 266.273, 68.519 260.740, 66.062 255.328 C 63.142 248.898, 57.698 246.144, 52.421 248.427 M 51.074 254.118 C 50.032 255.833, 48.876 258.870, 48.506 260.868 C 48.136 262.866, 46.445 267.650, 44.750 271.500 C 40.642 280.826, 40.675 287.325, 44.891 299.410 C 50.328 314.992, 49.394 320.480, 38.182 338.843 C 31.677 349.496, 29.643 356.318, 30.234 365.500 C 30.726 373.163, 32.132 376.517, 39.342 387.233 C 46.951 398.542, 46.910 406.078, 39.140 424.605 C 29.372 447.900, 29.926 457.906, 42.085 477.733 C 47.965 487.321, 49.997 493.136, 50.008 500.409 C 50.027 513.490, 52.473 520.922, 60.735 532.998 C 63.180 536.572, 65.814 541.012, 66.588 542.865 C 67.750 545.647, 68.389 546.129, 70.248 545.631 C 71.487 545.299, 73.723 545.021, 75.219 545.014 L 77.937 545 77.338 536.750 C 76.854 530.083, 76.258 527.854, 74.229 525.132 C 70.877 520.635, 68.001 512.844, 67.994 508.239 C 67.991 506.183, 68.521 499.898, 69.172 494.274 C 70.620 481.756, 69.820 477.550, 63.369 463.732 C 58.822 453.993, 58.809 453.935, 59.199 444.732 C 59.533 436.826, 60.196 433.924, 63.811 424.527 C 71.247 405.200, 71.335 397.367, 64.316 379.314 C 60.890 370.502, 60.503 368.581, 60.527 360.500 C 60.552 352.044, 60.851 350.775, 65.471 339.500 C 69.674 329.242, 70.446 326.304, 70.796 319.256 C 71.202 311.070, 71.169 310.935, 66.102 300.217 C 60.304 287.948, 59.963 285.121, 63 274.500 C 64.100 270.654, 65 266.072, 65 264.318 C 65 253.587, 55.590 246.693, 51.074 254.118 M 942.455 263.455 C 936.976 268.933, 940.805 278.400, 948.500 278.400 C 953.614 278.400, 957 274.814, 957 269.398 C 957 265.995, 956.474 264.731, 954.365 263.073 C 950.707 260.195, 945.548 260.361, 942.455 263.455 M 944.200 265.200 C 941.985 267.415, 942.750 272.790, 945.541 274.619 C 950.710 278.006, 957.006 271.710, 953.619 266.541 C 951.790 263.750, 946.415 262.985, 944.200 265.200 M 346.486 283.916 C 335.747 286.431, 323.157 291.379, 318.013 295.105 C 315.704 296.778, 314.037 298.370, 314.310 298.643 C 314.583 298.916, 319.012 297.108, 324.153 294.626 C 339.046 287.434, 347.625 285.570, 366 285.532 C 383.879 285.495, 389.475 286.653, 403 293.184 C 409.466 296.307, 413.200 298.990, 418.606 304.395 C 422.515 308.303, 426.686 313.413, 427.877 315.750 C 429.996 319.913, 432 321.325, 432 318.655 C 432 316.070, 424.305 305.458, 418.772 300.411 C 412.380 294.582, 400.681 288.202, 390.500 284.994 C 380.416 281.816, 357.812 281.262, 346.486 283.916 M 911.065 297.878 C 909.285 301.204, 909.854 307.209, 912.934 317.601 C 914.547 323.045, 916.876 331.100, 918.108 335.500 C 920.245 343.134, 920.700 343.844, 928.037 351 C 932.266 355.125, 936.238 359.483, 936.863 360.684 C 938.997 364.783, 938.169 372.499, 934.551 382.227 C 932.654 387.327, 930.356 394.511, 929.444 398.192 C 927.571 405.754, 925.288 408.540, 921.703 407.640 C 912.794 405.404, 906.059 390.071, 906.017 371.932 C 905.985 357.836, 901.452 349.106, 895.559 351.791 C 891.931 353.444, 890.588 358.811, 891.906 366.382 C 894.284 380.035, 893.087 385, 887.417 385 C 882.442 385, 879.555 381.422, 876.531 371.508 C 875.147 366.970, 873.448 362.804, 872.757 362.251 C 870.042 360.078, 867.280 359.953, 864.889 361.893 C 861.405 364.720, 861.634 374.282, 865.374 382.161 C 868.820 389.421, 873.786 393.854, 882.520 397.467 C 892.339 401.530, 895.016 403.785, 901.245 413.243 C 904.326 417.921, 909.390 423.873, 912.812 426.837 C 920.907 433.850, 925 441.789, 925 450.478 C 925 456.578, 922.743 466.340, 920.776 468.750 C 919.101 470.801, 916.212 470.176, 914.297 467.347 C 911.527 463.256, 906.329 458, 905.055 458 C 904.425 458, 902.805 459.105, 901.455 460.455 C 897.210 464.699, 898.488 469.821, 905.941 478.432 C 912.120 485.571, 913.392 492.962, 910.427 504.500 C 909.578 507.800, 908.634 511.507, 908.328 512.738 C 907.929 514.342, 908.694 516.026, 911.030 518.687 C 915.250 523.493, 917.771 529.299, 919.295 537.722 L 920.522 544.500 926.036 545.094 C 932.465 545.787, 934.440 546.714, 938.437 550.914 C 940.052 552.611, 941.689 554, 942.074 554 C 942.458 554, 943.089 551.893, 943.475 549.318 C 945.462 536.066, 953.920 522.238, 966.465 511.731 C 975.690 504.004, 983.661 500.264, 992.539 499.498 C 1003.880 498.520, 1005.794 498.044, 1008.897 495.433 C 1012.362 492.518, 1013.794 487.661, 1011.872 485.345 C 1010.886 484.157, 1009.423 483.908, 1005.892 484.326 C 996.369 485.454, 995.489 479.657, 1003.424 468.060 C 1008.696 460.355, 1010 457.202, 1010 452.157 C 1010 443.674, 1002.756 441.028, 996.567 447.250 C 993.867 449.965, 992.869 452.382, 990.506 461.937 C 985.998 480.167, 978.903 492, 972.480 492 C 968.653 492, 966.974 488.538, 967.653 482.047 C 968.110 477.677, 967.896 476.159, 966.683 475.152 C 963.398 472.425, 959.017 477.366, 957.550 485.453 C 955.398 497.318, 946.261 502.961, 942.023 495.043 C 939.444 490.225, 941.526 477.884, 946.828 466.554 C 953.445 452.413, 962.760 441.908, 977.444 432.024 C 990.565 423.193, 996.439 415.734, 1001.875 401 C 1008.411 383.285, 1009.720 371.111, 1005.604 366.326 C 1003.504 363.885, 1002.856 363.662, 1000.354 364.520 C 996.400 365.878, 993.245 372.674, 992 382.520 C 990.641 393.256, 988.624 398.911, 984.388 403.859 C 979.048 410.099, 973.324 409.181, 971.480 401.791 C 970.674 398.562, 968.547 396.576, 966.667 397.298 C 965.726 397.659, 965.128 400.587, 964.724 406.823 C 964.108 416.337, 962.499 420.837, 958.783 423.439 C 955.568 425.691, 952.692 425.365, 949.941 422.437 C 945.059 417.241, 946.626 397.492, 952.942 384.594 C 955.636 379.091, 958.941 373.398, 966.376 361.450 C 968.068 358.730, 971.115 356.102, 975.651 353.450 C 979.366 351.277, 984.056 347.783, 986.073 345.684 C 990.199 341.390, 994.754 333.001, 996.055 327.300 C 997.764 319.811, 993.933 312.934, 988.936 314.520 C 985.972 315.461, 984.374 318.633, 982.468 327.357 C 981.217 333.082, 979.944 336.133, 977.772 338.607 C 973.127 343.897, 967.556 342.833, 965.558 336.274 C 965.186 335.050, 965.395 329.619, 966.025 324.206 C 967.445 311.988, 966.241 303.786, 962.472 300.018 C 960.105 297.651, 959.811 297.595, 957.232 299.028 C 953.422 301.147, 951.224 308.429, 950.400 321.661 C 949.494 336.224, 947.394 340, 940.201 340 C 933.867 340, 928.862 332.953, 926.980 321.389 C 923.697 301.210, 921.682 296.704, 915.716 296.194 C 912.964 295.958, 911.883 296.350, 911.065 297.878 M 98.817 317.872 C 95.618 320.731, 95.598 320.807, 94.898 333.122 C 94.139 346.452, 93.302 349.569, 87.396 361.039 C 83.933 367.766, 83.558 369.238, 83.580 376 C 83.602 382.467, 84.206 385.015, 87.960 394.500 C 91.889 404.426, 92.315 406.330, 92.323 414 C 92.330 421.328, 91.837 423.810, 88.750 432 C 82.112 449.614, 81.641 454.464, 85.129 469.320 C 87.597 479.831, 87.286 487.657, 83.991 497.958 C 81.566 505.540, 80.500 514.919, 81.840 516.884 C 82.607 518.009, 83.452 517.757, 86.368 515.533 C 88.340 514.028, 92.552 511.997, 95.727 511.018 C 101.131 509.352, 101.521 509.023, 101.825 505.869 C 102.004 504.016, 103.242 498.288, 104.575 493.141 C 107.714 481.026, 107.639 478.560, 103.803 467.619 C 99.295 454.763, 99.410 448.445, 104.322 439.041 C 106.345 435.168, 109.585 428.962, 111.523 425.250 C 118.644 411.606, 118.502 401.539, 110.953 384.779 C 106.970 375.935, 106.797 375.148, 107.264 368 C 107.638 362.263, 108.733 358.096, 111.921 350.275 C 114.213 344.652, 116.342 337.902, 116.652 335.275 C 117.428 328.698, 115.485 322.285, 111.510 318.310 C 107.239 314.039, 103.260 313.902, 98.817 317.872 M 261.500 332.881 C 257.462 334.735, 253.242 338.575, 254.195 339.529 C 254.479 339.813, 257.297 338.685, 260.457 337.022 C 269.746 332.136, 277.395 333.486, 284.207 341.213 C 288.246 345.794, 290.018 345.860, 287.669 341.343 C 282.994 332.356, 271.052 328.494, 261.500 332.881 M 434.500 353.898 C 429.733 355.118, 425.152 357.838, 423.423 360.477 C 421.049 364.100, 422.687 365.629, 425.589 362.499 C 433.460 354.005, 450.751 355.836, 457.715 365.900 C 460.823 370.390, 462 370.968, 462 368.003 C 462 365.166, 455.626 358.475, 450.686 356.127 C 445.765 353.787, 438.722 352.818, 434.500 353.898 M 263.312 357.945 C 252.244 362.970, 247.742 380.058, 254.463 391.527 C 260.334 401.546, 272.728 403.472, 280.609 395.591 C 287.007 389.193, 288.718 375.246, 284.192 366.378 C 281.768 361.629, 279.535 359.539, 274.746 357.538 C 270.027 355.567, 268.425 355.624, 263.312 357.945 M 265 360.706 C 259.188 362.831, 254.750 371.097, 254.750 379.797 C 254.750 385.238, 255.182 386.798, 257.669 390.336 C 259.274 392.621, 261.366 394.639, 262.316 394.822 C 263.759 395.100, 263.628 394.541, 261.523 391.438 C 257.029 384.816, 258.461 374.929, 264.615 370.088 C 268.185 367.280, 275.167 367.270, 279.096 370.068 L 282 372.136 282 369.950 C 282 368.745, 280.259 366.024, 278.118 363.882 C 274.893 360.658, 273.580 360.013, 270.368 360.079 C 268.240 360.122, 265.825 360.405, 265 360.706 M 271 374 C 269.900 375.100, 269 376.675, 269 377.500 C 269 379.187, 272.466 383, 274 383 C 275.715 383, 279 379.095, 279 377.057 C 279 375.274, 275.619 372, 273.777 372 C 273.350 372, 272.100 372.900, 271 374 M 500 377.826 C 500 378.280, 501.173 379.742, 502.606 381.076 C 506.936 385.104, 510.745 391.310, 513.044 398.083 C 516.932 409.538, 514.387 424.279, 506.499 436.002 C 502.543 441.879, 503.466 443.511, 507.893 438.469 C 519.245 425.540, 521.127 405.028, 512.429 389.047 C 508.695 382.186, 500 374.336, 500 377.826 M 534.406 381.320 C 536.353 383.696, 539.195 388.308, 540.723 391.570 C 543.315 397.105, 543.499 398.366, 543.490 410.500 C 543.481 421.483, 543.134 424.420, 541.252 429.429 C 540.027 432.690, 539.215 435.548, 539.446 435.779 C 540.445 436.778, 542.023 434.578, 544.142 429.231 C 546.085 424.329, 546.418 421.619, 546.447 410.500 C 546.486 395.300, 544.734 389.388, 537.882 381.603 C 532.596 375.598, 529.511 375.347, 534.406 381.320 M 426.211 379.129 C 421.891 380.375, 415.333 387.027, 412.683 392.851 C 409.672 399.471, 409.755 408.941, 412.881 415.316 C 416.152 421.988, 421.390 425.312, 429.367 425.779 C 434.876 426.102, 436.056 425.801, 440.971 422.819 C 460.080 411.228, 454.221 377.575, 433.185 378.090 C 431.158 378.140, 428.020 378.607, 426.211 379.129 M 429.170 382.032 C 427.338 382.444, 424.220 384.091, 422.240 385.693 C 416.955 389.971, 414.581 395.244, 414.225 403.500 C 413.974 409.335, 414.304 411.150, 416.212 414.406 C 418.963 419.103, 422.370 421.755, 426.750 422.613 C 430.594 423.366, 431.100 421.822, 427.541 420.201 C 422.384 417.851, 419.455 407.219, 422.064 400.315 C 425.798 390.432, 439.916 386.993, 445.840 394.524 C 449.526 399.210, 450.118 396.942, 446.929 390.353 C 443.718 383.719, 436.569 380.370, 429.170 382.032 M 825.557 390.223 C 823.194 393.596, 823.697 398.513, 827.522 409.417 C 831.890 421.873, 832.201 428.890, 828.545 432.545 C 823.736 437.355, 816.829 434.897, 811.429 426.457 C 807.104 419.696, 803.962 417.415, 801.090 418.952 C 796.353 421.487, 795.880 426.172, 799.661 433.119 C 804.060 441.201, 810.848 445.363, 823.156 447.527 C 833.685 449.379, 840.783 452.735, 847.400 458.994 C 859.064 470.025, 861.231 486.231, 851.810 491.974 C 843.859 496.822, 837.166 492.773, 834.063 481.237 C 831.697 472.442, 823.747 466.970, 818.414 470.465 C 814.246 473.196, 813.506 476.083, 814.978 483.882 C 816.638 492.681, 815.906 495.601, 811.511 497.696 C 804.786 500.903, 792.220 496.113, 789.297 489.228 C 787.945 486.044, 787.881 484.326, 788.857 477.448 C 789.486 473.020, 790 468.027, 790 466.353 C 790 462.730, 787.328 460, 783.782 460 C 778.096 460, 775.075 465.709, 775.024 476.550 C 774.997 482.239, 773.799 484, 769.955 484 C 766.922 484, 765.092 482.210, 762.160 476.376 C 757.768 467.635, 750.348 464.561, 745.455 469.455 C 740.358 474.551, 743.298 481.365, 754.749 490.997 C 758.736 494.351, 762.673 498.401, 763.499 499.998 C 765.751 504.354, 765.414 509.263, 762.686 511.826 C 758.298 515.947, 752.822 514.316, 742.663 505.859 C 738.658 502.525, 735.922 501, 733.948 501 C 727.551 501, 728.042 509.196, 734.795 515.125 C 736.815 516.898, 743.108 520.522, 748.781 523.177 C 758.807 527.871, 759.283 527.988, 765.891 527.374 C 773.589 526.658, 778.502 527.869, 782.891 531.562 L 785.731 533.952 788.787 529.036 C 792.403 523.219, 797.916 520, 804.264 520 C 810.429 520, 818.361 524.211, 822.307 529.579 C 825.528 533.960, 826.994 534.502, 831.912 533.126 C 834.023 532.535, 834.346 531.816, 834.503 527.342 C 834.736 520.710, 837.638 515.235, 842.882 511.530 C 846.322 509.100, 848.323 508.491, 853.891 508.176 C 861.310 507.757, 865.218 509.094, 870.205 513.758 L 872.909 516.287 876.427 513.198 C 882.486 507.878, 889.809 506.790, 898.754 509.880 C 904.618 511.906, 905.031 511.701, 906.923 505.822 C 908.532 500.825, 907.447 499.281, 896.811 491.442 C 880.015 479.062, 877.408 470.767, 881.531 442.813 C 882.449 436.591, 883.003 429.119, 882.764 426.209 C 881.976 416.627, 875.583 411.901, 871.107 417.591 C 869.140 420.092, 869.029 421.077, 869.609 430.896 C 870.195 440.809, 870.093 441.679, 868.046 444.250 C 866.841 445.762, 865.003 447, 863.962 447 C 861.129 447, 855.581 441.651, 850.648 434.163 C 845.228 425.936, 844.392 423.371, 842.536 409.289 C 840.880 396.713, 839.290 392.017, 835.883 389.631 C 832.465 387.237, 827.447 387.524, 825.557 390.223 M 568 392.729 C 568 393.221, 569.013 395.621, 570.250 398.062 C 572.156 401.822, 572.496 404.066, 572.471 412.750 C 572.456 418.387, 572.758 423, 573.144 423 C 573.529 423, 574.386 421.361, 575.047 419.359 C 576.825 413.970, 575.758 403.095, 572.888 397.362 C 570.728 393.046, 568 390.460, 568 392.729 M 435.655 397.829 C 433.165 400.580, 433.559 404.665, 436.500 406.592 C 438.810 408.106, 439.188 408.107, 441.484 406.602 C 444.846 404.400, 445.744 400.479, 443.464 397.960 C 441.238 395.501, 437.814 395.443, 435.655 397.829 M 155.275 398.961 C 147.103 400.927, 143.912 406.476, 146.082 414.944 C 147.184 419.245, 147.128 420.156, 145.616 422.464 L 143.895 425.090 140.871 422.545 C 137.108 419.379, 133.441 418.389, 131.487 420.011 C 129.695 421.498, 129.529 427.873, 131.188 431.513 C 132.108 433.533, 132.100 435.455, 131.150 440.054 C 129.686 447.139, 130.698 450, 134.667 450 C 137.888 450, 143.291 446.745, 145.810 443.286 C 147.635 440.781, 147.799 440.745, 150.085 442.347 C 152.067 443.735, 152.466 444.881, 152.481 449.233 C 152.498 453.944, 152.771 454.585, 155.278 455.795 C 159.031 457.607, 164.073 455.913, 167.738 451.610 C 169.774 449.220, 171.898 448.056, 175.817 447.186 C 178.741 446.536, 183.170 444.603, 185.660 442.890 C 190.928 439.265, 196 431.846, 196 427.764 C 196 420.657, 186.056 409.508, 177.047 406.516 C 174.356 405.622, 171.590 404.210, 170.900 403.379 C 167.890 399.753, 160.577 397.685, 155.275 398.961 M 151.593 404.250 C 148.372 407.128, 147.471 410.904, 149.385 413.500 C 150.834 415.465, 150.919 415.444, 154.180 412.362 C 157.803 408.937, 163.007 406, 165.450 406 C 167.610 406, 167.387 404.277, 165.066 403.035 C 161.520 401.138, 154.353 401.784, 151.593 404.250 M 164.627 409.468 C 157.185 412.121, 148.120 421.899, 146.187 429.358 C 145.233 433.039, 143.640 433.485, 143.174 430.201 C 142.989 428.893, 141.081 426.622, 138.745 424.930 C 133.447 421.092, 132.070 422.187, 133.935 428.756 C 135.460 434.125, 135.476 434.526, 134.460 441.750 C 133.828 446.245, 133.957 447, 135.358 447 C 136.258 447, 138.825 445.346, 141.062 443.325 C 144.220 440.472, 145.002 439.144, 144.561 437.387 C 143.694 433.932, 145.385 433.749, 148.465 436.963 C 152.025 440.679, 159.832 444.024, 166.568 444.719 C 175.171 445.607, 175.938 444.741, 171.149 439.546 C 166.821 434.850, 165.640 431.980, 166.172 427.448 C 166.696 422.986, 168.999 423.164, 169.004 427.667 C 169.006 429.775, 169.902 432.967, 170.995 434.759 C 172.975 438.007, 178.355 441.989, 180.772 441.996 C 183.202 442.003, 190.979 433.802, 192.105 430.046 C 193.055 426.872, 192.916 425.755, 191.131 422.257 C 188.588 417.272, 181.812 411.550, 176.037 409.513 C 170.870 407.690, 169.630 407.685, 164.627 409.468 M 265.500 421.896 C 258.241 424.226, 256.532 425.144, 256.664 426.643 C 256.754 427.664, 258.493 432.506, 260.530 437.403 C 265.082 448.349, 266.899 457.732, 265.192 461.478 C 264.537 462.916, 262.653 464.859, 261.007 465.796 C 257.323 467.893, 257.288 468.355, 260.703 469.911 C 265.545 472.117, 272.169 472.290, 275.980 470.309 C 281.154 467.620, 283.564 463.143, 286.438 450.889 C 289.461 437.998, 290.653 435.390, 295.449 431.179 C 297.402 429.464, 299 427.658, 299 427.164 C 299 425.544, 285.141 420.032, 279.765 419.514 C 275.700 419.123, 272.448 419.666, 265.500 421.896 M 177.411 422.371 C 176.299 425.268, 177.432 427.500, 180.014 427.500 C 182.110 427.500, 182.500 427.029, 182.500 424.500 C 182.500 422.148, 182.013 421.431, 180.246 421.180 C 178.923 420.992, 177.751 421.485, 177.411 422.371 M 301.500 432.412 C 296.679 434.555, 294.129 438.154, 292.362 445.315 C 290.806 451.622, 290.810 452.133, 292.437 453.930 C 295.302 457.096, 315.709 466.683, 328.555 470.898 C 340.465 474.805, 361.442 479.463, 362.945 478.534 C 363.372 478.270, 363.991 476.080, 364.322 473.667 C 365.493 465.123, 368.908 458.171, 375.283 451.357 C 380.099 446.208, 381.072 444.660, 379.936 443.947 C 379.123 443.437, 370.255 443.315, 359.500 443.666 C 342.175 444.230, 339.759 444.097, 332.096 442.152 C 327.473 440.978, 319.492 437.989, 314.360 435.509 C 309.228 433.029, 304.910 431.018, 304.764 431.039 C 304.619 431.061, 303.150 431.678, 301.500 432.412 M 155.648 446.685 C 154.263 448.070, 155.095 451.980, 156.991 452.995 C 159.024 454.083, 164.073 452.309, 165.497 450.005 C 166.411 448.527, 156.985 445.349, 155.648 446.685 M 134.667 476.370 C 128.561 478.092, 124.975 480.711, 122.752 485.071 C 120.484 489.517, 120.550 495.811, 123.010 509.871 C 124.222 516.797, 125 525.739, 125 532.745 C 125 544.499, 128.794 567.842, 131.170 570.704 C 131.783 571.443, 134.355 572, 137.155 572 C 142.944 572, 148.434 574.085, 152.240 577.730 C 153.746 579.173, 155.317 580.017, 155.729 579.604 C 156.929 578.404, 157.835 563.924, 157.920 544.566 C 157.988 529.355, 158.281 526.014, 159.851 522.566 C 160.870 520.330, 162.198 515.575, 162.804 512 C 163.409 508.425, 164.600 501.737, 165.450 497.138 C 166.910 489.231, 166.892 488.545, 165.119 484.536 C 163.675 481.272, 162.187 479.785, 158.651 478.073 C 152.847 475.264, 141.457 474.454, 134.667 476.370 M 134.094 480.306 C 132.220 480.963, 129.780 482.724, 128.670 484.221 C 126.995 486.480, 126.844 487.363, 127.781 489.418 C 129.843 493.945, 133.607 495.501, 142.456 495.486 C 151.241 495.471, 155.763 493.817, 158.517 489.614 C 160.708 486.271, 158.989 482.311, 154.538 480.452 C 150.379 478.714, 138.873 478.632, 134.094 480.306 M 138.275 481.923 C 125.535 485.138, 128.463 492.526, 142.456 492.474 C 153.659 492.432, 159.855 487.553, 153.750 483.583 C 150.930 481.749, 142.535 480.849, 138.275 481.923 M 208.325 489.400 C 203.897 491.409, 202.045 494.724, 200.914 502.660 C 200.378 506.422, 199.539 512.040, 199.050 515.144 C 198.390 519.335, 198.522 521.837, 199.565 524.864 C 200.447 527.424, 200.749 530.719, 200.375 533.720 C 199.695 539.194, 195.806 555.474, 192.926 564.902 C 191.851 568.423, 191.158 571.491, 191.386 571.719 C 191.614 571.947, 195.333 572.221, 199.650 572.328 C 205.432 572.471, 208.633 573.095, 211.801 574.695 L 216.103 576.868 217.015 574.684 C 217.517 573.483, 218.650 568.470, 219.534 563.545 C 221.162 554.473, 224.427 545.011, 234.040 521.500 C 242.203 501.536, 241.951 495.603, 232.735 490.834 C 227.313 488.027, 213.180 487.197, 208.325 489.400 M 211.465 492.952 C 202.895 496.425, 207.501 505.903, 218.567 507.562 C 234.134 509.897, 241.854 497.108, 227.315 493.071 C 222.856 491.832, 214.383 491.769, 211.465 492.952 M 211.750 496.015 C 206.056 499.544, 215.046 505.747, 224.271 504.654 C 231.816 503.761, 233.962 501.085, 230.006 497.505 C 227.623 495.349, 214.547 494.281, 211.750 496.015 M 567.271 496.964 C 561.726 499.481, 559.009 503.964, 559.004 510.602 C 558.999 517.328, 561.972 521.800, 568.151 524.361 C 573.992 526.781, 578.793 525.999, 583.509 521.858 C 591.970 514.430, 589.719 500.705, 579.329 496.364 C 574.965 494.541, 572.319 494.672, 567.271 496.964 M 568.367 499.918 C 563.867 502.662, 562 505.834, 562 510.737 C 562 514.207, 562.638 515.726, 565.332 518.665 C 568.192 521.786, 569.314 522.314, 573.258 522.400 C 578.933 522.523, 582.905 519.844, 584.929 514.527 C 586.885 509.388, 584.889 503.498, 580.102 500.283 C 575.962 497.501, 572.506 497.394, 568.367 499.918 M 318 508.752 C 310.672 512.412, 308.878 523.132, 314.594 529.098 C 323.288 538.173, 337 532.597, 337 519.987 C 337 509.951, 327.199 504.156, 318 508.752 M 318.235 512.456 C 312.231 517.507, 313.388 526.593, 320.409 529.526 C 324.439 531.210, 327.654 530.513, 331.250 527.177 C 333.420 525.164, 334 523.728, 334 520.369 C 334 514.681, 330.921 511.067, 325.450 510.333 C 322.068 509.880, 320.882 510.229, 318.235 512.456 M 848.001 512.123 C 841.785 514.602, 838 520.579, 838 527.915 C 838 531.906, 838.408 533.148, 840 534 C 843.515 535.881, 842.307 537.169, 837.679 536.475 C 831.122 535.491, 825.210 537.527, 820.269 542.468 C 817.799 544.938, 815.733 548.083, 815.362 549.940 C 814.780 552.849, 814.478 553.074, 812.110 552.363 C 804.499 550.076, 798.755 552.260, 794.452 559.076 L 791.910 563.102 788.926 560.591 C 785.252 557.500, 780.446 556.500, 776.491 558.003 C 769.862 560.524, 766.662 565.876, 766.739 574.317 C 766.785 579.343, 766.568 580.039, 765.146 579.438 C 759.275 576.957, 754.624 578.811, 753.231 584.187 C 752.779 585.934, 751.798 587.567, 751.051 587.816 C 748.892 588.536, 750.510 581.150, 753.120 578.372 C 754.330 577.084, 756.859 575.742, 758.740 575.389 C 760.621 575.036, 762.327 574.242, 762.530 573.624 C 762.734 573.006, 763.419 570.483, 764.052 568.017 C 765.735 561.458, 772.085 555.410, 778.259 554.484 C 781.969 553.927, 783.829 554.201, 787.002 555.771 L 791.031 557.765 793.174 554.756 C 796.104 550.640, 803.176 547.613, 808.041 548.391 C 811.675 548.972, 811.910 548.829, 814.453 544.489 C 815.905 542.012, 818.197 539.262, 819.546 538.378 C 822.947 536.150, 822.622 534.001, 818.250 529.813 C 811.340 523.193, 805.418 521.545, 798.671 524.364 C 795.170 525.827, 790 531.281, 790 533.512 C 790 534.259, 789.533 536.099, 788.962 537.601 L 787.924 540.331 784.212 536.714 C 777.388 530.065, 769.257 528.337, 761.459 531.880 C 754.252 535.153, 751.530 539.749, 750.760 549.940 L 750.500 553.380 744.500 553.159 C 737.124 552.887, 732.606 555.306, 730.334 560.742 C 728.935 564.091, 728.831 571.193, 730.112 575.941 C 730.325 576.733, 729.825 577.490, 729 577.624 C 728.175 577.758, 725.786 578.147, 723.690 578.490 C 718.924 579.269, 712.530 584.865, 710.956 589.633 C 710.321 591.559, 710.076 593.410, 710.413 593.746 C 710.750 594.083, 712.707 593.541, 714.763 592.541 C 716.829 591.537, 721.630 590.530, 725.500 590.290 C 734.960 589.703, 740.450 592.383, 743.856 599.250 C 746.027 603.626, 746.501 604, 749.884 604 C 754.558 604, 757.744 606.233, 758.781 610.236 C 759.373 612.521, 760.372 613.589, 762.429 614.139 C 766.605 615.256, 769.939 618.874, 771.122 623.571 L 772.167 627.721 782.834 628.270 C 788.700 628.571, 793.661 628.660, 793.858 628.468 C 794.055 628.275, 792.637 625.503, 790.707 622.309 C 785.791 614.170, 784.448 609.202, 785.941 604.678 C 787.558 599.781, 792.909 595.373, 799.601 593.428 C 809.416 590.574, 818.160 593.439, 821.834 600.711 C 824.104 605.206, 827.408 619.009, 829.170 631.365 C 830.420 640.130, 831.824 642.576, 834.228 640.172 C 835.021 639.379, 834.992 636.790, 834.126 630.789 C 830.531 605.894, 830.010 600.267, 830.874 595.647 C 832.443 587.244, 839.795 581.999, 851 581.287 C 863.062 580.521, 867.372 584.725, 870.479 600.282 C 871.601 605.902, 872.965 610.625, 873.509 610.779 C 874.988 611.195, 875.790 602.389, 875.903 584.500 C 876.023 565.343, 876.824 562.941, 884.378 559.087 C 890.812 555.804, 903.142 555.625, 910.018 558.715 C 919.697 563.063, 921.609 568.995, 918.495 585.025 C 916.606 594.754, 916.908 597.013, 919.443 592.110 C 922.515 586.170, 930.686 583.901, 939.666 586.494 C 946.840 588.565, 951.750 592.158, 953.663 596.735 C 955.533 601.212, 954.795 604.467, 949.634 614.500 C 947.370 618.900, 945.377 622.800, 945.204 623.166 C 945.031 623.533, 948.333 623.758, 952.542 623.666 L 960.196 623.500 960.348 614 C 960.483 605.588, 960.823 603.928, 963.316 599.505 L 966.133 594.511 963.727 592.505 C 962.404 591.402, 960.021 589.558, 958.432 588.407 L 955.541 586.315 956.874 581.115 C 959.479 570.951, 955.944 564.961, 946.790 564.022 C 941.905 563.522, 941.636 563.335, 940.327 559.544 C 938.653 554.692, 935.532 551.182, 931.282 549.371 C 927.471 547.747, 921.204 547.592, 917.426 549.028 C 913.927 550.358, 913.197 549.545, 915.554 546.940 C 917.359 544.946, 917.366 544.567, 915.753 536.764 C 912.915 523.038, 905.600 514.397, 894.768 511.972 C 887.319 510.305, 881.691 511.957, 876.599 517.305 L 872.698 521.401 870.099 518.320 C 864.501 511.683, 855.462 509.148, 848.001 512.123 M 95.222 514.470 C 86.221 517.280, 80 525.166, 80 533.764 C 80 539.847, 84.113 551.630, 91.935 567.957 C 98.270 581.179, 99.512 585.052, 96.899 583.438 C 95.709 582.702, 84.957 561.252, 82.495 554.703 C 79.945 547.917, 77.267 546.938, 68.382 549.543 C 66.700 550.036, 65.794 549.403, 63.978 546.464 C 57.836 536.526, 40.035 536.736, 33.801 546.821 C 28.889 554.768, 31.619 565.487, 41.110 575.523 C 48.225 583.046, 47.457 584.923, 38.859 581.022 C 36.139 579.788, 32.301 579.036, 28.650 579.022 C 23.317 579.002, 22.500 579.300, 19.400 582.400 C 15.378 586.422, 14.925 590.724, 17.995 595.759 C 21.949 602.245, 28.689 604.294, 38.564 602.012 C 42.979 600.992, 48.132 601.897, 48.768 603.805 C 49.044 604.633, 47.512 605, 43.770 605 C 39.170 605, 37.997 605.406, 35.816 607.750 C 32.591 611.216, 31.780 614.620, 33.067 619.281 C 34.175 623.294, 37.226 626, 40.643 626 C 41.851 626, 48.389 624.403, 55.170 622.450 C 64.594 619.738, 70.152 618.759, 78.750 618.298 C 84.938 617.966, 90 617.397, 90 617.034 C 90 616.671, 88.683 615.112, 87.073 613.570 C 77.931 604.811, 82.968 597.471, 96.757 599.459 C 99.366 599.835, 104.950 601.010, 109.167 602.071 C 113.383 603.132, 117.059 604, 117.334 604 C 117.609 604, 120.909 601.465, 124.667 598.367 C 132.413 591.981, 137.226 589.589, 140.613 590.439 C 144.299 591.364, 145.337 594.484, 144.653 602.575 C 144.217 607.731, 144.394 610.051, 145.272 610.700 C 145.947 611.200, 151.450 612.400, 157.500 613.365 C 163.550 614.331, 170.525 616.106, 173 617.310 C 177.342 619.423, 177.500 619.658, 177.500 624 L 177.500 628.500 185.476 629.429 C 195.437 630.589, 211.275 629.058, 226.500 625.463 C 248.400 620.293, 255.673 618.957, 265.367 618.326 L 275.234 617.684 276.715 614.139 C 278.581 609.673, 277.771 604.080, 274.920 601.750 C 271.391 598.866, 264.674 599.424, 260.766 602.927 L 257.500 605.854 253.374 601.177 C 249.488 596.771, 248.956 596.500, 244.206 596.500 C 240.107 596.500, 238.281 597.122, 234.452 599.821 C 231.861 601.647, 229.425 602.772, 229.039 602.321 C 228.653 601.869, 227.772 599.516, 227.081 597.091 C 222.541 581.159, 206.002 571.623, 190.807 576.176 C 182.779 578.581, 174.754 588.500, 176.468 593.900 C 177.751 597.943, 175.023 596.841, 173.125 592.550 C 170.358 586.295, 166.094 583.771, 159.161 584.284 C 154.242 584.648, 153.658 584.456, 151.721 581.837 C 147.004 575.456, 134.892 572.939, 128.286 576.967 C 124.405 579.333, 122.836 577.871, 125.829 574.676 C 127.861 572.506, 127.861 572.477, 125.964 564.500 C 124.917 560.100, 123.154 550.425, 122.047 543 C 119.485 525.828, 118.575 522.725, 114.863 518.497 C 110.258 513.252, 103.536 511.874, 95.222 514.470 M 994.725 517.752 C 990.515 522.403, 989.817 532.642, 993.013 542.839 C 995.757 551.593, 995.541 554.258, 991.369 563.149 C 987.747 570.868, 987.742 570.897, 989.369 574.964 C 990.276 577.232, 990.993 581.804, 990.984 585.270 C 990.965 592.188, 989.722 594.873, 982.036 604.594 C 978.112 609.556, 977.568 610.848, 977.536 615.277 L 977.500 620.316 983.500 621.542 C 986.800 622.217, 989.837 622.569, 990.250 622.325 C 990.663 622.081, 991 620.769, 991 619.409 C 991 615.245, 993.874 609.722, 998.500 605 C 1005.894 597.452, 1007.684 590.315, 1004.144 582.500 C 1000.760 575.028, 1000.788 573.805, 1004.516 566.404 C 1009.098 557.308, 1009.021 554.033, 1003.997 544.494 C 1000.108 537.110, 1000.001 536.643, 1000.247 528.102 C 1000.428 521.811, 1000.110 518.841, 999.128 517.656 C 997.392 515.562, 996.692 515.578, 994.725 517.752 M 95.500 518.503 C 87.853 521.208, 84.555 528.480, 89.108 532.595 C 92.221 535.409, 102.280 535.226, 107.065 532.269 C 119.600 524.522, 110.180 513.309, 95.500 518.503 M 167.984 518.835 C 161.774 522.105, 161.362 524.006, 160.750 552.203 C 160.449 566.117, 160.044 578.108, 159.851 578.852 C 159.621 579.736, 161.153 580.637, 164.279 581.455 C 166.907 582.143, 170.124 583.707, 171.427 584.931 L 173.796 587.157 176.884 582.669 C 178.582 580.200, 181.549 577.206, 183.477 576.014 C 186.526 574.130, 187.317 572.750, 189.556 565.410 C 196.855 541.478, 198.721 527.902, 195.367 523.114 C 191.301 517.308, 175.556 514.848, 167.984 518.835 M 95.500 521.386 C 91.550 523.107, 89.772 525.370, 90.173 528.162 C 90.865 532.969, 101.351 533.100, 106.971 528.371 C 112.324 523.867, 110.141 519.959, 102.316 520.039 C 100.217 520.061, 97.150 520.667, 95.500 521.386 M 172 520.654 C 169.390 521.699, 166 525.285, 166 527 C 166 531.791, 176.276 535.624, 184.291 533.823 C 192.241 532.037, 194.326 526.798, 188.739 522.646 C 185.953 520.575, 175.347 519.312, 172 520.654 M 170.861 525 L 168.500 527 170.861 529 C 172.668 530.531, 174.675 531, 179.420 531 C 186.225 531, 189.731 529.347, 188.688 526.630 C 187.170 522.674, 174.928 521.555, 170.861 525 M 655.422 525.356 C 653.730 526.127, 651.030 528.318, 649.422 530.223 C 647.815 532.129, 644.060 534.995, 641.078 536.594 C 635.093 539.801, 628.856 546.877, 626.966 552.602 C 625.395 557.364, 626.260 563.278, 629.163 567.610 C 632.239 572.200, 642.222 578.852, 647.239 579.654 C 649.820 580.067, 652.353 581.420, 654.425 583.491 C 661.047 590.114, 671.497 591.701, 676.643 586.865 C 679.114 584.545, 679.779 579.781, 678.021 577 C 677.309 575.873, 678.109 574.445, 681.245 571.250 C 683.539 568.913, 685.786 567, 686.239 567 C 686.691 567, 688.467 568.602, 690.186 570.559 C 693.489 574.321, 699.695 578, 702.738 578 C 708.818 578, 710.834 571.035, 706.820 563.893 L 704.639 560.013 706.695 557.757 C 711.201 552.809, 712.276 547.267, 709.499 543.302 C 705.996 538.301, 698.468 539.762, 690.662 546.957 L 686.204 551.066 683.969 547.450 C 681.942 544.171, 681.853 543.477, 683.003 539.992 C 684.125 536.590, 684.049 535.767, 682.334 532.824 C 679.492 527.945, 673.104 524.793, 665.128 524.334 C 660.817 524.086, 657.424 524.443, 655.422 525.356 M 656.750 528.598 C 651.778 530.740, 652.009 532, 657.374 532 C 662.646 532, 668.626 533.994, 673.707 537.447 C 678.112 540.440, 679.547 540.622, 680.439 538.299 C 681.259 536.161, 678.312 532.098, 674.187 529.682 C 669.804 527.115, 661.402 526.593, 656.750 528.598 M 875.500 533.516 C 874.950 533.686, 873.297 534.089, 871.827 534.412 C 868.080 535.235, 863 540.589, 863 543.716 C 863 546.144, 863.225 546.036, 867.320 541.639 C 871.378 537.281, 871.952 537, 876.785 537 C 881.125 537, 882.489 537.491, 885.499 540.133 C 889.627 543.758, 891.300 543.229, 888.343 539.234 C 885.669 535.620, 878.714 532.524, 875.500 533.516 M 548.500 535.716 C 540.399 537.676, 538.767 549.759, 546.091 553.547 C 550.168 555.655, 553.445 555.338, 556.805 552.511 C 562.407 547.797, 561.215 539.241, 554.568 536.464 C 552.641 535.659, 550.937 535.052, 550.782 535.116 C 550.627 535.180, 549.600 535.450, 548.500 535.716 M 648.882 536.381 C 639.936 539.577, 631.812 547.269, 629.907 554.346 C 628.441 559.789, 630.836 565.848, 636.302 570.526 C 641.526 574.998, 644.304 575.702, 648.612 573.648 C 653.270 571.427, 655.992 566.642, 655.996 560.667 C 656.001 554.763, 658.329 554.610, 658.820 560.482 C 659.284 566.042, 658.387 568.566, 654.367 573.015 C 650.079 577.762, 651.017 578.588, 659.684 577.693 C 666.973 576.941, 674.808 573.008, 680.479 567.256 C 686.464 561.186, 686.843 559.320, 683.386 552.968 C 675.955 539.314, 660.911 532.082, 648.882 536.381 M 546.550 540.359 C 543.380 543.529, 543.293 546.988, 546.314 549.826 C 549.488 552.808, 553.366 552.622, 555.927 549.365 C 558.459 546.146, 558.549 543.870, 556.250 541.153 C 553.339 537.713, 549.509 537.400, 546.550 540.359 M 969.629 545.029 C 964.623 550.979, 964.926 558.173, 970.579 567.561 C 977.350 578.806, 977.432 585.420, 970.902 593.610 C 964.784 601.284, 963.525 604.758, 963.512 614 C 963.495 625.877, 963.729 626.257, 969.419 623.622 C 973.924 621.535, 973.998 621.422, 973.999 616.718 C 974 610.493, 975.669 606.704, 981.325 600.088 C 983.870 597.111, 986.464 593.123, 987.090 591.226 C 988.892 585.767, 987.781 577.969, 984.430 572.561 C 976.461 559.702, 976.565 559.981, 976.799 552.118 C 977.109 541.718, 974.547 539.184, 969.629 545.029 M 700 544.115 C 698.625 544.659, 695.587 546.974, 693.250 549.260 C 689.296 553.127, 689 553.789, 689 558.775 C 689 565.284, 691.826 569.569, 698.429 573.072 C 702.128 575.034, 703.064 575.191, 704.408 574.077 C 706.694 572.179, 706.374 568.830, 703.500 564.595 C 702.125 562.569, 701 560.710, 701 560.464 C 701 560.218, 702.575 557.954, 704.500 555.432 C 708.540 550.140, 708.936 546.769, 705.777 544.557 C 703.245 542.783, 703.350 542.791, 700 544.115 M 230.898 546.286 C 226.283 549.390, 224.541 553.470, 221.997 567.133 L 219.831 578.765 224.337 584.886 C 226.815 588.252, 229.139 592.355, 229.501 594.003 C 230.855 600.168, 235.963 596.856, 238.553 588.134 C 239.402 585.275, 242.619 579.237, 245.702 574.718 C 255.320 560.615, 256.972 554.777, 252.832 549.514 C 248.275 543.720, 237.147 542.082, 230.898 546.286 M 285.759 548.750 C 284.732 549.909, 284.083 553.102, 283.837 558.199 C 283.396 567.354, 281.986 569.727, 273.695 575.257 C 266.173 580.274, 263.412 585.891, 264.898 593.157 C 265.497 596.083, 265.948 596.435, 269.380 596.655 C 277.494 597.174, 282.040 603.666, 280.305 612.255 C 279.777 614.871, 279.567 617.233, 279.839 617.505 C 280.111 617.777, 282.171 618.009, 284.417 618.021 C 286.663 618.032, 293.900 618.693, 300.500 619.490 C 307.100 620.286, 316.697 620.952, 321.827 620.969 C 330.821 620.999, 331.258 620.896, 334.077 618.077 C 337.952 614.202, 338.095 609.004, 334.428 605.337 C 332.155 603.064, 331.233 602.816, 326.509 603.208 C 321.742 603.603, 320.553 604.208, 315.542 608.788 C 309.612 614.207, 305.456 615.741, 299.780 614.606 C 292.170 613.084, 290.552 606.356, 296.535 601.104 C 298.479 599.397, 300.503 598, 301.032 598 C 301.561 598, 303.796 596.373, 305.997 594.384 C 312.280 588.708, 311.232 582.394, 303.710 580.605 C 300.594 579.864, 293.412 582.570, 291.117 585.350 C 287.624 589.581, 285.502 580.520, 288.376 573.643 C 289.132 571.832, 291.425 568.021, 293.471 565.173 C 298.188 558.607, 299.024 553.557, 296.023 549.750 C 293.451 546.487, 288.217 545.977, 285.759 548.750 M 232.496 550.004 C 229.892 552.882, 231.835 556.569, 237.251 559.027 C 242.434 561.380, 244.875 561.476, 247.777 559.443 C 250.807 557.322, 250.567 554.414, 247.077 550.923 C 244.638 548.484, 243.339 548, 239.232 548 C 235.577 548, 233.843 548.516, 232.496 550.004 M 640.750 549.080 C 638.570 550.350, 638.488 553.330, 640.584 555.070 C 643.701 557.657, 647.608 552.642, 644.960 549.452 C 643.551 547.754, 643.096 547.714, 640.750 549.080 M 235.206 551.251 C 234.265 552.386, 234.521 553.141, 236.467 554.969 C 239.531 557.848, 246.250 558.398, 246.778 555.813 C 247.474 552.402, 237.511 548.474, 235.206 551.251 M 461.190 552.983 C 456.129 556.134, 455 560.062, 455 574.518 C 455 587.814, 453.967 591.877, 450.055 593.970 C 447.312 595.438, 443.410 593.693, 441.597 590.188 C 440.773 588.594, 439.638 583.617, 439.075 579.128 C 437.960 570.232, 436.890 567.411, 433.633 564.772 C 428.776 560.838, 421 564.341, 421 570.462 C 421 574.845, 423.552 577.798, 430.042 580.927 C 436.831 584.200, 438.787 586.951, 440.055 595.011 C 440.708 599.159, 442.194 603.304, 444.174 606.500 C 445.877 609.250, 447.496 613.432, 447.770 615.794 C 448.167 619.205, 448.835 620.380, 451.015 621.508 C 452.525 622.289, 455.183 624.125, 456.922 625.588 C 458.662 627.052, 460.220 628.080, 460.386 627.874 C 460.551 627.668, 461.545 624.803, 462.593 621.507 C 464.315 616.096, 465.047 615.154, 470.141 611.802 C 473.243 609.760, 476.763 606.502, 477.962 604.561 C 481.025 599.606, 484.101 597.461, 491.804 594.909 C 500.373 592.071, 502.451 590.677, 504.479 586.403 C 505.835 583.544, 505.926 582.305, 504.985 579.454 C 503.593 575.237, 500.839 573.602, 496.353 574.330 C 491.061 575.189, 487.355 578.533, 483.885 585.582 C 478.868 595.773, 472.858 599.391, 467.353 595.535 C 462.543 592.166, 460.446 581.868, 463.415 576.200 C 464.193 574.715, 466.481 571.925, 468.500 570 C 475.244 563.570, 476.540 558.861, 472.750 554.555 C 469.624 551.003, 465.312 550.417, 461.190 552.983 M 835.421 552.896 C 831.244 554.793, 827 559.198, 827 561.635 C 827 563.707, 827.837 563.316, 831.331 559.611 C 837.702 552.855, 847.600 552.400, 853.779 558.579 C 858.882 563.682, 861.079 562.912, 856.829 557.509 C 854.133 554.082, 847.635 551.044, 843 551.044 C 841.075 551.044, 837.665 551.878, 835.421 552.896 M 886.500 561.403 C 879.716 564.397, 879.566 564.945, 878.853 589.354 C 878.232 610.613, 877.588 616.108, 874.556 626 C 872.377 633.112, 871.891 636, 872.873 636 C 873.373 636, 874.063 634.883, 874.406 633.518 C 875.333 629.826, 880.939 623.933, 885.491 621.865 C 889.904 619.860, 899.440 619.405, 904.803 620.943 C 909.065 622.166, 908.857 622.774, 913.479 595.574 C 918.171 567.959, 917.903 565.686, 909.500 561.863 C 904.662 559.663, 891.059 559.390, 886.500 561.403 M 888.185 564.466 C 885.282 565.773, 884.909 566.364, 885.185 569.229 C 885.660 574.157, 890.289 576.189, 900.148 575.798 C 906.023 575.565, 908.294 575.044, 909.942 573.552 C 912.686 571.069, 912.245 568.255, 908.699 565.617 C 905.061 562.911, 893.128 562.241, 888.185 564.466 M 561.174 568.314 C 558.098 571.589, 558.302 576.306, 561.635 578.927 C 565.130 581.677, 568.546 581.545, 571.545 578.545 C 574.545 575.546, 574.677 572.130, 571.927 568.635 C 569.218 565.191, 564.248 565.043, 561.174 568.314 M 889.500 567.425 C 887.513 568.991, 887.516 569.015, 889.861 571.001 C 892.805 573.494, 904.454 573.863, 907.559 571.561 C 909.415 570.185, 909.423 570.044, 907.733 568.330 C 905.249 565.810, 892.360 565.171, 889.500 567.425 M 63.250 570.989 C 61.462 572.079, 60 573.352, 60 573.819 C 60 575.759, 61.419 575.815, 63.769 573.967 C 68.632 570.142, 75.302 572.487, 77.986 578.966 C 79.367 582.300, 81.002 582.998, 80.996 580.250 C 80.990 577.101, 77.028 571.910, 73.510 570.440 C 68.937 568.529, 67.126 568.626, 63.250 570.989 M 563.200 570.200 C 562.540 570.860, 562 572.345, 562 573.500 C 562 574.655, 562.540 576.140, 563.200 576.800 C 563.860 577.460, 565.345 578, 566.500 578 C 567.655 578, 569.140 577.460, 569.800 576.800 C 570.460 576.140, 571 574.655, 571 573.500 C 571 572.345, 570.460 570.860, 569.800 570.200 C 569.140 569.540, 567.655 569, 566.500 569 C 565.345 569, 563.860 569.540, 563.200 570.200 M 788.094 573.161 C 784.263 575.792, 782.214 578.547, 783.289 579.623 C 783.685 580.018, 785.019 579.421, 786.254 578.296 C 792.127 572.946, 798.219 572.497, 803.385 577.034 C 807.709 580.830, 809.067 579.226, 805.197 574.895 C 802.794 572.205, 801.469 571.623, 796.918 571.257 C 792.431 570.897, 790.914 571.224, 788.094 573.161 M 383.223 576.557 C 380.370 578.555, 380.302 583.134, 383.058 587.594 C 384.190 589.426, 388.235 593.193, 392.048 595.966 C 395.860 598.739, 400.115 602.806, 401.502 605.004 C 403.315 607.876, 404.708 609, 406.454 609 C 410.404 609, 410.174 607.588, 405.473 602.974 C 402.564 600.119, 400.463 596.872, 399.378 593.558 C 396.852 585.835, 393.353 579.423, 390.398 577.099 C 387.208 574.590, 386.146 574.509, 383.223 576.557 M 668 579.049 C 665.525 580.062, 662.263 580.916, 660.750 580.946 C 653.585 581.087, 661.361 586, 668.750 586 C 674.016 586, 676 584.768, 676 581.500 C 676 579.509, 674.236 576.880, 673.050 577.104 C 672.748 577.161, 670.475 578.036, 668 579.049 M 845.994 584.934 C 833.299 588.796, 831.652 594.649, 835.915 620.743 C 837.015 627.476, 838.223 636.381, 838.599 640.532 C 839.501 650.485, 841.203 652, 851.486 652 C 858.959 652, 864.316 650.737, 867.130 648.312 C 868.846 646.833, 870.246 635.005, 870.244 622 C 870.243 614.370, 866.507 593.880, 864.359 589.727 C 861.878 584.929, 853.338 582.700, 845.994 584.934 M 843.161 589.149 C 837.415 591.994, 835.844 595.288, 838.816 598.260 C 843.203 602.647, 855.800 600.288, 859.691 594.350 C 861.359 591.803, 861.334 591.684, 858.644 589.370 C 855.099 586.321, 849.050 586.234, 843.161 589.149 M 924.685 591.033 C 921.082 593.867, 914.469 608.155, 912.989 616.304 C 911.834 622.661, 911.884 623.252, 913.752 625.304 C 914.851 626.512, 916.256 628.483, 916.875 629.684 C 918.645 633.122, 918.183 641.999, 915.982 646.851 C 914.896 649.244, 914.217 651.542, 914.473 651.957 C 914.730 652.372, 917.274 652.342, 920.128 651.891 C 926.726 650.848, 929.970 647.812, 932.529 640.284 C 933.603 637.122, 936.675 630.927, 939.354 626.518 C 951.547 606.448, 953.434 599.706, 948.250 594.740 C 942.163 588.910, 929.848 586.972, 924.685 591.033 M 844.038 591.840 C 839.587 594.227, 839.176 595.736, 842.619 597.045 C 845.889 598.288, 854.201 596.668, 856.062 594.425 C 859.589 590.176, 850.703 588.265, 844.038 591.840 M 926.897 592.883 C 924.830 594.556, 924.707 595.062, 925.787 597.432 C 928.034 602.363, 939.853 605.755, 945.066 602.965 C 946.130 602.395, 947 600.890, 947 599.620 C 947 593.358, 932.366 588.453, 926.897 592.883 M 135.500 594.541 C 133.850 595.363, 129.596 598.503, 126.046 601.518 C 122.497 604.533, 118.747 607, 117.713 607 C 116.679 607, 112.383 606.125, 108.167 605.055 C 92.849 601.170, 86 601.408, 86 605.827 C 86 607.677, 91.935 613.751, 98.250 618.363 C 100.312 619.869, 102 621.621, 102 622.256 C 102 622.891, 97.461 627.763, 91.914 633.082 C 83.858 640.808, 81.896 643.231, 82.164 645.127 C 82.666 648.676, 88.162 648.803, 95.605 645.437 C 107.139 640.219, 113.424 638, 116.664 638 C 119.680 638, 120.433 638.720, 125.867 646.802 C 131.801 655.627, 137.900 662, 140.412 662 C 143.599 662, 144.288 659.199, 143.552 649.234 C 143.157 643.880, 142.758 637.700, 142.667 635.501 L 142.500 631.502 149 630.760 C 169.874 628.376, 174.500 627.057, 174.500 623.487 C 174.500 620.441, 168.945 618.312, 155.290 616.124 C 148.574 615.048, 142.563 613.848, 141.932 613.458 C 141.123 612.958, 140.991 610.267, 141.485 604.339 C 141.988 598.305, 141.842 595.515, 140.970 594.464 C 139.482 592.671, 139.245 592.674, 135.500 594.541 M 719.942 593.948 C 716.254 595.067, 712.824 596.955, 710.293 599.259 C 708.192 601.171, 707.919 601.189, 704.642 599.634 C 700.121 597.489, 692.493 597.592, 687.500 599.866 C 682.687 602.057, 676 609.183, 676 612.119 C 676 613.909, 675.579 614.138, 673.250 613.612 C 660.808 610.800, 653.586 612.151, 647.267 618.470 C 643.515 622.222, 643 623.277, 643 627.213 C 643 630.254, 643.577 632.213, 644.800 633.319 C 647.476 635.741, 654.159 637.829, 662.808 638.945 C 667.039 639.491, 672.975 640.956, 676 642.200 C 680.867 644.201, 683.225 644.463, 696.500 644.473 C 710.605 644.484, 712.157 644.287, 722.500 641.181 C 731.665 638.428, 735.874 637.755, 747.726 637.149 C 761.619 636.438, 762.022 636.353, 764.976 633.523 C 767.376 631.223, 768 629.782, 768 626.535 C 768 621.039, 765.844 618.307, 760.205 616.659 C 756.099 615.459, 755.538 614.972, 755.796 612.838 C 755.975 611.361, 755.291 609.668, 754.068 608.562 C 752.155 606.831, 749.014 606.712, 743 608.143 C 741.861 608.414, 741.574 607.732, 741.806 605.309 C 742.264 600.530, 739.704 596.499, 735.018 594.624 C 730.766 592.923, 724.280 592.632, 719.942 593.948 M 928.473 595.044 C 926.817 597.723, 934.648 601.514, 940.441 600.839 C 944.935 600.315, 944.671 598.206, 939.837 596.012 C 935.111 593.867, 929.496 593.389, 928.473 595.044 M 414.564 596.929 C 413.127 598.517, 412.887 599.771, 413.454 602.727 C 414.962 610.599, 415.167 610.297, 407.500 611.498 C 398.470 612.913, 396 614.279, 396 617.861 C 396 621.185, 399.379 624.675, 403.834 625.952 C 411.336 628.104, 426.779 623.849, 423.929 620.415 C 422.656 618.880, 423.119 613.783, 425.131 607.186 C 426.318 603.297, 426.253 602.509, 424.474 599.186 C 422.062 594.683, 417.531 593.650, 414.564 596.929 M 800.849 596.356 C 794.424 598.130, 791.089 600.543, 789.367 604.664 C 787.501 609.130, 788.509 612.495, 795.052 623.637 C 797.680 628.112, 800.935 634.862, 802.285 638.637 C 805.298 647.059, 807.032 648.198, 816.177 647.761 C 825.915 647.297, 827.420 645.669, 826.592 636.500 C 825.640 625.959, 821.430 606.420, 819.343 602.857 C 815.524 596.334, 809.102 594.077, 800.849 596.356 M 191.763 598.565 C 189.005 600.062, 185.587 605.253, 186.655 606.322 C 186.972 606.639, 188.695 605.346, 190.484 603.449 C 193.114 600.660, 194.484 600, 197.646 600 C 202.842 600, 205.278 601.893, 207.889 607.963 L 210.060 613.010 215.373 612.386 C 218.605 612.006, 221.507 612.201, 222.782 612.883 C 225.870 614.536, 226.572 612.421, 223.585 610.464 C 222.008 609.430, 219.548 608.952, 216.823 609.149 C 212.751 609.443, 212.430 609.262, 210.316 605.479 C 206.920 599.403, 203.601 596.993, 198.694 597.040 C 196.387 597.062, 193.268 597.748, 191.763 598.565 M 798.251 599.973 C 793.173 602.277, 791.137 605.812, 792.793 609.446 C 795.964 616.405, 814 611.435, 814 603.602 C 814 598.218, 806.119 596.401, 798.251 599.973 M 799.235 602.473 C 795.453 604.145, 794.252 606.394, 796.011 608.513 C 797.690 610.536, 801.639 610.347, 806.822 607.995 C 810.311 606.412, 811.081 605.597, 810.822 603.767 C 810.556 601.891, 809.810 601.459, 806.500 601.265 C 804.300 601.135, 801.031 601.679, 799.235 602.473 M 495.973 609.672 C 494.613 610.592, 491.382 613.292, 488.793 615.672 C 482.978 621.019, 479.590 621.335, 474.645 616.993 L 471.220 613.986 468.110 617.528 C 466.348 619.535, 465 622.188, 465 623.651 C 465 625.866, 465.320 626.135, 467.250 625.545 C 468.488 625.166, 472.837 624.599, 476.915 624.286 C 482.397 623.864, 485.236 623.101, 487.807 621.356 C 490.776 619.341, 492.347 619.029, 498.574 619.214 C 506.607 619.454, 510 617.757, 510 613.500 C 510 608.437, 501.307 606.065, 495.973 609.672 M 118.639 616.694 C 117.513 617.820, 117.954 619, 119.500 619 C 120.325 619, 121 618.577, 121 618.059 C 121 616.798, 119.438 615.895, 118.639 616.694 M 717.500 616.680 C 716.400 616.899, 714.522 617.285, 713.327 617.539 C 712.132 617.792, 709.835 619.109, 708.223 620.466 L 705.291 622.933 701.434 620.966 C 695.007 617.690, 687.152 618.648, 682.170 623.317 C 680.390 624.985, 678.551 625.517, 674.378 625.570 C 670.181 625.624, 668.417 626.139, 666.763 627.792 C 663.972 630.584, 664.915 631.455, 668.601 629.491 C 670.636 628.407, 672.891 628.128, 676.170 628.556 C 680.145 629.075, 680.997 628.875, 681.886 627.213 C 684.727 621.905, 695.418 620.437, 701.446 624.528 L 705.172 627.056 708.500 624.134 C 715.362 618.109, 723.308 617.697, 729.403 623.049 C 733.128 626.319, 734 626.630, 734 624.687 C 734 622.971, 729.057 618.369, 726.500 617.705 C 722.348 616.627, 719.435 616.295, 717.500 616.680 M 134.694 619.639 C 133.761 620.573, 134.888 622, 136.559 622 C 137.352 622, 138 621.325, 138 620.500 C 138 618.994, 135.889 618.444, 134.694 619.639 M 428.500 624.236 C 419.817 627.357, 414.157 633.631, 413.732 640.604 C 413.534 643.854, 413.894 644.607, 416.175 645.726 C 421.090 648.136, 434.554 649.193, 445.845 648.057 C 461.765 646.455, 465.314 643.456, 461.089 635.173 C 458.591 630.278, 453.144 625.659, 448.078 624.141 C 443.377 622.733, 432.536 622.786, 428.500 624.236 M 886.421 624.896 C 884.178 625.915, 881.384 627.968, 880.212 629.458 C 877.476 632.935, 872.129 646.779, 871.363 652.365 C 870.839 656.194, 871.069 656.909, 873.427 658.764 C 878.250 662.558, 892.113 664.207, 900.231 661.953 C 904.350 660.809, 908.212 656.039, 912.532 646.759 C 918.953 632.967, 912.245 623.044, 896.500 623.044 C 892.794 623.044, 888.941 623.752, 886.421 624.896 M 110.345 626.543 C 110.019 627.392, 109.995 628.328, 110.291 628.624 C 111.170 629.503, 115.108 626.983, 114.469 625.950 C 113.553 624.467, 111.001 624.834, 110.345 626.543 M 890.209 626.934 C 882.951 628.765, 880.925 634.389, 886.130 638.257 C 889.978 641.116, 900.393 641.699, 905 639.313 C 907.972 637.774, 908.500 636.980, 908.500 634.056 C 908.500 631.264, 907.916 630.271, 905.413 628.809 C 901.715 626.650, 894.745 625.790, 890.209 626.934 M 468.625 628.411 C 463.104 630.462, 462.572 631.273, 464.415 634.835 C 465.287 636.521, 466 638.834, 466 639.975 C 466 641.295, 467 642.463, 468.750 643.188 C 472.705 644.825, 496.894 644.846, 499.750 643.215 C 504.421 640.546, 501.346 633.774, 493.655 629.793 C 488.312 627.027, 474.416 626.260, 468.625 628.411 M 128 629.417 C 128 630.288, 128.713 631, 129.583 631 C 130.454 631, 130.989 630.466, 130.771 629.813 C 130.153 627.958, 128 627.651, 128 629.417 M 890.500 629.724 C 881.889 631.840, 886.993 638, 897.357 638 C 902.417 638, 906.709 635.290, 905.722 632.718 C 904.687 630.020, 896.137 628.338, 890.500 629.724 M 326.324 641.439 C 317.896 644.075, 312.581 648.895, 314.565 652.104 C 316.975 656.004, 335.443 659.579, 349.097 658.788 C 357.941 658.276, 362 656.315, 362 652.555 C 362 649.276, 355.332 643.734, 348.881 641.651 C 342.849 639.703, 332.198 639.603, 326.324 641.439 M 601.183 641.854 C 590.690 645.572, 585.715 653.802, 591.621 657.671 C 595.612 660.286, 605.374 661.956, 616.807 661.979 C 633.063 662.012, 640.050 659.320, 638.609 653.579 C 637.820 650.433, 632.004 644.723, 627.179 642.356 C 621.724 639.679, 608.065 639.416, 601.183 641.854 M 237.293 642.648 C 233.469 644.003, 227 649.832, 227 651.924 C 227 652.394, 227.787 653.748, 228.750 654.932 C 230.846 657.511, 239.707 659.018, 253.711 659.177 C 264.438 659.299, 268 657.809, 268 653.199 C 268 649.146, 265.382 646.087, 259.618 643.403 C 253.590 640.596, 244.002 640.272, 237.293 642.648 M 326.759 644.423 C 321.662 646.242, 318 648.760, 318 650.446 C 318 653.174, 331.798 656, 345.119 656 C 358.792 656, 362.073 653.763, 355.953 648.614 C 349.889 643.511, 335.215 641.405, 326.759 644.423 M 601.417 645.060 C 595.561 647.312, 591.455 651.136, 592.359 653.494 C 593.608 656.749, 599.986 658.296, 614 658.746 C 627.831 659.190, 634.837 658.053, 635.769 655.214 C 636.466 653.089, 627.895 645.342, 623.497 644.121 C 617.328 642.408, 607.188 642.840, 601.417 645.060 M 237.025 646.250 C 231.513 649.070, 229.942 651.371, 232.075 653.503 C 233.136 654.565, 237.177 655.360, 245.058 656.058 C 262.130 657.571, 266.797 656.239, 264.223 650.589 C 261.400 644.395, 245.585 641.871, 237.025 646.250 M 403.250 645.031 C 400.648 646.077, 400.276 648.508, 402.582 649.393 C 404.402 650.091, 414 650.225, 414 649.552 C 414 649.305, 412.936 647.955, 411.635 646.552 C 409.170 643.891, 407.045 643.506, 403.250 645.031 M 758.030 653.583 C 750.138 657.007, 748.484 662.051, 754.437 664.538 C 759.686 666.731, 770.796 667.421, 775.402 665.840 C 780.849 663.970, 781.989 661.815, 779.401 658.286 C 775.095 652.415, 765.560 650.317, 758.030 653.583 M 524.962 656.250 C 521.178 658.158, 520.500 658.954, 520.500 661.487 C 520.500 665.565, 524.283 667.250, 534.691 667.807 C 545.023 668.359, 549.652 667.519, 551.090 664.832 C 551.985 663.159, 551.823 662.235, 550.264 660.125 C 545.626 653.851, 533.425 651.982, 524.962 656.250 M 758.003 656.752 C 752.822 659.342, 752.960 661.501, 758.395 662.869 C 766.998 665.036, 778.740 663.747, 777.754 660.744 C 777.530 660.060, 775.851 658.487, 774.025 657.250 C 769.933 654.477, 762.984 654.261, 758.003 656.752 M 527.465 657.952 C 524.193 659.278, 522.720 661.523, 524.276 662.814 C 526.221 664.428, 538.622 666.158, 542.825 665.401 C 549.824 664.141, 550.191 661.701, 543.872 658.434 C 540.893 656.893, 530.808 656.597, 527.465 657.952" stroke="none" fill="black" fill-rule="evenodd"/>
</svg>