<svg xmlns="http://www.w3.org/2000/svg" width="1024" height="688" viewBox="0 0 1024 688" version="1.1">
	<path d="M 249.851 6.802 L 257.202 13.535 249.924 15.243 C 233.985 18.984, 222.451 31.570, 217.028 51.141 C 214.407 60.598, 214.082 81.993, 216.528 84.023 C 217.633 84.941, 220.602 85.137, 227.278 84.736 C 247.290 83.532, 264.619 72.659, 272.677 56.250 C 275.243 51.024, 275.500 49.521, 275.500 39.751 C 275.500 33.839, 275.647 29.002, 275.827 29.001 C 276.007 29, 281.182 32.769, 287.327 37.376 C 307.955 52.840, 343.840 75.930, 355.250 81.080 C 356.762 81.762, 358 82.607, 358 82.957 C 358 83.307, 355.036 84.102, 351.413 84.722 C 333.458 87.798, 322.293 99.214, 318.315 118.565 C 316.922 125.341, 316.857 127.882, 317.866 135.963 C 318.517 141.167, 319.732 146.468, 320.566 147.742 C 321.938 149.835, 322.585 149.996, 327.292 149.416 C 356.345 145.836, 376.023 123.552, 373.357 97.250 C 373.009 93.813, 372.948 91, 373.222 91 C 373.496 91, 377.666 92.823, 382.488 95.051 C 442.566 122.807, 499.662 136.845, 558.322 138.284 L 567.143 138.500 568.944 143.827 C 569.976 146.881, 572.307 150.754, 574.405 152.903 L 578.065 156.651 577.378 166.417 C 576.621 177.194, 577.064 176.579, 568.394 178.897 C 566.136 179.500, 562.628 181.120, 560.600 182.497 C 558.571 183.874, 556.564 185, 556.140 185 C 555.715 185, 554.406 183.312, 553.230 181.250 C 543.989 165.048, 523.907 151.071, 502.440 145.899 C 492.640 143.538, 476.582 142.877, 464.634 144.342 L 457.769 145.184 460.023 141.174 C 463.754 134.535, 461.413 132.650, 452.500 135.119 C 450.300 135.728, 447.294 137.084, 445.820 138.132 C 444.346 139.179, 442.906 139.656, 442.618 139.192 C 442.331 138.727, 442.753 135.532, 443.556 132.091 C 444.359 128.649, 444.760 125.421, 444.449 124.917 C 441.603 120.313, 427.427 131.990, 424.315 141.500 C 423.775 143.150, 422.931 144.424, 422.439 144.331 C 421.947 144.237, 420.628 141.573, 419.508 138.409 C 418.387 135.245, 416.882 132.461, 416.164 132.221 C 414.369 131.623, 410.232 135.680, 407.722 140.500 C 406.353 143.130, 405.562 146.726, 405.413 151 L 405.187 157.500 397.122 161.642 C 376.063 172.457, 362.884 186.167, 352.740 207.813 C 348.501 216.859, 345.035 231.187, 345.013 239.750 L 345 245 339.194 245 C 326.145 245, 314.455 252.211, 308.392 264 C 305.849 268.946, 305.561 270.514, 305.532 279.572 C 305.501 289.431, 305.590 289.825, 309.734 298.193 C 316.459 311.769, 328.553 321.825, 342.535 325.467 C 350.780 327.615, 359.847 327.410, 367.272 324.908 C 373.138 322.932, 373.538 322.913, 374.491 324.565 C 381.250 336.277, 393.366 346.843, 406.237 352.250 C 410.492 354.037, 413.980 355.783, 413.987 356.128 C 414.009 357.209, 401.660 359.917, 391.361 361.090 C 373.978 363.070, 352.239 360.305, 334.383 353.844 C 326.179 350.876, 325.674 350.518, 323.842 346.375 C 322.244 342.763, 322.095 341.359, 322.968 338.119 C 326.527 324.901, 308.718 320.857, 303.365 333.668 C 302.600 335.501, 301.735 337, 301.444 337 C 301.152 337, 298.571 335.242, 295.707 333.094 C 284.335 324.563, 276.944 322.949, 272.750 328.080 C 270.618 330.689, 270.465 336.911, 272.468 339.559 C 274.613 342.395, 274.349 343, 270.968 343 C 266.804 343, 261.384 345.415, 260.080 347.850 C 258.041 351.661, 258.795 356.193, 262.024 359.525 C 265.045 362.642, 265.046 362.648, 263.024 364.478 C 261.676 365.698, 261 367.565, 261 370.066 C 261 377.673, 270.048 381.163, 281.147 377.838 C 284.626 376.796, 285.258 376.894, 287.275 378.789 C 288.513 379.951, 291.741 381.883, 294.449 383.081 C 298.546 384.893, 300.529 385.162, 306.255 384.682 C 313.134 384.105, 313.139 384.107, 318.927 388.368 C 332.110 398.072, 350.669 405.628, 368.543 408.567 C 389.169 411.959, 418.730 408.699, 439.949 400.694 C 445.147 398.733, 449.724 397.330, 450.122 397.576 C 450.520 397.822, 451.155 399.480, 451.533 401.261 C 453.279 409.498, 458.630 424.429, 463.201 433.821 L 468.224 444.143 466.466 450.321 C 465.500 453.720, 464.437 460.325, 464.105 465 C 463.521 473.207, 463.411 473.510, 460.924 473.800 C 457.226 474.230, 445.136 471.539, 438.223 468.746 C 428.869 464.968, 419.340 458.022, 405.728 445.061 C 391.276 431.299, 385.141 427.036, 374.828 423.588 C 359.873 418.588, 346.186 419.249, 333.185 425.600 C 311.775 436.059, 301.948 459.750, 310.044 481.388 C 312.491 487.928, 319.995 496.635, 326.439 500.411 C 331.406 503.322, 340.728 506, 345.894 506 C 356.478 506, 368.251 499.060, 372.122 490.539 C 375.852 482.326, 373.577 470.390, 367.525 466.425 C 360.494 461.818, 351.939 464.639, 350.001 472.204 C 349.396 474.567, 348.713 477.063, 348.482 477.750 C 347.742 479.957, 341.387 479.197, 338.206 476.520 C 334.115 473.078, 332.668 469.014, 333.210 462.485 C 334.100 451.744, 343.460 444.542, 356.491 444.571 C 367.897 444.597, 372.628 447.392, 389.916 464.325 C 405.369 479.459, 410.509 483.593, 421.066 489.381 C 434.075 496.513, 444.435 499.166, 459.051 499.105 L 469.601 499.062 472.720 505.387 C 476.820 513.700, 485.425 522.882, 492.801 526.813 C 499.675 530.477, 509.327 532.964, 516.750 532.985 L 522 533 522 537.364 C 522 553.321, 529.042 564.886, 538.043 563.709 C 540.542 563.382, 542.268 563.799, 543.904 565.123 C 547.023 567.649, 552.089 567.505, 555.538 564.792 C 557.276 563.425, 559.855 562.545, 562.309 562.484 C 567.567 562.352, 571 558.574, 571 552.919 C 571 549.629, 571.418 548.791, 573.448 548.020 C 576.855 546.724, 579.475 542.321, 579.363 538.077 C 579.281 534.976, 575.325 521.498, 570.284 507.145 C 568.522 502.128, 563.957 496.546, 559.901 494.449 C 558.360 493.652, 555.022 493, 552.484 493 C 549.945 493, 546.886 492.467, 545.684 491.815 C 544.483 491.164, 540.189 489.476, 536.142 488.065 C 532.095 486.654, 528.792 485.067, 528.803 484.538 C 528.813 484.008, 532.263 482.128, 536.469 480.358 C 546.870 475.984, 555.336 471.511, 562.500 466.607 C 565.800 464.348, 569.738 461.959, 571.251 461.298 C 578.064 458.321, 589.048 450.104, 596.514 442.399 C 600.990 437.779, 604.908 434, 605.221 434 C 605.534 434, 607.021 436.363, 608.525 439.250 C 613.894 449.555, 623.809 461.770, 629.225 464.750 C 634.897 467.871, 643.716 467.820, 650.500 464.628 C 657.062 461.540, 666.187 451.818, 672.981 440.675 C 677.439 433.364, 679.146 431.453, 682.931 429.533 C 690.895 425.494, 693.972 420.260, 691.648 414.702 C 690.912 412.941, 689.569 410.886, 688.665 410.136 C 687.575 409.232, 687.223 407.959, 687.623 406.366 C 688.980 400.960, 683.721 395, 677.595 395 C 676.218 395, 673.911 393.820, 672.469 392.379 C 670.204 390.113, 669.237 389.826, 665.347 390.264 C 662.509 390.584, 659.243 391.923, 656.509 393.886 C 654.124 395.599, 651.959 397, 651.698 397 C 651.436 397, 649.629 393.645, 647.681 389.544 C 641.282 376.069, 631.953 369.040, 619.379 368.219 C 607.806 367.463, 597.469 371.827, 588.042 381.449 C 585.590 383.952, 583.084 386, 582.474 386 C 581.864 386, 580.552 383.413, 579.558 380.250 C 577.651 374.183, 572.621 363.512, 566.550 352.657 L 562.906 346.139 570.356 336.129 C 598.567 298.221, 617.912 249.363, 622.076 205.500 C 623.252 193.113, 622.730 174.316, 620.941 164.639 C 620.009 159.595, 620.121 158.911, 622.440 155.493 C 625.558 150.899, 626.434 146.431, 625.664 139.061 C 625.016 132.857, 625.899 131, 629.495 131 C 633.267 131, 662.166 123.335, 677.952 118.147 C 686.450 115.355, 693.604 113.271, 693.850 113.517 C 694.096 113.762, 694.210 117.459, 694.103 121.732 C 693.586 142.468, 708.056 159.298, 732.141 165.972 C 736.166 167.087, 740.246 168, 741.207 168 C 743.938 168, 745.740 164.243, 747.624 154.624 C 749.047 147.355, 749.174 144.443, 748.323 138.535 C 746.260 124.214, 737.483 111.858, 725.468 106.357 C 722.461 104.980, 720 103.549, 720 103.177 C 720.001 102.330, 740.023 92.982, 741.815 92.992 C 742.538 92.997, 744.279 94.366, 745.684 96.036 C 748.969 99.941, 753.006 102, 757.375 102 C 760.530 102, 761.118 102.483, 763.762 107.250 C 765.363 110.138, 769.263 116.550, 772.427 121.500 C 792.049 152.198, 803.709 189.702, 806.936 232.500 C 808.032 247.033, 808.381 272, 807.489 272 C 807.208 272, 803.045 268.611, 798.239 264.469 C 779.083 247.960, 756.738 236.109, 735.169 231.020 C 727.467 229.202, 726.689 230.569, 731.652 237.204 C 742.893 252.234, 750.584 267.638, 759.848 293.678 C 767.769 315.943, 776.248 343.490, 775.829 345.600 C 775.607 346.715, 774.241 345.425, 771.640 341.644 C 765.716 333.034, 749.575 318.169, 740.670 313.121 C 715.356 298.774, 682.779 297.340, 656.407 309.414 C 648.938 312.833, 649.473 314.384, 659.500 318.366 C 674.423 324.292, 684.836 331.050, 699.442 344.287 C 707.333 351.438, 707.448 351.499, 717.238 353.695 C 728.519 356.225, 746.936 364.637, 744.927 366.342 C 744.692 366.541, 740.976 366.243, 736.670 365.679 C 727.374 364.461, 713.890 365.788, 704 368.894 C 696.261 371.324, 686.500 376.939, 686.500 378.960 C 686.500 379.814, 688.941 381.274, 692.500 382.550 C 702.245 386.042, 709.479 389.782, 720.302 396.923 C 743.950 412.527, 760.125 429.275, 769.409 447.771 C 772.307 453.544, 771.851 454.465, 766.412 453.825 C 764.169 453.561, 763.394 452.717, 762.261 449.303 C 760.595 444.282, 754.702 437.941, 748.791 434.809 C 742.765 431.615, 730.329 431.564, 724.405 434.708 C 718.934 437.613, 714.348 443.019, 712.931 448.233 C 712.293 450.580, 711.625 453.028, 711.447 453.673 C 711.221 454.487, 709.966 454.257, 707.349 452.923 C 699.868 449.109, 690.041 451.086, 683.804 457.658 C 678.788 462.944, 676.764 469.246, 677.153 478.364 C 677.480 486.040, 677.387 486.481, 675.500 486.156 C 670.521 485.301, 661.174 485.898, 657.860 487.284 C 653.301 489.190, 646.378 495.374, 644.269 499.425 C 643.388 501.116, 642.405 505.200, 642.084 508.500 L 641.500 514.500 637.323 514.171 C 631.797 513.736, 624.986 516.808, 621.908 521.124 C 620.041 523.742, 619.462 525.923, 619.330 530.839 L 619.161 537.177 614.088 537.451 C 606.696 537.849, 601.720 541.443, 599.198 548.207 C 597.448 552.901, 596.844 553.563, 593.862 554.057 C 586.939 555.203, 583.413 559.323, 582.786 567 L 582.500 570.500 576.500 571.101 C 573.200 571.432, 568.918 572.378, 566.984 573.202 C 562.146 575.266, 557.239 581.164, 555.885 586.543 C 555.263 589.013, 554.370 591.271, 553.900 591.562 C 552.571 592.383, 531.653 589.917, 530.250 588.774 C 529.563 588.213, 529 586.888, 529 585.828 C 529 580.064, 523.161 575, 516.514 575 C 513.234 575, 512.770 574.629, 511.058 570.634 C 508.375 564.375, 503.944 561.540, 496.518 561.332 L 490.536 561.165 490.834 557.708 C 491.735 547.243, 480.896 539.675, 471.801 544.420 C 468.606 546.087, 467.911 545.462, 466.168 539.361 C 464.623 533.950, 458.233 527.608, 452.286 525.582 C 446.845 523.728, 437.327 523.522, 431.922 525.141 C 423.871 527.554, 417.600 535.346, 416.345 544.497 C 416.006 546.974, 415.521 549, 415.268 549 C 415.016 549, 413.549 548.103, 412.009 547.007 C 404.648 541.765, 394.270 542.190, 387.647 548.005 L 384.328 550.919 381.316 546.645 C 377.683 541.492, 372.117 538.624, 365.905 538.705 C 360.634 538.773, 357.790 540.020, 353.367 544.203 L 350.234 547.165 345.540 543.583 C 341.517 540.512, 340.089 540, 335.537 540 L 330.227 540 329.519 535.281 C 328.086 525.723, 321.375 516.726, 313.099 513.268 C 309.855 511.913, 300.317 511.228, 297.211 512.127 C 296.297 512.392, 295.815 510.868, 295.551 506.886 C 295.110 500.226, 292.312 494.282, 287.850 490.527 C 283.582 486.936, 280.583 485.873, 274.287 485.718 L 269.073 485.591 269.664 479.945 C 270.402 472.884, 268.850 467.946, 264.316 462.928 C 260.352 458.540, 253.871 455.731, 247.398 455.595 C 243.387 455.510, 242.962 455.283, 243.488 453.500 C 247.163 441.050, 246.229 434.966, 239.632 428.368 C 233.590 422.327, 227.041 420.927, 217.315 423.599 C 215.425 424.118, 214.979 423.634, 214.003 420.011 C 212.433 414.181, 205.472 407.386, 199.407 405.764 C 196.847 405.079, 194.542 403.971, 194.285 403.302 C 194.029 402.632, 195.823 399.478, 198.273 396.292 C 204.921 387.647, 221.117 363.448, 225.421 355.728 C 227.498 352.003, 228.964 348.348, 228.679 347.606 C 227.762 345.217, 215.285 343.507, 199 343.538 C 186.323 343.563, 181.866 343.978, 174.529 345.818 C 154.560 350.826, 133.616 362.358, 117.250 377.359 C 114.912 379.502, 113 380.704, 113 380.032 C 113 379.359, 115.642 372.889, 118.871 365.654 C 126.343 348.912, 134.204 325.737, 133.804 321.631 C 133.513 318.644, 133.140 318.400, 125.250 316.037 C 120.712 314.679, 117 313.315, 117 313.007 C 117 312.699, 121.304 311.715, 126.565 310.820 C 131.945 309.904, 136.917 308.480, 137.929 307.565 C 141.024 304.763, 146.027 284.975, 149.448 262 C 151.800 246.203, 153.549 222.149, 152.428 221.028 C 150.141 218.741, 128.387 225.326, 112.647 233.070 C 68.688 254.697, 37.343 294.871, 27.634 342.029 C 25.266 353.529, 23.711 371.661, 24.356 380.250 C 24.676 384.512, 24.614 387.975, 24.219 387.944 C 23.823 387.913, 22.001 384.745, 20.168 380.905 C 16.374 372.954, 8.848 361.396, 3.626 355.500 C 0.099 351.517, 0.083 351.512, 0.042 354.184 C 0.015 355.930, 1.928 359.426, 5.513 364.184 C 8.546 368.208, 13.915 377.350, 17.445 384.500 C 26.784 403.419, 32.321 422.382, 33.690 440.142 L 34.291 447.935 30.549 452.078 C 26.125 456.974, 24 461.625, 24 466.409 C 24 470.573, 23.160 471.267, 20.032 469.689 C 18.379 468.855, 16.442 465.516, 13.544 458.500 C 11.272 453, 7.408 445.125, 4.956 441 C 0.743 433.909, 0.484 433.666, 0.202 436.549 C -0.003 438.643, 1.014 441.442, 3.455 445.495 C 7.429 452.095, 13.335 466.649, 12.552 467.915 C 12.273 468.367, 10.347 469.010, 8.272 469.344 C 3.517 470.109, 0 472.538, 0 475.057 C -0 477.333, 1.277 477.576, 2.908 475.611 C 6.222 471.617, 17.528 471.796, 23.121 475.931 C 27.588 479.234, 28.357 478.691, 27.656 472.727 C 26.861 465.962, 28.300 460.867, 32.289 456.324 C 37.641 450.228, 45.750 448.268, 52.079 451.541 C 55.531 453.326, 56.996 452.777, 57.010 449.691 C 57.025 446.367, 61.386 437.839, 64.624 434.803 C 73.116 426.840, 87.318 427.222, 95.197 435.624 C 99.003 439.682, 101.047 445.176, 101.714 453.134 C 102.031 456.910, 102.493 460, 102.742 460 C 102.990 460, 105.238 458.200, 107.736 456.001 C 113.534 450.897, 118.882 449.328, 125 450.936 C 136.913 454.066, 141.945 467.361, 137.103 482.916 C 136.060 486.267, 135.576 489.238, 136.028 489.517 C 136.479 489.796, 138.975 488.894, 141.573 487.512 C 149.752 483.164, 157.907 485.051, 161.573 492.142 C 164.066 496.961, 163.057 506.804, 159.525 512.142 C 158.036 514.392, 157.206 516.606, 157.676 517.076 C 158.146 517.546, 160.541 517.230, 163.014 516.372 C 174.111 512.522, 183.653 518.340, 178.442 525.779 C 176.393 528.704, 177.345 530, 181.543 530 C 186.284 530, 191.093 534.363, 191.327 538.876 C 191.529 542.795, 191.444 542.852, 180 546.368 C 157.932 553.148, 138.502 569.880, 128.920 590.357 C 127.210 594.010, 125.544 597, 125.218 597 C 124.892 597, 122.022 594.956, 118.842 592.457 C 112.279 587.301, 100.146 580.990, 92 578.495 C 83.622 575.929, 64.092 575.344, 56.010 577.417 C 45.386 580.142, 35.504 585.704, 26.857 593.827 C 17.515 602.603, 12.881 608.699, 7.383 619.450 C 4.627 624.838, 2.725 627.454, 1.633 627.361 C 0.650 627.277, 0 627.974, 0 629.111 C 0 630.150, 0.425 631, 0.945 631 C 1.465 631, 2.478 632.197, 3.195 633.660 C 6.313 640.017, 14.466 642.532, 36.162 643.830 C 49.181 644.608, 51.310 644.992, 55.162 647.256 C 57.548 648.658, 60.523 651.195, 61.774 652.894 C 64.928 657.180, 70.419 659.717, 80.174 661.397 C 99.531 664.730, 126.771 664.273, 144.500 660.318 C 153.005 658.421, 156.469 656.741, 158.608 653.475 C 161.453 649.134, 158.059 639.614, 148.485 625.082 C 145.885 621.136, 144.043 617.624, 144.390 617.276 C 145.637 616.030, 159.997 619.013, 171.787 622.969 C 185.298 627.502, 191.369 628.001, 201.356 625.399 C 205.628 624.287, 210.354 623.921, 216.868 624.201 C 225.617 624.576, 226.362 624.777, 228.155 627.238 C 230.985 631.123, 238.349 632.315, 256.466 631.823 C 268.827 631.487, 272.199 631.067, 275.431 629.457 C 281.529 626.421, 281.988 624.878, 278.639 618.680 C 274.700 611.389, 275.232 609.408, 281.022 609.816 C 293.890 610.723, 309.296 617.348, 310.598 622.533 C 312.713 630.961, 301.500 636.256, 269.380 641.998 C 255.240 644.525, 250.715 646.700, 251.186 650.742 C 251.585 654.164, 255.970 657.170, 264.803 660.075 C 279.756 664.994, 284.789 669.323, 280.032 673.175 C 276.683 675.887, 271.005 677.073, 257.104 677.962 C 246.308 678.653, 242.994 679.305, 234 682.508 C 228.225 684.565, 223.050 686.683, 222.500 687.216 C 220.588 689.067, 231.389 687.317, 239 684.542 C 245.059 682.333, 249.093 681.658, 260 681.031 C 278.369 679.976, 285 677.141, 285 670.345 C 285 664.816, 281.303 662.159, 266.235 656.863 C 248.868 650.758, 250.624 648.705, 277.192 644.052 C 305.795 639.042, 318.194 631.232, 314.131 620.783 C 311.710 614.556, 299.311 608.623, 284.596 606.652 L 275.676 605.457 273.820 599.997 C 272.799 596.993, 272.206 593.905, 272.502 593.134 C 272.956 591.952, 278.803 591.822, 309.770 592.307 C 330.977 592.639, 353.262 593.544, 362.500 594.449 C 411.317 599.233, 448.437 605.611, 459.091 611.046 C 469.378 616.294, 462.640 622.644, 441.071 628.030 C 427.910 631.315, 423.177 634.585, 424.419 639.532 C 425.407 643.468, 433.191 646.500, 450 649.494 C 484.408 655.624, 486.431 656.156, 498.016 662.114 C 516.283 671.508, 516.500 677.713, 498.803 684.641 L 491.500 687.500 496.465 687.814 C 502.038 688.166, 507.165 685.914, 512.750 680.663 C 519.215 674.585, 515.937 667.889, 503.025 660.796 C 499.724 658.983, 497.018 657.095, 497.012 656.599 C 496.982 654.346, 523.094 657.917, 529.068 660.983 C 532.278 662.630, 541 671.108, 541 672.581 C 541 673.216, 539.126 673.988, 536.837 674.295 C 529.890 675.227, 524.011 681.308, 525.505 686.016 C 526.560 689.340, 529.521 688.496, 529.510 684.874 C 529.494 679.891, 533.556 677.472, 541.563 677.694 C 545.103 677.793, 548 677.529, 548 677.108 C 548 673.770, 535.660 660.169, 530.498 657.817 C 526.880 656.169, 527.417 654.338, 532.240 651.877 C 543.213 646.279, 555.318 651.227, 565.555 665.494 C 566.706 667.098, 568.101 668.056, 568.725 667.670 C 569.486 667.199, 568.781 664.529, 566.498 659.241 C 562.032 648.891, 560.367 640.518, 561.567 634.429 C 562.886 627.735, 564.925 626.784, 569.701 630.634 C 574.827 634.766, 578.757 642.831, 580.235 652.250 C 580.904 656.512, 581.772 660, 582.164 660 C 582.556 660, 583.147 657.862, 583.477 655.250 C 584.641 646.020, 587.281 637.875, 590.941 632.221 C 594.855 626.176, 601.976 620.393, 604.373 621.313 C 606.308 622.056, 607.337 628.897, 606.472 635.269 C 606.082 638.146, 604.241 644.716, 602.381 649.869 C 600.522 655.022, 599 659.635, 599 660.119 C 599 661.984, 600.650 660.862, 602.484 657.750 C 605.400 652.803, 612.648 645.434, 617.938 642.040 C 623.761 638.303, 633.230 636.116, 635.485 637.987 C 639.003 640.907, 636 651.251, 628.920 660.606 C 626.277 664.097, 624.492 667.186, 624.952 667.470 C 625.411 667.754, 627.396 667.315, 629.362 666.493 C 633.989 664.560, 639.967 664.588, 642.777 666.557 C 645.621 668.548, 645.574 669.875, 642.500 674.405 C 641.125 676.431, 640 678.294, 640 678.544 C 640 679.868, 642.502 678.652, 645.077 676.077 C 651.289 669.865, 647.538 662, 638.365 662 C 635.964 662, 634 661.718, 634 661.373 C 634 661.028, 635.375 657.953, 637.055 654.540 C 638.855 650.884, 640.357 645.944, 640.710 642.517 C 641.446 635.386, 640.100 634, 632.435 634 C 625.870 634, 620.073 636.041, 613.761 640.576 L 608.792 644.146 609.644 638.823 C 611.555 626.887, 609.301 617, 604.670 617 C 598.659 617, 588.056 627.323, 584.384 636.750 C 583.473 639.087, 582.451 641, 582.112 641 C 581.774 641, 580.418 638.967, 579.100 636.482 C 577.782 633.998, 574.981 630.409, 572.877 628.508 C 562.638 619.257, 557.302 624.281, 558.280 642.250 C 558.572 647.612, 558.741 651.994, 558.656 651.987 C 558.570 651.980, 555.849 650.630, 552.609 648.987 C 542.886 644.057, 533.466 645.140, 525.538 652.101 C 522.011 655.198, 521.986 655.203, 515.669 654.103 C 512.186 653.496, 504.423 652.989, 498.418 652.976 C 492.413 652.963, 485.700 652.517, 483.500 651.984 C 481.300 651.451, 471.450 649.660, 461.610 648.003 C 451.771 646.345, 441.286 644.354, 438.309 643.576 C 432.600 642.086, 428 639.597, 428 638 C 428 636.067, 433.091 633.818, 443.870 630.991 C 459.004 627.020, 464.962 623.738, 467.103 618.194 C 468.400 614.833, 465.749 610.423, 460.965 607.982 C 452.173 603.497, 425.032 597.925, 393 594.030 C 360.160 590.037, 339.058 588.717, 303.644 588.440 L 268.788 588.168 265.346 582.455 C 263.453 579.313, 260.738 575.212, 259.313 573.344 C 257.887 571.475, 257.046 569.620, 257.443 569.223 C 258.715 567.948, 306.705 567.759, 331.500 568.930 C 386.053 571.508, 453.707 579.253, 502.500 588.506 C 544.963 596.558, 561.049 597.189, 592.500 592.034 C 610.160 589.139, 614.922 588.741, 633.198 588.628 C 648.011 588.536, 654.234 588.838, 655.087 589.690 C 656.009 590.610, 655.143 592.421, 651.259 597.690 C 644.666 606.636, 640.618 614.646, 642.198 615.622 C 642.867 616.036, 643.836 615.588, 644.438 614.586 C 655.635 595.983, 669.107 581.983, 697.500 559.443 C 731.812 532.205, 743.488 520.471, 758.211 498.432 C 780.400 465.217, 800.749 408.681, 806.418 364.500 C 810.527 332.472, 811.397 316.197, 811.439 270.500 C 811.478 228.415, 811.334 224.570, 809.202 211.144 C 803.470 175.028, 792.451 144.573, 775.581 118.215 C 771.960 112.558, 767.866 105.696, 766.482 102.965 C 764.048 98.162, 763.825 98, 759.631 98 C 754.516 98, 748.662 94.551, 748.186 91.258 C 747.921 89.426, 749.255 88.387, 756.686 84.644 C 761.534 82.202, 768.356 78.583, 771.846 76.602 C 775.336 74.621, 778.628 73, 779.161 73 C 779.693 73, 781.323 74.418, 782.782 76.152 C 786.238 80.259, 793.055 83.251, 797.997 82.829 C 801.447 82.534, 802.093 82.866, 804.182 86 C 806.879 90.045, 814.001 94, 818.586 94 C 820.325 94, 823.626 93.337, 825.922 92.528 L 830.095 91.055 832.119 95.778 C 833.232 98.375, 834.727 101.175, 835.442 102 C 836.205 102.882, 836.972 107.417, 837.302 113 C 838.268 129.366, 844.509 146.454, 857.935 169.500 C 877.907 203.782, 884.158 226.181, 884.165 263.500 C 884.169 283.021, 883.194 293.964, 878.772 324 C 875.869 343.723, 875.606 347.608, 875.593 371 C 875.581 394.544, 875.788 397.612, 878.294 411 C 883.712 439.939, 886.452 456.881, 885.818 457.516 C 885.461 457.872, 881.644 455.707, 877.335 452.704 C 866.307 445.019, 861.226 442.568, 859.424 444.063 C 857.666 445.522, 857.459 470.984, 859.055 489.500 C 860.080 501.397, 863.752 521.953, 866.543 531.420 C 867.341 534.126, 867.787 536.546, 867.536 536.798 C 867.284 537.049, 864.698 535.102, 861.789 532.470 C 854.622 525.984, 844.388 519.459, 835.886 515.953 C 829.177 513.186, 816.414 510, 812.042 510 C 810.919 510, 810 509.663, 810.001 509.250 C 810.002 508.837, 814.543 497.025, 820.094 483 C 841.483 428.953, 842.141 426.380, 846.463 380 C 847.821 365.425, 850.376 343.600, 852.140 331.500 C 854.806 313.220, 855.359 306.372, 855.407 291 C 855.482 267.381, 854.007 261.340, 842.472 238 C 835.665 224.225, 834.846 221.514, 829.485 195 C 824.212 168.921, 820.358 153.846, 815.629 140.798 C 809.065 122.688, 800.969 107.433, 801.009 113.250 C 801.013 113.938, 802.761 118.123, 804.892 122.551 C 813.937 141.343, 819.210 158.792, 825.937 192.189 C 831.633 220.465, 832.400 223.020, 839.998 239 C 849.917 259.863, 852.139 268.068, 852.726 286 C 853.205 300.634, 853.090 301.923, 848.024 338.500 C 846.881 346.750, 844.822 365.425, 843.448 380 C 839.280 424.217, 837.840 429.999, 819.279 477 L 806.445 509.500 799.472 510.263 C 787.530 511.569, 774 516.410, 774 519.376 C 774 520.110, 779.063 524.558, 785.250 529.261 C 799.425 540.032, 810.345 550.185, 821.214 562.695 C 834.757 578.284, 847.297 594.401, 846.174 594.775 C 845.606 594.965, 842.747 594.373, 839.821 593.460 C 836.679 592.480, 829.380 591.586, 821.995 591.277 C 807.928 590.687, 798.515 592.130, 787.380 596.585 C 783.794 598.019, 780.654 598.987, 780.402 598.735 C 780.150 598.483, 780.407 597.061, 780.972 595.574 C 781.537 594.087, 782 590.854, 782 588.389 C 782 582.700, 778.746 579, 773.741 579 C 770.101 579, 763.071 583.007, 759.076 587.359 C 755.873 590.848, 755.309 590.703, 754.739 586.250 C 754.133 581.510, 755.661 578.921, 767.721 564.257 C 772.908 557.950, 776.337 553, 775.519 553 C 773.916 553, 762.916 565.441, 757.150 573.776 C 754.220 578.010, 753.105 578.923, 751.500 578.404 C 745.391 576.427, 741.529 576.843, 736.812 579.984 C 732.106 583.118, 725.807 591.386, 723.852 596.995 C 723.276 598.648, 722.458 600, 722.035 600 C 721.612 600, 720.121 598.270, 718.722 596.156 C 716.167 592.296, 710.883 589, 707.247 589 C 706.174 589, 703.767 590.029, 701.898 591.287 C 697.392 594.319, 695.648 599.560, 696.382 607.859 C 696.932 614.069, 696.893 614.204, 694.723 613.571 C 686.411 611.146, 680.596 611.786, 676.029 615.629 C 673.627 617.650, 673 618.971, 673 622.012 C 673 626.015, 676.217 630.976, 680.194 633.104 C 683.511 634.879, 683.540 633.154, 680.251 629.735 C 675.752 625.059, 675.187 621.722, 678.359 618.550 C 681.897 615.012, 689.668 614.989, 696.581 618.496 C 700.819 620.646, 704.001 621.613, 703.999 620.750 C 703.999 620.612, 703.099 618.133, 701.999 615.239 C 699.644 609.042, 699.408 601.046, 701.463 597.072 C 703.955 592.253, 709.160 591.566, 713.401 595.496 C 716.275 598.159, 719.942 605.311, 719.978 608.323 C 720.027 612.363, 723.191 609.240, 725.372 603 C 730.589 588.075, 741.424 577.481, 747.917 580.956 C 750.907 582.556, 752.359 589.100, 751.063 595.141 C 749.139 604.115, 750.246 605.595, 754.137 599.250 C 757.272 594.137, 764.842 586.133, 768.169 584.413 C 772.324 582.264, 775.720 582.642, 777.565 585.459 C 780.948 590.622, 776.597 599.476, 764.852 611.332 C 758.873 617.367, 755.971 621.337, 752.358 628.422 C 746.452 640.002, 746.715 641.318, 754.723 640.262 C 766.171 638.752, 787.831 639.575, 797.500 641.886 C 810.202 644.923, 830 651.172, 830 652.145 C 830 652.594, 828.762 653.241, 827.250 653.581 C 818.763 655.493, 815.786 656.558, 808.781 660.189 C 799.962 664.761, 790.306 674.207, 785.688 682.780 C 783.081 687.618, 783.016 688, 784.795 688 C 786.061 688, 787.958 685.988, 790.356 682.102 C 797.908 669.866, 811.474 660.722, 826.815 657.525 C 837.521 655.293, 843.423 655.593, 853.062 658.857 C 861.958 661.870, 877.408 669.233, 878.483 670.973 C 879.293 672.283, 879.147 672.273, 872.732 670.603 C 864.176 668.374, 853.202 667.721, 844.500 668.923 C 835.489 670.167, 824 673.656, 824 675.149 C 824 675.691, 824.787 675.892, 825.750 675.596 C 841.010 670.893, 859.544 670.179, 872.291 673.802 C 881.043 676.290, 892.155 681.577, 896.740 685.435 C 898.417 686.846, 900.830 688, 902.103 688 C 904.209 688, 904.017 687.589, 899.958 683.417 C 892.906 676.168, 881.232 667.816, 870.443 662.302 C 861.203 657.579, 818.011 642.940, 800.500 638.597 C 789.312 635.822, 776.926 634.713, 764.750 635.397 C 758.288 635.759, 753 635.806, 753 635.500 C 753 635.193, 754.346 632.277, 755.991 629.018 C 762.503 616.118, 778.251 603.299, 793.759 598.274 C 803.191 595.217, 821.894 594.080, 832.459 595.919 C 858.489 600.452, 884.052 623.212, 898.880 655.056 C 902.921 663.735, 907.535 677.798, 906.636 678.697 C 906.358 678.975, 904.792 676.569, 903.156 673.351 C 895.919 659.117, 882.532 643.365, 869.500 633.753 C 853.977 622.302, 837.717 616.242, 819.987 615.299 C 810.009 614.768, 795.001 616.294, 794.999 617.840 C 794.999 618.203, 801.636 618.361, 809.749 618.190 C 822.912 617.914, 825.571 618.155, 834.448 620.433 C 863.318 627.840, 887.636 649.072, 902.450 679.805 L 906.400 688 920.641 688 C 929.264 688, 935.131 687.597, 935.514 686.978 C 936.464 685.440, 946.719 680.475, 954.033 678.013 C 963.959 674.670, 979.308 674.157, 989.515 676.828 C 1003.669 680.530, 1002.807 680.397, 1000.500 678.529 C 999.400 677.638, 995.350 675.951, 991.500 674.781 C 983.916 672.475, 969.654 671.809, 960.500 673.332 C 954.124 674.394, 955.309 673.171, 964.537 669.167 C 972.983 665.504, 987.719 661.100, 994.173 660.311 C 1000.515 659.536, 1009.467 663.761, 1017.770 671.448 C 1023.582 676.828, 1024 677.046, 1024 674.686 C 1024 671.640, 1017.136 665.388, 1009.252 661.253 C 1006.366 659.739, 1004.004 658.253, 1004.002 657.951 C 1004.001 657.649, 1008.500 656.387, 1014 655.147 C 1022.633 653.200, 1024 652.615, 1024 650.866 C 1024 648.446, 1024.232 648.411, 1002.500 654.107 C 966.645 663.505, 955.185 668.186, 939.148 679.985 C 934.554 683.364, 930.552 685.886, 930.255 685.588 C 929.957 685.291, 932.366 682.013, 935.607 678.304 C 961.091 649.143, 986.886 634.146, 1016.500 631.276 C 1024.089 630.540, 1024.509 630.371, 1024.685 628 C 1024.786 626.625, 1024.653 626.223, 1024.389 627.106 C 1024.011 628.370, 1021.952 628.836, 1014.704 629.296 C 992.533 630.703, 972.396 639.863, 950.819 658.357 C 946.595 661.978, 940.070 668.510, 936.319 672.872 C 932.569 677.235, 929.358 680.422, 929.184 679.955 C 928.161 677.202, 951.465 647.346, 965.906 632.909 C 975.381 623.438, 977.331 621.977, 984.370 619.081 C 995.271 614.595, 1004.764 612.779, 1015.251 613.172 C 1022.957 613.461, 1024.001 613.297, 1024.001 611.795 C 1023.999 608.068, 1006.690 608.184, 993.122 612.002 C 989.064 613.144, 985.524 613.858, 985.255 613.589 C 984.490 612.823, 1005.537 591.577, 1015.250 583.311 C 1020.661 578.705, 1024 575.127, 1024 573.932 C 1024 572.869, 1023.713 572, 1023.361 572 C 1022.106 572, 1008.967 583.279, 1000.279 591.814 C 987.344 604.522, 955.815 637.844, 948.940 646.072 C 945.675 649.980, 941.133 655.843, 938.848 659.101 C 936.562 662.360, 934.475 664.808, 934.209 664.542 C 933.342 663.675, 946.942 634.124, 961.771 604.653 C 975.834 576.703, 976.460 575.668, 981.875 571.418 C 992.178 563.332, 1007.453 556.669, 1018.728 555.344 C 1023.127 554.827, 1024 554.393, 1024 552.725 C 1024 550.882, 1023.555 550.777, 1018.347 551.389 C 1010.414 552.321, 998.721 556.397, 990.596 561.062 C 986.799 563.242, 983.492 564.825, 983.247 564.580 C 983.002 564.335, 985.283 558.142, 988.317 550.817 C 997.934 527.595, 1017.420 471.488, 1016.426 469.881 C 1014.931 467.461, 1004.072 470.383, 992.194 476.402 C 988.359 478.345, 986.846 478.713, 986.539 477.777 C 986.308 477.075, 985.361 472.900, 984.434 468.500 C 981.857 456.264, 976.637 439.666, 969.072 419.656 C 955.761 384.446, 954.586 377.697, 955.122 339.500 C 956.240 259.704, 955.221 243.410, 946.901 208 C 943.106 191.852, 940.823 184.827, 935.243 172.133 L 930.686 161.765 932.959 155.633 C 938.484 140.730, 939.260 136.303, 939.725 117 C 940.139 99.841, 939.054 85.067, 936.449 72.407 C 935.888 69.681, 936.209 69.063, 939.156 67.189 L 942.500 65.063 947.719 70.906 C 954.359 78.342, 960.203 81.230, 967.880 80.869 L 973.500 80.605 974.127 91.053 C 974.473 96.799, 974.810 111.878, 974.877 124.562 L 975 147.623 970.399 163.562 C 966.909 175.652, 965.672 181.794, 965.279 189 L 964.760 198.500 970.842 216.500 C 981.156 247.028, 989.942 284.037, 994.030 314.180 C 994.576 318.206, 995.453 335.517, 995.978 352.649 C 997.314 396.204, 999.825 410.959, 1009.381 431.408 C 1015.285 444.041, 1023.315 456.286, 1023.775 453.356 C 1023.964 452.154, 1022.609 448.862, 1020.689 445.856 C 1009.713 428.677, 1002.516 407.970, 1000.581 388 C 1000.235 384.425, 999.527 367.550, 999.008 350.500 C 997.976 316.581, 996.497 303.670, 990.427 275.586 C 985.588 253.193, 979.836 232.479, 973.364 214.131 C 967.921 198.701, 967.856 198.384, 968.330 189.500 C 968.689 182.759, 969.984 176.483, 973.485 164.500 L 978.161 148.500 977.726 113.429 L 977.290 78.359 980.131 75.179 C 981.693 73.431, 983.199 72, 983.477 72 C 983.755 72, 986.124 73.641, 988.741 75.646 C 997.654 82.474, 1007.320 84.921, 1017.667 82.968 C 1023.409 81.885, 1024 81.544, 1024 79.307 C 1024 77.021, 1023.762 76.902, 1020.750 77.671 C 1018.962 78.127, 1014.125 78.480, 1010 78.455 C 1000.882 78.399, 995.993 76.203, 988.170 68.648 L 982.840 63.500 981.170 65.821 C 976.456 72.372, 973.541 75.047, 970.104 75.972 C 962.876 77.918, 954.962 73.779, 948.932 64.899 C 946.728 61.655, 944.462 59, 943.896 59 C 943.330 59, 941.434 60.081, 939.683 61.402 C 931.437 67.623, 919.436 69.119, 910.730 65.011 C 899.985 59.942, 894.350 49.309, 895.273 35.844 C 895.757 28.784, 895.633 28, 894.028 28 C 893.047 28, 891.656 28.710, 890.935 29.578 C 890.215 30.446, 887.347 32.334, 884.563 33.774 C 878.029 37.152, 865.581 37.587, 860 34.633 C 855.862 32.442, 849 26.084, 849 24.441 C 849 23.807, 853.163 19.665, 858.250 15.237 C 863.337 10.809, 869.051 5.569, 870.946 3.593 L 874.392 0 871.574 0 C 869.520 0, 867.079 1.568, 862.582 5.775 C 847.139 20.221, 820.702 40.806, 800 54.505 C 774.268 71.532, 733.556 92.874, 706.500 103.520 C 681.162 113.489, 632.596 128.032, 628.830 126.777 C 627.216 126.239, 626.774 117.417, 628.302 116.223 C 628.961 115.708, 632.425 114.745, 636 114.082 C 689.056 104.252, 756.049 74.281, 808 37.133 C 821.788 27.274, 840 12.793, 847.500 5.726 C 853.358 0.207, 853.432 0.072, 850.627 0.036 C 848.418 0.008, 845.063 2.276, 836.127 9.835 C 816.543 26.401, 791.701 44.101, 770.911 56.300 C 758.749 63.437, 756.836 64.139, 749.416 64.185 C 742.797 64.226, 738.384 62.530, 733.676 58.136 L 730.852 55.500 728.704 58.500 C 722.922 66.574, 716.684 70.224, 708.500 70.321 C 698.337 70.441, 686.506 63.849, 683.356 56.311 C 681.772 52.518, 681.317 52.404, 676.645 54.632 C 671.631 57.023, 666.767 55.793, 662.062 50.944 C 659.957 48.775, 657.898 47, 657.488 47 C 657.078 47, 654.942 48.627, 652.741 50.615 C 643.476 58.986, 630.445 61.849, 618.344 58.173 C 610.004 55.640, 606.083 52.036, 605.298 46.182 C 604.999 43.959, 605.266 40.675, 605.891 38.883 C 607.480 34.324, 606.036 33.274, 601.308 35.551 C 596.830 37.708, 589.131 37.927, 583.584 36.056 C 581.430 35.330, 577.769 32.985, 575.447 30.845 C 569.640 25.491, 566.779 18.494, 566.208 8.250 C 565.761 0.218, 565.683 0, 563.226 0 L 560.703 0 561.288 8.293 C 562.115 20.014, 565.064 27.260, 571.607 33.648 C 578.005 39.894, 584.184 42.256, 593.164 41.890 L 599.379 41.636 600.512 46.664 C 602.068 53.573, 605.094 57.410, 611.436 60.513 C 624.679 66.992, 643.065 65.028, 653.301 56.041 L 657 52.793 660.518 55.882 C 662.453 57.581, 665.266 59.240, 666.768 59.569 C 668.271 59.898, 669.990 60.312, 670.589 60.490 C 671.187 60.668, 673.212 60.484, 675.089 60.081 C 678.246 59.403, 678.853 59.711, 683.244 64.227 C 685.853 66.910, 690.578 70.319, 693.744 71.803 C 698.598 74.077, 700.833 74.497, 708 74.481 C 717.621 74.460, 720.517 73.330, 727.548 66.849 C 731.799 62.930, 731.909 62.894, 734.443 64.555 C 735.859 65.483, 738.686 66.815, 740.724 67.516 C 742.762 68.217, 744.570 69.209, 744.740 69.721 C 745.202 71.105, 720.198 82.793, 697.500 91.805 C 685.269 96.661, 661.872 104.205, 661.182 103.516 C 660.905 103.239, 661.409 102.206, 662.301 101.220 C 668.293 94.599, 669.946 81.206, 666.051 70.841 C 663.004 62.732, 662.025 62.178, 655.855 65.068 C 642.661 71.248, 634.366 86.839, 637.136 100.250 C 639.062 109.572, 639.229 109.226, 632.113 110.685 C 625.833 111.973, 625.687 111.954, 623.448 109.538 C 620.640 106.508, 616.610 105.401, 613.517 106.810 C 612.201 107.410, 608.750 107.623, 605.610 107.299 C 601.963 106.923, 599.539 107.138, 598.595 107.921 C 597.511 108.821, 596.148 108.848, 593.113 108.030 C 587.653 106.560, 582.753 108.609, 579.813 113.592 L 577.636 117.283 556.068 116.685 C 516.545 115.591, 478.126 108.483, 436.666 94.594 C 415.357 87.456, 389.864 77.112, 389.287 75.369 C 389.081 74.748, 390.395 73.956, 392.206 73.610 C 401.276 71.879, 412.198 64.041, 417.881 55.185 C 423.577 46.308, 425.282 39.834, 425.304 27 C 425.314 20.675, 424.831 14.314, 424.230 12.865 C 423.218 10.426, 422.778 10.265, 418.319 10.698 C 400.027 12.473, 382.625 23.752, 375.428 38.500 C 372.720 44.050, 372.500 45.344, 372.500 55.750 C 372.500 61.938, 372.090 67, 371.590 67 C 370.144 67, 352.750 57.424, 337.500 48.232 C 316.193 35.390, 295.068 20.546, 277.853 6.319 C 271.816 1.330, 269.501 0.001, 266.853 0.005 L 263.500 0.010 266.500 2.494 C 328.659 53.966, 395.051 89.055, 465.049 107.427 C 496.050 115.565, 524.451 119.863, 552.750 120.700 C 563.888 121.029, 573 121.500, 573 121.745 C 573 121.991, 572.164 123.386, 571.143 124.846 C 570.121 126.306, 568.848 128.850, 568.313 130.500 C 567.372 133.402, 567.115 133.511, 560.420 133.828 C 542.622 134.673, 503.582 130.016, 477.968 123.992 C 401.572 106.028, 331.225 69.597, 263.209 12.775 C 251.741 3.195, 247.240 0.009, 245.209 0.034 C 242.711 0.066, 243.074 0.594, 249.851 6.802 M 407.945 16.862 C 389.723 22.771, 377.225 36.883, 376.180 52.729 C 375.753 59.215, 376.579 66.003, 377.795 65.996 C 378.183 65.994, 379.996 63.100, 381.824 59.564 C 385.619 52.225, 394.521 43.121, 396.231 44.831 C 396.984 45.584, 395.822 47.509, 392.256 51.410 C 387.050 57.107, 382 65.932, 382 69.336 C 382 71.083, 382.510 71.218, 387.077 70.677 C 397.248 69.473, 408.882 61.873, 414.744 52.606 C 420.095 44.146, 423.018 29.556, 421.276 20 C 420.501 15.749, 420.263 15.488, 416.978 15.280 C 415.065 15.159, 411 15.871, 407.945 16.862 M 249.407 19.407 C 242.738 21.026, 238.104 23.979, 232.564 30.140 C 223.203 40.551, 218.763 53.863, 219.214 70.165 L 219.500 80.500 224 80.825 C 240.564 82.022, 261.083 70.237, 268.537 55.245 C 271.907 48.465, 272.902 38.608, 271.050 30.335 C 269.970 25.506, 268 22.955, 268 26.384 C 268 27.146, 266.144 31.476, 263.876 36.009 C 260.782 42.190, 257.840 46.154, 252.100 51.874 C 244.763 59.186, 234.694 65.932, 233.647 64.238 C 233.372 63.793, 236.293 60.971, 240.137 57.965 C 252.305 48.450, 262.616 33.989, 264.521 23.766 C 265.156 20.355, 264.986 19.945, 262.543 19.016 C 259.183 17.739, 255.871 17.837, 249.407 19.407 M 829.500 38.613 C 821.800 44.450, 810.100 52.752, 803.500 57.063 C 782.718 70.638, 783.800 69.758, 785.035 72.065 C 787.270 76.241, 791.972 78.165, 798.754 77.678 L 805.008 77.230 806.916 81.544 C 808.098 84.214, 809.982 86.457, 811.863 87.429 C 816.031 89.584, 822.795 89.399, 827.500 87 C 829.658 85.900, 832.017 85, 832.743 85 C 834.154 85, 834.164 85.023, 836.035 92.260 C 837.550 98.122, 843.862 105.578, 849.461 108.122 C 854.969 110.623, 863.821 110.564, 869.300 107.989 C 874.983 105.318, 879.124 101.408, 883.474 94.608 C 885.447 91.524, 887.545 89, 888.137 89 C 888.728 89, 890.997 90.413, 893.178 92.141 C 901.588 98.802, 913.012 101.514, 922.065 98.998 C 924.026 98.454, 927.571 96.347, 929.943 94.316 L 934.256 90.625 933.594 82.683 C 932.645 71.303, 932.556 71.204, 923.794 71.746 C 917.974 72.106, 915.344 71.761, 910.779 70.038 C 899.928 65.941, 891.542 54.656, 890.283 42.452 C 889.809 37.858, 889.432 37.014, 888.105 37.569 C 879.045 41.360, 867.499 42.071, 859.463 39.333 C 856.334 38.267, 852.828 35.923, 849.738 32.833 C 847.080 30.175, 844.589 28, 844.202 28 C 843.816 28.001, 837.200 32.776, 829.500 38.613 M 653.237 70.943 C 642.324 78.849, 637.453 94.240, 642.671 104.330 C 644.480 107.828, 645.222 107.165, 647.513 100 C 650.012 92.181, 651.979 88.579, 653.124 89.724 C 653.729 90.329, 653.188 93.480, 651.643 98.345 C 650.304 102.561, 649.594 106.249, 650.064 106.540 C 651.576 107.474, 659.075 99.785, 661.697 94.612 C 664.903 88.284, 665.287 79.586, 662.660 72.750 C 660.486 67.092, 658.958 66.799, 653.237 70.943 M 347.286 89.451 C 336.002 92.977, 327.826 101.107, 323.876 112.727 C 322.028 118.164, 321.598 121.473, 321.692 129.500 C 321.757 135, 322.226 140.850, 322.734 142.500 C 323.604 145.321, 323.922 145.480, 328.079 145.157 C 333.623 144.727, 343.136 141.590, 348.588 138.396 C 358.434 132.625, 366.795 120.569, 369.024 108.927 C 370.203 102.768, 369.392 93.570, 367.534 92.028 C 364.565 89.564, 352.168 102.665, 344.818 116.034 C 343.014 119.315, 341.192 122, 340.769 122 C 336.982 122, 346.786 104.180, 355.231 95.716 C 358.954 91.984, 362 88.722, 362 88.466 C 362 87.481, 351.297 88.197, 347.286 89.451 M 885.555 99.925 C 883.562 102.640, 880.301 106.169, 878.307 107.769 L 874.682 110.677 877.727 115.103 C 882.286 121.729, 894.352 132.749, 906.075 140.992 C 911.809 145.025, 918.841 150.292, 921.703 152.699 L 926.905 157.074 928.365 154.787 C 932.875 147.720, 936 129.962, 936 111.396 C 936 97.133, 935.506 96.317, 929.339 100.388 C 919.367 106.972, 904.161 105.543, 891.839 96.865 L 889.178 94.990 885.555 99.925 M 707.250 107.609 C 705.144 108.549, 705.777 109.386, 712.051 113.955 C 715.379 116.378, 720.150 121.086, 722.653 124.416 C 727.166 130.419, 732 138.979, 732 140.967 C 732 143.411, 729.980 141.627, 727.226 136.750 C 722.365 128.141, 715.582 120.610, 708.058 115.469 C 699.041 109.308, 698.500 109.723, 698.500 122.802 C 698.500 131.921, 698.701 132.872, 701.875 138.723 C 705.835 146.026, 713.650 153.775, 720.608 157.301 C 727.577 160.833, 739.941 164.459, 741.092 163.308 C 742.319 162.081, 744.961 149.516, 744.983 144.799 C 745.073 125.541, 730.696 108.143, 714.014 107.322 C 710.982 107.173, 707.938 107.302, 707.250 107.609 M 841.328 114.750 C 842.963 130.078, 848.987 145.501, 862.712 169.500 C 881.728 202.750, 886.716 220.144, 887.693 256.605 C 888.311 279.686, 887.630 289.135, 882.979 322.035 C 876.124 370.525, 876.348 377.954, 886.416 436.258 C 888.387 447.675, 890 458.150, 890 459.536 C 890 461.272, 892.543 464.930, 898.163 471.279 C 907.809 482.176, 912.886 489.776, 919.978 503.937 C 925.273 514.509, 931.186 530.983, 932.472 538.750 C 932.859 541.087, 933.474 542.986, 933.838 542.970 C 934.202 542.953, 936.946 537.891, 939.937 531.720 C 946.014 519.177, 946.004 519.273, 942.879 503.500 C 939.636 487.136, 935.391 473.755, 926.063 450.500 C 904.360 396.390, 901.796 376.958, 909.434 324.450 C 913.555 296.126, 914.441 281.953, 913.127 265.399 C 910.610 233.699, 902.439 204.033, 890.966 184.944 C 885.662 176.119, 885.278 173.245, 890.171 179 C 897.582 187.716, 907.904 213.909, 911.845 234 C 915.726 253.788, 916.381 260.498, 916.333 280 C 916.293 296.549, 915.799 302.829, 913.074 321.500 C 909.108 348.672, 908.109 362.850, 909.142 377.313 C 910.633 398.196, 915.288 415.997, 926.433 443.436 C 938.369 472.824, 944.300 491.824, 946.444 507.548 C 947.094 512.313, 948.482 516.011, 949.230 514.971 C 956.518 504.851, 966.125 494.820, 975.714 487.317 C 985.189 479.903, 984.774 482.461, 979.823 462.032 C 978.161 455.175, 974.330 442.800, 971.311 434.532 C 951.604 380.579, 951.576 380.438, 952.114 338 C 952.762 286.778, 952.318 260.599, 950.559 246.500 C 947.013 218.074, 938.875 186.600, 931.076 171.151 C 926.604 162.291, 921.891 157.592, 906.721 146.866 C 892.380 136.727, 877.975 123.609, 874 117.069 C 871.620 113.154, 871.332 112.993, 868 113.728 C 866.075 114.153, 861.575 114.489, 858 114.475 C 852.812 114.456, 850.516 113.901, 846.624 111.725 C 843.942 110.226, 841.516 109, 841.232 109 C 840.948 109, 840.991 111.588, 841.328 114.750 M 614.083 111.400 C 613.200 112.464, 613.201 113.913, 614.087 117.431 C 614.728 119.978, 615.027 124.065, 614.751 126.512 C 614.187 131.521, 615.622 133.572, 618.953 132.515 C 622.390 131.424, 623.510 127.740, 623.151 118.705 C 622.909 112.612, 617.016 107.866, 614.083 111.400 M 599.552 111.916 C 599.240 112.420, 599.503 114.107, 600.134 115.666 C 600.766 117.225, 601.557 121.603, 601.891 125.396 C 602.629 133.752, 604.590 135.856, 608.236 132.206 C 610.142 130.298, 610.500 128.870, 610.498 123.172 C 610.495 114.490, 608.499 111, 603.536 111 C 601.656 111, 599.863 111.412, 599.552 111.916 M 584.699 113.780 C 582.300 116.430, 582.581 117.679, 585.750 118.466 C 591.937 120.001, 594.920 126.544, 591.957 132.081 C 590.461 134.876, 593.454 135.804, 596.136 133.377 C 597.916 131.766, 598.146 130.592, 597.818 124.787 C 597.345 116.413, 594.958 112.643, 589.850 112.201 C 587.464 111.995, 585.873 112.483, 584.699 113.780 M 1021.881 122.047 C 1015.576 131.717, 1008.224 149.590, 1004.417 164.500 C 1001.995 173.985, 1001.601 177.497, 1001.555 190 C 1001.504 203.888, 1001.684 205.218, 1005.818 221.500 C 1008.192 230.850, 1012.795 249.662, 1016.048 263.305 C 1019.301 276.948, 1022.407 288.873, 1022.951 289.805 C 1026.417 295.748, 1021.577 272.376, 1007.053 213.025 C 1004.793 203.791, 1004.001 198.205, 1004.003 191.525 C 1004.010 173.603, 1009.521 152.548, 1019.077 133.946 C 1021.940 128.371, 1024.007 123.090, 1023.824 121.818 L 1023.500 119.563 1021.881 122.047 M 578.299 123.960 C 569.256 129.473, 570.076 144.942, 579.840 153.037 C 586.637 158.673, 593.341 161.283, 600.895 161.236 C 614.058 161.153, 622 154.124, 622 142.557 C 622 138.566, 620.133 135.200, 618.709 136.624 C 618.375 136.958, 616.689 136.739, 614.961 136.136 C 612.487 135.274, 611.207 135.359, 608.931 136.536 C 606.979 137.545, 604.736 137.822, 602.020 137.387 C 597.812 136.714, 596.799 137.759, 599.493 139.994 C 601.314 141.505, 603.352 148.641, 602.555 150.717 C 601.759 152.792, 599 150.511, 599 147.778 C 599 144.487, 592.804 139.152, 588.111 138.402 C 585.826 138.036, 583.690 137.308, 583.365 136.782 C 583.041 136.257, 584.176 134.382, 585.888 132.616 C 592.828 125.456, 586.912 118.708, 578.299 123.960 M 434.122 133.513 C 430.059 138.141, 428.235 141.804, 426.905 148.007 C 425.964 152.397, 425.508 153.071, 423.659 152.807 C 422.137 152.590, 420.561 150.599, 418.275 146.007 C 416.497 142.436, 414.609 139.370, 414.080 139.193 C 411.837 138.446, 409.557 145.499, 409.529 153.276 L 409.500 161.051 401.587 164.492 C 397.235 166.385, 391.312 169.501, 388.425 171.418 C 370.232 183.498, 355.561 205.038, 350.908 226.500 C 349.119 234.752, 349.337 251.985, 351.335 260.241 C 354.551 273.525, 363.014 289.796, 370.427 296.946 C 373.532 299.941, 374 301.010, 374 305.107 C 374 315.239, 380.470 328.675, 389.107 336.478 C 402.781 348.832, 419.266 354.708, 443.025 355.699 C 454.807 356.191, 476.559 354.767, 477.917 353.415 C 479.146 352.191, 476.284 352.107, 466.596 353.082 C 454.550 354.294, 436.818 353.116, 426.500 350.419 C 411.623 346.529, 397.323 336.520, 392.261 326.455 C 387.639 317.267, 387.021 306.217, 390.698 298.508 L 392.312 295.122 387.230 289.561 C 381.373 283.153, 377.747 276.238, 375.399 267 C 373.165 258.210, 373.921 242.819, 376.985 234.711 C 385.918 211.073, 408.567 198.354, 435.530 201.835 C 440.479 202.473, 446.552 204.022, 449.623 205.428 L 455.020 207.899 456.362 205.699 C 457.100 204.490, 458.980 201.250, 460.539 198.500 C 469.491 182.713, 487.088 173.805, 503.138 176.937 C 531.316 182.436, 551.395 215.745, 544.871 246.168 C 543.855 250.902, 543.924 251.539, 545.555 252.467 C 549.816 254.894, 556.068 261.504, 558.195 265.831 C 561.363 272.276, 561.366 285.815, 558.201 294.432 C 551.889 311.623, 536.772 327.442, 515.569 339.041 C 503.882 345.434, 508.196 345.087, 520.539 338.641 C 540.255 328.345, 554.448 316.256, 562.626 302.793 C 568.159 293.685, 570.274 286.717, 570.758 276 C 571.279 264.483, 569.188 257.767, 562.834 250.549 L 558.735 245.893 560.016 238.406 C 560.834 233.621, 561.077 227.234, 560.687 220.710 C 558.480 183.730, 535.578 157.407, 498.615 149.368 C 488.258 147.116, 469.478 147.346, 460 149.842 C 455.875 150.928, 452.127 151.462, 451.670 151.029 C 451.214 150.595, 451.838 147.923, 453.057 145.090 C 454.275 142.257, 455.020 139.687, 454.712 139.378 C 453.545 138.212, 449.488 140.399, 444.959 144.635 C 438.671 150.517, 437.440 149.270, 438.382 137.977 C 438.771 133.307, 438.665 130, 438.127 130 C 437.621 130, 435.819 131.581, 434.122 133.513 M 581.642 164.750 C 580.437 172.040, 580.865 177.018, 582.750 177.639 C 597.233 182.409, 605.958 192.186, 609.613 207.741 C 614.279 227.597, 603.880 250.375, 586 259.466 C 583.525 260.724, 580.085 262.059, 578.355 262.433 L 575.210 263.113 575.298 272.806 C 575.400 284.073, 573.631 291.230, 568.344 300.930 C 561.180 314.075, 549.389 326.355, 536.278 334.326 C 533.406 336.071, 531.044 337.971, 531.028 338.547 C 531.013 339.123, 532.836 341.373, 535.080 343.547 C 544.467 352.641, 556.968 375.308, 560.974 390.500 C 562.135 394.900, 563.347 402.100, 563.669 406.500 C 564.990 424.593, 556.935 440.013, 542.514 446.993 C 538.756 448.812, 535.368 449.510, 528.753 449.826 C 521.045 450.195, 518.790 449.872, 510.238 447.180 C 504.882 445.493, 498.363 443.835, 495.750 443.495 C 490.517 442.815, 489.244 441, 494 441 C 495.650 441, 496.989 440.663, 496.975 440.250 C 496.961 439.837, 494.684 436.800, 491.915 433.500 C 485.850 426.271, 480.059 414.529, 476.874 403 C 474.844 395.653, 474.509 392.059, 474.399 376.500 C 474.294 361.692, 474.026 358.565, 472.886 358.867 C 468.689 359.978, 438.358 360.136, 431.166 359.085 C 423.473 357.960, 422.624 358.032, 414.930 360.462 C 390.511 368.176, 362.429 367.626, 336.881 358.933 C 332.141 357.320, 327.754 356, 327.131 356 C 326.468 356, 325.998 357.758, 325.994 360.250 C 325.986 366.569, 324.329 371.416, 320.430 376.524 C 318.511 379.038, 317.202 381.518, 317.521 382.035 C 318.591 383.765, 326.607 388.840, 335.594 393.475 C 356.122 404.064, 379.510 407.941, 404.500 404.899 C 416.910 403.388, 434.256 398.871, 444.428 394.502 C 449.110 392.491, 453.340 391.092, 453.828 391.394 C 454.315 391.695, 454.965 394.369, 455.271 397.337 C 456.056 404.939, 462.141 422.502, 468.025 434.145 L 473.015 444.020 470.775 450.260 C 467.493 459.407, 467.669 479.069, 471.135 490.513 C 477.916 512.897, 490.963 525.373, 510.500 528.152 C 529.958 530.921, 544.768 521.004, 545.819 504.504 C 546.320 496.634, 544.894 494.949, 535.310 492.087 C 526.980 489.599, 524.204 487.733, 522.394 483.401 C 520.865 479.742, 520.468 467, 521.883 467 C 522.985 467, 523.968 470.531, 523.986 474.550 C 524.009 479.637, 525.496 480.172, 532.389 477.578 C 541.390 474.189, 552.642 468.358, 559.848 463.345 C 563.340 460.917, 568.776 457.628, 571.928 456.036 C 582.038 450.933, 591.831 442.755, 599.123 433.328 L 603.124 428.155 601.562 422.896 C 598.755 413.444, 600.333 410.270, 603.651 418.694 C 606.742 426.541, 615.764 444.736, 616.917 445.449 C 617.647 445.900, 618 444.204, 618 440.241 C 618 424.832, 625.465 413.859, 634.918 415.371 C 638.474 415.939, 638.614 415.831, 643.310 408.869 C 647.906 402.053, 648.041 401.651, 646.906 398.144 C 641.813 382.403, 632.144 373.263, 619.514 372.249 C 604.169 371.017, 589.995 380.888, 578.635 400.718 C 572.365 411.663, 571.296 410.111, 576.681 397.880 L 579.156 392.261 576.023 382.880 C 574.300 377.721, 569.896 367.875, 566.236 361 C 562.576 354.125, 558.363 346.025, 556.874 343 C 554.194 337.559, 552.266 328.969, 553.738 329.033 C 554.157 329.051, 555.713 331.751, 557.195 335.033 C 558.676 338.315, 560.321 341, 560.850 341 C 562.038 341, 569.767 330.605, 577.950 318 C 585.691 306.077, 598.513 280.012, 603.897 265.254 C 611.916 243.275, 617.064 219.417, 618.517 197.494 C 619.164 187.747, 617.567 164.250, 616.159 162.787 C 615.782 162.394, 613.679 162.712, 611.487 163.493 C 605.559 165.604, 595.008 165.375, 588.761 163.001 C 585.867 161.901, 583.221 161.001, 582.881 161.001 C 582.540 161, 581.983 162.688, 581.642 164.750 M 487.929 181.367 C 477.020 184.309, 467.145 193.275, 461.330 205.520 C 459.376 209.634, 457.419 213, 456.981 213 C 456.543 213, 454.006 211.872, 451.342 210.494 C 444.027 206.707, 433.001 204.692, 423.500 205.406 C 408.921 206.502, 399.095 210.890, 390.550 220.120 C 381.703 229.675, 378.032 239.616, 378.012 254.068 C 377.993 267.917, 382.005 278.468, 391.059 288.374 C 394.520 292.161, 396.045 294.601, 395.679 295.764 C 395.378 296.719, 394.447 299.300, 393.610 301.500 C 387.384 317.863, 399.032 336.521, 420.465 344.518 C 441.433 352.342, 476.978 351.204, 501 341.940 C 524.843 332.745, 546.623 313.364, 554.010 294.769 C 557.425 286.173, 557.553 272.548, 554.277 266.376 C 551.762 261.639, 547.283 257.563, 542.305 255.483 C 539.369 254.256, 538.961 253.701, 539.581 251.770 C 542.458 242.798, 542.825 228.973, 540.430 219.731 C 535.447 200.500, 521.909 185.990, 504.664 181.399 C 498.428 179.738, 494.002 179.730, 487.929 181.367 M 566.500 183.956 C 564.300 185.007, 561.466 186.703, 560.202 187.724 L 557.905 189.581 560.553 197.790 C 562.009 202.306, 563.428 206, 563.706 206 C 563.985 206, 565.052 204.932, 566.079 203.627 C 570.586 197.897, 581.020 196.222, 587.102 200.251 C 591.357 203.070, 596 211.947, 596 217.263 C 596 222.546, 594.023 221.689, 592.516 215.752 C 590.692 208.569, 586.726 203.298, 582.104 201.913 C 578.644 200.876, 577.635 200.999, 573.626 202.939 C 571.046 204.188, 568.193 206.570, 567.038 208.439 C 564.453 212.621, 564.292 218.847, 566.750 219.595 C 571.751 221.116, 575.339 223.744, 577.083 227.162 C 580.690 234.234, 579.091 241.785, 572.698 247.870 L 569.157 251.240 571.180 255.120 C 572.292 257.254, 573.815 259, 574.563 259 C 575.312 259, 578.415 258.068, 581.459 256.929 C 597.708 250.850, 609.188 229.528, 606.046 211.262 C 602.871 192.800, 592.135 181.971, 577.054 182.022 C 572.701 182.037, 569.157 182.686, 566.500 183.956 M 492.251 196.436 C 488.458 198.148, 486.010 202.410, 487.795 204.195 C 488.648 205.048, 490.307 205.006, 494.396 204.025 C 499.470 202.808, 503.163 202.950, 508.750 204.578 C 512.443 205.654, 511.607 201.565, 507.494 198.427 C 503.254 195.194, 496.855 194.358, 492.251 196.436 M 496.204 221.128 C 479.421 229.436, 480.121 257.368, 497.365 267.474 C 504.015 271.371, 509.679 271.751, 516.252 268.742 C 522.829 265.731, 526.236 261.531, 528.522 253.613 C 530.510 246.728, 529.969 240.124, 526.818 232.799 C 524.661 227.785, 518.652 221.579, 514.383 219.955 C 509.890 218.247, 500.844 218.831, 496.204 221.128 M 500.500 223.222 C 495.298 225.066, 492.254 227.850, 489.586 233.203 C 487.036 238.321, 486.280 244.713, 487.630 249.750 C 488.503 253.006, 490 252.512, 490 248.968 C 490 242.466, 494.850 235.829, 500.669 234.368 C 507.670 232.611, 515.847 238.364, 517.892 246.485 C 519.445 252.651, 519.251 255.851, 517.027 260.750 C 515.525 264.059, 515.399 265, 516.460 265 C 518.216 265, 522.916 259.424, 524.652 255.282 C 526.299 251.351, 526.404 242.079, 524.859 236.922 C 521.645 226.195, 510.227 219.773, 500.500 223.222 M 404.990 225.250 C 400.325 228.425, 397.942 232.013, 397.295 236.837 C 396.571 242.236, 398.658 242.448, 402.532 237.369 C 404.312 235.036, 407.572 232.708, 411.651 230.859 C 415.143 229.276, 418 227.604, 418 227.145 C 418 225.360, 414.197 223, 411.319 223 C 409.656 223, 406.808 224.012, 404.990 225.250 M 565.667 223.667 C 565.300 224.033, 565 226.447, 565 229.030 C 565 231.613, 564.549 236.104, 563.998 239.009 C 562.913 244.733, 563.769 247, 567.019 247 C 569.321 247, 574.954 240.575, 575.158 237.715 C 575.619 231.270, 573.696 226.411, 569.909 224.453 C 566.691 222.789, 566.567 222.766, 565.667 223.667 M 136.500 227.874 C 88.658 242.546, 50.167 280.503, 35.475 327.500 C 30.875 342.215, 28.971 353.686, 28.336 370.500 C 27.718 386.857, 28.912 398.828, 32.466 411.901 C 33.871 417.072, 35.761 426.747, 36.666 433.401 C 37.570 440.056, 38.578 445.777, 38.905 446.116 C 39.232 446.455, 41.655 446.455, 44.289 446.116 L 49.077 445.500 49.435 428 C 49.918 404.311, 52.754 385.869, 59.507 362.500 C 65.795 340.741, 80.407 309.682, 93.890 289.415 C 103.112 275.554, 116.722 258.710, 118.042 259.526 C 118.543 259.836, 116.184 263.557, 112.799 267.795 C 96.955 287.630, 77.330 322.450, 68.519 346.360 C 63.545 359.857, 58.591 378.319, 55.971 393.128 C 53.408 407.615, 51.895 445, 53.872 445 C 54.493 445, 55 444.168, 55 443.150 C 55 440.718, 59.695 433.899, 63.611 430.643 C 67.640 427.293, 71.232 425.913, 77.955 425.133 L 83.410 424.500 90.308 412.500 C 101.448 393.118, 110.436 375.478, 116.865 360.381 C 122.864 346.290, 130 326.266, 130 323.520 C 130 321.381, 126.869 320.047, 114.988 317.126 C 109.114 315.682, 104.176 314.050, 104.015 313.500 C 103.486 311.695, 108.596 310.026, 121.142 307.906 C 127.972 306.752, 134.252 305.146, 135.182 304.316 C 137.201 302.512, 142.148 282.580, 144.941 265 C 147.345 249.861, 149.404 227.463, 148.522 226.036 C 147.634 224.600, 146.720 224.739, 136.500 227.874 M 737 236.616 C 737 236.954, 738.974 240.217, 741.386 243.866 C 751.272 258.821, 759.043 277.092, 770.788 313 C 777.429 333.304, 790.452 381.096, 793.064 394.750 C 793.722 398.188, 794.582 401, 794.976 401 C 795.369 401, 796.964 394.469, 798.520 386.487 C 801.324 372.098, 801.338 371.839, 800.149 355.941 C 798.724 336.879, 796.205 321.437, 791.477 302.781 C 787.603 287.494, 787.694 288, 788.802 288 C 789.833 288, 795.393 305.003, 797.957 316 C 799.527 322.733, 803 343.044, 803 345.493 C 803 345.772, 803.372 346, 803.828 346 C 804.684 346, 806.492 321.923, 807.642 295.203 L 808.301 279.906 804.900 276.371 C 799.659 270.922, 786.211 259.797, 779.059 254.993 C 771.161 249.687, 755.995 242.132, 746.190 238.619 C 738.652 235.918, 737 235.558, 737 236.616 M 499.536 240.960 C 497.224 243.515, 498.213 247.684, 501.487 249.176 C 506.809 251.601, 511.499 244.571, 507.171 240.655 C 504.728 238.444, 501.704 238.565, 499.536 240.960 M 420.326 246.069 C 412.643 247.543, 407.277 251.635, 403.373 259 C 400.573 264.281, 400.764 278.073, 403.714 283.616 C 406.916 289.634, 410.745 293.830, 415.034 296.017 C 424.015 300.599, 432.964 299.425, 440.654 292.656 C 446.830 287.219, 448.950 282.317, 448.978 273.410 C 449.031 256.182, 435.404 243.178, 420.326 246.069 M 330.500 250.399 C 324.165 252.402, 320.545 254.615, 317.004 258.648 C 304.772 272.580, 307.345 294.486, 322.962 309.382 C 334.566 320.451, 348.870 324.937, 362.939 321.920 C 370.363 320.328, 371.947 318.551, 370.777 313.129 L 369.835 308.759 365.882 309.289 C 360.323 310.035, 355.491 308.438, 350.985 304.367 C 343.846 297.918, 343.348 289.941, 349.649 282.967 C 352.728 279.559, 353.065 278.696, 352.262 276.286 C 350.045 269.634, 337.226 267.302, 330.613 272.346 C 326.247 275.676, 324.593 280.576, 325.280 288.146 C 325.686 292.632, 325.498 294, 324.473 294 C 323.052 294, 322.491 292.675, 321.472 286.909 C 320.142 279.384, 325.194 269.819, 331.985 267.006 C 333.764 266.269, 337.622 265.934, 341.490 266.180 C 345.144 266.413, 348 266.186, 348 265.663 C 348 261.707, 345.392 251.259, 344.153 250.250 C 342.220 248.676, 335.722 248.747, 330.500 250.399 M 416.252 251.104 C 410.711 253.847, 407.407 257.889, 405.525 264.229 C 403.617 270.651, 403.621 272.361, 405.556 278.878 C 407.415 285.135, 412.877 291.573, 418.500 294.134 C 422.830 296.107, 429 296.615, 429 295 C 429 294.450, 428.429 294, 427.732 294 C 427.035 294, 424.744 292.831, 422.641 291.402 C 418.300 288.452, 414.025 280.437, 414.010 275.218 C 413.988 267.867, 419.685 260.712, 426.593 259.417 C 432.994 258.216, 441.987 264.114, 443.609 270.577 C 444.657 274.753, 446.314 273.365, 445.601 268.908 C 443.183 253.788, 428.646 244.969, 416.252 251.104 M 426.200 265.200 C 425.540 265.860, 425 267.570, 425 269 C 425 272.355, 426.703 274, 430.177 274 C 432.036 274, 433.496 273.173, 434.592 271.500 C 436.109 269.184, 436.109 268.816, 434.592 266.500 C 432.807 263.776, 428.319 263.081, 426.200 265.200 M 471.431 268.764 C 463.218 271.691, 457.021 277.699, 457.007 282.750 C 456.997 285.958, 458.258 285.533, 460.366 281.619 C 464.781 273.422, 479.185 268.393, 487.457 272.162 C 490.896 273.729, 491.882 272.438, 489.254 269.809 C 486.300 266.855, 478.131 266.376, 471.431 268.764 M 481.677 277.804 C 478.324 281.510, 480.514 285.655, 484.107 282.403 C 486.144 280.560, 486.334 276.931, 484.427 276.304 C 483.837 276.110, 482.599 276.785, 481.677 277.804 M 465.380 283.452 C 464.517 285.702, 465.841 287, 469 287 C 472.398 287, 473.656 285.495, 471.964 283.456 C 470.403 281.576, 466.101 281.573, 465.380 283.452 M 351.484 286.201 C 346.682 291.909, 349.356 300.514, 357.200 304.595 C 360.653 306.391, 366.075 306.397, 368.522 304.607 C 370.347 303.273, 370.269 303.040, 366.665 299.050 C 364.595 296.760, 361.354 292.466, 359.463 289.509 C 357.571 286.552, 355.609 283.876, 355.103 283.564 C 354.597 283.251, 352.968 284.438, 351.484 286.201 M 506.323 286.127 C 507.130 289.211, 504.595 292.437, 497.799 296.975 C 489.014 302.842, 478.095 306, 466.598 306 C 456.475 306, 450.555 304.603, 451.395 302.413 C 451.680 301.671, 451.409 300.753, 450.794 300.372 C 449.325 299.465, 444 305.457, 444 308.016 C 444 310.370, 445.273 310.580, 446.991 308.511 C 448.737 306.407, 449.603 307.261, 453.435 314.871 C 458.641 325.208, 463.996 331.362, 470.596 334.591 C 480.490 339.432, 489.905 337.976, 498.065 330.343 C 505.334 323.543, 508.091 316.339, 508.866 302.115 C 509.484 290.800, 509.558 290.508, 511.750 290.813 C 514.870 291.247, 514.660 288.665, 511.365 286.073 C 507.862 283.317, 505.595 283.342, 506.323 286.127 M 502.578 297.914 C 497.225 303.829, 477.110 310.188, 464.500 309.950 C 460.100 309.868, 456.134 309.845, 455.688 309.900 C 454.718 310.019, 460 320, 461.033 320 C 461.426 320, 463.796 318.855, 466.299 317.457 C 475.404 312.368, 488.315 312.205, 497.381 317.064 C 499.426 318.160, 501.481 318.820, 501.949 318.532 C 503.923 317.312, 506.873 297.657, 505.234 296.644 C 504.702 296.316, 503.507 296.887, 502.578 297.914 M 686.500 305.628 C 677.623 306.561, 658.999 311.479, 659.001 312.889 C 659.002 313.225, 662.489 315.063, 666.751 316.974 C 676.927 321.535, 689.718 330.150, 700.686 339.830 C 709.434 347.551, 709.661 347.675, 719.022 349.842 C 730.255 352.441, 737.064 355.443, 745.686 361.595 C 757.647 370.131, 757.938 374.469, 746.343 371.406 C 738.246 369.268, 718.991 368.977, 712 370.887 C 704.811 372.852, 694 377.103, 694 377.965 C 694 378.400, 696.642 379.744, 699.871 380.952 C 712.844 385.803, 733.240 399.701, 748.136 413.840 C 759.751 424.865, 766.455 433.453, 772.261 444.745 C 774.592 449.280, 776.776 452.993, 777.114 452.995 C 777.452 452.998, 778.518 450.932, 779.483 448.405 C 781.953 441.938, 781.089 437.709, 774.635 424.678 C 767.759 410.794, 760.864 401.618, 751.331 393.662 C 743.078 386.775, 743.246 384.771, 751.595 390.521 C 763.885 398.985, 776.407 416.398, 782.323 433.250 C 782.661 434.212, 783.349 435, 783.852 435 C 786.769 435, 785.133 423.723, 779.796 407.035 C 772.253 383.452, 761.170 364.099, 745.538 347.214 C 738.948 340.096, 738.756 337.933, 745.202 343.422 C 755.521 352.208, 767.029 368.389, 774.978 385.286 C 778.887 393.595, 782.663 404.217, 787.643 420.917 C 787.975 422.032, 788.325 422.074, 789.283 421.114 C 790.107 420.288, 790.467 416.282, 790.398 408.697 C 790.315 399.568, 789.724 395.356, 787.202 385.891 C 776.227 344.717, 750.650 316.314, 717.008 307.943 C 709.386 306.046, 693.781 304.862, 686.500 305.628 M 472.158 318.910 C 462.481 322.252, 461.941 325.537, 470.268 330.417 C 479.047 335.561, 488.233 334.669, 495.363 327.981 C 500.409 323.246, 499.803 321.358, 492.415 318.794 C 486.016 316.572, 478.807 316.614, 472.158 318.910 M 276.200 330.200 C 274.362 332.038, 274.770 336.438, 277.047 339.333 C 278.173 340.765, 281.773 343.589, 285.047 345.610 C 288.321 347.631, 291 349.388, 291 349.515 C 291 349.642, 290.144 351.715, 289.099 354.123 C 288.053 356.530, 286.886 360.863, 286.505 363.750 C 285.760 369.396, 284.331 370.724, 283.816 366.250 C 283.509 363.579, 283.327 363.503, 277.500 363.588 C 269.499 363.705, 265 366.009, 265 369.990 C 265 371.873, 265.695 373.302, 266.934 373.965 C 269.768 375.481, 276.390 375.228, 280.881 373.431 L 284.802 371.862 289.357 375.339 C 297.678 381.690, 306.050 382.604, 313.536 377.978 C 321.352 373.147, 324.729 357.270, 319.938 347.879 C 318.260 344.589, 318.003 342.828, 318.554 338.411 C 319.021 334.675, 318.847 332.520, 317.994 331.492 C 316.055 329.156, 311.645 329.685, 308.924 332.580 C 306.913 334.720, 306.479 336.260, 306.376 341.612 C 306.288 346.163, 305.747 348.622, 304.541 349.955 C 302.236 352.502, 301.443 359.242, 303.005 363.013 C 304.640 366.959, 303.546 367.990, 300.722 365.167 C 297.569 362.013, 297.584 353.407, 300.750 349.124 C 301.988 347.450, 303 345.440, 303 344.657 C 303 343.085, 287.759 331.619, 283.534 330.013 C 280.012 328.674, 277.666 328.734, 276.200 330.200 M 517.931 344.472 C 510.419 348.329, 494.239 354.140, 485.704 356.045 C 482.517 356.757, 479.684 357.702, 479.409 358.147 C 479.134 358.591, 478.424 363.064, 477.830 368.087 C 474.663 394.875, 485.519 426.591, 501.875 438.334 C 510.503 444.528, 516.449 446.487, 526.500 446.451 C 534.225 446.422, 536.302 446.030, 541.161 443.678 C 559.144 434.976, 564.867 412.179, 555.765 385.500 C 553.190 377.950, 546.841 365.152, 542.165 358.080 C 537.281 350.696, 528.149 340.989, 526.142 341.049 C 525.239 341.076, 521.544 342.616, 517.931 344.472 M 503.500 345 C 503.160 345.550, 503.557 346, 504.382 346 C 505.207 346, 506.160 345.550, 506.500 345 C 506.840 344.450, 506.443 344, 505.618 344 C 504.793 344, 503.840 344.450, 503.500 345 M 183.500 348.100 C 156.442 351.962, 124.414 371.271, 106.988 394.226 C 101.263 401.767, 88 423.393, 88 425.186 C 88 425.529, 90.064 427.019, 92.586 428.497 C 95.108 429.975, 98.570 433.168, 100.278 435.592 C 101.987 438.017, 103.636 439.984, 103.943 439.965 C 104.249 439.946, 107.285 435.784, 110.689 430.715 C 125.591 408.527, 148.532 386.915, 169.298 375.501 C 177.542 370.969, 180.299 371.344, 172.899 375.990 C 160.340 383.877, 144.774 396.501, 134.500 407.132 C 115.048 427.259, 101.792 447.459, 105.562 451.228 C 105.871 451.537, 108.164 450.650, 110.659 449.255 C 116.776 445.836, 124.015 445.729, 130.901 448.954 C 137.113 451.863, 136.994 451.913, 151.373 440.394 C 164.038 430.248, 178.789 414.895, 190.804 399.355 C 206.736 378.749, 224.685 351.285, 223.194 349.794 C 220.849 347.449, 195.609 346.372, 183.500 348.100 M 266 348.230 C 264.225 349.174, 263.500 350.389, 263.500 352.422 C 263.500 356.766, 267.222 358.967, 275.784 359.685 L 282.982 360.289 284.491 356.676 C 285.321 354.690, 286 352.419, 286 351.630 C 286 348.470, 270.504 345.836, 266 348.230 M 480 352 C 480 352.550, 480.675 353, 481.500 353 C 482.325 353, 483 352.550, 483 352 C 483 351.450, 482.325 351, 481.500 351 C 480.675 351, 480 351.450, 480 352 M 659.340 396.868 C 654.326 400.501, 647.809 408.098, 644.514 414.152 C 642.144 418.505, 642.051 419.162, 643.195 423.438 C 644.213 427.244, 644.173 428.756, 642.963 432.196 C 640.583 438.961, 639.190 438.078, 639.756 430.165 C 640.192 424.069, 639.999 422.999, 638.125 421.125 C 634.906 417.906, 630.762 418.368, 627.280 422.334 C 623.235 426.941, 621.647 433.350, 622.197 442.850 C 622.980 456.367, 627.471 462.045, 637.982 462.805 C 648.725 463.582, 657.610 457.390, 666.848 442.687 C 673.956 431.373, 676.039 428.995, 681.578 425.869 C 687.752 422.385, 689.800 419.050, 688.081 415.278 C 686.540 411.895, 683.093 412.422, 676.064 417.116 C 672.673 419.380, 669.588 420.922, 669.208 420.541 C 668.532 419.865, 674.773 413.806, 680.915 409.174 C 682.772 407.774, 684 405.944, 684 404.579 C 684 402, 681.149 399, 678.698 399 C 677.794 399, 673.013 403.041, 668.074 407.980 C 663.135 412.919, 658.819 416.516, 658.484 415.973 C 657.701 414.708, 660.625 410.680, 666.419 405.042 C 671.007 400.576, 672.073 397.473, 669.800 395.200 C 667.775 393.175, 663.496 393.858, 659.340 396.868 M 180.165 418.367 C 171.204 428.472, 162.650 436.549, 152.500 444.489 C 149.750 446.640, 147.115 448.718, 146.644 449.106 C 146.173 449.495, 147.636 451.483, 149.896 453.525 C 152.155 455.566, 154.370 458.646, 154.817 460.368 C 155.616 463.444, 155.728 463.495, 161.065 463.210 C 165.070 462.996, 167.311 463.425, 169.580 464.842 C 172.622 466.740, 176 472.296, 176 475.401 C 176 477.379, 176.357 477.384, 180.075 475.461 C 185.188 472.817, 193.497 471.754, 199.427 472.985 C 210.846 475.355, 218.309 483.293, 220.498 495.397 L 221.587 501.421 227.677 501.501 C 238.872 501.647, 245.929 509.070, 245.978 520.750 L 246 526 251.050 526 C 257.185 526, 261.458 528.051, 263.483 531.967 C 265.384 535.644, 265.398 538.713, 263.530 542.295 C 261.814 545.584, 261.909 545.638, 270.572 546.308 C 279.857 547.027, 288.622 552.273, 293.532 560.050 L 295.877 563.766 313.189 564.421 C 379.079 566.916, 442.928 573.808, 504.500 585.072 C 524.169 588.670, 525 588.696, 525 585.723 C 525 579.848, 518.035 576.379, 512.248 579.372 C 508.666 581.224, 508 580.739, 508 576.284 C 508 571.566, 505.643 567.509, 502.036 566.015 C 499.304 564.883, 495.934 564.926, 487.500 566.198 C 485.990 566.426, 485.576 566.010, 485.811 564.500 C 487.421 554.142, 487.270 552.179, 484.663 549.572 C 480.461 545.370, 472.531 546.441, 467.614 551.874 C 464.999 554.764, 464 553.695, 464 548.006 C 464 542.006, 462.685 538.359, 459.186 534.658 C 454.571 529.777, 449.305 527.691, 441.500 527.653 C 427.101 527.582, 420 534.933, 420 549.909 C 420 553.774, 419.524 557.176, 418.932 557.542 C 418.345 557.905, 416.315 556.392, 414.422 554.180 C 410.162 549.203, 403.681 546.511, 397.845 547.294 C 392.866 547.962, 389.355 550.358, 386.089 555.318 C 383.420 559.372, 381.682 559.023, 380.659 554.228 C 378.994 546.419, 371.109 541.007, 363.483 542.437 C 359.625 543.161, 352.486 548.892, 351.475 552.078 C 350.713 554.479, 348.148 554.585, 347.306 552.250 C 344.663 544.924, 337.839 541.690, 331.287 544.658 C 329.204 545.601, 327.109 546.402, 326.631 546.437 C 326.154 546.471, 325.684 543.125, 325.587 539 C 325.336 528.316, 321.613 521.816, 313.355 517.646 C 308.109 514.996, 302.583 514.579, 296.985 516.410 C 294.198 517.322, 291.520 517.821, 291.033 517.520 C 290.522 517.204, 290.539 515.608, 291.074 513.743 C 295.297 499.019, 284.025 486.783, 269.069 489.855 C 266.081 490.469, 263.402 490.735, 263.114 490.447 C 262.826 490.159, 263.206 488.478, 263.958 486.712 C 266.112 481.654, 266.430 472.732, 264.584 469.163 C 260.947 462.129, 250.729 457.824, 242.557 459.881 C 240.114 460.497, 237.639 461, 237.057 461 C 235.494 461, 235.774 457.433, 237.445 456.045 C 238.240 455.386, 239.643 452.580, 240.563 449.811 C 244.643 437.526, 238.582 427.165, 226.791 426.270 C 222.825 425.969, 220.518 426.380, 217.578 427.914 C 212.913 430.347, 211.009 429.399, 210.984 424.628 C 210.955 419.192, 207.110 413.809, 201.071 410.750 C 191.817 406.063, 190.722 406.462, 180.165 418.367 M 346.108 425.082 C 333.741 427.510, 321.191 436.804, 315.977 447.395 C 308.043 463.512, 310.109 479.259, 321.722 491.176 C 329.733 499.396, 342.724 503.566, 352.588 501.082 C 363.023 498.454, 370 490.341, 370 480.832 C 370 468.387, 355.507 463.063, 353.423 474.742 C 351.407 486.047, 337.847 485.881, 331.227 474.470 C 327.856 468.661, 328.370 458.061, 332.311 452.106 C 337.635 444.061, 349.532 439.074, 360.345 440.354 C 370.369 441.542, 377.014 445.818, 391.837 460.621 C 416.849 485.600, 431.987 493.746, 455.250 494.743 L 467 495.247 466.936 492.873 C 466.900 491.568, 466.304 487.809, 465.611 484.519 L 464.349 478.538 455.870 477.414 C 435.696 474.741, 424.126 468.166, 400.646 446.036 C 391.185 437.118, 385.936 432.986, 380.761 430.380 C 369.584 424.751, 357.331 422.878, 346.108 425.082 M 726.459 437.880 C 718.801 441.358, 714.136 449.928, 715.502 458.010 C 716.326 462.890, 714.536 464.149, 711.639 460.728 C 706.572 454.742, 697.918 452.922, 691.154 456.420 C 686.607 458.772, 682.301 465.231, 680.954 471.723 C 679.810 477.231, 680.246 480.450, 683.552 490.896 C 684.233 493.049, 684.066 493.235, 681.905 492.728 C 680.582 492.418, 677.475 491.409, 675 490.486 C 664.774 486.673, 650.726 492.621, 647.064 502.315 C 645.651 506.054, 645.710 514.270, 647.173 517.480 C 648.976 521.437, 647.042 522.605, 642.884 520.070 C 636.566 516.219, 627.680 518.195, 624.353 524.190 C 622.544 527.450, 622.701 534.305, 624.679 538.454 C 625.603 540.390, 626.079 542.254, 625.738 542.595 C 625.397 542.936, 622.867 542.638, 620.114 541.933 C 610.296 539.416, 601.559 545, 602.165 553.404 L 602.460 557.500 597.241 557.512 C 592.908 557.522, 591.561 557.984, 589.311 560.235 C 586.073 563.472, 585.652 568.853, 588.398 571.887 C 589.387 572.980, 589.949 574.273, 589.648 574.760 C 589.347 575.248, 585.365 575.469, 580.800 575.253 C 573.596 574.911, 571.913 575.165, 568.059 577.179 C 562.640 580.011, 559.880 583.602, 559.663 588.105 L 559.500 591.500 567 591.290 C 571.125 591.174, 580.251 590.119, 587.279 588.946 C 594.308 587.773, 604.866 586.280, 610.740 585.629 L 621.422 584.445 622.199 580.707 C 623.491 574.488, 626.811 569.153, 631.197 566.251 C 634.712 563.925, 636.407 563.500, 642.177 563.500 L 649 563.500 649 559.398 C 649 551.459, 656.658 544.322, 664 545.418 C 665.925 545.705, 668.384 546.066, 669.463 546.220 C 671.092 546.452, 671.543 545.718, 672.106 541.920 C 672.942 536.285, 675.894 530.375, 679.658 526.803 C 686.894 519.936, 699.263 519.017, 706.229 524.829 C 707.760 526.107, 708.034 526.056, 708.614 524.386 C 713.595 510.056, 720.517 503, 729.592 503 C 733.624 503, 739.445 506.094, 741.048 509.089 C 741.610 510.140, 742.657 511, 743.374 511 C 746.203 511, 763.439 484.084, 771.460 467.143 C 775.630 458.335, 773.591 455.984, 763.959 458.492 C 761.589 459.109, 761.330 458.814, 760.129 454.127 C 758.556 447.988, 752.283 440.488, 746.539 437.878 C 741.210 435.458, 731.789 435.459, 726.459 437.880 M 862.362 450.500 C 861.256 453.382, 862.809 491.896, 864.459 502.500 C 866.559 515.998, 871.364 535.474, 874.492 543.173 C 875.901 546.640, 879.011 552.407, 881.403 555.988 C 898.557 581.667, 907.466 608.914, 912.552 651.250 C 912.866 653.862, 913.617 656, 914.221 656 C 915.517 656, 914.618 613.311, 912.999 598 C 909.368 563.647, 901.615 536.287, 886.391 504.104 C 878.163 486.710, 879.649 484.598, 888.223 501.500 C 900.820 526.330, 909.276 551.710, 913.377 577 C 916.904 598.754, 917.500 607.894, 917.500 640.250 C 917.500 658.263, 917.748 673, 918.051 673 C 918.354 673, 919.396 666.362, 920.367 658.250 C 921.338 650.138, 923.941 631.800, 926.152 617.500 C 931.114 585.411, 932.309 559.755, 929.574 544.039 C 926.171 524.488, 915.398 499.559, 903.587 483.908 C 895.798 473.585, 882.643 460.910, 873.211 454.640 C 864.478 448.835, 863.189 448.343, 862.362 450.500 M 139 454.532 C 139 454.824, 139.950 457.861, 141.111 461.282 C 142.820 466.317, 143.108 468.886, 142.621 474.783 L 142.020 482.066 146.899 481.419 C 153.410 480.555, 158.078 482.237, 162.378 486.996 C 167.189 492.322, 168.206 499.951, 165.409 509.748 C 164.826 511.793, 165.033 511.943, 167.700 511.410 C 171.853 510.579, 178.217 512.537, 181.003 515.503 C 182.655 517.262, 183.395 519.253, 183.438 522.063 C 183.496 525.811, 183.796 526.230, 187.669 527.964 C 192.299 530.036, 194.118 532.625, 194.945 538.321 L 195.500 542.141 205.500 542.447 C 221.491 542.935, 234.193 548.288, 247.334 560.076 L 253.168 565.310 271.285 564.653 C 281.250 564.292, 289.797 563.603, 290.279 563.121 C 291.758 561.642, 285.212 555.251, 279.212 552.315 C 274.526 550.023, 272.145 549.530, 265.270 549.432 C 260.710 549.366, 256.719 549.053, 256.401 548.734 C 256.083 548.416, 256.987 546.441, 258.411 544.346 C 262.924 537.705, 261.554 531.846, 255.033 529.892 C 251.947 528.967, 250.104 528.991, 246.494 530.002 C 241.116 531.507, 239.127 530.500, 240.907 527.173 C 242.743 523.743, 242.236 515.117, 239.984 511.474 C 236.315 505.537, 227.319 503.232, 220.857 506.574 C 219.184 507.439, 217.552 507.885, 217.231 507.564 C 216.910 507.243, 216.614 503.497, 216.574 499.240 C 216.511 492.657, 216.085 490.794, 213.723 486.777 C 207.018 475.370, 189.686 472.679, 177.735 481.189 C 173.820 483.977, 172 482.959, 172 477.982 C 172 473.382, 169.881 468.552, 167.455 467.621 C 164.483 466.481, 158.471 466.982, 156.221 468.558 C 153.218 470.661, 152.358 469.871, 151.747 464.447 C 151.070 458.442, 147.059 454, 142.313 454 C 140.491 454, 139 454.239, 139 454.532 M 1005.481 474.931 C 977.155 484.965, 950.126 512.827, 938.343 544.137 C 935.268 552.306, 935 553.932, 935 564.403 C 935 578.536, 933.780 590.898, 929.876 616.333 C 927.273 633.294, 926.849 638.871, 928.312 636.917 C 928.483 636.688, 929.884 630.875, 931.424 624 C 934.956 608.232, 941.963 584.627, 946.656 572.684 C 954.074 553.809, 965.816 531, 968.115 531 C 969.383 531, 969.596 530.488, 962.492 544.554 C 949.762 569.761, 941.673 593.541, 932.916 631.500 C 930.125 643.600, 926.304 659.765, 924.426 667.423 C 922.549 675.080, 921.234 681.568, 921.506 681.839 C 922.200 682.533, 921.697 683.606, 931.500 660.500 C 936.400 648.950, 949.819 620.600, 961.319 597.500 C 980.629 558.711, 988.192 542.226, 993.205 528 C 1004.287 496.551, 1011.747 473.962, 1011.168 473.604 C 1010.779 473.364, 1008.220 473.961, 1005.481 474.931 M 68.370 484.248 C 61.082 490.647, 57.203 505.076, 58.417 521.267 L 59.074 530.034 53.731 524.517 C 47.486 518.070, 43.660 517.249, 39.455 521.455 C 37.297 523.612, 37 524.792, 37 531.211 C 37 535.227, 37.442 540.055, 37.983 541.940 C 38.523 543.825, 38.769 545.564, 38.529 545.804 C 38.289 546.045, 36.311 544.830, 34.134 543.106 C 26.341 536.934, 18.821 535.328, 15.405 539.107 C 12.917 541.859, 13.088 549.150, 15.784 555.244 C 17.856 559.929, 23.988 567.388, 27.164 569.088 C 30.113 570.666, 29.334 568.621, 24.981 563.359 C 20.371 557.786, 16.761 549.072, 17.200 544.578 C 17.445 542.065, 17.998 541.443, 20.216 541.187 C 24.634 540.677, 30.039 543.910, 37.770 551.687 C 44.308 558.264, 47 560.213, 47 558.369 C 47 558.021, 45.649 553.803, 43.998 548.993 C 40.405 538.529, 39.326 529.582, 41.226 526.009 C 45.166 518.598, 53.279 526.016, 60.903 544 C 66.691 557.651, 67.061 558.339, 68.078 557.322 C 68.705 556.695, 67.908 551.781, 65.823 543.426 C 63.010 532.154, 62.591 528.773, 62.548 517 C 62.492 501.396, 64.163 494.161, 69.130 488.504 C 77.391 479.096, 86.656 489.364, 89.160 510.704 C 90.045 518.254, 90.054 525.017, 89.197 538.488 C 88.573 548.281, 88.300 556.677, 88.591 557.146 C 89.759 559.038, 91.140 557.740, 93.403 552.623 C 101.091 535.240, 117.386 518.756, 122.603 523.086 C 125.269 525.298, 123.855 536.114, 119.467 547.082 C 114.690 559.023, 115.707 560.215, 124.186 552.613 C 135.015 542.905, 146.017 539.099, 146.824 544.782 C 147.246 547.761, 143.891 554.599, 139.477 559.755 C 134.888 565.117, 136.838 566.541, 141.942 561.557 C 145.937 557.656, 149.610 551.199, 150.573 546.385 C 151.409 542.207, 147.933 537.993, 143.677 538.022 C 139.942 538.048, 132.929 541.054, 128.213 544.651 C 126.373 546.054, 124.627 546.961, 124.332 546.666 C 124.038 546.371, 124.591 543.738, 125.562 540.815 C 128.046 533.338, 128.062 523.843, 125.595 521.110 C 122.784 517.996, 117.251 518.305, 112.400 521.848 C 107.122 525.702, 99.805 533.699, 96.892 538.798 C 95.576 541.101, 94.101 542.988, 93.614 542.992 C 93.111 542.997, 93.024 538.133, 93.412 531.750 C 94.929 506.776, 89.681 487.506, 79.998 482.499 C 75.560 480.204, 72.442 480.673, 68.370 484.248 M 549.788 504.394 C 549.431 509.963, 548.672 512.885, 546.712 516.228 C 543.406 521.870, 537.065 527.614, 531.521 529.991 C 527.719 531.621, 527.122 532.317, 526.531 535.816 C 525.749 540.446, 527.243 549.636, 529.482 553.966 C 531.290 557.461, 535.381 560.452, 537.331 559.703 C 538.454 559.272, 538.437 557.991, 537.229 551.981 C 536.132 546.521, 536.051 544.183, 536.895 542.331 C 538.463 538.889, 539.999 540.359, 540.006 545.309 C 540.021 557.192, 548.181 567.307, 553.034 561.459 C 554.091 560.186, 553.931 559.152, 552.116 555.519 C 549.472 550.224, 547.403 540.999, 548.322 538.604 C 549.387 535.827, 550.569 537.490, 551.945 543.704 C 553.474 550.603, 554.409 552.604, 557.809 556.250 C 560.797 559.454, 563.032 559.727, 565.345 557.171 C 567.491 554.800, 567.543 547.696, 565.427 545.939 C 561.219 542.447, 557.747 529.334, 560.749 528.275 C 562.128 527.788, 562.546 528.706, 563.462 534.221 C 564.889 542.818, 573.358 547.283, 575.302 540.463 C 575.951 538.184, 575.621 535.938, 573.979 531.463 C 572.776 528.183, 570.681 521.675, 569.324 517 C 565.169 502.680, 560.584 497, 553.181 497 L 550.263 497 549.788 504.394 M 722.586 508.934 C 717.280 512.432, 712.022 522.218, 712.006 528.628 C 711.996 532.461, 709.615 533.286, 706.913 530.392 C 703.373 526.603, 699.682 525, 694.500 525 C 683.193 525, 675.808 533.261, 675.518 546.233 C 675.436 549.936, 675.084 553.249, 674.737 553.597 C 674.389 553.944, 672.911 553.289, 671.451 552.140 C 666.084 547.918, 657.858 548.509, 654.460 553.360 C 652.518 556.134, 652.603 562.988, 654.616 565.862 C 657.106 569.417, 655.076 570.648, 650.045 568.635 C 644.172 566.285, 637.994 566.530, 633.922 569.274 C 629.551 572.219, 626 577.542, 626 581.148 L 626 584 634.682 584 C 639.458 584, 647.342 584.510, 652.204 585.134 L 661.044 586.267 668.272 579.199 C 672.247 575.311, 684.050 565.322, 694.500 557.001 C 724.618 533.018, 740.043 518.711, 739.978 514.821 C 739.947 513.008, 736.958 509.468, 734.316 508.117 C 731.011 506.427, 725.843 506.787, 722.586 508.934 M 790.212 515.953 C 782.308 518.096, 781 518.667, 781 519.976 C 781 520.448, 784.938 523.894, 789.750 527.633 C 807.762 541.629, 829.458 564.751, 847.744 589.441 C 853.036 596.587, 856.895 600.659, 861.069 603.500 C 873.696 612.095, 887.178 626.479, 894.104 638.742 C 895.422 641.076, 896.837 642.988, 897.250 642.992 C 898.316 643.003, 898.323 643.031, 894.874 632.262 C 882.506 593.645, 862.265 563.914, 836.364 546.320 C 827.810 540.510, 826.446 538.146, 833.818 541.907 C 840.681 545.408, 853.657 555.803, 860.516 563.293 C 873.624 577.608, 885.890 598.578, 894.321 621.089 C 897.321 629.099, 903.934 652.141, 908.286 669.750 C 909.585 675.002, 911.196 675.358, 910.548 670.250 C 910.286 668.188, 909.808 662.450, 909.485 657.500 C 908.294 639.226, 903.712 614.960, 898.344 598.500 C 889.583 571.633, 870.524 543.216, 852.236 529.753 C 844.824 524.296, 833.337 518.588, 825.500 516.466 C 815.777 513.835, 798.932 513.590, 790.212 515.953 M 191.500 547.416 C 172.072 551.216, 153.297 562.194, 141.721 576.524 C 136.727 582.707, 128.967 596.996, 129.044 599.866 C 129.069 600.765, 131.656 604.247, 134.794 607.604 L 140.500 613.708 149 614.443 C 154.658 614.932, 162.104 616.652, 171.271 619.589 C 186.381 624.429, 190.924 624.865, 200.356 622.383 C 205.135 621.125, 209.096 620.901, 218.186 621.371 C 229.071 621.935, 229.914 621.846, 230.474 620.080 C 230.805 619.038, 233.041 616.373, 235.443 614.159 C 242.912 607.275, 255.018 605.172, 265.780 608.889 C 268.793 609.930, 271.304 610.317, 271.629 609.792 C 273.393 606.937, 268.075 593.614, 260.466 581.824 C 254.710 572.906, 240.507 558.675, 232.932 554.238 C 220.549 546.984, 205.978 544.585, 191.500 547.416 M 56 581.583 C 43.121 584.981, 30.424 593.657, 21 605.500 C 14.977 613.069, 7 627.894, 7 631.518 C 7 636.619, 14.744 638.948, 35 639.941 C 52.272 640.788, 57.063 642.439, 64.002 649.936 C 69.215 655.567, 74.026 657.342, 88.500 658.971 C 112.432 661.664, 147.463 658.494, 154.218 653.025 C 156.355 651.294, 156.404 650.956, 155.184 646.351 C 152.587 636.547, 139.367 617.339, 126.330 604.428 C 109.462 587.724, 91.777 579.924, 71.090 580.066 C 65.816 580.102, 59.025 580.785, 56 581.583 M 340.250 608.664 C 331.083 609.636, 336.825 610.757, 353.750 611.299 C 390.693 612.482, 404.553 620.123, 379.500 625.494 C 371.221 627.269, 368 629.091, 368 632 C 368 635.781, 372.175 637.623, 388.225 640.923 C 399.482 643.238, 407.644 646.466, 409.095 649.178 C 413.769 657.911, 392.581 663.594, 345.750 666.169 C 318.130 667.688, 316.281 669.551, 343.250 668.688 C 371.207 667.793, 396.451 664.345, 404.392 660.335 C 414.639 655.162, 414.684 647.803, 404.500 642.744 C 401.499 641.253, 395.234 639.610, 380.831 636.536 C 367.669 633.727, 367.920 630.327, 381.491 627.623 C 390.912 625.746, 394.500 623.491, 394.500 619.448 C 394.500 615.553, 390.399 613.336, 378.787 610.955 C 369.555 609.062, 348.374 607.803, 340.250 608.664 M 249.872 611.020 C 242.407 612.277, 236.464 616.354, 233.321 622.374 C 231.982 624.939, 231.985 625.414, 233.357 626.786 C 235.450 628.879, 258.052 629.719, 267.588 628.058 C 278.191 626.212, 279.216 624.459, 273.436 618.061 C 268.110 612.165, 259.086 609.469, 249.872 611.020 M 99.030 620.113 C 95.407 621.558, 89.880 625.997, 90.484 626.975 C 91.079 627.937, 103 621.150, 103 619.850 C 103 618.798, 102.189 618.852, 99.030 620.113 M 693.500 639.903 C 692.400 640.386, 690.375 641.993, 689 643.474 C 686.864 645.774, 686.503 647.106, 686.520 652.612 L 686.539 659.058 683.520 658.293 C 677.706 656.821, 672.871 657.441, 670.868 659.914 C 668.632 662.676, 668.441 667.756, 670.465 670.646 C 672.060 672.923, 671.592 674, 669.008 674 C 666.476 674, 662.786 678.469, 663.168 681.074 C 663.635 684.266, 666 684.793, 666 681.706 C 666 677.927, 668.313 676.640, 673.911 677.303 C 676.592 677.621, 679.051 677.615, 679.375 677.292 C 679.699 676.968, 678.409 674.981, 676.507 672.877 C 670.393 666.109, 670.894 661, 677.672 661 C 681.628 661, 686.358 663.161, 690.140 666.696 C 693.870 670.182, 694.688 668.028, 692.004 661.788 C 687.429 651.153, 690.068 643, 698.085 643 C 702.891 643, 706.594 647.113, 707.555 653.517 C 708.399 659.148, 709.488 659.890, 711.421 656.152 C 715.004 649.223, 723.614 645.542, 725.965 649.934 C 727.488 652.780, 727.201 655.960, 724.982 660.851 C 723.896 663.244, 723.235 665.571, 723.514 666.022 C 723.792 666.473, 726.577 665.302, 729.701 663.421 C 735.754 659.776, 739.482 659.169, 742.456 661.344 C 744.961 663.176, 744.004 666.467, 739.403 671.843 C 737.267 674.337, 736.103 676.503, 736.618 677.018 C 737.134 677.534, 740.224 677.458, 744.003 676.835 C 750.566 675.754, 752.971 676.187, 757.202 679.212 C 759.420 680.798, 760.448 679.705, 759.102 677.191 C 757.811 674.779, 753.035 673, 747.851 673 C 743.653 673, 743.312 672.494, 745.532 669.559 C 746.339 668.491, 747 665.973, 747 663.964 C 747 657.750, 742.597 655.580, 733.750 657.436 L 730 658.223 730 653.834 C 730 651.420, 729.324 648.481, 728.499 647.302 C 725.565 643.113, 718.281 643.528, 713.328 648.168 L 711.156 650.202 709.673 647.351 C 706.312 640.890, 698.961 637.504, 693.500 639.903 M 926 640.500 C 926 641.325, 926.450 642, 927 642 C 927.550 642, 928 641.325, 928 640.500 C 928 639.675, 927.550 639, 927 639 C 926.450 639, 926 639.675, 926 640.500 M 185.166 641.505 C 174.677 643.830, 166.733 649.606, 163.553 657.218 C 161.492 662.152, 161.594 664.214, 164.054 667.342 C 170.150 675.092, 202.254 677.339, 216.648 671.023 C 221.832 668.748, 222.903 665.236, 220.563 658.190 C 216.325 645.431, 200.693 638.062, 185.166 641.505 M 185.746 645.086 C 173.987 647.857, 164.841 656.537, 166.161 663.671 C 166.589 665.983, 172.048 668.682, 178.940 669.989 C 185.983 671.324, 201.565 671.277, 208.201 669.901 C 218.152 667.836, 219.997 664.834, 216.059 657.115 C 210.923 647.048, 198.440 642.094, 185.746 645.086 M 319 648 C 319 648.634, 326.500 649, 339.500 649 C 352.500 649, 360 648.634, 360 648 C 360 647.366, 352.500 647, 339.500 647 C 326.500 647, 319 647.366, 319 648 M 308 656 C 308 656.578, 311.167 657, 315.500 657 C 319.833 657, 323 656.578, 323 656 C 323 655.422, 319.833 655, 315.500 655 C 311.167 655, 308 655.422, 308 656 M 52 658.128 C 50.625 658.679, 44.484 659.469, 38.353 659.882 C 30.553 660.409, 26.425 661.147, 24.603 662.340 C 21.562 664.333, 21.175 667.943, 23.752 670.275 C 28.150 674.256, 35.504 675.396, 70.650 677.546 C 84.867 678.415, 98.075 679.530, 100 680.022 C 101.925 680.514, 105.961 681.611, 108.968 682.459 C 116.015 684.445, 130.955 684.446, 146.985 682.462 C 153.819 681.616, 159.618 680.716, 159.872 680.462 C 161.171 679.163, 158.044 679.193, 143.447 680.621 C 125.401 682.387, 114.116 681.933, 106 679.117 C 99.945 677.015, 94.918 676.453, 69 674.976 C 35.243 673.052, 25 671.215, 25 667.086 C 25 664.004, 28.187 662.919, 39.829 662.037 C 49.944 661.271, 56 659.699, 56 657.839 C 56 656.795, 55.180 656.854, 52 658.128 M 411 678 C 411 678.550, 412.125 679, 413.500 679 C 414.875 679, 416 678.550, 416 678 C 416 677.450, 414.875 677, 413.500 677 C 412.125 677, 411 677.450, 411 678 M 916 678.500 C 916 679.325, 916.450 680, 917 680 C 917.550 680, 918 679.325, 918 678.500 C 918 677.675, 917.550 677, 917 677 C 916.450 677, 916 677.675, 916 678.500 M 377.556 679.167 C 367.036 680.021, 365.086 680.419, 366.161 681.494 C 366.994 682.327, 409 679.712, 409 678.827 C 409 677.801, 392.159 677.983, 377.556 679.167 M 850.148 686.012 C 846.655 686.501, 843.280 687.113, 842.648 687.372 C 842.017 687.630, 852.525 687.839, 866 687.835 C 883.446 687.830, 889.636 687.545, 887.500 686.844 C 883.378 685.492, 857.921 684.925, 850.148 686.012 M 948.500 687 C 946.768 687.441, 952.687 687.771, 962.500 687.782 C 972.398 687.793, 978.456 687.466, 977 687 C 973.832 685.985, 952.487 685.985, 948.500 687" stroke="none" fill="black" fill-rule="evenodd"/>
</svg>