<svg xmlns="http://www.w3.org/2000/svg" width="2000" height="1342" viewBox="0 0 2000 1342" version="1.1">
	<path d="M 66.641 3.250 C 73.850 42.915, 84.937 74.148, 102.953 105.540 C 106.412 111.568, 115.417 125.950, 122.964 137.500 C 130.511 149.050, 139.534 163.225, 143.015 169 C 153.108 185.746, 168.234 217.100, 166.875 218.458 C 166.647 218.686, 163.995 215.892, 160.981 212.250 C 157.966 208.607, 148.525 198.579, 140 189.965 C 104.771 154.365, 62.186 124.153, 11.250 98.622 L 0 92.983 0 100.980 L 0 108.978 7.889 112.944 C 20.419 119.244, 41.297 131.490, 56.721 141.586 C 97.649 168.376, 130.790 197.960, 158.107 232.089 C 167.988 244.435, 170.460 247.873, 169.874 248.460 C 169.356 248.978, 141.139 241.847, 124.330 236.950 C 82.931 224.891, 40.541 205.487, 8.295 183.837 C 4.332 181.177, 0.845 179, 0.545 179 C 0.245 179, 0 182.953, 0 187.784 L 0 196.567 13.250 204.688 C 30.593 215.318, 41.275 220.991, 57.331 228.100 L 70.500 233.931 76.146 252.216 C 87.140 287.815, 98.635 327.032, 98.203 327.464 C 97.962 327.705, 93.777 325.899, 88.902 323.451 C 84.028 321.003, 78.984 319, 77.694 319 C 74.542 319, 71 322.964, 71 326.491 C 71 331.780, 94.548 373.887, 113.076 401.728 C 117.918 409.004, 121.496 415.193, 121.028 415.482 C 120.560 415.772, 116.425 416.720, 111.839 417.590 C 107.252 418.460, 96.566 421.180, 88.092 423.634 C 77.584 426.677, 71.256 428.002, 68.195 427.798 L 63.707 427.500 58.781 411.500 C 50.110 383.332, 29.344 342.917, 5.600 308 L 0.500 300.500 0.221 313.176 L -0.059 325.852 6.551 336.545 C 14.443 349.313, 28.196 375.580, 34.310 389.563 C 39.322 401.026, 46.342 421.474, 45.811 423.066 C 45.616 423.651, 43.442 422.595, 40.978 420.720 C 35.731 416.725, 1.008 393, 0.409 393 C 0.184 393, 0 396.755, 0 401.344 L 0 409.689 12.860 418.255 C 27.844 428.237, 41.388 439.343, 49.885 448.616 C 55.420 454.656, 56.038 455.802, 57.553 462.843 C 62.491 485.786, 73.010 526.679, 83.641 564.255 C 83.952 565.354, 83.458 566.253, 82.319 566.660 C 65.886 572.533, 35.087 588.275, 12.869 602.157 L 0 610.198 0 623.054 L -0 635.909 3.250 636.447 C 11.692 637.842, 36.439 639.116, 66.260 639.689 C 87.998 640.107, 99.310 640.686, 99.883 641.410 C 101.135 642.990, 102.891 656.396, 103.956 672.500 C 104.465 680.200, 105.308 687.894, 105.828 689.598 C 106.348 691.301, 110.835 699.851, 115.799 708.598 C 120.763 717.344, 126.708 728.775, 129.010 734 C 137.320 752.863, 153 793.347, 153 795.938 C 153 796.366, 148.162 796.967, 142.250 797.274 C 130.943 797.859, 123.587 799.824, 115.243 804.488 C 112.788 805.860, 110.414 806.756, 109.967 806.480 C 109.520 806.203, 108.844 804.520, 108.465 802.739 C 106.464 793.332, 100.532 779.652, 94.702 771 C 83.832 754.869, 72.653 744.866, 56.723 737.013 C 43.098 730.296, 33.458 727.890, 19.213 727.649 L 7.927 727.458 4.213 722.126 L 0.500 716.795 0.223 731.455 C -0.023 744.476, 0.157 746.416, 1.832 748.808 C 5.299 753.757, 20.162 781.049, 25.159 791.642 C 49.140 842.483, 61.630 892.739, 65.035 952.095 C 66.325 974.586, 64.965 1007.879, 62.610 1011.472 C 61.878 1012.587, 57.385 1018, 52.625 1023.500 C 37.174 1041.351, 16.015 1071.825, 5.017 1092.067 L 0 1101.300 -0 1120.817 C -0 1131.551, 0.286 1140.047, 0.636 1139.697 C 0.986 1139.347, 3.156 1134.628, 5.459 1129.209 C 14.643 1107.596, 31.839 1078.198, 47.899 1056.653 C 61.326 1038.641, 73.883 1024.378, 91.379 1007.267 C 139.735 959.973, 196.470 923.147, 273.705 888.919 C 295.388 879.310, 350.668 859.279, 360.692 857.398 L 364.308 856.720 363.608 873.110 C 358.803 985.724, 325.954 1102.652, 275.003 1188.500 C 238.993 1249.173, 195.646 1298.137, 146.182 1334.016 L 135.863 1341.500 155.998 1341.771 C 174.279 1342.017, 176.380 1341.870, 178.816 1340.178 C 186.641 1334.744, 267.874 1293.727, 298 1279.999 C 303.775 1277.368, 317.050 1271.292, 327.500 1266.498 C 351.695 1255.397, 385.696 1240.747, 407.500 1232.027 C 424.918 1225.061, 469.577 1208.182, 476.188 1206.066 C 484.462 1203.418, 487.531 1197.531, 483 1193 C 480.318 1190.318, 478.142 1190.468, 468.600 1193.990 C 464.145 1195.635, 453.075 1199.651, 444 1202.915 C 393.587 1221.044, 304.304 1260.429, 232.677 1296.134 C 216.274 1304.310, 202.369 1311, 201.776 1311 C 201.184 1311, 206.736 1304.813, 214.114 1297.250 C 240.733 1269.967, 262.010 1241.957, 288.500 1199.328 C 291.337 1194.763, 292.126 1194.243, 303 1189.776 C 372.645 1161.164, 456.676 1153.056, 535.534 1167.337 C 544.168 1168.901, 547.557 1169.917, 547.765 1171.006 C 548.060 1172.549, 530.156 1197.054, 519.617 1209.534 C 474.906 1262.473, 426.375 1301.238, 367.259 1331.231 L 347.019 1341.500 365.339 1341.771 L 383.658 1342.043 396.079 1334.880 C 411.297 1326.104, 433.089 1311.815, 446.595 1301.758 C 489.171 1270.052, 536.186 1220.152, 564.561 1176.551 C 573.681 1162.538, 572.229 1157.806, 557.801 1154.521 C 545.630 1151.750, 523.409 1148.212, 506.500 1146.353 C 489.215 1144.452, 441.953 1143.832, 423.794 1145.267 C 414.944 1145.967, 414.002 1145.872, 413.104 1144.195 C 411.107 1140.463, 409.759 1100.412, 410.298 1060.793 C 410.830 1021.644, 411.461 1013.105, 415.460 991 C 417.458 979.955, 417.389 974.847, 415.061 961.500 C 410.936 937.849, 409.049 905.305, 409.032 857.500 C 409.022 831.161, 409.490 823, 411.008 823 C 413.204 823, 426.967 864.677, 430.986 883.500 C 433.896 897.127, 434.135 897.726, 439.953 906 C 455.852 928.609, 459.989 935.711, 477.243 970.012 C 487.337 990.080, 496.847 1009.461, 498.376 1013.080 L 501.155 1019.659 494.763 1026.080 C 483.312 1037.581, 478.185 1052.164, 479.345 1069.929 C 480.664 1090.131, 488.252 1107.809, 501.741 1122.108 C 513.218 1134.274, 526.397 1141.712, 540.835 1144.171 C 546.337 1145.108, 548.878 1145.023, 555.400 1143.687 C 559.745 1142.796, 563.650 1142.284, 564.077 1142.547 C 565.157 1143.215, 572.658 1157.111, 580.841 1173.606 C 586.943 1185.906, 594.138 1202.805, 599.456 1217.325 C 600.899 1221.265, 604.389 1225.301, 618.481 1239.325 C 635.429 1256.192, 649.308 1272.833, 691.398 1326.757 L 703.296 1342 713.148 1342 C 718.567 1342, 723 1341.738, 723 1341.417 C 723 1341.097, 719.078 1335.809, 714.284 1329.667 C 659.958 1260.060, 646.498 1243.386, 636.299 1233.063 C 630.085 1226.773, 625 1221.368, 625 1221.053 C 625 1220.739, 625.788 1219.984, 626.750 1219.375 C 627.712 1218.767, 639.484 1209.870, 652.909 1199.605 C 666.334 1189.339, 677.799 1181.100, 678.388 1181.296 C 678.976 1181.492, 682.027 1185.910, 685.168 1191.114 C 691.193 1201.097, 706.593 1218.950, 748.453 1264.481 C 769.543 1287.420, 808.872 1328.745, 818.218 1337.786 L 822.648 1342.071 833.574 1341.786 L 844.500 1341.500 829.500 1325.986 C 785.989 1280.982, 733.118 1223.984, 708.926 1196 C 702.464 1188.525, 696.702 1179.786, 689.476 1166.500 C 686.862 1161.695, 682.797 1156.678, 676.509 1150.500 C 666.404 1140.571, 659.278 1130.980, 647.093 1110.906 C 640.712 1100.396, 639.263 1097.326, 640.249 1096.408 C 640.937 1095.768, 646.450 1093.809, 652.500 1092.057 C 725.600 1070.878, 786.176 1035.014, 839.220 981.509 C 846.585 974.079, 852.995 968, 853.462 968 C 854.617 968, 853.414 997.187, 851.531 1014.854 C 846.706 1060.110, 837.048 1105.076, 825.723 1135 L 821.371 1146.500 807.764 1153.609 C 800.280 1157.519, 791.308 1162.633, 787.828 1164.973 C 774.701 1173.800, 763.709 1186.702, 757.988 1200 C 754.437 1208.256, 753.942 1223.671, 757.001 1230.781 C 763.058 1244.861, 785.809 1255.899, 815.500 1259.161 C 848.714 1262.811, 901.765 1253.336, 925.671 1239.485 C 949.195 1225.854, 1000.208 1149.537, 1028.265 1086 C 1035.156 1070.393, 1040.502 1056.755, 1047.276 1037.500 C 1052.195 1023.514, 1052.720 1022.507, 1055.026 1022.604 C 1058.305 1022.741, 1096.829 1028.929, 1099.896 1029.811 C 1101.214 1030.190, 1102.629 1031.175, 1103.041 1032 C 1103.452 1032.825, 1104.741 1040.025, 1105.905 1048 C 1107.070 1055.975, 1110.040 1071.050, 1112.507 1081.500 C 1118.278 1105.947, 1119.889 1120.664, 1117.925 1131 L 1116.500 1138.500 1105.197 1144.500 C 1086.237 1154.565, 1077.667 1162.021, 1069.501 1175.558 C 1058.966 1193.020, 1059.894 1211.597, 1071.753 1220.642 C 1086.594 1231.962, 1133.570 1235.440, 1169 1227.843 C 1192.066 1222.898, 1207.392 1213.468, 1217.504 1198 C 1227.155 1183.236, 1256.270 1119.837, 1272.037 1079.250 C 1273.373 1075.813, 1274.783 1073, 1275.171 1073 C 1276.044 1073, 1288.137 1109.579, 1290.874 1120.500 C 1294.011 1133.016, 1295.993 1145.846, 1295.997 1153.661 L 1296 1160.822 1286.333 1165.987 C 1268.022 1175.771, 1258.395 1183.170, 1250.534 1193.500 C 1241.063 1205.945, 1236.803 1217.070, 1236.722 1229.561 C 1236.621 1245.302, 1246.164 1255.351, 1267.442 1261.913 C 1284.059 1267.037, 1312.839 1268.595, 1333.458 1265.487 C 1355.598 1262.150, 1380.485 1254.732, 1398 1246.248 C 1405.853 1242.444, 1408.892 1240.246, 1415.531 1233.573 C 1425.309 1223.744, 1429.078 1216.498, 1440.801 1185 C 1448.030 1165.578, 1468.589 1103.750, 1478.875 1070.500 C 1487.005 1044.223, 1503.168 985.805, 1510.279 957 C 1511.569 951.775, 1513.046 947.500, 1513.562 947.500 C 1514.078 947.500, 1520.155 964.375, 1527.066 985 C 1540.991 1026.555, 1548.163 1045.682, 1557.568 1066.348 C 1582.632 1121.422, 1619.587 1165.541, 1661.583 1190.528 C 1667.588 1194.100, 1674.412 1197.754, 1676.750 1198.648 C 1679.088 1199.541, 1681 1200.548, 1680.999 1200.886 C 1680.999 1201.224, 1666.036 1201.514, 1647.749 1201.531 C 1603.174 1201.572, 1571.589 1204.557, 1530.500 1212.612 C 1505.040 1217.603, 1458.542 1229.421, 1446.799 1233.886 C 1443.544 1235.124, 1440 1239.626, 1440 1242.523 C 1440 1250.207, 1486.708 1305.111, 1516.785 1332.780 L 1526.873 1342.061 1539.625 1341.780 L 1552.377 1341.500 1540.938 1331.583 C 1526.512 1319.075, 1500.628 1293.141, 1486.961 1277.500 C 1475.042 1263.861, 1463 1248.669, 1463 1247.273 C 1463 1245.344, 1505.428 1234.419, 1533.500 1229.120 C 1578.607 1220.605, 1601.075 1218.501, 1646.500 1218.535 C 1679.298 1218.560, 1685.363 1218.820, 1699.904 1220.821 C 1758.679 1228.911, 1803.945 1243.685, 1851.500 1270.302 C 1880.739 1286.668, 1913.314 1311.906, 1934.500 1334.609 L 1941.500 1342.110 1952.730 1341.805 L 1963.959 1341.500 1953.230 1329.714 C 1918.184 1291.219, 1870.022 1257.300, 1820.345 1236.126 C 1800.544 1227.687, 1771.391 1217.981, 1752.500 1213.539 C 1743.700 1211.470, 1734.838 1209.367, 1732.808 1208.866 C 1729.538 1208.058, 1728.156 1206.554, 1720.744 1195.727 C 1686.323 1145.451, 1661.724 1094.437, 1642.493 1033.448 C 1628.455 988.930, 1620.138 948.013, 1614.553 896 C 1612.373 875.695, 1610.926 852.663, 1611.781 851.877 C 1612.575 851.146, 1630.377 856.099, 1653.500 863.483 C 1738.589 890.655, 1809.254 928.066, 1868.046 977.064 C 1883.202 989.696, 1912.603 1018.872, 1923.908 1032.500 C 1942.061 1054.382, 1957.718 1076.685, 1969.542 1097.500 C 1978.178 1112.703, 1991.767 1140.791, 1996.140 1152.479 L 1999.500 1161.459 2000.136 1148.479 C 2000.486 1141.341, 2000.736 1127.175, 2000.692 1117 C 2000.630 1102.495, 2000.493 1100.659, 2000.056 1108.500 L 1999.500 1118.500 1995.289 1109.736 C 1982.320 1082.742, 1956.603 1044.146, 1934.852 1019.032 L 1927.518 1010.564 1926.830 1003.032 C 1925.781 991.547, 1925.893 952.930, 1927.013 940 C 1931.503 888.138, 1942.845 841.915, 1962.226 796.500 C 1969.548 779.343, 1984.770 749.141, 1993.223 735 L 1999.500 724.500 2000.052 735.500 L 2000.605 746.500 2000.799 737 C 2001.092 722.724, 1999.790 692.806, 1998.916 693.709 C 1998.494 694.144, 1993.237 702.600, 1987.233 712.500 C 1944.116 783.597, 1921.480 846.201, 1912.566 919 C 1910.540 935.547, 1908.849 963.707, 1909.023 978 C 1909.100 984.325, 1909.126 989.882, 1909.081 990.348 C 1909.037 990.814, 1904.613 987.043, 1899.250 981.968 C 1888.983 972.252, 1871.429 957.318, 1861.750 950.067 C 1858.448 947.593, 1856 944.988, 1856 943.946 C 1856 942.949, 1857.159 935.916, 1858.576 928.317 C 1873.389 848.850, 1890.682 727.440, 1896.401 662.750 C 1897.216 653.538, 1898.143 645.578, 1898.462 645.061 C 1898.800 644.514, 1901.433 644.948, 1904.771 646.100 C 1919.741 651.269, 1945.688 656.445, 1962 657.516 C 1971.532 658.142, 1984.931 657.054, 1994.743 654.858 L 2000 653.682 2000 645.734 C 2000 638.571, 1999.827 637.853, 1998.250 638.468 C 1990.243 641.588, 1983.681 642.474, 1969 642.414 C 1949.047 642.332, 1928.238 638.646, 1908.882 631.765 C 1903.036 629.687, 1902.474 629.233, 1902.195 626.362 C 1902.027 624.638, 1903.519 616.314, 1905.509 607.864 C 1910.051 588.584, 1911.355 582.292, 1920.509 535.500 C 1940.414 433.755, 1952.868 363.523, 1955.620 337.500 C 1956.551 328.700, 1957.620 321.145, 1957.995 320.712 C 1958.370 320.278, 1962.912 320.867, 1968.088 322.021 C 1986.180 326.054, 1999.397 327.972, 2000.216 326.685 C 2000.630 326.033, 2000.890 319.650, 2000.792 312.500 C 2000.694 305.350, 2000.455 302.313, 2000.260 305.750 C 1999.924 311.651, 1999.765 312, 1997.410 312 C 1991.269 312, 1965.580 305.671, 1963.294 303.595 C 1962.364 302.750, 1962.997 299.534, 1966.068 289.500 C 1974.317 262.554, 1990.670 195.044, 1997.316 160.500 C 1999.538 148.951, 1999.851 144.430, 2000.118 120 C 2000.448 89.839, 2000.227 68.435, 1999.593 69.083 C 1999.369 69.312, 1997.034 81.200, 1994.404 95.500 C 1991.774 109.800, 1989.482 121.688, 1989.311 121.917 C 1988.521 122.975, 1987.871 120.486, 1985.916 108.925 C 1981.519 82.915, 1964.849 24.806, 1960.363 19.848 C 1958.014 17.253, 1952.855 17.458, 1950.248 20.250 C 1949.092 21.488, 1946.087 28.522, 1943.570 35.883 C 1932.489 68.285, 1923.926 109.582, 1922.342 138.250 C 1921.985 144.713, 1921.423 150, 1921.093 150 C 1920.764 150, 1918.745 147.188, 1916.607 143.750 C 1910.045 133.202, 1897.527 116.054, 1887.952 104.500 C 1868.006 80.429, 1825.159 36.852, 1818.416 33.780 C 1815.297 32.359, 1811.343 33.546, 1809.419 36.483 C 1807.946 38.732, 1807.944 40.197, 1809.405 54.217 C 1813.336 91.966, 1823.549 136.107, 1835.964 169.004 C 1841.297 183.133, 1853.945 208.424, 1861.610 220.282 C 1874.848 240.763, 1896.796 265.003, 1913.675 277.785 C 1920.398 282.876, 1936.885 293.962, 1944.561 298.553 C 1946.232 299.552, 1946.213 300.060, 1944.199 308.553 C 1943.032 313.474, 1941.575 323.099, 1940.962 329.943 C 1939.639 344.691, 1932.426 391.005, 1931.291 392.036 C 1930.856 392.431, 1928.025 393.557, 1925 394.537 C 1909.340 399.614, 1876.024 415.108, 1858.537 425.447 C 1854.301 427.951, 1850.647 430, 1850.417 430 C 1849.336 430, 1850.325 426.758, 1854.012 418.212 C 1865.493 391.600, 1874.245 358.797, 1878.476 326.522 C 1879.839 316.128, 1879.839 314.590, 1878.482 311.965 C 1876.723 308.563, 1872.916 307.262, 1869.403 308.862 C 1866.796 310.050, 1856.635 320.447, 1842.882 336 C 1807.234 376.311, 1781.409 423.090, 1772.355 463.750 C 1771.345 468.287, 1770.231 472, 1769.880 472 C 1769.529 472, 1768.739 468.738, 1768.124 464.750 C 1757.281 394.388, 1752.768 341.839, 1752.558 283.500 L 1752.428 247.500 1748.771 236.350 C 1737.431 201.774, 1726.742 146.389, 1718.443 79.200 C 1714.984 51.202, 1710 5.564, 1710 1.897 C 1710 0.174, 1709.170 -0, 1700.955 -0 L 1691.909 -0 1692.439 3.250 C 1692.730 5.037, 1693.673 14.150, 1694.536 23.500 C 1700.235 85.274, 1708.568 143.809, 1718.096 189 C 1721.624 205.737, 1728.007 231.638, 1730.864 240.814 C 1732.270 245.328, 1732.498 247.229, 1731.665 247.482 C 1731.024 247.676, 1723.300 248.086, 1714.500 248.391 C 1696.105 249.030, 1683.800 250.702, 1662.095 255.512 C 1653.623 257.390, 1646.362 258.724, 1645.960 258.475 C 1645.559 258.227, 1644.928 250.256, 1644.560 240.762 C 1643.397 210.805, 1641.070 180.532, 1637.432 148 C 1632.838 106.926, 1631.528 98.003, 1622.275 44.751 L 1614.500 0.002 1605.750 0.001 C 1600.640 0, 1597 0.412, 1597 0.990 C 1597 1.535, 1599.061 14.022, 1601.579 28.740 C 1612.366 91.772, 1621.764 156.860, 1620.792 161.805 C 1620.580 162.887, 1617.868 159.704, 1613.293 153 C 1601.965 136.403, 1589.666 121.628, 1574.522 106.422 C 1546.497 78.285, 1518.186 57.557, 1486.263 41.803 L 1467.941 32.761 1442.720 33.288 C 1410.475 33.961, 1392.624 36.726, 1366.399 45.110 C 1306.122 64.380, 1245.229 104.034, 1186.246 162.428 C 1169.024 179.479, 1167.992 180.712, 1167.996 184.250 C 1168.001 188.507, 1170.761 192, 1174.120 192 C 1175.286 192, 1182.599 191.075, 1190.370 189.944 C 1238.939 182.879, 1297.844 166.576, 1337.922 149.107 C 1343.105 146.848, 1347.492 145, 1347.672 145 C 1348.668 145, 1347.358 147.807, 1341.337 158.579 C 1314.699 206.234, 1290.479 276.835, 1279.099 340 C 1273.661 370.181, 1273.510 371.603, 1275.419 374.517 C 1277.855 378.235, 1281.436 379.343, 1285.021 377.489 C 1291.549 374.113, 1329.939 336.273, 1353.996 309.500 C 1390.679 268.676, 1423.391 222.106, 1443.381 182.250 C 1445.932 177.162, 1448.466 173, 1449.010 173 C 1449.555 173, 1450 174.764, 1450 176.921 C 1450 183.076, 1454.676 209.155, 1458.442 224 C 1467.128 258.241, 1479.549 291.120, 1497.921 328.500 C 1511.484 356.095, 1514.613 361, 1518.655 361 C 1524.840 361, 1525.924 359.129, 1529.605 342.109 C 1541.469 287.249, 1545.567 226.842, 1540.434 182.500 C 1535.866 143.037, 1523.068 104.892, 1504.572 75.606 C 1501.482 70.714, 1499.148 66.519, 1499.384 66.282 C 1501.621 64.046, 1537.600 91.291, 1557.871 110.570 C 1581.681 133.215, 1608.858 169.760, 1621.490 196.118 C 1625.321 204.113, 1625.683 207.746, 1626.963 251 C 1627.733 277.036, 1627.916 278.898, 1630.407 285.980 C 1648.835 338.379, 1667.664 484.546, 1668.474 581.500 L 1668.733 612.500 1672.890 626.972 C 1679.289 649.247, 1679.293 648.113, 1672.793 654.829 C 1666.364 661.472, 1663.803 664.986, 1658.878 673.926 C 1656.837 677.631, 1654.655 680.406, 1653.878 680.285 C 1653.120 680.167, 1649.125 678.873, 1645 677.410 C 1635.865 674.171, 1622.821 673.132, 1614.881 675.011 C 1610.624 676.019, 1601.857 679.490, 1597.931 681.722 C 1597.618 681.900, 1592.218 677.468, 1585.931 671.872 C 1550.491 640.331, 1515.437 614.501, 1483.829 596.636 C 1471.226 589.513, 1440.726 574.291, 1429.673 569.607 C 1425.919 568.017, 1419.394 563.930, 1415.173 560.527 C 1373.853 527.204, 1323.637 505.349, 1269.188 496.991 C 1231.372 491.186, 1195.053 492.213, 1138.621 500.684 C 1122.166 503.154, 1120.653 503.237, 1119.621 501.727 C 1119.005 500.824, 1116.286 496.237, 1113.581 491.535 C 1110.875 486.832, 1105.588 478.936, 1101.831 473.988 C 1098.074 469.039, 1095 464.196, 1095 463.225 C 1095 462.254, 1096.582 456.518, 1098.516 450.479 C 1112.130 407.964, 1117.873 376.128, 1118.731 338.410 C 1119.443 307.101, 1116.004 282.728, 1108.912 268.828 C 1105.749 262.628, 1099.361 256.324, 1093.175 253.297 C 1076.755 245.264, 1043.942 251.868, 1005.500 270.943 C 974.262 286.443, 950.801 303.398, 923.373 330.296 L 906.245 347.092 897.873 343.645 C 877.475 335.247, 852.072 328.656, 829.500 325.904 C 812.856 323.875, 783.956 324.362, 766 326.975 C 729.262 332.320, 696.906 343.476, 669.215 360.344 C 664.108 363.455, 659.705 366, 659.430 366 C 659.155 366, 655.458 363.137, 651.215 359.637 C 615.634 330.291, 562.837 305.423, 518.149 296.962 C 509.097 295.248, 504.035 294.884, 493.149 295.166 C 480.911 295.482, 478.916 295.791, 473.852 298.157 C 462.998 303.228, 456.691 312.071, 453.397 326.835 C 451.039 337.407, 451.890 372.721, 454.901 389.261 C 461.518 425.602, 469.741 450.930, 487.003 488.130 C 491.401 497.609, 495 505.950, 495 506.667 C 495 507.384, 493.643 510.176, 491.984 512.872 C 482.254 528.685, 472.266 555.462, 468.970 574.569 C 466.377 589.602, 465.888 612.055, 468.056 616.491 C 471.424 623.381, 479.503 623.497, 486.248 616.752 C 499.203 603.797, 509.796 595.747, 522.500 589.206 C 530.812 584.925, 531.542 584.866, 531.174 588.500 C 530.551 594.643, 524.705 616.817, 521.287 626 C 514.377 644.563, 506.548 657.927, 495.626 669.803 C 485.914 680.364, 484.890 684.102, 490.250 689.432 C 492.680 691.850, 495.535 693.211, 501.568 694.832 C 506.006 696.025, 511.041 697, 512.759 697 C 517.472 697, 517.387 698.342, 512.454 701.819 C 503.219 708.329, 502.074 714.388, 508.771 721.317 C 520.037 732.973, 558.977 761.020, 588.500 778.742 C 613.836 793.951, 643.953 808.098, 670 817.026 C 676.875 819.382, 683.075 821.831, 683.778 822.468 C 685.107 823.674, 682.352 834.503, 674.608 858.500 L 671.381 868.500 667.441 868.242 C 651.418 867.194, 637.147 867.798, 629.622 869.843 C 618.639 872.827, 608.334 878.025, 598.452 885.565 C 593.813 889.104, 589.677 891.997, 589.259 891.994 C 588.842 891.991, 587.683 888.581, 586.684 884.417 C 579.789 855.669, 560.368 832.372, 535.580 823.112 C 527.658 820.153, 517.078 818, 510.458 818 C 505.947 818, 504.802 817.625, 503.579 815.750 C 493.983 801.030, 430.483 616.453, 426.087 590.500 C 425.528 587.200, 424.572 578.650, 423.964 571.500 C 422.958 559.673, 422.450 557.508, 418.334 547.500 C 408.055 522.503, 407.721 520.996, 407.225 497.364 C 406.705 472.651, 407.762 458.064, 412.104 429.976 L 415.269 409.500 413.119 396.500 C 409.066 371.987, 405.999 329.722, 406.007 298.500 L 406.010 288.500 410.950 280.955 C 413.666 276.805, 418.706 270.336, 422.148 266.579 L 428.407 259.749 434.454 260.379 C 437.779 260.726, 444.550 261.687, 449.500 262.514 C 462.400 264.669, 496.661 265.528, 512.768 264.099 C 563.775 259.575, 622.181 238.883, 680.812 204.564 C 701.066 192.709, 711.128 186.300, 712.750 184.220 C 714.617 181.827, 714.278 176.278, 712.134 174.134 C 708.836 170.836, 690.821 169.498, 650 169.519 C 611.094 169.540, 600.484 170.339, 570.339 175.520 C 556.859 177.837, 537.505 182.076, 533.750 183.534 C 532.788 183.908, 532.004 183.828, 532.008 183.357 C 532.013 182.886, 535.025 180.925, 538.701 179 C 558.741 168.507, 580.496 151.671, 602.561 129.580 C 634.212 97.892, 655.648 66.880, 678.572 19.612 C 683.207 10.054, 687 1.731, 687 1.117 C 687 0.387, 684.313 0.014, 679.250 0.039 L 671.500 0.079 661.820 19.789 C 628.395 87.854, 585.476 135.925, 531.500 165.752 C 516.687 173.938, 505.190 179.523, 504.523 178.856 C 503.651 177.984, 508.698 161.532, 513.682 149 C 524.559 121.651, 539.198 97.302, 558.772 74 C 575.066 54.604, 603.896 28.294, 630 9 L 641.500 0.500 629.734 0.218 L 617.969 -0.064 608.234 7.639 C 558.885 46.686, 528.931 81.878, 507.915 125.500 C 499.812 142.320, 493.232 160.237, 488.994 177.023 C 487.273 183.841, 485.557 189.940, 485.182 190.576 C 483.840 192.852, 450.190 221.180, 439.716 228.852 C 436.083 231.513, 437.001 229.089, 443.308 219.369 C 472.034 175.093, 488.055 127.671, 496.092 63.125 C 497.968 48.055, 500.155 4.296, 499.185 1.250 C 498.892 0.333, 495.251 0, 485.507 0 L 472.227 0 464.214 12.250 C 441.091 47.602, 419.022 92.069, 411.787 117.891 C 410.537 122.351, 409.174 126, 408.757 126 C 407.686 126, 407.838 112.891, 409.503 61.500 C 410.305 36.750, 410.970 12.787, 410.980 8.250 L 411 0 403.601 -0 L 396.201 -0 395.589 12.250 C 393.572 52.565, 391.026 176.091, 391.012 234.306 L 391 284.111 385.385 293.652 C 379.343 303.918, 370.556 321.937, 369.458 326.312 C 368.636 329.586, 367.214 329.800, 366.543 326.750 C 364.805 318.863, 356.877 271.777, 353.956 252 C 353.347 247.875, 352.487 235.500, 352.046 224.500 L 351.244 204.500 346.734 192 C 341.614 177.810, 338.742 166.662, 332.307 136 L 327.795 114.500 328.417 68 C 328.759 42.425, 329.322 16.663, 329.670 10.750 L 330.301 -0 322.781 -0 L 315.262 0 314.642 3.750 C 314.301 5.813, 314.017 12.112, 314.011 17.750 C 314.005 23.388, 313.628 28, 313.174 28 C 312.719 28, 311.572 22.937, 310.623 16.750 C 307.731 -2.113, 309.093 -0, 299.827 0 L 291.812 0 292.489 5.250 C 294.850 23.556, 310.061 107.931, 317.502 144 C 322.388 167.679, 325.324 179.011, 330.562 194.401 C 332.997 201.556, 334.655 207.709, 334.245 208.075 C 333.690 208.571, 271.533 220.592, 265.500 221.371 C 264.893 221.449, 264.236 215.122, 263.827 205.263 C 263.058 186.677, 261.501 172.715, 255.884 134 C 252.667 111.822, 236.613 13.775, 234.395 2.750 C 233.846 0.025, 233.768 0, 225.841 0 L 217.841 0 218.419 2.750 C 218.736 4.263, 222.118 23.950, 225.934 46.500 C 242.041 141.694, 247.976 186.804, 247.991 214.150 C 248 229.610, 248.042 229.908, 251.474 238.794 C 256.282 251.243, 259.250 261.895, 262.956 280 C 268.250 305.864, 287.426 395.932, 297.069 440.232 C 302.066 463.184, 305.998 482.759, 305.808 483.732 C 305.224 486.719, 272.463 438.181, 257.054 411.500 C 235.164 373.596, 209.236 310.818, 198.406 269.500 L 194.736 255.500 196.011 238.500 C 197.573 217.671, 196.788 170.895, 194.586 153.500 C 190.040 117.602, 182.853 89.058, 170.287 57 C 165.388 44.502, 151.390 15.696, 145.519 6.032 L 141.855 0 132.880 0 L 123.904 0 126.793 4.250 C 131.491 11.160, 137.402 21.704, 144.327 35.527 C 168.455 83.692, 181.956 140.411, 181.989 193.750 C 181.999 209.815, 181.155 214.815, 179.541 208.250 C 178.304 203.219, 165.469 177.675, 157.734 164.847 C 153.537 157.887, 142.631 140.677, 133.498 126.602 C 124.366 112.527, 114.035 95.496, 110.540 88.755 C 98.716 65.947, 88.307 36.643, 83.967 13.951 C 82.763 7.653, 81.617 1.938, 81.420 1.250 C 81.175 0.393, 78.704 -0, 73.556 -0 L 66.050 -0 66.641 3.250 M 1160.867 10.299 C 1130.734 34.631, 1084.805 80.275, 1067.198 103.385 C 1064.618 106.771, 1064.378 110.667, 1066.557 113.777 C 1068.702 116.841, 1072.092 116.674, 1092.846 112.481 C 1154.833 99.959, 1214.425 78.441, 1262.500 51.221 C 1282.508 39.892, 1311.042 19.419, 1327.500 4.584 L 1332.500 0.077 1321.653 0.038 L 1310.805 0 1301.815 7.091 C 1272.131 30.507, 1237.463 49.834, 1194.400 66.975 C 1166.890 77.924, 1145.574 84.832, 1118.653 91.519 C 1096.619 96.993, 1092.992 97.662, 1093.009 96.250 C 1093.026 94.877, 1121.307 65.317, 1135.041 52.317 C 1158.564 30.051, 1172.595 18.313, 1190.387 6.013 C 1194.574 3.118, 1198 0.581, 1198 0.375 C 1198 0.169, 1192.487 0.022, 1185.750 0.049 L 1173.500 0.098 1160.867 10.299 M 476.093 21.252 C 445.567 67.604, 424.521 116.849, 416.366 161 C 413.553 176.227, 413.903 231.182, 416.811 230.943 C 419.258 230.742, 438.406 199.778, 448.931 179 C 463.687 149.871, 474.193 113.504, 480.420 70 C 483.861 45.959, 486.157 9.997, 484.250 10.002 C 483.837 10.003, 480.167 15.066, 476.093 21.252 M 1415.507 49.149 C 1361.359 56.084, 1301.365 84.495, 1243.649 130.536 C 1222.357 147.520, 1195.789 172.122, 1197.206 173.540 C 1197.993 174.326, 1229.349 167.849, 1251.500 162.324 C 1288.915 152.991, 1333.407 136.468, 1358.108 122.731 C 1365.169 118.804, 1366.391 117.601, 1375.088 106 C 1386.537 90.728, 1408.683 68.233, 1423.250 57.079 C 1429.162 52.552, 1434 48.657, 1434 48.424 C 1434 47.747, 1423.127 48.173, 1415.507 49.149 M 1951.119 61.250 C 1946.619 77.535, 1942.298 96.911, 1939.880 111.646 C 1937.410 126.702, 1936.072 170.941, 1937.828 179.500 C 1938.393 182.250, 1941.796 193.050, 1945.392 203.500 C 1949.684 215.973, 1952.834 227.309, 1954.562 236.500 C 1956.009 244.200, 1957.383 251.512, 1957.616 252.750 C 1957.848 253.988, 1958.421 255, 1958.890 255 C 1959.736 255, 1966.615 228.077, 1973.581 197.500 C 1977.197 181.624, 1977.221 181.372, 1976.641 165 C 1976.007 147.141, 1974.189 129.683, 1970.912 110 C 1967.670 90.528, 1956.958 50, 1955.053 50 C 1954.599 50, 1952.829 55.063, 1951.119 61.250 M 1451.257 55.845 C 1426.984 70.434, 1406.815 88.574, 1389.377 111.500 C 1381.164 122.297, 1363.634 149.012, 1355.935 162.462 C 1331.769 204.683, 1306.360 276.983, 1295.385 334.755 C 1293.895 342.595, 1293.027 349.345, 1293.454 349.755 C 1294.335 350.599, 1322.366 322.087, 1339.912 302.500 C 1407.696 226.830, 1446.411 158.870, 1456.894 97.151 C 1459.490 81.864, 1461.667 53.267, 1460.335 51.935 C 1459.714 51.314, 1456.473 52.711, 1451.257 55.845 M 1825.011 60.750 C 1825.131 69.273, 1835.898 120.925, 1841.029 137.594 C 1860.607 201.198, 1889.791 243.716, 1934.995 274.497 C 1939.546 277.595, 1943.593 279.764, 1943.988 279.315 C 1945.726 277.343, 1941.605 245.316, 1937.415 228.233 C 1924.849 176.993, 1895.756 130.892, 1839.611 73.250 C 1827.743 61.066, 1824.982 58.702, 1825.011 60.750 M 1474.632 74.007 C 1473.837 87.107, 1471.085 104.026, 1467.071 120.500 C 1463.162 136.544, 1462.643 143.561, 1463.967 162.500 C 1466.187 194.262, 1471.883 221.274, 1483.684 256 C 1493.107 283.732, 1513.240 330, 1515.884 330 C 1517.522 330, 1523.626 290.723, 1526.141 264 C 1528.084 243.363, 1527.808 199.547, 1525.628 182.500 C 1521.606 151.047, 1514.199 125.718, 1501.916 101.417 C 1493.928 85.612, 1478.748 63, 1476.127 63 C 1475.673 63, 1475 67.953, 1474.632 74.007 M 0.349 101 C 0.349 105.675, 0.522 107.587, 0.732 105.250 C 0.943 102.912, 0.943 99.087, 0.732 96.750 C 0.522 94.412, 0.349 96.325, 0.349 101 M 618 184.650 C 587.994 187.482, 572.512 189.720, 553.181 194.019 C 530.402 199.086, 498.929 210.512, 481 220.223 C 466.324 228.172, 443.575 244.848, 445.171 246.486 C 447.031 248.396, 467.824 250.328, 487 250.374 C 510.126 250.430, 521.772 249.081, 547.192 243.402 C 587.062 234.497, 626.759 218.407, 668.500 194.235 C 683.842 185.351, 682.806 186.121, 680.971 184.961 C 679.631 184.114, 626.465 183.851, 618 184.650 M 321.500 227.129 C 316.550 228.189, 303.075 230.842, 291.555 233.023 C 280.036 235.205, 270.285 237.329, 269.887 237.745 C 269.490 238.160, 270.714 244.125, 272.607 251 C 274.501 257.875, 277.430 270.475, 279.116 279 C 283.275 300.024, 301.551 386.247, 310.486 427 C 312.355 435.525, 316.647 455.100, 320.024 470.500 C 323.401 485.900, 327.045 502.550, 328.122 507.500 C 332.494 527.597, 335.952 547.306, 337.598 561.500 C 338.555 569.750, 339.603 576.818, 339.926 577.207 C 340.250 577.597, 346.137 576.133, 353.007 573.954 C 359.878 571.776, 374.050 567.447, 384.500 564.336 C 394.950 561.224, 403.915 558.313, 404.421 557.868 C 404.963 557.391, 403.844 553.853, 401.704 549.279 C 395.389 535.777, 392.795 526.932, 383.151 486 C 372.964 442.770, 368.884 423.058, 352.515 338 C 343.066 288.897, 337 248.533, 337 234.751 L 337 225 333.750 225.100 C 331.962 225.155, 326.450 226.068, 321.500 227.129 M 89.684 241.649 C 89.455 241.878, 90.804 247.114, 92.682 253.283 C 94.560 259.452, 100.835 280.475, 106.625 300 C 112.416 319.525, 117.766 336.454, 118.514 337.619 C 119.262 338.785, 122.490 341.209, 125.687 343.006 C 135.135 348.317, 173.608 374.050, 185.500 383.013 C 219.668 408.764, 250.059 438.393, 268.168 463.608 C 283.299 484.676, 297.619 512.007, 305.313 534.500 C 309.371 546.366, 318.276 564, 320.210 564 C 321.955 564, 319.793 546.691, 316.047 530.675 C 314.018 522.001, 313.763 521.555, 301.151 504.675 C 251.434 438.131, 224.835 389.844, 197.770 317 C 192.425 302.614, 184.405 277.673, 183.398 272.309 C 183.064 270.528, 182.116 268.511, 181.291 267.827 C 180.466 267.142, 167.801 263.588, 153.146 259.928 C 138.491 256.269, 118.310 250.565, 108.301 247.253 C 98.291 243.941, 89.914 241.419, 89.684 241.649 M 1705.744 266.099 C 1687.061 267.933, 1649.914 274.918, 1647.639 277.024 C 1647.166 277.462, 1648.152 282.474, 1649.830 288.161 C 1668.339 350.874, 1683.625 469.444, 1685.844 567.500 L 1686.500 596.500 1705 596.407 C 1719.059 596.337, 1726.620 595.789, 1736.500 594.126 C 1749.610 591.919, 1772.868 586.354, 1774.243 585.095 C 1774.651 584.721, 1773.396 579.034, 1771.453 572.457 C 1766.743 556.513, 1761.885 534.846, 1757.561 510.500 C 1742.741 427.066, 1734.827 349.923, 1735.041 291 L 1735.134 265.500 1724.817 265.369 C 1719.143 265.298, 1710.560 265.626, 1705.744 266.099 M 1062.500 269.618 C 1050.138 271.841, 1032.076 278.386, 1014.500 287.012 C 995.546 296.314, 981.554 305.042, 964.821 318 C 952.038 327.900, 925 353.353, 925 355.488 C 925 356.164, 927.587 358.417, 930.750 360.495 C 933.913 362.573, 941.189 367.671, 946.920 371.825 L 957.339 379.376 959.920 375.968 C 968.034 365.253, 981.581 350.771, 991.338 342.383 C 1022.462 315.623, 1049.448 303.774, 1060.823 311.874 C 1073.637 320.998, 1072.555 365.185, 1058.370 412 C 1053.450 428.240, 1039.974 458.604, 1033.899 467.140 L 1032.020 469.780 1039.218 483.640 C 1043.176 491.263, 1049.419 504.214, 1053.092 512.421 L 1059.769 527.342 1068.134 529.065 C 1081.524 531.825, 1096.187 537.717, 1108.934 545.460 C 1112.139 547.407, 1115.040 549, 1115.381 549 C 1116.697 549, 1115.824 545.064, 1111.962 533.587 C 1104.814 512.344, 1095.116 494.775, 1081.002 477.502 C 1077.762 473.538, 1074.818 469.121, 1074.458 467.687 C 1073.997 465.852, 1075.733 459.226, 1080.326 445.290 C 1087.881 422.365, 1090.914 410.857, 1094.444 391.724 C 1101.539 353.265, 1102.580 320.214, 1097.528 293.811 C 1092.975 270.012, 1086.227 265.351, 1062.500 269.618 M 0.392 314 C 0.392 321.425, 0.549 324.462, 0.742 320.750 C 0.934 317.038, 0.934 310.962, 0.742 307.250 C 0.549 303.538, 0.392 306.575, 0.392 314 M 483.354 314.022 C 478.236 315.619, 474.341 320.055, 472.330 326.579 C 469.558 335.574, 469.830 365.863, 472.841 383.500 C 479.133 420.343, 490.417 453.849, 509.126 491.237 C 512.907 498.792, 516 506.005, 516 507.265 C 516 508.526, 513.504 513.761, 510.454 518.899 C 500.092 536.352, 493.993 550.335, 490.129 565.500 C 487.515 575.761, 485.671 587.659, 486.491 588.986 C 486.867 589.594, 489.465 588.222, 492.814 585.647 C 504.301 576.817, 517.390 569.600, 528.500 565.970 C 532.350 564.712, 535.817 563.414, 536.205 563.086 C 536.594 562.758, 539.367 554.166, 542.369 543.995 C 545.372 533.823, 549.641 520.827, 551.857 515.116 L 555.886 504.732 550.089 497.116 C 533.408 475.202, 520.970 451.792, 513.041 427.381 C 504.378 400.713, 500.149 374.393, 502.905 364.295 C 504.231 359.437, 508.003 354.567, 512.069 352.464 C 518.629 349.072, 533.315 352.078, 552.850 360.810 C 572.824 369.738, 590.888 381.786, 607.649 397.358 C 611.581 401.011, 615.118 404, 615.509 404 C 616.321 404, 642.334 379.160, 642.813 377.929 C 643.288 376.705, 628.952 365.604, 615.500 356.778 C 579.629 333.243, 528.706 314.537, 497.500 313.430 C 491.450 313.216, 485.084 313.482, 483.354 314.022 M 384.754 328.250 C 382.301 333.887, 378.589 342.932, 376.506 348.348 L 372.717 358.196 376.993 380.348 C 379.345 392.532, 381.675 403.288, 382.170 404.250 C 382.905 405.678, 384.433 406, 390.476 406 C 394.549 406, 398.081 405.663, 398.325 405.250 C 398.568 404.837, 398.170 400.790, 397.440 396.257 C 394.338 376.985, 391.859 347.055, 391.022 318.750 C 391.010 318.337, 390.598 318, 390.107 318 C 389.616 318, 387.207 322.613, 384.754 328.250 M 1040.863 330.873 C 1031.529 334.874, 1023.215 340.114, 1011.907 349.123 C 998.127 360.101, 972.033 387.353, 972.009 390.791 C 972.004 391.501, 977.693 398.251, 984.652 405.791 C 997.847 420.088, 1008.140 432.801, 1015.771 444.228 C 1018.242 447.928, 1020.668 450.705, 1021.163 450.400 C 1022.713 449.442, 1032.586 428.933, 1036.279 419 C 1041.184 405.806, 1046.592 385.628, 1048.878 371.988 C 1052.474 350.527, 1052.535 328.865, 1049 328.278 C 1048.175 328.141, 1044.513 329.309, 1040.863 330.873 M 1855.036 344.630 C 1823.539 378.968, 1797.832 424.589, 1787.899 463.776 C 1784.671 476.511, 1781.366 497.699, 1782.440 498.774 C 1782.831 499.164, 1783.622 498.640, 1784.199 497.609 C 1786.837 492.896, 1803.986 471.031, 1810.549 464.012 C 1819.364 454.586, 1821.299 451.592, 1830.584 433 C 1842.530 409.082, 1849.472 390.848, 1854.951 369 C 1858.631 354.320, 1861.248 341.243, 1860.782 339.847 C 1860.583 339.249, 1857.997 341.402, 1855.036 344.630 M 784 343.577 C 752.875 347.120, 736.632 350.864, 712.197 360.127 C 684.117 370.772, 660.307 386.758, 636.924 410.665 C 612.781 435.349, 595.289 461.276, 580.553 494.221 C 566.959 524.613, 561.691 541.255, 549.982 590.786 C 546.174 606.893, 541.447 624.893, 539.478 630.786 C 534.889 644.518, 527.293 659.987, 520.470 669.497 C 515.506 676.416, 515.242 677.059, 516.984 677.991 C 518.020 678.546, 525.323 679, 533.212 679 C 544.463 679, 548.026 679.330, 549.738 680.529 C 552.655 682.572, 553.599 687.945, 551.687 691.629 C 550.266 694.365, 540.186 704.523, 533.250 710.207 C 531.462 711.672, 530 713.301, 530 713.826 C 530 714.897, 544.982 727.104, 555.127 734.300 C 562.167 739.293, 564.678 740.175, 563.523 737.250 C 563.142 736.288, 562.141 731.900, 561.298 727.500 C 559.070 715.874, 560.004 697.467, 563.453 685.029 C 568.846 665.584, 582.625 642.293, 594.276 632.931 C 602.694 626.167, 608.222 624.021, 617.261 624.010 C 626.797 623.998, 632.342 626.309, 637.888 632.610 C 644.971 640.657, 645.972 650.531, 641.627 669.519 C 633.775 703.843, 633.361 722.630, 640.001 743.334 C 647.159 765.655, 665.712 786.203, 692.483 801.459 C 698.910 805.122, 706.104 807.656, 724.250 812.653 C 727.958 813.674, 725.610 811.284, 717.716 806.004 C 707.765 799.348, 694.103 786.496, 689.012 779 C 670.760 752.126, 671.645 722.981, 691.519 696.500 C 693.995 693.200, 702.429 683.812, 710.261 675.637 C 718.092 667.462, 726.940 657.337, 729.922 653.137 C 748.147 627.468, 755.441 619.788, 768.500 612.517 C 786.077 602.731, 808.194 601.444, 826.660 609.131 C 837.898 613.809, 844.240 618.813, 862.500 637.404 C 874.195 649.312, 883.401 657.621, 892 664.030 C 921.552 686.057, 933.477 703.514, 934.755 726.619 C 935.589 741.702, 931.037 757.363, 921.564 772.007 C 916.520 779.805, 902.452 794.915, 894.813 800.741 C 892.121 802.793, 890.387 804.629, 890.959 804.820 C 893.197 805.566, 916.816 796.819, 922.238 793.236 C 930.583 787.723, 940.449 779.288, 945.939 772.976 C 975.955 738.466, 980.161 701.539, 959.946 650 C 952.230 630.326, 952.058 620.280, 959.277 610.894 C 966.191 601.905, 978.763 598.045, 990.248 601.384 C 1001.696 604.712, 1017.331 617.766, 1028.242 633.107 C 1045.404 657.237, 1051.954 683.058, 1047.873 710.498 C 1047.253 714.667, 1047.003 718.337, 1047.319 718.652 C 1048.697 720.030, 1086 686.085, 1086 683.454 C 1086 682.810, 1083.412 680.574, 1080.250 678.485 C 1060.594 665.503, 1056.639 659.742, 1062.750 652.995 C 1065.347 650.128, 1066.108 649.903, 1076.445 648.941 C 1087.338 647.927, 1094.664 646.669, 1095.699 645.635 C 1095.997 645.336, 1093.913 642.484, 1091.067 639.296 C 1080.390 627.339, 1070.301 610.581, 1063.496 593.500 C 1061.963 589.650, 1057.829 578.175, 1054.312 568 C 1038.442 522.100, 1023.697 491.228, 1001.535 457.500 C 981.674 427.272, 956.469 401.225, 927.637 381.132 C 917.345 373.960, 893.527 361.995, 878.500 356.448 C 865.697 351.723, 849.573 347.678, 835 345.535 C 824.192 343.945, 791.715 342.699, 784 343.577 M 97 345.820 C 97 347.648, 111.976 372.628, 123.486 390 C 165.585 453.542, 204.801 494.535, 248.225 520.395 C 267.088 531.627, 289.192 542.142, 290.723 540.610 C 293.094 538.239, 276.462 503.122, 263.912 484 C 241.422 449.733, 209.461 418.162, 165.917 387.201 C 148.873 375.083, 129.169 362.490, 110.648 351.879 C 98.661 345.011, 97 344.274, 97 345.820 M 520.332 378.903 C 521.560 396.200, 531.646 429.655, 541.588 449.406 C 545.903 457.977, 562.362 484, 563.469 484 C 563.750 484, 566.066 479.837, 568.617 474.750 C 577.474 457.080, 588.488 439.148, 598.665 425.826 C 601.049 422.705, 603 419.746, 603 419.249 C 603 417.644, 587.735 403.492, 579.206 397.191 C 561.505 384.113, 532.163 370, 522.675 370 L 519.701 370 520.332 378.903 M 1909 416.880 C 1863.021 436.893, 1839.259 453.472, 1813.434 483.557 C 1804.880 493.523, 1790 515.063, 1790 517.482 C 1790 518.761, 1793.994 517.655, 1806.225 512.989 C 1838.208 500.788, 1868.505 480.847, 1896.166 453.791 C 1912.744 437.576, 1924.817 423.465, 1925.926 419.008 C 1928.120 410.192, 1928.128 409.997, 1926.269 410.067 C 1925.296 410.103, 1917.525 413.169, 1909 416.880 M 385.650 421.757 C 385.200 422.486, 390.831 449.064, 391.616 449.917 C 391.827 450.146, 392.295 450.038, 392.656 449.677 C 393.537 448.796, 397.908 422.703, 397.334 421.750 C 396.742 420.768, 386.258 420.774, 385.650 421.757 M 112 432.937 C 107.325 433.925, 98.100 436.343, 91.500 438.312 C 84.900 440.280, 77.250 442.497, 74.500 443.239 C 70.189 444.403, 69.544 444.900, 69.822 446.846 C 70.650 452.660, 83.530 505.081, 89.515 527 C 93.195 540.475, 96.664 553.188, 97.225 555.250 C 98.460 559.799, 99.543 559.913, 110 556.594 C 114.125 555.285, 124.025 552.762, 132 550.988 C 152.519 546.425, 151.052 547.324, 149.385 540.323 C 147.578 532.732, 138.451 487.149, 132.452 455.750 L 127.724 431 124.112 431.070 C 122.125 431.109, 116.675 431.949, 112 432.937 M 147 450.520 C 147 451.559, 157.247 502.035, 161.566 522.274 C 164.005 533.700, 166 543.209, 166 543.407 C 166 543.604, 177.813 544, 192.250 544.286 C 233.369 545.100, 256.710 549.874, 291.092 564.501 C 298.322 567.578, 304.491 569.842, 304.799 569.534 C 305.108 569.226, 304.037 567.090, 302.419 564.789 C 299.727 560.958, 298.127 560.045, 283.489 553.985 C 249.556 539.938, 234.745 531.363, 208.504 510.575 C 195.873 500.568, 173.033 478.170, 159.225 462.250 C 149.820 451.406, 147 448.700, 147 450.520 M 1908.980 461.615 C 1888.899 481.982, 1865.486 500.081, 1843.020 512.607 C 1830.642 519.507, 1806.312 529.519, 1791.756 533.701 C 1782.220 536.441, 1782.013 536.564, 1782.011 539.500 C 1782.010 542.185, 1785.442 555.962, 1792.722 582.500 C 1795.092 591.139, 1795.169 592.348, 1794.634 612.660 C 1794.214 628.611, 1794.375 634.042, 1795.289 634.723 C 1795.955 635.220, 1799.731 636.863, 1803.680 638.374 C 1812.396 641.710, 1822.661 648.781, 1829.821 656.382 C 1834.648 661.506, 1837 662.645, 1837 659.858 C 1837 657.010, 1843.680 642.763, 1848.438 635.463 C 1857.734 621.203, 1869.608 610.748, 1885.750 602.612 C 1888.638 601.157, 1891 599.695, 1891 599.363 C 1891 599.032, 1892.600 591.952, 1894.555 583.630 C 1899.657 561.918, 1901.957 550.633, 1910.889 503.500 C 1919.970 455.578, 1920.557 452, 1919.344 452 C 1918.858 452, 1914.194 456.327, 1908.980 461.615 M 879 498.951 C 850.010 504.417, 832.428 530.881, 840.228 557.309 C 841.884 562.919, 848.296 569.733, 853.151 571.041 C 860.875 573.120, 866.525 570.628, 877 560.520 C 885.283 552.527, 887.657 551.124, 903.082 545.108 C 917.675 539.415, 923.532 534.197, 925.481 525.149 C 927.405 516.219, 919.618 505.161, 908.500 501.036 C 901.805 498.553, 886.756 497.489, 879 498.951 M 683.893 512.504 C 667.735 515.724, 657 525.402, 657 536.751 C 657 542.103, 658.144 544.955, 662.093 549.453 C 666.397 554.355, 672.477 557.286, 684.810 560.404 C 696.692 563.408, 702.590 566.168, 709.521 571.969 C 718.343 579.352, 724.647 581.711, 730.992 580.002 C 739.121 577.813, 744.572 570.458, 745.621 560.262 C 747.931 537.804, 731.836 517.643, 707.500 512.511 C 699.106 510.741, 692.752 510.739, 683.893 512.504 M 877.081 512.588 C 867.359 515.202, 858.501 522.129, 854.259 530.437 C 850.892 537.028, 849.933 549.035, 852.392 553.792 C 856.091 560.944, 859.958 560.133, 869.793 550.141 C 877.041 542.777, 883.835 538.808, 898.413 533.423 C 907.010 530.248, 913 525.579, 913 522.055 C 913 518.699, 907.951 514.360, 901.983 512.588 C 895.422 510.639, 884.330 510.640, 877.081 512.588 M 1192 513.130 C 1174.175 514.576, 1133.753 519.949, 1129.374 521.455 C 1128.618 521.715, 1129.337 525.437, 1131.560 532.768 C 1134.896 543.771, 1138 561.200, 1138 568.928 C 1138 574.374, 1135.830 578.414, 1132.067 579.972 C 1127.836 581.725, 1125.252 580.800, 1117.901 574.903 C 1108.925 567.702, 1101.864 563.010, 1091.905 557.630 C 1082.952 552.793, 1069.328 547.632, 1068.638 548.816 C 1068.419 549.192, 1071.064 558.079, 1074.517 568.565 C 1084.984 600.354, 1094.282 616.419, 1112.715 634.564 C 1123.104 644.790, 1124 645.969, 1124 649.413 C 1124 655.340, 1120.253 658.266, 1107.636 662.191 C 1101.786 664.011, 1097 665.766, 1097 666.091 C 1097 666.416, 1099.232 667.897, 1101.959 669.381 C 1111.996 674.844, 1113.549 680.626, 1107.137 688.660 C 1094.980 703.893, 1052.612 741.646, 1027.450 759.667 C 1003.931 776.512, 969.773 795.776, 943.500 807.014 C 883.625 832.623, 815.974 842.770, 753 835.589 C 746.675 834.867, 741.152 834.586, 740.726 834.963 C 739.824 835.761, 751.385 853.347, 759.487 863.500 C 777.447 886.007, 797.927 905.824, 821.496 923.500 C 836.523 934.770, 854.179 946.136, 855.133 945.152 C 855.481 944.794, 855.387 935.500, 854.925 924.500 C 853.281 885.441, 853.032 890.254, 856.877 886.818 C 859.643 884.348, 860.820 883.914, 863.374 884.425 C 870.646 885.879, 871.390 889.030, 873.062 925.500 C 875.716 983.371, 868.671 1050.361, 853.876 1107.935 C 849.249 1125.942, 838.890 1155.977, 836.207 1159.166 C 834.773 1160.871, 827.386 1165.179, 817.661 1169.983 C 808.773 1174.374, 798.402 1180.306, 794.615 1183.164 C 780.870 1193.540, 771.177 1211.184, 773.755 1221.135 C 775.048 1226.125, 776.952 1225.238, 779.415 1218.500 C 784.179 1205.467, 796.858 1191, 803.515 1191 C 807.386 1191, 811 1194.701, 811 1198.664 C 811 1201.676, 810.082 1203.072, 804.637 1208.342 C 798.430 1214.349, 794.579 1220.471, 792 1228.430 C 790.825 1232.056, 790.891 1232.493, 792.857 1234.085 C 794.028 1235.034, 799.292 1236.848, 804.554 1238.116 C 814.899 1240.610, 815.950 1240.350, 815.985 1235.288 C 816.036 1227.919, 825.361 1212.108, 832.935 1206.548 C 840.322 1201.125, 845.747 1202.104, 847.512 1209.178 C 848.089 1211.487, 847.331 1212.770, 842.022 1218.476 C 835.349 1225.649, 831.025 1233.605, 831.010 1238.737 L 831 1241.974 838.750 1241.436 C 868.463 1239.374, 903.728 1230.878, 916.779 1222.639 C 922.082 1219.292, 933.149 1207.190, 943.623 1193.284 C 992.083 1128.952, 1029.339 1049.461, 1045.930 975 C 1052.943 943.524, 1057.984 901.253, 1057.996 873.823 C 1058 864.561, 1058.113 864.056, 1060.635 862.073 C 1064.445 859.076, 1070.006 859.309, 1073.076 862.595 C 1075.484 865.172, 1075.499 865.313, 1075.283 884.345 C 1075.163 894.880, 1074.587 908.645, 1074.002 914.933 C 1073.156 924.024, 1073.200 926.621, 1074.219 927.607 C 1076.764 930.073, 1115.362 934.435, 1147.759 935.919 C 1177.670 937.288, 1213.406 935.336, 1238.669 930.951 C 1253.555 928.367, 1254.779 927.843, 1255.389 923.795 C 1255.662 921.983, 1256.615 915.325, 1257.506 909 C 1262.186 875.778, 1272.705 844.128, 1288.080 817.002 C 1294.618 805.468, 1298.016 802.011, 1302.827 802.004 C 1306.079 801.999, 1311 807.179, 1311 810.608 C 1311 812.128, 1308.494 817.759, 1305.430 823.122 C 1280.566 866.655, 1268.704 927.135, 1274.465 981 C 1277.858 1012.718, 1283.468 1035.905, 1299.992 1086.500 C 1309.468 1115.517, 1313.451 1133.087, 1314.648 1151.150 C 1315.406 1162.590, 1314.073 1169.216, 1310.182 1173.347 C 1308.707 1174.913, 1303.450 1178.231, 1298.500 1180.722 C 1274.070 1193.014, 1261.957 1204.687, 1257.009 1220.705 C 1254.638 1228.383, 1254.485 1231.914, 1256.412 1234.549 C 1257.767 1236.401, 1257.873 1236.358, 1259.032 1233.490 C 1265.532 1217.398, 1273.550 1205.865, 1280.546 1202.545 C 1283.579 1201.106, 1284.647 1201.025, 1287.122 1202.051 C 1293.340 1204.626, 1293.524 1209.438, 1287.647 1215.793 C 1280.720 1223.283, 1277.274 1228.666, 1274.965 1235.605 C 1273.365 1240.414, 1273.096 1242.411, 1273.918 1243.401 C 1275.230 1244.982, 1284.544 1247.079, 1291.343 1247.325 L 1296.185 1247.500 1298.060 1240.202 C 1300.610 1230.271, 1305.210 1222.037, 1311.565 1216.027 C 1317.644 1210.278, 1320.753 1209.662, 1324.545 1213.455 C 1328.359 1217.268, 1327.662 1220.201, 1321.241 1227.380 C 1317.336 1231.746, 1313.278 1239.986, 1312.811 1244.500 L 1312.500 1247.500 1321.036 1247.359 C 1336.009 1247.113, 1359.030 1241.650, 1379.164 1233.566 C 1399.184 1225.527, 1404.333 1220.822, 1413.038 1202.609 C 1425.250 1177.057, 1457.979 1077.996, 1477.004 1009 C 1502.619 916.103, 1510.164 869.223, 1508.700 812.053 C 1507.381 760.576, 1498.245 717.698, 1479.710 676 C 1458.428 628.120, 1431.457 594.939, 1388.897 564.275 C 1364.567 546.745, 1331.501 531.132, 1301.620 523.064 C 1267.107 513.746, 1228.048 510.206, 1192 513.130 M 682.148 525.913 C 675.650 528.157, 671.939 530.785, 670.170 534.393 C 667.399 540.046, 672.909 544.040, 689.500 548.403 C 701.977 551.684, 709.839 555.518, 717.333 561.977 C 724.858 568.461, 727.573 569.198, 730.671 565.596 C 732.620 563.330, 733 561.769, 733 556.032 C 733 537.631, 716.803 523.940, 695.145 524.033 C 690.385 524.053, 685.480 524.763, 682.148 525.913 M 166 559.635 C 127.973 564.235, 82.111 579.846, 42.500 601.673 C 29.973 608.576, 12.005 620.041, 12.002 621.133 C 11.998 622.518, 17.741 622.971, 50.294 624.157 C 77.189 625.136, 89.936 625.135, 112.184 624.151 C 196.695 620.415, 241.376 612.698, 292.942 592.933 C 299.024 590.602, 304 588.392, 304 588.022 C 304 586.780, 274.590 573.169, 266.500 570.667 C 256.092 567.447, 243.189 564.360, 229.500 561.813 C 220.724 560.180, 213.546 559.710, 194 559.489 C 180.525 559.337, 167.925 559.402, 166 559.635 M 887.300 572.802 C 876.096 576.803, 868.555 584.600, 865.005 595.855 C 861.459 607.097, 863.014 617.887, 869.577 627.588 C 876.314 637.544, 885.661 642.229, 899 642.336 C 906.157 642.394, 908.404 641.988, 913.220 639.771 C 920.284 636.519, 927.004 629.754, 930.657 622.217 C 933.077 617.224, 933.433 615.296, 933.464 607 C 933.496 598.487, 933.197 596.882, 930.581 591.554 C 924.478 579.125, 913.616 571.924, 900.020 571.294 C 894.515 571.039, 891.107 571.443, 887.300 572.802 M 375.754 583.521 C 359.944 588.667, 346.570 593.148, 346.035 593.478 C 345.489 593.816, 347.857 599.443, 351.425 606.290 C 358.782 620.409, 364.573 636.198, 417.153 785.500 C 430.032 822.070, 441.929 859.300, 445.114 873 C 446.201 877.675, 447.273 882.043, 447.497 882.707 C 447.775 883.529, 450.555 882.686, 456.202 880.068 C 460.766 877.952, 473.725 872.070, 485 866.997 C 496.275 861.924, 505.867 857.435, 506.316 857.020 C 506.765 856.606, 505.135 853.170, 502.693 849.384 C 491.238 831.623, 479.811 804.019, 455.550 735.500 C 449.708 719, 444.543 704.574, 444.073 703.442 C 442.828 700.447, 418.759 625.538, 414.692 612 C 411.560 601.578, 409.362 589.218, 408.734 578.500 C 408.548 575.311, 408.094 574.466, 406.500 574.332 C 405.400 574.240, 391.564 578.375, 375.754 583.521 M 686.383 585.891 C 660.619 592.520, 650.890 624.377, 668.632 644.014 C 681.835 658.628, 704.088 659.997, 718.237 647.066 C 730.741 635.638, 733.984 618.768, 726.510 604.020 C 723.566 598.210, 715.392 590.543, 709.259 587.838 C 704.077 585.553, 691.768 584.505, 686.383 585.891 M 900.455 589.455 C 894.986 594.923, 899.153 605, 906.882 605 C 911.305 605, 916 600.366, 916 596 C 916 588.426, 905.785 584.124, 900.455 589.455 M 322 600.292 L 319.500 601.555 318.828 628.528 C 318.031 660.473, 316.558 683.089, 313.982 702.892 C 312.948 710.847, 312.330 717.725, 312.610 718.177 C 313.168 719.080, 374.325 719.342, 375.221 718.445 C 375.894 717.773, 362.235 677.702, 351.086 647.638 C 342.755 625.172, 336.603 612.072, 330.477 603.750 C 326.738 598.671, 325.893 598.326, 322 600.292 M 699.500 601.105 C 696.207 602.988, 695 605.170, 695 609.237 C 695 617.656, 705.005 621.348, 710.411 614.923 C 713.609 611.123, 713.733 606.955, 710.750 603.522 C 708.184 600.569, 702.552 599.359, 699.500 601.105 M 1760.532 607.125 C 1740.705 612.185, 1727.138 614.112, 1706 614.872 C 1691.171 615.404, 1688.552 615.729, 1688.838 617 C 1689.024 617.825, 1690.942 625.025, 1693.100 633 C 1697.579 649.550, 1704.736 682.671, 1708.442 704 C 1714.208 737.189, 1718.174 769.311, 1723.465 825.689 C 1724.866 840.621, 1726.543 853.363, 1727.365 855.332 C 1728.159 857.231, 1731.292 863.006, 1734.328 868.165 L 1739.848 877.544 1759.174 887.135 C 1769.803 892.410, 1785.591 900.789, 1794.258 905.754 C 1802.925 910.720, 1810.174 914.494, 1810.367 914.142 C 1810.560 913.789, 1809.021 905.102, 1806.945 894.839 C 1787.323 797.784, 1774.088 675.318, 1777.083 618.510 C 1777.796 604.994, 1777.670 602.826, 1776.191 603.153 C 1775.811 603.237, 1768.764 605.024, 1760.532 607.125 M 297 607.609 C 278.037 615.656, 244.570 624.565, 213.550 629.825 C 204.228 631.405, 196.440 633.181, 196.243 633.770 C 196.047 634.359, 196.974 637.015, 198.305 639.671 C 201.993 647.034, 203.741 653.404, 205.533 666 C 207.475 679.663, 210.932 696.079, 214.481 708.500 C 217.711 719.806, 231.783 762.031, 232.949 763.918 C 233.629 765.017, 235.088 764.184, 239.659 760.088 C 246.258 754.175, 258.338 747.942, 268 745.466 C 272.761 744.246, 277.577 743.894, 286 744.150 C 297.014 744.485, 297.490 744.416, 297.260 742.500 C 295.043 724.064, 295.050 723.119, 297.504 708.213 C 298.836 700.121, 300.389 689, 300.955 683.500 C 302.582 667.670, 304.531 607.118, 303.445 606.133 C 302.906 605.643, 300.137 606.278, 297 607.609 M 1463 608.452 C 1463 608.701, 1464.964 611.738, 1467.364 615.202 C 1478.261 630.927, 1490.900 653.971, 1498.793 672.500 C 1515.175 710.961, 1524.988 755.838, 1527.603 804.250 C 1527.982 811.263, 1528.623 817, 1529.027 817 C 1530.911 817, 1541.630 787.742, 1545.893 770.965 C 1552.035 746.797, 1554.892 714.510, 1553.048 690.110 C 1551.461 669.109, 1550.817 666.077, 1547.344 663.233 C 1528.916 648.142, 1504.078 630.776, 1484.500 619.295 C 1468.399 609.853, 1463 607.131, 1463 608.452 M 973.299 614.960 C 965.795 619.535, 965.270 627.890, 971.476 644 C 980.977 668.666, 985.216 687.835, 985.298 706.500 C 985.399 729.746, 979.093 749.561, 965.301 769.335 C 962.295 773.644, 960.075 777.408, 960.367 777.700 C 961.866 779.199, 989.817 762.610, 1010.771 747.786 C 1023.038 739.107, 1025.649 736.304, 1029.434 727.745 C 1036.518 711.726, 1038.350 691.420, 1034.160 675.344 C 1024.498 638.267, 990.460 604.496, 973.299 614.960 M 786.500 618.832 C 770.824 623.560, 759.665 633.204, 744.244 655.353 C 737.277 665.359, 730.119 673.902, 719.129 685.328 C 703.340 701.744, 695.815 711.800, 691.844 721.793 C 689.982 726.477, 689.569 729.471, 689.538 738.500 C 689.476 756.531, 694.252 767.219, 709 782.046 C 733.821 807, 770.012 820.304, 808.500 818.621 C 824.495 817.922, 832.876 816.450, 846.109 812.017 C 867.776 804.758, 882.279 795.906, 897.595 780.593 C 908.632 769.558, 914.474 760.798, 918.793 748.806 C 921.018 742.628, 921.430 739.801, 921.462 730.500 C 921.506 717.699, 920.078 712.525, 913.833 702.863 C 908.231 694.195, 899.900 686.220, 883.413 673.743 C 873.008 665.869, 865.428 658.981, 854.413 647.392 C 838.755 630.917, 829.506 623.496, 820.133 619.887 C 812.189 616.828, 794.939 616.287, 786.500 618.832 M 1878.969 623.376 C 1868.813 630.831, 1858.270 645.188, 1852.763 659.063 C 1850.267 665.352, 1847 678.821, 1847 682.823 C 1847 686.376, 1843.171 690, 1839.418 690 C 1836.518 690, 1835.553 689.367, 1833.240 685.945 C 1824.244 672.632, 1818.452 665.647, 1812.340 660.738 C 1804.870 654.739, 1797.485 650.582, 1795.966 651.521 C 1794.620 652.353, 1794.771 661.979, 1796.523 687 C 1801.285 755.002, 1812.729 835.873, 1827.040 902.646 C 1829.768 915.376, 1832 926.511, 1832 927.390 C 1832 929.270, 1840.046 935.398, 1841.034 934.271 C 1843.208 931.791, 1860.236 827.295, 1868.454 766 C 1869.819 755.825, 1871.822 741.425, 1872.906 734 C 1875.663 715.119, 1878.629 687.744, 1881.033 659 C 1882.161 645.525, 1883.494 632.475, 1883.998 630 C 1885.131 624.428, 1885.243 619.992, 1884.250 620.025 C 1883.838 620.038, 1881.461 621.546, 1878.969 623.376 M 162 636.165 C 156.775 636.681, 144.400 637.650, 134.500 638.318 L 116.500 639.532 116.592 642.016 C 116.741 646.013, 119.133 669.388, 119.526 670.681 C 119.755 671.436, 127.405 668.611, 140.692 662.867 C 152.137 657.920, 166.225 652.295, 172 650.368 C 177.775 648.440, 182.814 646.556, 183.198 646.182 C 183.582 645.807, 182.682 643.250, 181.198 640.500 C 178.067 634.697, 177.700 634.615, 162 636.165 M 611 637.735 C 601.350 641.117, 587.587 658.430, 579.933 676.816 C 570.431 699.640, 570.288 724.698, 579.553 743.154 C 585.278 754.560, 591.752 759.712, 618.918 774.481 C 630.965 781.030, 650.484 790, 652.689 790 C 653.636 790, 652.354 787.858, 649.249 784.250 C 637.523 770.626, 629.737 756.059, 625.332 739.500 C 622.966 730.606, 622.676 727.730, 622.712 713.500 C 622.754 697.090, 623.327 693.010, 630.005 661.570 C 632.424 650.182, 632.037 645.385, 628.342 640.995 C 626.060 638.283, 620.578 635.910, 617 636.085 C 616.175 636.125, 613.475 636.868, 611 637.735 M 175.500 665.359 C 155.267 672.785, 123 687.036, 123 688.546 C 123 688.834, 124.967 692.541, 127.371 696.785 C 146.406 730.379, 173.209 799.304, 196.051 873.396 C 200.950 889.289, 205.147 902.480, 205.376 902.709 C 205.605 902.939, 217.967 897.135, 232.847 889.813 C 250.322 881.214, 259.918 875.959, 259.950 874.972 C 259.978 874.131, 258.384 870.081, 256.409 865.972 C 245.021 842.278, 226.161 792.808, 209.884 743.940 C 198.434 709.563, 193.951 692.837, 191.136 674 C 189.498 663.037, 189.303 662.490, 186.959 662.278 C 185.606 662.156, 180.450 663.542, 175.500 665.359 M 1677.994 671.138 C 1673.789 676.902, 1669.482 685.482, 1668.010 691.025 C 1666.569 696.448, 1663.493 700, 1660.238 700 C 1658.911 700, 1655.052 698.465, 1651.662 696.588 C 1639.509 689.860, 1625.529 687.355, 1615.500 690.110 C 1608.055 692.154, 1608.018 692.064, 1622.939 708.349 C 1630.573 716.682, 1640.542 728, 1645.092 733.500 C 1658.012 749.121, 1690.916 793.573, 1696.921 803.521 C 1703.303 814.094, 1702.860 813.473, 1703.539 812.794 C 1704.797 811.536, 1696.508 740.521, 1691.993 713.871 C 1689.100 696.802, 1683.032 668.683, 1682.014 667.638 C 1681.553 667.163, 1679.745 668.737, 1677.994 671.138 M 795.155 675.179 C 780.472 677.019, 769.351 683.158, 764.751 691.962 C 760.988 699.165, 761.072 704.823, 765.058 712.799 C 769.116 720.920, 776.146 727.076, 787.691 732.617 C 795.747 736.484, 797 737.420, 797 739.575 C 797 748.704, 786.639 757, 775.239 757 C 767.865 757, 762.160 754.100, 753.513 745.955 C 748.868 741.580, 744.580 738, 743.984 738 C 741.338 738, 736.976 741.247, 736.368 743.669 C 735.471 747.245, 738.159 751.971, 745.098 759.019 C 751.442 765.462, 758.565 769.235, 767.800 771.045 C 781.171 773.666, 792.965 770.308, 802.230 761.242 L 806.960 756.614 809.230 758.732 C 810.479 759.897, 813.797 762, 816.604 763.404 C 831.928 771.073, 849.764 768.667, 862.072 757.273 C 873.030 747.128, 877.611 736.611, 873.057 732.057 C 871.536 730.536, 869.925 729.975, 867.697 730.191 C 865.030 730.450, 863.857 731.503, 860.481 736.672 C 854.977 745.100, 853.290 746.807, 847.500 749.804 C 840.748 753.298, 829.586 753.484, 823.308 750.207 C 818.480 747.686, 814.281 742.656, 813.422 738.362 C 812.867 735.585, 813.238 735.137, 819.074 731.535 C 827.251 726.488, 836.008 717.643, 838.883 711.525 C 847.530 693.130, 837.284 678.313, 813.678 675.073 C 805.031 673.887, 805.482 673.884, 795.155 675.179 M 1565.690 682.750 C 1567.178 688.369, 1566.441 729.002, 1564.624 741.500 C 1559.520 776.622, 1551.189 803.414, 1535.864 834 C 1527.147 851.397, 1527.089 851.562, 1526.077 862 C 1525.517 867.775, 1523.832 881.624, 1522.333 892.775 L 1519.608 913.050 1522.293 918.525 C 1523.770 921.536, 1525.321 923.996, 1525.739 923.990 C 1526.890 923.976, 1533.616 918.430, 1543.617 909.250 C 1553.784 899.917, 1565.749 886.506, 1574.022 875.171 C 1583.756 861.834, 1595 841.969, 1595 838.110 C 1595 837.034, 1596.118 834.824, 1597.485 833.200 C 1607.098 821.776, 1622 767.535, 1622 743.970 L 1622 735.182 1607.042 719.242 C 1591.985 703.195, 1567.673 680, 1565.910 680 C 1565.366 680, 1565.272 681.171, 1565.690 682.750 M 0.402 732 C 0.402 740.525, 0.556 744.013, 0.743 739.750 C 0.931 735.487, 0.931 728.513, 0.743 724.250 C 0.556 719.987, 0.402 723.475, 0.402 732 M 312.391 735.423 C 312.100 736.181, 312.799 743.258, 313.943 751.151 C 317.108 772.981, 317.953 787.636, 317.977 821.191 C 317.990 838.071, 318.367 852.109, 318.815 852.385 C 319.263 852.662, 327.113 850.453, 336.261 847.475 C 358.032 840.388, 370.196 837, 373.873 837 C 375.903 837, 377.516 837.841, 378.927 839.635 C 380.744 841.945, 380.998 843.640, 380.985 853.385 C 380.953 875.794, 377.308 919.821, 372.988 949.955 C 371.447 960.705, 370.550 969.884, 370.996 970.353 C 372.154 971.573, 397.673 970.729, 398.973 969.428 C 399.734 968.666, 399.606 965.342, 398.529 957.928 C 394.920 933.077, 394.668 926.349, 394.409 848 L 394.150 769.500 388.562 753.523 C 385.489 744.735, 382.418 737.028, 381.737 736.396 C 380.883 735.602, 370.030 735.059, 346.710 734.645 C 318.519 734.144, 312.832 734.273, 312.391 735.423 M 18 742.876 C 18 743.516, 19.050 745.718, 20.334 747.770 C 25.905 756.672, 38.342 780.646, 43.908 793.210 C 69.956 852.011, 82 908.619, 82 972.251 L 82 992.212 90.104 984.856 C 114.603 962.620, 153.658 933.805, 181.250 917.607 C 186.613 914.459, 191 911.484, 191 910.996 C 191 907.610, 171.488 846.796, 163.445 825.114 C 160.016 815.870, 159.237 814.579, 156.370 813.381 C 144.747 808.525, 129.185 811.999, 112.761 823.116 C 105.914 827.750, 100.885 828.332, 98.629 824.750 C 97.850 823.513, 96.904 819.888, 96.527 816.696 C 94.163 796.650, 84.010 777.569, 67.594 762.316 C 58.578 753.940, 51.525 749.632, 40.733 745.912 C 31.527 742.739, 18 740.932, 18 742.876 M 1634.620 755.250 C 1628.157 790.042, 1625.103 801.797, 1617.030 822.939 C 1614.838 828.680, 1613.252 833.586, 1613.506 833.839 C 1613.760 834.093, 1622.862 836.873, 1633.734 840.017 C 1644.605 843.161, 1655.834 846.435, 1658.688 847.294 C 1662.895 848.560, 1664.077 848.612, 1664.942 847.570 C 1667.492 844.497, 1673 815.933, 1673 805.781 C 1673 801.715, 1672.056 799.990, 1662.401 786.409 C 1650.604 769.814, 1637.278 753, 1635.922 753 C 1635.436 753, 1634.850 754.013, 1634.620 755.250 M 273.500 759.110 C 262.917 761.241, 248.730 769.776, 242.141 777.974 L 238.962 781.930 244.393 796.262 C 255.420 825.359, 270.982 862.272, 274.459 867.578 L 275.939 869.836 289.219 864.634 L 302.500 859.432 302.801 827.466 C 303.092 796.494, 301.863 768.400, 300.002 763.506 C 299.402 761.927, 297.812 760.761, 295.298 760.057 C 289.517 758.439, 279.082 757.986, 273.500 759.110 M 1683.593 826.250 C 1683.229 828.587, 1681.771 835.384, 1680.354 841.353 C 1678.187 850.476, 1677.994 852.407, 1679.138 853.472 C 1679.887 854.168, 1686.575 856.893, 1694 859.525 C 1701.425 862.158, 1708.063 864.515, 1708.750 864.763 C 1711.144 865.627, 1709.961 862.384, 1703.902 851.477 C 1694.655 834.831, 1686.630 822.076, 1685.378 822.036 C 1684.761 822.016, 1683.958 823.913, 1683.593 826.250 M 699.033 842.750 C 682.058 901.056, 670.364 923.748, 642.810 951.844 C 631.822 963.047, 611.338 980.336, 597.276 990.274 C 591.652 994.248, 587.040 998.035, 587.026 998.688 C 587.011 999.342, 588.283 1002.267, 589.851 1005.188 C 591.420 1008.110, 597.018 1018.825, 602.293 1029 C 607.567 1039.175, 615.715 1054.475, 620.400 1063 C 630.419 1081.234, 627.604 1080.190, 649.074 1073.638 C 704.918 1056.599, 754.271 1030.533, 795.778 996.156 C 808.860 985.320, 836 959.110, 836 957.311 C 836 956.756, 831.837 953.551, 826.750 950.190 C 797.104 930.602, 765.136 901.101, 743.756 873.599 C 735.481 862.954, 723.530 844.948, 718.983 836.274 C 716.093 830.760, 715.382 830.082, 711.453 829.092 C 703.268 827.031, 703.769 826.480, 699.033 842.750 M 1998.750 830.332 C 1997.786 832.687, 1997.783 880.562, 1998.745 912.088 C 1999.383 932.988, 1999.583 935.133, 2000.133 927 C 2000.955 914.855, 2000.951 852.781, 2000.127 839 C 1999.756 832.792, 1999.193 829.249, 1998.750 830.332 M 512.569 832.888 C 512.268 833.376, 514.257 837.200, 516.990 841.387 C 524.560 852.984, 525.718 855.764, 529.415 871.215 C 533.615 888.771, 535.461 893.734, 546.257 916.515 C 565.485 957.086, 577.091 980, 578.412 980 C 580.109 980, 592.325 971.335, 605 961.141 C 624.076 945.798, 640.064 928.945, 650.929 912.724 C 657.349 903.139, 666.242 884.842, 665.057 883.657 C 663.462 882.062, 649.695 881.101, 642.500 882.082 C 629.943 883.793, 619.354 888.207, 608.349 896.318 C 602.875 900.351, 598.266 905.295, 589.959 916.045 C 587.979 918.608, 586.675 919.333, 584.053 919.333 C 578.984 919.333, 577.456 916.663, 576.027 905.306 C 574.371 892.154, 570.927 880.456, 565.336 869 C 556.852 851.614, 541.084 838.753, 522.391 833.972 C 513.571 831.716, 513.311 831.688, 512.569 832.888 M 1.436 874.500 C 1.436 888.800, 1.577 894.511, 1.748 887.191 C 1.919 879.871, 1.918 868.171, 1.747 861.191 C 1.575 854.211, 1.435 860.200, 1.436 874.500 M 1589.427 876.247 C 1576.835 894.770, 1550.649 922.727, 1536.737 932.500 C 1533.605 934.700, 1531.033 936.996, 1531.022 937.602 C 1531.010 938.208, 1533.647 946.083, 1536.883 955.102 C 1540.119 964.121, 1544.183 976.094, 1545.914 981.710 C 1547.645 987.325, 1549.465 992.169, 1549.958 992.474 C 1553.443 994.628, 1590.550 974.538, 1601.906 964.349 L 1606.312 960.396 1603.137 937.948 C 1599.325 910.990, 1596.021 881.469, 1596.009 874.250 C 1596.004 871.362, 1595.629 869, 1595.177 869 C 1594.724 869, 1592.136 872.261, 1589.427 876.247 M 484.548 884.683 C 469.725 891.507, 457.050 897.544, 456.381 898.099 C 455.468 898.856, 456.898 901.564, 462.120 908.963 C 469.524 919.455, 480.368 939.687, 503.678 986.500 C 511.620 1002.450, 518.654 1016.011, 519.309 1016.635 C 519.964 1017.260, 524.004 1018.532, 528.287 1019.462 C 549.780 1024.129, 567.100 1039.327, 579.858 1064.715 C 586.271 1077.474, 588.448 1086.395, 588.468 1100 C 588.488 1112.664, 587.011 1118.700, 581.837 1127.111 C 580.277 1129.646, 578.995 1132.121, 578.988 1132.611 C 578.982 1133.100, 583.950 1143.400, 590.028 1155.500 C 596.106 1167.600, 603.895 1184.475, 607.337 1193 C 610.779 1201.525, 614.023 1208.347, 614.547 1208.160 C 616.850 1207.338, 668 1167.728, 668 1166.766 C 668 1166.178, 664.063 1161.602, 659.250 1156.598 C 654.438 1151.594, 648.189 1144.125, 645.365 1140 C 636.959 1127.723, 618.638 1094.996, 588.264 1038 C 582.343 1026.890, 546.433 955.153, 542.138 945.855 C 540.523 942.360, 535.743 932.300, 531.515 923.500 C 521.691 903.049, 518.818 895.726, 516.017 884 C 514.769 878.775, 513.242 874, 512.624 873.388 C 511.797 872.571, 504.372 875.558, 484.548 884.683 M 1669.635 920.073 C 1667.893 921.443, 1667 923.108, 1667 924.986 C 1667 927.765, 1668.873 930.295, 1706.987 979 C 1710.645 983.675, 1726.207 1003.294, 1741.569 1022.599 C 1756.931 1041.903, 1784.785 1077.003, 1803.466 1100.599 C 1822.147 1124.194, 1849.845 1159.025, 1865.017 1178 C 1895.221 1215.775, 1931.976 1262.318, 1969.888 1310.800 C 1993.281 1340.715, 1994.500 1342.086, 1997.432 1341.800 L 2000.500 1341.500 2000.797 1334.096 C 2001.077 1327.108, 2000.930 1326.518, 1998.188 1323.596 C 1996.590 1321.893, 1983.202 1304.975, 1968.438 1286 C 1953.673 1267.025, 1923.089 1228.308, 1900.472 1199.962 C 1877.855 1171.615, 1841.862 1126.390, 1820.488 1099.462 C 1799.114 1072.533, 1769.482 1035.200, 1754.639 1016.500 C 1739.797 997.800, 1719.938 972.825, 1710.508 961 C 1701.079 949.175, 1689.882 935.092, 1685.627 929.704 C 1679.298 921.691, 1675.180 918, 1672.570 918 C 1672.405 918, 1671.084 918.933, 1669.635 920.073 M 290.724 940.750 C 247.832 994.756, 58.585 1246.403, 8.172 1316.468 L 1 1326.436 1 1334.282 L 1 1342.127 3.949 1341.813 C 6.941 1341.495, 15.288 1330.759, 65.524 1262.611 C 118.547 1190.684, 234.130 1036.871, 277.518 980.500 C 291.911 961.800, 304.207 945.517, 304.844 944.316 C 307.513 939.274, 304.548 934, 299.043 934 C 296.588 934, 295.174 935.147, 290.724 940.750 M 1070.615 944.128 C 1070.348 945.432, 1069.404 950.775, 1068.517 956 C 1067.629 961.225, 1065.090 973.768, 1062.874 983.873 C 1060.659 993.978, 1059.218 1002.617, 1059.673 1003.072 C 1061.044 1004.441, 1086.474 1008.751, 1103 1010.414 C 1155.642 1015.713, 1190.676 1016.005, 1228.285 1011.461 C 1241.912 1009.814, 1257.159 1007.092, 1258.145 1006.129 C 1258.499 1005.783, 1258.187 1001.675, 1257.452 997 C 1255.572 985.050, 1254 964.760, 1254 952.446 C 1254 940.442, 1255.120 941.296, 1242.250 943.496 C 1223.075 946.775, 1205.437 948.200, 1177.614 948.719 C 1146.882 949.293, 1127.127 948.335, 1097.500 944.836 C 1088.150 943.732, 1078.385 942.587, 1075.800 942.292 C 1071.461 941.796, 1071.062 941.937, 1070.615 944.128 M 1606.485 977.024 C 1604.070 980.932, 1573.903 998.024, 1561.500 1002.511 C 1553.339 1005.464, 1553.398 1005.222, 1557.811 1017.580 C 1564.755 1037.027, 1579.695 1070.672, 1582.373 1072.895 C 1585.348 1075.364, 1612.120 1068.988, 1624.760 1062.800 C 1630.495 1059.992, 1631.485 1059.127, 1631.398 1057 C 1631.341 1055.625, 1628.741 1046.175, 1625.619 1036 C 1622.497 1025.825, 1617.627 1008.163, 1614.797 996.750 C 1609.940 977.158, 1608.506 973.755, 1606.485 977.024 M 370.323 986.696 C 367.078 987.328, 366.544 988.503, 364.053 1000.500 C 353.381 1051.886, 334.278 1108.971, 312.457 1154.687 C 308.470 1163.040, 305.405 1170.071, 305.645 1170.312 C 305.886 1170.553, 310.096 1169.240, 315 1167.394 C 334.313 1160.126, 358.823 1153.802, 382.593 1149.955 C 389.692 1148.806, 395.855 1147.519, 396.288 1147.095 C 396.722 1146.671, 396.563 1140.288, 395.936 1132.912 C 394.475 1115.722, 394.477 1035.585, 395.938 1018.500 C 396.550 1011.350, 397.720 1001.529, 398.538 996.675 C 399.356 991.822, 399.768 987.434, 399.454 986.925 C 398.900 986.029, 374.725 985.839, 370.323 986.696 M 1246 1028.086 C 1214.136 1033.160, 1181.287 1034.813, 1147.275 1033.053 C 1134.501 1032.392, 1123.652 1032.097, 1123.165 1032.398 C 1121.855 1033.208, 1125.353 1054.469, 1130.393 1076.329 C 1132.824 1086.873, 1135.322 1098.557, 1135.944 1102.294 C 1137.634 1112.457, 1137.420 1130.301, 1135.506 1138.693 C 1132.970 1149.815, 1130.595 1152.329, 1114.922 1160.485 C 1103.891 1166.226, 1100.245 1168.719, 1094.452 1174.485 C 1084.075 1184.814, 1078.929 1196.438, 1081.623 1203.461 C 1081.966 1204.354, 1083.998 1205.978, 1086.138 1207.070 L 1090.029 1209.055 1091.014 1206.462 C 1091.556 1205.037, 1092 1203.337, 1092.001 1202.685 C 1092.003 1199.819, 1098.113 1189.049, 1102.483 1184.208 C 1107.450 1178.707, 1111.524 1176, 1114.840 1176 C 1117.537 1176, 1120.794 1178.991, 1121.542 1182.154 C 1122.077 1184.419, 1121.219 1185.843, 1115.691 1191.866 C 1111.520 1196.412, 1108.642 1200.604, 1107.607 1203.641 C 1104.965 1211.394, 1105.102 1211.626, 1112.750 1212.348 C 1137.396 1214.676, 1170.611 1210.341, 1185.214 1202.891 C 1191.296 1199.788, 1198.522 1192.539, 1203.508 1184.539 C 1211.889 1171.093, 1234.217 1122.607, 1250.499 1082.500 C 1254.741 1072.050, 1260.158 1059, 1262.537 1053.500 L 1266.862 1043.500 1265.415 1037 C 1264.619 1033.425, 1263.741 1029.487, 1263.465 1028.250 C 1262.860 1025.544, 1262.013 1025.536, 1246 1028.086 M 511.500 1037.330 C 506.914 1039.420, 501.451 1046.126, 499.457 1052.114 C 496.758 1060.219, 497.149 1073.352, 500.392 1083.500 C 505.185 1098.497, 513.981 1110.549, 525.809 1118.322 C 548.258 1133.077, 568.286 1126.273, 569.781 1103.385 C 570.305 1095.366, 569.466 1094.059, 565.700 1097.022 C 561.724 1100.149, 552.804 1103.979, 549.473 1103.990 C 545.073 1104.004, 542 1101.491, 542 1097.878 C 542 1093.067, 543.541 1091.361, 551.247 1087.644 C 555.236 1085.719, 560.011 1082.579, 561.858 1080.664 L 565.215 1077.183 562.045 1070.744 C 560.302 1067.202, 557.495 1062.630, 555.807 1060.582 L 552.739 1056.860 549.620 1059.866 C 544.965 1064.350, 535.573 1069.663, 529.894 1071.025 C 525.182 1072.156, 524.724 1072.089, 522.437 1069.941 C 519.514 1067.195, 519.166 1062.044, 521.750 1059.769 C 522.712 1058.921, 525.975 1057.001, 529 1055.502 C 535.750 1052.157, 541.002 1048.302, 540.993 1046.699 C 540.989 1046.040, 539.527 1044.510, 537.743 1043.299 C 529.039 1037.392, 517.249 1034.710, 511.500 1037.330 M 1628.195 1075.642 C 1621.092 1079.003, 1600.716 1084.981, 1596.315 1084.994 C 1595.113 1084.997, 1592.982 1085.436, 1591.579 1085.970 L 1589.028 1086.940 1595.162 1096.720 C 1615.177 1128.631, 1638.431 1152.758, 1667 1171.256 C 1674.495 1176.108, 1689.031 1184, 1690.475 1184 C 1691.697 1184, 1690.638 1181.727, 1684.085 1170.290 C 1668.522 1143.125, 1653.671 1112.486, 1641.326 1082.075 C 1639.222 1076.891, 1637.050 1072.545, 1636.500 1072.417 C 1635.950 1072.289, 1632.213 1073.740, 1628.195 1075.642 M 0.422 1120 C 0.422 1131.275, 0.568 1135.888, 0.746 1130.250 C 0.924 1124.612, 0.924 1115.388, 0.746 1109.750 C 0.568 1104.112, 0.422 1108.725, 0.422 1120 M 1540.073 1267.635 C 1537.438 1270.984, 1537.468 1272.284, 1540.250 1275.443 C 1541.954 1277.378, 1545.807 1278.958, 1556.128 1281.955 C 1587.145 1290.961, 1655.144 1313.158, 1706.749 1331.122 L 1737.999 1342 1757.699 1342 C 1768.542 1342, 1776.973 1341.619, 1776.450 1341.153 C 1775.927 1340.687, 1767.175 1337.493, 1757 1334.055 C 1746.825 1330.617, 1728.150 1324.082, 1715.500 1319.532 C 1665.577 1301.578, 1551.004 1265, 1544.690 1265 C 1543.132 1265, 1541.342 1266.022, 1540.073 1267.635" stroke="none" fill="black" fill-rule="evenodd"/>
</svg>