<svg xmlns="http://www.w3.org/2000/svg" width="1024" height="688" viewBox="0 0 1024 688" version="1.1">
	<path d="M 48 1.007 C 48 1.560, 48.682 6.554, 49.516 12.104 C 55.181 49.823, 60.605 104, 59.014 106.974 C 57.204 110.355, 57.828 116.007, 60.341 118.993 C 64.165 123.538, 67.940 148.105, 73.440 204.250 C 73.975 209.710, 72.837 210.434, 70.935 205.843 C 64.537 190.398, 41.501 166.834, 24.290 158.129 C 15.743 153.807, 14.820 155.467, 19.048 167.567 C 26.215 188.075, 43.168 211.379, 59.405 223.039 C 61.932 224.854, 64 226.713, 64 227.170 C 64 227.626, 62.520 228, 60.710 228 C 55.446 228, 46.082 230.746, 38.168 234.610 C 26.373 240.370, 10.574 256.842, 12.366 261.512 C 13.111 263.452, 20.208 263.451, 29.369 261.510 C 42.962 258.630, 54.688 253.157, 66.772 244.051 C 71.189 240.723, 75.033 238, 75.316 238 C 75.952 238, 76.791 247.685, 77.956 268.500 C 78.700 281.772, 78.609 284.878, 77.426 286.715 C 74.838 290.735, 75.990 296.623, 80.027 300 C 81.385 301.136, 82.313 305.017, 83.853 316 C 86.373 333.974, 88.462 357.353, 87.721 359.285 C 87.383 360.166, 85.280 360.912, 82.333 361.196 C 76.085 361.800, 70.502 364.498, 65.825 369.175 C 59.921 375.079, 57.721 380.299, 57.209 389.618 L 56.763 397.735 48.132 397.264 C 36.804 396.646, 30.314 398.963, 22.116 406.553 C 8.837 418.847, 6.853 437.339, 17.083 453.470 C 18.744 456.089, 19.967 458.325, 19.801 458.440 C 19.636 458.555, 16.779 459.134, 13.454 459.726 C 4.795 461.268, 0 463.466, 0 465.893 C 0 467.868, 0.046 467.867, 4.750 465.767 C 7.994 464.319, 12.195 463.523, 18 463.255 C 22.675 463.039, 27.103 462.667, 27.840 462.428 C 28.734 462.138, 27.601 460.247, 24.437 456.747 C 17.211 448.753, 14.553 442.221, 14.570 432.500 C 14.586 423.366, 16.565 417.843, 22.063 411.581 C 26.619 406.392, 31.881 403.245, 39.092 401.398 C 45.997 399.629, 51.494 400.153, 57.392 403.143 C 59.533 404.228, 61.638 404.752, 62.071 404.308 C 62.504 403.864, 62.196 401.025, 61.386 398 C 57.183 382.297, 67.530 366.534, 83.477 364.348 C 86.821 363.890, 88.079 364.085, 88.427 365.117 C 88.684 365.878, 89.600 374.825, 90.464 385 C 91.327 395.175, 93.207 415.557, 94.640 430.293 C 96.074 445.030, 97.012 457.321, 96.726 457.607 C 96.440 457.893, 93.122 456.003, 89.353 453.406 C 82.388 448.608, 68.739 441.709, 63.759 440.470 C 61.783 439.978, 60.858 440.206, 60.443 441.287 C 60.098 442.188, 66.062 452.700, 75.380 467.614 C 83.912 481.268, 90.760 492.573, 90.597 492.736 C 90.435 492.898, 86.746 491.242, 82.401 489.055 C 78.055 486.869, 70.528 483.941, 65.673 482.550 C 57.445 480.192, 40.444 477.762, 38.750 478.702 C 36.752 479.811, 38.590 482.245, 44.735 486.631 C 57.043 495.413, 82.079 518.022, 79.458 517.987 C 78.931 517.980, 75.575 517.044, 72 515.907 C 57.870 511.412, 38.946 512.562, 26.314 518.683 C 20.755 521.376, 18.297 524.576, 21.176 525.372 C 30.487 527.947, 44.014 532.985, 50 536.108 C 58.584 540.585, 70.683 549.272, 69.079 549.807 C 68.486 550.005, 65.729 549.679, 62.952 549.083 C 52.034 546.742, 37.920 548.669, 28.512 553.787 C 23.631 556.442, 21.542 559.624, 24.176 560.392 C 24.904 560.604, 29.456 561.728, 34.291 562.890 C 43.191 565.028, 59 571.574, 59 573.120 C 59 574.055, 59.270 573.983, 42.500 577.512 C 30.650 580.006, 15.504 584.343, 5.263 588.175 C 1.571 589.556, -0 590.685, -0 591.957 C -0 593.588, 1.172 593.378, 11.672 589.859 C 26.446 584.908, 38.795 581.782, 56.500 578.512 C 72.109 575.628, 93.979 572.869, 95.207 573.628 C 95.646 573.899, 95.494 575.078, 94.868 576.247 C 94.242 577.416, 93.454 581.765, 93.115 585.912 L 92.500 593.452 85.716 595.227 C 62.014 601.426, 45 620.409, 45 640.655 C 45 643.649, 45.678 647.409, 46.506 649.011 C 51.579 658.822, 83.826 665.827, 111.832 663.201 C 131.334 661.373, 145.898 656.854, 151.632 650.854 C 154.268 648.096, 154.489 647.289, 154.358 640.862 C 154.237 634.876, 154.443 633.956, 155.791 634.473 C 159.324 635.829, 176.059 636.189, 184.500 635.091 C 203.380 632.635, 216.626 627.385, 223.926 619.464 C 235.262 607.167, 230.387 588.261, 213.722 579.892 C 211.400 578.726, 208.030 576.670, 206.234 575.323 C 202.671 572.651, 195.805 563.124, 196.561 561.901 C 197.079 561.063, 199.416 560.780, 225 558.463 C 234.625 557.591, 251.500 555.571, 262.500 553.975 C 281.937 551.155, 308.968 548.180, 335.500 545.943 L 348.500 544.846 352.449 549.673 C 359.495 558.287, 381.289 579.428, 389.663 585.773 C 418.633 607.722, 455.198 626.363, 489 636.415 C 522.516 646.382, 556.493 650.697, 593.500 649.687 C 624.010 648.853, 647.698 644.740, 672.432 635.979 C 712.777 621.688, 740.035 596.976, 750.956 564.788 C 752.490 560.264, 754.397 556.152, 755.193 555.650 C 758.682 553.450, 858.166 567.316, 923.500 579.110 C 953.274 584.485, 994.377 594.262, 1014.780 600.824 C 1023.158 603.518, 1024 603.627, 1024 602.016 C 1024 600.140, 1022.198 599.237, 1012.750 596.376 C 1009.587 595.418, 1007.011 594.154, 1007.024 593.567 C 1007.037 592.980, 1008.834 591.178, 1011.017 589.563 C 1015.742 586.068, 1019.733 580.589, 1020.552 576.475 C 1020.983 574.312, 1020.505 572.544, 1018.802 570 C 1015.320 564.796, 1010.772 562.820, 1003.250 563.243 C 999.812 563.437, 997 563.399, 997 563.160 C 997 562.922, 1000.038 559.358, 1003.750 555.241 C 1017.068 540.472, 1020.406 536.006, 1019.101 534.703 C 1018.346 533.950, 1014.641 533.500, 1009.198 533.500 C 998.626 533.500, 988.934 536.367, 980.324 542.041 C 977.121 544.152, 974.363 545.495, 974.195 545.024 C 973.472 542.998, 988.030 517.065, 1002.673 494.296 C 1007.492 486.802, 1011.004 480.315, 1010.795 479.296 C 1009.966 475.268, 994.891 479.296, 981.846 487.030 C 978.187 489.200, 971.535 494.416, 967.064 498.622 C 962.593 502.828, 958.653 505.986, 958.307 505.640 C 957.961 505.295, 956.807 494.127, 955.741 480.823 C 953.560 453.592, 953.410 454.669, 960.791 444.608 C 965.675 437.949, 972.071 434, 977.973 434 C 985.953 434, 990 439.037, 990 448.968 C 990 451.875, 990.452 454, 991.070 454 C 991.658 454, 994.192 452.588, 996.700 450.863 C 1004.385 445.575, 1014.306 445.696, 1020.521 451.153 L 1024 454.207 1024 451.759 C 1024 448.853, 1021.777 446.640, 1016.746 444.538 C 1011.422 442.314, 1005.308 442.643, 999.208 445.483 C 993.540 448.122, 993.636 448.171, 992.595 442.166 C 992.277 440.332, 991.167 437.632, 990.129 436.166 C 988.721 434.178, 987.452 427.776, 985.139 411 C 981.096 381.671, 979.598 367.490, 980.338 365.561 C 981.258 363.164, 988.629 363.614, 994.690 366.436 C 1005.852 371.633, 1011.528 386.282, 1007.529 399.570 C 1006.719 402.263, 1006.441 404.841, 1006.910 405.310 C 1007.379 405.779, 1009.594 405.227, 1011.841 404.081 C 1014.085 402.936, 1017.738 402, 1019.960 402 C 1023.423 402, 1024 401.694, 1024 399.858 C 1024 397.836, 1023.661 397.750, 1018 398.342 L 1012 398.969 1012 391.522 C 1012 378.895, 1006.576 368.411, 997.653 363.792 C 995.146 362.494, 990.726 361.416, 986.500 361.071 L 979.500 360.500 978.687 350 C 977.485 334.493, 978.626 264.282, 980.391 245.072 C 983.054 216.088, 984.043 209.720, 986.258 207.290 C 988.637 204.681, 988.994 197.905, 986.886 195.357 C 984.165 192.066, 985.815 142.555, 990.049 100.440 C 992.813 72.954, 1001.072 12.723, 1003.514 2.250 C 1003.947 0.393, 1003.616 0, 1001.622 0 C 998.754 0, 998.838 -0.390, 993.540 37.500 C 985.179 97.306, 981 144.625, 981 179.488 C 981 190, 980.692 193.011, 979.515 193.987 C 976.987 196.086, 962.410 196.438, 953.589 194.614 C 944.049 192.641, 942.655 191.675, 943.410 187.564 C 943.719 185.879, 945.771 166.275, 947.969 144 C 951.535 107.860, 954.603 79.780, 961.025 24.500 C 962.111 15.150, 963.264 5.813, 963.588 3.750 C 964.134 0.265, 964 0, 961.692 0 C 959.306 0, 959.180 0.324, 958.490 8.250 C 958.095 12.787, 957.383 17.239, 956.909 18.142 C 956.434 19.045, 952.863 21.400, 948.974 23.376 C 929.001 33.523, 911.257 52.558, 904.317 71.281 C 903.356 73.877, 902.313 76, 902 76 C 901.687 76, 899.493 62.163, 897.125 45.250 C 894.757 28.337, 892.356 11.238, 891.788 7.250 C 890.842 0.596, 890.563 -0, 888.403 -0 C 886.385 -0, 886.119 0.392, 886.535 2.750 C 886.801 4.262, 889.474 22.825, 892.475 44 C 899.254 91.845, 905.598 130.049, 912.152 162.500 C 914.929 176.250, 917.269 188.175, 917.351 189 C 917.733 192.848, 899.990 197.483, 887.877 196.699 C 876.957 195.993, 876.346 195.502, 875.516 186.770 C 872.310 153.022, 863.272 89.109, 855.538 45.500 C 847.034 -2.452, 847.719 0.548, 845.195 0.180 C 843.988 0.005, 843 0.376, 843 1.007 C 843 1.637, 844.774 11.456, 846.942 22.826 C 859.048 86.315, 871.929 179.159, 870.551 193 C 869.485 203.704, 869.605 204.819, 872.247 208.738 C 874.167 211.586, 875.195 215.253, 876.479 223.830 C 877.927 233.510, 877.996 237.630, 876.680 235.917 C 871.801 229.562, 866.460 220.429, 864.829 215.651 C 855.782 189.142, 839.846 170.360, 816.500 158.690 C 808.202 154.542, 795.558 150.537, 793.931 151.542 C 790.663 153.562, 798.278 170.542, 808.649 184.360 C 815.400 193.355, 828.491 206.885, 835.679 212.294 C 840.378 215.831, 841.213 217.570, 837.750 216.608 C 836.512 216.264, 831.413 215.699, 826.419 215.352 C 806.395 213.960, 786.073 219.727, 768.178 231.879 C 757.504 239.128, 745.071 253.137, 746.351 256.473 C 747.131 258.504, 750.293 258.412, 765.125 255.926 C 784.950 252.602, 802.822 247.735, 826.918 239.094 C 833.198 236.842, 838.951 235, 839.702 235 C 840.453 235, 837.913 238.186, 834.057 242.081 C 821.966 254.293, 813.526 269.245, 808.849 286.737 C 806.478 295.609, 804.986 322.386, 806.765 324.165 C 808.354 325.754, 810.632 324.072, 820.737 313.847 C 841.064 293.277, 854.113 271.520, 860.054 248.288 C 861.124 244.104, 862 239.627, 862 238.340 C 862 237.053, 862.416 236, 862.924 236 C 863.432 236, 867.952 242.600, 872.969 250.667 L 882.090 265.334 884.989 288.417 C 888.756 318.407, 893.240 362.303, 892.825 365.121 C 892.536 367.085, 891.840 367.353, 886.500 367.553 C 883.200 367.678, 879.660 367.941, 878.633 368.140 C 877.203 368.416, 876.482 367.565, 875.548 364.500 C 866.163 333.694, 827.833 323.935, 803.515 346.160 C 798.009 351.193, 792 361.281, 792 365.493 C 792 368.890, 791.210 368.978, 786.188 366.145 C 782.357 363.983, 780.221 363.500, 774.500 363.500 C 762.946 363.500, 753.583 369.374, 747.756 380.278 C 745.894 383.762, 745.500 386.074, 745.500 393.500 L 745.500 402.500 739.500 402.542 C 732.101 402.594, 725.845 405.258, 719.596 411.018 C 712.928 417.165, 709.743 424.523, 709.210 435.017 L 708.778 443.535 702.570 443.517 C 697.415 443.503, 695.637 443.979, 692.089 446.325 C 689.739 447.879, 687.714 449.004, 687.589 448.825 C 687.464 448.646, 686.580 445.575, 685.624 442 C 683.274 433.206, 677.883 422.541, 672.780 416.589 C 669.166 412.374, 659.309 404.936, 655.777 403.759 C 655.163 403.554, 657.325 400.209, 660.581 396.325 C 675.550 378.466, 683.176 357.876, 683.294 335 C 683.408 312.871, 674.982 295.442, 659.285 285.339 C 653.325 281.504, 653.282 280.612, 658.783 274.814 C 661.449 272.005, 662.248 270.340, 662.144 267.814 C 662.069 265.991, 661.995 262.925, 661.980 261 C 661.947 256.820, 670.979 226.459, 677.901 207.475 C 681.592 197.356, 683.784 192.874, 686.536 189.829 C 690.015 185.977, 690.188 185.473, 689.582 180.909 C 689.041 176.832, 689.516 174.533, 692.598 166.286 C 696.731 155.228, 706.907 134, 708.076 134 C 708.499 134, 709.392 135.688, 710.061 137.750 C 717.135 159.572, 736.033 179.179, 761.489 191.108 C 773.873 196.911, 774.960 196.492, 772.467 186.873 C 768.035 169.769, 752.034 147.467, 737.752 138.486 C 735.140 136.844, 733.003 135.132, 733.002 134.681 C 733.001 134.231, 736.487 134.164, 740.750 134.533 C 756.909 135.932, 780.427 132.043, 809.062 123.236 C 822.231 119.186, 824.500 118.195, 824.500 116.494 C 824.500 112.267, 806.670 106.013, 788.588 103.899 C 781.121 103.026, 775.901 103.021, 767.424 103.881 C 757.689 104.868, 741.254 108.309, 735.750 110.513 C 732.373 111.866, 734.163 109.453, 740.210 104.500 C 755.050 92.348, 774.413 67.635, 782.988 49.903 C 788.913 37.649, 788.735 37.319, 777.358 39.496 C 740.608 46.527, 706.795 72.205, 689.939 105.881 C 687.666 110.423, 685.585 113.918, 685.314 113.647 C 685.043 113.376, 685.529 109.734, 686.394 105.552 C 690.992 83.320, 690.689 62.629, 685.452 40.997 C 682.807 30.076, 677.497 16.332, 673.438 9.901 C 669.508 3.676, 668.082 4.801, 663.790 17.512 C 658.678 32.652, 656.838 43.872, 656.824 60 C 656.805 81.663, 661.732 101.152, 672.304 121.236 C 676.079 128.408, 677.134 131.266, 676.311 132.089 C 675.488 132.912, 674.291 131.797, 671.766 127.853 C 665.394 117.902, 653.944 108.938, 642.441 104.895 C 634.919 102.251, 634.257 102.999, 636.426 111.687 C 640.202 126.817, 648.897 140.070, 660.907 149.001 C 664.808 151.902, 668 154.586, 668 154.965 C 668 157.514, 662.296 168.947, 659.999 171 C 656.774 173.884, 655.746 177.202, 657.032 180.583 C 657.744 182.456, 655.721 189.503, 647.379 214.217 C 634.506 252.354, 634.701 251.873, 630.724 255.182 C 627.704 257.694, 627.513 258.232, 627.713 263.700 C 627.830 266.910, 627.331 271.553, 626.603 274.018 C 625.329 278.336, 625.108 278.525, 620.592 279.174 C 618.014 279.545, 614.072 280.803, 611.832 281.970 C 609.592 283.138, 607.666 283.960, 607.550 283.797 C 607.435 283.633, 605.415 281.371, 603.061 278.769 L 598.780 274.038 603.423 268.875 C 609.707 261.886, 618.382 248.667, 620.920 242.213 C 622.064 239.305, 623 234.762, 623 232.118 C 623 226.368, 623.965 225.315, 633.193 220.997 C 636.857 219.282, 640.379 217.249, 641.018 216.478 C 643.999 212.886, 636.953 203.418, 628 198.983 C 625.525 197.757, 623.328 196.600, 623.118 196.412 C 622.908 196.223, 624.976 193.619, 627.713 190.623 C 630.933 187.100, 633.143 183.560, 633.973 180.596 C 635.781 174.140, 634.610 173.004, 626.128 172.985 C 620.267 172.971, 615.691 171.831, 617.029 170.716 C 617.288 170.501, 619.551 168.939, 622.057 167.247 C 626.925 163.960, 634 156.676, 634 154.952 C 634 151.356, 621.258 144.122, 613.356 143.231 C 610.960 142.961, 609 142.543, 609 142.303 C 609 142.063, 610.095 140.431, 611.434 138.676 C 616.934 131.464, 620.842 119.256, 618.176 117.609 C 617.723 117.329, 614.533 117.977, 611.087 119.050 C 601.049 122.174, 601.362 122.391, 600.568 111.750 C 597.665 72.805, 579.380 31.510, 561.271 22.997 C 550.425 17.899, 535.400 23.086, 518.024 37.927 C 502.428 51.247, 492.594 63.640, 484.003 80.801 L 478.897 91 471.521 91 C 438.329 91, 402.761 105.790, 379.922 129.090 L 373.345 135.800 362.422 134.316 C 343.478 131.744, 319.598 133.680, 303.029 139.133 C 280.433 146.568, 269.036 157.108, 269.010 170.590 C 268.976 188.290, 284.049 217.927, 302.655 236.743 C 307.245 241.385, 311 245.357, 311 245.571 C 311 246.270, 302.635 250.246, 297.512 251.982 C 290.848 254.240, 290.457 256.610, 296.019 261.015 C 300.909 264.888, 310.289 268.937, 314.500 268.992 C 319.916 269.062, 320.322 270.056, 317.473 276.278 C 316.056 279.374, 314.392 284.619, 313.775 287.934 C 312.784 293.262, 312.858 294.186, 314.413 295.904 C 316.359 298.054, 319.384 297.949, 328.654 295.411 C 331.489 294.635, 334.313 294, 334.930 294 C 336.381 294, 333.681 299.267, 329.675 304.254 L 326.659 308.008 329.014 310.515 C 332.170 313.875, 338.074 315.324, 346.250 314.745 C 349.962 314.482, 353 314.319, 352.999 314.384 C 352.999 314.448, 352.310 317.799, 351.469 321.831 C 349.770 329.974, 350.272 335.031, 353.027 337.524 C 354.742 339.077, 355.246 338.961, 361.178 335.659 C 368.178 331.762, 378.011 327.678, 378.710 328.376 C 378.957 328.624, 374.960 333.703, 369.828 339.663 C 352.219 360.111, 341.536 376.748, 334.043 395.393 L 329.981 405.500 321.234 405.500 L 312.486 405.500 312.841 398.471 C 313.474 385.940, 309.395 377.710, 300.023 372.609 C 291.455 367.946, 281.149 368.714, 273.453 374.588 C 270.994 376.465, 268.819 378, 268.619 378 C 268.419 378, 267.969 376.205, 267.618 374.010 C 265.628 361.566, 258.147 351.272, 247.500 346.329 C 239.504 342.617, 227.559 342.451, 218.656 345.930 C 207.107 350.443, 196.449 361.974, 193.636 373 C 192.310 378.195, 192.073 378.482, 189.366 378.182 C 187.790 378.007, 186.139 377.511, 185.697 377.080 C 185.256 376.648, 185.421 365.541, 186.063 352.397 C 187.032 332.591, 187.554 327.853, 189.116 324.719 C 191.327 320.281, 191.570 314.315, 189.630 312.079 C 188.648 310.947, 188.072 305.619, 187.593 293.250 C 187.226 283.762, 187.214 276, 187.566 276 C 187.919 276, 191.648 278.846, 195.853 282.325 C 206.620 291.232, 211.674 294.491, 223.313 300.036 C 234.506 305.367, 246.959 309.285, 259.868 311.536 C 275.468 314.257, 277.085 313.368, 272.144 304.785 C 258.135 280.451, 230.732 264.381, 206.750 266.436 C 203.037 266.754, 200 266.771, 200 266.474 C 200 266.176, 203.778 262.236, 208.395 257.717 C 213.425 252.793, 219.218 245.732, 222.851 240.096 C 231.825 226.176, 239.190 206.472, 236.128 204.579 C 234.553 203.606, 222.451 208.940, 215.454 213.692 C 207.751 218.923, 199.128 227.558, 194.121 235.056 C 191.954 238.302, 189.977 241.529, 189.727 242.228 C 188.094 246.806, 187.848 238.562, 188.908 214.764 C 190.521 178.530, 193.146 151.659, 195.555 146.720 C 197.158 143.434, 197.242 142.355, 196.199 138.456 C 193.862 129.718, 194.359 128.290, 202.923 119.114 C 210.663 110.820, 213 109.720, 213 114.371 C 213 123.635, 222.166 145.426, 230.988 157.135 C 237.449 165.711, 252.730 180.201, 254.870 179.780 C 256.282 179.502, 256.496 177.659, 256.468 165.980 C 256.442 154.788, 256.045 151.227, 254.126 145 C 250.493 133.203, 245.333 124.336, 237.396 116.250 C 229.536 108.241, 229.705 107.956, 240.688 110.706 C 251.381 113.383, 280.197 113.099, 294 110.179 C 305.704 107.704, 334.721 98.656, 337.520 96.609 C 341.693 93.557, 335.925 90.498, 316.215 85.310 C 308.084 83.169, 303.553 82.672, 288.427 82.258 C 270.980 81.781, 266.502 82.145, 247.500 85.588 C 244.861 86.066, 244.707 85.973, 246.225 84.816 C 247.173 84.092, 252.855 80.651, 258.851 77.169 C 281.078 64.263, 303.280 45.121, 317.368 26.719 C 325.867 15.618, 324.941 14.672, 308.381 17.536 C 296.373 19.614, 277.577 26.093, 265.853 32.197 C 240.484 45.406, 219.027 68.143, 209.977 91.410 C 207.352 98.159, 205.600 100.951, 201.365 105.133 C 198.442 108.020, 195.729 110.062, 195.337 109.671 C 194.084 108.418, 197.202 48.202, 200.588 8.250 C 201.257 0.365, 201.197 0, 199.232 -0 C 196.641 -0, 196.442 1.202, 194.517 28.500 C 192.545 56.456, 191.183 83.581, 190.358 111.300 C 189.712 133.021, 189.581 134.157, 187.590 135.286 C 186.277 136.031, 180.670 136.473, 172.500 136.477 C 162.279 136.481, 158.671 136.109, 155.622 134.738 C 151.746 132.996, 151.744 132.991, 152.351 128.247 C 153.741 117.389, 155.053 99.448, 157.011 64.530 C 158.150 44.197, 159.504 22.147, 160.019 15.530 C 161.299 -0.928, 161.390 0, 158.500 0 C 157.125 0, 156 0.166, 156 0.368 C 156 2.393, 150.894 95.369, 150.474 101 C 148.849 122.762, 147.751 130.603, 145.907 133.618 C 143.452 137.632, 143.489 142.708, 146 146.500 C 147.864 149.314, 147.987 151.235, 147.987 177.500 C 147.987 206.425, 147.096 231.042, 144.460 275 C 142.737 303.725, 142.437 306.070, 139.837 311.075 C 137.677 315.235, 138.201 319.967, 141.115 322.604 C 143.387 324.660, 143.562 333.868, 142.010 369.668 C 140.813 397.273, 140.060 407, 139.121 407 C 138.304 407, 134.929 386.534, 132.028 364 C 127.747 330.736, 125.728 295.904, 128 294.500 C 129.948 293.296, 129.094 285.746, 126.591 282.054 C 122.937 276.663, 117.464 243.754, 109.619 180 C 102.876 125.199, 102.386 119.089, 104.411 115.172 C 105.285 113.482, 106 110.744, 106 109.087 C 106 106.517, 106.901 105.463, 112.130 101.911 C 120.073 96.518, 128.743 87.662, 134.345 79.222 C 143.573 65.318, 144.148 61.268, 136.733 62.390 C 126.183 63.987, 111.316 74.102, 104.847 84.087 C 103.082 86.810, 101.325 88.692, 100.942 88.269 C 100.133 87.375, 96.292 58.923, 92.301 24.250 C 89.547 0.333, 89.477 0, 87.182 0 C 84.969 0, 84.884 0.254, 85.438 5.250 C 87.566 24.450, 93.486 71.184, 95.524 84.876 C 96.865 93.883, 97.726 101.634, 97.438 102.100 C 95.645 105.001, 71.969 108.165, 66.899 106.180 C 64.400 105.203, 64.270 104.754, 63.609 94.831 C 62.703 81.240, 58.656 44.486, 55.511 21.286 C 54.130 11.102, 53 2.146, 53 1.384 C 53 0.574, 51.963 0, 50.500 0 C 49.125 0, 48 0.453, 48 1.007 M 666.600 21.851 C 662.511 35.181, 661.073 45.072, 661.035 60.140 C 660.995 75.568, 662.567 85.607, 667.180 99.384 C 670.546 109.439, 676.516 122, 677.929 122 C 678.882 122, 681.949 109.638, 684.133 97 C 686.042 85.950, 685.785 61.421, 683.647 50.626 C 680.641 35.450, 672.630 13, 670.220 13 C 669.723 13, 668.093 16.983, 666.600 21.851 M 304.148 22.537 C 287.843 26.076, 268.875 33.973, 255.750 42.687 C 245.048 49.792, 229.780 64.977, 222.994 75.264 C 217.121 84.168, 211.200 96.533, 212.289 97.622 C 212.993 98.326, 242.366 82.743, 257.025 73.888 C 270.323 65.854, 285.048 54.848, 294.462 45.906 C 301.728 39.004, 316 22.916, 316 21.627 C 316 20.651, 311.112 21.026, 304.148 22.537 M 546.746 26.055 C 528.667 30.463, 501.423 56.477, 488.855 81.334 C 484.360 90.223, 484.694 91.992, 490.872 92.011 C 492.868 92.017, 499.153 93.073, 504.840 94.358 C 511.848 95.941, 515.285 96.340, 515.507 95.597 C 515.686 94.994, 516.813 91.125, 518.010 87 C 522.896 70.163, 534.571 53.803, 545.526 48.443 C 549.187 46.652, 551.795 45.983, 553.470 46.403 C 563.038 48.805, 576.134 72.276, 580.364 94.607 C 583.416 110.720, 583.428 123.169, 580.403 137.028 C 579.944 139.135, 581.416 141.384, 589.239 150.528 C 598.171 160.968, 602.686 165.199, 607.775 167.893 C 609.719 168.922, 610.790 168.695, 615.129 166.333 C 617.923 164.813, 622.206 161.810, 624.648 159.661 C 628.975 155.852, 629.042 155.703, 627.293 153.747 C 624.306 150.405, 616.981 147.848, 608.719 147.262 C 604.440 146.958, 600.687 146.303, 600.379 145.805 C 600.072 145.307, 601.848 142.732, 604.326 140.083 C 608.986 135.100, 614.471 125.572, 613.543 124.070 C 613.253 123.600, 610.776 123.871, 608.040 124.673 C 605.303 125.475, 601.624 125.989, 599.863 125.816 L 596.661 125.500 596.340 117.500 C 595.636 99.934, 591.781 81.125, 585.611 65.149 C 574.052 35.220, 561.391 22.484, 546.746 26.055 M 949.333 27.407 C 936.909 34.511, 923.621 46.332, 916.764 56.378 C 909.418 67.140, 901.485 87.885, 903.821 90.221 C 905.139 91.539, 925.213 75.576, 934.648 65.706 C 939.653 60.471, 946.269 52.399, 949.351 47.767 C 954.460 40.089, 955.013 38.714, 955.621 32.173 C 956.389 23.906, 955.987 23.602, 949.333 27.407 M 764.500 47.065 C 743.898 53.993, 727.801 64.112, 713.693 79 C 701.593 91.770, 691.916 107.490, 687.047 122.286 C 684.593 129.739, 684.834 132, 688.081 132 C 691.610 132, 714.848 119.427, 724.500 112.295 C 736.505 103.424, 757.946 81.691, 766 70.230 C 772.793 60.562, 780.966 46.396, 780.987 44.250 C 781.008 42.166, 777.067 42.839, 764.500 47.065 M 548.355 51.447 C 544.026 53.330, 537.467 59.406, 532.485 66.149 C 528.495 71.548, 522.205 84.538, 523.131 85.465 C 523.374 85.708, 526.207 84.577, 529.427 82.953 C 535.885 79.696, 541.063 79.166, 543.048 81.558 C 544.123 82.853, 543.975 83.872, 542.171 87.585 C 540.977 90.043, 540 92.208, 540 92.398 C 540 92.587, 542.635 93.040, 545.856 93.404 C 552.858 94.196, 560.355 97.719, 560.863 100.454 C 561.090 101.681, 560.198 103.227, 558.466 104.609 L 555.706 106.809 559.698 108.846 C 564.010 111.046, 570 117.212, 570 119.451 C 570 120.211, 568.863 121.662, 567.473 122.674 L 564.946 124.515 570.448 129.949 C 573.474 132.938, 576.188 135.145, 576.479 134.854 C 578.073 133.260, 579.168 121.398, 578.603 111.827 C 577.232 88.572, 567.490 62.783, 556.397 53.044 C 552.454 49.581, 552.583 49.607, 548.355 51.447 M 950.374 53.310 C 943.480 63.960, 927.743 79.185, 913.250 89.227 C 909.263 91.989, 906.002 94.531, 906.005 94.875 C 906.007 95.219, 909.805 97.439, 914.444 99.808 C 925.446 105.427, 933.317 113.642, 939.051 125.488 C 941.304 130.143, 942.835 134.458, 942.453 135.077 C 940.392 138.411, 925.892 130.742, 915.382 120.758 C 909.419 115.094, 908 114.151, 908 115.856 C 908 118.261, 916.931 165.934, 919.908 179.421 C 920.991 184.328, 922.805 189.597, 923.938 191.131 C 926.223 194.220, 926.818 202.377, 924.848 203.594 C 923.323 204.536, 924.386 245.304, 926.424 264.043 C 927.996 278.503, 932.812 310.146, 933.554 310.887 C 933.799 311.133, 934.145 311.146, 934.321 310.917 C 935.165 309.822, 938.293 253.649, 938.751 231.361 C 939.208 209.172, 939.077 205.947, 937.634 203.888 C 935.558 200.924, 935.532 195.113, 937.581 192.188 C 938.766 190.496, 940.259 178.902, 943.553 145.811 C 948.324 97.869, 952.727 57.108, 953.605 52.750 C 954.348 49.059, 952.970 49.298, 950.374 53.310 M 126.122 70.228 C 118.294 74.140, 109.425 82.803, 105.797 90.081 C 99.693 102.324, 101.431 104.722, 111.303 97.678 C 114.789 95.190, 120.147 90.448, 123.211 87.139 C 128.663 81.250, 136 70.339, 136 68.119 C 136 66.217, 132.770 66.906, 126.122 70.228 M 531.435 85.890 C 525.573 88.553, 519.835 93.867, 520.200 96.296 C 520.540 98.565, 520.481 98.527, 532 103.784 C 536.675 105.917, 544.916 110.664, 550.312 114.331 C 555.709 117.999, 560.576 121, 561.128 121 C 561.680 121, 563.048 120.510, 564.167 119.911 C 566.170 118.839, 566.160 118.776, 563.559 116.062 C 561.191 113.590, 557.458 111.593, 548.671 108.097 C 545.036 106.650, 545.690 104.791, 550.289 103.501 C 560.098 100.749, 555.796 97.567, 542 97.371 C 535.983 97.286, 532.583 96.853, 532.726 96.191 C 532.850 95.617, 534.312 93, 535.976 90.377 C 537.639 87.754, 539 85.247, 539 84.804 C 539 83.468, 535.737 83.936, 531.435 85.890 M 258.500 87.477 C 247.418 89.249, 235.626 92.422, 226.888 95.983 C 222.824 97.638, 219.387 98.995, 219.250 98.997 C 219.113 98.998, 219 99.431, 219 99.958 C 219 101.005, 227.983 103.810, 240.500 106.671 C 253.349 109.609, 278.784 109.162, 295 105.715 C 308.874 102.765, 330.576 95.828, 330.362 94.411 C 330.153 93.024, 316.871 89.150, 306.629 87.489 C 295.507 85.685, 269.748 85.679, 258.500 87.477 M 452 97.544 C 424.368 102.571, 401.695 114.102, 383.437 132.411 C 362.232 153.676, 350.063 181.612, 346.062 218.211 C 345.478 223.551, 345 239.213, 345 253.013 C 345 272.560, 344.641 279.696, 343.374 285.303 C 341.850 292.052, 338.086 300.607, 334.378 305.750 C 332.799 307.940, 332.859 308.043, 336.610 309.610 C 341.067 311.473, 348.550 310.964, 355.068 308.356 C 360.845 306.045, 361.607 307.433, 358.401 314.436 C 355.886 319.929, 353.802 333, 355.441 333 C 355.834 333, 359.384 331.466, 363.328 329.592 C 367.273 327.718, 372.750 325.411, 375.500 324.466 L 380.500 322.748 385.736 326.297 C 391.377 330.120, 399.303 333.419, 405.582 334.556 C 410.272 335.405, 410.083 335.146, 402.402 330.182 C 396.423 326.317, 389.280 318.724, 385.139 311.829 C 380.437 304, 377.842 294.121, 377.303 282 C 376.417 262.066, 381.109 248.895, 393.548 236.392 C 402.864 227.028, 411.306 222.835, 422.119 222.204 C 439.472 221.189, 449.548 229.522, 455.648 249.929 C 455.942 250.916, 457.688 249.793, 461.287 246.304 C 470.710 237.168, 481.030 233, 494.227 233 L 501.034 233 498.595 228.187 C 486.230 203.786, 502.094 177.022, 531.331 172.959 C 549.741 170.401, 567.957 177.316, 583.713 192.843 C 592.283 201.289, 597.445 208.826, 602.163 219.780 C 605.396 227.285, 605.487 227.876, 605.444 241 C 605.411 251.235, 604.989 255.557, 603.702 258.871 C 601.381 264.844, 603.509 263.012, 609.688 253.718 C 616.521 243.439, 619.366 235.819, 618.581 229.900 L 617.949 225.131 622.508 221.995 C 625.015 220.270, 629.103 217.957, 631.593 216.856 C 637.396 214.289, 637.973 212.631, 634.380 208.851 C 630.437 204.703, 624.515 201.458, 618.247 200.012 C 615.358 199.345, 612.766 198.431, 612.488 197.980 C 612.210 197.530, 614.542 195.438, 617.672 193.331 C 623.729 189.253, 628.647 183.776, 629.177 180.518 C 629.459 178.787, 628.741 178.447, 623.500 177.835 C 607.692 175.989, 600.432 170.719, 578.500 145.174 C 556.716 119.802, 527.771 102.807, 497.290 97.491 C 486.669 95.639, 462.314 95.667, 452 97.544 M 906 101.555 C 906 104.240, 913.672 114.548, 919.607 119.838 C 925.550 125.135, 935.405 130.929, 936.540 129.793 C 937.823 128.510, 931.416 118.472, 925.500 112.498 C 922.200 109.165, 916.737 104.990, 913.360 103.219 C 906.312 99.524, 906 99.453, 906 101.555 M 200.723 110.775 C 194.522 117.024, 192.783 120.130, 194.791 121.371 C 195.807 121.999, 211.119 105.452, 210.289 104.623 C 208.871 103.204, 207.116 104.333, 200.723 110.775 M 94 107.743 C 91.364 108.642, 83.908 109.531, 76 109.889 C 63.374 110.460, 62.481 110.633, 62.206 112.555 C 62.044 113.687, 62.877 115.484, 64.060 116.555 C 65.930 118.247, 67.722 118.500, 77.854 118.500 C 91.577 118.500, 99.388 116.438, 101.264 112.319 C 102.040 110.617, 102.074 109.341, 101.374 108.232 C 99.984 106.027, 99.187 105.974, 94 107.743 M 216.372 107.473 C 214.865 111.400, 219.892 129.845, 225.509 141 C 229.597 149.117, 236.547 158.627, 244.329 166.750 C 253.364 176.181, 254.712 175.112, 252.987 159.884 C 251.691 148.440, 247.657 136.335, 242.599 128.715 C 238.287 122.219, 227.136 111.601, 221.066 108.211 C 217.523 106.232, 216.887 106.132, 216.372 107.473 M 764 108.054 C 754.112 109.281, 737.236 113.537, 728.479 117.012 C 720.487 120.183, 714 123.789, 714 125.060 C 714 125.535, 715.688 126.370, 717.750 126.917 C 738.374 132.383, 758.852 132.101, 783.805 126.008 C 796.174 122.987, 816.044 117.289, 816.782 116.551 C 818.356 114.977, 808.253 111.117, 797 108.992 C 788.869 107.457, 772.549 106.993, 764 108.054 M 640 109.955 C 640 112.042, 644.822 124.021, 647.514 128.620 C 652.508 137.153, 667.804 151.530, 669.783 149.550 C 670.136 149.197, 671.215 146.827, 672.181 144.284 L 673.936 139.660 670.749 133.580 C 668.996 130.236, 664.841 124.800, 661.515 121.500 C 653.586 113.631, 640 106.341, 640 109.955 M 92 121.161 C 90.075 121.687, 83.775 122.233, 78 122.375 C 68.285 122.613, 67.517 122.777, 67.728 124.566 C 67.853 125.630, 69.079 134.150, 70.452 143.500 C 75.055 174.844, 78.854 215.664, 81.993 267.500 C 82.838 281.457, 83.323 284.724, 84.702 285.750 C 88.733 288.749, 112.587 286.459, 118.653 282.490 C 120.592 281.221, 120.709 280.656, 119.834 276.791 C 114.775 254.454, 104.133 176.009, 99.479 126.750 C 98.781 119.371, 98.720 119.325, 92 121.161 M 677.690 140.250 C 675.599 146.438, 672.150 155.916, 670.026 161.314 L 666.163 171.129 669.314 173.044 C 671.046 174.098, 674.855 175.495, 677.777 176.149 C 684.424 177.637, 684.760 177.322, 688.609 166 C 690.199 161.325, 694.547 151.248, 698.273 143.607 C 701.998 135.965, 704.855 129.521, 704.620 129.287 C 704.386 129.052, 702.460 129.745, 700.341 130.826 C 691.150 135.515, 683 135.608, 683 131.025 C 683 126.594, 681.314 129.523, 677.690 140.250 M 711.602 129.835 C 710.710 131.278, 717.788 146.912, 722.645 154.225 C 731.626 167.748, 747.014 180.609, 762.304 187.371 C 769.689 190.637, 770.165 189.659, 766.028 179.721 C 757.277 158.701, 739.890 141.350, 717.790 131.584 C 714.650 130.196, 711.865 129.409, 711.602 129.835 M 148.698 136.636 C 147.686 137.647, 147.842 141.837, 148.971 143.945 C 151.330 148.354, 169.432 152.018, 179.814 150.190 C 188.548 148.651, 191.431 147.083, 191.825 143.658 C 192.425 138.429, 191.894 138.142, 184.335 139.604 C 172.892 141.818, 160.063 140.674, 150.948 136.627 C 150.094 136.248, 149.082 136.252, 148.698 136.636 M 323.520 139.115 C 300.881 142.412, 279.076 153.160, 274.983 163.040 C 273.370 166.935, 274.180 179.859, 276.453 186.500 C 282.308 203.605, 292.865 220.052, 307.158 234.334 C 313.121 240.292, 318 245.547, 318 246.011 C 318 247.147, 307.431 253.430, 302.735 255.085 C 300.665 255.815, 299.108 256.882, 299.275 257.456 C 299.442 258.030, 302.158 259.798, 305.311 261.385 C 309.491 263.489, 312.999 264.403, 318.271 264.762 C 328.128 265.433, 328.606 266.004, 324.598 272.323 C 319.296 280.682, 316.478 290.941, 319.047 292.529 C 320.368 293.346, 329.118 291.278, 334.597 288.854 C 339.832 286.538, 339.927 286.150, 340.671 263.929 L 341.260 246.357 332.880 240.764 C 318.091 230.894, 305.227 216.538, 297.694 201.500 C 292.504 191.138, 290.806 185.318, 290.645 177.339 C 290.517 171.005, 290.784 169.874, 292.954 167.557 C 296.609 163.655, 304.517 161.769, 317.413 161.725 C 329.430 161.685, 337.591 163.296, 346.871 167.542 C 349.825 168.894, 352.408 170, 352.611 170 C 352.814 170, 355.042 165.894, 357.563 160.875 C 360.084 155.856, 363.756 149.324, 365.725 146.360 C 367.693 143.395, 368.994 140.661, 368.617 140.284 C 366.554 138.221, 335.235 137.409, 323.520 139.115 M 152.916 151.143 C 152.870 151.339, 152.665 164.913, 152.460 181.307 C 152.256 197.701, 151.608 220.426, 151.021 231.807 C 149.989 251.821, 147.048 302.426, 146.680 306.500 C 146.552 307.920, 147.661 309.080, 150.500 310.500 C 153.889 312.195, 156.500 312.500, 167.596 312.500 C 184.778 312.500, 184.451 312.765, 183.595 299.527 C 182.641 284.769, 184.690 204.156, 186.614 180.735 C 188.837 153.678, 188.855 152.404, 187 152.908 C 186.175 153.132, 181.172 153.519, 175.881 153.769 C 167.241 154.176, 159.678 153.349, 154.748 151.457 C 153.786 151.088, 152.962 150.947, 152.916 151.143 M 492.077 154.768 C 488.420 156.784, 485 162.056, 485 165.679 C 485 169.346, 489.009 173.057, 493.642 173.679 C 498.952 174.391, 506.950 171.783, 510.969 168.029 C 514.746 164.501, 514.983 160.254, 511.621 156.345 C 509.527 153.911, 508.415 153.537, 502.371 153.230 C 497.038 152.960, 494.734 153.304, 492.077 154.768 M 496.001 157.123 C 489.685 159.642, 487.191 165.053, 490.829 168.345 C 495.707 172.760, 510 167.489, 510 161.275 C 510 157.216, 501.839 154.796, 496.001 157.123 M 798.014 157.642 C 798.033 160.106, 805.039 172.880, 810.825 181 C 816.985 189.644, 828.727 201.836, 838.156 209.377 C 847.473 216.828, 861.493 225.431, 862.901 224.561 C 864.156 223.785, 860.249 212.508, 855.258 202.500 C 845.726 183.389, 830.177 168.577, 811.005 160.346 C 800.454 155.815, 797.996 155.304, 798.014 157.642 M 21.680 161.653 C 20.788 162.546, 24.823 172.976, 29.364 181.511 C 34.891 191.901, 40.369 199.315, 49.856 209.245 C 57.289 217.025, 72.631 228.346, 74.324 227.300 C 78.131 224.947, 63.280 197.127, 51.105 183.805 C 42.831 174.753, 23.291 160.042, 21.680 161.653 M 302 167.136 C 297.457 168.376, 294 172.276, 294 176.161 C 294 189.899, 306.766 213.221, 322.103 227.500 C 329.793 234.660, 339.184 241.146, 340.302 240.069 C 340.742 239.644, 340.967 236.418, 340.802 232.898 C 340.528 227.087, 340.310 226.526, 338.434 226.782 C 337.297 226.937, 335.497 226.098, 334.434 224.918 C 332.825 223.133, 332.516 221.357, 332.597 214.338 C 332.676 207.383, 332.441 206.001, 331.254 206.456 C 326.608 208.239, 325.143 208.135, 323.968 205.940 C 322.420 203.047, 324.077 197.201, 328.108 191.343 C 329.699 189.031, 331 186.921, 331 186.653 C 331 186.385, 328.668 185.666, 325.818 185.054 C 319.990 183.804, 318 182.535, 318 180.065 C 318 176.830, 325.689 171.194, 332.250 169.621 C 336.113 168.695, 335.669 167.372, 331.250 166.642 C 325.632 165.713, 305.997 166.045, 302 167.136 M 332.224 173.469 C 326.754 175.177, 323 177.641, 323 179.523 C 323 180.335, 323.337 181.003, 323.750 181.008 C 325.701 181.027, 337.456 183.164, 338.223 183.638 C 338.702 183.934, 337.232 186.194, 334.957 188.662 C 330.613 193.375, 326.473 201.338, 327.501 203.002 C 327.858 203.580, 330.115 202.962, 333.020 201.490 C 335.722 200.121, 338.173 199, 338.467 199 C 339.425 199, 339.030 202.033, 337.439 206.898 C 335.518 212.770, 335.831 221.500, 337.962 221.500 C 340.267 221.500, 341.748 217.318, 343.452 206 C 344.321 200.225, 346.402 190.789, 348.077 185.031 C 350.945 175.166, 351.020 174.488, 349.369 173.281 C 347.126 171.641, 337.749 171.744, 332.224 173.469 M 661.039 175.928 C 659.475 178.850, 660.776 180.853, 665.934 183.466 C 672.803 186.947, 680.876 188.256, 683.811 186.364 C 687.794 183.796, 686.173 181.638, 679.228 180.261 C 675.790 179.580, 670.747 177.892, 668.022 176.511 C 662.083 173.502, 662.326 173.522, 661.039 175.928 M 528.176 177.070 C 516.612 179.346, 504.967 187.999, 500.972 197.286 C 494.604 212.089, 500.080 232.066, 511.914 237.202 C 521.388 241.314, 521.639 241.245, 515.894 236.109 C 501.795 223.503, 502.493 203.585, 517.308 195.770 C 523.781 192.356, 533.966 192.598, 540.292 196.317 C 546.153 199.762, 550.541 205.612, 552.615 212.748 C 553.829 216.923, 554.772 218.351, 556.839 219.141 C 569.360 223.929, 576.773 230.500, 581.903 241.359 C 587.582 253.379, 588.218 264.997, 583.837 276.705 C 582.719 279.693, 582.118 282.444, 582.501 282.819 C 583.516 283.812, 591.404 274.785, 594.975 268.543 C 607.083 247.381, 604.594 223.593, 588.118 203 C 571.655 182.423, 549.554 172.863, 528.176 177.070 M 660.674 186.750 C 660.430 187.162, 658.582 192.675, 656.568 199 C 654.553 205.325, 649.552 220.184, 645.453 232.021 C 641.354 243.857, 638 254.311, 638 255.251 C 638 258.766, 654.147 264.358, 656.574 261.684 C 657.165 261.033, 659.141 254.875, 660.966 248 C 662.791 241.125, 667.405 226.500, 671.219 215.500 C 679.822 190.692, 679.743 191.006, 677.367 190.979 C 676.340 190.967, 672.350 189.844, 668.500 188.483 C 660.391 185.617, 661.234 185.803, 660.674 186.750 M 406.685 192.017 C 399.991 194.026, 394 201.314, 394 207.447 C 394 208.921, 395.086 211.177, 396.455 212.545 C 403.407 219.498, 422 210.779, 422 200.566 C 422 193.333, 415.112 189.488, 406.685 192.017 M 912.500 196.822 C 907.084 199.165, 905.235 199.422, 893.500 199.459 C 886.350 199.482, 879.150 199.275, 877.500 199 C 874.734 198.539, 874.476 198.748, 874.191 201.691 C 873.728 206.471, 876.470 208.560, 885.141 210.032 C 897.881 212.195, 916.584 208.287, 920.542 202.636 C 921.344 201.492, 922 199.080, 922 197.277 C 922 193.262, 920.856 193.208, 912.500 196.822 M 404.610 197.365 C 397.881 201.438, 395.639 208.967, 400.497 211.181 C 406.382 213.862, 418 206.727, 418 200.432 C 418 194.648, 411.542 193.169, 404.610 197.365 M 940.698 195.636 C 939.139 197.194, 940.153 200.975, 942.658 202.945 C 947.051 206.401, 955.552 208.344, 966.500 208.393 C 977.817 208.445, 981.676 207.164, 983.847 202.633 C 985.005 200.218, 985.001 199.573, 983.827 198.399 C 982.742 197.313, 981.690 197.243, 978.971 198.074 C 971.668 200.307, 951.644 198.897, 942.948 195.538 C 942.094 195.208, 941.082 195.252, 940.698 195.636 M 519.197 199.131 C 516.831 200.303, 513.793 202.882, 512.447 204.863 C 509.218 209.616, 509.227 212.126, 512.462 208.636 C 519.320 201.235, 532.458 202.680, 537.416 211.380 C 540.594 216.957, 541.250 220.358, 540.025 224.907 C 538.626 230.102, 535.732 233.533, 530.976 235.631 C 528.789 236.596, 527 237.748, 527 238.192 C 527 239.604, 537.981 239.061, 540.998 237.501 C 546.279 234.770, 549.373 229.501, 549.820 222.479 C 550.042 219.001, 549.666 214.517, 548.978 212.433 C 547.437 207.763, 540.580 200.159, 536.282 198.352 C 531.491 196.339, 524.164 196.673, 519.197 199.131 M 943.537 209.279 C 943.329 209.951, 942.925 221.975, 942.639 236 C 942.353 250.025, 940.932 277.091, 939.482 296.146 L 936.846 330.792 939.977 347.146 C 945.458 375.773, 949.198 391.348, 951.258 394.136 C 952.875 396.323, 953.088 397.582, 952.445 401.151 C 951.486 406.469, 951.475 437.015, 952.430 443.384 C 952.811 445.923, 953.432 447.976, 953.811 447.946 C 954.190 447.916, 956.380 445.254, 958.679 442.030 C 964.016 434.543, 970.207 430.764, 977.708 430.414 C 980.715 430.273, 983.331 430.002, 983.522 429.811 C 983.713 429.620, 982.547 420.342, 980.931 409.193 C 975.911 374.576, 974.860 360.722, 974.291 321.705 C 973.744 284.238, 974.605 260.927, 977.617 231.681 C 978.456 223.530, 979.223 215.731, 979.321 214.350 L 979.500 211.839 966 211.605 C 956.290 211.438, 951.295 210.907, 948.207 209.716 C 944.975 208.468, 943.821 208.360, 943.537 209.279 M 514.455 211.455 C 511.460 214.449, 511.387 215.951, 514.073 219.365 C 516.563 222.532, 520.209 222.791, 523 220 C 525.655 217.345, 525.530 213.847, 522.686 211.174 C 519.682 208.352, 517.482 208.427, 514.455 211.455 M 915.612 210.157 C 910.951 212.865, 903.187 214.057, 891.801 213.814 C 885.366 213.677, 879.845 213.822, 879.531 214.136 C 879.217 214.450, 879.861 220.286, 880.964 227.104 C 886.934 264.033, 896.873 353.502, 897.838 378.998 L 898.500 396.496 902.500 397.895 C 908.821 400.105, 929.176 399.948, 936 397.637 C 944.649 394.707, 946.074 393.536, 944.986 390.259 C 941.745 380.500, 929.290 315.346, 924.483 283 C 921.941 265.902, 920.010 240.566, 920.005 224.250 C 920 208.265, 919.827 207.710, 915.612 210.157 M 224.262 212.924 C 210.155 220.702, 200.071 231.014, 193.382 244.500 C 189.938 251.444, 188.743 255.161, 188.148 260.772 C 187.724 264.772, 187.575 268.242, 187.816 268.483 C 188.678 269.344, 197.634 262.508, 205.390 255.068 C 216.982 243.949, 228.322 225.591, 231.530 212.750 C 232.425 209.167, 231.014 209.201, 224.262 212.924 M 806.393 220.021 C 788.947 223.169, 772.777 231.432, 760.299 243.576 C 752.198 251.458, 750.524 254, 753.433 254 C 756.384 254, 781.850 248.986, 791 246.604 C 807.545 242.296, 852.592 226.692, 852.335 225.358 C 852.244 224.886, 848.644 223.453, 844.335 222.173 C 835.492 219.546, 815.354 218.404, 806.393 220.021 M 553.449 226.468 C 552.652 228.375, 552 230.298, 552 230.740 C 552 231.182, 550.569 233.280, 548.821 235.401 C 543.358 242.029, 534.094 244.672, 526.098 241.884 C 520.263 239.850, 521.855 241.646, 530.172 246.478 C 540.184 252.296, 548.331 259.816, 551.859 266.498 C 554.194 270.921, 554.494 272.600, 554.445 281 C 554.384 291.536, 552.155 298.553, 546.054 307.422 C 544.321 309.940, 543.307 312, 543.801 312 C 544.294 312, 549.904 308.288, 556.268 303.750 C 571.452 292.924, 577.448 285.362, 581.390 272.068 C 586.688 254.199, 577.393 232.079, 561.565 224.890 C 555.948 222.339, 555.106 222.503, 553.449 226.468 M 416.024 226.545 C 400.202 230.965, 387.014 245.335, 382.316 263.275 C 380.216 271.291, 380.258 286.555, 382.402 294.923 C 387.598 315.207, 401.388 329.480, 420.631 334.492 C 426.733 336.082, 435.014 336.519, 434.980 335.250 C 434.969 334.837, 432.679 333.150, 429.892 331.500 C 412.891 321.438, 405.136 300.452, 411.888 282.782 C 412.761 280.496, 412.454 279.166, 409.963 274.430 C 404.657 264.342, 406.216 252.864, 413.981 244.850 C 423.759 234.759, 437.504 236.494, 444.695 248.728 C 447.116 252.848, 447.500 254.559, 447.500 261.249 C 447.500 265.510, 447.732 268.998, 448.015 268.999 C 449.173 269.002, 452 258.926, 452 254.797 C 452 235.052, 434.570 221.364, 416.024 226.545 M 864.653 228.753 C 864.397 229.167, 867.514 234.886, 871.579 241.461 C 875.645 248.036, 879.141 253.884, 879.349 254.458 C 880.322 257.147, 880.908 253.846, 880.156 249.916 C 879.591 246.971, 877.221 242.586, 873.038 236.750 C 867.030 228.369, 865.684 227.085, 864.653 228.753 M 852.500 231.888 C 845.995 235.622, 834.335 246.462, 828.395 254.300 C 822.440 262.158, 815.749 276.177, 813.026 286.500 C 810.364 296.593, 808.240 316.640, 809.681 318.081 C 811.059 319.459, 827.214 302.348, 835.718 290.501 C 843.649 279.454, 852.085 262.436, 855.438 250.726 C 858.161 241.212, 859.821 228.994, 858.388 229.009 C 857.900 229.015, 855.250 230.310, 852.500 231.888 M 58.500 231.699 C 53.590 232.351, 45.950 235.055, 38.516 238.770 C 30.986 242.534, 18 254.411, 18 257.534 C 18 259.062, 18.692 259.194, 23.652 258.611 C 32.395 257.584, 47.236 252.225, 55.475 247.121 C 62.913 242.513, 73.859 234.069, 73.951 232.867 C 74.074 231.265, 66.224 230.672, 58.500 231.699 M 478.172 239.454 C 470.731 242.218, 463.935 247.643, 458.835 254.890 C 454.688 260.783, 447.954 280.154, 446.029 291.730 C 444.035 303.716, 447.039 313.094, 455.316 320.724 C 466.514 331.045, 487.301 336.122, 504 332.614 C 522.570 328.712, 538 316.517, 546.346 299.146 C 549.906 291.734, 550.551 289.384, 550.859 282.680 C 551.449 269.844, 546.828 261.709, 534.001 253.003 C 526.627 247.997, 511.740 240.594, 505.056 238.609 C 497.073 236.238, 485.884 236.590, 478.172 239.454 M 422.001 243.123 C 412.136 247.057, 407.657 261.463, 412.919 272.333 C 416.166 279.040, 420.079 281.500, 427.500 281.500 C 432.173 281.500, 434.219 280.987, 436.750 279.182 C 440.213 276.712, 441.227 274.254, 438.250 275.545 C 431.241 278.587, 423.467 275.662, 420.105 268.718 C 414.778 257.712, 419.972 246.609, 431.170 245.067 C 436.383 244.349, 436.438 244.307, 433.685 243.166 C 430.318 241.772, 425.436 241.754, 422.001 243.123 M 425 251 C 421.092 254.908, 423.635 261, 429.174 261 C 434.295 261, 436.966 254.089, 433.171 250.655 C 430.712 248.430, 427.432 248.568, 425 251 M 485 250.884 C 475.120 254.117, 465.698 261.547, 464.487 267.061 C 463.094 273.401, 471.777 280, 481.512 280 C 484.310 280, 487.140 280.540, 487.800 281.200 C 491.155 284.555, 486.923 291.613, 479.862 294.438 C 475.142 296.327, 471.339 295.841, 467.557 292.866 C 466.161 291.768, 464.565 291.151, 464.010 291.494 C 460.364 293.747, 467.029 298.990, 473.547 298.996 C 477.319 299, 477.829 299.356, 481.047 304.229 C 487.231 313.593, 496.731 318.892, 504.667 317.403 C 510.049 316.393, 515.678 310.822, 517.494 304.707 C 519.337 298.501, 519.361 294.425, 517.605 286.038 C 516.286 279.742, 516.315 279.482, 518.722 275.843 C 521.225 272.062, 522.276 266.339, 520.568 265.796 C 520.055 265.633, 518.298 268.127, 516.663 271.338 C 512.903 278.722, 508.026 282.167, 500.441 282.796 C 491.978 283.498, 489.404 280.055, 494.922 275.412 C 501.630 269.767, 504.071 258.519, 499.691 253.427 C 497.879 251.321, 496.318 250.670, 492.441 250.405 C 489.724 250.219, 486.375 250.435, 485 250.884 M 479.118 258.099 C 472.940 261.186, 469.246 264.971, 470.473 266.956 C 471.520 268.650, 474.130 268.175, 480.500 265.131 C 489.861 260.657, 493.826 255, 487.601 255 C 486.346 255, 482.529 256.395, 479.118 258.099 M 632.200 259.200 C 627.275 264.125, 639.547 272, 652.146 272 C 655.922 272, 657.157 271.575, 658.011 269.979 C 659.497 267.203, 658.472 266, 654.622 266 C 649.916 266, 641.873 263.403, 637.602 260.505 C 633.291 257.579, 633.718 257.682, 632.200 259.200 M 197.750 271.242 C 194.588 271.784, 192 272.584, 192 273.021 C 192 274.522, 202.510 283.327, 210.719 288.703 C 220.760 295.279, 231.643 300.326, 242.680 303.524 C 253.253 306.588, 267.688 309.311, 269.014 308.491 C 270.651 307.480, 262.301 296.491, 253.868 288.557 C 237.606 273.260, 219.171 267.572, 197.750 271.242 M 631.575 272.340 C 630.830 273.528, 629.633 276.874, 628.915 279.776 C 627.694 284.706, 627.743 285.187, 629.655 287.099 C 632.618 290.063, 639.021 291.269, 643.681 289.742 C 647.733 288.415, 649.714 285.536, 650.683 279.569 L 651.231 276.190 645.738 275.049 C 642.716 274.422, 638.598 273.070, 636.586 272.044 C 632.951 270.190, 632.921 270.192, 631.575 272.340 M 441.371 279.537 C 434.839 286.355, 429.152 287.295, 417.340 283.507 C 415.373 282.876, 415.073 283.333, 413.972 288.636 C 411.343 301.299, 415.560 314.573, 425.023 323.425 C 430.362 328.419, 439.392 333.165, 443.834 333.311 C 451.669 333.570, 465 332.900, 465 332.248 C 465 331.835, 462.956 330.412, 460.459 329.087 C 453.792 325.551, 445.766 316.430, 443.705 310.050 C 441.429 303.003, 441.553 293.582, 444.051 283.801 C 445.179 279.383, 445.966 275.646, 445.801 275.498 C 445.635 275.349, 443.642 277.166, 441.371 279.537 M 583.877 287.348 C 572.675 297.055, 556.028 309.151, 543.186 316.916 C 538.959 319.472, 533.475 323.054, 531 324.876 C 520.712 332.449, 509.563 336.471, 495.584 337.652 C 491.413 338.005, 488.013 338.565, 488.030 338.897 C 488.046 339.229, 490.771 341.053, 494.084 342.951 C 497.398 344.849, 501.884 347.921, 504.054 349.778 C 507.819 353.001, 508.171 353.101, 511.750 351.962 C 518.984 349.661, 532.607 341.801, 544 333.355 C 561.768 320.182, 571.451 316, 584.182 316 C 590.123 316, 591 315.765, 591 314.169 C 591 313.163, 592.123 310.125, 593.496 307.419 C 594.869 304.714, 595.998 301.825, 596.005 301 C 596.017 299.651, 600.070 292.237, 603.234 287.776 C 604.275 286.308, 603.872 285.454, 600.525 282.026 C 598.363 279.812, 596.123 278.032, 595.547 278.071 C 594.971 278.111, 589.720 282.285, 583.877 287.348 M 508.500 284.879 C 506.850 285.722, 502.477 286.594, 498.782 286.817 C 493.333 287.146, 491.953 287.572, 491.476 289.075 C 491.153 290.095, 488.846 292.726, 486.350 294.923 L 481.811 298.918 484.656 302.936 C 486.220 305.146, 487.786 306.852, 488.137 306.727 C 488.487 306.602, 490.302 304.485, 492.171 302.021 C 496.319 296.555, 503.082 292.221, 509.045 291.210 C 512.842 290.567, 513.544 290.077, 513.801 287.892 C 514.234 284.195, 512.153 283.012, 508.500 284.879 M 614.118 285.628 C 608.911 288.223, 600.538 297.115, 601.261 299.283 C 601.446 299.838, 604.160 300.339, 607.291 300.396 C 614.044 300.519, 614.915 302.230, 608.691 303.145 C 602.626 304.038, 598.320 306.480, 596.456 310.085 C 594.057 314.725, 594.908 317.038, 600 319.719 C 605.988 322.872, 612.176 329.070, 615.580 335.324 C 617.745 339.303, 618.455 342.154, 618.811 348.299 L 619.267 356.174 624.529 361.858 L 629.790 367.541 626.292 380.020 C 622.628 393.095, 622.076 398.875, 623.621 408 C 624.474 413.042, 624.757 413.479, 627.026 413.245 C 628.387 413.105, 632.814 411.368, 636.864 409.384 C 645.298 405.254, 657.090 394.701, 662.994 386 C 679.707 361.370, 683.895 329.995, 673.507 307.247 C 670.871 301.474, 662.643 292.179, 657.183 288.804 L 653.693 286.647 651.597 289.260 C 648.955 292.553, 645.164 294, 639.185 293.998 C 633.098 293.996, 628.097 291.426, 625.082 286.750 C 623.753 284.688, 621.929 283, 621.029 283 C 620.129 283, 617.019 284.183, 614.118 285.628 M 117.251 287.110 C 110.474 290.244, 98.425 291.606, 89.265 290.273 C 84.961 289.647, 81.109 289.524, 80.623 289.998 C 78.965 291.616, 81.006 295.951, 84.264 297.732 C 86.870 299.156, 89.933 299.500, 100 299.500 C 111.465 299.500, 112.973 299.278, 118.213 296.822 C 123.987 294.116, 125.668 291.707, 124.827 287.341 C 124.348 284.853, 122.267 284.790, 117.251 287.110 M 504.500 295.847 C 499.656 298.089, 492 306.162, 492 309.029 C 492 310.449, 493.092 311.558, 495.468 312.551 C 500.179 314.520, 503.888 314.366, 507.696 312.044 C 512.332 309.217, 514.204 305.765, 514.362 299.754 C 514.497 294.604, 514.441 294.495, 511.500 294.248 C 509.850 294.109, 506.700 294.829, 504.500 295.847 M 119.479 300.272 C 113.789 303.456, 100.160 304.814, 91.228 303.087 C 88.879 302.632, 86.780 302.547, 86.564 302.897 C 86.348 303.246, 86.540 305.550, 86.991 308.016 C 88.439 315.930, 90.947 340.572, 94.014 377 C 95.657 396.525, 98.082 423.782, 99.403 437.572 L 101.804 462.644 107.726 468.572 C 114.481 475.334, 124.313 488.280, 127.998 495.265 C 130.369 499.759, 132 501.259, 132 498.946 C 132 495.937, 126.690 465.655, 123.987 453.250 C 119.713 433.636, 120.714 432.664, 132.396 445.083 C 136.578 449.529, 140 453.579, 140 454.083 C 140 454.587, 140.482 455, 141.072 455 C 142.677 455, 142.114 450.999, 133.542 401.500 C 128.416 371.904, 123.013 323.860, 123.004 307.809 C 123.002 303.579, 122.653 299.904, 122.229 299.641 C 121.804 299.379, 120.567 299.663, 119.479 300.272 M 142.959 313.550 C 141.806 314.938, 141.822 315.592, 143.059 317.795 C 148.327 327.182, 178.059 329.988, 185.250 321.777 C 187.034 319.740, 187.619 315.501, 186.234 314.645 C 185.813 314.384, 183.015 314.808, 180.016 315.586 C 170.546 318.042, 155.145 316.700, 145.910 312.613 C 144.946 312.186, 143.785 312.555, 142.959 313.550 M 574.870 321.060 C 568.064 322.671, 560.510 326.705, 549.500 334.611 C 534.662 345.266, 526.442 350.368, 519.199 353.416 C 512.256 356.338, 500.702 359.581, 493.750 360.559 C 489.790 361.116, 489 360.962, 489 359.633 C 489 358.052, 489.829 357.716, 497.426 356.216 C 499.586 355.790, 501.518 354.945, 501.721 354.338 C 502.230 352.810, 493.536 346.612, 485.873 343.039 C 474.973 337.957, 468.059 336.685, 454.500 337.270 C 436.380 338.051, 425.011 342.093, 415.417 351.167 C 412.418 354.004, 409.915 355.671, 409.548 355.077 C 408.588 353.525, 410.358 350.847, 415.435 346.167 C 417.946 343.852, 420 341.785, 420 341.573 C 420 341.361, 417.637 340.889, 414.750 340.524 C 406.641 339.499, 395.062 336.204, 389.109 333.226 L 383.718 330.530 378.232 336.515 C 369.709 345.814, 358.756 359.707, 353.017 368.500 C 341.729 385.794, 331.911 410.009, 327.878 430.500 C 325.719 441.468, 326.024 476.209, 328.373 486.973 C 335.014 517.397, 347.733 539.865, 372.119 564.250 C 380.232 572.362, 387.306 579, 387.839 579 C 388.372 579, 387.529 576.638, 385.966 573.750 C 378.357 559.688, 374.360 540.516, 375.300 522.578 C 377.396 482.563, 401.419 451.166, 442.191 435.156 C 448.956 432.500, 464.265 428.426, 469.922 427.778 C 471.254 427.625, 472.516 426.975, 472.728 426.332 C 473.382 424.343, 453.687 421.053, 440.917 421.020 C 436.746 421.009, 433.013 420.680, 432.622 420.288 C 432.230 419.897, 432.910 418.822, 434.133 417.900 L 436.356 416.223 431.956 413.978 C 428.028 411.974, 426.586 411.795, 418.528 412.314 C 392.865 413.968, 370.586 427.120, 356.463 448.952 C 351.402 456.775, 348.642 457.613, 352.408 450.182 C 356.272 442.556, 363.669 433.429, 370.824 427.456 C 383.196 417.130, 403.607 409, 417.160 409 C 420.372 409, 423 408.706, 423 408.347 C 423 407.987, 420.737 405.301, 417.972 402.377 C 412.847 396.958, 407.002 386.267, 407.001 382.309 C 407 379.477, 408.838 378.333, 409.606 380.687 C 409.931 381.684, 411.576 385.425, 413.262 389 C 419.723 402.703, 438.517 415.991, 453.500 417.449 C 466.351 418.699, 495.909 426.798, 509.266 432.728 L 515.033 435.288 521.766 433.478 C 536.744 429.453, 559.212 418.772, 573.931 408.679 C 583.280 402.269, 596.671 389.616, 603.193 381.029 C 608.925 373.483, 613.832 363.708, 614.224 359.053 C 614.577 354.868, 610.853 351.815, 604.454 351.044 C 601.968 350.745, 600.062 350.050, 600.217 349.500 C 600.563 348.277, 610.770 348.240, 613.399 349.452 C 615.155 350.263, 615.257 349.971, 614.758 345.550 C 613.705 336.200, 609 332.709, 598.250 333.301 C 592.925 333.594, 591 333.370, 591 332.457 C 591 330.735, 593.496 329.858, 600.485 329.127 L 606.471 328.500 601.485 325.309 C 593.857 320.426, 584.118 318.871, 574.870 321.060 M 146.978 337.750 C 146.955 348.708, 145.993 372.141, 143.948 411.500 C 142.838 432.872, 142.876 433.971, 145.284 450 C 147.413 464.176, 148.412 468.058, 152.377 477.562 C 154.915 483.646, 158.002 492.534, 159.237 497.312 C 160.473 502.090, 161.712 505.998, 161.992 505.997 C 162.271 505.995, 163.307 501.832, 164.294 496.747 C 166.421 485.783, 171.584 469.934, 176.479 459.339 L 180 451.718 180.026 423.109 C 180.050 396.947, 180.796 373.120, 182.624 340.083 C 183.286 328.123, 183.241 327.697, 181.405 328.478 C 177.453 330.161, 161.675 330.230, 154.688 328.594 C 150.941 327.717, 147.679 327, 147.438 327 C 147.197 327, 146.990 331.837, 146.978 337.750 M 822.500 339.347 C 807.008 344.473, 795 358.067, 795 370.478 C 795 375.188, 793.637 375.591, 789.258 372.177 C 772.908 359.430, 749 371.634, 749 392.728 C 749 396.213, 749.685 400.704, 750.523 402.709 C 752.442 407.301, 751.334 408.661, 746.927 407.124 C 735.382 403.100, 722.232 409.690, 715.820 422.715 C 712.846 428.756, 712.541 430.242, 712.389 439.423 C 712.297 444.965, 712.172 449.624, 712.111 449.776 C 712.050 449.927, 710.672 449.365, 709.050 448.526 C 702.346 445.059, 690.751 448.483, 689.572 454.278 C 689.324 455.500, 688.906 463.601, 688.644 472.280 L 688.168 488.059 691.834 487.308 C 697.840 486.078, 713.056 486.640, 719.677 488.338 C 728.248 490.535, 734.126 493.479, 739.648 498.339 C 742.242 500.622, 745.160 502.355, 746.134 502.190 C 747.349 501.985, 748.565 503.187, 750.013 506.026 C 752.669 511.231, 756 524.104, 756 529.160 C 756 531.272, 756.450 533, 757 533 C 757.550 533, 758 532.566, 758 532.035 C 758 529.811, 764.447 523.946, 768.093 522.854 C 770.242 522.210, 772 521.487, 772 521.246 C 772 521.006, 771.060 519.489, 769.911 517.876 C 765.218 511.284, 765.692 502.841, 770.912 500.047 C 772.939 498.962, 772.889 498.800, 769.016 493.901 C 765.151 489.011, 762 481.089, 762 476.261 C 762 467.942, 767.942 457.877, 775.451 453.476 C 777.939 452.018, 782.905 450.323, 786.487 449.709 C 790.069 449.096, 793 448.292, 793 447.924 C 793 447.556, 792.038 445.080, 790.863 442.423 C 787.810 435.520, 787.102 421.641, 789.485 415.401 C 794.873 401.292, 808.895 396.110, 822.835 403.076 C 829.924 406.618, 834.771 411.971, 838.478 420.355 C 839.865 423.491, 841 426.465, 841 426.963 C 841 427.462, 841.448 429.047, 841.995 430.486 L 842.990 433.103 847.098 429.801 C 850.855 426.783, 851.820 426.493, 858.354 426.424 C 862.284 426.382, 866.767 425.820, 868.315 425.174 C 874.969 422.399, 882.553 424.303, 887.295 429.939 C 891.552 434.998, 892.341 439.115, 891.722 453.043 C 891.211 464.535, 891.340 465.960, 893.134 468.597 C 895.869 472.617, 904.326 489.497, 906.487 495.250 C 908.702 501.145, 910.111 501.379, 909.500 495.750 C 909.247 493.413, 908.551 486.100, 907.954 479.500 C 906.434 462.699, 903.312 440.721, 900.355 426 C 898.213 415.336, 897.409 413.047, 894.886 410.415 C 891.181 406.551, 890.100 401.022, 892.372 397.555 C 893.627 395.640, 894 392.548, 894 384.070 C 894 374.218, 893.798 372.962, 892.066 372.035 C 888.928 370.356, 881.794 370.828, 878.323 372.944 C 874.464 375.298, 873.538 374.479, 872.583 367.869 C 871.747 362.090, 866.270 352.679, 860.888 347.775 C 853.733 341.256, 846.910 338.664, 836 338.322 C 830.015 338.134, 825.020 338.513, 822.500 339.347 M 221.500 348.742 C 208.939 353.256, 198.607 364.721, 196.444 376.547 C 196.046 378.721, 195.342 381.518, 194.880 382.763 L 194.040 385.025 190.308 383.025 C 187.731 381.644, 186.254 381.346, 185.538 382.061 C 184.273 383.325, 183.412 441.020, 184.659 440.958 C 185.121 440.935, 188.425 436.322, 192 430.708 C 196.404 423.792, 201.931 417.033, 209.139 409.750 C 220.628 398.141, 224 396.404, 224 402.093 C 224 406.269, 220.439 423.567, 217.441 433.957 C 216.098 438.608, 215 443.030, 215 443.784 C 215 444.538, 217.363 443.087, 220.250 440.560 C 225.954 435.568, 239.568 428, 242.844 428 C 243.965 428, 245.153 428.439, 245.485 428.976 C 245.817 429.512, 242.275 437.494, 237.614 446.712 C 232.953 455.931, 229.287 463.620, 229.466 463.800 C 229.646 463.979, 232.202 462.275, 235.146 460.012 C 244.506 452.820, 268.097 442.444, 273.376 443.197 C 274.801 443.400, 275.479 444.194, 275.436 445.611 C 275.400 446.771, 269.550 455.910, 262.436 465.919 C 241.449 495.443, 239.688 498.021, 240.171 498.504 C 240.424 498.758, 243.527 497.429, 247.066 495.552 C 255.941 490.845, 266.717 487.990, 278.226 487.297 C 287.005 486.769, 288.020 486.888, 288.647 488.524 C 289.181 489.914, 287.966 491.509, 283.421 495.382 C 275.672 501.986, 252.922 524.255, 253.418 524.751 C 253.629 524.963, 256.179 524.430, 259.083 523.568 C 265.806 521.572, 275.171 521.565, 281.860 523.551 C 287.366 525.186, 293.751 529.977, 292.697 531.682 C 292.354 532.236, 286.095 535.647, 278.787 539.263 C 264.907 546.130, 261.108 548.441, 262.089 549.422 C 262.411 549.745, 271.323 548.909, 281.894 547.565 C 292.464 546.221, 310.875 544.341, 322.806 543.387 C 334.738 542.433, 344.822 541.387, 345.215 541.062 C 345.608 540.737, 343.929 537.102, 341.483 532.985 C 328.192 510.610, 321.759 485.859, 321.735 457 C 321.722 440.967, 322.595 433.428, 326.121 419.142 C 327.669 412.870, 327.898 410.499, 327.040 409.642 C 325.036 407.641, 315.739 408.367, 311.525 410.853 C 306.847 413.613, 305.441 412.582, 307.420 407.845 C 313.071 394.320, 307.929 379.609, 295.782 374.549 C 286.530 370.694, 275.574 374.642, 269.328 384.081 C 267.901 386.236, 266.411 388, 266.015 388 C 265.620 388, 265.022 384.512, 264.686 380.250 C 263.533 365.600, 257.941 355.836, 247.706 350.601 C 240.264 346.795, 229.118 346.005, 221.500 348.742 M 616.555 366.496 C 614.417 372.094, 606.844 383.736, 600.615 391 L 595.898 396.499 598.044 398.237 C 601.430 400.978, 607.903 402.346, 612.849 401.364 L 617.198 400.500 621.309 384.274 L 625.420 368.047 622.523 365.024 C 620.929 363.361, 619.321 362, 618.949 362 C 618.576 362, 617.499 364.023, 616.555 366.496 M 940.838 399.604 C 932.868 402.951, 922.661 404.211, 912.694 403.076 C 908.187 402.563, 903.233 401.661, 901.685 401.072 C 900.137 400.482, 897.943 400, 896.810 400 C 895.032 400, 894.836 400.432, 895.381 403.155 C 895.728 404.890, 896.513 406.913, 897.126 407.652 C 899.380 410.367, 910.841 413, 920.355 412.988 C 937.842 412.965, 949 407.819, 949 399.777 C 949 396.476, 948.323 396.461, 940.838 399.604 M 586.615 404.622 C 583.527 407.165, 581 409.818, 581 410.519 C 581 412.475, 587.759 417.966, 592.897 420.184 C 602.836 424.476, 612.702 423.520, 617.515 417.800 C 619.673 415.236, 620.047 413.906, 619.798 409.682 L 619.500 404.630 610.500 404.565 C 603.185 404.512, 600.698 404.079, 597.219 402.250 C 594.865 401.012, 592.779 400, 592.584 400 C 592.389 400, 589.703 402.080, 586.615 404.622 M 804.655 404.406 C 791.067 409.437, 787.202 427.663, 795.940 445.500 C 797.556 448.800, 798.907 451.895, 798.940 452.377 C 798.974 452.860, 795.252 453.310, 790.671 453.377 C 783.261 453.486, 781.811 453.832, 777.546 456.500 C 770.194 461.100, 766.679 466.678, 766.178 474.538 C 765.829 480.032, 766.170 481.827, 768.451 486.490 C 770.034 489.726, 772.951 493.465, 775.558 495.601 C 779.977 499.222, 780.477 501, 777.076 501 C 776.082 501, 774.084 501.933, 772.635 503.073 C 767.989 506.727, 769.450 513.252, 776.415 519.946 C 778.387 521.842, 780 523.754, 780 524.196 C 780 524.638, 777.817 525, 775.148 525 C 769.498 525, 764.804 527.683, 761.264 532.937 C 758.740 536.682, 754.704 548.712, 755.525 550.041 C 756.123 551.009, 757.701 551.235, 783.500 554.046 C 793.950 555.185, 809.784 557.215, 818.687 558.558 C 837.688 561.424, 837 561.385, 837 559.614 C 837 557.417, 820.299 542.130, 810.109 535 C 805 531.425, 800.073 527.964, 799.160 527.309 C 796.288 525.247, 799.043 522.667, 806.090 520.818 C 818.752 517.496, 834.025 519.155, 844.876 525.033 C 847.882 526.660, 850.562 527.771, 850.833 527.500 C 851.749 526.584, 848.874 521.607, 837.273 504.030 C 815.634 471.244, 815.201 470.238, 823.252 471.481 C 834.662 473.243, 847.444 478.833, 858.443 486.873 C 862.261 489.664, 865.569 491.764, 865.793 491.540 C 866.017 491.316, 864.963 484.925, 863.449 477.338 C 860.071 460.396, 859.367 439.473, 862.117 437.713 C 864.291 436.322, 874.214 443.933, 881.179 452.335 C 888.554 461.230, 889.004 461.057, 888.978 449.323 C 888.945 434.511, 885.498 428.547, 876.252 427.307 C 873.881 426.989, 870.931 427.420, 868.488 428.441 C 865.640 429.631, 863.118 429.909, 859.395 429.444 C 853.345 428.688, 851.237 429.561, 845.285 435.290 C 842.269 438.193, 840.938 438.942, 840.604 437.924 C 840.347 437.141, 839.390 433.814, 838.477 430.530 C 835.177 418.666, 829.844 410.866, 822.180 406.694 C 816.010 403.337, 809.751 402.519, 804.655 404.406 M 210.035 413.693 C 186.829 438.460, 169.243 477.878, 165.043 514.541 C 164.478 519.468, 164.013 525.638, 164.008 528.250 C 163.997 534.869, 162.286 534.197, 161.461 527.250 C 158.529 502.552, 149.808 475.759, 139.608 460.111 C 134.884 452.864, 127.490 444.210, 126.698 445 C 126.423 445.275, 127.032 449.325, 128.051 454 C 130.866 466.902, 133.707 484.415, 136.488 506 C 137.870 516.725, 139.285 527.188, 139.631 529.250 C 140.859 536.556, 138.368 532.883, 135.730 523.500 C 127.908 495.669, 110.080 471.570, 85.282 455.306 C 76.623 449.626, 68.210 445.457, 67.282 446.385 C 66.978 446.689, 74.103 458.761, 83.115 473.212 C 93.927 490.550, 101.727 501.901, 106.047 506.584 C 115.851 517.211, 124.374 531.204, 126.554 540.250 C 127.718 545.081, 125.041 543.342, 122.513 537.626 C 111.458 512.628, 91.514 494.501, 66.500 486.715 C 57.242 483.833, 47.572 482.280, 48.130 483.764 C 48.333 484.305, 52.100 487.568, 56.500 491.015 C 67.437 499.584, 99.885 532.183, 104.525 539.265 C 108.704 545.642, 108.456 548.448, 104.198 542.970 C 95.334 531.566, 84.845 523.835, 72.950 519.940 C 62.979 516.675, 42.635 516.470, 34.066 519.548 C 31.078 520.622, 28.483 521.972, 28.300 522.548 C 28.118 523.124, 31.238 524.644, 35.234 525.925 C 48.374 530.136, 61.983 537.889, 72.394 547.096 C 82.102 555.681, 88.993 566.910, 80.646 560.544 C 78.869 559.189, 74.735 556.841, 71.458 555.327 C 62.998 551.418, 48.285 550.807, 37.980 553.937 C 34.067 555.126, 31.027 556.581, 31.224 557.172 C 31.421 557.762, 35.388 559.342, 40.041 560.683 C 44.693 562.023, 52.620 565.287, 57.656 567.935 L 66.812 572.750 79.156 571.297 C 85.945 570.498, 92.875 569.650, 94.557 569.413 C 96.856 569.089, 98.837 567.450, 102.557 562.798 C 108.509 555.351, 117.518 548.985, 126.143 546.131 C 148.151 538.849, 173.964 542.092, 189.041 554.033 C 191.819 556.233, 193.850 557, 196.896 557 C 201.598 557, 241.769 553.341, 246.906 552.445 C 248.779 552.118, 253.671 549.583, 257.778 546.812 C 261.886 544.041, 270.141 539.333, 276.123 536.351 C 282.105 533.368, 287 530.697, 287 530.415 C 287 530.133, 285.087 529.034, 282.750 527.973 C 277.483 525.583, 265.574 525.343, 258.367 527.484 C 251.450 529.538, 243.339 535.659, 238 542.855 C 233.757 548.573, 232 550.120, 232 548.137 C 232 545.999, 243.322 530.231, 251.500 520.979 C 259.500 511.929, 271.408 500.509, 279.263 494.356 C 280.768 493.177, 282 491.939, 282 491.606 C 282 490.305, 271.928 491.099, 264.410 492.993 C 252.649 495.956, 242.639 501.382, 234.881 509 C 229.290 514.490, 227.348 517.397, 222.381 527.705 C 213.945 545.212, 212.077 543.155, 219.924 525 C 224.749 513.836, 232.789 501.137, 252.626 473.347 C 261.596 460.781, 268.949 449.938, 268.967 449.250 C 269.015 447.419, 267.659 447.670, 259.213 451.051 C 233.522 461.339, 207.809 486.558, 196.509 512.551 C 193.260 520.024, 191.121 522.318, 191.803 517.597 C 193.454 506.170, 199.409 482.681, 208.113 453.261 C 215.255 429.122, 220.403 407.003, 219.167 405.767 C 218.660 405.260, 214.790 408.618, 210.035 413.693 M 647.011 408.486 C 645.029 410.875, 632.343 416.825, 627.733 417.528 C 622.122 418.384, 614.221 425.171, 613.795 429.500 C 613.574 431.743, 613.878 432.414, 615 432.160 C 615.825 431.973, 619.672 431.577, 623.550 431.281 C 641.403 429.915, 656.670 440.665, 664.129 459.854 C 666.793 466.708, 667.854 483.550, 666.069 490.640 C 665.432 493.172, 665.133 495.466, 665.405 495.738 C 665.677 496.010, 669.616 494.630, 674.158 492.670 C 679.798 490.237, 682.730 488.377, 683.407 486.804 C 683.952 485.537, 684.421 477.300, 684.449 468.500 C 684.506 450.640, 682.899 442.651, 676.725 430.099 C 669.471 415.350, 651.913 402.580, 647.011 408.486 M 939.500 413.839 C 934.484 415.917, 931.779 416.339, 923 416.412 C 917.225 416.460, 910.092 416.114, 907.148 415.642 C 902.195 414.848, 901.839 414.923, 902.366 416.642 C 903.676 420.920, 908.211 447.591, 910.015 461.631 C 911.085 469.953, 912.451 485.478, 913.052 496.131 C 913.653 506.784, 914.346 516.513, 914.591 517.750 C 915.429 521.968, 917 520.014, 917.003 514.750 C 917.016 495.644, 923.408 452.566, 926.627 449.895 C 928.581 448.273, 930.560 450.185, 934.021 457.041 C 941.165 471.194, 944.183 486.583, 944.258 509.250 C 944.287 517.913, 944.595 525, 944.943 525 C 945.291 525, 947.471 522.117, 949.788 518.593 C 952.932 513.811, 954 511.193, 954 508.266 C 954 506.109, 952.638 489.079, 950.972 470.422 C 949.307 451.765, 947.662 430.971, 947.316 424.212 C 946.970 417.454, 946.420 411.796, 946.094 411.639 C 945.767 411.482, 942.800 412.472, 939.500 413.839 M 564.500 419.543 C 553.771 425.799, 532.750 435.106, 526.261 436.472 C 521.367 437.503, 521.430 438.710, 526.536 441.742 C 529.090 443.259, 537.063 448.685, 544.254 453.800 C 554.812 461.310, 557.561 462.850, 558.539 461.800 C 560.290 459.920, 577 416.608, 577 413.950 C 577 412.392, 575.988 412.845, 564.500 419.543 M 580.235 418.301 C 579.727 418.961, 577.679 424, 575.684 429.500 C 573.689 435, 569.794 445.094, 567.029 451.932 C 564.263 458.770, 562 464.885, 562 465.521 C 562 466.765, 577.059 478, 578.725 478 C 579.276 478, 580.311 475.249, 581.024 471.886 C 583.787 458.869, 592.654 445.079, 602.439 438.584 C 606.359 435.982, 608.170 434.014, 609.023 431.430 C 609.670 429.470, 609.954 427.621, 609.655 427.322 C 609.356 427.022, 606.723 426.596, 603.805 426.374 C 596.771 425.839, 590.043 423.538, 585.152 419.995 C 582.188 417.848, 580.921 417.412, 580.235 418.301 M 472 431.538 C 426.029 438.806, 392.138 466.077, 381.807 504.113 C 378.791 515.213, 378.538 540.733, 381.341 551 C 387.039 571.866, 394.339 584.194, 405.387 591.606 C 416.739 599.221, 429.816 606.891, 441.084 612.542 C 453.846 618.943, 468.767 625.244, 470.104 624.799 C 470.623 624.626, 468.059 622.238, 464.406 619.492 C 451.429 609.739, 437.987 592.518, 431.979 577.949 C 426.418 564.463, 425.583 559.868, 425.540 542.500 C 425.506 528.766, 425.821 525.393, 427.765 518.684 C 432.788 501.350, 439.637 489.307, 451.391 477.141 C 460.403 467.811, 468.339 462.130, 480.148 456.553 C 492.078 450.918, 503.070 447.972, 514.750 447.277 C 519.837 446.975, 524 446.343, 524 445.873 C 524 444.555, 505.443 435.574, 496.636 432.629 C 487.930 429.718, 484.476 429.565, 472 431.538 M 232.025 436.790 C 228.562 438.830, 222.661 443.336, 218.909 446.802 C 211.364 453.775, 211.289 453.946, 204.016 481 C 202.315 487.325, 200.686 493.288, 200.395 494.250 C 199.464 497.325, 201.427 496.112, 203.644 492.242 C 204.823 490.184, 209.145 484.675, 213.247 480 C 219.319 473.081, 222.509 468.027, 230.395 452.835 C 235.723 442.569, 239.686 433.924, 239.201 433.625 C 238.717 433.325, 235.487 434.749, 232.025 436.790 M 614.500 436.999 C 599.064 442.160, 586.135 459.135, 584.282 476.675 L 583.736 481.849 593.979 486.990 C 605.397 492.720, 624.383 499.451, 626.662 498.576 C 627.511 498.251, 628.004 497.063, 627.820 495.788 C 627.583 494.143, 626.519 493.336, 623.721 492.677 C 621.642 492.188, 618.557 490.403, 616.865 488.712 C 615.174 487.020, 612.389 484.885, 610.677 483.966 C 605.555 481.219, 603.493 477.592, 603.553 471.435 C 603.595 467.104, 604.197 465.181, 606.567 461.809 C 609.982 456.950, 614.928 453.710, 618.219 454.176 C 620.258 454.466, 620.033 454.818, 616.091 457.500 C 610.073 461.595, 607.803 464.982, 607.262 470.676 C 606.892 474.563, 607.225 476.034, 608.974 478.250 C 611.942 482.010, 613.376 481.711, 615.555 476.877 C 617.646 472.242, 623.374 467.890, 627.695 467.653 C 631.623 467.439, 631.800 469.311, 627.957 470.429 C 622.971 471.878, 618 477.123, 618 480.934 C 618 487.386, 621.792 490, 631.149 490 C 636.382 490, 637.532 491.467, 633.500 493 C 630.514 494.135, 630.045 498.427, 632.750 499.851 C 633.712 500.358, 639.117 501.097, 644.760 501.495 C 657.544 502.395, 658.984 501.680, 661.346 493.262 C 664.884 480.655, 662.920 463.414, 656.760 453 C 648.026 438.235, 630.572 431.626, 614.500 436.999 M 864.649 442.685 C 863.328 444.005, 864.061 459.157, 865.992 470.452 C 869.480 490.853, 871.651 497.863, 876.382 504 C 884.861 514.999, 890.963 527.080, 894.818 540.500 C 897.155 548.635, 899 557.259, 899 560.049 C 899 563.434, 897.253 562.163, 896.527 558.250 C 896.145 556.188, 894.239 549.550, 892.292 543.500 C 883.373 515.782, 869.544 497.325, 848.066 484.473 C 838.937 479.010, 824 474.112, 824 476.582 C 824 476.902, 830.251 486.690, 837.891 498.332 C 852.654 520.829, 862.165 538.518, 866.405 551.364 C 869.263 560.024, 869.432 561, 868.078 561 C 867.570 561, 866.608 559.313, 865.940 557.250 C 860.434 540.256, 848.790 528.524, 833.465 524.533 C 824.095 522.092, 803.844 522.963, 804.052 525.797 C 804.080 526.184, 808.017 529.182, 812.802 532.459 C 817.663 535.790, 826.794 543.735, 833.500 550.470 L 845.500 562.522 875.500 567.321 C 928.293 575.765, 949.580 579.899, 982.777 588.155 C 992.476 590.567, 1000.051 591.953, 1001.519 591.585 C 1005.392 590.612, 1015.929 580.017, 1016.605 576.413 C 1017.838 569.847, 1009.341 565.019, 1000.171 567.074 C 994.774 568.283, 989.093 571.132, 986.616 573.870 C 984.350 576.376, 982.563 575.684, 984.064 572.881 C 985.127 570.894, 997.784 556.057, 1008.376 544.380 C 1011.429 541.015, 1013.644 537.977, 1013.297 537.630 C 1012.201 536.534, 1002.698 536.971, 997.500 538.357 C 988.331 540.802, 980.781 545.229, 973.383 552.500 C 967.648 558.136, 965.407 561.296, 961.880 568.717 C 957.698 577.517, 956 579.768, 956 576.512 C 956 572.285, 973.172 536.160, 983.813 518 C 986.875 512.775, 992.895 502.977, 997.190 496.227 C 1001.486 489.477, 1005 483.458, 1005 482.852 C 1005 481.138, 999.387 482.614, 991.256 486.465 C 967.083 497.913, 947.864 521.221, 939.483 549.250 C 937.880 554.612, 936.156 559, 935.652 559 C 934.644 559, 934.875 557.033, 937.907 539.740 C 942.007 516.362, 941.671 493.764, 936.950 475.306 C 934.866 467.158, 930.215 456, 928.902 456 C 925.703 456, 919.021 515.255, 919.007 543.750 C 918.998 561.732, 917.304 561.613, 915.442 543.500 C 913.023 519.978, 901.943 488.992, 888.669 468.628 C 881.066 456.964, 866.308 441.025, 864.649 442.685 M 512.250 451.004 C 470.700 456.821, 438.385 485.913, 430.358 524.726 C 428.375 534.316, 428.943 556.585, 431.399 565.500 C 436.269 583.180, 448.224 601.101, 464 614.370 C 477.449 625.682, 486.223 630.926, 496.349 633.708 C 513.087 638.305, 530.648 641.641, 527.917 639.705 C 527.687 639.542, 524.817 637.630, 521.538 635.455 C 513.505 630.126, 501.085 618.209, 494.974 609.964 C 489.044 601.966, 482.939 589.225, 480.375 579.500 C 477.873 570.007, 477.759 545.246, 480.177 536.500 C 486.210 514.679, 497.885 498.479, 515.512 487.469 C 526.885 480.366, 543.204 475.147, 554.815 474.900 C 565.138 474.681, 565.087 474.225, 553.800 465.930 C 532.184 450.043, 533.995 451.039, 525.861 450.561 C 521.813 450.323, 515.687 450.522, 512.250 451.004 M 546.734 479.538 C 521.864 484.180, 501.142 499.207, 490.602 520.241 C 484.225 532.968, 481.917 542.656, 481.847 557 C 481.682 590.362, 498.096 617.041, 531.539 637.771 C 539.196 642.517, 539.921 642.751, 550.500 643.875 C 567.328 645.664, 596 646.529, 596 645.248 C 596 644.661, 592.670 642.353, 588.600 640.120 C 554.005 621.132, 534.179 589.772, 536.369 557.500 C 537.120 546.425, 538.909 539.586, 543.432 530.500 C 551.993 513.300, 568.535 500.270, 587.805 495.548 C 591.762 494.578, 595 493.434, 595 493.006 C 595 492.578, 593.313 491.432, 591.250 490.458 C 589.188 489.485, 583.900 486.418, 579.500 483.642 C 571.678 478.706, 571.311 478.589, 563 478.341 C 558.325 478.202, 551.005 478.741, 546.734 479.538 M 690.500 492.026 C 681.235 493.896, 681 494.143, 681 502.017 C 681 511.968, 683.553 523.161, 687.709 531.429 C 692.967 541.889, 704.818 553.327, 716 558.735 C 725.593 563.374, 736.560 566.308, 742.503 565.825 L 746.500 565.500 748.924 557.500 C 752.180 546.754, 752.444 524.665, 749.419 516 C 748.074 512.148, 746.970 510.497, 745.735 510.490 C 744.764 510.485, 743.152 509.135, 742.152 507.490 C 739.972 503.906, 734.131 498.636, 729.928 496.463 C 721.054 491.874, 701.922 489.721, 690.500 492.026 M 595.500 497.478 C 569.764 502.243, 549.997 518.952, 542.832 542 C 540.858 548.347, 540.508 551.575, 540.552 563 C 540.597 574.887, 540.915 577.396, 543.213 584 C 551.600 608.110, 569.407 626.673, 597.814 640.917 L 606.127 645.086 616.314 643.991 C 621.916 643.389, 632.125 641.779, 639 640.414 C 652.503 637.732, 677 630.452, 677 629.121 C 677 628.671, 673.192 627.297, 668.538 626.068 C 641.243 618.857, 617.280 597.290, 608.249 571.806 C 606.170 565.938, 605.572 562.090, 605.210 552.258 C 604.802 541.168, 605.002 539.240, 607.338 531.758 C 610.204 522.584, 615.341 513.339, 620.563 507.958 C 622.453 506.010, 624 504.133, 624 503.788 C 624 503.443, 619.837 501.812, 614.750 500.164 C 609.663 498.516, 604.825 496.946, 604 496.675 C 603.175 496.404, 599.350 496.766, 595.500 497.478 M 666.001 500.999 C 654.419 506.518, 650.674 507.017, 636.500 504.930 L 629.500 503.899 623.801 509.922 C 613.215 521.109, 607.215 538.363, 608.434 554.107 C 611.036 587.711, 640.885 618.087, 677.593 624.488 L 686.352 626.016 695.426 620.986 C 707.792 614.133, 716.311 607.559, 725.635 597.678 C 733.115 589.751, 744.510 572.635, 743.450 570.919 C 743.177 570.477, 740.826 569.834, 738.227 569.490 C 735.627 569.146, 730.366 567.953, 726.535 566.838 C 696.674 558.150, 677.256 532.992, 678.101 504.085 C 678.221 499.972, 677.909 496.470, 677.408 496.303 C 676.906 496.135, 671.774 498.249, 666.001 500.999 M 135.640 547.482 C 120.535 550.636, 107.515 559.927, 100.956 572.235 C 98.385 577.058, 97.575 579.943, 97.214 585.560 C 96.899 590.477, 97.129 592.962, 97.948 593.468 C 98.604 593.873, 101.922 594.796, 105.320 595.518 C 114.482 597.464, 127.277 602.669, 134.100 607.226 C 139.936 611.123, 150 623.407, 150 626.634 C 150 627.360, 151.179 628.726, 152.620 629.670 C 154.732 631.054, 157.686 631.398, 167.870 631.443 L 180.500 631.500 180.440 626.788 C 180.341 619.118, 174.918 615, 164.914 615 C 160.235 615, 159.398 615.367, 155.740 619.025 C 153.527 621.238, 151.518 622.852, 151.277 622.610 C 150.570 621.903, 152.607 618.696, 155.457 616.030 C 159.017 612.700, 169.716 611.969, 174.980 614.697 C 179.569 617.074, 183 622.330, 183 626.981 C 183 629.008, 183.244 630.911, 183.542 631.209 C 183.841 631.507, 187.315 631.136, 191.264 630.384 C 206.799 627.423, 217.269 622.447, 222.562 615.507 C 224.728 612.667, 225.487 610.421, 225.816 605.868 C 226.594 595.108, 222.199 588.175, 211 582.500 C 204.114 579.011, 199.420 574.616, 194.850 567.380 C 185.763 552.992, 174.426 547.258, 153.500 546.466 C 146.271 546.192, 140.148 546.541, 135.640 547.482 M 301.329 574.220 C 297.347 578.404, 292.592 586.357, 290.998 591.500 C 289.350 596.819, 288.154 597.994, 286.811 595.613 C 282.199 587.434, 267.729 577.393, 265.576 580.878 C 265.222 581.449, 266.466 584.973, 268.339 588.709 C 270.213 592.444, 273.431 599.438, 275.491 604.250 C 278.925 612.269, 281 615.060, 281 611.657 C 281 609.730, 277.650 600.463, 274.522 593.737 C 273.048 590.568, 272.019 587.444, 272.235 586.795 C 272.853 584.940, 281.337 593.364, 284.236 598.712 C 285.664 601.345, 287.149 605.207, 287.535 607.294 C 288.572 612.884, 290.227 611.306, 291.582 603.435 C 292.965 595.396, 295.856 587.685, 299.618 582.002 C 302.521 577.614, 304.582 576.713, 303.624 580.250 C 301.745 587.185, 298.704 605.038, 299.300 605.634 C 299.685 606.018, 301.687 604.540, 303.750 602.349 C 307.397 598.475, 313.460 595.126, 314.658 596.324 C 314.984 596.651, 313.870 598.080, 312.181 599.501 C 308.705 602.426, 304.462 608.795, 305.379 609.712 C 305.712 610.046, 308.588 607.884, 311.769 604.909 C 314.950 601.934, 318.891 598.533, 320.526 597.352 C 322.916 595.625, 323.256 594.950, 322.259 593.911 C 320.516 592.095, 312.018 592.422, 308.086 594.455 C 306.287 595.386, 304.576 595.909, 304.284 595.617 C 303.992 595.326, 304.748 590.846, 305.962 585.662 C 309.282 571.491, 307.683 567.543, 301.329 574.220 M 820 577.492 C 811.799 579.333, 799.004 585.648, 792.500 591.064 C 777.484 603.569, 770.253 623.278, 774.172 641.017 C 774.402 642.057, 773.903 642.351, 772.500 642 C 771.400 641.725, 766.900 641.518, 762.500 641.541 C 755.876 641.574, 753.526 642.052, 748.839 644.321 C 734.327 651.345, 730.660 664.846, 742.028 669.394 C 747.812 671.709, 758.977 672.420, 769.380 671.137 C 781.785 669.606, 785.952 667.271, 788.307 660.534 C 788.492 660.002, 791.312 660.762, 794.572 662.223 C 802.126 665.606, 813.191 668.572, 823.920 670.089 C 834.759 671.622, 863.793 670.681, 873.914 668.469 C 893.464 664.197, 901.780 658.341, 902.759 648.156 C 904.074 634.466, 895.743 618.583, 876.590 598.271 C 867.821 588.970, 857.903 581.918, 849.322 578.882 C 841.710 576.189, 828.576 575.566, 820 577.492 M 819.544 581.607 C 798.879 586.604, 781.827 603.063, 777.946 621.760 C 776.469 628.876, 777.179 638.508, 779.516 643.045 C 784.497 652.717, 790.811 657.592, 803.937 661.901 C 812.640 664.758, 813 664.691, 813 660.196 C 813 654.994, 817.319 646.752, 822.338 642.378 C 833.817 632.374, 853.199 629.862, 862.495 637.175 C 867.791 641.341, 870.446 651.067, 868.025 657.435 C 866.397 661.715, 865.285 660.306, 866.300 655.250 C 868.284 645.363, 863.883 638.566, 853.742 635.853 C 848.001 634.318, 838.377 635.671, 831.559 638.972 C 823.003 643.113, 815 653.183, 815 659.805 C 815 664.724, 817.403 665.841, 830.551 667.030 C 856.752 669.401, 888.226 663.782, 896.170 655.316 C 898.217 653.135, 898.500 651.842, 898.500 644.667 C 898.500 637.606, 898.081 635.620, 895.407 630 C 889.166 616.882, 870.714 595.609, 859.072 588.111 C 847.126 580.416, 833.642 578.198, 819.544 581.607 M 188 593.061 C 182.397 593.991, 178.570 595.458, 174.869 598.093 C 169.970 601.582, 171.712 602.004, 177.881 598.822 C 184.637 595.338, 195.844 593.795, 198.484 595.987 C 200.929 598.016, 200.247 603.348, 196.487 611.598 C 194.555 615.838, 193.205 619.538, 193.487 619.820 C 194.211 620.544, 194.352 620.326, 198.383 612.275 C 205.735 597.590, 202.029 590.732, 188 593.061 M 82.723 599.889 C 70.332 603.989, 57.093 615.186, 52.327 625.596 C 50.934 628.639, 49.978 631.311, 50.202 631.535 C 50.426 631.759, 52.452 631.031, 54.705 629.916 C 58.429 628.074, 59.110 628.019, 62.211 629.315 C 66.443 631.083, 71.758 637.193, 76.019 645.188 C 80.257 653.138, 78.085 651.714, 72.367 642.793 C 66.334 633.380, 63.628 631, 58.958 631 C 50.881 631, 45.476 643.423, 51.250 648.713 C 57.608 654.538, 72.506 658.729, 90.223 659.676 C 99.800 660.188, 102.028 660.046, 102.391 658.901 C 102.635 658.131, 103.640 654.815, 104.622 651.534 C 107.650 641.427, 116.590 634.028, 125.800 634.006 C 128.933 633.998, 133.711 636.592, 135 639.001 C 135.937 640.750, 135.633 640.691, 132.390 638.490 C 130.372 637.121, 127.321 636.010, 125.610 636.022 C 120.895 636.055, 114.729 639.294, 111.145 643.621 C 107.791 647.670, 104.363 657.160, 105.557 659.093 C 106.544 660.689, 119.347 659.340, 130.863 656.427 C 141.287 653.790, 148.564 650.051, 150.181 646.503 C 153.084 640.130, 145.619 622.509, 136.475 614.151 C 123.112 601.938, 97.260 595.078, 82.723 599.889 M 958.946 618.825 C 953.493 622.289, 948.911 627.416, 944.874 634.570 C 943.188 637.557, 941.457 640, 941.026 640 C 940.595 640, 939.673 638.624, 938.976 636.942 C 938.280 635.261, 935.738 631.856, 933.328 629.376 C 924.887 620.691, 922.082 625.240, 925.918 641.393 C 928.465 652.117, 930.720 657.680, 932.002 656.398 C 932.609 655.791, 932.215 652.357, 930.918 646.971 C 927.879 634.350, 927.165 630.016, 928.034 629.479 C 930.296 628.081, 937.977 641.469, 939.415 649.314 C 940.380 654.577, 942.019 653.511, 943.981 646.344 C 944.891 643.018, 946.927 638.094, 948.505 635.401 C 951.639 630.053, 960.679 620.684, 961.949 621.468 C 962.385 621.738, 960.318 628.786, 957.357 637.132 C 954.395 645.477, 952.194 652.527, 952.465 652.799 C 952.737 653.070, 954.919 651.486, 957.314 649.279 C 961.670 645.263, 967.550 642.564, 970.610 643.175 C 971.738 643.400, 970.834 644.506, 967.667 646.777 C 963.058 650.083, 958.332 655.665, 959.312 656.646 C 959.604 656.937, 962.839 654.879, 966.502 652.072 C 970.165 649.265, 974.475 646.289, 976.081 645.458 C 979.449 643.716, 979.847 641.524, 977.066 640.035 C 974.340 638.577, 969.964 638.749, 964.970 640.511 C 962.615 641.342, 960.459 641.793, 960.180 641.513 C 959.901 641.234, 961.566 635.818, 963.880 629.478 C 966.194 623.138, 967.817 617.512, 967.485 616.976 C 966.437 615.280, 963.536 615.908, 958.946 618.825 M 352.655 635.750 C 351.856 637.046, 358.627 659.376, 359.953 659.818 C 361.337 660.279, 360.774 654.442, 358.830 648.183 C 358.264 646.359, 358.104 644.562, 358.475 644.191 C 359.313 643.354, 360.902 645.916, 363.500 652.290 C 364.600 654.989, 365.890 657.265, 366.366 657.349 C 366.843 657.432, 367.968 655.586, 368.866 653.246 C 370.680 648.525, 377.667 639.676, 378.953 640.471 C 379.406 640.751, 378.697 643.652, 377.377 646.917 C 374.443 654.183, 373.396 659, 374.751 659 C 376.062 659, 384.213 639.342, 383.797 637.184 C 383.621 636.270, 382.757 635.384, 381.877 635.215 C 379.505 634.758, 371.794 641.032, 369.500 645.286 C 368.400 647.326, 367.174 648.996, 366.776 648.997 C 366.377 648.999, 365.315 647.538, 364.415 645.750 C 363.516 643.962, 361.163 640.813, 359.187 638.750 C 355.723 635.135, 353.628 634.173, 352.655 635.750 M 751.500 647.496 C 742.654 651.106, 736.975 658.519, 739.695 662.905 C 741.883 666.433, 746.159 667.475, 758.500 667.487 C 778.334 667.508, 784 665.630, 784 659.035 C 784 655.234, 778.895 649.312, 773.509 646.865 C 767.690 644.222, 758.906 644.474, 751.500 647.496" stroke="none" fill="black" fill-rule="evenodd"/>
</svg>