<svg xmlns="http://www.w3.org/2000/svg" width="1024" height="688" viewBox="0 0 1024 688" version="1.1">
	<path d="M 187.500 31.333 C 180.209 33.198, 171.272 37.537, 166.254 41.648 L 161.869 45.241 152.141 43.621 C 139.960 41.591, 132.811 41.570, 126.167 43.543 C 120.558 45.209, 114.774 49.629, 112.758 53.791 C 111.506 56.376, 111.448 56.388, 100.780 56.117 C 79.817 55.586, 68 60.502, 68 69.754 C 68 71.574, 67.438 73.217, 66.750 73.405 C 66.063 73.593, 62.606 74.288, 59.069 74.950 C 45.521 77.485, 35.371 83.281, 31.293 90.811 C 29.948 93.295, 28.012 94.725, 23.545 96.533 C 12.373 101.055, 7.299 109.297, 12.004 115.278 C 16.040 120.409, 24.277 123.329, 38.251 124.581 L 46.002 125.276 52.485 132.520 C 61.784 142.909, 72.268 150.497, 88.384 158.500 L 102.481 165.500 110.182 175.126 C 114.419 180.420, 123.483 190.579, 130.326 197.702 C 137.170 204.824, 143.470 212.008, 144.327 213.666 C 148.943 222.592, 148.866 236.254, 144.014 268.779 C 142.396 279.626, 140.510 294.751, 139.823 302.390 L 138.574 316.280 135.319 317.640 C 133.529 318.388, 131.887 319, 131.671 319 C 131.455 319, 131.040 316.373, 130.748 313.162 C 129.743 302.079, 124.540 297.092, 115.409 298.461 L 111.170 299.097 109.545 293.507 C 106.733 283.835, 97.568 276.044, 89 276.044 C 81.828 276.044, 74.368 281.402, 69.811 289.827 L 68.122 292.949 64.347 291.372 C 55.866 287.828, 47.937 292.268, 44.910 302.254 C 43.829 305.819, 42.868 307.376, 41.910 307.112 C 38.610 306.204, 31.129 306.882, 28.298 308.346 C 24.028 310.554, 20.253 315.347, 18.938 320.230 C 17.895 324.105, 18.014 326.207, 19.593 331.750 C 20.164 333.758, 19.879 334, 16.932 334 C 8.496 334, 0 342.017, 0 349.979 C 0 352.887, 0.415 354, 1.500 354 C 2.525 354, 3.001 352.971, 3.004 350.750 C 3.006 348.962, 3.884 346.062, 4.956 344.304 C 8 339.312, 11.549 337.523, 18.790 337.330 C 22.300 337.237, 25.383 336.950, 25.640 336.693 C 25.897 336.436, 25.185 334.712, 24.058 332.863 C 21.377 328.467, 21.300 320.582, 23.898 316.641 C 28.040 310.359, 36.752 308.057, 43.354 311.501 C 44.924 312.320, 46.611 312.740, 47.104 312.436 C 47.597 312.131, 48 309.636, 48 306.891 C 48 300.733, 50.069 296.533, 54.138 294.428 C 58.084 292.388, 62.910 293.212, 66.957 296.617 L 69.972 299.155 71.071 296.327 C 75.330 285.370, 78.426 281.770, 85.146 279.961 C 95.057 277.292, 104.548 284.711, 107.039 297.074 C 108.697 305.305, 108.422 305.035, 112.898 302.820 C 122.493 298.073, 129.848 306.096, 127.215 318.438 C 126.677 320.963, 126.588 323.245, 127.017 323.510 C 127.446 323.776, 129.755 323.116, 132.148 322.045 C 134.701 320.902, 136.867 320.467, 137.391 320.991 C 138.311 321.911, 135.614 358.851, 133.885 369 C 132.186 378.970, 129.824 387.903, 128.652 388.783 C 127.171 389.896, 114.882 393.215, 114.320 392.653 C 114.086 392.419, 115.477 389.244, 117.412 385.597 C 122.020 376.912, 123.717 371.317, 122.203 369.803 C 121.358 368.958, 119.139 370.148, 113.500 374.467 C 109.337 377.656, 105.752 380.086, 105.534 379.867 C 105.315 379.648, 106.714 374.758, 108.643 369 C 112.587 357.226, 113.994 349, 112.065 349 C 109.662 349, 99.388 360.005, 94 368.351 C 90.975 373.036, 88.162 376.899, 87.750 376.935 C 87.338 376.971, 87 374.828, 87 372.174 C 87 364.006, 84.871 345.571, 83.773 344.238 C 82.196 342.321, 80.522 344.250, 78.097 350.781 C 75.332 358.226, 73.039 369.270, 73.017 375.250 C 73.008 377.863, 72.662 379.988, 72.250 379.974 C 71.838 379.960, 69.534 376.854, 67.132 373.071 C 61.883 364.805, 53.722 356.436, 51.968 357.520 C 50.267 358.571, 51.305 367.380, 54.381 377.996 C 55.734 382.668, 56.738 386.595, 56.611 386.722 C 56.484 386.849, 52.357 384.962, 47.440 382.529 C 36.772 377.250, 31 375.933, 31 378.779 C 31 379.807, 33.511 383.990, 36.579 388.074 C 45.418 399.839, 45.575 399.050, 34.547 398.326 C 26.129 397.772, 24.977 397.897, 24.389 399.428 C 23.918 400.657, 25.117 402.565, 28.553 406.054 C 31.208 408.749, 33.182 411.146, 32.940 411.381 C 32.698 411.617, 26.909 412.756, 20.076 413.913 C 3.685 416.688, 0 417.733, 0 419.606 C 0 420.593, 0.621 420.951, 1.750 420.617 C 4.882 419.690, 25.348 416.065, 31.338 415.376 C 34.980 414.957, 37.383 414.166, 37.725 413.275 C 38.051 412.424, 36.325 409.868, 33.460 406.959 C 29.248 402.683, 28.878 401.984, 30.497 401.363 C 32.124 400.738, 38.721 401.617, 47.250 403.595 C 49.122 404.030, 50 403.835, 50 402.985 C 50 402.298, 46.807 397.263, 42.904 391.797 C 39.001 386.331, 36.017 381.649, 36.273 381.394 C 37.436 380.230, 48.182 385.486, 54.731 390.422 C 58.707 393.419, 62.170 395.535, 62.424 395.123 C 62.679 394.710, 61.753 391.252, 60.367 387.437 C 57.394 379.251, 53.644 364.022, 54.414 363.253 C 55.962 361.705, 64.832 373.636, 70.396 384.750 C 72.392 388.738, 74.412 392, 74.884 392 C 75.357 392, 75.985 385.812, 76.279 378.250 C 76.812 364.569, 79.370 351.500, 81.515 351.500 C 82.617 351.500, 83.415 358.425, 84.480 377.250 C 84.877 384.262, 85.571 390, 86.023 390 C 86.475 390, 87.378 388.313, 88.030 386.250 C 90.624 378.042, 100.769 362.080, 106.878 356.595 C 108.965 354.722, 109 354.722, 108.989 356.595 C 108.984 357.643, 106.553 365.700, 103.587 374.500 C 100.622 383.300, 98.411 390.850, 98.674 391.277 C 98.937 391.705, 102.373 388.834, 106.309 384.898 C 113.907 377.300, 117.693 374.359, 118.647 375.314 C 118.968 375.635, 116.504 381.046, 113.171 387.338 C 109.838 393.629, 107.346 399.012, 107.633 399.300 C 107.920 399.587, 110.999 398.491, 114.475 396.865 C 121.630 393.516, 128 392.107, 128 393.872 C 128 394.496, 126.671 397.141, 125.047 399.750 C 123.423 402.359, 122.445 404.845, 122.874 405.274 C 123.863 406.263, 142.836 404.564, 144.019 403.381 C 144.529 402.871, 144.510 400.810, 143.975 398.499 C 142.785 393.366, 142.745 388, 143.896 388 C 144.830 388, 149.485 392.999, 152.317 397.042 C 153.217 398.328, 154.209 399.125, 154.520 398.813 C 154.831 398.502, 155.494 393.354, 155.993 387.374 C 157.039 374.850, 157.902 370, 159.086 370 C 160.110 370, 161.848 376.178, 163.428 385.435 C 164.079 389.250, 165.037 392.498, 165.556 392.653 C 166.075 392.808, 168.075 390.165, 170 386.778 C 175.192 377.644, 190.413 363.080, 192.542 365.209 C 192.842 365.509, 190.626 371.307, 187.619 378.094 C 184.611 384.881, 182.382 390.810, 182.666 391.269 C 182.950 391.728, 185.279 390.161, 187.841 387.786 C 195.338 380.838, 209.164 372.838, 210.352 374.760 C 210.604 375.168, 207.942 380.452, 204.436 386.501 C 200.930 392.550, 198.048 397.837, 198.031 398.250 C 197.973 399.650, 199.745 399.007, 205.504 395.540 C 211.376 392.004, 223.699 387.366, 224.663 388.329 C 224.957 388.624, 223.074 391.841, 220.478 395.478 C 217.883 399.116, 216.008 402.341, 216.312 402.645 C 216.616 402.949, 227.808 403.150, 241.182 403.091 C 254.557 403.032, 272.925 403.414, 282 403.940 C 317.311 405.984, 376 410.505, 376 411.180 C 376 411.571, 370.056 415.853, 362.791 420.695 C 343.147 433.788, 339.406 437.978, 335.372 451.401 C 334.604 453.955, 333.662 454.530, 327.500 456.203 C 314.548 459.720, 306.423 464.500, 296.460 474.461 C 281.513 489.406, 274.782 505.393, 274.793 525.916 C 274.805 546.619, 281.441 562.445, 296.470 577.615 C 304.167 585.384, 306.902 587.414, 315 591.364 C 328.247 597.826, 335.069 599.427, 349 599.346 C 369.582 599.227, 384.261 592.986, 399 578.091 C 413.647 563.287, 419.928 549.115, 420.773 528.963 C 421.453 512.762, 418.350 500.306, 410.554 487.942 C 408.686 484.979, 407.343 482.254, 407.570 481.887 C 407.797 481.520, 410.971 480.023, 414.623 478.561 L 421.264 475.903 429.382 483.772 C 441.538 495.556, 450.145 500.860, 463.878 505.032 C 473.453 507.940, 481.613 507.424, 488.916 503.449 C 494.074 500.642, 497.406 496.983, 510.911 479.299 C 521.557 465.359, 527.991 461.244, 545.204 457.367 C 558.252 454.427, 568.601 450.861, 575.659 446.873 L 580.817 443.958 589.623 445.494 C 594.466 446.338, 598.740 447.360, 599.119 447.765 C 599.498 448.169, 600.504 452.612, 601.355 457.638 C 603.516 470.413, 603.309 470.998, 590.217 489.102 C 583.872 497.876, 580.437 507.757, 581.429 514.376 C 583.082 525.401, 597.776 531.033, 624.708 530.965 C 648.681 530.904, 663.963 526.931, 672.654 518.500 C 680.698 510.696, 682.253 501.840, 679.505 479.500 C 677.588 463.918, 677.100 446.495, 678.335 437.736 C 679.057 432.614, 679.555 431.695, 682.806 429.486 C 687.667 426.183, 688.480 426.329, 689.820 430.750 C 692.813 440.630, 704.603 453.845, 715.701 459.760 C 722.698 463.490, 723.006 464.253, 722.990 477.875 C 722.982 484.930, 722.532 487.464, 720.516 491.794 C 716.780 499.818, 715 506.737, 715 513.231 C 715 523.146, 718.417 526.983, 730.500 530.638 C 739.436 533.341, 763.567 533.082, 774.314 530.168 C 803.623 522.221, 809.395 506.733, 798.964 464.019 C 795.361 449.262, 791.269 438.477, 785.887 429.554 C 782.065 423.217, 781.824 422.386, 782.446 417.697 C 783.407 410.448, 784.265 409.343, 789.372 408.767 C 791.817 408.492, 795.241 407.253, 796.981 406.013 C 803.868 401.110, 819.085 399.337, 826.762 402.545 C 830.176 403.972, 830.558 403.957, 831.730 402.354 C 832.429 401.399, 833 400.113, 833 399.496 C 833 398.879, 834.262 397.165, 835.805 395.687 C 841.124 390.591, 850.316 392.778, 854.011 400.021 C 856.256 404.421, 856.634 404.592, 859.441 402.468 C 863.273 399.570, 870.612 401.232, 873.509 405.654 C 875.673 408.957, 877 408.569, 877 404.635 C 877 396.933, 884.264 393.249, 892.793 396.624 C 899.198 399.159, 899.541 399.054, 899.164 394.679 C 898.666 388.904, 900.851 381.371, 904.001 377.999 C 910.212 371.350, 918.351 375.590, 923.153 387.974 C 924.438 391.288, 925.992 394, 926.607 394 C 927.221 394, 928.216 391.549, 928.818 388.554 C 930.797 378.700, 936.454 369.394, 942.322 366.342 C 947.882 363.450, 949.600 369.397, 946.534 380.920 C 945.741 383.900, 945.349 386.756, 945.664 387.265 C 945.978 387.774, 948.396 385.925, 951.036 383.157 C 957.171 376.726, 962.484 374, 968.888 374 C 973.063 374, 974.185 374.420, 975.927 376.635 C 978.432 379.819, 978.536 383.111, 976.344 389.896 C 975.434 392.716, 974.994 395.327, 975.366 395.700 C 975.739 396.072, 978.010 395.422, 980.414 394.254 C 986.174 391.455, 990.914 390.636, 994.175 391.876 C 997.667 393.204, 998.438 396.015, 996.551 400.533 C 995.705 402.557, 995.226 404.556, 995.485 404.976 C 995.745 405.396, 997.744 405.413, 999.928 405.013 C 1004.441 404.188, 1012.644 405.258, 1019 407.500 C 1023.554 409.107, 1024.575 408.941, 1023.728 406.733 C 1023.024 404.899, 1015.978 402.895, 1007.550 402.130 L 1000.600 401.500 1000.498 397.341 C 1000.376 392.361, 999.001 390.486, 994.349 388.950 C 991.769 388.099, 989.718 388.085, 986.486 388.899 C 984.082 389.505, 981.709 390, 981.214 390 C 980.719 390, 980.356 387.040, 980.407 383.423 C 980.495 377.207, 980.320 376.684, 977.234 373.923 C 974.544 371.515, 973.085 371, 968.952 371 C 963.547 371, 958.413 372.743, 954.307 375.973 C 952.890 377.088, 951.407 378, 951.012 378 C 950.617 378, 950.509 375.757, 950.772 373.016 C 952.225 357.897, 937.498 360.349, 929.845 376.500 C 928.281 379.800, 927.001 383.063, 927.001 383.750 C 926.999 386.102, 925.500 384.937, 922.797 380.482 C 919.531 375.100, 914.790 372.009, 909.792 372.004 C 906.869 372.001, 905.253 372.794, 902.157 375.750 C 898.951 378.812, 898.015 380.601, 897.056 385.500 C 895.315 394.398, 895.680 393.960, 891 392.772 C 885.311 391.328, 879.816 393.084, 876.322 397.463 C 873.729 400.713, 873.503 400.794, 870.858 399.427 C 867.663 397.774, 862.675 397.568, 860.038 398.980 C 858.547 399.778, 857.714 399.313, 855.552 396.479 C 852.141 392.007, 848.186 389.999, 842.800 390.004 C 837.562 390.008, 832.678 392.788, 830.497 397.007 C 829.167 399.578, 828.524 399.966, 826.698 399.301 C 825.489 398.860, 820.225 398.500, 815 398.500 C 805.081 398.500, 801.364 399.464, 795.018 403.684 C 791.853 405.789, 787.073 406.740, 785.843 405.510 C 785.574 405.240, 786.425 400.178, 787.734 394.260 C 789.514 386.214, 790.259 379.086, 790.685 366 C 791.316 346.624, 790.349 336.272, 786.452 320.710 C 785.103 315.325, 784 310.654, 784 310.329 C 784 310.004, 785.491 309.980, 787.312 310.276 C 796.612 311.785, 808.673 321.025, 813.582 330.400 L 816.432 335.844 814.001 340.672 C 811.116 346.400, 810.160 356.923, 812.013 362.539 C 814.469 369.980, 824.266 378.002, 829.045 376.486 C 830.200 376.119, 832.760 376.947, 835.578 378.598 C 841.494 382.065, 852.504 383.070, 858.255 380.667 C 862.672 378.821, 862.825 378.124, 859.500 375 C 858.125 373.708, 857 371.545, 857 370.194 C 857 366.420, 862.937 361.416, 868.696 360.334 C 873.851 359.366, 873.742 359.606, 872.355 352.267 C 871.116 345.714, 875.954 340, 882.739 340 C 884.300 340, 887.342 340.900, 889.500 342 C 891.658 343.100, 893.735 344, 894.117 344 C 894.499 344, 894.604 340.512, 894.351 336.250 C 893.947 329.459, 894.178 328.009, 896.210 324.530 C 902.495 313.774, 916.049 313.072, 922.722 323.156 C 924.121 325.270, 925.437 327, 925.645 327 C 925.854 327, 927.159 324.436, 928.545 321.301 C 933.688 309.673, 940 304.714, 949.659 304.714 C 959.811 304.714, 968.140 312.541, 970.347 324.158 C 971.432 329.867, 973.368 331.809, 974.649 328.473 C 974.971 327.634, 977.134 325.834, 979.455 324.473 C 990.776 317.839, 1001.893 325.223, 1000.780 338.638 C 1000.536 341.587, 1000.653 344, 1001.041 344 C 1001.428 344, 1003.874 343.059, 1006.475 341.908 C 1012.164 339.392, 1016.555 339.913, 1020.971 343.629 C 1023.239 345.538, 1024.038 347.097, 1024.150 349.839 C 1024.283 353.105, 1024.346 353.186, 1024.731 350.592 C 1024.969 348.993, 1024.874 346.143, 1024.521 344.259 C 1023.983 341.390, 1023.139 340.506, 1019.326 338.820 C 1015.269 337.025, 1009.854 336.847, 1005.012 338.349 C 1004.744 338.432, 1004.207 336.279, 1003.819 333.564 C 1002.093 321.500, 990.010 315.383, 979 321 C 976.844 322.100, 974.705 323, 974.247 323 C 973.789 323, 972.901 321.087, 972.274 318.750 C 970.851 313.450, 965.092 306.616, 959.643 303.761 C 954.014 300.812, 945.017 300.795, 939.432 303.723 C 935.009 306.041, 929.541 311.741, 926.711 316.984 L 924.921 320.299 922.211 317.772 C 918.130 313.968, 915.645 313, 909.952 313 C 899.326 313, 892.083 320.211, 891.062 331.805 C 890.597 337.081, 890.157 338.409, 888.986 338.073 C 877.099 334.653, 868.607 340.615, 869.210 351.957 L 869.500 357.414 866.135 358.104 C 864.284 358.484, 861.418 359.794, 859.766 361.015 C 856.360 363.533, 855.043 362.631, 855.015 357.761 C 854.994 353.935, 851.652 345.543, 848.507 341.420 C 845.167 337.042, 842.451 335.273, 834.815 332.509 C 828.747 330.312, 828.688 330.253, 826.469 324.125 C 825.240 320.730, 823.057 316.173, 821.617 313.998 C 820.178 311.823, 819 309.471, 819.001 308.771 C 819.002 308.072, 821.364 306.189, 824.251 304.586 C 841.767 294.862, 869.681 275.629, 903.935 249.683 C 926.027 232.950, 930.691 230.527, 939.368 231.272 C 949.332 232.127, 956.194 235.583, 981.500 252.492 C 1003.384 267.114, 1020.085 277, 1022.903 277 C 1023.506 277, 1024 276.381, 1024 275.624 C 1024 274.867, 1020.737 272.538, 1016.750 270.449 C 1006.031 264.832, 998.241 259.927, 981 247.942 C 956.239 230.728, 944.198 225.680, 933.179 227.893 C 930.171 228.497, 925.693 230.118, 923.229 231.496 C 920.764 232.873, 918.242 233.993, 917.624 233.984 C 915.894 233.960, 900.102 221.279, 883.621 206.680 C 865.512 190.639, 861.611 187.745, 852 183.227 C 845.636 180.235, 843.136 179.629, 835.500 179.228 C 818.186 178.318, 808.432 182.565, 770.500 207.528 C 745.665 223.873, 729.975 234, 729.489 234 C 729.254 234, 726.011 232.031, 722.281 229.625 C 704.463 218.130, 686.562 211.080, 656.275 203.630 C 623.885 195.662, 617.733 192.897, 597.693 177.296 C 581.635 164.794, 574.061 160.413, 561.723 156.489 C 552.345 153.507, 551.520 153.042, 551.742 150.869 C 553.175 136.821, 553.151 131.777, 551.615 124.892 C 548.711 111.870, 542.804 101.559, 536.549 98.590 C 532.002 96.433, 525.476 96.590, 520.566 98.975 C 510.477 103.876, 498.182 118.803, 494.580 130.522 C 493.570 133.810, 492.415 136.863, 492.014 137.308 C 491.613 137.752, 487.508 137.092, 482.892 135.841 C 475.803 133.921, 472.093 133.575, 459 133.614 C 445.220 133.656, 442.549 133.951, 434.929 136.274 C 424.307 139.513, 413.192 144.571, 406.100 149.394 C 403.130 151.414, 400.356 152.939, 399.936 152.783 C 398.834 152.375, 385 134.908, 385 133.926 C 385 133.473, 386.523 131.940, 388.383 130.521 C 390.800 128.678, 394.297 127.499, 400.624 126.394 C 411.406 124.512, 418.231 121.703, 421.523 117.790 C 424.360 114.419, 424.774 109.550, 422.501 106.305 C 419.021 101.337, 408.040 97.035, 398.780 97.012 C 394.736 97.002, 393.752 96.584, 391.912 94.095 C 387.548 88.193, 375.388 83.485, 361.607 82.363 C 353.848 81.731, 353.364 81.544, 350.327 78.033 C 346.678 73.811, 341.741 72, 333.884 72 C 328.929 72, 328.277 71.721, 325.705 68.498 C 320.027 61.381, 308.651 58.045, 289.962 58.017 L 278.424 58 274.556 53.373 C 272.138 50.480, 268.593 47.764, 265.094 46.123 C 260.099 43.781, 258.250 43.492, 247.817 43.427 L 236.134 43.354 232.238 39.834 C 230.096 37.899, 225.704 35.024, 222.480 33.446 C 217.152 30.840, 215.517 30.554, 204.559 30.317 C 197.169 30.156, 190.564 30.550, 187.500 31.333 M 193.536 34.113 C 182.609 35.704, 172.798 40.163, 165.848 46.694 L 163.196 49.186 153.922 47.593 C 132.385 43.894, 120.292 46.663, 115.986 56.280 L 114.205 60.258 98.353 60.379 C 84.293 60.486, 81.962 60.748, 77.746 62.696 C 72.210 65.252, 70.332 68.646, 71.925 73.213 C 73.109 76.612, 73.526 76.396, 62 78.349 C 57.325 79.141, 50.861 80.788, 47.635 82.009 C 40.934 84.546, 34.309 90.532, 33.824 94.488 C 33.542 96.778, 32.587 97.430, 26.535 99.460 C 18.894 102.024, 14 106.312, 14 110.443 C 14 115.554, 23.449 119.650, 37.500 120.630 C 41.900 120.937, 46.918 121.821, 48.651 122.594 C 52.962 124.517, 54.668 124.368, 60.753 121.535 C 63.641 120.190, 67.612 118.788, 69.576 118.420 C 72.677 117.838, 73.566 118.156, 76.327 120.832 C 84.234 128.496, 98.093 128.837, 108.976 121.634 L 112.759 119.131 117.042 121.251 C 126.187 125.775, 140.602 122.664, 149.180 114.313 L 152.860 110.731 159.214 113.275 C 171.009 117.997, 181.459 119.021, 193 116.587 C 196.575 115.833, 199.859 115.433, 200.299 115.697 C 201.798 116.600, 198.806 118.946, 195.321 119.600 C 193.053 120.025, 191.477 121.053, 190.794 122.552 C 186.926 131.043, 199.784 136.652, 212.500 132.022 C 215.800 130.820, 220.750 129.386, 223.500 128.836 C 226.250 128.286, 230.750 126.713, 233.500 125.340 L 238.500 122.844 246.039 125.376 C 260.328 130.175, 279.777 131.078, 291.681 127.496 C 295.784 126.261, 296.631 126.261, 297.996 127.497 C 300.516 129.777, 308.097 132.776, 313.250 133.531 C 317.047 134.087, 318.250 134.756, 319.250 136.864 C 320.732 139.990, 328.457 144.181, 332 143.782 C 334.430 143.508, 334.516 143.228, 335.068 133.833 C 335.566 125.350, 335.967 123.733, 338.337 120.625 C 340.197 118.186, 342.151 116.875, 344.611 116.413 C 353.192 114.803, 365.360 118.747, 375.259 126.347 C 380.689 130.516, 381.803 130.720, 385.115 128.149 C 389.178 124.996, 391.473 124.122, 398.605 123.010 C 417.631 120.046, 424.657 113.836, 417.136 106.630 C 413.099 102.763, 405.986 100.836, 397 101.177 C 389.938 101.444, 389.500 101.337, 389.500 99.343 C 389.500 92.502, 373.695 86, 357.066 86 L 350.027 86 348.592 82.566 C 346.539 77.651, 342.387 75.856, 332.629 75.662 C 325.055 75.511, 324.478 75.349, 324.185 73.284 C 323.123 65.816, 302.054 59.834, 283 61.590 C 278.875 61.971, 275.275 62.210, 275 62.122 C 274.725 62.034, 274.186 60.787, 273.802 59.350 C 271.437 50.510, 256.327 44.519, 242.477 46.931 L 235.806 48.092 231.060 43.653 C 225.067 38.047, 221.505 36.215, 213.164 34.447 C 205.792 32.885, 202.366 32.826, 193.536 34.113 M 727.734 44.031 C 718.419 46.366, 708.807 54.702, 705.527 63.291 L 703.909 67.526 694.635 67.513 C 686.060 67.501, 684.994 67.727, 680.485 70.509 C 677.089 72.605, 674.869 74.956, 673.170 78.259 L 670.730 83 665.077 83 C 647.427 83, 639.244 100.136, 653.152 107.971 C 656.653 109.943, 659.253 110.494, 666.500 110.796 C 671.450 111.002, 677.372 110.739, 679.661 110.212 C 683.369 109.357, 684.507 109.592, 690.124 112.376 C 695.778 115.179, 697.353 115.500, 705.463 115.500 C 711.857 115.500, 715.986 114.948, 719.581 113.613 C 724.371 111.835, 724.942 111.819, 729.581 113.349 C 743.512 117.944, 762.006 117.424, 777.317 112.006 C 784.720 109.386, 785.733 109.263, 791.733 110.257 C 804.208 112.324, 819.383 107.884, 826.139 100.189 C 833.855 91.401, 832.388 82.251, 822.313 76.329 C 818.128 73.869, 816.390 73.482, 809 73.364 C 800.561 73.230, 800.494 73.208, 799.624 70.364 C 796.622 60.553, 793.380 56.309, 786.782 53.553 C 781.658 51.413, 773.435 51.619, 768.141 54.022 C 762.525 56.570, 762.332 56.548, 759.374 53.032 C 753.570 46.135, 737.538 41.574, 727.734 44.031 M 724.679 48.485 C 718.386 50.889, 713.349 55.613, 710.060 62.196 C 708.377 65.564, 707 69.121, 707 70.101 C 707 72.779, 705.592 73.145, 701.638 71.493 C 694.870 68.665, 684.859 70.165, 679.641 74.788 C 678.579 75.730, 676.721 78.719, 675.512 81.431 L 673.314 86.361 667.282 86.115 C 660.524 85.839, 655.632 87.481, 652.365 91.121 C 642.794 101.785, 657.348 110.618, 678.522 106.996 C 685.190 105.856, 686.224 105.893, 687.812 107.330 C 694.139 113.055, 710.604 114.129, 720.447 109.458 C 723.530 107.995, 724.162 108.037, 730.123 110.094 C 742.831 114.481, 765.920 113.583, 778 108.233 C 780.578 107.092, 785.189 106.659, 795.500 106.592 C 807.971 106.510, 810.072 106.241, 814.742 104.130 C 820.782 101.400, 826.492 95.587, 827.459 91.185 C 829.395 82.373, 817.751 74.799, 805.055 76.611 C 802 77.048, 799.087 77.426, 798.583 77.452 C 797.562 77.505, 796.486 74.422, 795.525 68.690 C 794.298 61.364, 786.159 55.011, 778 55.011 C 773.749 55.011, 768.197 56.963, 765.145 59.531 L 762.229 61.985 758.552 57.498 C 752.563 50.189, 747.210 47.651, 737.070 47.312 C 731.338 47.120, 727.235 47.508, 724.679 48.485 M 904.172 90.472 C 896.078 92.307, 886.465 97.580, 882.672 102.266 C 881.043 104.280, 879.175 108.031, 878.522 110.603 L 877.335 115.280 870.915 116.896 C 863.088 118.866, 858.591 121.921, 855.977 127.044 C 851.923 134.992, 854.703 141.600, 864.073 146.289 C 874.899 151.706, 892.850 152.343, 910.783 147.945 L 919.898 145.710 925.199 147.993 C 932.939 151.326, 945.577 151.876, 953.387 149.220 C 957.777 147.727, 960.063 147.445, 962.380 148.109 C 971.057 150.597, 986.236 148.197, 991.886 143.443 C 1002.309 134.672, 994.104 122.001, 977.721 121.567 C 971.651 121.406, 971.553 121.358, 970.913 118.227 C 969.267 110.179, 963.877 106.550, 954.594 107.239 C 951.242 107.488, 947.885 107.873, 947.134 108.096 C 946.359 108.325, 944.937 106.987, 943.845 105 C 940.949 99.728, 933.608 93.395, 928.295 91.585 C 921.450 89.253, 911.563 88.796, 904.172 90.472 M 902.230 94.550 C 889.281 98.037, 882.623 104.461, 881.136 114.903 L 880.481 119.500 873.816 120.074 C 868.603 120.523, 866.348 121.260, 863.469 123.456 C 859.234 126.686, 856.687 131.903, 857.589 135.498 C 858.530 139.247, 864.327 143.739, 870.754 145.700 C 879.589 148.395, 897.699 147.925, 910.161 144.678 L 919.822 142.160 926.161 144.727 C 934.320 148.030, 943.645 148.686, 951 146.474 C 957.301 144.580, 957.830 144.551, 968.109 145.537 C 977.702 146.458, 984.965 144.847, 989.608 140.771 C 998.183 133.242, 990.348 124.481, 975.648 125.160 L 968.523 125.489 967.820 120.576 C 966.775 113.268, 963.590 110.500, 956.227 110.500 C 952.842 110.500, 949.176 111.182, 947.262 112.168 L 944.023 113.835 940.947 107.389 C 937.527 100.223, 933.498 96.857, 925.438 94.431 C 919.486 92.640, 909.129 92.693, 902.230 94.550 M 521.500 103.186 C 515.892 106.128, 505.979 116.681, 502.286 123.640 C 497.262 133.109, 495.710 140.043, 495.771 152.744 C 495.800 158.936, 496.129 165.801, 496.500 168.001 C 497.044 171.217, 496.877 172, 495.647 172 C 494.646 172, 493.827 170.531, 493.277 167.750 C 492.220 162.405, 490.126 162.218, 487.668 167.250 C 486.660 169.313, 485.422 171, 484.918 171 C 483.008 171, 484.123 167.019, 487.394 162.158 C 490.259 157.900, 490.843 156.058, 491.144 150.327 C 491.484 143.849, 491.381 143.482, 488.902 142.288 C 480.095 138.046, 454.836 136.202, 442.500 138.900 C 410.303 145.941, 381.804 169.140, 371.030 197.078 C 369.074 202.150, 367.092 210.272, 365.830 218.387 C 364.709 225.599, 362.752 235.325, 361.482 240 C 359.856 245.985, 359.478 248.869, 360.207 249.748 C 360.776 250.435, 363.913 252.195, 367.178 253.660 C 370.442 255.125, 373.763 257.251, 374.557 258.385 C 376.373 260.977, 376.425 269.050, 374.653 273.282 C 373.027 277.166, 366.043 283.666, 361.422 285.597 C 356.599 287.612, 346.931 287.345, 340.296 285.013 C 337.186 283.920, 334.443 283.224, 334.200 283.467 C 333.957 283.709, 335.100 285.616, 336.738 287.704 C 340.921 293.034, 342.375 298.155, 341.593 304.805 C 339.370 323.724, 324.499 335.765, 302.500 336.461 L 294.500 336.714 294.541 344.607 C 294.577 351.609, 294.960 353.207, 297.936 358.761 C 305.275 372.459, 323.031 385.017, 340.134 388.605 C 350.305 390.738, 356.253 389.818, 366.856 384.470 C 371.610 382.072, 380.822 377.625, 387.326 374.588 C 401.473 367.983, 409.462 362.468, 417.810 353.544 C 423.925 347.007, 431.644 333.851, 430.474 331.959 C 430.149 331.431, 428.746 331, 427.358 331 C 425.785 331, 424.989 330.529, 425.245 329.750 C 425.801 328.064, 435.553 327.572, 439.121 329.050 C 442.878 330.606, 444.636 332.764, 443.265 334.135 C 442.530 334.870, 441.442 334.680, 439.651 333.507 C 438.241 332.583, 436.684 332.077, 436.191 332.382 C 435.697 332.687, 434.996 336.214, 434.632 340.218 C 431.792 371.507, 415.766 394.956, 397.200 394.990 C 394.286 394.996, 390.581 394.317, 388.967 393.483 C 386.045 391.972, 383 387.443, 383 384.609 C 383 383.789, 382.566 382.850, 382.037 382.523 C 380.817 381.769, 371.721 386.104, 371.245 387.667 C 370.670 389.550, 382.079 400.424, 387.205 402.880 C 393.258 405.781, 401.329 406.594, 408.133 404.990 C 418.173 402.622, 424.312 398.625, 438.107 385.473 L 451.218 372.973 470.113 363.521 C 492.939 352.102, 498.351 348.525, 507.707 338.673 C 521.636 324.007, 529 302.080, 529 275.276 C 529 271.274, 529.402 268, 529.893 268 C 531.438 268, 532.001 270.918, 531.980 278.832 C 531.907 307.076, 521.815 332.725, 505.290 346.658 C 497.772 352.998, 486.861 359.727, 475.406 365.090 C 469.683 367.769, 465.002 370.308, 465.004 370.731 C 465.017 373.532, 476.067 387.569, 478.988 388.496 C 481.811 389.392, 499.669 376.890, 503.073 371.635 C 508.916 362.614, 518.684 355.604, 529 353.026 C 534.302 351.702, 551.191 352.055, 551.669 353.500 C 551.871 354.111, 548.593 354.539, 543.250 354.600 C 532.962 354.718, 524.452 356.920, 517.711 361.211 C 513.024 364.193, 506 371.701, 506 373.728 C 506 374.307, 509.621 374.939, 514.358 375.188 C 523.529 375.669, 531.521 378.733, 535.976 383.474 C 539.451 387.174, 537.876 387.522, 532.870 384.160 C 526.652 379.985, 519.961 377.997, 512.215 378.022 C 503.615 378.050, 500.151 379.647, 486.972 389.658 C 481.212 394.033, 474.250 399.144, 471.500 401.015 C 465.963 404.782, 457 412.839, 457 414.049 C 457 414.475, 460.139 414.824, 463.976 414.824 C 472.885 414.824, 479.749 417.114, 484.007 421.507 C 487.716 425.334, 487.388 427.652, 483.636 424.128 C 476.879 417.780, 460.549 416.019, 448.617 420.350 C 445.056 421.643, 439.866 424.161, 437.084 425.946 C 432.141 429.118, 421.476 439.809, 422.366 440.699 C 422.612 440.946, 424.159 440.452, 425.802 439.602 C 430.791 437.023, 436.075 436.688, 439.986 438.703 C 444.725 441.146, 446.159 444.289, 445.725 451.287 C 445.419 456.238, 445.593 456.976, 446.934 456.401 C 455.294 452.817, 459.017 452.298, 463.685 454.067 C 469.929 456.432, 474.022 462.468, 474.396 469.860 C 474.567 473.235, 475.490 475.694, 477.767 478.837 C 482.513 485.389, 482.990 491.977, 479.352 500.750 C 478.363 503.135, 483.600 502.038, 488.409 498.852 C 491.539 496.779, 496.278 491.572, 502.289 483.602 C 517.444 463.509, 524.701 457.818, 539.500 454.422 C 553.926 451.111, 564.204 447.926, 570.257 444.893 C 598.963 430.507, 613.555 404.128, 615.697 362.750 C 616.032 356.288, 616.654 351, 617.081 351 C 618.686 351, 619.224 362.684, 618.119 373.581 C 615.451 399.899, 607.390 419.045, 592.536 434.347 C 589.414 437.563, 587.055 440.389, 587.294 440.627 C 588.185 441.518, 599.839 442.991, 610.979 443.620 C 641.725 445.356, 669.039 437.098, 686.549 420.773 C 706.987 401.718, 718.158 372.967, 718.226 339.250 C 718.262 321.093, 719.591 320.188, 721.528 337 C 722.372 344.323, 720.473 361.194, 717.439 373.326 C 713.320 389.798, 706.151 404.513, 696.585 416.133 C 694.063 419.196, 692 422.679, 692 423.872 C 692 428.799, 698.422 439.477, 705.973 447.103 C 714.481 455.697, 724.010 460.979, 734.750 463.053 C 743.352 464.714, 742.886 466.448, 734.037 465.706 L 727.074 465.123 727.175 475.311 C 727.270 484.820, 727.030 486.125, 723.586 494.864 C 721.555 500.014, 720.127 504.460, 720.411 504.745 C 720.696 505.029, 722.475 504.528, 724.365 503.631 C 726.256 502.734, 728.956 502, 730.366 502 C 733.481 502, 739.785 507.296, 740.617 510.611 C 741.387 513.678, 742.358 513.628, 744.463 510.416 C 746.433 507.410, 751.595 505, 756.067 505 C 763.682 505, 770.158 511.631, 771.837 521.147 C 772.550 525.188, 772.815 525.484, 775.524 525.281 C 777.129 525.161, 781.380 523.586, 784.971 521.781 C 801.206 513.622, 803.614 498.989, 794.545 463.604 C 790.629 448.328, 786.597 437.913, 781.500 429.914 C 779.412 426.635, 778.041 423.211, 778.026 421.231 C 778.012 419.433, 779.551 411.108, 781.446 402.731 C 786.398 380.845, 787.352 371.970, 786.687 354 C 784.561 296.548, 753.873 248.605, 703.500 224.042 C 689.700 217.313, 678.881 213.697, 655.035 207.844 C 626.772 200.907, 615.454 196.326, 603 186.784 C 583.485 171.833, 578.661 168.490, 571.500 164.957 C 563.183 160.854, 551.740 157.425, 549.984 158.510 C 549.427 158.854, 548.022 160.998, 546.861 163.273 C 545.700 165.549, 542.308 169.971, 539.323 173.100 L 533.897 178.789 538.887 186.144 C 544.948 195.078, 549.293 205.035, 552.232 216.726 C 554.112 224.206, 554.431 228.155, 554.392 243.500 C 554.351 259.292, 554.012 263.006, 551.630 273.774 C 548.499 287.933, 543.300 303.473, 538.533 312.924 C 532.552 324.782, 512.016 354.018, 507.866 356.583 C 504.868 358.436, 506.897 354.951, 515.556 343.377 C 533.820 318.965, 541.564 303.297, 547.523 278.701 C 552.684 257.400, 553.214 234.329, 548.941 217 C 546.499 207.099, 538.534 190.143, 533.794 184.758 L 530.500 181.017 524.500 183.986 C 518.213 187.097, 515.519 187.649, 514.520 186.032 C 514.191 185.500, 517.202 183.413, 521.211 181.394 C 531.292 176.318, 541.752 165.753, 544.866 157.500 C 548.561 147.709, 549.542 136.781, 547.591 127.151 C 543.159 105.282, 533.835 96.717, 521.500 103.186 M 522.436 112.413 C 518.092 114.304, 512.366 121.397, 510.343 127.391 C 508.036 134.229, 508.197 140.704, 510.939 151.434 C 513.475 161.360, 513.281 166.316, 510.071 173.572 C 508.946 176.117, 508.526 178.207, 509.074 178.546 C 510.673 179.534, 525.879 170.795, 530.518 166.221 C 532.930 163.843, 536.155 159.339, 537.685 156.212 C 540.044 151.390, 540.524 148.983, 540.842 140.392 C 541.326 127.324, 539.428 120.193, 534.030 114.795 C 529.944 110.709, 527.501 110.207, 522.436 112.413 M 154.372 116.472 C 154.024 117.380, 153.951 122.534, 154.210 127.924 C 154.609 136.202, 155.165 138.755, 157.789 144.362 C 159.497 148.013, 161.363 151, 161.935 151 C 163.229 151, 167.706 144.021, 168.537 140.707 C 168.960 139.022, 168.182 136.322, 166.061 132.120 C 164.359 128.750, 162.620 124.321, 162.196 122.280 C 161.637 119.593, 160.539 118.051, 158.216 116.694 C 155.277 114.978, 154.953 114.959, 154.372 116.472 M 519.377 119.467 C 514.952 124.085, 512 131.299, 512 137.493 C 512 139.215, 512.944 144.196, 514.097 148.562 C 515.661 154.480, 516.084 158.472, 515.763 164.250 C 515.525 168.512, 515.655 172, 516.051 172 C 518.388 172, 529.302 163.260, 531.942 159.274 C 536.154 152.915, 537.423 147.991, 537.423 138 C 537.423 128.090, 535.959 122.293, 532.385 118.045 C 528.517 113.448, 524.749 113.860, 519.377 119.467 M 148.541 119.933 C 148.213 120.464, 147.335 125.534, 146.591 131.199 C 145.011 143.214, 145.449 145.244, 151.772 155.256 C 158.741 166.291, 159.093 171.102, 153.875 184 C 150.375 192.652, 150.524 192.633, 143.687 185.325 C 140.305 181.709, 134.231 176.049, 130.191 172.747 C 116.311 161.405, 115.121 159.127, 111.122 136.203 C 110.230 131.089, 109.050 126.916, 108.500 126.929 C 107.950 126.942, 107.166 130.858, 106.759 135.631 C 106.350 140.416, 105.228 145.921, 104.259 147.904 C 102.707 151.077, 102.078 151.488, 98.915 151.401 C 89.383 151.136, 70.158 140.224, 63.918 131.535 C 61.194 127.743, 60.125 127, 57.389 127 C 55.590 127, 53.879 127.386, 53.587 127.859 C 52.728 129.250, 66.887 142.322, 74.787 147.432 C 78.796 150.024, 86.221 153.975, 91.287 156.212 C 103.459 161.584, 104.705 162.549, 112.659 172.770 C 116.396 177.572, 125.456 187.698, 132.793 195.273 C 150.436 213.489, 150.511 213.657, 150.462 235 C 150.433 247.896, 149.846 255.104, 147.774 268 C 144.350 289.309, 143.427 297.787, 140.965 330.500 C 138.919 357.699, 137.149 371.752, 134.460 382.144 C 133.657 385.249, 133 388.873, 133 390.199 C 133 391.524, 131.669 394.707, 130.043 397.272 C 128.416 399.836, 127.404 402.123, 127.793 402.352 C 128.182 402.582, 131.425 402.484, 135 402.135 C 141.271 401.522, 141.483 401.412, 141.018 399 C 140.068 394.075, 140.484 382.680, 141.628 382.295 C 142.249 382.086, 144.724 383.951, 147.128 386.441 C 149.533 388.930, 151.838 390.974, 152.250 390.983 C 152.662 390.993, 153 389.240, 153 387.088 C 153 382.585, 155.331 369.801, 156.891 365.750 C 157.474 364.238, 158.435 363, 159.026 363 C 160.452 363, 162.642 368.396, 164.707 377 C 165.631 380.850, 166.653 384, 166.979 384 C 167.305 384, 170.157 380.836, 173.316 376.969 L 179.060 369.937 177.030 355.475 C 173.699 331.747, 172.007 309.623, 172.024 290 C 172.054 255.178, 172.996 252.418, 196.355 218.695 C 206.026 204.734, 215.927 191.478, 218.359 189.237 C 225.763 182.412, 243.881 174.673, 274.848 165.107 C 293.224 159.430, 299.354 156.847, 309.618 150.455 C 318.598 144.863, 319.873 143.444, 317.789 141.361 C 316.404 139.976, 315.781 140.180, 311.551 143.409 C 301.064 151.414, 284.158 157.494, 281 154.396 C 279.668 153.089, 279.819 152.059, 282.348 145.212 C 286.118 135.002, 286.636 132.621, 284.969 133.177 C 284.247 133.418, 282.136 136.514, 280.278 140.057 C 273.477 153.032, 270.055 157.100, 263.418 160.110 C 256.340 163.319, 241.362 167.353, 239.366 166.587 C 236.687 165.559, 238.086 160.522, 243.949 150.087 C 252.552 134.775, 253.924 131, 250.884 131 C 250.453 131, 248.287 134.488, 246.069 138.750 C 241.535 147.464, 236.554 154, 234.448 154 C 232.130 154, 228.606 145.881, 226.526 135.750 C 226.216 134.238, 225.520 133, 224.981 133 C 223.385 133, 223.821 138.888, 226.133 148.550 C 229.552 162.846, 227.323 168.675, 215.990 175.080 C 206.939 180.194, 202.048 184.723, 193.550 195.861 C 185.215 206.784, 172.698 219.549, 171.218 218.634 C 170.307 218.072, 168.673 210.412, 167.667 202 C 167.437 200.075, 167.863 192.650, 168.613 185.500 C 169.363 178.350, 169.984 170.025, 169.994 167 C 170.019 158.912, 171.244 155.617, 179.126 142.431 C 185.918 131.067, 188.827 123, 186.132 123 C 185.509 123, 185 123.373, 185 123.829 C 185 125.466, 178.785 134, 177.593 134 C 175.794 134, 171.522 129.102, 169.090 124.250 C 167.006 120.094, 165 118.667, 165 121.341 C 165 122.079, 166.840 126.398, 169.089 130.939 L 173.179 139.195 170.132 145.383 C 168.457 148.786, 165.946 152.641, 164.554 153.950 C 162.083 156.270, 161.971 156.283, 159.986 154.487 C 158.867 153.474, 156.543 149.785, 154.822 146.289 C 152.125 140.813, 151.626 138.550, 151.211 129.942 C 150.762 120.610, 149.966 117.627, 148.541 119.933 M 343.299 121.503 C 339.894 123.888, 338.655 129.294, 339.306 138.928 C 340.553 157.404, 348.945 171.423, 362.465 177.613 C 369.987 181.056, 373.755 181.105, 376.272 177.791 L 378.330 175.081 374.250 170.655 C 369.087 165.054, 367.982 162.832, 364.103 150.253 C 360.486 138.521, 357.017 133.685, 350.907 131.854 C 346.986 130.679, 346.117 129.664, 348.024 128.485 C 349.914 127.317, 355.117 129.164, 358.633 132.251 C 362.908 136.005, 364.986 140.006, 368.370 151 C 371.438 160.968, 374.430 166.518, 378.268 169.365 L 381.036 171.417 388.943 163.557 L 396.850 155.697 392.991 151.098 C 390.868 148.569, 386.836 143.688, 384.030 140.251 C 372.514 126.144, 350.886 116.189, 343.299 121.503 M 172.004 122.250 C 172.009 124.011, 175.783 130, 176.887 130 C 177.391 130, 178.738 128.537, 179.881 126.750 C 181.803 123.742, 181.833 123.407, 180.288 122.250 C 179.369 121.563, 177.129 121, 175.309 121 C 173.326 121, 172.001 121.501, 172.004 122.250 M 66.250 123.031 C 62.720 124.450, 63.544 126.704, 69.929 133.089 C 74.321 137.481, 78.273 140.172, 85.179 143.473 C 96.655 148.960, 99.889 149.454, 101.702 146 C 103.607 142.370, 103.042 129.374, 101 129.848 C 100.175 130.039, 96.303 130.202, 92.395 130.209 C 84.641 130.223, 77.977 127.953, 74.595 124.145 C 72.586 121.883, 69.975 121.534, 66.250 123.031 M 113.358 125.509 C 112.551 127.613, 116.804 150.770, 118.847 155.387 C 120.024 158.047, 123.563 162.137, 128.502 166.543 C 132.791 170.370, 139.083 176.088, 142.485 179.250 C 145.887 182.412, 148.937 185, 149.263 185 C 150.516 185, 154 173.722, 154 169.667 C 154 166.344, 152.984 163.770, 149.377 157.954 C 142.275 146.505, 141.469 143.404, 142.971 133.308 C 143.660 128.678, 143.953 124.620, 143.623 124.290 C 143.293 123.959, 140.716 124.434, 137.896 125.344 C 131.749 127.330, 122.924 127.420, 117.682 125.551 C 114.533 124.427, 113.776 124.420, 113.358 125.509 M 233.737 129.572 C 228.466 132.316, 228.574 131.660, 231.577 142.619 C 233.619 150.072, 235.144 150.892, 238.244 146.208 C 241.639 141.078, 246 132.377, 246 130.734 C 246 130.001, 244.506 128.861, 242.679 128.201 C 238.615 126.732, 239.437 126.606, 233.737 129.572 M 290.325 132.750 C 289.988 133.713, 288.397 137.981, 286.789 142.236 C 282.641 153.210, 283.552 153.930, 295.320 148.979 C 302.555 145.935, 312 139.757, 312 138.070 C 312 137.569, 310.538 136.854, 308.750 136.481 C 306.962 136.108, 303.531 134.722, 301.124 133.401 C 295.888 130.528, 291.201 130.245, 290.325 132.750 M 253.286 139.461 C 251.346 143.332, 248.013 149.504, 245.879 153.174 C 241.870 160.073, 241.087 163, 243.253 163 C 245.400 163, 257.475 159.326, 262.206 157.233 C 267.216 155.017, 269.819 151.961, 275.854 141.208 C 278.577 136.356, 279.537 133.784, 278.723 133.521 C 278.050 133.303, 272.845 132.966, 267.156 132.773 L 256.813 132.422 253.286 139.461 M 184.407 140.250 C 174.635 155.354, 173.798 157.753, 172.656 173.935 C 171.184 194.799, 171.232 210.632, 172.773 212.173 C 174.422 213.822, 176.454 211.765, 190.500 194.231 C 199.911 182.483, 202.655 179.752, 209.500 175.322 C 225.572 164.921, 226.414 163.371, 223.084 150.330 C 221.938 145.840, 220.993 140.892, 220.985 139.333 C 220.957 134.195, 219.847 133.523, 214.432 135.369 C 207.713 137.658, 198.391 137.494, 193.500 135 C 191.342 133.900, 189.469 133, 189.337 133 C 189.205 133, 186.986 136.262, 184.407 140.250 M 316 150.160 C 303.998 158.864, 298.106 161.387, 268.500 170.505 C 255.198 174.601, 234.521 182.732, 227.674 186.559 C 225.234 187.922, 221.267 191.167, 218.858 193.769 C 214.276 198.717, 184.505 241.072, 181.577 246.808 C 176.737 256.289, 173.701 283.678, 175.438 302.192 L 176.160 309.885 182.150 309.800 C 186.654 309.736, 188.806 310.207, 190.821 311.699 C 194.661 314.544, 198 319.841, 198 323.089 C 198 326.992, 199.089 327.290, 204.538 324.880 C 208.039 323.332, 210.664 322.890, 214.488 323.207 C 223.460 323.951, 228.628 329.346, 229.885 339.282 L 230.500 344.142 238.179 344.321 C 244.186 344.461, 246.459 344.949, 248.617 346.562 C 253.443 350.168, 255.456 353.785, 255.993 359.814 L 256.500 365.500 261.500 366.038 C 269.820 366.933, 273.426 369.950, 275.404 377.671 L 276.641 382.500 281.319 382.160 C 290.466 381.495, 297.323 386.880, 299.961 396.801 C 300.590 399.167, 301.644 401.282, 302.302 401.502 C 302.961 401.721, 319.250 403.051, 338.500 404.457 C 357.750 405.863, 375.146 407.187, 377.158 407.399 C 383.562 408.075, 383.114 406.356, 374.688 397.930 L 366.697 389.940 361.599 391.715 C 355.046 393.996, 342.569 393.930, 334.500 391.572 C 323.298 388.298, 313.164 382.209, 304.463 373.523 C 293.459 362.539, 290.640 356.692, 290.319 344.192 L 290.081 334.884 285.403 329.692 C 270.686 313.358, 259.344 283.047, 257.097 254.049 C 255.330 231.226, 260.225 204.046, 266.539 201.623 C 272.325 199.403, 274.412 202.080, 278.672 217.190 C 284.587 238.171, 292.537 252.667, 304.932 265.076 C 314.215 274.369, 327.646 282.020, 330.198 279.469 C 330.490 279.177, 329.608 275.914, 328.237 272.219 C 326.403 267.275, 325.610 262.764, 325.236 255.145 C 324.405 238.198, 327.600 229, 334.318 229 C 337.012 229, 338.718 230.307, 345.608 237.644 C 350.744 243.115, 354.165 246.016, 354.924 245.547 C 356.925 244.310, 357.952 240.393, 360.545 224.105 C 363.141 207.799, 365.892 197.092, 369.101 190.802 C 370.145 188.755, 371 186.664, 371 186.155 C 371 185.646, 368.637 184.467, 365.750 183.533 C 352.796 179.346, 342.819 169.158, 338.400 155.605 C 336.164 148.749, 335.838 148.444, 329.324 147.136 C 321.925 145.650, 322.352 145.553, 316 150.160 M 822.185 183.469 C 812.679 185.624, 796.727 194.565, 763.253 216.500 L 733.005 236.320 743.858 246.910 C 755.215 257.992, 764.211 269.321, 770.304 280.215 L 773.914 286.670 782.707 288.386 C 793.032 290.401, 803.982 295.472, 810.613 301.309 L 815.252 305.391 821.876 301.976 C 832.331 296.586, 865.759 273.828, 890.941 254.958 C 903.623 245.454, 914 237.331, 914 236.907 C 914 236.483, 912.538 235.122, 910.750 233.883 C 905.190 230.028, 892.062 219.081, 878.180 206.723 C 863.564 193.712, 855.630 188.128, 847.371 185.038 C 840.093 182.314, 830.039 181.688, 822.185 183.469 M 267.787 206.719 C 261.270 214.071, 258.913 248.928, 263.476 270.500 C 269.311 298.094, 282.915 325.154, 294 331.221 C 298.242 333.543, 308.530 333.212, 316.634 330.493 C 329.481 326.184, 338 314.847, 338 302.061 C 338 292.498, 335.978 289.830, 323.925 283.481 C 312.868 277.656, 306.143 272.891, 300.421 266.824 C 287.880 253.529, 279.978 238.493, 274.406 217.322 C 271.439 206.051, 270.175 204.026, 267.787 206.719 M 439.209 228.009 C 435.511 228.858, 432 231.616, 432 233.674 C 432 234.682, 432.718 234.837, 434.750 234.269 C 440.050 232.787, 446.157 233.799, 451.333 237.016 C 457.612 240.920, 460.005 240.410, 457.289 235.747 C 454.089 230.252, 445.484 226.570, 439.209 228.009 M 331.319 236.750 C 328.631 243.136, 328.423 256.282, 330.859 265.915 C 332.021 270.507, 333.782 275.668, 334.774 277.383 C 338.741 284.240, 355.686 286.121, 363.990 280.625 C 370.123 276.567, 373.185 271.266, 372.809 265.361 L 372.500 260.500 362.500 255.586 C 353.813 251.317, 351.378 249.511, 343.951 241.836 C 339.249 236.976, 334.838 233, 334.150 233 C 333.461 233, 332.188 234.688, 331.319 236.750 M 437.144 255.227 C 431.617 256.410, 424.964 262.813, 423.230 268.616 C 421.530 274.306, 421.690 284.323, 423.553 288.782 C 426.865 296.711, 433.509 301.286, 441.712 301.286 C 448.415 301.286, 453.787 297.920, 457.695 291.272 C 460.177 287.050, 460.499 285.521, 460.491 278 C 460.485 271.651, 460.012 268.614, 458.624 266 C 453.698 256.722, 446.655 253.189, 437.144 255.227 M 434.218 259.663 C 432.413 260.553, 430.101 262.455, 429.081 263.890 C 426.902 266.955, 424.402 274.736, 425.306 275.640 C 425.651 275.984, 427.596 274.806, 429.629 273.021 C 432.892 270.156, 433.836 269.834, 437.703 270.270 C 442.470 270.807, 445.368 272.878, 447.721 277.427 C 449.766 281.381, 449.750 288.791, 447.688 292.925 C 445.651 297.007, 445.652 297, 447.384 297 C 449.620 297, 455.777 289.466, 456.928 285.321 C 459.623 275.614, 456.298 264.201, 449.561 260.038 C 445.553 257.561, 438.817 257.396, 434.218 259.663 M 435.536 275.960 C 433.493 278.218, 434.110 282.721, 436.594 283.674 C 439.438 284.766, 443 282.290, 443 279.221 C 443 274.115, 438.848 272.300, 435.536 275.960 M 777.421 293.540 C 777.809 295.089, 779.111 298.379, 780.314 300.851 C 782.310 304.955, 782.967 305.462, 787.888 306.687 C 800.577 309.848, 812.087 319.149, 817.518 330.630 L 820.179 336.255 817.346 341.377 C 811.840 351.335, 814.302 366.172, 822.265 371.015 C 824.017 372.080, 825.832 372.568, 826.300 372.100 C 826.768 371.632, 826.443 368.862, 825.576 365.943 C 824.709 363.025, 824 360.044, 824 359.318 C 824 356.423, 825.751 358.288, 827.900 363.472 C 830.868 370.633, 833.299 373.602, 838.272 376.139 C 842.870 378.485, 852.723 379.631, 855 378.086 C 856.240 377.244, 855.603 376.212, 851.324 372.126 C 846.256 367.289, 842.304 361.363, 843.408 360.258 C 843.714 359.953, 845.727 361.682, 847.882 364.101 C 850.037 366.521, 852.088 368.220, 852.440 367.877 C 853.704 366.646, 850.882 353.387, 848.219 348.043 C 844.781 341.144, 839.801 337.191, 831.946 335.125 L 825.769 333.500 824.053 328 C 818.020 308.673, 802.004 295.184, 780.607 291.410 C 776.733 290.727, 776.717 290.737, 777.421 293.540 M 177.064 314.423 C 176.169 315.501, 176.143 318.352, 176.957 326.173 C 178.969 345.524, 181.212 362.429, 182.067 364.676 L 182.920 366.919 188.060 363.459 C 197.295 357.245, 198.574 359.125, 193.566 371.546 C 191.613 376.388, 190.181 380.515, 190.383 380.717 C 190.585 380.919, 193.652 379.265, 197.197 377.042 C 205.438 371.875, 212.696 369.291, 214.329 370.942 C 215.226 371.848, 214.386 374.259, 210.747 381.226 C 208.133 386.232, 206.211 390.544, 206.476 390.809 C 206.741 391.075, 209.689 390.066, 213.026 388.569 C 219.321 385.744, 230 383.941, 230 385.704 C 230 386.245, 228.134 389.467, 225.853 392.863 C 223.572 396.260, 221.885 399.195, 222.103 399.386 C 222.321 399.577, 239.262 399.980, 259.750 400.281 C 296.178 400.816, 297 400.785, 297 398.882 C 297 395.565, 294.370 390.436, 291.520 388.194 C 287.594 385.106, 282.649 384.442, 277.792 386.349 C 275.555 387.228, 273.379 387.734, 272.957 387.474 C 272.535 387.213, 272.423 385.262, 272.708 383.139 C 273.379 378.138, 270.708 372.417, 266.745 370.368 C 264.784 369.354, 261.842 368.940, 258.177 369.162 L 252.595 369.500 252.547 362.500 C 252.492 354.344, 250.810 351.087, 245.303 348.474 C 242.698 347.237, 240.334 346.936, 236.612 347.365 C 233.800 347.689, 230.427 348.077, 229.114 348.227 C 226.825 348.489, 226.724 348.235, 226.614 341.955 C 226.485 334.533, 224.761 331.044, 219.696 327.956 C 214.164 324.583, 207.028 325.826, 199.662 331.444 C 197.826 332.845, 196.026 333.693, 195.662 333.329 C 195.298 332.965, 195 330.244, 195 327.284 C 195 321.352, 193.195 316.951, 189.783 314.561 C 186.956 312.581, 178.667 312.491, 177.064 314.423 M 364.020 335.752 C 362.106 336.713, 359.518 339.029, 358.270 340.898 C 355.964 344.349, 355.149 351, 357.031 351 C 358.115 351, 358.440 350.286, 359.457 345.664 C 359.800 344.104, 361.194 341.715, 362.555 340.354 C 365.931 336.979, 371.791 337.343, 373.866 341.057 C 376.297 345.411, 373.872 348.879, 364.371 354.633 C 363.342 355.256, 362.817 356.097, 363.203 356.503 C 365.872 359.300, 378 349.528, 378 344.582 C 378 340.389, 375.377 336.327, 371.881 335.108 C 367.857 333.705, 368.138 333.682, 364.020 335.752 M 0.286 349.500 C 0.294 352.250, 0.488 353.256, 0.718 351.736 C 0.947 350.216, 0.941 347.966, 0.704 346.736 C 0.467 345.506, 0.279 346.750, 0.286 349.500 M 300 349.552 C 300 350.698, 304.533 357.985, 305.250 357.992 C 306.743 358.008, 305.953 354.210, 303.927 351.635 C 302.046 349.244, 300 348.158, 300 349.552 M 420.553 356.947 C 416.761 360.768, 409.010 366.928, 403.327 370.637 C 395.030 376.051, 392.601 378.192, 390.997 381.505 C 388.438 386.792, 388.482 388.523, 391.223 390.443 C 397.927 395.139, 411.096 388.988, 419.032 377.454 C 424.404 369.645, 431.073 350, 428.351 350 C 427.853 350, 424.344 353.126, 420.553 356.947 M 455.482 375.670 C 453.292 377.138, 446.082 383.555, 439.461 389.929 C 430.601 398.457, 425.715 402.347, 420.961 404.657 C 410.583 409.700, 400.490 411.159, 391.555 408.910 C 387.250 407.826, 387.183 407.850, 379.863 413.241 C 375.813 416.223, 367.755 421.836, 361.957 425.715 C 349.819 433.834, 341.549 442.249, 339.979 448.078 C 338.633 453.077, 339.339 454.214, 343.328 453.469 C 348.015 452.594, 363.025 454.723, 371.812 457.510 C 381.227 460.497, 390.308 465.777, 398.002 472.740 C 401.199 475.633, 404.471 478, 405.274 478 C 406.834 478, 416.982 474.103, 418.275 473.007 C 418.701 472.646, 417.869 469.770, 416.425 466.617 C 410.889 454.525, 414.169 441.991, 425.953 430.207 C 431.294 424.866, 441.643 418.401, 447.888 416.503 C 449.202 416.104, 453.006 412.860, 456.341 409.295 C 459.676 405.729, 465.352 400.751, 468.953 398.233 C 472.554 395.714, 475.915 393.294, 476.422 392.855 C 476.946 392.401, 475.186 389.775, 472.336 386.762 C 469.582 383.850, 466.242 379.565, 464.914 377.241 C 463.586 374.917, 461.817 373.012, 460.982 373.008 C 460.147 373.003, 457.672 374.201, 455.482 375.670 M 899.595 425.250 C 893.097 436.341, 890.038 447.765, 889.286 463.750 C 888.969 470.488, 888.436 476, 888.103 476 C 887.769 476, 886.406 473.945, 885.074 471.434 C 879.718 461.337, 862.888 446.533, 855.891 445.763 C 852.220 445.359, 852.996 447.971, 862.544 468.151 C 867.250 478.096, 870.904 486.429, 870.665 486.668 C 870.426 486.907, 868.041 485.711, 865.365 484.010 C 860.366 480.832, 850.780 477.606, 843.225 476.560 C 835.912 475.548, 836.765 477.892, 847.412 488.070 C 852.685 493.112, 857 497.810, 857 498.511 C 857 500.190, 854.769 500.978, 849.668 501.100 C 844.601 501.221, 840.761 502.218, 840.322 503.528 C 840.111 504.156, 844.067 504.171, 851.498 503.572 C 859.712 502.909, 863 502.276, 863 501.359 C 863 500.653, 858.886 495.773, 853.858 490.513 C 848.830 485.254, 845.011 480.656, 845.370 480.296 C 846.217 479.449, 856.206 482.588, 862.061 485.542 C 864.569 486.807, 868.549 489.452, 870.905 491.421 C 875.284 495.079, 877 495.797, 877 493.970 C 877 492.314, 872.349 481.598, 864.749 465.746 C 860.858 457.631, 857.982 450.685, 858.357 450.309 C 859.619 449.047, 870.449 457.626, 876.214 464.454 C 879.357 468.176, 884.238 475.718, 887.061 481.214 C 889.884 486.710, 892.542 490.822, 892.967 490.353 C 893.393 489.884, 893.387 486.800, 892.955 483.500 C 890.969 468.346, 892.220 452.667, 896.476 439.367 C 901.515 423.618, 902.278 424.900, 903.860 451.767 C 905.588 481.106, 906.159 487.114, 907.184 486.772 C 907.680 486.607, 909.529 482.203, 911.293 476.986 C 915.032 465.926, 919.923 456.894, 926.706 448.524 C 931.247 442.921, 942.427 433, 944.200 433 C 945.968 433, 944.643 437.058, 936.579 456.352 C 925.112 483.787, 923.887 487.008, 924.523 488.037 C 924.826 488.527, 928.273 485.560, 932.184 481.443 C 939.550 473.689, 949.384 466.479, 957.115 463.165 C 963.164 460.572, 968 459.566, 968 460.900 C 968 461.483, 963.161 467.256, 957.247 473.730 C 944.595 487.578, 939.531 493.864, 940.359 494.692 C 940.689 495.022, 943.661 494.079, 946.963 492.597 C 950.266 491.115, 956.013 489.257, 959.734 488.468 C 971.509 485.973, 974.181 486.911, 967.250 491.107 C 961.090 494.836, 951.834 502.167, 952.475 502.809 C 952.804 503.137, 955.869 503.465, 959.286 503.538 C 962.704 503.610, 967.638 504.020, 970.250 504.448 C 973.435 504.970, 975 504.876, 975 504.161 C 975 502.800, 968.626 501.013, 963.750 501.006 C 961.688 501.003, 960 500.584, 960 500.075 C 960 499.567, 964.050 496.584, 969 493.446 C 980.992 485.843, 980.888 484.750, 968.177 484.854 C 963.954 484.889, 958.250 485.606, 955.500 486.448 C 949.534 488.274, 950 488.225, 950 487.027 C 950 486.492, 955.411 480.112, 962.024 472.850 C 968.638 465.588, 973.890 459.163, 973.697 458.573 C 972.993 456.429, 965.399 456.867, 958.545 459.447 C 951.317 462.167, 940.058 469.166, 936.076 473.414 C 930.754 479.090, 931.256 476.586, 939.266 457.500 C 952.051 427.036, 952.225 425.825, 943.162 430.418 C 932.283 435.931, 915.781 455.402, 911.303 468.009 C 909.302 473.642, 908 474.437, 908 470.024 C 908 464.221, 904.880 422.615, 904.385 421.814 C 903.358 420.152, 902.019 421.112, 899.595 425.250 M 237.275 428.262 C 234.939 430.813, 231.008 438.280, 230.985 440.210 C 230.940 443.971, 229.270 443.942, 225.119 440.109 C 220.111 435.486, 215.376 433.224, 213.866 434.734 C 213.169 435.431, 213.793 437.785, 215.827 442.126 C 217.469 445.629, 218.603 448.834, 218.347 449.248 C 218.091 449.662, 215.884 450, 213.441 450 C 210.998 450, 209 450.386, 209 450.858 C 209 452.031, 221.178 453.222, 222.248 452.152 C 222.724 451.676, 221.966 448.719, 220.540 445.494 C 219.129 442.303, 218.179 439.488, 218.429 439.237 C 219.273 438.394, 224.659 442.878, 227.089 446.447 C 228.415 448.394, 230.005 449.989, 230.622 449.993 C 231.239 449.997, 232.043 448.134, 232.407 445.853 C 233.303 440.255, 237.015 431.839, 238.389 432.293 C 239 432.495, 239.880 436.224, 240.344 440.580 C 240.808 444.936, 241.340 448.657, 241.526 448.849 C 241.712 449.041, 244.553 446.341, 247.840 442.849 C 251.127 439.357, 254.150 436.830, 254.559 437.234 C 254.967 437.638, 254.129 440.561, 252.695 443.729 C 251.262 446.897, 250.410 449.810, 250.802 450.202 C 251.692 451.092, 264 448.825, 264 447.771 C 264 447.347, 261.975 447, 259.500 447 C 256.968 447, 255 446.532, 255 445.929 C 255 445.340, 256.462 442.215, 258.250 438.983 C 260.754 434.456, 261.228 432.835, 260.316 431.920 C 258.859 430.458, 252.051 434.190, 247.563 438.911 C 245.948 440.610, 244.318 442, 243.942 442 C 243.566 442, 242.952 438.885, 242.576 435.079 C 241.771 426.907, 240.277 424.986, 237.275 428.262 M 667.670 438.232 C 654.252 444.730, 635.414 448.234, 615.504 447.936 L 604.500 447.771 604.707 451.136 C 604.821 452.986, 605.216 458.344, 605.584 463.041 C 606.331 472.565, 605.421 475.365, 598.733 484.127 C 593.035 491.592, 588 499.405, 588 500.782 C 588 501.727, 588.939 501.915, 591.379 501.457 C 596.130 500.566, 600.226 502.957, 602.469 507.931 C 604.488 512.409, 605.127 512.757, 607.055 510.434 C 610.723 506.014, 618.584 504.760, 624.633 507.630 C 628.701 509.561, 632.742 515.934, 633.836 522.147 L 634.602 526.500 639.051 526.207 C 653.577 525.252, 668.345 519.458, 672.586 513.049 C 677.032 506.331, 677.508 498.671, 674.959 474.836 C 673.157 457.989, 672.902 452.165, 673.644 444.886 C 674.151 439.916, 674.326 435.751, 674.033 435.629 C 673.740 435.508, 670.877 436.679, 667.670 438.232 M 427.500 441.890 C 420.198 445.260, 416.430 451.353, 417.615 457.873 C 420.827 475.537, 449.533 499.969, 469.168 501.749 C 474.775 502.257, 474.902 502.211, 476.989 498.883 C 480.230 493.714, 479.430 485.363, 475.188 480.084 C 473.043 477.415, 472 475.033, 472 472.802 C 472 457.763, 459.593 451.431, 446.868 459.977 C 444.469 461.588, 442.172 462.572, 441.763 462.163 C 441.354 461.754, 441.465 459.865, 442.010 457.966 C 446.017 443.994, 439.231 436.476, 427.500 441.890 M 90.794 448.539 C 90.497 448.836, 90.424 450.974, 90.631 453.289 C 90.838 455.605, 91.688 466.050, 92.519 476.500 C 93.350 486.950, 94.300 497.413, 94.629 499.750 C 95.369 505.011, 94.175 505.167, 91.328 500.180 C 84.885 488.894, 71.605 476.513, 59.550 470.557 C 52.464 467.056, 48.623 466.184, 47.597 467.843 C 47.310 468.307, 50.498 474.269, 54.681 481.093 C 64.174 496.582, 73 512.324, 73 513.769 C 73 514.372, 69.237 512.945, 64.638 510.598 C 55.850 506.114, 47.902 504, 39.833 504 C 36.334 504, 35 504.390, 35 505.415 C 35 506.192, 39.033 510.515, 43.961 515.019 C 48.890 519.524, 54.044 524.680, 55.415 526.477 L 57.908 529.745 49.456 530.836 C 35.232 532.672, 33.432 535.234, 45.078 537.066 C 48.610 537.621, 52.288 538.314, 53.250 538.605 C 56.299 539.528, 55.136 537.243, 52 536.150 C 46.479 534.225, 48.473 532.799, 56.250 533.110 C 61.893 533.336, 63.434 533.104, 63.204 532.062 C 62.697 529.769, 55.891 522.062, 48.074 514.930 C 43.951 511.168, 40.910 507.757, 41.316 507.350 C 42.686 505.981, 54.439 509.102, 62.509 512.978 C 66.914 515.093, 72.619 518.673, 75.187 520.933 C 78.271 523.648, 80.096 524.654, 80.564 523.896 C 81.466 522.438, 74.091 508.013, 62.250 488.075 C 57.162 479.509, 53 472.163, 53 471.750 C 53 470.535, 53.915 470.838, 59.924 474.040 C 73.294 481.166, 86.003 494.919, 93.846 510.750 C 99.506 522.172, 99.968 520.748, 97.548 499.345 C 95.334 479.766, 93.637 455.029, 94.452 454.221 C 95.658 453.025, 99.963 459.010, 104.080 467.607 C 108.819 477.503, 111.820 489.446, 112.668 501.782 C 113.359 511.831, 114.874 513.567, 116.282 505.922 C 119.222 489.954, 127.155 464, 129.095 464 C 131.416 464, 129.725 493.757, 126.381 511.750 C 125.521 516.379, 126.972 515.740, 130.982 509.724 C 136.477 501.480, 146.845 491.238, 154.574 486.422 C 162.059 481.756, 164.617 480.949, 163.612 483.570 C 163.280 484.434, 158.788 491.521, 153.629 499.320 C 143.912 514.010, 139.720 521.386, 140.592 522.259 C 140.871 522.538, 144.114 521.226, 147.799 519.344 C 151.485 517.463, 156.975 515.271, 160 514.473 C 166.174 512.846, 174 512.528, 174 513.905 C 174 514.403, 172.039 515.959, 169.642 517.364 C 163.172 521.156, 153.718 529.130, 154.670 529.993 C 155.894 531.103, 176 532.076, 176 531.026 C 176 529.921, 173.980 529.332, 167.250 528.478 C 164.363 528.112, 162 527.443, 162 526.991 C 162 525.694, 170.899 519.545, 177.750 516.107 C 187.088 511.422, 186.124 509.737, 174.135 509.789 C 166.381 509.823, 155.861 511.986, 150.851 514.577 C 149.345 515.356, 147.912 515.657, 147.665 515.246 C 147.418 514.836, 151.233 508.425, 156.143 501 C 170.150 479.815, 171.591 476.110, 165.098 477.972 C 157.984 480.012, 149.114 485.875, 140.538 494.205 C 135.609 498.992, 131.449 502.782, 131.294 502.627 C 131.139 502.472, 131.445 499.005, 131.975 494.922 C 132.505 490.840, 132.952 481.567, 132.969 474.315 C 133.015 454.558, 131.020 451.724, 125.520 463.738 C 122.578 470.163, 117 487.550, 117 490.294 C 117 494.366, 114.492 491.015, 113.358 485.427 C 110.582 471.747, 103.755 457.765, 96.747 451.405 C 93.050 448.051, 91.857 447.476, 90.794 448.539 M 338.500 457.944 C 310.689 461.528, 288.598 480.825, 281.025 508.151 C 278.543 517.109, 278.330 532.519, 280.556 542 C 282.545 550.469, 288.873 563.448, 293.477 568.500 L 297.121 572.500 296.493 569.500 C 296.147 567.850, 295.620 560.863, 295.321 553.973 C 294.695 539.536, 296.315 529.318, 301.175 517.069 C 313.082 487.056, 336.518 466.776, 364.250 462.489 C 377.056 460.509, 352.384 456.154, 338.500 457.944 M 364.500 465.063 C 339.520 468.763, 317.765 486.589, 305.457 513.443 C 293.724 539.045, 294.957 574.838, 307.831 582.338 C 312.532 585.077, 322.898 585.645, 331.016 583.610 C 341.996 580.857, 351.306 575.415, 361.472 565.809 C 373.756 554.200, 382.501 541.297, 389.424 524.567 C 395.033 511.009, 397.552 488.852, 394.628 478.792 C 393.132 473.646, 392.463 472.807, 386.881 469.080 C 383.521 466.836, 379.755 465, 378.511 465 C 377.267 465, 374.956 464.814, 373.375 464.587 C 371.794 464.360, 367.800 464.574, 364.500 465.063 M 398.380 491.250 C 398.113 523.731, 378.741 559.375, 351.539 577.430 C 343.650 582.667, 331.397 586.954, 323.459 587.255 C 319.909 587.390, 317.003 587.760, 317.002 588.077 C 316.998 589.263, 332.785 594.032, 340.354 595.133 C 365.436 598.778, 393.476 584.970, 406.802 562.411 C 418.474 542.652, 420.284 518.267, 411.546 498.508 C 408.973 492.689, 400.498 480, 399.185 480 C 398.793 480, 398.430 485.063, 398.380 491.250 M 587.589 507.077 C 584.723 510.483, 584.410 512.611, 586.199 516.537 C 587.440 519.261, 594.617 523.523, 599.014 524.147 C 601.308 524.473, 601.525 524.153, 601.826 520 C 602.197 514.891, 600.552 508.342, 598.246 505.750 C 595.682 502.867, 590.599 503.499, 587.589 507.077 M 722.400 508.400 C 715.547 515.253, 718.925 522.815, 730.458 526.443 C 738.279 528.903, 739 528.401, 739 520.492 C 739 513.471, 736.513 506.794, 733.461 505.623 C 729.486 504.098, 725.769 505.031, 722.400 508.400 M 749.182 510.030 C 745.094 512.523, 741.759 519.559, 742.191 524.777 C 742.499 528.486, 742.519 528.501, 747.500 528.829 C 754.570 529.295, 766.534 528.062, 768.426 526.673 C 769.857 525.621, 769.875 524.933, 768.599 520.025 C 765.878 509.553, 757.249 505.112, 749.182 510.030 M 610.514 511.168 C 607.443 513.583, 605 518.602, 605 522.493 C 605 526.182, 608.452 527.114, 620.900 526.782 L 631.500 526.500 631.156 523.026 C 630.654 517.960, 627.414 512.265, 624.040 510.521 C 619.746 508.300, 613.798 508.585, 610.514 511.168 M 882 522.361 C 873.245 525.485, 850.331 537.084, 840.628 543.303 C 831.368 549.239, 824.449 557.126, 818.180 568.892 C 814.441 575.910, 813.500 577.005, 811.180 577.035 C 805.057 577.115, 792.952 579.962, 787.605 582.580 C 776.120 588.204, 764.710 603.910, 761.798 618.105 C 760.734 623.290, 760.830 624.077, 763.074 628.605 C 765.159 632.811, 766.415 633.955, 772 636.731 C 779.675 640.547, 792.460 643, 804.666 643 C 810.986 643, 813.733 643.434, 815.741 644.750 C 817.752 646.067, 820.650 646.524, 827.456 646.596 C 832.430 646.649, 837.850 647.264, 839.500 647.961 C 854.255 654.200, 877.759 655.225, 887.862 650.070 C 892.552 647.678, 894.073 645.881, 894.915 641.744 L 895.574 638.500 904.537 637.934 C 912.684 637.420, 913.773 637.568, 916.500 639.560 C 922.032 643.602, 926.665 644.500, 942 644.500 C 962.507 644.500, 970 641.617, 970 633.728 C 970 632.173, 969.319 629.584, 968.487 627.974 L 966.973 625.047 971.930 622.536 C 974.656 621.154, 978.299 618.266, 980.026 616.117 C 983.092 612.303, 983.340 612.201, 990.532 611.838 C 1001.968 611.261, 1006.156 607.160, 1002.412 600.207 C 999.841 595.433, 994.119 592.746, 987.421 593.166 L 982.092 593.500 971.371 572 C 961.890 552.986, 959.948 549.801, 954.575 544.458 C 935.949 525.933, 901.438 515.426, 882 522.361 M 881 526.377 C 869.684 531.094, 844.864 544.251, 839.079 548.600 C 835.782 551.079, 831.729 554.817, 830.073 556.907 C 825.408 562.798, 818.007 575.202, 818.593 576.150 C 818.882 576.617, 821.688 577, 824.829 577 C 831.751 577, 843.701 580.179, 850.471 583.822 C 857.154 587.418, 865.722 596.189, 870 603.813 C 875.747 614.056, 874.622 613.636, 882.506 608.476 C 886.353 605.958, 891.975 601.463, 895 598.488 C 901.026 592.560, 904.692 590.904, 916 589.006 C 929.731 586.701, 932.951 584.238, 936.112 573.624 C 937.959 567.421, 939.051 565.756, 946.093 558.403 C 950.442 553.862, 954 549.752, 954 549.269 C 954 546.474, 941.620 537.638, 929.759 531.969 C 912.729 523.827, 892.643 521.524, 881 526.377 M 535.030 541.464 C 534.029 542.670, 533.841 548.674, 534.184 568.512 L 534.624 594.009 529.562 588.714 C 521.318 580.090, 510.435 573.712, 500.249 571.535 C 494.589 570.326, 495.264 573.029, 503.273 583.658 C 511.695 594.833, 516.360 601.974, 515.682 602.651 C 515.428 602.905, 512.808 602.324, 509.860 601.359 C 503.671 599.334, 490.500 598.855, 490.500 600.655 C 490.500 601.290, 494.438 604.824, 499.250 608.508 C 504.063 612.192, 508 615.610, 508 616.103 C 508 616.596, 506.988 617.006, 505.750 617.014 C 502.544 617.033, 499 618.094, 499 619.035 C 499 620.081, 513.220 620.799, 514.421 619.813 C 515.388 619.020, 508.321 611.628, 501.500 606.298 C 499.300 604.579, 497.861 602.810, 498.302 602.368 C 499.593 601.072, 512.075 604.786, 517.316 608.024 C 521.831 610.814, 524 611.627, 524 610.531 C 524 609.238, 513.384 592.342, 508.061 585.164 C 501.465 576.268, 500.755 574.479, 504.250 575.563 C 514.531 578.751, 526.828 588.491, 534.157 599.250 C 538.412 605.495, 540.486 606.637, 539.609 602.250 C 536.532 586.868, 535.505 545.335, 538.224 546.241 C 540.401 546.967, 546.948 560.482, 549.056 568.600 C 550.185 572.945, 551.377 581.352, 551.705 587.283 C 552.034 593.213, 552.704 597.932, 553.194 597.769 C 553.683 597.606, 555.570 593.788, 557.385 589.284 C 559.201 584.781, 562.581 578.588, 564.896 575.522 C 569.508 569.414, 579.996 560.596, 581.208 561.808 C 581.627 562.227, 578.954 571.644, 575.268 582.734 C 571.581 593.824, 568.838 603.171, 569.172 603.506 C 569.506 603.840, 572.158 601.598, 575.065 598.525 C 578.570 594.818, 582.734 591.773, 587.425 589.483 C 594.520 586.021, 603 583.939, 603 585.660 C 603 586.163, 600.720 588.808, 597.933 591.538 C 591.327 598.007, 582 609.381, 582 610.968 C 582 611.773, 582.620 611.949, 583.750 611.466 C 588.710 609.347, 595.921 607.965, 599.342 608.478 C 602.201 608.906, 603.076 608.726, 602.763 607.777 C 602.497 606.971, 600.064 606.390, 596.171 606.202 C 592.777 606.039, 590 605.456, 590 604.907 C 590 604.359, 594.050 599.724, 599 594.607 C 603.950 589.490, 608 584.495, 608 583.507 C 608 581.906, 607.314 581.775, 601.674 582.302 C 594.287 582.991, 586.585 585.813, 580.316 590.127 C 577.865 591.813, 575.672 593.005, 575.442 592.775 C 575.213 592.546, 577.494 584.980, 580.512 575.963 C 583.531 566.946, 586 558.990, 586 558.284 C 586 554.707, 577.418 558.867, 569.309 566.375 C 566.093 569.352, 561.895 574.521, 559.981 577.862 C 558.066 581.202, 556.064 583.805, 555.531 583.645 C 554.998 583.485, 554.034 579.935, 553.388 575.755 C 551.251 561.937, 545.852 549.157, 539.586 543.084 C 536.698 540.284, 536.166 540.095, 535.030 541.464 M 947.849 559.762 C 941.910 565.979, 940.105 568.601, 939.054 572.542 C 937.016 580.188, 933.420 585.745, 929.079 587.960 C 926.969 589.036, 921.026 590.674, 915.872 591.600 C 904.573 593.630, 903.299 594.244, 894.977 601.675 C 891.389 604.879, 885.655 609.300, 882.235 611.500 C 877.117 614.793, 876.016 615.982, 876.009 618.229 C 876.001 620.501, 877.154 621.718, 882.902 625.504 C 886.698 628.005, 890.533 631.165, 891.425 632.526 C 892.916 634.802, 893.624 634.991, 900.273 634.882 C 911.727 634.694, 913.033 634.177, 915.846 628.711 C 917.201 626.077, 920.073 622.527, 922.227 620.821 C 934.571 611.044, 951.984 610.344, 961.694 619.235 C 965.854 623.044, 974.861 619.037, 978.662 611.686 C 979.866 609.358, 980.106 607.016, 979.650 602.055 C 979.121 596.296, 977.739 592.897, 968.274 574.065 C 962.348 562.275, 957.010 552.474, 956.411 552.285 C 955.812 552.096, 951.959 555.460, 947.849 559.762 M 211.644 568.223 C 207.341 573.864, 202.863 584.654, 201.142 593.526 C 199.470 602.150, 198.643 603.602, 197.485 599.953 C 194.823 591.565, 173.308 575.357, 170.667 579.750 C 170.419 580.163, 172.858 586.800, 176.086 594.500 C 179.314 602.200, 181.966 609.030, 181.978 609.678 C 181.991 610.370, 179.630 609.640, 176.250 607.907 C 169.134 604.259, 158.667 602.202, 156.476 604.020 C 155.200 605.079, 156.075 606.403, 162.491 613.119 C 166.621 617.441, 170 621.433, 170 621.989 C 170 622.545, 168.687 623, 167.082 623 C 163.567 623, 161 623.889, 161 625.107 C 161 625.598, 163.925 626, 167.500 626 C 172.740 626, 174 625.696, 174 624.430 C 174 622.357, 169.085 615.357, 164.634 611.092 C 162.678 609.217, 161.283 607.352, 161.533 606.947 C 162.909 604.721, 177.330 610.717, 183.383 616.032 C 185.322 617.734, 187.109 618.633, 187.452 618.078 C 188.074 617.072, 183.503 604.378, 177.797 591.260 C 176.064 587.278, 174.912 583.754, 175.237 583.430 C 175.561 583.106, 177.103 583.642, 178.663 584.622 C 188.226 590.628, 193.557 596.901, 197.644 606.956 C 198.874 609.983, 200.290 612.597, 200.790 612.763 C 201.290 612.930, 201.976 609.461, 202.316 605.055 C 202.656 600.648, 203.654 594.221, 204.533 590.772 C 206.443 583.282, 211.888 571, 213.299 571 C 213.954 571, 214.109 577.928, 213.745 591 C 213.439 602, 213.500 611, 213.881 611 C 214.261 611, 216.259 608.742, 218.319 605.983 C 220.379 603.224, 223.962 599.570, 226.282 597.864 C 230.660 594.643, 236.910 591.577, 237.630 592.296 C 237.857 592.524, 235.617 596.815, 232.652 601.833 C 226.563 612.137, 224.437 616.770, 225.369 617.703 C 225.721 618.054, 227.019 617.415, 228.254 616.283 C 231.693 613.132, 238.566 610, 242.040 610 L 245.160 610 240.118 615.657 C 232.722 623.955, 235.098 624.385, 243.257 616.225 C 251.602 607.881, 251.503 606.510, 242.613 607.272 C 239.251 607.560, 235.713 608.115, 234.750 608.505 C 231.895 609.662, 232.650 607.357, 238.063 598.396 C 240.848 593.785, 242.830 589.534, 242.468 588.948 C 240.848 586.327, 228.392 591.754, 221.548 598.063 C 219.199 600.228, 217.102 602, 216.888 602 C 216.675 602, 216.500 593.828, 216.500 583.839 C 216.500 564.011, 216.024 562.480, 211.644 568.223 M 705.113 581.583 C 702.981 584.293, 699 594.033, 699 596.538 C 699 598.850, 697.566 598.256, 695.101 594.923 C 692.483 591.381, 684.463 586, 681.804 586 C 680.717 586, 680 586.733, 680 587.846 C 680 590.616, 688.421 610.204, 689.534 610.025 C 690.836 609.815, 690.360 607.874, 686.761 598.732 C 685.079 594.459, 683.965 590.701, 684.286 590.381 C 685.375 589.292, 691.816 595.087, 695.561 600.524 C 699.595 606.382, 700.980 606.677, 701.035 601.691 C 701.080 597.662, 705.131 585.739, 706.613 585.274 C 707.986 584.843, 708.974 590.448, 708.989 598.750 C 708.996 602.998, 709.391 605, 710.221 605 C 710.893 605, 714.031 602.438, 717.195 599.307 C 720.359 596.176, 723.249 593.916, 723.617 594.284 C 723.985 594.652, 723.322 597.274, 722.143 600.110 C 719.908 605.487, 719.398 609, 720.851 609 C 721.319 609, 723.119 608.506, 724.851 607.902 C 728.386 606.670, 729.047 605, 726 605 C 723.428 605, 723.479 604.176, 726.500 597 C 729.065 590.906, 729.613 588, 728.196 588 C 726.915 588, 718.772 593.455, 715.639 596.411 C 714.065 597.896, 712.671 598.973, 712.540 598.805 C 712.410 598.637, 711.755 594.472, 711.086 589.548 C 709.471 577.676, 708.844 576.840, 705.113 581.583 M 804.226 581.146 C 790.457 583.120, 780.413 589.151, 773.469 599.613 C 764.854 612.592, 762.616 624.014, 767.542 629.867 C 772.045 635.219, 789.885 640, 805.354 640 C 812.401 640, 812.468 639.974, 815.973 635.936 C 820.059 631.228, 825.206 629.580, 831.437 630.986 C 834.906 631.768, 835.722 631.569, 838.432 629.281 C 841.918 626.338, 852.677 621.002, 855.128 621.001 C 857.298 621, 858.197 619.684, 861.281 612 C 865.663 601.085, 865.756 601.823, 859.142 595.064 C 846.791 582.442, 828.147 577.717, 804.226 581.146 M 984.025 597.470 C 983.197 598.468, 983.027 600.558, 983.496 603.970 L 984.188 609 989.126 609 C 994.717 609, 1001 606.764, 1001 604.774 C 1001 602.618, 998.095 599.100, 994.989 597.494 C 991.296 595.584, 985.600 595.572, 984.025 597.470 M 66.500 603.412 C 58.428 605.418, 49.042 610.798, 42.901 616.939 C 36.571 623.269, 34.312 628.521, 35.408 634.362 C 37.333 644.620, 57.198 650.576, 84.040 648.942 C 93.395 648.373, 93.531 648.397, 96.303 651.159 C 97.844 652.695, 100.994 654.483, 103.303 655.133 C 108.204 656.512, 128.370 656.864, 135.245 655.689 C 141.606 654.603, 146 650.873, 146 646.559 C 146 638.965, 138.090 632.868, 125.540 630.788 C 119.077 629.717, 118.805 629.554, 117.320 625.842 C 114.017 617.586, 97.870 606.832, 83.794 603.513 C 76.359 601.761, 73.222 601.742, 66.500 603.412 M 61.557 608.491 C 49.354 613.507, 41.377 620.673, 38.940 628.806 C 37.226 634.526, 38.645 637.280, 44.953 640.476 C 53.702 644.910, 61.812 646.202, 78.554 645.832 L 93.608 645.500 97.615 641.286 C 99.878 638.906, 104.534 635.709, 108.311 633.942 C 112.616 631.927, 114.999 630.221, 114.996 629.156 C 114.990 626.307, 111.243 621.189, 106.783 617.937 C 91.289 606.639, 74.560 603.145, 61.557 608.491 M 863.656 612.192 C 862.136 615.715, 861.360 618.760, 861.856 619.256 C 862.336 619.736, 864.702 619.987, 867.114 619.814 C 871.308 619.514, 871.490 619.368, 871.283 616.500 C 871.046 613.222, 868.108 606, 867.012 606 C 866.635 606, 865.125 608.786, 863.656 612.192 M 933.126 618.168 C 929.991 619.372, 925.753 622.163, 922.954 624.866 C 912.124 635.323, 916.558 640.488, 937.417 641.714 C 948.164 642.346, 960.498 640.680, 964 638.124 C 967.283 635.727, 967.571 633.040, 965.069 628.135 C 959.680 617.572, 945.886 613.268, 933.126 618.168 M 854 624.534 C 851.525 625.301, 847.025 627.427, 844 629.257 C 839.835 631.776, 838.593 633.060, 838.882 634.542 C 839.092 635.619, 839.247 638.228, 839.226 640.340 C 839.193 643.779, 839.546 644.330, 842.596 645.605 C 853.161 650.019, 874.308 651.367, 883.419 648.206 C 886.135 647.264, 889.192 645.339, 890.247 643.906 C 891.992 641.537, 892.032 641.013, 890.715 637.859 C 888.885 633.480, 884.137 629.467, 876.500 625.846 C 869.663 622.605, 861.719 622.142, 854 624.534 M 824.333 633.695 C 821.544 634.239, 817 638.441, 817 640.477 C 817 644.905, 833.726 645.248, 836.071 640.868 C 837.570 638.066, 835.578 635.255, 831.238 634.049 C 829.182 633.478, 827.275 633.070, 827 633.142 C 826.725 633.214, 825.525 633.463, 824.333 633.695 M 110 636.509 C 103.698 639.503, 98 644.566, 98 647.173 C 98 652.077, 113.595 655.111, 129.035 653.210 C 142.221 651.586, 145.135 649.030, 141.598 642.190 C 139.189 637.530, 132.667 634.668, 123.524 634.257 C 116.503 633.942, 114.812 634.223, 110 636.509 M 674.500 634.879 C 666.653 636.338, 659.550 641.875, 660.168 646.052 C 660.710 649.722, 664.855 651.903, 673.629 653.136 C 679.526 653.964, 683.732 653.985, 688.945 653.211 C 697.360 651.962, 701 649.952, 701 646.554 C 701 643.670, 696.851 638.492, 692.906 636.451 C 689.455 634.667, 679.990 633.858, 674.500 634.879 M 677.500 637.441 C 676.950 637.658, 674.826 638.116, 672.779 638.458 C 668.702 639.139, 663 643.327, 663 645.640 C 663 648.562, 669.911 650.352, 681 650.302 C 691.853 650.253, 696.618 649.158, 697.647 646.478 C 698.342 644.666, 695.641 641.383, 691.838 639.416 C 689.177 638.040, 679.394 636.692, 677.500 637.441" stroke="none" fill="black" fill-rule="evenodd"/>
</svg>