<svg xmlns="http://www.w3.org/2000/svg" width="1536" height="1024" viewBox="0 0 1536 1024" version="1.1">
	<path d="M 1164.033 54.054 C 1124.456 57.821, 1085.903 70.834, 1057.458 90.029 C 1031.737 107.385, 1010.266 132.156, 997.602 159.084 C 979.093 198.440, 977.280 237.346, 992.121 276.668 C 993.861 281.278, 995.108 285.214, 994.892 285.416 C 994.676 285.617, 989.325 286.759, 983 287.952 C 950.723 294.042, 923.805 308.237, 895 334.359 C 889.775 339.097, 885.163 342.980, 884.750 342.987 C 884.337 342.994, 883.995 339.962, 883.990 336.250 C 883.960 316.812, 879.738 285.866, 874.101 263.771 C 864.949 227.902, 854.042 209.388, 840.388 206.549 C 818.545 202.006, 762.023 256.473, 727.608 315.227 C 724.474 320.577, 720.811 327.440, 719.468 330.477 C 718.124 333.515, 716.682 335.991, 716.263 335.980 C 715.843 335.970, 709.200 332.347, 701.500 327.931 C 673.397 311.811, 655.660 304.467, 650.505 306.816 C 648.421 307.765, 648 308.650, 648 312.083 C 648 314.503, 649.046 318.291, 650.528 321.243 C 651.919 324.012, 652.843 326.490, 652.583 326.751 C 652.322 327.011, 649.235 326.724, 645.723 326.112 C 642.210 325.500, 635.919 325, 631.743 325 L 624.149 325 617.549 315.533 C 591.304 277.891, 552.965 243.213, 519.682 227.013 C 494.764 214.884, 484.057 216.856, 477.117 234.852 C 471.322 249.880, 467.059 270.627, 464.903 294.305 C 463.251 312.438, 464.283 350.754, 466.874 367.500 C 471.475 397.243, 479.756 426.223, 489.528 446.780 L 494.906 458.094 490.520 473.297 C 485.152 491.905, 484.095 494.888, 479.979 503.041 C 474.045 514.797, 458.405 527.751, 446.287 530.946 C 442.025 532.070, 439 535.050, 439 538.123 C 439 540.980, 447.866 551.771, 455.105 557.727 C 458.897 560.847, 462 563.687, 462 564.040 C 462 564.392, 459.430 565.297, 456.290 566.050 C 450.194 567.513, 447 569.851, 447 572.850 C 447 577.247, 460.909 591.973, 475.230 602.738 C 480.032 606.347, 484.218 610.113, 484.533 611.105 C 486.223 616.429, 507.677 630.906, 531.250 642.628 C 538.812 646.389, 545 650.004, 545 650.661 C 545 652.108, 523.968 665.579, 511.500 672.117 C 500.578 677.845, 491.217 680.654, 480.224 681.503 C 470.343 682.266, 459.287 685.175, 452.755 688.730 C 446.268 692.260, 437.485 701.727, 434.209 708.719 C 431.874 713.703, 431.507 715.741, 431.550 723.500 C 431.591 730.670, 432.033 733.327, 433.728 736.568 C 436.585 742.032, 443.088 747.738, 447.375 748.543 C 449.297 748.903, 451.686 750.101, 452.685 751.205 C 457.067 756.051, 467.553 758.809, 482.500 759.047 C 512.088 759.519, 511.913 759.532, 522.500 756.050 C 528 754.242, 535.650 751.207, 539.500 749.307 C 543.350 747.407, 553.250 743.147, 561.500 739.840 C 569.750 736.534, 585.374 730.048, 596.219 725.427 C 613.030 718.265, 616.321 717.172, 618.531 718.012 C 623.632 719.951, 634.258 720.238, 641.785 718.640 C 655.097 715.813, 664.926 709.666, 680.986 694.125 C 686.203 689.076, 692.186 683.757, 694.281 682.305 L 698.091 679.665 702.796 684.237 C 709.072 690.337, 718.495 696.250, 727.297 699.611 C 731.258 701.124, 734.929 702.732, 735.454 703.185 C 738.018 705.397, 705.391 732.743, 692.224 739.418 C 690.422 740.331, 684.122 742.148, 678.224 743.455 C 664.457 746.506, 657.504 749.148, 649.925 754.209 C 637.922 762.224, 630.901 774.160, 630.183 787.772 C 629.775 795.510, 629.955 796.466, 632.966 802.583 C 636.423 809.605, 641.226 813.963, 647.829 816.067 C 649.848 816.711, 652.852 818.515, 654.504 820.076 C 660.735 825.965, 666.604 826.855, 702.500 827.357 C 711.064 827.477, 720.743 825.018, 731.804 819.912 C 742.330 815.053, 748.044 811.612, 771.505 795.997 C 821.205 762.920, 872.219 722.608, 880.096 710.188 L 882.868 705.816 896.184 705.551 C 911.062 705.255, 917.341 703.898, 928.766 698.510 C 937.388 694.444, 945.449 687.173, 950.896 678.548 C 960.117 663.946, 971.039 638.919, 976.587 619.676 C 979.350 610.094, 980.823 606.777, 984.358 602.176 C 990.107 594.695, 999.631 580.130, 1006.069 568.975 C 1008.918 564.039, 1011.560 560, 1011.940 560 C 1012.321 560, 1013.681 562.531, 1014.963 565.624 C 1022.760 584.436, 1042.267 602.745, 1062.308 610.060 C 1071.600 613.451, 1072 613.988, 1072 623.067 C 1072 637.062, 1066.942 657.193, 1059.914 671.171 L 1056.026 678.905 1045.122 684.482 C 1032.323 691.029, 1026.524 696.548, 1021.698 706.777 C 1018.872 712.764, 1018.524 714.485, 1018.513 722.500 C 1018.501 730.641, 1018.786 732.018, 1021.500 736.923 C 1024.989 743.229, 1029.949 747.178, 1036.702 749.026 C 1039.341 749.748, 1042.583 751.171, 1043.908 752.187 C 1049.731 756.658, 1058.324 757.671, 1082.500 756.737 C 1096.824 756.183, 1099.004 755.686, 1108.205 750.872 C 1125.950 741.590, 1136.648 722.784, 1149.375 678.500 C 1159.953 641.692, 1166.478 606.152, 1165.773 589.184 C 1165.195 575.297, 1163.508 571.558, 1152.641 560.092 C 1146.222 553.318, 1143.707 549.832, 1142.056 545.420 C 1138.125 534.913, 1138.284 529.951, 1143.350 505 C 1150.496 469.803, 1151.295 462.491, 1150.751 437.274 C 1150.220 412.720, 1148.716 403.330, 1142.070 383.092 C 1134.012 358.551, 1118.617 334.702, 1100.500 318.695 C 1094.039 312.987, 1080.487 303.780, 1072.932 299.966 C 1069.670 298.319, 1067 296.566, 1067 296.071 C 1067 294.122, 1076.511 286.948, 1081.853 284.866 C 1089.375 281.935, 1103.560 281.901, 1113 284.792 C 1119.376 286.744, 1121.795 287.632, 1143 295.804 C 1169.939 306.186, 1192.592 308.442, 1214.389 302.915 C 1223.535 300.596, 1238.025 294.066, 1246.698 288.356 C 1255.499 282.562, 1270.989 267.053, 1283.009 252 C 1299.832 230.933, 1305.559 226.158, 1319.731 221.379 C 1326.671 219.039, 1328.567 218.813, 1337.500 219.265 C 1348.848 219.838, 1358.299 222.921, 1370.361 229.983 C 1382.385 237.023, 1384.603 235.561, 1383.658 221.218 C 1382.139 198.148, 1370.593 161.951, 1358.153 141.256 C 1329.854 94.181, 1277.906 63.102, 1214.953 55.585 C 1198.494 53.619, 1175.777 52.936, 1164.033 54.054 M 1168.500 61.649 C 1166.850 61.842, 1161.225 62.485, 1156 63.080 C 1114.795 67.767, 1072.986 85.200, 1044.790 109.450 C 1007.526 141.498, 985.285 192.836, 989.963 236 C 991.712 252.139, 996.879 271.804, 1002.079 282.115 L 1003.903 285.729 1019.201 286.274 C 1033.856 286.796, 1046.082 288.976, 1056.193 292.870 C 1058.702 293.836, 1059.351 293.445, 1065.693 287.144 C 1075.156 277.742, 1081.183 275.500, 1097 275.500 C 1110.597 275.500, 1112.728 276.026, 1136.427 285.237 C 1160.516 294.600, 1170.362 297.079, 1186 297.719 C 1212.551 298.807, 1232.241 291.658, 1253.797 273.106 C 1257.758 269.696, 1261 266.499, 1261 266.001 C 1261 265.503, 1257.041 265.157, 1252.203 265.232 C 1247.364 265.307, 1242.864 265.034, 1242.203 264.625 C 1239.686 263.070, 1241.278 259.355, 1249.974 246.484 C 1256.659 236.591, 1258.636 232.956, 1257.724 232.237 C 1257.051 231.707, 1254.025 230.993, 1251 230.652 C 1237.874 229.171, 1225.765 224.315, 1225.189 220.303 C 1224.457 215.197, 1233.401 204.733, 1251.930 189.014 C 1258.019 183.849, 1263 179.298, 1263 178.900 C 1263 178.502, 1258.185 175.606, 1252.301 172.463 C 1235.993 163.755, 1225.236 156.347, 1217.250 148.323 C 1209.634 140.673, 1208.839 138.701, 1211.643 134.422 C 1213.610 131.421, 1229.449 119.376, 1240.250 112.670 C 1244.513 110.023, 1248 107.517, 1248 107.100 C 1248 106.423, 1240.313 99.925, 1224 86.814 C 1220.975 84.382, 1218.358 81.416, 1218.184 80.222 C 1217.773 77.402, 1222.109 74.684, 1231.740 71.725 C 1235.722 70.501, 1238.842 69.075, 1238.675 68.555 C 1237.360 64.479, 1186.856 59.509, 1168.500 61.649 M 1244 73.592 C 1232.059 76.764, 1224.950 79.350, 1225.292 80.400 C 1225.489 81.005, 1228.767 83.889, 1232.575 86.809 C 1245.420 96.656, 1254 104.941, 1254 107.496 C 1254 110.144, 1252.887 111.045, 1237.006 121.254 C 1225.473 128.669, 1216 136.406, 1216 138.410 C 1216 140.005, 1225.791 149.331, 1232.500 154.127 C 1237.597 157.770, 1251.106 165.807, 1263.250 172.421 C 1272.855 177.653, 1272.650 178.445, 1258.574 190.416 C 1246.749 200.472, 1231 216.201, 1231 217.953 C 1231 220.820, 1241.891 224.304, 1255.670 225.846 C 1264.718 226.858, 1266 227.352, 1266 229.827 C 1266 230.767, 1262.175 237.542, 1257.500 244.883 C 1252.825 252.224, 1249 258.691, 1249 259.255 C 1249 260.614, 1257.870 259.675, 1265.219 257.539 C 1270.772 255.924, 1271.147 255.579, 1280.575 243.429 C 1298.798 219.943, 1313.244 211.657, 1335.645 211.844 C 1343.270 211.908, 1346.596 212.508, 1355.645 215.456 C 1361.615 217.401, 1368.458 220.119, 1370.852 221.496 C 1376.978 225.021, 1377.366 224.835, 1376.577 218.750 C 1373.823 197.499, 1366.350 173.435, 1356.342 153.593 C 1338.533 118.285, 1306.930 91.370, 1264.794 75.627 C 1254.124 71.640, 1252.098 71.442, 1244 73.592 M 214.881 167.262 C 191.300 190.427, 183.280 200.784, 176.533 216.782 C 168.809 235.096, 167.331 254.920, 172.492 271 C 175.881 281.559, 179.690 289.347, 185.600 297.802 L 190.173 304.344 187.080 319.922 C 183.771 336.587, 177.558 373.771, 176.499 383.250 C 176.145 386.413, 175.551 388.983, 175.178 388.963 C 174.805 388.942, 172.549 384.988, 170.164 380.176 L 165.828 371.427 167.055 363.038 C 171.352 333.650, 160.541 301.832, 139.606 282.248 C 127.305 270.741, 115.636 264.181, 96.656 258.101 C 84.927 254.343, 63.639 250, 56.954 250 C 50.423 250, 49.552 251.654, 50.428 262.401 C 52.814 291.707, 56.695 306.982, 66.587 326 C 81.189 354.071, 111.756 373.042, 148 376.526 C 152.125 376.922, 156.542 377.641, 157.815 378.123 C 160.836 379.267, 166.203 390.828, 169.549 403.400 L 172.069 412.867 169.554 445.684 C 168.171 463.733, 166.736 485.363, 166.366 493.750 C 165.996 502.138, 165.359 509, 164.950 509 C 164.542 509, 162.866 506.863, 161.225 504.250 C 158.571 500.023, 158.173 498.344, 157.617 489 C 156.948 477.772, 154.813 468.240, 150.757 458.370 C 142.661 438.670, 123.543 422.172, 101.443 415.815 C 90.074 412.545, 65.872 412.563, 52.028 415.853 C 35.654 419.744, 35.112 420.515, 39.516 433.654 C 47.551 457.624, 60.545 476.847, 76.814 488.831 C 91.296 499.498, 110.279 506, 126.942 506 C 134.259 506, 133.150 504.519, 124.750 503.071 C 117.315 501.789, 97.501 493.931, 88.500 488.694 C 81.716 484.746, 70.918 475.827, 66.722 470.705 C 58.249 460.361, 50.359 445.848, 46 432.586 C 43.223 424.137, 43.372 423.962, 55.255 421.706 C 85.998 415.871, 110.843 421.524, 128.871 438.456 C 139.272 448.225, 145.372 458.848, 149.892 475.064 C 151.926 482.361, 152.790 495.033, 151.250 494.969 C 150.838 494.952, 148.925 492.836, 147 490.266 C 136.894 476.776, 116.117 459.597, 100.275 451.633 C 92.424 447.685, 92 447.547, 92 448.929 C 92 449.440, 95.484 452.027, 99.743 454.679 C 114.647 463.958, 131.544 478.655, 141.132 490.679 C 148.089 499.404, 158.467 517.890, 161.456 526.883 C 163.666 533.531, 163.926 535.709, 163.504 544 C 163.238 549.225, 162.549 563.625, 161.973 576 C 159.272 634.065, 158.567 644.030, 157.162 643.973 C 156.798 643.958, 155.200 641.037, 153.612 637.481 C 149.451 628.166, 140.509 614.767, 132.094 605.239 C 119.441 590.912, 95.358 574.798, 91.448 578.043 C 89.214 579.898, 89.619 581.318, 95.072 590.738 C 101.534 601.901, 109.712 618.861, 114.424 630.871 C 118.410 641.029, 122.967 654.774, 122.987 656.699 C 122.994 657.359, 120.377 656.089, 117.171 653.877 C 112.016 650.320, 110.960 649.953, 108.042 650.709 L 104.743 651.564 109.122 654.441 C 111.530 656.024, 117.642 661.522, 122.704 666.659 C 131.664 675.752, 134.652 677.827, 133.639 674.250 C 133.367 673.288, 131.953 667.789, 130.498 662.031 C 125.714 643.097, 113.639 612.414, 104.396 595.705 C 101.961 591.301, 100.165 587.501, 100.407 587.260 C 101.278 586.389, 113.414 595.399, 120.727 602.346 C 136.815 617.628, 149.822 639.182, 159.392 666.417 C 159.806 667.597, 160.423 667.977, 160.994 667.406 C 162.930 665.470, 166.125 621.123, 168.984 556.500 C 169.544 543.850, 170.438 527.200, 170.972 519.500 C 171.505 511.800, 172.427 497.625, 173.020 488 C 175.101 454.237, 179.036 401.436, 179.951 395 C 184.562 362.563, 186.383 351.282, 191.049 326.250 C 192.565 318.116, 194.437 317.925, 193.500 326 C 192.632 333.481, 194.230 333.987, 195.870 326.750 C 197.182 320.960, 200 307.111, 200 306.451 C 200 306.222, 202.363 304.839, 205.250 303.378 C 239.451 286.081, 261 252.060, 261 215.362 C 261 196.554, 254.314 170.608, 244.350 150.750 C 240.258 142.596, 239.636 142.944, 214.881 167.262 M 225.817 165.507 C 219.593 171.352, 211.417 179.367, 207.649 183.317 C 181.739 210.481, 171.782 237.534, 177.517 265.185 C 179.511 274.794, 190.728 297.605, 192.559 295.774 C 192.878 295.455, 194.880 288.231, 197.007 279.722 C 199.134 271.212, 203.146 257.447, 205.923 249.134 C 211.213 233.292, 219.411 215.518, 220.979 216.487 C 221.485 216.800, 219.212 224.805, 215.928 234.278 C 207.104 259.738, 197.555 296.888, 199.369 298.703 C 200.720 300.053, 213.758 291.646, 224.156 282.719 C 235.390 273.075, 245.108 257.752, 250.615 241 C 253.233 233.036, 253.412 231.397, 253.455 215 C 253.497 198.691, 253.303 196.785, 250.599 187 C 247.215 174.751, 239.826 155.775, 238.235 155.245 C 237.630 155.043, 232.042 159.661, 225.817 165.507 M 829 216.313 C 804.810 226.278, 763.289 270.354, 736.975 314 C 733.493 319.775, 727.068 331.848, 722.697 340.829 C 718.326 349.811, 714.101 357.408, 713.308 357.712 C 710.282 358.873, 709.547 356.280, 711.313 350.675 C 712.241 347.732, 713 344.847, 713 344.264 C 713 342.853, 687.647 328.182, 672.546 320.855 C 661.006 315.255, 656 313.798, 656 316.040 C 656 317.960, 659.774 324.501, 664.540 330.842 C 670.645 338.962, 669.813 340.051, 659.829 337.011 C 650.346 334.122, 637.252 332.009, 628.815 332.004 C 620.875 331.999, 608.065 334.512, 606.118 336.455 C 604.610 337.961, 607.233 339.708, 623 347.699 C 627.125 349.790, 630.385 351.950, 630.244 352.500 C 630.103 353.050, 626.503 353.555, 622.244 353.622 C 609.144 353.828, 597.190 357.465, 576.635 367.498 C 555.913 377.613, 537.827 393.935, 523.445 415.501 C 511.442 433.501, 504.768 449.234, 495.563 481.230 C 490.185 499.927, 486.901 507.441, 480.591 515.492 C 474.339 523.470, 467.202 529.222, 457.500 534.099 C 453.100 536.311, 449.060 538.556, 448.522 539.088 C 447.006 540.588, 463.483 555.912, 471.031 560.023 C 480.653 565.264, 480.115 566.748, 467.250 570.446 C 460.633 572.348, 457 573.881, 457 574.770 C 457 578.767, 479.240 597.702, 491.471 604.120 C 498.460 607.788, 501.172 609.913, 500.417 611.134 C 500.123 611.610, 499.009 612, 497.941 612 C 494.300 612, 495.996 613.792, 505.250 619.724 C 522.695 630.907, 543.477 641.856, 544.782 640.551 C 545.054 640.280, 544.651 637.907, 543.888 635.279 C 543.125 632.650, 542.500 626.443, 542.500 621.485 C 542.500 613.361, 542.816 611.829, 545.699 605.985 C 547.459 602.418, 551.847 596.277, 555.449 592.339 C 559.052 588.400, 561.999 584.800, 561.997 584.339 C 561.996 583.877, 558.733 583.467, 554.747 583.427 C 542.404 583.304, 533.100 577.422, 526.554 565.604 C 521.980 557.348, 520.102 550.398, 519.352 538.962 C 516.878 501.208, 544.313 476.984, 568.581 495.494 C 572.919 498.803, 577.713 506.603, 580.714 515.234 C 582.744 521.074, 583.340 525.077, 583.747 535.633 C 584.711 560.650, 580.178 571.653, 558.787 596.220 C 550.131 606.161, 547.543 612.229, 547.578 622.500 C 547.616 633.276, 550.516 640.657, 557.404 647.505 C 564.284 654.345, 568.882 656.433, 577.145 656.470 C 582.200 656.493, 584.272 656.064, 585.804 654.678 C 587.815 652.858, 587.814 652.849, 584.909 647.326 C 583.309 644.285, 582 641.174, 582 640.413 C 582 639.652, 579.255 637.643, 575.899 635.949 C 568.732 632.331, 562.064 625.829, 558.973 619.444 C 557.215 615.812, 556.857 613.655, 557.208 608.799 C 557.602 603.351, 558.025 602.365, 561.230 599.428 C 565.704 595.327, 570.184 593.939, 581.038 593.288 C 599.252 592.195, 613.983 599.912, 613.996 610.554 C 614.006 618.568, 605.089 629.335, 593.292 635.552 C 586.948 638.895, 586.702 639.658, 589.910 646 C 593.580 653.255, 604.741 658, 618.134 658 C 635.278 658, 652.994 648.285, 666.166 631.660 C 670.467 626.231, 671 623.495, 667.913 622.688 C 666.553 622.332, 665.953 621.508, 666.191 620.321 C 666.736 617.601, 678.968 617.839, 682.724 620.643 C 687.196 623.982, 689.602 627.798, 688.151 629.249 C 687.161 630.239, 686.114 630.034, 682.993 628.239 C 679.156 626.030, 679.058 626.024, 678.039 627.927 C 677.468 628.995, 677 630.461, 677 631.184 C 676.999 635.026, 668.240 660.882, 663.928 669.769 C 653.988 690.257, 638.505 700.940, 623.011 698.002 C 612.522 696.013, 609.429 692.274, 604.008 675.026 C 600.404 663.559, 599.570 661.829, 597.008 660.504 C 593.320 658.597, 591.996 658.614, 589.150 660.608 C 586.864 662.209, 586.862 662.225, 588.814 664.358 C 591.734 667.549, 594.644 673.838, 596.481 680.926 C 600.622 696.908, 605.151 704.016, 614.075 708.538 C 625.184 714.167, 639.176 713.614, 652.627 707.013 C 659.334 703.722, 663.118 700.779, 674.276 690.177 C 691.775 673.549, 701.308 667.286, 714 664.076 C 777.801 647.941, 833 631.449, 833 628.521 C 833 626.282, 826.420 621.291, 818.537 617.550 C 810.518 613.744, 809.171 611.646, 813.652 609.942 C 819.418 607.750, 829.258 602.429, 832.295 599.860 C 835.451 597.191, 835.470 597.125, 833.500 595.549 C 827.300 590.590, 815.659 586.079, 801.554 583.171 C 792.952 581.398, 788.883 579, 794.475 579 C 808.341 579, 836.824 589.066, 840.058 595.108 C 842.030 598.794, 836.867 603.935, 826.186 608.921 C 823.334 610.252, 821 611.722, 821 612.187 C 821 612.652, 822.511 613.753, 824.358 614.634 C 827.611 616.185, 828.232 616.093, 844.238 611.676 C 853.325 609.169, 864.301 605.733, 868.630 604.041 C 878.300 600.261, 888.241 594.932, 888.775 593.242 C 889.021 592.463, 885.109 590.086, 878.515 587.007 C 869.289 582.699, 867.900 581.736, 868.178 579.839 C 868.441 578.053, 869.607 577.398, 874.493 576.292 C 883.697 574.209, 896.142 567.716, 902.717 561.566 C 906.435 558.088, 908.143 555.828, 907.500 555.236 C 906.950 554.730, 903.530 553.538, 899.901 552.588 C 891.427 550.369, 876.500 542.981, 876.500 541.007 C 876.500 540.140, 879.746 537.911, 884.238 535.694 C 891.917 531.904, 903 522.954, 903 520.543 C 903 519.825, 900.135 518.580, 896.306 517.636 C 892.624 516.727, 885.787 514.132, 881.112 511.869 C 874.336 508.590, 870.973 506.107, 864.532 499.628 C 855.707 490.752, 853.581 487.201, 842.271 462.451 C 835.325 447.250, 826.416 431.580, 818.834 421.224 C 813.459 413.884, 801.062 401.063, 794.279 395.830 C 791.376 393.590, 789 391.369, 789 390.895 C 789 390.421, 791.910 387.747, 795.467 384.952 C 799.024 382.156, 803.779 377.552, 806.034 374.720 C 809.893 369.873, 810.027 369.491, 808.317 368.203 C 806.478 366.818, 792.882 367.036, 785.250 368.573 C 783.154 368.995, 782 368.836, 782 368.126 C 782 367.520, 784.258 363.087, 787.017 358.274 C 791.802 349.930, 795.421 341.689, 796.159 337.456 C 797.232 331.303, 775.743 342.494, 762.724 354.867 C 759.915 357.538, 758.436 360.177, 756.944 365.188 C 754.750 372.556, 753.698 373.824, 751.380 371.900 C 749.370 370.232, 749.995 367.005, 755.561 350.299 C 766.662 316.983, 785.770 284.345, 806.367 263.515 C 818.197 251.553, 823.557 248, 829.773 248 C 834.664 248, 837.738 251.056, 841.979 260.131 C 854.095 286.063, 858.352 340.482, 851.426 380.917 C 848.768 396.434, 843.064 417.996, 839.018 427.823 L 835.041 437.481 843.271 454.166 C 847.797 463.343, 851.950 470.738, 852.500 470.600 C 853.050 470.462, 855.416 465.319, 857.758 459.173 C 865.444 439.003, 872.300 410.998, 875.183 388 C 877.134 372.443, 876.824 323.227, 874.667 306.062 C 869.085 261.644, 854.779 221.394, 842.501 215.568 C 838.094 213.476, 835.545 213.617, 829 216.313 M 489.636 228.144 C 487.244 229.534, 482.795 239.401, 480.231 249 C 474.458 270.621, 472.066 287.805, 471.323 313 C 470.298 347.773, 473.877 375.796, 483.646 409.500 C 487.952 424.357, 496.880 447.027, 498.384 446.922 C 499.541 446.842, 511 424.365, 511 422.174 C 511 421.492, 509.912 418.787, 508.583 416.164 C 501.944 403.063, 494.385 375.732, 491.390 354 C 489.232 338.341, 488.920 299.413, 490.858 287.500 C 495.021 261.902, 498.967 255.198, 508.244 257.961 C 524.191 262.712, 553.173 304.852, 568.450 345.500 C 571.137 352.650, 573.859 359.083, 574.499 359.796 C 575.438 360.841, 577.211 360.342, 583.687 357.211 C 588.101 355.076, 595.144 352.243, 599.338 350.915 C 603.532 349.587, 606.972 348.226, 606.982 347.892 C 606.992 347.557, 604.562 345.664, 601.581 343.685 C 598.601 341.707, 595.853 339.114, 595.476 337.924 C 594.319 334.279, 597.897 330.773, 605.101 328.492 C 616.277 324.953, 615.795 325.881, 610.424 318.248 C 591.301 291.073, 564.211 264.212, 539.016 247.441 C 514.064 230.832, 496.693 224.044, 489.636 228.144 M 820.210 258.502 C 804.771 270.107, 783.635 299.839, 771.610 326.868 C 766.670 337.972, 764 344.202, 764 344.627 C 764 345.700, 766.137 344.672, 769.559 341.953 C 771.668 340.277, 777.845 336.677, 783.287 333.953 C 796.344 327.417, 803 327.304, 803 333.620 C 803 336.587, 797.314 352.669, 794.821 356.750 C 792.436 360.657, 792.598 360.746, 803 361.228 C 820.910 362.058, 821.384 369.308, 804.535 384.747 C 800.941 388.040, 798 391.055, 798 391.446 C 798 391.836, 801.604 395.547, 806.010 399.691 C 814.027 407.233, 824.125 419.069, 828.628 426.203 C 829.947 428.291, 831.406 430, 831.871 430 C 832.967 430, 839.432 410.500, 842.070 399.239 C 847.907 374.324, 849.458 358.121, 848.698 330.001 C 847.940 301.951, 846.153 289.920, 839.832 270.300 C 834.193 252.796, 830.641 250.660, 820.210 258.502 M 57.376 258.462 C 56.646 260.366, 58.684 279.410, 60.642 288.971 C 68.766 328.643, 90.224 353.856, 125.795 365.523 C 135.210 368.611, 154.087 372.121, 155.313 371.011 C 156.292 370.124, 148.397 356.547, 140.479 345.500 C 133.127 335.242, 127.122 328.202, 113.774 314.190 C 104.068 304.001, 101.755 301, 103.608 301 C 105.231 301, 117.704 311.995, 126.826 321.465 C 137.336 332.376, 143.430 340.098, 153.490 355.250 C 156.686 360.063, 159.662 364, 160.105 364 C 162.881 364, 162.245 340.200, 159.156 328.500 C 154.946 312.554, 147.519 299.385, 136.564 288.443 C 122.345 274.242, 101.668 264.655, 73.142 259.039 C 60.829 256.615, 58.123 256.516, 57.376 258.462 M 501.530 265.315 C 499.615 268.236, 496.442 280.548, 495.130 290.145 C 491.002 320.339, 493.864 355.318, 503.040 386.822 C 506.683 399.327, 512.971 416, 514.044 416 C 514.473 416, 516.991 412.962, 519.639 409.250 C 522.286 405.538, 526.884 399.632, 529.856 396.127 L 535.260 389.754 531.880 387.176 C 526.831 383.325, 518.212 373.877, 516.914 370.769 C 515.431 367.220, 516.446 363.368, 519.262 361.857 C 520.493 361.196, 524.425 359.946, 528 359.078 C 531.575 358.210, 534.306 357.050, 534.068 356.500 C 533.830 355.950, 531.838 351.675, 529.640 347 C 527.144 341.691, 525.478 336.542, 525.201 333.284 C 524.794 328.495, 524.962 327.975, 527.244 326.935 C 530.888 325.275, 539.703 327.385, 548.809 332.097 C 552.951 334.240, 556.584 335.750, 556.881 335.452 C 557.852 334.481, 543.042 306.516, 535.722 295.499 C 526.853 282.150, 517.009 270.704, 510.641 266.334 C 504.886 262.385, 503.547 262.235, 501.530 265.315 M 291.212 286.073 C 280.946 287.065, 273.287 288.606, 265.500 291.246 C 229.614 303.413, 206.387 334.835, 204.326 374 L 203.721 385.500 198.490 393 C 195.613 397.125, 191.851 403.011, 190.130 406.081 C 187.168 411.363, 187 412.233, 187 422.331 C 187 428.199, 187.389 433, 187.864 433 C 188.339 433, 189.531 430.863, 190.512 428.250 C 193.317 420.781, 199.807 408.211, 205.228 399.750 L 210.193 392 220.155 392 C 243.486 392, 264.628 386.083, 281.122 374.939 C 302.704 360.356, 317.240 338.386, 327.647 304.621 C 331.371 292.538, 331.682 289.811, 329.540 288.033 C 328.039 286.787, 312.017 284.993, 304 285.172 C 301.525 285.227, 295.770 285.633, 291.212 286.073 M 288.512 293.107 C 255.596 296.571, 229.053 315.702, 217.003 344.648 C 212.285 355.980, 208.212 378, 210.833 378 C 211.291 378, 213.186 376.087, 215.044 373.750 C 221.236 365.963, 240.371 346.928, 247.481 341.483 C 254.551 336.068, 270.599 326, 272.160 326 C 274.513 326, 272.171 328.449, 264.250 334.271 C 259.438 337.807, 251.472 344.262, 246.550 348.614 C 232.455 361.076, 212.645 383.978, 214.423 385.757 C 215.764 387.097, 241.724 384.026, 250.436 381.496 C 272.395 375.119, 291.185 361.598, 302.592 343.964 C 308.891 334.227, 316.293 318.415, 319.897 307 C 324.259 293.182, 324.290 293.663, 319 292.845 C 313.086 291.929, 298.507 292.055, 288.512 293.107 M 993 293.643 C 957.010 298.175, 921.457 317.158, 891.868 347.638 L 884.237 355.500 883.619 369.404 C 882.912 385.291, 880.065 406.334, 876.389 422.829 C 873.553 435.556, 865.285 461.202, 860.895 470.888 C 859.303 474.402, 858 477.962, 858 478.801 C 858 481.607, 864.089 489.854, 870.789 496.121 C 878.525 503.358, 889.751 509.085, 901.098 511.584 C 905.169 512.480, 909.175 513.548, 910 513.958 C 912.344 515.120, 912.350 519.697, 910.014 523.478 C 907.591 527.398, 899.292 535.140, 893.750 538.650 C 891.688 539.956, 890 541.404, 890 541.867 C 890 542.843, 901.975 546.517, 910 548.003 C 915.652 549.050, 918 550.910, 918 554.340 C 918 555.462, 914.629 559.620, 910.108 564.074 C 903.736 570.353, 900.353 572.757, 892.540 576.557 C 887.218 579.146, 883.232 581.623, 883.682 582.061 C 884.132 582.499, 886.975 583.825, 890 585.008 C 903.756 590.386, 902.050 595.638, 883.446 605.187 C 872.709 610.697, 863.391 614.113, 849.706 617.556 C 844.093 618.969, 838.893 620.324, 838.152 620.568 C 837.193 620.884, 837.698 622.031, 839.902 624.541 C 845.877 631.346, 843.620 633.890, 826.861 639.241 C 820.612 641.236, 806.510 645.732, 795.522 649.233 L 775.544 655.599 772.253 663.549 C 770.442 667.922, 767.789 674.416, 766.357 677.980 C 763.145 685.971, 755.912 694.887, 740.351 710.040 C 726.434 723.591, 719.419 729.641, 708.500 737.511 C 698.210 744.927, 693.153 747.126, 678.636 750.495 C 671.817 752.078, 663.840 754.715, 659.877 756.698 C 643.467 764.908, 634.540 780.578, 638.018 795.073 C 639.131 799.713, 643.983 807, 645.960 807 C 646.374 807, 647.007 803.737, 647.367 799.750 C 647.819 794.730, 648.943 790.610, 651.020 786.358 C 655.350 777.490, 663.441 770.775, 666.323 773.657 C 666.685 774.018, 664.945 776.489, 662.458 779.148 C 656.413 785.611, 653.770 791.846, 653.620 800 C 653.390 812.474, 659.263 818.067, 674.186 819.584 C 683.582 820.538, 684.180 820.188, 682.307 814.817 C 679.184 805.865, 683.153 791.585, 690.575 785.068 C 693.782 782.253, 699 780.864, 699 782.826 C 699 783.280, 697.868 784.715, 696.484 786.015 C 689.886 792.214, 686.016 803.630, 688.006 811.023 C 690.535 820.414, 697.166 822.595, 712.449 819.063 C 723.806 816.439, 735.192 810.867, 754.500 798.488 C 792.801 773.930, 848.285 732.260, 866.564 714.325 C 875.509 705.549, 878.198 699.953, 885.948 674 C 895.959 640.469, 899.095 632.761, 901.674 635.341 C 902.160 635.826, 898.621 653.468, 896.376 661.750 C 895.486 665.036, 897.717 664.667, 907.013 659.993 C 923.583 651.662, 937.577 641.373, 953.866 625.545 C 971.807 608.110, 984.151 591.877, 1001.008 563.554 L 1009.308 549.607 1008.154 540.940 C 1005.110 518.081, 1008.622 492.478, 1017.580 472.224 C 1021.732 462.835, 1022.440 466.916, 1019.114 481.068 C 1014.869 499.133, 1013.619 511.330, 1014.292 528.102 C 1014.942 544.305, 1016.339 550.583, 1021.983 562.673 C 1026.753 572.891, 1030.692 578.649, 1037.725 585.681 C 1047.143 595.099, 1057.528 601.089, 1075 607.178 C 1084.645 610.540, 1088.307 612.594, 1087.718 614.314 C 1087.494 614.966, 1085.554 615.500, 1083.406 615.500 L 1079.500 615.500 1079.249 621 C 1078.187 644.301, 1069.870 672.244, 1060.985 682.365 C 1058.808 684.844, 1054.736 687.525, 1049.409 689.986 C 1039.253 694.678, 1032.923 700.380, 1028.981 708.386 C 1023.480 719.562, 1024.019 730.742, 1030.353 736.834 C 1035.539 741.821, 1036.249 741.437, 1036.507 733.500 C 1036.811 724.148, 1040.071 715.734, 1045.517 710.250 C 1047.838 707.913, 1050.471 706, 1051.368 706 C 1053.698 706, 1053.394 709.339, 1050.859 711.595 C 1049.682 712.643, 1047.432 716.200, 1045.860 719.500 C 1043.624 724.194, 1043.002 726.914, 1043.002 732 C 1043.004 744.939, 1047.718 749.177, 1062.847 749.838 L 1072.281 750.251 1071.568 747.375 C 1069.633 739.577, 1069.804 731.545, 1072.031 725.619 C 1075.442 716.544, 1083.165 709.222, 1085.441 712.905 C 1085.749 713.403, 1084.426 715.695, 1082.501 717.999 C 1073.990 728.185, 1074.161 745.783, 1082.802 749.136 C 1090.265 752.031, 1106.341 745.659, 1116.038 735.962 C 1123.160 728.840, 1129.605 716.254, 1136.501 696 C 1149.468 657.918, 1160.208 605.632, 1158.762 587.624 C 1158.062 578.906, 1155.346 573.676, 1147.009 565 C 1139.052 556.718, 1135.756 551.105, 1133.349 541.735 C 1131.241 533.532, 1131.955 524.226, 1136.319 503 C 1143.275 469.168, 1144.453 458.364, 1143.728 435 C 1142.888 407.899, 1137.909 387.694, 1126.478 365.004 C 1108.748 329.808, 1079.834 306.382, 1041.901 296.479 C 1032.837 294.113, 1029.250 293.728, 1014 293.483 C 1004.375 293.328, 994.925 293.400, 993 293.643 M 531.436 333.306 C 530.629 335.408, 535.773 347.039, 541.094 355.143 C 543.893 359.406, 545.931 363.303, 545.622 363.803 C 545.313 364.302, 541.215 364.729, 536.515 364.750 C 530.314 364.779, 527.280 365.242, 525.454 366.438 C 522.958 368.074, 522.952 368.111, 524.719 371.152 C 526.740 374.631, 534.383 381.813, 538.263 383.880 C 540.738 385.198, 541.180 384.993, 548.177 379.274 C 552.205 375.982, 558.351 371.381, 561.835 369.050 C 568.900 364.322, 568.788 364.853, 564.908 354.483 C 562.595 348.301, 556.990 342.872, 548 338.106 C 540.468 334.113, 532.061 331.677, 531.436 333.306 M 1379.112 365.581 C 1370.508 367.894, 1361.998 372.999, 1355 380.043 C 1345.988 389.113, 1342.785 394.777, 1336.494 412.763 C 1336.196 413.617, 1334.597 412.916, 1331.570 410.606 C 1325.609 406.055, 1320.923 404.562, 1312.500 404.528 C 1299.571 404.476, 1290.234 411.208, 1283.413 425.500 C 1278.435 435.929, 1277.330 451.511, 1280.549 465.896 C 1281.298 469.244, 1281.267 469.283, 1278.404 468.631 C 1262.477 465.007, 1250.970 468.876, 1244.285 480.101 C 1239.566 488.026, 1238.181 497.343, 1240.197 507.600 C 1241.050 511.945, 1241.592 515.775, 1241.402 516.111 C 1241.211 516.446, 1238.680 516.081, 1235.777 515.299 C 1229.704 513.662, 1220.734 514.190, 1213.659 516.600 C 1206.959 518.884, 1199.782 526.086, 1195.871 534.455 C 1188.753 549.683, 1191.414 568.944, 1203.166 587.259 C 1204.866 589.908, 1206.087 592.203, 1205.879 592.357 C 1205.670 592.512, 1202.666 593.402, 1199.203 594.336 C 1184.913 598.190, 1176.354 607.976, 1173.801 623.379 C 1171.765 635.668, 1177.527 650.517, 1188.728 661.843 C 1192.177 665.331, 1194.983 668.481, 1194.962 668.843 C 1194.941 669.204, 1193.222 670.676, 1191.141 672.113 C 1183.393 677.465, 1181.631 689.311, 1187.307 697.888 C 1188.788 700.126, 1190 702.192, 1190 702.479 C 1190 702.765, 1187.899 703, 1185.332 703 C 1173.861 703, 1161.710 707.032, 1164.525 709.904 C 1165.237 710.631, 1168.433 710.618, 1175.025 709.862 C 1181.038 709.172, 1192.813 709.022, 1207.250 709.451 C 1221.960 709.888, 1230 709.779, 1230 709.143 C 1230 708.052, 1229.073 707.837, 1214 705.435 C 1208.225 704.515, 1202.341 703.170, 1200.925 702.446 C 1197.369 700.628, 1191.187 693.592, 1190.403 690.471 C 1188.492 682.854, 1193.278 675.635, 1201.648 673.512 C 1204.507 672.787, 1206.625 671.649, 1206.804 670.741 C 1206.983 669.834, 1204.720 667.362, 1201.304 664.734 C 1188.036 654.523, 1181.124 643.460, 1180.233 631.008 C 1179.314 618.162, 1184.442 608.357, 1195.141 602.505 C 1199.813 599.950, 1201.649 599.549, 1209.471 599.375 C 1214.405 599.266, 1218.585 598.744, 1218.761 598.216 C 1218.937 597.689, 1216.815 594.612, 1214.046 591.378 C 1205.186 581.033, 1198 564.061, 1198 553.480 C 1198 546.858, 1200.820 537.860, 1204.652 532.254 C 1207.449 528.163, 1209.629 526.323, 1214.561 523.896 C 1220.331 521.055, 1221.566 520.816, 1228.692 521.165 C 1234.958 521.471, 1237.939 522.216, 1243.786 524.938 C 1252.829 529.147, 1254.035 528.431, 1250.552 520.918 C 1247.056 513.376, 1245.691 505.854, 1246.218 497.033 C 1246.748 488.169, 1249.211 482.621, 1254.577 478.197 C 1262.579 471.602, 1272.119 471.749, 1283.336 478.642 C 1290.644 483.134, 1292.209 482.303, 1289.717 475.252 C 1284.610 460.798, 1283.557 444.884, 1286.975 433.817 C 1290.697 421.767, 1299.378 412.816, 1308.698 411.418 C 1317.777 410.057, 1329.509 414.786, 1334.798 421.941 C 1338.908 427.499, 1340.892 425.752, 1343.041 414.682 C 1343.662 411.482, 1346.129 404.957, 1348.523 400.182 C 1356.420 384.433, 1370.233 373.585, 1385.866 370.856 C 1399.856 368.415, 1415.963 374.085, 1426.650 385.214 C 1439.999 399.116, 1444.963 417.538, 1441.518 440.388 C 1440.450 447.474, 1440.218 451.618, 1440.854 452.254 C 1441.489 452.889, 1443.693 452.321, 1447.165 450.626 C 1457.984 445.344, 1467.541 446.203, 1475.455 453.169 C 1487.877 464.104, 1488.964 482.514, 1478.444 503.822 C 1473.867 513.092, 1473.318 516.896, 1476.758 515.502 C 1477.716 515.113, 1481.267 514.559, 1484.648 514.269 C 1496.552 513.250, 1505.707 518.596, 1511.215 529.785 C 1514.231 535.912, 1514.500 537.237, 1514.500 545.979 C 1514.500 563.548, 1506.863 579.323, 1491.095 594.321 C 1484.379 600.710, 1483.090 602.404, 1484.059 603.571 C 1484.711 604.357, 1486.235 605, 1487.444 605 C 1488.654 605, 1491.696 605.699, 1494.205 606.554 C 1507.725 611.161, 1515.465 626.829, 1511.626 641.816 C 1507.598 657.537, 1495.975 671.009, 1480.367 678.046 C 1473.355 681.208, 1471.807 682.882, 1474.459 684.438 C 1479.003 687.105, 1482.022 690.419, 1482.942 693.752 C 1485.163 701.798, 1475.433 711.357, 1463.170 713.177 C 1456.548 714.160, 1453.043 715.380, 1454.029 716.359 C 1454.288 716.617, 1461.700 717.315, 1470.500 717.911 C 1479.300 718.507, 1490.712 719.892, 1495.860 720.988 C 1505.492 723.040, 1507 722.959, 1507 720.385 C 1507 718.279, 1499.833 715.419, 1491 714 C 1480.009 712.234, 1480.227 712.393, 1483.784 708.718 C 1487.230 705.157, 1490 699.348, 1490 695.681 C 1490 694.370, 1488.870 691.172, 1487.488 688.573 C 1486.106 685.975, 1485.206 683.475, 1485.488 683.020 C 1485.770 682.564, 1488.437 680.816, 1491.415 679.135 C 1503.116 672.531, 1514.259 658.002, 1517.576 645.025 C 1519.947 635.749, 1519.173 624.918, 1515.621 617.659 C 1512.567 611.416, 1504.729 603.755, 1499.440 601.842 C 1497.548 601.158, 1496 600.183, 1496 599.677 C 1496 599.170, 1498.672 595.899, 1501.937 592.408 C 1512.457 581.162, 1518.550 568.856, 1521.095 553.710 C 1523.482 539.501, 1519.130 525.137, 1509.791 516.402 C 1503.985 510.970, 1498.530 508.418, 1490.690 507.462 C 1485.850 506.873, 1484.995 506.483, 1485.566 505.127 C 1489.836 495.003, 1491.299 487.993, 1491.333 477.500 C 1491.363 468.483, 1490.974 465.494, 1489.177 460.921 C 1483.543 446.585, 1468.848 437.937, 1455.125 440.880 C 1452.252 441.496, 1449.562 442, 1449.146 442 C 1448.731 442, 1448.582 436.640, 1448.816 430.089 C 1449.600 408.074, 1444.308 393.084, 1431.103 379.920 C 1422.980 371.822, 1416.688 368.136, 1406.540 365.530 C 1399.155 363.634, 1386.262 363.658, 1379.112 365.581 M 543.500 431.866 C 536.786 434.923, 529 444.871, 529 450.391 C 529 454.473, 530.835 454.407, 535.445 450.157 C 544.551 441.764, 553.982 439.441, 562.810 443.417 C 569.411 446.390, 570.925 442.988, 565.864 436.555 C 561.019 430.395, 551.234 428.343, 543.500 431.866 M 706.500 430.935 C 704.850 431.337, 702.104 432.393, 700.398 433.282 C 697.134 434.983, 691 441.369, 691 443.066 C 691 445.013, 693.996 445.162, 699.097 443.468 C 709.993 439.849, 721.991 442.933, 732.267 451.996 C 739.469 458.348, 742.026 456.287, 737.881 447.471 C 734.476 440.226, 727.717 434.302, 720.214 431.984 C 713.462 429.899, 711.403 429.741, 706.500 430.935 M 264.831 443.023 C 253.401 444.952, 240.276 450.274, 230.698 456.864 C 219.273 464.724, 206.533 481.841, 201.409 496.213 C 199.388 501.884, 196 518.359, 196 522.520 C 196 525.020, 194.425 527.932, 189.500 534.538 C 183.001 543.254, 183 543.258, 183 550.014 C 183 554.063, 182.401 557.919, 181.506 559.636 C 178.656 565.101, 180.353 624.872, 184.101 651 C 184.692 655.125, 185.422 660.430, 185.722 662.789 C 186.023 665.147, 186.728 666.924, 187.289 666.737 C 188.450 666.350, 190.962 658.599, 190.985 655.333 C 190.993 654.142, 191.362 653.017, 191.804 652.833 C 192.246 652.650, 194.534 648.900, 196.888 644.500 C 204.122 630.980, 212.029 619.957, 220.980 610.912 C 229.436 602.367, 245.145 590.936, 245.787 592.861 C 245.969 593.407, 245.006 595.614, 243.648 597.766 C 232.153 615.975, 217.191 653.828, 214.405 671.750 C 213.463 677.807, 215.262 677.319, 223.029 669.411 C 230.438 661.867, 237.931 656.491, 246.373 652.662 C 252.557 649.857, 263.100 646.766, 263.867 647.533 C 264.115 647.782, 261.851 650.576, 258.835 653.743 C 248.453 664.643, 238.181 680.424, 239.400 683.601 C 240.384 686.164, 242.936 685.045, 244.903 681.190 C 248.587 673.969, 258.683 661.478, 267.922 652.711 C 277.100 644.002, 278.258 641.804, 274.438 640.338 C 271.963 639.388, 256.638 642.729, 247.756 646.154 C 243.374 647.844, 236.164 651.653, 231.734 654.619 C 227.303 657.584, 223.495 659.828, 223.271 659.605 C 222.447 658.780, 229.273 640.105, 235.104 627.233 C 238.409 619.936, 243.626 609.586, 246.697 604.233 C 249.767 598.880, 253.387 592.576, 254.740 590.223 C 256.726 586.771, 256.965 585.663, 255.978 584.473 C 253.590 581.596, 248.885 583.077, 236.468 590.616 C 221.372 599.781, 201.156 622.433, 195.964 636 C 193.215 643.183, 190.842 648, 190.052 648 C 188.554 648, 185.053 599.627, 185.022 578.500 C 185.004 566.705, 185.329 563.634, 187.085 559 C 190.067 551.127, 195.509 541.051, 199.189 536.587 L 202.355 532.746 209.428 533.623 C 221.613 535.134, 243.634 534.640, 251.904 532.670 C 283.315 525.187, 306.132 505.156, 322.522 470.675 C 328.799 457.469, 329.682 454.526, 327.979 452.475 C 326.242 450.382, 309.364 445.344, 298 443.527 C 288.002 441.928, 272.696 441.696, 264.831 443.023 M 261.500 450.436 C 233.383 457.015, 213.727 475.939, 205.644 504.212 C 202.764 514.284, 201.660 521, 202.885 521 C 203.384 521, 205.269 519.313, 207.073 517.250 C 217.274 505.588, 234.215 492.445, 248 485.497 C 256.672 481.126, 269.296 476.613, 268.815 478.055 C 268.634 478.597, 263.437 481.843, 257.265 485.270 C 251.094 488.696, 241.872 494.421, 236.772 497.990 C 226.698 505.041, 205.414 525.243, 206.392 526.825 C 206.724 527.362, 212.150 528.124, 218.449 528.518 C 239.592 529.839, 258.657 525.855, 275 516.701 C 284.539 511.358, 299.752 496.464, 306.870 485.500 C 313.378 475.476, 321.246 459.533, 320.818 457.235 C 320.576 455.935, 317.740 454.786, 309.497 452.651 C 300.292 450.266, 295.974 449.738, 283 449.417 C 272.002 449.144, 265.757 449.440, 261.500 450.436 M 1380.885 468.784 C 1371.385 479.352, 1366.077 493.220, 1365.301 509.500 C 1364.790 520.234, 1365.628 527.188, 1367.418 527.057 C 1367.907 527.020, 1368.212 523.721, 1368.095 519.725 C 1367.683 505.622, 1373.435 486.986, 1381.657 475.787 C 1385.325 470.790, 1385.385 470.757, 1387.047 472.810 C 1387.972 473.952, 1389.433 477.724, 1390.295 481.193 C 1394.460 497.955, 1393.352 512.025, 1386.988 523.185 C 1384.891 526.862, 1382.881 530.800, 1382.521 531.935 C 1381.633 534.730, 1379.845 534.572, 1380.423 531.750 C 1381.432 526.829, 1382.068 510, 1381.244 510 C 1380.197 510, 1377 530.538, 1377 537.266 C 1377 541.389, 1376.732 542, 1374.927 542 C 1373.739 542, 1373.010 542.534, 1373.220 543.250 C 1373.422 543.938, 1374.183 546.638, 1374.912 549.250 C 1376.272 554.125, 1377.349 555.139, 1378.362 552.500 C 1378.752 551.484, 1380.345 551, 1383.303 551 C 1393.730 551, 1409.575 543.474, 1419.037 534.027 C 1431.406 521.677, 1439.512 499.525, 1433.109 495.568 C 1431.319 494.461, 1420.184 496.805, 1413.955 499.601 C 1410.632 501.092, 1405.796 503.817, 1403.210 505.656 C 1400.623 507.495, 1398.255 509, 1397.949 509 C 1397.642 509, 1397.390 504.613, 1397.388 499.250 C 1397.387 493.887, 1396.800 486.747, 1396.084 483.383 C 1394.489 475.883, 1389.081 464.607, 1386.885 464.203 C 1385.973 464.035, 1383.363 466.027, 1380.885 468.784 M 700.105 491.583 C 683.306 496.100, 670.694 510.571, 666.222 530.459 C 664.410 538.519, 664.285 554.057, 665.974 561.469 C 667.516 568.234, 672.148 577.657, 676.330 582.536 C 678.233 584.756, 682.425 587.906, 685.645 589.536 C 691.063 592.279, 692.283 592.495, 702 592.439 C 722.746 592.319, 733.900 584.802, 743.470 564.492 C 748.205 554.445, 748.988 550.808, 748.994 538.855 C 749.001 526.130, 746.917 518.272, 741.192 509.428 C 734.824 499.592, 727.708 494.461, 716.320 491.495 C 709.384 489.689, 707.102 489.701, 700.105 491.583 M 546.994 496.883 C 538.842 499.529, 533.375 504.837, 528.858 514.490 C 524.984 522.768, 523.693 530.632, 524.261 542.500 C 524.898 555.828, 527.394 562.351, 534.624 569.580 C 540.390 575.346, 544.974 577.325, 541.070 572.362 C 536.249 566.232, 534.530 551.313, 537.495 541.328 C 539.357 535.057, 545.766 527.562, 550.640 525.954 C 560.495 522.701, 570.456 527.421, 575.498 537.731 C 577.149 541.107, 578.837 543.899, 579.250 543.935 C 580.723 544.063, 579.966 531.185, 578.062 523.741 C 574.807 511.016, 569.435 502.793, 561.848 498.922 C 557.390 496.648, 550.592 495.715, 546.994 496.883 M 696.219 500.134 C 685.618 504.207, 674.868 517.298, 671.391 530.368 C 669.612 537.058, 668.427 551, 669.638 551 C 670.147 551, 671.158 548.985, 671.885 546.523 C 673.480 541.122, 679.823 533.641, 685.082 530.958 C 690.215 528.340, 698.840 528.343, 703.790 530.966 C 715.139 536.980, 720.709 547.829, 719.736 562.028 C 719.115 571.075, 716.745 577.063, 711.472 582.899 C 709.408 585.184, 707.978 587.312, 708.295 587.628 C 709.133 588.466, 718.820 585.120, 723.659 582.321 C 725.947 580.999, 730.261 577.569, 733.247 574.701 C 741.673 566.604, 745.722 553.703, 744.667 538.307 C 742.730 510.041, 719.031 491.368, 696.219 500.134 M 1419.162 502.992 C 1404.518 508.261, 1394.869 517.430, 1386.627 533.910 C 1383.287 540.589, 1381.291 545.691, 1381.812 546.212 C 1382.937 547.337, 1390.745 545.458, 1397.871 542.348 C 1408.371 537.764, 1417.356 530.122, 1423.353 520.672 C 1425.689 516.992, 1430 505.515, 1430 502.977 C 1430 500.397, 1426.363 500.402, 1419.162 502.992 M 1301.080 516.404 C 1298.545 519.458, 1297.590 529.628, 1298.774 540.949 C 1300.709 559.461, 1308.149 574.538, 1319.952 583.868 C 1325.940 588.601, 1335.778 592.620, 1337.985 591.234 C 1342.356 588.489, 1343.988 564.933, 1340.599 553.500 C 1337.463 542.922, 1332.383 534.618, 1324.418 527.052 C 1313.838 517.003, 1304.224 512.616, 1301.080 516.404 M 1304.398 522.165 C 1303.055 524.338, 1302.764 537.470, 1303.897 544.771 C 1306.057 558.694, 1313.377 572.239, 1322.483 579.161 C 1328.480 583.720, 1331.805 585.528, 1332.645 584.688 C 1333.002 584.332, 1331.176 578.518, 1328.589 571.770 C 1326.001 565.021, 1323.626 558.600, 1323.311 557.500 C 1322.798 555.711, 1322.902 555.659, 1324.292 557 C 1325.148 557.825, 1327.982 563.450, 1330.590 569.500 C 1333.199 575.550, 1335.508 580.712, 1335.721 580.971 C 1336.882 582.382, 1337.971 577.574, 1337.985 570.980 C 1338.002 562.300, 1335.186 550.958, 1331.178 543.569 C 1327.575 536.926, 1319.648 528.397, 1313.298 524.331 C 1307.792 520.805, 1305.572 520.265, 1304.398 522.165 M 551.923 537.923 C 548.193 541.653, 548.014 546.105, 551.455 549.545 C 552.805 550.895, 554.850 552, 556 552 C 559.179 552, 563 547.616, 563 543.969 C 563 540.811, 558.465 535, 556 535 C 555.365 535, 553.531 536.315, 551.923 537.923 M 688.077 542.589 C 683.883 546.118, 683.823 550.977, 687.923 555.077 C 689.531 556.685, 691.531 558, 692.367 558 C 695.162 558, 699.047 553.628, 699.657 549.796 C 700.166 546.596, 699.832 545.679, 697.200 543.046 C 693.483 539.329, 692.037 539.256, 688.077 542.589 M 1369.186 565.250 C 1363.806 579.675, 1355.312 613.379, 1353.425 627.789 C 1353.044 630.697, 1352.292 632.931, 1351.755 632.752 C 1351.218 632.573, 1349.709 628.196, 1348.402 623.026 C 1346.129 614.035, 1344.717 610.950, 1343.451 612.216 C 1343.131 612.536, 1344.450 621.731, 1346.382 632.649 C 1348.835 646.510, 1349.980 656.221, 1350.176 664.832 C 1350.581 682.691, 1353.237 682.123, 1354.452 663.917 C 1355.605 646.654, 1359.498 621.693, 1364.187 601.500 C 1365.848 594.350, 1367.601 585.800, 1368.084 582.500 C 1368.566 579.200, 1369.602 574.025, 1370.385 571 C 1372.821 561.593, 1373.068 560, 1372.091 560 C 1371.570 560, 1370.263 562.362, 1369.186 565.250 M 1428.754 563.063 C 1423.292 564.381, 1414.260 569.185, 1408.302 573.939 C 1397.257 582.754, 1386.794 600.623, 1386.602 611 L 1386.500 616.500 1394.500 618.166 C 1406.893 620.746, 1419.989 620.491, 1428.455 617.504 C 1436.605 614.628, 1444.738 609.292, 1449.564 603.654 C 1453.550 598.997, 1453.946 595.648, 1450.750 593.615 C 1447.813 591.746, 1438.096 589.806, 1432.733 590.018 C 1426.677 590.257, 1426.517 590.192, 1428.313 588.207 C 1429.206 587.220, 1431.778 582.482, 1434.029 577.678 C 1440.396 564.093, 1439.121 560.561, 1428.754 563.063 M 1421 572.187 C 1412.546 576.266, 1401.431 587.216, 1397.167 595.667 C 1392.843 604.237, 1389.889 612.295, 1390.765 613.134 C 1392.037 614.353, 1403.092 616, 1410.002 616 C 1421.296 616, 1433.457 611.307, 1441.590 603.810 C 1446.695 599.105, 1447.090 597.323, 1443.250 596.320 C 1438.580 595.101, 1426.725 595.703, 1422.124 597.393 C 1419.718 598.277, 1416.905 599, 1415.874 599 C 1413.437 599, 1413.456 596.362, 1415.902 595.052 C 1418.575 593.622, 1424.388 585.449, 1428.488 577.356 C 1430.399 573.585, 1431.971 570.163, 1431.981 569.750 C 1432.022 568.128, 1427.190 569.201, 1421 572.187 M 337.155 571.314 C 336.366 572.264, 336.452 577.303, 337.469 589.564 C 339.216 610.635, 339.895 628, 338.972 628 C 338.587 628, 337.027 626.204, 335.506 624.008 C 328.159 613.407, 308.963 598.649, 304.665 600.298 C 302.194 601.247, 302.617 603.602, 306.387 609.869 C 313.734 622.083, 319.917 636.508, 323.372 649.500 C 324.835 654.999, 325.969 657.500, 327 657.500 C 331.112 657.500, 325.918 637.601, 317.212 620 C 314.627 614.775, 312.360 610.163, 312.173 609.750 C 311.038 607.243, 315 609.955, 321.518 616.147 C 329.095 623.344, 335.851 632.472, 340.100 641.250 C 341.364 643.862, 342.830 646, 343.357 646 C 344.341 646, 343.609 604.792, 342.356 589.750 C 341.959 584.981, 342.083 582, 342.678 582 C 343.803 582, 348.953 593.007, 353.206 604.500 C 356.496 613.390, 359.364 626.151, 360.948 638.947 C 362.090 648.175, 363.345 650.742, 364.838 646.902 C 365.352 645.581, 367.470 640.034, 369.546 634.576 C 371.737 628.815, 375.737 621.056, 379.084 616.076 C 385.217 606.951, 395 596.510, 395 599.091 C 395 599.925, 393.462 605.174, 391.582 610.756 C 386.327 626.362, 380.972 652, 382.969 652 C 383.514 652, 387.232 648.696, 391.230 644.658 C 396.219 639.619, 400.589 636.296, 405.157 634.066 C 414.734 629.392, 415.900 630.162, 410.358 637.500 C 405.476 643.963, 400 653.993, 400 656.471 C 400 659.410, 402.994 657.965, 405.640 653.750 C 412.186 643.322, 415.828 638.261, 420.328 633.334 C 425.708 627.444, 426.110 624.687, 421.664 624.176 C 415.781 623.500, 399.550 630.039, 392.744 635.828 C 388.382 639.537, 389.232 634.846, 397.627 608.882 C 400.582 599.742, 403 591.556, 403 590.691 C 403 588.075, 401.265 587.824, 397.284 589.862 C 388.863 594.173, 376.883 608.338, 369.859 622.290 C 366.145 629.667, 364 631.345, 364 626.872 C 364 623.727, 359.347 606.161, 356.536 598.691 C 351.344 584.897, 342.559 570, 339.616 570 C 338.862 570, 337.754 570.591, 337.155 571.314 M 1255.023 579.439 C 1253.671 582.997, 1253.716 583.921, 1255.631 591.794 C 1257.928 601.242, 1263.829 613.500, 1269.322 620.236 C 1271.895 623.391, 1274 626.136, 1274 626.338 C 1274 626.539, 1270.063 626.960, 1265.250 627.274 C 1254.431 627.978, 1244.219 631.227, 1239.256 635.545 L 1235.500 638.812 1237.459 642.501 C 1242.578 652.143, 1258.974 661.934, 1274.625 664.695 C 1286.072 666.715, 1296.814 665.384, 1308.965 660.443 C 1313.621 658.549, 1317.938 657, 1318.559 657 C 1320.840 657, 1333.111 673.605, 1337.956 683.250 C 1339.476 686.274, 1341.733 686.859, 1342.652 684.465 C 1343.426 682.447, 1338.059 671.651, 1332.639 664.325 C 1330.269 661.121, 1325.105 655.060, 1321.165 650.856 C 1314.499 643.744, 1314 642.902, 1314 638.766 C 1314 632.346, 1310.572 619.899, 1306.435 611.298 C 1302.131 602.350, 1291.503 590.665, 1282.932 585.459 C 1276.204 581.372, 1267.867 578.317, 1260.931 577.396 C 1256.293 576.781, 1255.994 576.884, 1255.023 579.439 M 1260 585.622 C 1260 590.206, 1263.537 601.348, 1267.166 608.195 C 1269 611.656, 1273.506 617.640, 1277.180 621.493 C 1282.979 627.577, 1284.867 628.874, 1291.509 631.337 C 1295.717 632.898, 1299.390 633.943, 1299.673 633.660 C 1299.956 633.378, 1297.406 629.448, 1294.006 624.928 C 1290.607 620.408, 1287.592 616.100, 1287.306 615.355 C 1285.268 610.043, 1297.972 621.893, 1304.259 631.168 C 1306.042 633.797, 1307.826 635.960, 1308.225 635.974 C 1309.088 636.005, 1308.381 631.560, 1306.321 624 C 1302.352 609.433, 1289.379 593.931, 1275.735 587.451 C 1271.532 585.455, 1266.272 583.578, 1264.047 583.279 C 1260.128 582.754, 1260 582.828, 1260 585.622 M 572.328 602.693 C 564.292 603.491, 564.295 608.341, 572.332 609.506 C 577.014 610.185, 588.176 607.973, 588.749 606.253 C 589.584 603.747, 580.824 601.848, 572.328 602.693 M 962.498 627.298 C 948.398 643.309, 917.855 664.818, 899.662 671.549 C 897.001 672.533, 894.253 674.275, 893.554 675.419 C 892.856 676.564, 891.011 681.921, 889.455 687.325 C 887.042 695.700, 886.837 697.296, 888.062 698.137 C 890.016 699.479, 906.013 698.443, 913.500 696.489 C 927.994 692.706, 937.712 685.922, 944.869 674.590 C 953.084 661.583, 968.524 626.958, 967.795 623.177 C 967.595 622.136, 965.845 623.498, 962.498 627.298 M 1258.942 633.007 C 1253.821 633.875, 1244.575 637.602, 1243.083 639.401 C 1241.699 641.068, 1247.343 646.973, 1255.132 652.007 C 1268.813 660.849, 1286.165 662.950, 1301.734 657.650 C 1306.263 656.108, 1310.930 654.067, 1312.106 653.115 L 1314.244 651.384 1309.609 647.305 C 1297.030 636.232, 1275.602 630.185, 1258.942 633.007 M 71.250 638.133 C 70.563 638.830, 70 639.872, 70.001 640.450 C 70.001 641.028, 74.349 645.537, 79.664 650.471 C 90.140 660.197, 99.454 671.290, 104.194 679.689 C 107.430 685.424, 111 687.024, 111 682.739 C 111 678.573, 94.127 655.709, 85.395 648.042 C 83.412 646.301, 82.073 644.594, 82.418 644.248 C 82.764 643.903, 87.825 645.236, 93.666 647.210 L 104.285 650.800 99.893 646.972 C 92.836 640.822, 74.254 635.088, 71.250 638.133 M 1420 640.457 C 1406.261 643.413, 1398.144 647.147, 1385.843 656.169 C 1378.642 661.451, 1374.557 665.624, 1368.316 674.074 C 1362.463 681.998, 1360.569 685.974, 1361.984 687.365 C 1362.850 688.215, 1363.686 687.820, 1365.320 685.788 C 1366.519 684.296, 1369.525 680.539, 1372 677.440 C 1378.390 669.439, 1390.744 658.084, 1397.369 654.123 C 1405.325 649.366, 1414.413 646.286, 1424.428 644.953 C 1431.744 643.979, 1434.160 644.057, 1440.518 645.472 C 1444.633 646.387, 1448 647.661, 1448 648.302 C 1448 648.944, 1444.963 652.305, 1441.250 655.772 C 1433.830 662.700, 1425.036 667.516, 1408 673.981 C 1396.807 678.228, 1389.644 682.405, 1390.260 684.326 C 1390.918 686.378, 1401.253 692, 1408.347 694.165 C 1424.228 699.010, 1449 693.683, 1449 685.423 C 1449 682.400, 1442.325 676.770, 1435.416 673.966 C 1432.437 672.757, 1430 671.465, 1430 671.096 C 1430 670.726, 1432.858 668.545, 1436.351 666.248 C 1445.321 660.351, 1455.208 649.605, 1454.807 646.188 C 1454.544 643.942, 1453.663 643.317, 1448.598 641.779 C 1440.472 639.313, 1427.996 638.737, 1420 640.457 M 539.945 663.271 C 525.924 672.461, 508.038 682.062, 499.411 685.031 C 496.280 686.108, 488.910 687.443, 483.033 687.997 C 465.835 689.619, 457.336 692.799, 448.758 700.823 C 440.108 708.914, 436.310 720.061, 438.916 729.705 C 439.998 733.707, 444.300 740, 445.955 740 C 446.382 740, 446.955 736.867, 447.229 733.039 C 447.567 728.326, 448.586 724.323, 450.384 720.647 C 453.115 715.065, 460.818 707, 463.419 707 C 466.593 707, 465.972 709.322, 461.530 714.071 C 455.410 720.614, 453.681 724.878, 453.581 733.675 C 453.515 739.491, 453.899 741.386, 455.605 743.675 C 459.310 748.649, 463.560 750.413, 471.950 750.459 C 479.010 750.497, 479.468 750.370, 479 748.500 C 478.725 747.400, 478.513 743.350, 478.529 739.500 C 478.553 733.668, 479.049 731.605, 481.500 727.136 C 484.459 721.741, 489.947 717, 493.232 717 C 495.713 717, 495.513 717.532, 491.036 722.842 C 486.324 728.431, 484 734.464, 484 741.110 C 484 745.068, 484.542 746.574, 486.922 749.234 L 489.844 752.500 500.672 752.445 C 512.690 752.384, 519.322 750.580, 536 742.833 C 540.675 740.661, 551.250 736.169, 559.500 732.851 C 575.412 726.451, 605.231 713.933, 605.896 713.374 C 606.114 713.191, 604.459 711.051, 602.217 708.620 C 596.821 702.766, 594.520 698.031, 591.888 687.363 C 588.088 671.963, 582.695 664.005, 576.054 663.994 C 570.590 663.986, 565.003 662.104, 559.396 658.385 C 556.590 656.523, 553.890 655.010, 553.396 655.021 C 552.903 655.033, 546.850 658.746, 539.945 663.271 M 650.994 655.934 C 644.489 657.913, 639.584 661.892, 634.859 669.024 C 632.698 672.285, 631.471 670.956, 632.889 666.889 C 633.505 665.122, 633.803 663.470, 633.551 663.218 C 633.299 662.966, 631.444 663.069, 629.429 663.447 C 623.674 664.527, 617.928 671.968, 615.888 680.985 C 614.174 688.558, 618.114 692.265, 628 692.384 C 639.650 692.524, 650.505 683.662, 658.555 667.441 C 661.124 662.265, 662.964 657.348, 662.644 656.515 C 662.013 654.870, 655.552 654.548, 650.994 655.934 M 744.500 663.491 C 722.369 668.941, 711.566 672.139, 706.589 674.713 L 703.579 676.269 707.539 679.685 C 714.023 685.277, 725.559 691.620, 734.583 694.556 L 743.043 697.308 745.615 694.904 C 749.727 691.061, 756.971 681.001, 760.124 674.755 C 764.226 666.629, 767.066 659.148, 766.220 658.700 C 765.824 658.491, 756.050 660.647, 744.500 663.491 M 1410 678.104 C 1405.325 679.791, 1400.825 681.835, 1400 682.647 C 1398.668 683.957, 1398.717 684.283, 1400.440 685.560 C 1403.831 688.074, 1412.291 690.765, 1419.093 691.493 C 1426.180 692.252, 1436.319 690.332, 1440.831 687.375 L 1443.189 685.830 1441.015 683.516 C 1438.161 680.478, 1428.664 676.303, 1423 675.597 C 1419.504 675.161, 1416.603 675.721, 1410 678.104 M 305.994 688.934 C 297.251 691.594, 292 697.245, 292 703.996 C 292 707.256, 293.063 710.151, 296.369 715.902 C 303.132 727.662, 306.060 733.845, 305.136 734.416 C 304.343 734.906, 292.249 732.653, 217 717.994 C 119.145 698.931, 112.606 698.069, 99.454 702.484 C 88.700 706.094, 80.953 711.006, 71.876 719.970 C 51.446 740.149, 39.932 769.145, 39.701 801 C 39.519 826.071, 46.338 848.189, 59.613 865.580 L 63.180 870.253 59.840 869.624 C 51.733 868.096, 39.028 867.732, 37.518 868.985 C 34.907 871.152, 35.810 873.136, 41.922 878.668 C 45.179 881.615, 51.069 888.071, 55.011 893.013 C 62.005 901.784, 65.898 904.559, 64.464 899.750 C 63.191 895.483, 59.171 889.478, 52.595 882.019 C 48.968 877.904, 46 874.134, 46 873.641 C 46 872.418, 53.175 873.620, 60.767 876.115 C 67.549 878.343, 77.127 884.943, 80.780 889.904 C 82.034 891.607, 83.783 893, 84.666 893 C 86.006 893, 86.164 892.215, 85.621 888.250 C 84.576 880.627, 86.861 863.504, 90.125 854.500 C 93.250 845.878, 98.487 836, 99.932 836 C 101.203 836, 101.826 841.359, 102.566 858.624 C 103.377 877.535, 105.187 893.536, 106.500 893.385 C 107.050 893.321, 109.300 889.810, 111.500 885.583 C 113.700 881.355, 118.255 874.882, 121.621 871.198 C 127.539 864.723, 138.374 857.040, 139.707 858.374 C 140.065 858.732, 139.553 860.707, 138.569 862.763 C 133.178 874.019, 126.114 898.758, 127.603 901.167 C 128.580 902.747, 129.742 901.988, 132.328 898.081 C 133.754 895.925, 136.493 892.963, 138.413 891.499 L 141.904 888.835 153.702 891.460 C 165.833 894.159, 255.997 915.069, 284.481 921.790 L 300.461 925.560 304.182 930.482 C 306.228 933.189, 309.611 938.545, 311.701 942.383 C 313.790 946.221, 316.062 949.542, 316.749 949.764 C 321.507 951.297, 315.867 937.178, 307.111 925.632 C 304.246 921.855, 302.119 918.548, 302.384 918.283 C 303.106 917.561, 309.752 919.901, 316.334 923.194 C 323.382 926.721, 330.248 932.861, 333.666 938.692 C 335.054 941.062, 336.758 943, 337.451 943 C 338.180 943, 339.407 940.147, 340.355 936.250 C 342.906 925.768, 348.376 915.624, 355.108 908.892 C 361.384 902.616, 363.540 901.587, 362.744 905.250 C 360.195 916.983, 357.045 934.767, 356.559 940.178 C 355.820 948.405, 357.199 949.905, 360.919 944.922 C 364.891 939.602, 369.840 935.122, 374.205 932.895 C 378.974 930.462, 379.989 931.055, 377.697 934.935 C 374.989 939.521, 375.500 940.686, 380.750 941.889 C 390.965 944.231, 458.470 960.324, 475.500 964.478 C 518.548 974.978, 520.015 975.239, 533.309 974.794 C 544.148 974.431, 546.403 974.028, 553.637 971.163 C 563.979 967.069, 572.741 961.271, 581.068 953.014 C 589.470 944.682, 594.955 936.510, 601.599 922.423 C 606.111 912.859, 607.564 910.711, 611.207 908.218 C 616.585 904.539, 620.680 902.478, 624.376 901.590 C 626.999 900.959, 627.205 901.101, 626.717 903.199 C 626.423 904.465, 624.305 909.941, 622.010 915.369 C 616.838 927.606, 617.560 929.010, 625.639 922.430 C 643.678 907.737, 670.277 904.057, 689.735 913.561 C 700.171 918.658, 704.225 924.975, 700.967 931.062 C 699.647 933.529, 693.964 936.384, 687.215 937.972 C 682.377 939.111, 681.489 939.026, 676.715 936.973 C 669.505 933.871, 660.649 933.291, 654.036 935.488 C 648.370 937.370, 639.471 944.902, 640.221 947.181 C 640.460 947.906, 642.421 949.505, 644.578 950.734 C 659.063 958.983, 679.554 957.524, 684.257 947.908 C 685.791 944.771, 686.704 944.161, 691.445 943.100 C 701.917 940.756, 707.500 934.991, 707.500 926.519 C 707.500 922.066, 706.993 920.552, 704.428 917.343 C 696.579 907.525, 683.689 902.488, 666.500 902.522 C 654.058 902.547, 647.489 903.856, 637.737 908.256 C 634.018 909.935, 630.718 911.051, 630.404 910.737 C 630.090 910.423, 630.770 908.047, 631.916 905.456 C 637.118 893.697, 631.799 891.079, 616.964 898.095 C 613.527 899.720, 610.504 900.837, 610.244 900.578 C 609.985 900.318, 610.500 896.145, 611.388 891.303 C 612.443 885.556, 613.003 876.946, 613.001 866.500 C 612.998 852.860, 612.629 848.978, 610.498 840.182 C 602.019 805.184, 578.899 781.984, 548 777.468 C 545.525 777.106, 532.475 774.794, 519 772.329 C 505.525 769.865, 490.900 767.247, 486.500 766.512 C 430.149 757.093, 374.339 746.137, 369 743.446 C 359.228 738.520, 351.293 728.985, 335.045 702.643 C 329.265 693.272, 327.033 690.494, 324.398 689.393 C 320.870 687.919, 310.205 687.653, 305.994 688.934 M 306.500 695.204 C 302.706 696.526, 298 700.861, 298 703.032 C 298 708.496, 310.334 710.429, 317.387 706.070 C 319.401 704.825, 321.768 702.415, 322.648 700.713 C 324.179 697.753, 324.152 697.541, 322.013 695.810 C 319.488 693.765, 311.519 693.454, 306.500 695.204 M 322.500 706.991 L 318.500 711.100 323.377 720.176 C 326.059 725.167, 327.641 729.047, 326.892 728.797 C 325.176 728.225, 319.232 718.488, 318.165 714.500 L 317.363 711.500 310.431 711.857 C 306.619 712.053, 303.309 712.394, 303.075 712.615 C 302.842 712.836, 304.944 717.850, 307.747 723.758 C 310.550 729.666, 313.361 736.179, 313.993 738.230 C 315.128 741.915, 314.651 744.520, 313.025 743.515 C 312.565 743.231, 306.858 742.092, 300.344 740.985 C 293.830 739.877, 279.500 737.204, 268.500 735.044 C 247.042 730.830, 213.169 724.318, 182.500 718.512 C 172.050 716.533, 160.350 714.266, 156.500 713.475 C 131.465 708.326, 115.271 705.839, 110.712 706.444 C 103.083 707.456, 93.782 711.266, 86.854 716.217 C 80.348 720.867, 70 731.093, 70 732.873 C 70 734.156, 70.184 734.204, 92.250 738.646 C 102.562 740.721, 111 742.833, 111 743.339 C 111 744.783, 96.505 743.169, 80.747 739.970 L 66.500 737.079 64.790 739.289 C 62.339 742.458, 54.432 758.609, 52.447 764.500 C 49.313 773.804, 49.036 775.952, 50.851 776.894 C 53.526 778.282, 79.746 783.800, 89.500 785.028 C 106.284 787.140, 139 795.196, 139 797.216 C 139 797.668, 137.988 797.815, 136.750 797.543 C 119.637 793.781, 98.504 789.997, 94.533 789.984 C 91.765 789.976, 85.450 789.092, 80.500 788.021 C 75.550 786.950, 66.410 784.974, 60.190 783.631 L 48.879 781.188 48.082 783.344 C 46.550 787.487, 45.941 803.977, 46.996 812.711 C 50.134 838.669, 62.037 862.685, 76.195 871.623 C 80.395 874.274, 82 874.051, 82 870.815 C 82 865.472, 86.552 850.310, 90.546 842.354 C 92.973 837.517, 94.599 833.199, 94.158 832.758 C 93.717 832.317, 89.227 830.778, 84.178 829.337 C 79.130 827.896, 75 826.282, 75 825.750 C 75 825.218, 76.012 825.024, 77.250 825.319 C 78.487 825.614, 83.482 826.633, 88.350 827.584 C 96.755 829.226, 97.348 829.226, 100.152 827.570 C 103.555 825.559, 106 826.093, 106 828.846 C 106 832.313, 106.723 832.556, 141 840.616 C 154.174 843.714, 165 847.142, 165 848.216 C 165 848.668, 163.988 848.812, 162.750 848.535 C 161.512 848.258, 153.975 846.679, 146 845.024 C 138.025 843.370, 126.351 840.690, 120.058 839.068 C 113.765 837.446, 108.187 836.384, 107.664 836.708 C 107.077 837.071, 106.979 844.041, 107.409 854.898 C 107.943 868.378, 108.452 872.850, 109.585 873.996 C 110.895 875.322, 111.370 875.094, 113.756 871.996 C 123.647 859.151, 144.337 847.503, 146.634 853.487 C 147.270 855.147, 146.839 856.439, 141.125 870 C 138.923 875.225, 137.431 879.805, 137.811 880.178 C 138.190 880.551, 144.800 882.253, 152.500 883.961 C 160.200 885.668, 177.300 889.579, 190.500 892.652 C 203.700 895.724, 226.875 901.113, 242 904.625 C 257.125 908.138, 274.550 912.224, 280.723 913.706 L 291.946 916.399 294.496 914.004 C 296.963 911.686, 297.246 911.649, 303.272 912.857 C 306.698 913.544, 312.828 915.666, 316.896 917.573 C 320.964 919.480, 324.483 920.850, 324.716 920.617 C 325.296 920.037, 321.363 912.430, 317.777 907.195 C 314.866 902.945, 314.663 900, 317.282 900 C 319.920 900, 327.263 909.614, 332.415 919.814 C 335.815 926.547, 337.480 926.325, 341.465 918.609 C 345.756 910.300, 357.286 898.580, 362.782 896.941 C 369.229 895.019, 369.823 896.158, 367.636 906.260 C 364.797 919.374, 362.948 930.281, 363.473 930.807 C 363.740 931.074, 366.724 930.051, 370.103 928.534 C 377.489 925.220, 383.386 924.246, 385.490 925.992 C 387.421 927.594, 387.425 930.402, 385.500 932 C 382.617 934.392, 384.061 935.532, 392.250 937.326 C 404.234 939.952, 422.478 944.270, 456.884 952.623 C 473.595 956.680, 487.927 960, 488.734 960 C 489.598 960, 488.209 957.818, 485.350 954.686 C 482.683 951.763, 478.745 946.476, 476.600 942.936 C 474.455 939.396, 471.791 935.489, 470.679 934.254 C 469.568 933.019, 468.922 931.745, 469.243 931.424 C 469.564 931.103, 468.726 927.614, 467.381 923.670 C 463.144 911.248, 461.824 901.092, 462.178 883.656 L 462.500 867.813 429.082 859.405 C 410.703 854.781, 395.440 850.774, 395.166 850.499 C 392.356 847.689, 407.144 850.122, 438.839 857.682 C 458.525 862.378, 462.379 863.035, 463.457 861.875 C 464.159 861.119, 465.497 857.350, 466.428 853.500 C 468.393 845.377, 473.935 831.966, 478.688 823.832 C 480.510 820.714, 482 817.722, 482 817.181 C 482 816.641, 479.749 815.659, 476.997 814.999 C 467.843 812.803, 469.622 810.299, 479.113 812.020 L 485.264 813.136 488.298 809.318 C 489.967 807.218, 494.032 802.911, 497.330 799.747 C 500.629 796.583, 503.141 793.856, 502.914 793.688 C 502.686 793.519, 499.421 792.879, 495.657 792.264 C 491.894 791.650, 488.556 790.889, 488.240 790.574 C 486.785 789.118, 489.392 789.064, 497.606 790.379 C 502.497 791.162, 507.175 791.469, 508 791.061 C 510.006 790.068, 515.312 790.435, 515.698 791.594 C 515.867 792.102, 512.444 795.373, 508.092 798.864 C 490.242 813.180, 477.994 833.837, 471.250 861 C 468.982 870.138, 468.646 873.576, 468.660 887.500 C 468.674 901.525, 468.996 904.698, 471.269 913.206 C 480.768 948.761, 501.913 968, 531.490 968 C 566.126 968, 595.259 937.297, 604.703 890.842 C 607.352 877.811, 607.055 854.088, 604.097 842.500 C 600.110 826.879, 591.004 810.063, 581.717 801.170 C 578.507 798.096, 577.966 797.915, 574.687 798.821 C 570.747 799.909, 569.445 799.373, 571.121 797.355 C 573.003 795.086, 571.272 793.044, 564.919 790.039 C 555.936 785.791, 546.940 784.436, 536.777 785.801 C 528.534 786.908, 523 786.547, 523 784.902 C 523 784.427, 524.125 783.756, 525.500 783.411 C 527.647 782.872, 529.128 781, 527.407 781 C 527.081 781, 522.468 780.117, 517.157 779.038 C 511.846 777.959, 503.450 776.406, 498.500 775.585 C 486.573 773.609, 456.528 768.370, 446.500 766.518 C 376.727 753.636, 373.563 752.963, 366.380 749.476 C 357.147 744.994, 348.754 736.171, 338.125 719.775 C 333.748 713.024, 329.342 706.461, 328.334 705.192 L 326.500 702.883 322.500 706.991 M 1304.442 718.531 C 1289.898 721.726, 1277.462 728.631, 1265.405 740.207 C 1252.154 752.928, 1242.672 768.185, 1238.897 782.856 C 1233.228 804.895, 1245.885 817.130, 1280.429 823.001 L 1290.500 824.712 1290.285 829.829 C 1290.166 832.643, 1288.412 841.820, 1286.386 850.222 C 1282.335 867.029, 1281.513 878.626, 1283.892 885.416 C 1285.796 890.850, 1292.122 897.376, 1297.889 899.857 C 1313.291 906.483, 1338.408 904.334, 1348.719 895.508 C 1358.691 886.973, 1359.868 874.416, 1353.171 848 C 1350.870 838.925, 1348.878 829.732, 1348.744 827.570 L 1348.500 823.641 1357 821.895 C 1376.775 817.834, 1391.640 810.930, 1395.983 803.788 C 1401.319 795.013, 1400.822 782.977, 1394.563 769.430 C 1385.145 749.045, 1364.595 728.875, 1346.207 721.968 C 1333.430 717.168, 1316.858 715.804, 1304.442 718.531 M 1304 725.499 C 1300.975 726.316, 1294.257 729.106, 1289.072 731.699 C 1268.751 741.859, 1249.499 765.717, 1245.106 786.183 C 1242.714 797.327, 1246.815 804.314, 1259.061 809.958 C 1287.407 823.024, 1357.695 821.161, 1382.233 806.694 C 1389.823 802.219, 1392.316 798.785, 1392.796 792.137 C 1393.520 782.127, 1388.959 770.554, 1378.924 756.936 C 1369.182 743.717, 1355.518 733.292, 1340.674 727.756 C 1333.676 725.146, 1330.845 724.657, 1321 724.361 C 1312.989 724.119, 1307.831 724.465, 1304 725.499 M 239 749.765 C 239 751.761, 270.353 758.904, 296.896 762.955 C 312.232 765.296, 312 765.278, 312 764.164 C 312 763.001, 302.751 760.900, 272 755.077 C 257.425 752.317, 244.037 749.765, 242.250 749.405 C 240.287 749.009, 239 749.152, 239 749.765 M 121 751.734 C 121 753.033, 126.222 754.336, 142 756.976 C 157.313 759.537, 167.609 761.712, 189.562 767.025 C 222.250 774.935, 232.103 776.770, 229.864 774.531 C 229.064 773.730, 188.215 762.380, 174.354 759.106 C 149.905 753.332, 121 749.338, 121 751.734 M 301 778.837 C 301 779.277, 308.313 781.297, 317.250 783.327 C 332.807 786.860, 414.947 803.343, 442.817 808.524 C 456.644 811.095, 467 811.727, 467 810 C 467 809.450, 466.628 809, 466.173 809 C 465.717 809, 445.355 804.970, 420.923 800.044 C 375.067 790.798, 368.349 789.516, 332 783.067 C 306.258 778.501, 301 777.783, 301 778.837 M 900.959 785.076 C 900.148 786.593, 900.138 792.364, 900.924 806.490 C 902.177 829.018, 902.318 846.020, 901.250 845.952 C 900.837 845.926, 898.925 843.403, 897 840.346 C 889.882 829.044, 871.653 814.088, 859.197 809.331 C 855.244 807.821, 854.754 807.818, 853.285 809.287 C 851.816 810.755, 852.148 811.586, 857.285 819.306 C 867.489 834.642, 874.888 850.180, 879.519 866 C 881.079 871.332, 882.233 873.602, 883.508 873.852 C 889.147 874.960, 878.184 843.274, 866.174 823.750 C 863.890 820.038, 862.379 817, 862.815 817 C 864.228 817, 872.344 822.523, 878.624 827.758 C 886.067 833.962, 895.954 846.852, 900.832 856.711 C 907.183 869.546, 907.400 868.538, 906.588 830 C 906.059 804.921, 906.168 796, 907.004 796 C 908.472 796, 916.277 812.723, 919.994 823.836 C 923.213 833.458, 926.479 847.488, 927.531 856.210 C 928.271 862.338, 930.440 866.758, 931.355 864 C 931.628 863.175, 933.240 857.915, 934.936 852.312 C 940.281 834.652, 953.516 811.293, 963.396 802.079 C 966.809 798.897, 967.368 799.719, 965.444 805.094 C 962.931 812.115, 955.214 844.566, 953.481 855.399 C 952.522 861.398, 952.259 865.659, 952.815 866.215 C 953.370 866.770, 956.307 863.833, 960.269 858.759 C 967.214 849.865, 973.913 844.209, 984.194 838.558 C 990.994 834.820, 999.014 831.681, 999.788 832.455 C 1000.050 832.716, 997.874 835.534, 994.953 838.715 C 988.165 846.108, 978.497 860.987, 976.422 867.236 C 973.572 875.816, 977.126 877.420, 980.595 869.119 C 983.379 862.454, 995.064 846.065, 1003.033 837.646 C 1014.093 825.962, 1013.559 823.279, 1000.785 826.345 C 988.130 829.382, 974.173 837.018, 964.265 846.325 C 962.486 847.996, 960.707 849.040, 960.312 848.645 C 959.373 847.707, 965.065 824.352, 970.678 806.109 C 973.113 798.194, 974.871 791.107, 974.584 790.359 C 973.471 787.459, 969.763 789.231, 962.494 796.136 C 951.177 806.885, 942.673 819.459, 935.997 835.310 C 933.956 840.155, 931.908 844.114, 931.446 844.106 C 930.984 844.099, 929.786 840.585, 928.784 836.296 C 924.591 818.359, 916.208 798.338, 908.458 787.750 C 904.671 782.577, 902.677 781.866, 900.959 785.076 M 1409.157 799.934 C 1405.046 800.981, 1403.548 802.379, 1404.336 804.433 C 1404.815 805.680, 1406.626 806.001, 1413.219 806.006 C 1423.777 806.013, 1427.561 807.103, 1435.224 812.347 C 1445.740 819.543, 1454.015 833.762, 1454.005 844.615 C 1453.995 854.890, 1447.234 858.392, 1427.500 858.346 C 1409.516 858.305, 1392.769 853.915, 1381.841 846.378 C 1377.352 843.282, 1375.634 839.467, 1376.544 834.615 C 1377.185 831.199, 1375.973 828, 1374.038 828 C 1372.555 828, 1371 833.279, 1371.007 838.297 C 1371.017 846.330, 1374.110 850.019, 1385.756 855.884 L 1392.012 859.035 1390.615 862.267 C 1389.846 864.045, 1387.819 868.738, 1386.109 872.695 C 1381.178 884.108, 1382.075 892.767, 1388.730 898.003 C 1398.199 905.452, 1417.483 905.905, 1425.499 898.867 C 1430.315 894.638, 1431.290 890.692, 1430.865 877.137 L 1430.500 865.500 1436 864.706 C 1454.457 862.041, 1460.403 856.980, 1460.330 844 C 1460.238 827.675, 1446.026 807.895, 1430.108 801.939 C 1423.883 799.610, 1414.103 798.674, 1409.157 799.934 M 173 800.961 C 173 801.490, 174.912 802.420, 177.250 803.028 C 179.588 803.636, 187.575 805.872, 195 807.997 C 211.469 812.710, 227.957 816.863, 246.500 820.969 C 254.200 822.674, 264.325 824.950, 269 826.026 C 273.675 827.102, 284.475 829.533, 293 831.427 C 301.525 833.322, 317.950 837.120, 329.500 839.868 C 354.917 845.915, 358 846.500, 358 845.282 C 358 843.033, 309.019 830.197, 261.529 820.002 C 243.913 816.220, 216.961 810.173, 201.636 806.563 C 186.310 802.953, 173.598 800, 173.386 800 C 173.174 800, 173 800.433, 173 800.961 M 1132.344 804.546 C 1131.612 806.453, 1132.068 809.980, 1135.828 831.500 C 1139.202 850.816, 1141.413 869.155, 1140.869 873.326 C 1140.502 876.136, 1140.478 876.123, 1136.612 871.036 C 1125.665 856.632, 1096.617 840.138, 1092.728 846.118 C 1091.894 847.401, 1092.822 849.369, 1097.207 855.618 C 1105.886 867.989, 1118.129 893.184, 1116.076 894.453 C 1115.601 894.746, 1113.419 894.353, 1111.226 893.580 C 1103.877 890.987, 1092.818 889.825, 1085.977 890.926 C 1079.161 892.024, 1077.414 893.029, 1078.301 895.342 C 1078.753 896.520, 1080.859 896.792, 1088.684 896.683 C 1099.219 896.536, 1106.281 897.873, 1114.874 901.643 C 1120.624 904.165, 1123.521 904.585, 1124.478 903.036 C 1125.988 900.593, 1114.547 873.247, 1106.413 859.857 C 1104.417 856.571, 1103.026 853.641, 1103.322 853.345 C 1104.258 852.409, 1115.333 858.856, 1121.588 863.979 C 1129.102 870.133, 1137.093 879.511, 1141.811 887.714 C 1147.005 896.745, 1148.343 896.168, 1147.520 885.250 C 1146.662 873.866, 1142.397 839.074, 1140.410 827.246 C 1138.154 813.819, 1138.655 813.229, 1144.872 822 C 1155.278 836.682, 1163.919 857.631, 1169.104 880.750 C 1171.432 891.135, 1173.367 893.801, 1174.546 888.250 C 1179.904 863.023, 1189.326 842.785, 1202.812 827.535 C 1204.633 825.475, 1206.343 824.010, 1206.613 824.279 C 1206.882 824.548, 1205.487 832.690, 1203.512 842.372 C 1200.281 858.218, 1196.073 885.951, 1196.020 891.750 C 1195.984 895.814, 1198.509 894.116, 1203.781 886.534 C 1209.872 877.772, 1219.687 869.306, 1229.384 864.448 C 1235.475 861.397, 1240 860.120, 1240 861.452 C 1240 861.701, 1238.047 864.738, 1235.660 868.202 C 1228.989 877.884, 1225.393 884.766, 1222.505 893.381 C 1220.630 898.973, 1220.173 901.573, 1220.931 902.331 C 1222.546 903.946, 1223.702 902.318, 1228.488 891.692 C 1232.741 882.251, 1239.749 870.948, 1247.136 861.619 C 1249.261 858.935, 1251 856.108, 1251 855.338 C 1251 848.160, 1224.365 858.332, 1211.168 870.551 C 1207.184 874.240, 1203.687 877.020, 1203.396 876.730 C 1202.570 875.903, 1208.629 841.853, 1212.044 828.130 C 1213.737 821.327, 1214.884 815.140, 1214.592 814.380 C 1212.749 809.576, 1202.808 817.305, 1192.912 831.235 C 1187.392 839.006, 1176.993 859.384, 1174.859 866.612 C 1174.146 869.026, 1173.287 871, 1172.949 871 C 1172.611 871, 1170.697 865.706, 1168.696 859.237 C 1162.823 840.247, 1152.885 821.615, 1141.770 808.750 C 1136.808 803.007, 1133.501 801.532, 1132.344 804.546 M 531.500 807.529 C 529.300 808.321, 527.388 808.977, 527.250 808.985 C 527.112 808.993, 527 809.675, 527 810.500 C 527 812.296, 528.628 812.374, 534.622 810.865 C 541.594 809.109, 542.192 810.740, 537.065 817.531 C 532.334 823.797, 528.573 831.500, 529.507 833.012 C 530.700 834.942, 531.932 833.942, 533.932 829.420 C 535.046 826.902, 537.324 823.116, 538.993 821.009 C 540.662 818.901, 542.718 815.526, 543.561 813.508 C 545.062 809.916, 545.181 809.854, 549.297 810.509 C 555.644 811.520, 563.719 815.517, 569.649 820.583 C 575.668 825.725, 581.740 836.779, 584.710 848 C 586.619 855.213, 587.192 880.696, 585.636 889.250 C 584.567 895.133, 586.130 895.632, 588.338 890.113 C 593.119 878.165, 592.603 858.842, 587.063 842.356 C 583.585 832.005, 579.040 825.167, 569.926 816.569 C 564.269 811.232, 561.910 809.744, 556.430 808.051 C 548.607 805.635, 537.409 805.400, 531.500 807.529 M 507.350 824.289 C 498.730 833.616, 491.470 848.273, 487.467 864.428 C 484.978 874.472, 484.801 876.493, 485.277 889.428 C 485.644 899.421, 486.379 905.443, 487.813 910.202 C 492.669 926.324, 502.299 938.625, 514.881 944.776 C 522.203 948.355, 522.910 948.500, 533 948.500 C 543.097 948.500, 543.806 948.354, 551.469 944.695 C 561.952 939.690, 572.788 928.839, 578.185 917.941 C 585.230 903.714, 584.282 899.980, 577 913.272 C 570.550 925.044, 560.122 935.702, 550.214 940.648 C 542.890 944.306, 542.020 944.500, 533 944.500 C 524.803 944.500, 522.722 944.135, 517.825 941.840 C 497.799 932.452, 486.246 906.387, 489.099 877.031 C 490.679 860.780, 495.771 846.937, 505.488 832.480 C 508.068 828.641, 510.590 824.740, 511.092 823.811 C 512.761 820.723, 510.361 821.030, 507.350 824.289 M 1318.527 824.733 C 1308.092 824.905, 1299.192 825.408, 1298.749 825.851 C 1298.307 826.293, 1297.484 829.546, 1296.920 833.078 C 1296.357 836.610, 1294.548 845.066, 1292.900 851.869 C 1287.630 873.616, 1287.969 881.640, 1294.462 888.826 C 1300.340 895.333, 1314.494 898.319, 1328.877 896.087 C 1349.485 892.890, 1354.661 881.534, 1347.832 854.500 C 1346.721 850.100, 1344.789 841.550, 1343.541 835.500 C 1341.627 826.231, 1340.973 824.494, 1339.385 824.460 C 1338.348 824.438, 1328.962 824.561, 1318.527 824.733 M 531.266 836.460 C 526.892 838.394, 518.377 846.500, 515.420 851.546 C 511.056 858.993, 508.872 866.967, 508.285 877.599 C 507.762 887.082, 509.136 898, 510.852 898 C 511.210 898, 511.520 892.263, 511.540 885.250 C 511.579 871.719, 512.536 867.063, 517.371 856.890 C 522.370 846.369, 530.098 839.733, 539.147 838.188 C 541.541 837.779, 543.500 837.007, 543.500 836.472 C 543.500 834.909, 534.794 834.900, 531.266 836.460 M 554.738 844.331 C 570.998 861.971, 564.453 904.121, 543.860 914.382 C 535.871 918.364, 527.907 917.615, 521.849 912.314 C 519.696 910.430, 518.284 912.431, 520.164 914.702 C 524.768 920.266, 537.396 921.600, 545.801 917.412 C 564.530 908.079, 573.979 873.119, 563.714 851.142 C 561.263 845.896, 555.445 840, 552.719 840 C 551.065 840, 551.391 840.701, 554.738 844.331 M 206 860.732 C 206 861.803, 209.770 863.142, 222 866.415 C 241.988 871.764, 315.064 888, 319.152 888 C 322.855 888, 320.868 886.019, 315.750 884.608 C 301.339 880.634, 244.164 867.583, 225 863.893 C 216.475 862.251, 208.713 860.674, 207.750 860.387 C 206.787 860.100, 206 860.255, 206 860.732 M 533.740 863.750 C 527.783 869.969, 525.487 881.792, 528.788 889.253 C 529.902 891.771, 532.008 894.614, 533.468 895.571 C 535.948 897.196, 536.352 897.203, 539.562 895.672 C 541.453 894.770, 543 893.346, 543 892.508 C 543 891.253, 542.659 891.196, 541.074 892.186 C 538.178 893.994, 534.221 891.774, 532.347 887.288 C 529.518 880.518, 532.863 868.102, 538.513 864.400 C 541.627 862.359, 541.697 861, 538.687 861 C 537.415 861, 535.189 862.237, 533.740 863.750 M 1397 862.009 C 1397 862.564, 1395.200 867.231, 1393 872.381 C 1388.321 883.331, 1387.975 887.629, 1391.441 891.747 C 1397.215 898.609, 1416.182 899.693, 1422.006 893.494 C 1424.673 890.655, 1425.568 882.151, 1424.320 871.500 L 1423.500 864.500 1416.137 863.766 C 1412.087 863.362, 1407.137 862.577, 1405.137 862.021 C 1400.478 860.727, 1397 860.722, 1397 862.009 M 319.550 870.907 C 320.072 871.406, 325.675 873.240, 332 874.982 C 338.325 876.724, 344.625 878.560, 346 879.063 C 353.514 881.809, 419.807 895.526, 420.795 894.539 C 421.151 894.183, 420.780 893.479, 419.971 892.975 C 418.119 891.821, 394.684 886.165, 368 880.432 C 356.725 878.010, 341.733 874.671, 334.684 873.014 C 321.178 869.838, 317.962 869.390, 319.550 870.907 M 181 871.872 C 181 873.059, 179.948 872.783, 217.750 881.518 C 218.988 881.804, 220 881.650, 220 881.177 C 220 880.703, 216.063 879.123, 211.250 877.667 C 196.585 873.228, 181 870.242, 181 871.872 M 749.500 884.013 C 741.249 885.274, 733.742 888.656, 729.459 893.042 C 726.069 896.514, 725.500 897.725, 725.500 901.468 C 725.500 911.749, 738.992 918, 761.184 918 C 784.207 918, 797.691 910.826, 795.601 899.688 C 793.538 888.689, 770.395 880.821, 749.500 884.013 M 749.450 889.461 C 728.216 893.319, 724.532 905.125, 742.817 910.723 C 750.791 913.165, 771.319 913.175, 779.183 910.741 C 785.921 908.657, 791 904.721, 791 901.585 C 791 896.775, 781.870 891.703, 769.114 889.428 C 760.009 887.804, 758.560 887.806, 749.450 889.461 M 403.008 916.642 C 403.024 918.453, 453.427 931.906, 454.853 930.480 C 457.031 928.303, 446.741 924.924, 423 920.019 C 414.475 918.258, 406.488 916.584, 405.250 916.300 C 404.012 916.016, 403.003 916.169, 403.008 916.642 M 805.764 923.996 C 801.837 925.178, 796.300 928.777, 795.599 930.602 C 794.452 933.593, 795.012 937.701, 796.787 939.307 C 803.925 945.767, 822.520 946.494, 831.188 940.652 C 834.101 938.689, 834.500 937.888, 834.500 934 C 834.500 930.093, 834.107 929.315, 831.118 927.300 C 829.257 926.047, 826.107 924.569, 824.118 924.016 C 819.861 922.834, 809.661 922.822, 805.764 923.996 M 807.806 928.399 C 802.276 929.888, 800 931.549, 800 934.097 C 800 940.304, 822.402 942.115, 828.783 936.424 L 831.500 934 828.804 931.594 C 826.333 929.390, 818.315 926.904, 814.201 927.067 C 813.265 927.105, 810.388 927.704, 807.806 928.399 M 655.791 939.988 C 652.458 940.993, 647 944.790, 647 946.104 C 647 946.636, 649.138 948.029, 651.750 949.199 C 657.681 951.857, 669.602 952.112, 675.250 949.702 C 679.544 947.870, 679.840 946.840, 676.912 943.912 C 672.510 939.510, 663.149 937.771, 655.791 939.988" stroke="none" fill="black" fill-rule="evenodd"/>
</svg>